<svg id="Camada_1" data-name="Camada 1" xmlns="http://www.w3.org/2000/svg" viewBox="0 0 231.91 83.94"><defs><style>.cls-1{fill:#1a203c;}.cls-2{fill:#fdf4a3;}</style></defs><path class="cls-1" d="M40.79,74.32a31.37,31.37,0,1,1,0-62.73h151a31.37,31.37,0,1,1,0,62.73Z"/><path class="cls-2" d="M191.82,13.09a29.87,29.87,0,1,1,0,59.73h-151a29.87,29.87,0,1,1,0-59.73h151m0-3h-151A32.87,32.87,0,0,0,7.92,43h0A32.87,32.87,0,0,0,40.79,75.82h151A32.86,32.86,0,0,0,224.69,43h0a32.87,32.87,0,0,0-32.87-32.87Z"/><path class="cls-2" d="M192.85,78.23c-.8,0-.51.41-.64.49C193.58,78.56,192.81,78.12,192.85,78.23Z"/><path class="cls-2" d="M205.44,74.66l-.15.24c.55-.34,1.05-.79,1.57-1.18C206.39,74,205.93,74.37,205.44,74.66Z"/><path class="cls-2" d="M215.56,68.12c-1.28.26-3.23,3-5.26,3.85l-.39,0-.54,1c.56-.37,1.14-.77,1.73-1.18s1.13-.93,1.68-1.37,1.08-.86,1.53-1.29A12.9,12.9,0,0,1,215.56,68.12Z"/><path class="cls-2" d="M221.09,64.23c-.47.17.69-1.31-1,1.2l.23-.18C220.47,65,220.7,64.73,221.09,64.23Z"/><path class="cls-2" d="M220.31,65.25c-.79,1.08.71-.55,0,0Z"/><path class="cls-2" d="M223.58,60.06l-.69,1.63c.33-.23,1.18-1.56,1-1C224.62,59,224.26,59.27,223.58,60.06Z"/><path class="cls-2" d="M223.85,58.35l-.3.85C223.68,59.09,223.81,58.88,223.85,58.35Z"/><path class="cls-2" d="M222.81,61a16,16,0,0,0,.74-1.76c-.22.17-.41.09-.33.81C223.12,59.78,223.1,60.19,222.81,61Z"/><path class="cls-2" d="M222.16,61.83c-.63.76-1.4,1.72-.68.14-.84,1.4-1.2,2-1,2s.29-.19.59-.54c.16-.17.33-.39.53-.65S222,62.19,222.16,61.83Z"/><path class="cls-2" d="M215.51,67.17l-1.06.67-.63.9C214.14,68.29,215.71,67.28,215.51,67.17Z"/><path class="cls-2" d="M227.63,49.92c-.13-.13-.5.51-.74.59l-.15,1.28A7.6,7.6,0,0,1,227.63,49.92Z"/><path class="cls-2" d="M226.89,50.51a17.88,17.88,0,0,0,.07-1.93C226.7,50.26,226.7,50.57,226.89,50.51Z"/><path class="cls-2" d="M223.26,57.73l-.42,1.5c-.14.51-.36,1-.54,1.47a27.45,27.45,0,0,0,1.21-3.51Z"/><path class="cls-2" d="M228.31,42.52a9.4,9.4,0,0,1,.34,1.11,17,17,0,0,0-.56-2Z"/><path class="cls-2" d="M227.83,37.61c.42.77.32-1.2.63-.36a11.14,11.14,0,0,0-.51-1.84c-.24-.56-.49-1.06-.73-1.53a10.6,10.6,0,0,1,.49,1.67A13,13,0,0,1,227.83,37.61Z"/><path class="cls-2" d="M226.47,32.29c.21.51.47,1,.75,1.59A10.48,10.48,0,0,0,226.47,32.29Z"/><path class="cls-2" d="M227.41,45.36a2.78,2.78,0,0,0,.51-1.49l-.47.74Z"/><path class="cls-2" d="M227.44,44.64v0c.05-.81.09-1.37.1-1.62C227.54,43.2,227.5,43.7,227.44,44.64Z"/><path class="cls-2" d="M227.4,45.55v-.19A.14.14,0,0,0,227.4,45.55Z"/><path class="cls-2" d="M225.44,53.32c.06-1.15.37-3.39-.53-1.37C225,52.78,225.52,51.61,225.44,53.32Z"/><path class="cls-2" d="M226.82,46.43c-.12.66-.26,1.31-.39,2,.11,0,.33-.36.37.21C226.8,47.87,226.82,47.15,226.82,46.43Z"/><polygon class="cls-2" points="226.73 45.44 226.81 46.43 226.89 45.69 226.73 45.44"/><path class="cls-2" d="M227,35.79A17.57,17.57,0,0,1,226,33c.19,1.14.51,2.29.69,3.41C226.85,36.57,227.17,37,227,35.79Z"/><path class="cls-2" d="M227.42,40.09l0-.2C227.36,40,227.35,40.11,227.42,40.09Z"/><path class="cls-2" d="M221.54,23.41l0,.19h.08Z"/><path class="cls-2" d="M226.65,36.64a4.91,4.91,0,0,0,.43,1.83c-.13-.63-.27-1.31-.38-2C226.63,36.37,226.59,36.37,226.65,36.64Z"/><path class="cls-2" d="M225.25,29.53c.08.46.18,1,.31,1.51A4,4,0,0,0,225.25,29.53Z"/><path class="cls-2" d="M227.49,39.59l0,.13C227.59,39.42,227.55,39.46,227.49,39.59Z"/><path class="cls-2" d="M227.49,39.59a5,5,0,0,0-.41-1.12c.12.52.24,1,.31,1.42A1.17,1.17,0,0,1,227.49,39.59Z"/><path class="cls-2" d="M217.49,22.55c.19-.07.68.26,1.22.84a8.1,8.1,0,0,1,.82,1,6.27,6.27,0,0,1,.58,1.29c1.19,1.39,1.73-.24,1.45-2.1-.18,0-.28.1-1.66-1.33.11.36.71,1.26,1,2s.4,1.25-.17.65a12.88,12.88,0,0,1-1.19-1.78,8.49,8.49,0,0,0-.44-1.14c.12.58-.49,0-1.2-.51s-1.52-1-1.61-.57c.53.49,1.13.92,1.61,1.46C217.82,22.51,217.21,22,217.49,22.55Z"/><path class="cls-2" d="M223.43,26.9l.4.72c-.34-.87-.47-1.56-.87-2.77-.89-1.09-1.16-1.25-1.32-1.26l1,1.75.51.87.43.92Z"/><path class="cls-2" d="M225.27,31c-.63-.46-1.46-2.19-1.49-.91.83,2.19.92,1.41,1.55,2.7-1.38-3.59.62,1-.1-1.74a10.93,10.93,0,0,1,.78,2c-.1-.71-.33-1.35-.45-2v.11h0c0,.17,0,.24,0,.05a.59.59,0,0,1,0-.08.39.39,0,0,1-.21-.11c-.3-1.09,0-.2.21.11l.08,0v0l-.78-1.79c-.3-.59-.63-1.15-.95-1.72C224.14,28.39,224.63,29.29,225.27,31Z"/><path class="cls-2" d="M224.51,49.82c.06-.11.09-.1.12-.1C224.63,49.48,224.62,49.39,224.51,49.82Z"/><path class="cls-2" d="M225,48.37a3,3,0,0,1,0,1.39c-.31.71-.2,0-.35,0,0,.53-.16,1.86.46.29v-.26a10.06,10.06,0,0,1,1.22-3A5.65,5.65,0,0,0,225,48.37Z"/><path class="cls-2" d="M226.17,39.73c-.18-1-.44-2-.66-3.07l-.13,1.62.21-.11C225.78,39.93,226,39.53,226.17,39.73Z"/><path class="cls-2" d="M221.5,23l.62.11c-.52-.42-1.1-.78-1.64-1.16Z"/><polygon class="cls-2" points="218.84 19.68 219.25 19.54 218.31 18.86 218.84 19.68"/><path class="cls-2" d="M11.7,35.3l-.1.83A6.32,6.32,0,0,0,11.7,35.3Z"/><path class="cls-2" d="M13.78,29.71l-.11-.21C13.64,29.79,13.67,29.93,13.78,29.71Z"/><path class="cls-2" d="M123.47,7.6c-1.3-.37-2.75-.94-2.59-.5l.4.44A8.9,8.9,0,0,1,123.47,7.6Z"/><path class="cls-2" d="M57.21,10.19l.38.13.87-.41Z"/><path class="cls-2" d="M56.29,12l-1.71-.28A15.88,15.88,0,0,0,56.29,12Z"/><path class="cls-2" d="M20.67,64.85l1,.31C20.58,64.17,20.9,64.77,20.67,64.85Z"/><path class="cls-2" d="M179.88,7.71a24,24,0,0,0-2.8-.26C178.43,7.7,179.52,8.08,179.88,7.71Z"/><path class="cls-2" d="M8,31.55c-.13.58-.13.83,0,.85C8.12,31.82,8.16,31.47,8,31.55Z"/><path class="cls-2" d="M173.85,7.45c.2,0,.39.07.59.11a21.63,21.63,0,0,1,2.64-.11A7.33,7.33,0,0,0,173.85,7.45Z"/><path class="cls-2" d="M144.18,73.35l.29.05C144.5,73.34,144.37,73.34,144.18,73.35Z"/><path class="cls-2" d="M181.39,77.73c-.36,0-1,0-1.52,0A9,9,0,0,0,181.39,77.73Z"/><path class="cls-2" d="M205.08,9.8c.86.28.15,0,0,0Z"/><path class="cls-2" d="M208.27,13.13c-.19,0-.34-.05-.41,0A.56.56,0,0,1,208.27,13.13Z"/><path class="cls-2" d="M165.53,10.15h-.08C165.7,10.24,165.66,10.22,165.53,10.15Z"/><path class="cls-2" d="M206.27,10.48a6.06,6.06,0,0,0-1-.55C205.4,10,205.73,10.16,206.27,10.48Z"/><path class="cls-2" d="M206.18,10.21l.7.38C207,10.57,206.94,10.49,206.18,10.21Z"/><path class="cls-2" d="M203.89,9.39c.48.17.93.35,1.36.54-.16-.09-.22-.13-.17-.13Z"/><path class="cls-2" d="M75.74,74.51l.18,0C76.76,74.37,76.39,74.4,75.74,74.51Z"/><path class="cls-2" d="M101.72,12.1l.1,0h-.12Z"/><path class="cls-2" d="M98.72,12.43a4.93,4.93,0,0,1,3-.36l-1-1.25Z"/><path class="cls-2" d="M11.53,49.46a18.52,18.52,0,0,1,.06-2c.24.55.42,1.06.57,1.49l.44,1c.21.44.28.38.33-.53-.75,0-1.08-1.79-1.36-3.62a24,24,0,0,0-.26-2.56c-.12-.72-.23-1.22-.58-1.3l.35-1.27c0,.36.05.43,0,.79a2.9,2.9,0,0,0,0-2.27A4.14,4.14,0,0,1,11,36.31c.39-1.09.77-1.79.74-1L11.85,34c.05-.42.17-.83.26-1.25.27-.68.43-.43.16.25l.61-1.82c.22-.6.51-1.18.76-1.77l0,.05c0-.3.1-.76.18-1.24s.27-.92.37-1.22c.68-.75-.14.5.14.37l.85-2c.42-.25.39,0,.23.53a9.19,9.19,0,0,1-.93,1.86A2.23,2.23,0,0,0,16,26.16a5.49,5.49,0,0,1,.66-1.25,9.5,9.5,0,0,1,.66-.83,5.16,5.16,0,0,1,1-.95,12.77,12.77,0,0,0-1.11,1.64,7.32,7.32,0,0,0,1.81-1.28,11.3,11.3,0,0,1,2.22-1.75c-.13,0-.46.19-.85.36s-.78.44-1.15.61c-.74.35-1.28.46-.63-.51a5.52,5.52,0,0,0,.83-.8,8.19,8.19,0,0,0,1-1.23c.36.37,1.1-.61,2.33-1.49l.31.57c1.18-1.1.87-1.33,1.54-2.06,1.61-.9,2.15-.69,2.74-.48,2.63-1.14-2.17.16.87-1.43,2.31-.81,3.81-1.56,6.6-2.64,1.74,0-.23.43.42.52l1.41-.73c.37,0,.27.13.23.21.61-.19.62-.36.72-.53s.29-.37,1.32-.49c.26-.36,1.32-.19,2.66,0a9.75,9.75,0,0,0,4.33.08c.66.19-.32.4-.12.64A44.24,44.24,0,0,0,52,11.29l2.56.42c-1.88-.48.52-1.05,2.63-1.52-.67-.23-1.24-.44-1.62-.53L59,9.31c.4.11.06.33-.49.6l.62-.16c1.2.24.58.61-.28,1l-1.21-.4c-.83.39-1.61.82-1.44,1.2a5.18,5.18,0,0,1,1.1-.18c-.21.11-.35.2-.25.27s.46-.08,1-.24l.77.71L59,11.8l4.39.44c3.15-.71,5.88-1.77,10.87-2.06-1.24.52-.27.85-.33,1.47-1.36-.66-3.87.28-6.45.14,1.35.07,1,.37.71.47l4.61-.59c-.11.5,1,.38,2.18.58-.91-1,3.44-.66,5.31-1,.12.34-.33.68-2.62.6,2.53.75,3.27-1.18,5.74-.54-.55,0-.86,0-1.08.13,1.31-.3,4.5-.06,3.75.23h-.56c3.71.12,11.3,0,11.85-.84a3.33,3.33,0,0,1-.71,1.19l6.62-2.86c-.58.73,1.66,2.47-1.42,2.88a13.14,13.14,0,0,0,3.84,0c-.6-.1-1.5-1.05-.68-1.12a28.1,28.1,0,0,0,4.36,1.13c-.91-.16.1-1.31,1.52-1.27-.22.17.12,1.13-.4,1.25L114,10.92c-.88.2-.15.95.64,1.27-.37-.22,3.07,0,4-.09l-1.5-.26c4,.17,4-1.59,7.94-1.53-.48.24-1.19,1.43.83,1.57.93-.57,4.11-2.77,7.63-3.21l.68.33,2.7-.37a66.8,66.8,0,0,1-9,3.4c1.5.26.42.38,2.66.35.8.31-1.22.47-1.88.49l5.23.2c-.23-.67,4-.68,3.81-1.24l-5.69.7c-.23-.67,3.29-1.91,7-1.79.94.27-.71,1.2-.63,1.42a13.24,13.24,0,0,1,3.86-.28l-1.57.36c2.06.26,3.37-.89,5.85-.25.85,0,2.55.87,2.7.47-1.39-.76-1.67-3.14-.74-3.71a54.8,54.8,0,0,1,5.48,1.11c1.41.6-2.12,1.43-.92,2,.05-.18.83-.41,1.16-.48.9.15-.38.56,1.58.48.33-.68,4,.06.92-.57,1.91-.2,2,.14,4.28.11-.72-.44,2-1.5,3.93-1.7-.11.18.32.4.53.5,3.91.07,6,.38,9.67.38.34.17,2.1.37,1.35.66a7.56,7.56,0,0,1,2.14-.37c2.18.59-2.52.09-.85.8.14-.39,2.91-.55,4.52-.79-.5-.61-3.71-.12-5.32.13,0-.85,2.79-1.73,6.61-2.12,3-.21,1.32.54,1.84.43a14.56,14.56,0,0,0,5.16-.61,7.85,7.85,0,0,1,1.75-.35,13.53,13.53,0,0,1,2.83.24c1.89.73,0,1,.38,1.48a13.92,13.92,0,0,1-3.05-.25,13.72,13.72,0,0,0-2.44-.24l2.06.25a10.87,10.87,0,0,1-3.34.16c.79.26,3.21.2,5.94.41a15.1,15.1,0,0,1,2.09.26c.7.12,1.41.22,2.09.37l1.93.57a9.07,9.07,0,0,1,1.67.64c.78.1,2.11.38,1.59,0l-1.34-.41c-1.08-.85,2.71.35,1.09-.45l1.49.28c.51.14,1,.3,1.56.49s1.09.4,1.66.66a16.33,16.33,0,0,1,1.64,1.07l.11.79a4.88,4.88,0,0,0-2.07-1.46,9.12,9.12,0,0,1,2.16,1.55c.42.32.81.67,1.19,1a2.42,2.42,0,0,0,1.14.48l-1.28-1.49c.86.46,1.9.92,2.94,1.49a13.45,13.45,0,0,1,2.8,2.34c-.36-1.25-.44-.34-1.27-2.08.14.43-.09.37-.49.08s-1-.82-1.56-1.24c-1.19-.9-2.28-1.7-1.56-.59a5.33,5.33,0,0,0-1.81-1.87c-.71-.51-1.45-1.06-2.4-1.87,0,.21.59.72-1.27-.29a3,3,0,0,1-.49,0l-.12-.07.09.07c-.09,0-.1,0,0,0a3.38,3.38,0,0,1,.83.75c-1.09-.11-4.16-1.25-5.29-1.31-1.15-.4.56-.1,0-.47l-1.69-.06c0-.52-3.06-1.44-.13-1.08a23.1,23.1,0,0,0-2.61-.5,13.28,13.28,0,0,0-5-.58c-1.19-.12-2.94.49-1.94.14l-3.85.28,0-.12c-3.81,0-7.84.75-12.19-.06a28.29,28.29,0,0,1-4.75.12l-.42-.39c-1.64.14-4.94-.39-5.65,0-1.77-1-8-.23-10.88-.42l-.11.51c-2,0-3.9.12-6.37.32l.15.45c-2.13.37-5.48-.32-8.85-.27a3.4,3.4,0,0,1,1.69,0c-4-1-8.5.74-12.16,0a5.82,5.82,0,0,1-2.21,0,.8.8,0,0,0,.23,0h-.38c-.4-.08-.81-.17-1.26-.24a7.44,7.44,0,0,0,1.06.24c-.7,0-1.76.06-2.81.18l-.44-.48H121c-1-.18-.83.23-.28.59a9.16,9.16,0,0,0-1.38.29c-.83-.78-2.74.26-3.88-.57-.7.41-5.24.31-5.8,1.16,0-.11-.34-.17.22-.17a11.15,11.15,0,0,0-3.37,0l-.49-.61-2.55.82c-1.54-.37-2.18-.59-.65-1.06-3.7.73-3,.28-6.15,1l.16-.39c-1.13,0-2.93.54-3.61.22-2.51-.76-12.45-.11-18.91-.81,1.25,1.17-3-.52-3.26.38-.38-.27-1.28-.43-.23-.67-3.3.27-5-.43-7.23.33-.38-.28.7-.41.37-.57a2.81,2.81,0,0,1-1.39.07c-.34-.16.48-.23,1-.35-3.37,0-3.71.9-4,1.7a5.31,5.31,0,0,0-3.8.2c-.59-.27-1.58-.54.51-.63-1.18,0-7.19-.38-7.31.26a5.37,5.37,0,0,0-2,0c-2.64,0-2.87-.09-5.47,0l.72.1c-1,.75-2.18.22-4.33.42l0-.08a12.23,12.23,0,0,0-3.52.35,17.17,17.17,0,0,1-3.46.64l.4.4c-.09.51-1.11.76-2.48,1-.34.07-.71.13-1.08.22s-.72.22-1.09.35a8.3,8.3,0,0,0-2,1c.34-.1.7-.14,1-.21a7.72,7.72,0,0,1-2.84,1,8.68,8.68,0,0,0-3,.93c-.34.14.36-.45.72-.8-1.89,1-1.91,1.25-1.75,1.44s.43.35-.66,1.45c-.65.14,0-1.15-1.63.24-.53.23-1.39,1.58-2.39,3-.51.73-.95,1.58-1.47,2.3-.25.38-.53.71-.77,1.05a7.82,7.82,0,0,1-.74.92c.56-.41,1.09-.79.51.54a13.53,13.53,0,0,1-1.06,1.56L9.59,28.39c-.2.31-.39.63-.56.95a9.82,9.82,0,0,0-.39,1,5,5,0,0,0-.32,1.78c-.16.24-.27.32-.33.31-.14.84-.38,2.19-.59,3.46a11.46,11.46,0,0,0,0,3c-.5.32-.7,1.16-.78,2.21,0,.53,0,1.1,0,1.7s.14,1.21.22,1.81.16,1.18.24,1.72.21,1,.26,1.44c.12.83.07,1.39-.3,1.46a20.1,20.1,0,0,0,.61,2.52,17.3,17.3,0,0,0,.78,2.47l-.2-.07A12.08,12.08,0,0,0,9.7,57.46,11.94,11.94,0,0,0,11,59.05c.26.71-.13.3-.23.28.54,1.08,1,1.9,1.38,2.59a10.83,10.83,0,0,0,1.2,1.66A14,14,0,0,0,14.68,65c.54.44,1.18.92,2,1.53l-.08.65a10.33,10.33,0,0,1,1.19,1.11,24.42,24.42,0,0,0,2,2,19.56,19.56,0,0,0,2.83,2.18c.53.33,1.07.65,1.61,1a11.28,11.28,0,0,0,1.7.7c-.07,0-.2.07-.57,0,.64.23,1.29.5,1.94.81s1.36.54,2,.84a37.93,37.93,0,0,0,4.14,1.53,18.27,18.27,0,0,0,3.72.7,3.68,3.68,0,0,0,2.45-.58c1.19-.07,2.3-.22,3.41-.37-4.33-.14.65-.79-1.13-1.09,1.7-.1,4.4.55,2.31.64l-.33-.09c-.77.94,5.38.33,5.26,1,8.52,0,16.82.48,24.79.52l-.92-.73,2.79,0c.73.17,1,.57-1,.54a5.37,5.37,0,0,0,3.39-.51c3.89.3-1.52.86-.33.87l1.62,0L79.17,78A9.64,9.64,0,0,1,83,77.46c1.51.14.77.45,1.37.47,0,.06.2.08.91,0l3.51.06-1.41-.58c1.56-.28,3.3,0,1.68-.62,2.38,1,13.08.36,14.54.67a32.93,32.93,0,0,1,7-.36c-.66-.12-1-.77,1.24-.69C111,77.78,116,77,117.86,78c-1.66-.64,6.53-.16,3.92-1.07,1.92.11.12.5,1.57.82,4.56-.52,10.05.33,15.68.16.09-.18-.85-.45.36-.71l3,.88c1.11-.08,1-1,3.06-.4-.29-.15-.72-.37,0-.43,11,.86,22.55-.7,33.76.91-1.51-.34-.5-.38.66-.39-.76-.08,0-.43-.13-.67l4.69.66c.85-.66,5,0,5.52-.68l-1.49.12c2-.75-2.76-1.66-2.47-2.62-2.22.85-5.84-1.26-9.47,0-.8-.2.69-.31.26-.53a8.13,8.13,0,0,1-4.09.31l.23-.1c-5.79.1-8.27-.31-14.77-.58l.48.48a12.22,12.22,0,0,1-2.34-.33c-1.61.71,3.92,0,2.46.83-1.85-1-9.85,0-11.1-1.11-2.15,0,.63.55-1.52.54l-.57-.3-.54.39c-1.41-.07-2.12-.44-2.18-.69a12.56,12.56,0,0,0,1.34-.09c-1.83-.35-5.15.12-5.78,0l2.07.19c-5.87.27-13-.12-18.69.49l.43.22c-4.33.41-3.47-.24-8.22,0l.17-.06a14.35,14.35,0,0,1-3.52.31c1.2-.26-2.26-.5-.68-.8-4.69.45-2.32.35-5.42,1.18l-.72-.37a8.43,8.43,0,0,1-3.51.61c1.94-.32-1.52-.56.66-1-5-.81-7.39.81-9.67-.37-2.29,1,4.3.57,3,.79,1.08.33-1.88.77-3.45.66s-2.7-1.31-6.7-1.29c.4,0,.42-.07.82-.07-1.5-.26-2.93.36-4.77-.07-1,.62-2.38,0-2.68.76l3.67-.19c-2.08.21-4,1.14-7.46.69a9.69,9.69,0,0,1,2-.49c-1-.23-1.93.15-3-.09.3-.79,4.46-.17,6.69-.77-1.08-.34-4.22.57-3.1-.29-1.61,1.1-3.94-.13-6.65.7l.18-.47a11.77,11.77,0,0,1-2.11.28l1.43-.61c-2.19.52-4.23-.46-6.33-.18,4.4,0,1,.57,2.85.92-5.43.64-3.12-1.24-9.21-1,.83-.07,3.1.28,1.81.5a18,18,0,0,1-3.4-.53c-4,.1.62.49-1.1.78-1.37-.57-2,.24-3.74.42l0-.48c-4.59-.31-1.21,1-5.35.63l1.75-.67-2.16.18.45-.55a13.63,13.63,0,0,1-5.24.06c.24.18.16.4-.23.56a3.9,3.9,0,0,1-2,.14c-1.26-.48.79-.34-1.91-.68a2.61,2.61,0,0,1,2.46.13c.14-.12.63-.24.76-.39a15,15,0,0,0-2.31-.47L35.1,72.5l-.87-.19a9.26,9.26,0,0,1,1,.36c-.65,0-1.29-.1-2-.15a13.2,13.2,0,0,1-2-.23c-.52-.39,0-.35.49-.32-.76-.23-1.34-.21-2.46-.57.43-.26.53-.65,2.09-.28l-1.78-.42c-.59-.17-1.15-.39-1.74-.58-.16-.25-1.46-1.24-1-1.16a7.51,7.51,0,0,0-1.41-.84,17.78,17.78,0,0,1-1.7-.84c-.58-.33-1.18-.66-1.76-1a10.35,10.35,0,0,1-1.49-1.39,2.5,2.5,0,0,1-.88-.52c-.41-.49-.79-1-1.16-1.46l-.57-.73-.5-.78c-.35-.52-.72-1-1.15-1.55A17.87,17.87,0,0,0,15,58.12l-.14-.89,0-.92c-.56-1-.52-.4-.57,0s-.18.73-1.16-1c-1.26-2.52.17-1.2,0-2.17l-.71-1a9.34,9.34,0,0,1-.67-1.38,10.9,10.9,0,0,1-.55-1.67,9.19,9.19,0,0,1-.07-1.9C11.35,48,11.28,48.71,11.53,49.46Zm7.08-27.22c-.31.5-.86,1.5-1.3,1.68C17.25,23,17.85,22.86,18.61,22.24ZM61.84,11.12A3.89,3.89,0,0,1,59.9,11,7.76,7.76,0,0,1,61.84,11.12Zm133.58-3.2-.07,0C193.91,7.68,194.42,7.78,195.42,7.92Zm3,.62c.31,0,.3-.09.19-.17a4.93,4.93,0,0,1-1.66-.16A2.48,2.48,0,0,0,198.38,8.54ZM84.66,77.76l-.55-.13C85.35,77.49,85,77.62,84.66,77.76Z"/><path class="cls-2" d="M56.41,11.78a.46.46,0,0,1-.26-.26C55.91,11.6,55.91,11.69,56.41,11.78Z"/><path class="cls-2" d="M20.48,64.79l.07.06a.24.24,0,0,0,.12,0Z"/><path class="cls-2" d="M154.25,12.06a4.27,4.27,0,0,1-1.12-.25C153.1,11.93,153.36,12,154.25,12.06Z"/><path class="cls-2" d="M213.39,14.12a16.08,16.08,0,0,0-1.68-1,4.81,4.81,0,0,1,1.35,1.14C213.09,14.11,212.89,13.76,213.39,14.12Z"/><path class="cls-2" d="M221.61,28.42c.17.21.25.5.42.71l.17-.16C221.69,28,221.19,27.33,221.61,28.42Z"/><path class="cls-2" d="M213.83,16.46c-.12.39.81,1.08,1.84,1.91l-.17-.16C216.18,18.07,215,17.23,213.83,16.46Z"/><path class="cls-2" d="M215.91,18.56a5.32,5.32,0,0,1,.85.86C217,19.39,216.5,19,215.91,18.56Z"/><path class="cls-2" d="M202.17,9.15c.6.26.55-.41.85-.13C203.87,8.67,198.66,8.53,202.17,9.15Z"/><path class="cls-2" d="M213.76,18.17l0-.69a6.66,6.66,0,0,0-.8-.15C213.24,17.58,213.48,17.89,213.76,18.17Z"/><path class="cls-2" d="M205.48,12.49l1.79,1c0-.08.26,0,.57.09A10.6,10.6,0,0,0,205.48,12.49Z"/><path class="cls-2" d="M207.84,13.59a11.72,11.72,0,0,0,1.46.76A11.4,11.4,0,0,0,207.84,13.59Z"/><path class="cls-2" d="M211.5,16.57l-.42-.44a9.42,9.42,0,0,0-1.16-.83A14.88,14.88,0,0,1,211.5,16.57Z"/><path class="cls-2" d="M183.92,9.62l-2.21.15c-.22.17.38.27,1.2.21C183.44,9.86,184.26,9.79,183.92,9.62Z"/><path class="cls-2" d="M190.61,11a2.3,2.3,0,0,1-1-.39l-.07.63Z"/><path class="cls-2" d="M184.16,11.14c-.22.17-3.21.49-.4.46C184,11.43,186.2,11.28,184.16,11.14Z"/><polygon class="cls-2" points="150.83 10.36 151.4 10.35 151.31 9.33 150.83 10.36"/><path class="cls-2" d="M121.46,12.79c2.62.25.62-.63,3-.32.61-.24-1.94-.25-1.31-.46C121.56,12.27,120.73,12.12,121.46,12.79Z"/><path class="cls-2" d="M123.14,12l.81-.15A5.38,5.38,0,0,0,123.14,12Z"/><polygon class="cls-2" points="187.57 78.27 189.26 78.49 188.17 78.14 187.57 78.27"/><path class="cls-2" d="M190.81,77.52l.39.65,1-.59A3.79,3.79,0,0,1,190.81,77.52Z"/><path class="cls-2" d="M22.59,20.23V20c-.31,0-.56.25-1.11.7C21.85,20.57,22.21,20.38,22.59,20.23Z"/><polygon class="cls-2" points="11.87 37.34 11.94 36.98 11.26 37.54 11.87 37.34"/><path class="cls-2" d="M14.31,54.14c-.21-.66-.62-1.38-.83-2C14.1,53.47,13.7,54.6,14.31,54.14Z"/></svg>