<svg id="Camada_1" data-name="Camada 1" xmlns="http://www.w3.org/2000/svg" viewBox="0 0 231.91 83.94"><defs><style>.cls-1{fill:#1a203c;}.cls-2{fill:#fdf4a3;}</style></defs><path class="cls-1" d="M40.79,75.32a32.37,32.37,0,1,1,0-64.73h151a32.37,32.37,0,1,1,0,64.73Z"/><path class="cls-2" d="M191.82,11.09a31.87,31.87,0,1,1,0,63.73h-151a31.87,31.87,0,1,1,0-63.73h151m0-1h-151A32.87,32.87,0,0,0,7.92,43h0A32.87,32.87,0,0,0,40.79,75.82h151A32.86,32.86,0,0,0,224.69,43h0a32.87,32.87,0,0,0-32.87-32.87Z"/><path class="cls-2" d="M192.45,77.62c-.79,0-.51.31-.63.37C193.16,77.86,192.41,77.54,192.45,77.62Z"/><path class="cls-2" d="M204.91,74.32l-.17.2c.56-.31,1.07-.72,1.59-1.08C205.86,73.73,205.4,74.05,204.91,74.32Z"/><path class="cls-2" d="M214.91,67.84c-1.15.4-3.21,2.92-5.18,3.85l-.37.07-.6.87,1.72-1.14c.61-.38,1.13-.9,1.68-1.32s1.08-.84,1.53-1.26S214.55,68.12,214.91,67.84Z"/><path class="cls-2" d="M220.09,63.78c-.41.2.71-1.25-1,1.19l.21-.19C219.49,64.57,219.71,64.27,220.09,63.78Z"/><path class="cls-2" d="M219.33,64.78c-.78,1,.65-.58,0,0Z"/><path class="cls-2" d="M222.57,59.72l-.73,1.56c.29-.24,1.11-1.55.89-1C223.49,58.66,223.17,58.91,222.57,59.72Z"/><path class="cls-2" d="M222.93,58.09l-.31.83A1.48,1.48,0,0,0,222.93,58.09Z"/><path class="cls-2" d="M221.85,60.62a15.26,15.26,0,0,0,.77-1.7c-.2.17-.33.13-.34.79C222.22,59.5,222.16,59.89,221.85,60.62Z"/><path class="cls-2" d="M221.23,61.49c-.59.76-1.33,1.72-.57.2-.84,1.38-1.23,2-1.06,1.92s.27-.2.56-.55l.51-.64C220.84,62.15,221,61.84,221.23,61.49Z"/><path class="cls-2" d="M215,67l-1,.71-.66.85C213.64,68.17,215.15,67.11,215,67Z"/><path class="cls-2" d="M226.44,49.77c-.08-.13-.39.51-.58.6l-.19,1.25A10,10,0,0,1,226.44,49.77Z"/><path class="cls-2" d="M225.86,50.37c.1-.62.08-1.26.13-1.89C225.74,50.14,225.7,50.44,225.86,50.37Z"/><path class="cls-2" d="M222.52,57.56,222.05,59c-.16.49-.39.94-.59,1.42A28.19,28.19,0,0,0,222.77,57Z"/><path class="cls-2" d="M227.11,42.53a8.42,8.42,0,0,1,.25,1.08,16.09,16.09,0,0,0-.43-1.92Z"/><path class="cls-2" d="M226.65,37.73c.34.76.2-1.15.46-.33a11,11,0,0,0-.45-1.8c-.21-.55-.43-1.05-.64-1.52a13.84,13.84,0,0,1,.47,1.64A14.76,14.76,0,0,1,226.65,37.73Z"/><path class="cls-2" d="M225.36,32.51c.19.5.42,1,.66,1.57A12.71,12.71,0,0,0,225.36,32.51Z"/><path class="cls-2" d="M226.41,45.32a3.41,3.41,0,0,0,.4-1.46l-.36.72Z"/><path class="cls-2" d="M226.44,44.61v0c.05-.79.08-1.35.1-1.59C226.53,43.2,226.5,43.68,226.44,44.61Z"/><path class="cls-2" d="M226.4,45.51v-.19A.17.17,0,0,0,226.4,45.51Z"/><path class="cls-2" d="M224.59,53.18c.11-1.12.48-3.33-.33-1.3C224.28,52.69,224.75,51.52,224.59,53.18Z"/><path class="cls-2" d="M226,46.38c-.11.65-.24,1.29-.36,1.94.09,0,.26-.36.27.19C225.89,47.8,225.93,47.09,226,46.38Z"/><polygon class="cls-2" points="225.9 45.41 225.95 46.38 226.01 45.66 225.9 45.41"/><path class="cls-2" d="M225.93,35.92a22.16,22.16,0,0,1-.88-2.74c.2,1.13.53,2.26.71,3.36C225.88,36.67,226.13,37.13,225.93,35.92Z"/><path class="cls-2" d="M226.41,40.14l0-.19C226.36,40.07,226.36,40.16,226.41,40.14Z"/><path class="cls-2" d="M220.65,23.74l0,.18h.07Z"/><path class="cls-2" d="M225.73,36.74a6,6,0,0,0,.39,1.81q-.19-.94-.36-2C225.7,36.48,225.67,36.47,225.73,36.74Z"/><path class="cls-2" d="M224.21,29.79c.09.45.22.95.35,1.47A4.85,4.85,0,0,0,224.21,29.79Z"/><path class="cls-2" d="M226.46,39.65l0,.13C226.53,39.49,226.5,39.53,226.46,39.65Z"/><path class="cls-2" d="M226.46,39.65a6.24,6.24,0,0,0-.34-1.1c.11.51.21,1,.27,1.4A1.2,1.2,0,0,1,226.46,39.65Z"/><path class="cls-2" d="M217.17,22.49c.16,0,.61.33,1.13.92a11.73,11.73,0,0,1,.81,1,9.21,9.21,0,0,1,.62,1.26c1.13,1.44,1.38,0,1-1.77-.14,0-.21,0-1.52-1.39.12.34.74,1.21,1,1.95s.47,1.2-.07.59c-.69-1.05-1-1.44-1.18-1.77a10.52,10.52,0,0,0-.5-1.08c.16.54-.41,0-1.07-.6s-1.44-1.09-1.46-.71a20.32,20.32,0,0,1,1.57,1.51C217.44,22.5,216.87,22,217.17,22.49Z"/><path class="cls-2" d="M222.54,27.16l.38.71c-.35-.85-.5-1.51-1-2.66-.83-1.09-1.06-1.26-1.19-1.29l1,1.71.51.86.42.9Z"/><path class="cls-2" d="M224.33,31.21c-.52-.49-1.3-2.22-1.22-1,.81,2.17.82,1.43,1.41,2.71-1.35-3.55.55,1-.21-1.68a13.47,13.47,0,0,1,.74,1.93c-.11-.69-.35-1.31-.49-1.92v.1h0c0,.17,0,.23,0,0l0-.07a.41.41,0,0,1-.17-.12c-.32-1.06,0-.19.17.12l.06,0v0l-.74-1.77c-.29-.57-.61-1.13-.91-1.7C223.24,28.62,223.72,29.51,224.33,31.21Z"/><path class="cls-2" d="M224.08,49.81c0-.11.08-.1.1-.1C224.19,49.47,224.19,49.38,224.08,49.81Z"/><path class="cls-2" d="M224.52,48.36a4,4,0,0,1-.07,1.37c-.29.71-.16,0-.27,0,0,.52-.23,1.83.33.26l0-.26a12,12,0,0,1,1-3A5.83,5.83,0,0,0,224.52,48.36Z"/><path class="cls-2" d="M225.47,39.76c-.16-1-.41-2-.6-3l0,1.6.15-.1C225.19,40,225.32,39.56,225.47,39.76Z"/><path class="cls-2" d="M220.58,23.35l.52.16c-.47-.43-1-.82-1.49-1.22Z"/><polygon class="cls-2" points="217.98 20.09 218.3 20.02 217.43 19.32 217.98 20.09"/><path class="cls-2" d="M10.73,35.15l-.12.84A7.46,7.46,0,0,0,10.73,35.15Z"/><path class="cls-2" d="M12.85,29.45l-.07-.2C12.73,29.54,12.73,29.67,12.85,29.45Z"/><path class="cls-2" d="M123.08,8.22c-1.3-.28-2.75-.7-2.59-.37l.4.32A12.48,12.48,0,0,1,123.08,8.22Z"/><path class="cls-2" d="M56.82,10.16l.38.1.87-.31Z"/><path class="cls-2" d="M55.9,11.51l-1.71-.21C54.57,11.37,55.12,11.44,55.9,11.51Z"/><path class="cls-2" d="M19.79,65.37l.94.4C19.62,64.76,20,65.33,19.79,65.37Z"/><path class="cls-2" d="M179.48,8.31c-1.12-.13-2-.18-2.79-.2C178,8.3,179.13,8.58,179.48,8.31Z"/><path class="cls-2" d="M8.15,31.73c-.14.56-.16.81-.08.82C8.21,32,8.27,31.65,8.15,31.73Z"/><path class="cls-2" d="M173.46,8.11l.59.08c.82,0,1.64-.1,2.64-.08A9.72,9.72,0,0,0,173.46,8.11Z"/><path class="cls-2" d="M143.79,74l.29,0C144.11,74,144,74,143.79,74Z"/><path class="cls-2" d="M181,77.25c-.36,0-1,0-1.52,0A12.06,12.06,0,0,0,181,77.25Z"/><path class="cls-2" d="M204.44,10.43c.84.29.15,0,0,0Z"/><path class="cls-2" d="M207.76,13.35c-.18,0-.33-.07-.38,0A.62.62,0,0,1,207.76,13.35Z"/><path class="cls-2" d="M165.13,10.14h-.07C165.31,10.2,165.27,10.19,165.13,10.14Z"/><path class="cls-2" d="M205.62,11.06a5.59,5.59,0,0,0-1-.51C204.77,10.65,205.1,10.76,205.62,11.06Z"/><path class="cls-2" d="M205.52,10.84l.69.36C206.33,11.2,206.26,11.13,205.52,10.84Z"/><path class="cls-2" d="M203.27,10c.48.17.92.35,1.34.53-.16-.08-.22-.12-.17-.12Z"/><path class="cls-2" d="M75.35,74.84l.18,0C76.37,74.73,76,74.76,75.35,74.84Z"/><path class="cls-2" d="M101.33,11.6h.1l-.13,0Z"/><path class="cls-2" d="M98.33,11.84a6.63,6.63,0,0,1,3-.27l-1-.93Z"/><path class="cls-2" d="M10.53,49.6a19.08,19.08,0,0,1,0-2c.21.57.36,1.1.5,1.54l.4,1c.19.46.24.4.21-.52-.58,0-.91-1.88-1.19-3.76-.05-1-.12-1.9-.23-2.63S10,42,9.75,41.93l.28-1.3c0,.37,0,.44,0,.8a4.28,4.28,0,0,0,0-2.31,5.23,5.23,0,0,1,0-2.91c.37-1.11.71-1.85.63-1.06l.2-1.27c.07-.43.2-.83.3-1.25.28-.7.38-.47.11.22L12,31c.24-.61.53-1.19.8-1.79v0c.05-.28.16-.74.28-1.21s.32-.9.44-1.19c.65-.79-.17.48.07.33l.94-2c.39-.28.32,0,.12.47a11,11,0,0,1-1,1.86,2.92,2.92,0,0,0,1.42-1.7,6.68,6.68,0,0,1,.72-1.24c.18-.26.4-.54.66-.86a5.8,5.8,0,0,1,1-1,14.59,14.59,0,0,0-1.18,1.65A11.22,11.22,0,0,0,18,22.94a12.84,12.84,0,0,1,2.21-1.88c-.13.05-.44.22-.81.43s-.75.51-1.11.71c-.69.42-1.17.59-.48-.37a8.07,8.07,0,0,0,.84-.83,12.84,12.84,0,0,0,1.09-1.21c.28.28,1.06-.7,2.32-1.59l.21.44c1.23-1.09,1-1.25,1.7-1.93,1.63-.92,2.12-.82,2.66-.71,2.68-1.2-2.12.36,1-1.25,2.32-.88,3.89-1.58,6.74-2.58,1.76-.1-.25.34.4.38l1.46-.61c.38,0,.27.08.22.15.63-.17.65-.29.75-.43s.31-.29,1.34-.4c.28-.26,1.34-.16,2.69,0a12.86,12.86,0,0,0,4.33.06c.66.14-.32.3-.12.48A56.5,56.5,0,0,0,51.63,11l2.56.31c-1.88-.36.52-.78,2.63-1.14-.67-.17-1.24-.32-1.62-.39l3.35-.26c.41.08.07.24-.48.44l.62-.11c1.2.17.57.45-.29.72l-1.2-.3c-.83.29-1.61.62-1.44.9a6.89,6.89,0,0,1,1.1-.13c-.21.08-.35.15-.25.2a3.47,3.47,0,0,0,1-.18l.77.53.18-.21,4.39.34a68.62,68.62,0,0,1,10.87-1.56c-1.24.4-.27.64-.33,1.11-1.37-.49-3.87.21-6.45.11,1.35.05,1,.27.71.35l4.61-.45c-.11.38,1,.29,2.18.44-.91-.75,3.44-.5,5.31-.73.12.25-.33.51-2.62.45,2.53.57,3.26-.88,5.74-.4-.56,0-.86,0-1.08.1,1.31-.23,4.5-.05,3.75.17h-.56c3.71.09,11.3,0,11.85-.63a2.52,2.52,0,0,1-.71.9l6.62-2.15c-.58.55,1.66,1.86-1.42,2.17a18.09,18.09,0,0,0,3.84,0c-.61-.08-1.5-.79-.68-.84a34.62,34.62,0,0,0,4.35.85c-.9-.12.11-1,1.53-1-.22.12.12.84-.4.93l3.55-.84c-.88.15-.15.71.64.95-.37-.16,3.07,0,4-.06l-1.51-.2c4,.13,4-1.19,8-1.14-.48.17-1.19,1.07.83,1.18A23,23,0,0,1,133.18,9l.68.24,2.7-.28a80.73,80.73,0,0,1-9,2.55,7.81,7.81,0,0,0,2.66.27c.8.23-1.22.35-1.88.36l5.23.15c-.23-.5,4-.5,3.8-.92l-5.68.52c-.23-.5,3.29-1.43,7-1.34,1,.2-.7.9-.62,1.06a17.07,17.07,0,0,1,3.86-.2l-1.58.27c2.07.19,3.37-.67,5.86-.19.85,0,2.55.65,2.7.35-1.4-.58-1.67-2.36-.74-2.79.3,0,4.5.55,5.48.84,1.41.45-2.12,1.07-.92,1.46,0-.14.83-.31,1.16-.36.89.11-.38.42,1.58.36.32-.51,4,0,.92-.43,1.91-.15,2,.1,4.28.08-.72-.33,2-1.12,3.93-1.27-.11.13.32.3.52.38,3.92,0,6,.28,9.68.28.34.13,2.1.27,1.35.49a9.65,9.65,0,0,1,2.14-.27c2.18.44-2.52.07-.85.6.14-.3,2.91-.41,4.52-.6-.5-.46-3.71-.09-5.32.1,0-.63,2.79-1.3,6.61-1.59,3-.16,1.32.41,1.84.32A19.07,19.07,0,0,0,190.26,9,9.51,9.51,0,0,1,192,8.76,17,17,0,0,1,194.8,9c1.89.59,0,.79.41,1.12a18.33,18.33,0,0,1-3.05-.23,18.33,18.33,0,0,0-2.44-.18l2.07.19a15.31,15.31,0,0,1-3.34.12c.79.19,3.2.13,6,.34a15.25,15.25,0,0,1,2.09.25c.7.12,1.41.21,2.09.36l1.94.56a9.18,9.18,0,0,1,1.68.61c.77.13,2.08.47,1.54.1l-1.33-.43c-1.11-.75,2.64.49,1-.27l1.46.34c.49.15,1,.34,1.52.53s1.07.43,1.63.68,1.08.66,1.63,1l.19.65a6.34,6.34,0,0,0-2.08-1.41,11.58,11.58,0,0,1,2.17,1.5c.43.3.82.64,1.2.92a2.87,2.87,0,0,0,1.09.53l-1.33-1.39c.83.49,1.82,1,2.82,1.59a16.13,16.13,0,0,1,2.73,2.33c-.46-1.12-.43-.35-1.35-1.93.17.38,0,.3-.42,0s-.93-.81-1.53-1.23C212,14.8,210.92,14,211.69,15a6.05,6.05,0,0,0-1.86-1.72c-.7-.49-1.44-1-2.41-1.74,0,.17.63.62-1.21-.35a3,3,0,0,1-.46-.07l-.13-.07.1.06c-.09,0-.1,0,0,0a4.14,4.14,0,0,1,.85.66c-1-.21-4.07-1.32-5.17-1.44-1.14-.37.54,0-.05-.36l-1.66-.15c0-.41-3-1.24-.18-.83A21.8,21.8,0,0,0,197,8.55,15.27,15.27,0,0,0,192.07,8c-1.19-.1-2.94.36-1.94.1l-3.86.2,0-.08c-3.81,0-7.84.56-12.19-.05a37.67,37.67,0,0,1-4.75.09L168.88,8c-1.64.1-4.94-.29-5.65,0-1.77-.78-8-.17-10.88-.31l-.11.38c-2,0-3.9.09-6.37.24l.15.34c-2.13.28-5.48-.24-8.86-.21a4.62,4.62,0,0,1,1.69,0c-4-.76-8.5.55-12.15,0a7.68,7.68,0,0,1-2.21,0h-.15l-1.26-.18a10.23,10.23,0,0,0,1.06.18c-.7,0-1.76,0-2.81.14l-.44-.37h-.24c-1-.13-.83.18-.28.45-.53.06-1,.13-1.38.21-.83-.58-2.74.2-3.88-.42-.7.3-5.25.23-5.8.87,0-.09-.34-.13.22-.13a14.53,14.53,0,0,0-3.37,0l-.5-.46-2.54.62c-1.54-.28-2.18-.44-.65-.8-3.7.55-3,.21-6.15.75l.15-.3c-1.12,0-2.92.41-3.6.16C90.35,8.6,80.42,9.09,74,8.56c1.25.88-3-.39-3.26.29-.38-.21-1.28-.33-.23-.5-3.3.2-5-.33-7.23.24-.38-.21.7-.3.36-.43a3.74,3.74,0,0,1-1.39.06c-.33-.12.49-.17,1-.26-3.37,0-3.71.67-4,1.27a7,7,0,0,0-3.79.14c-.59-.19-1.58-.4.51-.47-1.18,0-7.19-.28-7.31.2a6.75,6.75,0,0,0-2,0c-2.64,0-2.87-.08-5.47,0l.72.08c-1,.55-2.17.18-4.31.35l.06-.06a15.61,15.61,0,0,0-3.5.38,23,23,0,0,1-3.41.69l.36.28c-.12.39-1.13.67-2.47,1-.33.08-.69.15-1.05.25l-1.07.39a10.11,10.11,0,0,0-2,1c.32-.11.67-.18,1-.27a10.67,10.67,0,0,1-2.75,1.06A9.79,9.79,0,0,0,20,15.29c-.32.15.37-.42.73-.75-1.81,1.07-1.85,1.25-1.73,1.4s.34.23-.75,1.31c-.59.19.13-1-1.46.39a14.82,14.82,0,0,0-2.41,2.93c-.52.7-1,1.52-1.48,2.23l-.76,1a8.85,8.85,0,0,1-.7.92c.49-.43,1-.84.36.44-1.17,1.79-3.37,4.95-3.41,7-.15.25-.23.33-.28.33-.18.82-.42,2.16-.66,3.4a15.21,15.21,0,0,0-.1,2.95,3.47,3.47,0,0,0-.62,2.2c0,.52-.05,1.09-.05,1.68s.12,1.2.18,1.79.14,1.17.2,1.7.2,1,.25,1.43c.12.83.1,1.38-.18,1.42a21,21,0,0,0,.59,2.49,18.78,18.78,0,0,0,.76,2.45L8.29,54a12.74,12.74,0,0,0,2.62,4.92c.29.7-.08.27-.15.24.55,1.06,1,1.86,1.39,2.54a11.85,11.85,0,0,0,1.18,1.64,17.48,17.48,0,0,0,1.26,1.4c.52.45,1.12,1,1.89,1.58v.57A14.74,14.74,0,0,1,17.67,68a24.74,24.74,0,0,0,2,2A21.94,21.94,0,0,0,22.52,72c.52.32,1.06.64,1.59.94a12.62,12.62,0,0,0,1.66.72,1,1,0,0,1-.54-.08c.62.24,1.26.52,1.9.82s1.35.53,2,.82a35.8,35.8,0,0,0,4.1,1.44,21.4,21.4,0,0,0,3.66.67,4.33,4.33,0,0,0,2.4-.4c1.17,0,2.28-.14,3.39-.26-4.33-.1.65-.59-1.13-.81,1.7-.08,4.4.41,2.3.48l-.32-.07c-.77.7,5.37.25,5.26.73,8.51,0,16.82.35,24.79.39l-.92-.55,2.79,0c.73.13,1,.43-1,.4a6.9,6.9,0,0,0,3.39-.38c3.88.23-1.52.64-.33.66l1.62,0-.37-.07a12.91,12.91,0,0,1,3.82-.43c1.51.11.77.34,1.37.36,0,0,.2,0,.91,0l3.51,0L87,77c1.56-.22,3.3,0,1.68-.47,2.38.76,13.08.27,14.54.51a44,44,0,0,1,7-.28c-.66-.09-1-.57,1.24-.51-.84,1,4.2.43,6.06,1.15-1.66-.47,6.52-.11,3.92-.79,1.92.08.12.37,1.57.61,4.56-.39,10,.25,15.68.12.09-.13-.85-.33.35-.53l3,.66c1.11-.07,1-.76,3.06-.3-.29-.12-.72-.28,0-.32,11,.64,22.55-.53,33.76.68-1.52-.26-.5-.28.66-.29-.76-.06,0-.33-.14-.51l4.7.5c.85-.5,5,0,5.52-.51l-1.49.09c2-.56-2.76-1.25-2.47-2-2.22.64-5.84-.94-9.47,0-.8-.15.68-.23.26-.4a10.57,10.57,0,0,1-4.1.24l.24-.08c-5.79.08-8.27-.23-14.77-.43l.48.36a14.62,14.62,0,0,1-2.34-.25c-1.61.54,3.92,0,2.46.62-1.86-.72-9.85,0-11.11-.83-2.14,0,.63.41-1.51.41l-.57-.23-.55.29c-1.41,0-2.12-.33-2.17-.51.34,0,1-.06,1.34-.07-1.83-.26-5.15.09-5.78,0l2.07.14c-5.87.21-13-.09-18.7.37l.43.16c-4.32.31-3.46-.18-8.21,0l.17,0a19.39,19.39,0,0,1-3.52.24c1.2-.2-2.26-.38-.68-.6-4.7.33-2.32.26-5.42.88l-.72-.28a10.83,10.83,0,0,1-3.51.46c1.94-.24-1.52-.42.66-.74-5-.61-7.39.61-9.68-.27-2.28.77,4.31.42,3,.59,1.07.25-1.89.57-3.45.5s-2.7-1-6.7-1c.4,0,.42-.06.82-.06-1.5-.19-2.93.27-4.77,0-1,.47-2.38,0-2.68.57l3.67-.14c-2.08.16-4,.85-7.46.51a12.56,12.56,0,0,1,2-.36c-1-.18-1.93.11-3-.07.29-.59,4.46-.12,6.69-.58-1.08-.25-4.22.43-3.1-.21-1.61.82-3.94-.1-6.65.52l.18-.35a15.49,15.49,0,0,1-2.11.21l1.43-.46c-2.19.39-4.23-.35-6.33-.13,4.4,0,1,.43,2.85.69-5.43.47-3.12-.93-9.21-.76.83,0,3.09.21,1.81.38a24,24,0,0,1-3.4-.4c-4,.07.62.37-1.1.58-1.37-.43-2,.18-3.74.32l0-.36c-4.59-.23-1.21.75-5.35.47l1.75-.5-2.16.13.45-.41a17.32,17.32,0,0,1-5.28,0c.25.14.17.3-.21.41a4.79,4.79,0,0,1-2.07.07c-1.29-.41.78-.23-2-.59a3.5,3.5,0,0,1,2.49.2,7.94,7.94,0,0,0,.77-.28c-.7-.13-1.55-.35-2.38-.44l-1.16-.13-.9-.21c.37.1.79.26,1,.34-.65-.06-1.31-.16-2-.24a14.84,14.84,0,0,1-2-.32c-.54-.35,0-.28.45-.21-.76-.24-1.34-.28-2.47-.65.4-.17.46-.48,2,0L29,71.35c-.59-.19-1.17-.43-1.76-.65-.18-.21-1.55-1.16-1.06-1a12.08,12.08,0,0,0-1.45-.86A15.21,15.21,0,0,1,23,67.87c-.58-.34-1.18-.71-1.76-1.1a14.89,14.89,0,0,1-1.54-1.42,3.26,3.26,0,0,1-.85-.58c-.42-.49-.82-1-1.21-1.47L17,62.58l-.54-.79c-.36-.53-.74-1-1.17-1.59s-.79-1.15-1.28-1.75l-.22-.87-.14-.9c-1.14-2.1.44,2.43-1.49-1.11-1.23-2.59,0-1.15-.2-2.13l-.64-1.08a10.07,10.07,0,0,1-.61-1.43,13.2,13.2,0,0,1-.53-1.71,12.06,12.06,0,0,1-.13-1.92C10.33,48.13,10.29,48.82,10.53,49.6Zm7.28-27.73a7.18,7.18,0,0,1-1.34,1.69C16.52,22.75,17.07,22.53,17.81,21.87Zm43.64-11a5.12,5.12,0,0,1-2-.08A11.11,11.11,0,0,1,61.45,10.86ZM195,8.5h-.07C193.49,8.3,194,8.38,195,8.5Zm2.92.56c.3,0,.29-.05.17-.12a5.91,5.91,0,0,1-1.62-.18A3,3,0,0,0,197.9,9.06ZM84.27,77.27l-.55-.09C85,77.08,84.62,77.17,84.27,77.27Z"/><path class="cls-2" d="M56,11.36a.44.44,0,0,1-.26-.2C55.52,11.22,55.52,11.29,56,11.36Z"/><path class="cls-2" d="M19.62,65.29l.06.06a.28.28,0,0,0,.11,0Z"/><path class="cls-2" d="M153.86,11.57a5.82,5.82,0,0,1-1.12-.19C152.71,11.47,153,11.54,153.86,11.57Z"/><path class="cls-2" d="M212.56,14.71a15.4,15.4,0,0,0-1.63-1,5.64,5.64,0,0,1,1.35,1.09C212.3,14.68,212.07,14.36,212.56,14.71Z"/><path class="cls-2" d="M221.23,28.42c.15.21.25.5.4.71l.12-.13C221.25,28,220.79,27.33,221.23,28.42Z"/><path class="cls-2" d="M213.23,16.72c-.06.31.85,1,1.85,1.85l-.17-.15C215.49,18.38,214.37,17.51,213.23,16.72Z"/><path class="cls-2" d="M215.31,18.77a5.69,5.69,0,0,1,.85.85C216.37,19.63,215.89,19.2,215.31,18.77Z"/><path class="cls-2" d="M201.61,9.72c.59.24.51-.28.81,0C203.23,9.44,198.18,9.05,201.61,9.72Z"/><path class="cls-2" d="M213.37,18.17l-.1-.59a5.79,5.79,0,0,0-.74-.23A10.84,10.84,0,0,1,213.37,18.17Z"/><path class="cls-2" d="M205.05,12.57l1.8,1c0-.06.25,0,.55.13A14.62,14.62,0,0,0,205.05,12.57Z"/><path class="cls-2" d="M207.4,13.68c.58.3,1.1.65,1.45.78A12.41,12.41,0,0,0,207.4,13.68Z"/><path class="cls-2" d="M211.13,16.54l-.43-.42a10.27,10.27,0,0,0-1.17-.82A15.91,15.91,0,0,1,211.13,16.54Z"/><path class="cls-2" d="M183.53,9.74l-2.21.11c-.23.13.38.21,1.2.15C183.05,9.91,183.87,9.86,183.53,9.74Z"/><path class="cls-2" d="M190.22,10.77a2.66,2.66,0,0,1-1-.29l-.07.47Z"/><path class="cls-2" d="M183.77,10.88c-.22.13-3.21.37-.41.34C183.59,11.09,185.8,11,183.77,10.88Z"/><polygon class="cls-2" points="150.44 10.29 151 10.28 150.92 9.52 150.44 10.29"/><path class="cls-2" d="M121.07,12.12c2.62.18.62-.48,3-.25.61-.18-1.94-.18-1.31-.34C121.17,11.72,120.34,11.61,121.07,12.12Z"/><path class="cls-2" d="M122.75,11.53l.81-.12A7.54,7.54,0,0,0,122.75,11.53Z"/><polygon class="cls-2" points="187.18 77.66 188.86 77.82 187.78 77.56 187.18 77.66"/><path class="cls-2" d="M190.41,77.09l.4.49,1-.44A5,5,0,0,1,190.41,77.09Z"/><path class="cls-2" d="M21.64,19.55l0-.16c-.28,0-.54.29-1.1.77C20.92,20,21.27,19.74,21.64,19.55Z"/><polygon class="cls-2" points="10.74 37.2 10.81 36.84 10.27 37.43 10.74 37.2"/><path class="cls-2" d="M13.05,54.51c-.23-.68-.61-1.44-.84-2.12C12.82,53.82,12.61,54.9,13.05,54.51Z"/></svg>