<svg id="Camada_1" data-name="Camada 1" xmlns="http://www.w3.org/2000/svg" viewBox="0 0 216.77 65.73"><defs><style>.cls-1{fill:#191f3d;}.cls-2{fill:#fff6a1;}</style></defs><path class="cls-1" d="M32.48,64.87a31.87,31.87,0,0,1,0-63.74h151a31.87,31.87,0,0,1,0,63.74Z" transform="translate(0.38 -0.13)"/><path class="cls-2" d="M183.52,2.13a30.87,30.87,0,0,1,0,61.74h-151a30.87,30.87,0,0,1,0-61.74h151m0-2h-151A32.87,32.87,0,0,0-.38,33h0A32.87,32.87,0,0,0,32.48,65.87h151A32.87,32.87,0,0,0,216.38,33h0A32.87,32.87,0,0,0,183.52.13Z" transform="translate(0.38 -0.13)"/></svg>