<svg id="Camada_1" data-name="Camada 1" xmlns="http://www.w3.org/2000/svg" viewBox="0 0 216.77 65.73"><defs><style>.cls-1{fill:#191f3d;}.cls-2{fill:#fff6a1;}</style></defs><path class="cls-1" d="M33.28,63a30.37,30.37,0,0,1,0-60.74h151a30.37,30.37,0,1,1,0,60.74Z" transform="translate(-0.42 0.26)"/><path class="cls-2" d="M184.32,4.74a27.87,27.87,0,0,1,0,55.74h-151a27.87,27.87,0,0,1,0-55.74h151m0-5h-151A32.87,32.87,0,0,0,.42,32.61h0A32.87,32.87,0,0,0,33.28,65.48h151a32.87,32.87,0,0,0,32.86-32.87h0A32.87,32.87,0,0,0,184.32-.26Z" transform="translate(-0.42 0.26)"/></svg>