<svg id="Layer_1" data-name="Layer 1" xmlns="http://www.w3.org/2000/svg" viewBox="0 0 831.4 467.72"><defs><style>.cls-1{font-size:36px;fill:#fff;font-family:SUNRISEPERSONALUSE, SUNRISE PERSONAL USE;letter-spacing:0.07em;}.cls-2{letter-spacing:0.01em;}.cls-3{letter-spacing:0.08em;}.cls-4{fill:#95999d;}</style></defs><text class="cls-1" transform="translate(42.07 207.95)">S<tspan class="cls-2" x="11.2" y="0">T</tspan><tspan class="cls-3" x="22.14" y="0">ART NEW GAME</tspan></text><path class="cls-4" d="M31.19,224.25c-.27,0-.17.39-.22.46C31.44,224.62,31.18,224.14,31.19,224.25Z"/><polygon class="cls-4" points="35.76 223.3 35.68 223.47 36.35 223.05 35.76 223.3"/><path class="cls-4" d="M40,223.31c-.41-.71-1.55.12-2.31-.14l-.13-.16-.34.57A9.92,9.92,0,0,1,40,223.31Z"/><path class="cls-4" d="M42.3,224.85c-.14-.27.49-.24-.53-.08l.1.07A2.17,2.17,0,0,1,42.3,224.85Z"/><path class="cls-4" d="M41.87,224.84c-.45,0,.29.23,0,0Z"/><path class="cls-4" d="M43.94,224.68l-.59.25c.13.16.65.2.46.32C44.41,225.11,44.29,225,43.94,224.68Z"/><path class="cls-4" d="M44.51,224.16l-.31.1C44.25,224.33,44.33,224.36,44.51,224.16Z"/><path class="cls-4" d="M43.55,224.48l.65-.22c-.09-.11-.1-.34-.3.08C44,224.13,43.82,224.33,43.55,224.48Z"/><path class="cls-4" d="M43.18,224.38c-.33-.16-.76-.26-.17-.5C41.88,224,42.05,224.47,43.18,224.38Z"/><path class="cls-4" d="M40.24,222.57l-.44-.21-.38.24C39.61,222.48,40.27,222.79,40.24,222.57Z"/><path class="cls-4" d="M47.63,225.05c0-.15-.2-.41-.24-.6l-.44.17C47.18,224.73,47.6,224.82,47.63,225.05Z"/><path class="cls-4" d="M47.39,224.45l.65-.26C47.46,224.16,47.35,224.28,47.39,224.45Z"/><polygon class="cls-4" points="44.61 223.37 43.54 223.91 44.82 223.36 44.61 223.37"/><polygon class="cls-4" points="50.13 225.07 49.76 225.42 50.42 224.89 50.13 225.07"/><path class="cls-4" d="M51.79,225c-.28.29.38.49.09.67a2.76,2.76,0,0,0,1.18-.53A1.64,1.64,0,0,1,51.79,225Z"/><path class="cls-4" d="M53.64,224.82a3.15,3.15,0,0,0-.58.33A1.82,1.82,0,0,0,53.64,224.82Z"/><path class="cls-4" d="M49.16,224.26a.79.79,0,0,0,.51.44l-.25-.43Z"/><path class="cls-4" d="M49.41,224.26h0l.55,0Z"/><path class="cls-4" d="M49.09,224.26h.07S49.12,224.21,49.09,224.26Z"/><path class="cls-4" d="M46.33,223.75c.38-.24,1.18-.49.41-.86C46.46,223.18,46.9,223.39,46.33,223.75Z"/><path class="cls-4" d="M48.77,223.73l-.69-.1c0,.11.14.28,0,.4Z"/><polygon class="cls-4" points="49.11 223.59 48.77 223.73 49.03 223.76 49.11 223.59"/><path class="cls-4" d="M52.45,224.42a2.2,2.2,0,0,1,1-.23,6.2,6.2,0,0,0-1.2-.13C52.19,224.2,52,224.44,52.45,224.42Z"/><path class="cls-4" d="M51,224.3l.07,0S51,224.23,51,224.3Z"/><path class="cls-4" d="M57.1,224.19l-.06-.07s0,0,0,.07Z"/><path class="cls-4" d="M52.18,224a.68.68,0,0,0-.65.16,4.07,4.07,0,0,1,.72-.08C52.27,224,52.28,224,52.18,224Z"/><path class="cls-4" d="M54.66,224.62a4.09,4.09,0,0,0-.52-.23C54.29,224.52,54.6,224.73,54.66,224.62Z"/><path class="cls-4" d="M51.14,224.4l0,0C51.19,224.51,51.18,224.46,51.14,224.4Z"/><path class="cls-4" d="M51.14,224.4a1.77,1.77,0,0,0,.39-.26,2.18,2.18,0,0,0-.49.14Z"/><path class="cls-4" d="M58.21,221.45c-.06.4-.84.76-1.52.34-.67.3-.23,1.6.35,2.33,0-.18,0-.34.71-.57-.24-.22-1.53-.51-1-.86.91-.21.75.14,1.19.34-.37-.49,1.16-.71,1-1.44l-.8.26C58.14,221.73,58.43,221.55,58.21,221.45Z"/><path class="cls-4" d="M55.73,224.08l-.28,0a2.45,2.45,0,0,1,1,.53c.47-.19.56-.34.6-.47l-1.4-.05Z"/><path class="cls-4" d="M54.18,224.13c.22-.43.9-.62.48-1.08-.83,0-.58.36-1.07.54,1.34-.1-.39.24.58.49a4.07,4.07,0,0,1-.72.11,5,5,0,0,1,.69.2l0,0h0c-.05-.06-.07-.09,0-.06h0a.44.44,0,0,1,.06-.16c.39.09.06.11-.06.16s0,0,0,.07h0l1.34-.23A4.31,4.31,0,0,0,54.18,224.13Z"/><path class="cls-4" d="M47.45,222a.09.09,0,0,1,0,.09C47.58,222,47.61,222,47.45,222Z"/><path class="cls-4" d="M48,222.23a.54.54,0,0,1-.49.18c-.28-.13,0-.2,0-.35-.19.12-.66.31-.06.52l.09-.05c.54.14,1.23.68,1.14.74A2.93,2.93,0,0,0,48,222.23Z"/><path class="cls-4" d="M51.13,223.07l1.12-.22-.57-.37,0,.23C51.07,222.62,51.21,222.89,51.13,223.07Z"/><polygon class="cls-4" points="57.23 224.41 57.08 224.86 57.72 224.22 57.23 224.41"/><polygon class="cls-4" points="58.68 224.35 58.62 224.75 59.01 224.51 58.68 224.35"/><path class="cls-4" d="M140.55,219.44l.33-.11A1.79,1.79,0,0,0,140.55,219.44Z"/><path class="cls-4" d="M138.18,219.42l-.06.19C138.23,219.5,138.28,219.43,138.18,219.42Z"/><path class="cls-4" d="M94.31,224.31c.48.37,1,.94,1,.5l-.15-.44A1.25,1.25,0,0,1,94.31,224.31Z"/><path class="cls-4" d="M118.72,221.72l-.14-.13-.33.41Z"/><path class="cls-4" d="M119.05,219.92l.63.28A2.55,2.55,0,0,0,119.05,219.92Z"/><path class="cls-4" d="M153.53,219l.38-.44C153.31,218.54,153.57,218.77,153.53,219Z"/><path class="cls-4" d="M73.54,224.19a3.58,3.58,0,0,0,1,.27C74.07,224.21,73.67,223.83,73.54,224.19Z"/><path class="cls-4" d="M139.62,224.05c.2-.08.29-.17.28-.27C139.69,223.86,139.58,223.94,139.62,224.05Z"/><path class="cls-4" d="M75.76,224.45l-.22-.1a3,3,0,0,1-1,.11A1.06,1.06,0,0,0,75.76,224.45Z"/><path class="cls-4" d="M200.57,219.34a.6.6,0,0,1,.11.06C200.69,219.34,200.64,219.33,200.57,219.34Z"/><path class="cls-4" d="M214.28,223.72a3.21,3.21,0,0,1-.57,0A1.29,1.29,0,0,0,214.28,223.72Z"/><path class="cls-4" d="M64.52,224.54c-.31,0,0,.05,0,0Z"/><path class="cls-4" d="M63,222.83a.3.3,0,0,0,.12-.21A.36.36,0,0,1,63,222.83Z"/><path class="cls-4" d="M78.82,221.75h0C78.76,221.67,78.77,221.69,78.82,221.75Z"/><path class="cls-4" d="M64.05,224.35a2.09,2.09,0,0,0,.4.12A2.59,2.59,0,0,0,64.05,224.35Z"/><path class="cls-4" d="M64.11,224.55l-.26,0C63.81,224.58,63.84,224.63,64.11,224.55Z"/><path class="cls-4" d="M64.94,224.52a1.57,1.57,0,0,1-.49-.05c.06,0,.08.06.07.07Z"/><path class="cls-4" d="M175.36,220.5l.07,0C175.74,220.37,175.6,220.39,175.36,220.5Z"/><path class="cls-4" d="M102.32,219.8l0,0,0,0Z"/><path class="cls-4" d="M103.43,219.48c-.47.54-.74.47-1.1.36l.37,1.25Z"/><path class="cls-4" d="M146.24,219.32l-.78-.39c.94-.64,1.62-.42.89-1-.11,1.36-3,.14-3.12,1.5l-.52-.29c.15,0,.17-.07.32,0-1-.65-.74,1-2,.79-.45-.11-.76-.3-.46-.47l-1,.34c-.29,0-.22-.26.07-.24l-1.52.11v0a6.65,6.65,0,0,1-1,.68c-.38-.19.2-.14.1-.31l-.84.33c-.35-.35.35-.69.93-.64-.78-1.36-.7.34-2.39-.45l.79-.18c-.51-.77-1.13-.49-2-1,.22.25,1.8,1.21.89,1.55a1.2,1.2,0,0,0-1.09.12c0-.48-.48-.36-1.09-.33l0-.64c-.65.18-.59.51-1,.79-.72-.06-.87-.55-1-1-1.16-.1.8.79-.57.91a4.62,4.62,0,0,0-2.8.4c-.68-.22.12-.39-.13-.57l-.6.51c-.14,0-.09-.17-.07-.25-.51.2,0,.64-.84.81-.21.71-1.62-1-2.61-.23-.24-.18.12-.39,0-.64a8.05,8.05,0,0,0-2.26,1.09l-.95-.42c.7.48-.19,1.05-1,1.52a6.86,6.86,0,0,0,.59.53l-1.23.34c-.15-.1,0-.32.17-.59l-.22.16c-.45-.24-.22-.61.1-1l.45.4a1.75,1.75,0,0,0,.52-1.2.88.88,0,0,1-.4.18c.08-.11.13-.2.09-.27s-.17.08-.37.24l-.28-.71-.07.28-1.62-.45c-1.16.72-2.16,1.78-4,2.07.46-.52.1-.85.12-1.47.5.66,1.43-.28,2.38-.15-.5-.07-.39-.36-.26-.46l-1.7.59c0-.5-.36-.38-.81-.59.34,1-1.26.67-2,1,0-.34.12-.68,1-.6-.93-.75-1.2,1.18-2.11.53.2,0,.32.05.4-.12-.48.3-1.66.06-1.38-.23h.2c-1.36-.12-4.16,0-4.36.84a5.83,5.83,0,0,1,.26-1.19l-2.44,2.86c.22-.73-.61-2.47.53-2.89a1.92,1.92,0,0,0-1.42,0c.22.1.55,1,.25,1.12-.83-.81-.58-.44-1.6-1.13.33.16,0,1.3-.57,1.27.09-.17,0-1.13.15-1.25L97.79,221c.33-.2.06-1-.23-1.27.13.22-1.13,0-1.48.09l.55.26c-1.47-.17-1.46,1.58-2.92,1.52.18-.23.44-1.42-.31-1.57-.34.58-1.51,2.77-2.81,3.22l-.25-.33-1,.37a22.06,22.06,0,0,1,3.31-3.4c-.56-.26-.16-.39-1-.35-.29-.31.45-.47.7-.49l-1.93-.2c.09.67-1.47.67-1.4,1.23l2.09-.69c.09.67-1.21,1.9-2.57,1.79-.35-.27.26-1.2.23-1.42-.18.23-1.3.44-1.42.27l.58-.36c-.76-.25-1.25.9-2.16.25-.31,0-.94-.86-1-.46a5.62,5.62,0,0,1,.28,3.71,10.36,10.36,0,0,1-2-1.11c-.52-.6.78-1.43.34-2,0,.18-.31.41-.43.48-.33-.15.14-.57-.58-.48-.12.68-1.46-.06-.34.57-.71.2-.75-.14-1.58-.11.27.44-.74,1.5-1.44,1.7,0-.18-.12-.4-.2-.51-1.44-.06-2.22-.37-3.56-.37-.13-.17-.77-.37-.5-.66a1.36,1.36,0,0,1-.78.37c-.81-.59.92-.09.31-.8-.05.39-1.08.54-1.67.79.19.61,1.37.12,2-.13,0,.84-1,1.73-2.43,2.12-1.12.21-.49-.55-.68-.43-2.1-.14-1.79,1.48-3.53.87-.7-.54,0-1.07-.19-1.46.91-.2,1.4.34,2,.32l-.76-.25a1.56,1.56,0,0,1,1.23-.16c-.58-.49-3.55-.09-5.17-.54-.29.18-.79.37-.55.58l.51-.07c.47.43-1,.6-.32.8a3.57,3.57,0,0,1-2.42.54l-.18-.62c0,.18.63.37.9.18-.4.28-1.48-.83-1.93,0l.68.42c-.69.31-1.54,1-2.4.77.39.6.2-.07.81.64-.53-.89,2.19,0,1.34-.89.63.82,1.09.34,1.91,1.05,0-.21-.29-.39.43-.29a.84.84,0,0,1,.15-.18l0,0,0,0s0,0,0,0a.9.9,0,0,1-.37-.3c.36-.47,1.5-.45,1.89-.69.43.09-.18.23.06.44l.57-.36c.06.45,1.14.75.13,1l.91,0a2.34,2.34,0,0,0,1.72.17c.43.09,1.08-.5.71-.15l1.42-.28v.11c1.4.06,2.89-.74,4.49.07a3.91,3.91,0,0,1,1.75-.12l.15.39c.61-.14,1.82.39,2.08,0,.66,1.05,3,.23,4,.41l0-.5a9.67,9.67,0,0,0,2.35-.32l-.06-.45c.79-.37,2,.32,3.26.27-.08.17-.4.13-.62,0,1.49,1,3.13-.73,4.48,0a.83.83,0,0,1,.81,0l-.08,0h.14a5,5,0,0,0,.46.24,1.42,1.42,0,0,0-.39-.24,4.83,4.83,0,0,0,1-.18l.16.48h.09c.37.18.3-.23.1-.59a2.27,2.27,0,0,0,.51-.29c.3.78,1-.26,1.43.57.25-.41,1.93-.31,2.13-1.16,0,.11.13.16-.08.17a1.57,1.57,0,0,0,1.24,0l.19.61.93-.83c.57.38.81.6.24,1.07,1.36-.73,1.11-.28,2.27-1l-.06.39c.41,0,1.08-.55,1.33-.22.92.75,4.58.11,7,.81-.46-1.17,1.11.52,1.2-.39.14.28.47.44.09.68,1.21-.27,1.82.43,2.66-.33.14.28-.26.4-.13.57.09-.06.38-.24.51-.08s-.18.23-.37.36c1.24,0,1.36-.9,1.45-1.7.63.38,1,.33,1.4-.2.22.26.58.54-.19.63.44,0,2.65.38,2.7-.26.13.17.6.05.72,0a13.53,13.53,0,0,0,2,0l-.26-.1c.37-.77.79-.17,1.56-.27l0,.08c1.76.56.76-.26,2.5.37l-.09-.48c.16-1,1.54.61,2.55.22l-.36-.28c.55-.35,1.54,1.4,2.1,1.53.12.09-.19.15-.36.21,1.45.61.19-.63,1.27-.77.2.34-.26.86.47.92.36.28,2.11-1.1,3.11-.45-.22-.26-.44-.52.06-.71.77-.1,2.08,1,2.78.16a.27.27,0,0,1,.14.2c.59-.21,1.91-.35,2.27-.8.54,1.66,3.66-.8,3.65.73l1.81-.08,0,.15a2.14,2.14,0,0,0,2-.63c.27.1.08.25,0,.33a3.57,3.57,0,0,0,3.28-.52l.15.49c.39-.28,2.45.78,4.11.2a.37.37,0,0,1-.19.23c1.87-.59,4.47,1.37,5.16-.44l1.23-.44c-1.59-.14.24-.78-.42-1.08.63-.11,1.62.54.85.63l-.12-.09c-.28.94,2,.34,1.94,1,3.14-.05,6.19.47,9.13.51l-.34-.73,1,0c.27.17.36.58-.37.54.38.42,1.22-.34,1.24-.5,1.44.29-.56.85-.12.87l.6-.06-.13-.08c.48-.3.52-.62,1.4-.58.56.15.29.45.5.48,0,0,.08.08.34,0l1.29.06-.51-.58c.57-.28,1.21,0,.61-.62.88,1,4.82.36,5.36.68a4.58,4.58,0,0,1,2.57-.37c-.24-.12-.39-.77.46-.69-.31,1.34,1.54.58,2.23,1.55-.61-.64,2.4-.16,1.44-1.07.71.11,0,.5.58.82,1.68-.52,3.7.34,5.77.16,0-.17-.31-.44.13-.7l1.1.87c.41-.08.38-1,1.13-.4-.11-.15-.27-.37,0-.43,4.06.86,8.3-.7,12.43.91-.56-.34-.18-.37.24-.39-.27-.08,0-.43-.05-.67l1.73.66c.32-.66,1.86,0,2-.67l-.55.11c.73-.75-1-1.66-.91-2.62-.82.85-2.15-1.25-3.49,0-.29-.2.25-.31.09-.53-.33.41-.74.5-1.5.31l.08-.1c-2.13.1-3-.3-5.44-.57l.18.47a1.82,1.82,0,0,1-.86-.33c-.59.72,1.44,0,.91.83-.69-1-3.63,0-4.09-1.11-.8,0,.23.55-.56.54l-.21-.29-.2.38a.85.85,0,0,1-.8-.69,1.75,1.75,0,0,0,.49-.09c-.67-.35-1.9.12-2.13,0l.76.18c-2.16.28-4.79-.11-6.88.49l.16.23c-1.6.41-1.28-.25-3-.06l.06-.05a2.27,2.27,0,0,1-1.29.31c.44-.26-.83-.51-.25-.8-1.73.44-.86.35-2,1.18l-.26-.37a1.68,1.68,0,0,1-1.3.61c.72-.32-.56-.57.25-1-1.84-.81-2.73.82-3.57-.37-.84,1,1.59.57,1.12.79.39.34-.7.77-1.27.67s-1-1.32-2.47-1.3c.14,0,.15-.07.3-.07-.55-.26-1.08.36-1.76-.07-.37.63-.87,0-1,.76l1.35-.18c-.77.2-1.49,1.13-2.75.68a2.21,2.21,0,0,1,.73-.49c-.37-.23-.71.16-1.09-.08.11-.79,1.64-.17,2.46-.78-.39-.33-1.55.58-1.14-.28-.59,1.09-1.45-.14-2.45.69l.07-.47a1.93,1.93,0,0,1-.78.29l.53-.62c-.81.53-1.56-.46-2.33-.17,1.62,0,.36.57,1.05.92-2,.63-1.15-1.25-3.39-1,.3-.07,1.14.29.66.51a3,3,0,0,1-1.25-.53c-1.48.1.23.49-.4.78-.51-.58-.73.23-1.38.42v-.48c-1.69-.31-.45,1-2,.63l.64-.67-.79.17.16-.55a2.46,2.46,0,0,1-2,.15c.2.34-.11.87-.85.89-.52-.29.28-.46-.78-.39.24-.3.5-.68,1-.24,0-.15.24-.3.29-.45-.55-.33-1.38-.08-1.77-.07a.87.87,0,0,1,.42.11l-1.54.67c-.24-.18,0-.33.14-.47a6.54,6.54,0,0,1-1,.31c.12-.39.09-.79.74-1l-1.47.44c-.09-.17-.75-.47-.56-.62-.81-.23-2,.77-3.07.46a.68.68,0,0,1-.4.21c-1-.09-1.91-.57-3.11,0l-.68-.7c-.94.16.92.89-.64,1.15-1.11.23-.42-.6-.81-.79-.55.35-1.51,1.07-2.53.5A3.7,3.7,0,0,1,146.24,219.32Zm-11.6.31c.23-.1.67-.41.84-.13C135.22,220.05,135,219.79,134.64,219.63ZM117,220.79c.17-.16.42-.08.72.1A1.11,1.11,0,0,1,117,220.79Zm-49.12,3.36,0,0C68.41,224.31,68.24,224.24,67.89,224.15Zm-1-.21c-.11.07-.1.14-.06.2.08-.12.31-.13.58-.09C67.29,223.92,67.16,223.83,66.85,223.94Zm111.8-.19-.2-.12C178.9,223.49,178.78,223.61,178.65,223.75Z"/><path class="cls-4" d="M119,220.13a.51.51,0,0,1,.09.26C119.19,220.31,119.19,220.22,119,220.13Z"/><path class="cls-4" d="M153.45,219.06h0a.36.36,0,0,0,0-.09Z"/><path class="cls-4" d="M83,219.85a.89.89,0,0,1,.42.25C83.4,220,83.3,219.88,83,219.85Z"/><path class="cls-4" d="M61.33,224.76l.67-.12a1,1,0,0,1-.6-.16C61.41,224.59,61.54,224.75,61.33,224.76Z"/><path class="cls-4" d="M55.54,221.78c-.1.05-.2,0-.3.06l0,.23C55.68,222.05,56,221.87,55.54,221.78Z"/><path class="cls-4" d="M60.71,223.16c-.05-.41-.47-.27-.94-.19h.09C59.72,223.53,60.22,223.35,60.71,223.16Z"/><path class="cls-4" d="M59.67,223a1.62,1.62,0,0,1-.44,0C59.18,223.22,59.41,223,59.67,223Z"/><path class="cls-4" d="M65.53,224.21c-.22-.1-.14.52-.27.35C65,225.08,66.74,223.94,65.53,224.21Z"/><polygon class="cls-4" points="60.34 221.82 60.5 222.32 60.76 221.92 60.34 221.82"/><path class="cls-4" d="M64,222.19l-.74-.14c0,.08-.09.13-.2.17C63.54,222.24,64,222.34,64,222.19Z"/><path class="cls-4" d="M63.08,222.22a1.18,1.18,0,0,0-.6.08A2.42,2.42,0,0,0,63.08,222.22Z"/><polygon class="cls-4" points="61.35 221.67 61.58 221.78 62.1 221.81 61.35 221.67"/><path class="cls-4" d="M72.05,222.28l.81-.14c.08-.17-.14-.27-.44-.21S71.92,222.12,72.05,222.28Z"/><path class="cls-4" d="M69.58,220.91c.22.11.24.22.36.38l0-.62Z"/><path class="cls-4" d="M72,220.77c.08-.17,1.18-.5.15-.46C72,220.48,71.21,220.63,72,220.77Z"/><polygon class="cls-4" points="84.23 221.55 84.03 221.56 84.06 222.58 84.23 221.55"/><path class="cls-4" d="M95.05,219.12c-1-.25-.23.63-1.1.32-.23.24.71.25.48.46C95,219.64,95.32,219.79,95.05,219.12Z"/><path class="cls-4" d="M94.43,219.9l-.3.15A1,1,0,0,0,94.43,219.9Z"/><polygon class="cls-4" points="216.55 224.27 217.17 224.48 216.77 224.14 216.55 224.27"/><path class="cls-4" d="M217.74,223.51l.15.65.37-.59C218.12,223.6,217.85,223.66,217.74,223.51Z"/><path class="cls-4" d="M132.92,218.32l0,.16c.1.17.24.18.53.21Z"/><polygon class="cls-4" points="141.34 218.81 141.19 218.79 141.46 219.38 141.34 218.81"/><path class="cls-4" d="M148.4,218.06c-.29,0-.63.11-.92.08C148.11,218,148.48,218.79,148.4,218.06Z"/></svg>