<svg xmlns="http://www.w3.org/2000/svg" viewBox="0 0 368.76 368.9"><defs><style>.cls-1{fill:#fff;}.cls-2{fill:none;}</style></defs><g id="Layer_2" data-name="Layer 2"><g id="Layer_1-2" data-name="Layer 1"><path class="cls-1" d="M368.76,199.28c.29-4.09-24.16-9-24.16-13.13s6.29-7.75,6-11.84.81-7.93.23-12-5-6.94-5.86-10.95,14.1-12,12.94-16-11.89-4.88-13.33-8.74,9.93-13.36,8.21-17.1-20,.64-22-3-5.4-5.7-7.63-9.16,3-11.71.49-15-3.32-8-6-11.12,2.33-14.19-.59-17.11-6.4-6.63-9.52-9.33-18.84,9.78-22.15,7.3-3-9.76-6.47-12-10.55,2.11-14.18.12-.21-18.09-4-19.81-10.37,2.47-14.25,1-10.21,5-14.19,3.82-6.6-6.39-10.65-7.27-7.34-6-11.46-6.61S201,22.67,196.85,22.37s-7.56-9.8-11.73-9.8-7.94,5.14-12,5.43S162.74,1.53,158.67,2.1s-5.61,17.37-9.62,18.24S138.51,12.79,134.56,14s-6.48,7.49-10.33,8.93-2.86,13.74-6.6,15.45-9.53-1.86-13.15.12-17-11.89-20.5-9.66S76,33.5,72.69,36s8,23.3,4.85,26-10.81-.06-13.73,2.86-.26,10.5-3,13.63-4.59,6.06-7.07,9.36-11.58,1.55-13.82,5-.91,8.82-2.9,12.45S39.7,115.2,38,119s-25.4-1.59-26.85,2.29.71,9.7-.46,13.68-7.53,7.4-8.4,11.45,25.06,12.87,24.47,17-2.67,7.09-3,11.24-10.2,7.39-10.2,11.55-11,8.94-10.67,13S5,207.9,5.58,212s4.77,8,5.64,12,19.74,3.16,20.89,7.11-20.3,15.32-18.87,19.17,17.41,1.91,19.12,5.65,9.74,3.63,11.72,7.24-18,20.34-15.8,23.81,7,6.23,9.46,9.53,2.4,9.83,5.11,12.95,6.23,6.92,9.15,9.84,24.3-13.84,27.42-11.13-9.58,25.09-6.27,27.57,13.54-4.05,17-1.81,6.67,5.31,10.3,7.3,7.67,3.57,11.43,5.29,3.67,14.29,7.55,15.74,10.58-3.14,14.56-2,9.05-.21,13.1.67,7.83,6.1,11.94,6.68,9.68-10.52,13.83-10.22,8.09-5,12.25-5,8.71,13.05,12.8,12.76,6.61-15.24,10.68-15.82,12.11,19.8,16.12,18.93,1.52-27.48,5.47-28.63,9.1,3.54,12.95,2.1,9.87,3,13.62,1.3,4.07-9.6,7.69-11.57,13.26,6.41,16.73,4.17,8.61-2.76,11.91-5.24,6.3-6.05,9.42-8.75,7.11-5.14,10-8.06,3.16-8.8,5.86-11.93,14.58.37,17.06-2.94-19.31-23.44-17.07-26.92,19.14,2.31,21.13-1.32S336.28,259.73,338,256s5.11-6.47,6.56-10.35S353.81,240,355,236s8.67-6.8,9.55-10.86-15.4-11.23-14.81-15.34S368.47,203.43,368.76,199.28ZM244.9,167.58c-1.28,11.9-5.72,22.82-13.56,33.37a139,139,0,0,0-22.47,46.52c-5.14,18.81-16.83,30-34.75,33.34a32.9,32.9,0,0,1-5.88.54,29.07,29.07,0,0,1-17.47-5.7,29.85,29.85,0,0,1-11.75-21,27.57,27.57,0,0,1-.15-3c0-3.38,1.75-5.52,4.77-5.72,2-.13,4.61.65,5.33,5.2.13.84.17,1.68.22,2.5a17.07,17.07,0,0,0,.32,2.93,18.59,18.59,0,0,0,8.34,11.81,21.72,21.72,0,0,0,16.7,2.18C187,267.42,195.16,259,199,245.58c5.61-19.84,13.88-36.84,25.28-52,7.67-10.18,11.27-20.91,10.69-31.89v-.1a43.83,43.83,0,0,0-12.3-33.4,42.58,42.58,0,0,0-32-13,43.06,43.06,0,0,0-41.57,40.33c0,.25,0,.51,0,.76,0,.49,0,1-.09,1.47-.43,4.8-3.21,5.58-5.47,5.38-3-.25-4.55-2.19-4.61-5.76-.41-24.68,20.53-48.51,45.73-52A53.67,53.67,0,0,1,229,120.13C241.29,132,246.93,148.87,244.9,167.58Zm-67.68,18.86a33.15,33.15,0,0,0-4.92-.92c-6.56-.82-7.09-1.4-7.1-7.85,0-1.7,0-3.41,0-5.11,0-4.86-.05-9.88.06-14.82.31-14,10.73-24.74,25.34-26.05,12.66-1.13,25.08,8.46,27.71,21.38a27,27,0,0,1,.43,4.92c.07,3.3-1.62,5.36-4.53,5.5-3.72.18-4.85-2.76-5.37-5l-.11-.46c-.81-3.48-1.65-7.08-3.57-9.73-4.1-5.66-10-7.75-17-6-7.46,1.8-11.83,6.54-12.64,13.7a98.08,98.08,0,0,0-.26,13.87c.05,1.85.1,3.75.11,5.65l.56.15c.82.22,1.6.43,2.39.62,12.33,3,18.27,12.2,15.86,24.69-2.8,14.59-16.05,26.69-30.81,28.14a11.55,11.55,0,0,1-1.36.08c-1.93,0-4.78-.57-5.42-4.33a4.25,4.25,0,0,1,.75-3.5c1-1.25,2.72-2,5.2-2.18,11.05-.88,21.8-11.8,22.12-22.47C184.8,191,182.59,188,177.22,186.44Z"/><path class="cls-2" d="M368.76,199.28c.29-4.09-24.16-9-24.16-13.13s6.29-7.75,6-11.84.81-7.93.23-12-5-6.94-5.86-10.95,14.1-12,12.94-16-11.89-4.88-13.33-8.74,9.93-13.36,8.21-17.1-20,.64-22-3-5.4-5.7-7.63-9.16,3-11.71.49-15-3.32-8-6-11.12,2.33-14.19-.59-17.11-6.4-6.63-9.52-9.33-18.84,9.78-22.15,7.3-3-9.76-6.47-12-10.55,2.11-14.18.12-.21-18.09-4-19.81-10.37,2.47-14.25,1-10.21,5-14.19,3.82-6.6-6.39-10.65-7.27-7.34-6-11.46-6.61S201,22.67,196.85,22.37s-7.56-9.8-11.73-9.8-7.94,5.14-12,5.43S162.74,1.53,158.67,2.1s-5.61,17.37-9.62,18.24S138.51,12.79,134.56,14s-6.48,7.49-10.33,8.93-2.86,13.74-6.6,15.45-9.53-1.86-13.15.12-17-11.89-20.5-9.66S76,33.5,72.69,36s8,23.3,4.85,26-10.81-.06-13.73,2.86-.26,10.5-3,13.63-4.59,6.06-7.07,9.36-11.58,1.55-13.82,5-.91,8.82-2.9,12.45S39.7,115.2,38,119s-25.4-1.59-26.85,2.29.71,9.7-.46,13.68-7.53,7.4-8.4,11.45,25.06,12.87,24.47,17-2.67,7.09-3,11.24-10.2,7.39-10.2,11.55-11,8.94-10.67,13S5,207.9,5.58,212s4.77,8,5.64,12,19.74,3.16,20.89,7.11-20.3,15.32-18.87,19.17,17.41,1.91,19.12,5.65,9.74,3.63,11.72,7.24-18,20.34-15.8,23.81,7,6.23,9.46,9.53,2.4,9.83,5.11,12.95,6.23,6.92,9.15,9.84,24.3-13.84,27.42-11.13-9.58,25.09-6.27,27.57,13.54-4.05,17-1.81,6.67,5.31,10.3,7.3,7.67,3.57,11.43,5.29,3.67,14.29,7.55,15.74,10.58-3.14,14.56-2,9.05-.21,13.1.67,7.83,6.1,11.94,6.68,9.68-10.52,13.83-10.22,8.09-5,12.25-5,8.71,13.05,12.8,12.76,6.61-15.24,10.68-15.82,12.11,19.8,16.12,18.93,1.52-27.48,5.47-28.63,9.1,3.54,12.95,2.1,9.87,3,13.62,1.3,4.07-9.6,7.69-11.57,13.26,6.41,16.73,4.17,8.61-2.76,11.91-5.24,6.3-6.05,9.42-8.75,7.11-5.14,10-8.06,3.16-8.8,5.86-11.93,14.58.37,17.06-2.94-19.31-23.44-17.07-26.92,19.14,2.31,21.13-1.32S336.28,259.73,338,256s5.11-6.47,6.56-10.35S353.81,240,355,236s8.67-6.8,9.55-10.86-15.4-11.23-14.81-15.34S368.47,203.43,368.76,199.28ZM244.9,167.58c-1.28,11.9-5.72,22.82-13.56,33.37a139,139,0,0,0-22.47,46.52c-5.14,18.81-16.83,30-34.75,33.34a32.9,32.9,0,0,1-5.88.54,29.07,29.07,0,0,1-17.47-5.7,29.85,29.85,0,0,1-11.75-21,27.57,27.57,0,0,1-.15-3c0-3.38,1.75-5.52,4.77-5.72,2-.13,4.61.65,5.33,5.2.13.84.17,1.68.22,2.5a17.07,17.07,0,0,0,.32,2.93,18.59,18.59,0,0,0,8.34,11.81,21.72,21.72,0,0,0,16.7,2.18C187,267.42,195.16,259,199,245.58c5.61-19.84,13.88-36.84,25.28-52,7.67-10.18,11.27-20.91,10.69-31.89v-.1a43.83,43.83,0,0,0-12.3-33.4,42.58,42.58,0,0,0-32-13,43.06,43.06,0,0,0-41.57,40.33c0,.25,0,.51,0,.76,0,.49,0,1-.09,1.47-.43,4.8-3.21,5.58-5.47,5.38-3-.25-4.55-2.19-4.61-5.76-.41-24.68,20.53-48.51,45.73-52A53.67,53.67,0,0,1,229,120.13C241.29,132,246.93,148.87,244.9,167.58Zm-67.68,18.86a33.15,33.15,0,0,0-4.92-.92c-6.56-.82-7.09-1.4-7.1-7.85,0-1.7,0-3.41,0-5.11,0-4.86-.05-9.88.06-14.82.31-14,10.73-24.74,25.34-26.05,12.66-1.13,25.08,8.46,27.71,21.38a27,27,0,0,1,.43,4.92c.07,3.3-1.62,5.36-4.53,5.5-3.72.18-4.85-2.76-5.37-5l-.11-.46c-.81-3.48-1.65-7.08-3.57-9.73-4.1-5.66-10-7.75-17-6-7.46,1.8-11.83,6.54-12.64,13.7a98.08,98.08,0,0,0-.26,13.87c.05,1.85.1,3.75.11,5.65l.56.15c.82.22,1.6.43,2.39.62,12.33,3,18.27,12.2,15.86,24.69-2.8,14.59-16.05,26.69-30.81,28.14a11.55,11.55,0,0,1-1.36.08c-1.93,0-4.78-.57-5.42-4.33a4.25,4.25,0,0,1,.75-3.5c1-1.25,2.72-2,5.2-2.18,11.05-.88,21.8-11.8,22.12-22.47C184.8,191,182.59,188,177.22,186.44Z"/><path class="cls-1" d="M177.07,188.31c-.44-.17-.36.18-.44.22C177.38,188.69,177.08,188.22,177.07,188.31Z"/><path class="cls-1" d="M182.93,192.26l-.16-.07a10.18,10.18,0,0,1,.64,1C183.24,192.85,183.12,192.54,182.93,192.26Z"/><path class="cls-1" d="M183.13,199.6a2.46,2.46,0,0,0,.46-1.77c0-.38,0-.79,0-1.18a5.8,5.8,0,0,1,0-1.11l.11-.23c-.16-.19-.31-.39-.47-.57a15.61,15.61,0,0,1,.17,2.61c0,.43,0,.86-.05,1.25S183.22,199.32,183.13,199.6Z"/><path class="cls-1" d="M180.81,203c.28-.14-.17.84.41-.8a.81.81,0,0,1-.11.13C181.05,202.45,181,202.65,180.81,203Z"/><path class="cls-1" d="M181.11,202.31c.29-.71-.36.39,0,0Z"/><path class="cls-1" d="M179.63,205.54c.14-.32.22-.66.34-1-.21.12-.66.89-.58.56C178.92,206,179.13,205.93,179.63,205.54Z"/><path class="cls-1" d="M179.42,206.56l.23-.49C179.56,206.12,179.47,206.23,179.42,206.56Z"/><path class="cls-1" d="M180.1,205a8.22,8.22,0,0,1-.45,1.06c.16-.08.32,0,.24-.47C180,205.76,180,205.5,180.1,205Z"/><path class="cls-1" d="M180.47,204.49c.38-.45.81-1.09.47-.08.46-.9.45-1.36.36-1.32S180.93,203.62,180.47,204.49Z"/><path class="cls-1" d="M183.59,200.1l.32-.77,0-.72C183.89,199,183.42,200.11,183.59,200.1Z"/><path class="cls-1" d="M175.43,210.32c0,.13.46,0,.62,0a7.4,7.4,0,0,0,.44-.65C176.18,210,175.59,210.41,175.43,210.32Z"/><path class="cls-1" d="M176.05,210.35l-.7.93C176.12,210.59,176.19,210.4,176.05,210.35Z"/><path class="cls-1" d="M179.82,207.05c.22-.62.5-1.2.66-1.84-.21.74-.57,1.42-.86,2.16Z"/><polygon class="cls-1" points="172.09 213.03 172.46 212.46 171.75 213.43 172.09 213.03"/><path class="cls-1" d="M169.69,214.55c.3-.42-.73,0-.36-.38a9.51,9.51,0,0,0-1.64,1.19A6.59,6.59,0,0,1,169.69,214.55Z"/><path class="cls-1" d="M166.85,215.92a9.42,9.42,0,0,0,.84-.56A4.91,4.91,0,0,0,166.85,215.92Z"/><path class="cls-1" d="M173.81,212.51a1.56,1.56,0,0,0-.9.3c.19,0,.36,0,.55,0Z"/><path class="cls-1" d="M173.47,212.79h0a8.3,8.3,0,0,1-.81.55A7.42,7.42,0,0,0,173.47,212.79Z"/><path class="cls-1" d="M173.9,212.44l-.09.07C173.87,212.51,173.89,212.5,173.9,212.44Z"/><path class="cls-1" d="M177.72,209.32c-.33.62-1.18,1.84,0,1C177.87,209.78,177.22,210.27,177.72,209.32Z"/><path class="cls-1" d="M174.6,212.4a8.1,8.1,0,0,0,1-.77c-.07,0-.32,0-.13-.28A12.18,12.18,0,0,1,174.6,212.4Z"/><polygon class="cls-1" points="174.19 212.86 174.6 212.4 174.22 212.67 174.19 212.86"/><path class="cls-1" d="M168.86,215.43a5.24,5.24,0,0,1-1.54.83,9.7,9.7,0,0,0,2-.73C169.34,215.4,169.53,215.11,168.86,215.43Z"/><path class="cls-1" d="M171.18,214.31l-.09.07C171.17,214.37,171.22,214.35,171.18,214.31Z"/><polygon class="cls-1" points="160.9 217.58 161.03 217.61 161.05 217.55 160.9 217.58"/><path class="cls-1" d="M169.42,215.53a1.86,1.86,0,0,0,1-.63,6,6,0,0,1-1.09.63C169.27,215.59,169.28,215.62,169.42,215.53Z"/><path class="cls-1" d="M165.24,216.56a7.28,7.28,0,0,0,.9-.05C165.86,216.49,165.31,216.45,165.24,216.56Z"/><path class="cls-1" d="M170.89,214.39l.06,0C170.77,214.37,170.8,214.38,170.89,214.39Z"/><path class="cls-1" d="M170.89,214.39a4.9,4.9,0,0,0-.51.51,7.74,7.74,0,0,0,.71-.52A.69.69,0,0,1,170.89,214.39Z"/><path class="cls-1" d="M159.32,220.17c0-.15.28-.45.79-.67a3.68,3.68,0,0,1,1.87-.26c1.22-.33.4-1.28-.95-1.63,0,.16,0,.2-1.4.77a16.29,16.29,0,0,1,1.66-.09c.58,0,.94.11.38.31a7.47,7.47,0,0,1-1.51.28,4.16,4.16,0,0,0-.9,0c.44,0-.1.36-.59.79s-.88,1-.55,1.08a5.28,5.28,0,0,1,1.17-.92C159.35,219.93,158.92,220.27,159.32,220.17Z"/><path class="cls-1" d="M163.52,217.32l.48-.1a7,7,0,0,1-1.71-.18c-1,.24-1.19.41-1.24.51.49-.08,1-.11,1.45-.15l1.18-.15Z"/><path class="cls-1" d="M166.13,216.73c-.27.39-1.42.82-.61,1a2.15,2.15,0,0,0,1.1-.47,2.15,2.15,0,0,1,.62-.48c-2.21.86.58-.4-1.08,0,.42-.2.8-.35,1.16-.49-.41.1-.8.18-1.18.25h.07c.11,0,.14,0,0,0l0,0a.26.26,0,0,1-.07.15c-.67.09-.12,0,.07-.15a.43.43,0,0,1,0,0h0c-.72.24-1.46.51-2.2.7A12.93,12.93,0,0,0,166.13,216.73Z"/><path class="cls-1" d="M177.29,211.75c-.08,0-.1,0-.12,0S177.06,212,177.29,211.75Z"/><path class="cls-1" d="M176.4,212.31a1.94,1.94,0,0,1,.57-.73c.44-.28.11.11.2.17.22-.3.71-1.05-.18-.37l-.09.16c-.8.62-2,1.16-1.92,1A2.57,2.57,0,0,0,176.4,212.31Z"/><path class="cls-1" d="M171.41,215.25a19.35,19.35,0,0,1-1.73,1.09,6.23,6.23,0,0,0,1.06-.22l-.12-.12C171.67,215.48,171.35,215.43,171.41,215.25Z"/><path class="cls-1" d="M160.59,217.47l.26-.4a15.07,15.07,0,0,0-1.32.81C159.88,217.73,160.24,217.59,160.59,217.47Z"/><path class="cls-1" d="M157.4,218.74l0-.32a7.49,7.49,0,0,0-.74.75C156.88,219,157.14,218.87,157.4,218.74Z"/><path class="cls-1" d="M207.18,148.18c.15.18.29.37.42.56A3.31,3.31,0,0,0,207.18,148.18Z"/><path class="cls-1" d="M204,144.35l-.18,0C204.06,144.47,204.17,144.49,204,144.35Z"/><path class="cls-1" d="M196.3,192.25c.14-1,.29-2.21,0-2l-.26.37A5,5,0,0,1,196.3,192.25Z"/><path class="cls-1" d="M175.31,157c0,.08-.08.17-.12.26s.18.44.26.63C175.41,157.57,175.36,157.27,175.31,157Z"/><path class="cls-1" d="M174,156.17c.1-.39.25-.81.38-1.21A7,7,0,0,0,174,156.17Z"/><path class="cls-1" d="M216.51,159.2a4.42,4.42,0,0,0-.27-.53C216.16,159.41,216.35,159.11,216.51,159.2Z"/><path class="cls-1" d="M177.27,226.45a13.3,13.3,0,0,0,1.84-.89C178.17,225.92,177.37,226.09,177.27,226.45Z"/><path class="cls-1" d="M203.33,148.71c.25.23.4.31.45.26C203.52,148.72,203.34,148.6,203.33,148.71Z"/><path class="cls-1" d="M181.07,224.23l-.39.19a8.38,8.38,0,0,1-1.57,1.14A4.22,4.22,0,0,0,181.07,224.23Z"/><path class="cls-1" d="M167.08,162c0,.07,0,.14,0,.2S167.08,162.08,167.08,162Z"/><path class="cls-1" d="M169.56,186.56a8.81,8.81,0,0,1-1.13-.21A4.67,4.67,0,0,0,169.56,186.56Z"/><path class="cls-1" d="M159.64,231c-.77-.19-.13,0,0,0Z"/><path class="cls-1" d="M157.17,228.05c.13.09.24.13.3.09A.42.42,0,0,1,157.17,228.05Z"/><path class="cls-1" d="M184.29,218.85l0,0C184.15,218.89,184.18,218.88,184.29,218.85Z"/><path class="cls-1" d="M158.56,230.43a5.26,5.26,0,0,0,.92.43C159.33,230.78,159.05,230.69,158.56,230.43Z"/><path class="cls-1" d="M158.65,230.63a4.7,4.7,0,0,1-.64-.33C157.89,230.28,158,230.4,158.65,230.63Z"/><path class="cls-1" d="M160.68,231.13a6.56,6.56,0,0,1-1.2-.27c.14.06.2.09.16.09A9.42,9.42,0,0,0,160.68,231.13Z"/><path class="cls-1" d="M194,132.66l-.12,0C193.29,132.72,193.54,132.71,194,132.66Z"/><path class="cls-1" d="M185.94,181.23l.06,0-.06-.06Z"/><path class="cls-1" d="M184.18,180.4a2.38,2.38,0,0,1,1.76.79c0-.38,0-.78,0-1.16C185.33,180.15,184.74,180.27,184.18,180.4Z"/><path class="cls-1" d="M210.81,158.73l0-1.39c.44.88.66,1.35.83,1.61s.2.2.24-.35c-.26,0-.47-.2-.65-.64s-.37-1.21-.56-1.91c-.35-1.41-.8-2.86-1.32-2.82,0-.34-.07-.69-.1-1,.08.29.15.31.23.59a2.05,2.05,0,0,0-.76-1.67,4.8,4.8,0,0,1-1.33-1.93c-.36-.85-.63-1.49-.17-1-.22-.29-.46-.56-.7-.83l-.72-.73c-.34-.47-.12-.47.23,0a20.14,20.14,0,0,0-2.18-2.25h0c-.45-.18-1.37-.66-1.84-.84-.55-.57.39.15.3-.07a13.28,13.28,0,0,0-1.57-.75c-.49-.58.92-.11,1.87.68a1.82,1.82,0,0,0-1.31-1.29c-.3-.11-.64-.24-1.12-.45s-1.05-.51-1.86-1c.55.17,1.11.32,1.64.54-.78-1-2.15-1.35-4.05-2.05a16,16,0,0,1,1.74,1c.58.43.82.76-.13.59a3.55,3.55,0,0,0-.92-.3,4.86,4.86,0,0,0-1.33-.1c0-.36-1-.44-2.24-.44l.1-.48a4.55,4.55,0,0,0-2,.67,3,3,0,0,1-2.26-.44c-2.38.43,1.73.25-1,.92a11.66,11.66,0,0,0-5.21,2.26c-1.29.55.06-.39-.44-.26l-.87,1c-.25.16-.24,0-.23-.07-.76.75.17.42-1,1.52,0,.17-.19.35-.49.56s-.67.47-1.1.77a5.14,5.14,0,0,0-2,2.6c-.37.36-.13-.36-.37-.32a12.59,12.59,0,0,0-.79,2.44,10.42,10.42,0,0,0-.22,2.14,18.14,18.14,0,0,0-.68,1.78c.57-1.3.67.53.89,2,.23-.44.41-.82.52-1.07,0,.77,0,1.55,0,2.33-.1.27-.25,0-.42-.37,0,.16.06.31.09.43-.24.82-.49.38-.71-.25.11-.27.24-.55.36-.81-.24-.61-.49-1.19-.79-1.1a4.09,4.09,0,0,1,0,.79c-.06-.16-.12-.26-.18-.19s0,.33.11.73l-.57.5.2.14c-.18,1-.34,2.07-.48,3.1a47.86,47.86,0,0,1,1.6,7.6c-.41-.85-.64-.17-1.11-.2.47-1-.28-2.69-.18-4.51-.05,1-.27.74-.35.5l.5,3.22c-.38-.06-.27.69-.4,1.53.74-.65.55,2.37.8,3.67-.25.08-.51-.23-.48-1.81a2.57,2.57,0,0,0,.21,2,3.82,3.82,0,0,1,.18.52,5.43,5.43,0,0,1,.13.58,4.14,4.14,0,0,1,0,1.48c0-.52,0-.81-.11-1a7.53,7.53,0,0,1,.12,1.1c0,.11,0,.22,0,.32l.31.09.6.18c.73.23,1.27.48.86.48l-.53-.13,2.68.73c.79.24,1.66.39,2.42.67,1.57.42,2.83.92,3.16.7a3,3,0,0,1-.83.6,20,20,0,0,1,5,.54c-.64.22-.27,2.09-2.07,1.17a13.85,13.85,0,0,0,1.93,1.53c-.23-.31-.21-1.25.23-.92.71,1.44.55,1,1.37,2.63-.14-.26.05-.4.37-.39a1.41,1.41,0,0,1,1,.63c-.19,0-.65.55-.91.34.32.22.69.44,1,.7l.95.81c-.43-.44-.68.26-.64.8a10.79,10.79,0,0,1,1,2.35c0-.32-.05-.66-.12-1a6.36,6.36,0,0,0,1.25,2.35,4.17,4.17,0,0,1,1,2.56c-.21-.32-1.15-.67-1.11.65a12.85,12.85,0,0,1,1.27,1.89,8.33,8.33,0,0,1,.62,1.6c.08.3.15.6.21.92s0,.63,0,.94l-.32.45v1l-.08,1c-.14-.65-.47-1.88-.78-3.11-.15-.61-.39-1.24-.55-1.8s-.34-1.09-.48-1.51c-.2,1-.25.26-.33,1.73-.28.49-.28-.82-.3-1.23a25,25,0,0,1-.46,3.32c.26,0,.3.63.3,1.3s-.1,1.33.12,1.32a29.88,29.88,0,0,0,.16-3.77c.27-.05.55.52.69,1.44a7.68,7.68,0,0,1-.26,3.39c-.34.57-.76-.7-.93-.68a6,6,0,0,1-.55,2.51l.08-1.07a4.87,4.87,0,0,0-.39,1.81,3.82,3.82,0,0,1-.82,1.88c-.23.53-1.33,1.23-1.1,1.45.94-.54,2.64,0,2.72.82L191,211.27a10.72,10.72,0,0,1-1.53,1.53c-.9.57-.13-1.8-.9-1.31.1.1,0,.64-.11.85-.43.45-.22-.44-.89.69.29.47-1.64,2.12,0,.75a5.67,5.67,0,0,1-.81,1.1c-.25.28-.55.55-1,1.13.29-.08.28.36.09,1a5.37,5.37,0,0,1-1,1.89c0-.15-.37-.06-.52,0a21.37,21.37,0,0,1-2.64,2.18c-.8.64-1.68,1.12-2.69,1.87-.24.06-1.36.55-1,.1a4.61,4.61,0,0,1-1.09,1c-1.49.4,1.42-1,.18-.82,0,.16-.33.5-.82.9s-1.13.78-1.57,1.12c.25.13.83-.15,1.45-.54a16,16,0,0,0,1.66-1.34c.35.52-.92,2.17-3.27,3.63-1.93,1-1,0-1.33.22a14.55,14.55,0,0,0-3.3,1.69,5.31,5.31,0,0,1-3,1c-1.4-.11-.21-.76-.56-1,1.64-.55,2.66-.32,3.77-.74-.48.08-.95.21-1.44.25a8.55,8.55,0,0,1,2.19-.82,7.17,7.17,0,0,0-1.53.33c-.69.21-1.58.35-2.51.58a16.81,16.81,0,0,1-5.52.4c-.52.1-1.47,0-1.08.25a6.4,6.4,0,0,0,1,.12c.43.2,0,.28-.49.3s-.87,0-.22.2a5.21,5.21,0,0,1-2.39-.57,4.18,4.18,0,0,1-2-2.31c.09-.19.17-.37.27-.54-.06,0,0,.38.16.77a2.66,2.66,0,0,0,.71,1,3.3,3.3,0,0,1-.87-1.84,5.73,5.73,0,0,0-.55-2,9.31,9.31,0,0,0-.08,1.49,6.78,6.78,0,0,1-.63-2.57,4.24,4.24,0,0,1,1.19-3,1.26,1.26,0,0,0-.69.57c-.1.19-.29.39-.84,1.13.58-.6-.08.87,0,2.18a4.62,4.62,0,0,0,.23,1.51c.1.28.19.28.26-.23a3.47,3.47,0,0,0,.25,2.13,10.62,10.62,0,0,0,1.46,2.41c0-.08-.09-.27,0-.26s.3.24,1.14.75c.1,0,.3,0,.44.07l.11.06-.09-.06c.08,0,.09,0,0,0a2.2,2.2,0,0,1-.73-.67,17.08,17.08,0,0,0,2.22.6,6.06,6.06,0,0,0,2.09,0c.88,0-.36.2.12.33l1.18-.34c.15.35,2.3.25.33.73l1.8-.24a9.25,9.25,0,0,0,3.41-.58c.86-.12,1.95-1,1.33-.51a27.22,27.22,0,0,0,2.6-1.13l.05.07c.65-.26,1.29-.56,1.93-.88l1.89-1.11c.65-.35,1.26-.78,1.93-1.15s1.37-.71,2.09-1.07c.7-.63,1.44-1.24,2.68-2.2l.42,0a9.4,9.4,0,0,1,.82-.7l1-.82c.61-.54,1.16-1,1.23-1.34a7.43,7.43,0,0,0,2.7-2.56c.45-.65.93-1.32,1.33-2s.75-1.23,1.06-1.67l-.28-.27a13.39,13.39,0,0,0,1-1.95,16.21,16.21,0,0,0,.91-2.3l-.35,0a21.28,21.28,0,0,1,1.08-2.66c.22-.52.44-1.06.68-1.61a12.71,12.71,0,0,0,.5-1.76,2.35,2.35,0,0,1-.27,1.21,8.46,8.46,0,0,0,.76-2.15,14.81,14.81,0,0,0,.22-2.31,32.66,32.66,0,0,1,.15-4.38,7.07,7.07,0,0,1-.1-1.65.71.71,0,0,0,0,.17c0-.07,0-.17,0-.28,0-.3.06-.62.08-1a5.25,5.25,0,0,0-.09.82c0-.26-.08-.59-.14-.94s-.2-.74-.31-1.12l.28-.4c0-.06,0-.11,0-.18,0-.8-.29-.57-.47-.1a3.43,3.43,0,0,0-.48-.94c.19-.37,0-.86-.22-1.36a2.39,2.39,0,0,1-.39-1.51c-.22-.19-.74-1-1.32-1.83s-1.29-1.43-1.65-1.41c0-.07-.05-.28.2.05a6,6,0,0,0-1.64-1.84l.06-.57c-.62-.27-1.2-.55-1.8-.78-.73-.87-1-1.3.1-.91l-1.41-.68-.81-.37a7.58,7.58,0,0,0-2-.66l.23-.22a11.47,11.47,0,0,0-1.36-.44,2.56,2.56,0,0,1-1.1-.43,6.61,6.61,0,0,0-2-1c-.92-.31-2.32-.68-2.78-.81l-.52-.14a5,5,0,0,1,0-.55c0-.48,0-1,0-1.43,0-1.31.06-2.6.16-3.72-.86.89.33-2.09-.34-2.25.2-.27.31-.89.5-.17-.25-2.28.29-3.4-.25-5,.21-.25.29.49.42.26a1.75,1.75,0,0,1,0-.94c.13-.23.16.33.24.68,0-2.27-.56-2.53-1.15-2.74a3.56,3.56,0,0,0,.08-2.6c.25-.37.53-1,.43.4.05-.42.27-1.55.53-2.6.14-.52.28-1,.36-1.39s.12-.64,0-.7a4.2,4.2,0,0,0,.5-1.16,11.3,11.3,0,0,1,1-1.5c.27-.38.55-.73,1.08-1.38l-.36.3c0-.9.87-1.14,1.89-2.05v.07a14.13,14.13,0,0,0,2-1.13,5.12,5.12,0,0,1,2.08-.8l-.29-.26c0-.43.71-.57,1.62-.69a14.59,14.59,0,0,0,2.89-.41c-.23,0-.46-.06-.69-.08a2.8,2.8,0,0,1,1.94.15,12.62,12.62,0,0,0,1.84.63c.2.07-.32.11-.6.16,1.21.21,1.27.16,1.29,0s0-.47.88-.42c.3.3-.49.58.68.8a18.78,18.78,0,0,0,2.13.31,4.63,4.63,0,0,1,2.65,1.3c-.19-.36-.41-.74.4-.38a7.64,7.64,0,0,1,1.71,1.77,5.79,5.79,0,0,0,1.67,1.68c.07.17.07.26,0,.29a10,10,0,0,1,1.3,1.64,11.22,11.22,0,0,0,1.08,1.55c-.4.67.26,2.16.8,3.65s1,2.88.47,3a10.16,10.16,0,0,0,1.57,3.61l-.16,0a4.55,4.55,0,0,0,2.44,2,3.54,3.54,0,0,0,1.71.09c.59.15.14.21.08.26a5.54,5.54,0,0,0,4-.62,4.07,4.07,0,0,0,1.19-1.12,4.79,4.79,0,0,0,.81-1.88,4.37,4.37,0,0,0,.46-.18c0-.22.18-.66.31-1.25a11.93,11.93,0,0,0,.26-2.12,12.49,12.49,0,0,0-.52-5c.05,0,.14.07.25.32A27.25,27.25,0,0,1,219,150c-.31-1-.49-2-.88-2.93-.63-1.85-1.55-3.28-2.44-3.51L214,141.74c1.7,2.58-.73,0-.18,1.14a5.84,5.84,0,0,1-.53-.8,7.13,7.13,0,0,1-.43-.74c-.19-.41-.15-.59.35,0l.1.22c.45,0-.12-.79-.76-1.6s-1.45-1.52-1.24-1.67c-4.45-4.24-10-7.36-15.91-8.09.2.21.4.43.59.65a14.92,14.92,0,0,0-2-.22c-.53-.16-.71-.48.76-.36a2.83,2.83,0,0,0-1.52-.07,2.19,2.19,0,0,0-1,.36c-2.86-.12,1.11-.68.24-.66l-1.21.08.28.05c-.49.14-.74.26-1.1.36a7.38,7.38,0,0,1-1.64.34c-1.1,0-.61-.26-1-.23,0,0-.15-.05-.66.11-.83.18-1.68.32-2.51.53a10.5,10.5,0,0,1,1.1.18c-.53.2-1.1.37-1.38.49s-.29.19.33.25a7.81,7.81,0,0,0-2.21.31,23.62,23.62,0,0,0-3,1.22l-1.48.78c-.48.25-.89.56-1.27.79-.77.48-1.35.85-1.58,1-.52.62-1.12,1.13-1.7,1.71s-1.25,1.14-1.9,1.85c.38-.3.91-.17-.2,1-.17-.55-.79-.09-1.46.66a13.21,13.21,0,0,1-2.08,2.17c.52-.4-.07.65-.58,1.62s-.79,2-.08,1.27c-.66,1.21-.38-.09-1,.78-.23.8-.47,1.65-.79,2.5l-.81,2.69c-.19.95-.44,1.92-.59,2.92a25.92,25.92,0,0,0-.18,3c.13.07.34-.59.53.26l-.67,2.06c.06.78.76.73.3,2.14.11-.2.28-.5.32,0A111.25,111.25,0,0,0,164,174.5c.05,2,0,3.9.06,6a8.57,8.57,0,0,0,.7,3.47,4.75,4.75,0,0,0,1.43,1.62,9.23,9.23,0,0,0,1.66.92c-1.15-.66-.3-.36.58-.15-.55-.2.09-.31,0-.51,1.1.44,2.2.75,3.27,1.06.69-.44,3.38.44,3.78.08l-1-.11c.71-.15.31-.55-.25-1s-1.3-.87-1.15-1.22a5.13,5.13,0,0,1-2.84-.51c-.52-.19-1.06-.39-1.57-.55a10.17,10.17,0,0,0-1.43-.34c-.09-.18,0-.17.11-.15s.26,0,.22-.1c-.47,0-1-.26-1-1.5l.11.11a11.33,11.33,0,0,1-.22-2.43c0-.77,0-1.49.08-2.25.09-1.5.18-3.06.31-5.32l-.36.34a7.27,7.27,0,0,1,.25-1.63c-.53-1.11,0,2.72-.63,1.71.73-1.29,0-6.84.87-7.7,0-1.49-.42.43-.41-1.06l.23-.39-.29-.38c0-1,.33-1.46.52-1.5a7.41,7.41,0,0,0,.07.93,31,31,0,0,0,0-4l-.14,1.42c0-.5,0-1,0-1.56s0-1,.07-1.53a27.94,27.94,0,0,1,.41-3.13,45.72,45.72,0,0,1,1.68-5.83l-.28.18a6.5,6.5,0,0,1,1.2-2.33c.18-.24.37-.49.62-.85s.6-.78,1-1.44l0,.12a6.15,6.15,0,0,1,1.33-1.93c-.19.36.13.14.42,0s.61-.32.31.11c2-2.33.87-1.27,2.11-3l.55-.07c.4-.65.39-.77,1.71-1.7-1,.91,1.07-.19,0,.87.39-.16.73-.34,1.06-.49a8.57,8.57,0,0,0,.91-.45c.56-.29,1-.65,1.45-.87.89-.46,1.57-.92,2.44-.69.61-.58-.11-.49-.89-.25s-1.56.66-1.19.42c-.39,0-.15-.23.32-.54.23-.15.52-.31.81-.46a6.91,6.91,0,0,1,.88-.29,5.23,5.23,0,0,1,1.73,0,8.43,8.43,0,0,0,2.88-.13,3.21,3.21,0,0,0-.53.15c1,0,1.9-.56,3.13-.35.64-.49,1.54,0,1.74-.63-.82.09-1.62.12-2.43.25l2.13-.55a6.52,6.52,0,0,1,2.86.08,7.68,7.68,0,0,1-1.36.27c.65.21,1.29-.06,2,.26-.14.28-.86.17-1.75.16a12.76,12.76,0,0,0-1.39,0,5.42,5.42,0,0,0-1.25.25,4.88,4.88,0,0,0,1.53-.09c.5,0,.83,0,.45.29a2.39,2.39,0,0,1,1.91-.18,7.41,7.41,0,0,0,2.44.26l-.2.32a6.52,6.52,0,0,1,1.38.14l-1,.21a3.62,3.62,0,0,1,2,.59,9.75,9.75,0,0,0,1.82.86c-2.62-1.06-.42-.64-1.46-1.32a4.71,4.71,0,0,1,1.78.65,3,3,0,0,1,.74.71,7.05,7.05,0,0,0,2.48,2c-.45-.27-1.6-1.19-.79-.93a6.47,6.47,0,0,1,1.61,1.54c2.15,1.46-.09-.54.93-.06.44.9,1.11.68,2.1,1.34l-.24.27c1,1.15,1.26,1.16,1.51,1.15s.48-.05,1.26,1.11l-1.13-.56,1,1-.5,0c.3.24.55.45.76.65s.34.4.49.6a13.55,13.55,0,0,1,.89,1.49c0-.43.65-.18,1.35,1,.14.45,0,.38-.05.4s0,.13.41,1a2,2,0,0,1-.94-1.44c-.15,0-.41-.25-.55-.26a26.64,26.64,0,0,0,1.36,2.77,4.17,4.17,0,0,1-.24-.7c.26.38.56.74.79,1.14l.7,1.2c0,.45-.21.16-.42-.12a7.73,7.73,0,0,1,.74,1.59c-.36-.12-.57,0-1.07-1,.41.76.65,1.57,1,2.37-.05.2-.12,1.29-.27,1a16.6,16.6,0,0,0,.41,2.43,14.66,14.66,0,0,1,.21,1.46,2.63,2.63,0,0,1-.11,1.13,1,1,0,0,1,0,.53,2.22,2.22,0,0,1-1,1.15,6.91,6.91,0,0,1-1.68.62,2,2,0,0,1-.7-.6c-.4-.05-.29.16-.18.38s.1.2,0,.26-.32.11-.74-.06c-.6-.27-.58-.52-.48-.62s.29-.19.21-.38a2.49,2.49,0,0,1-1.08-1,4.55,4.55,0,0,1-.58-2.39C210.61,157.77,210.64,158.28,210.81,158.73Zm-13.25-18c.48.05,1.46.18,1.7.52C198.59,141.46,198.31,141.1,197.56,140.76Zm-23.15,19.38a2.44,2.44,0,0,1,.14-1.36A5.66,5.66,0,0,1,174.41,160.14Zm-7.62,70.2.05,0C167.84,230.22,167.48,230.25,166.79,230.34Zm-2.06.17c-.2.08-.18.13-.09.17a2.91,2.91,0,0,1,1.12-.24A1.56,1.56,0,0,0,164.73,230.51Zm22.88-99.88.41,0C187.15,130.9,187.38,130.79,187.61,130.63Z"/><path class="cls-1" d="M174.19,156.28a.35.35,0,0,1,.21-.17C174.36,155.94,174.29,155.93,174.19,156.28Z"/><path class="cls-1" d="M216.56,159.31a.09.09,0,0,1,0-.05.17.17,0,0,0-.06-.06Z"/><path class="cls-1" d="M188,212a2.47,2.47,0,0,1,.56-.53C188.52,211.43,188.37,211.54,188,212Z"/><path class="cls-1" d="M154.34,225a9.71,9.71,0,0,0,.48,1.59,3.57,3.57,0,0,1-.24-1.45C154.5,225.14,154.43,225.49,154.34,225Z"/><path class="cls-1" d="M164.13,219a4.92,4.92,0,0,0,.55-.14l-.08-.15C163.84,218.82,163.31,219,164.13,219Z"/><path class="cls-1" d="M155.49,223.41c.31-.09.26-1,.76-2l-.09.16C156,221,155.4,222.24,155.49,223.41Z"/><path class="cls-1" d="M156.37,221.17a3.63,3.63,0,0,1,.61-.78C157,220.18,156.65,220.64,156.37,221.17Z"/><path class="cls-1" d="M162,231c-.49-.08-.32.39-.61.26-.3.18.6.11,1.1-.08S163.32,230.8,162,231Z"/><path class="cls-1" d="M156.6,222.79a2.67,2.67,0,0,0-.43.25,3.82,3.82,0,0,0,.24.55A4.24,4.24,0,0,1,156.6,222.79Z"/><path class="cls-1" d="M159.15,228.92A4.7,4.7,0,0,1,158,228c0,.07-.19,0-.37-.19C158.2,228.56,159.14,229.05,159.15,228.92Z"/><path class="cls-1" d="M157.6,227.84c-.33-.36-.57-.75-.75-1A3.6,3.6,0,0,0,157.6,227.84Z"/><path class="cls-1" d="M156.64,224.69a3,3,0,0,0,0,.42,6.69,6.69,0,0,0,.23,1A8.31,8.31,0,0,1,156.64,224.69Z"/><path class="cls-1" d="M174,226.5c.45-.25.89-.53,1.34-.8.08-.18-.33-.06-.82.25C174.28,226.21,173.77,226.49,174,226.5Z"/><path class="cls-1" d="M169.35,227.18a1.69,1.69,0,0,1,.72.06l-.1-.45Z"/><path class="cls-1" d="M173.41,225.53c.1-.15,1.77-1.32.11-.42C173.44,225.29,172.1,226,173.41,225.53Z"/><polygon class="cls-1" points="190.33 210.7 190.15 211.05 190.84 211.38 190.33 210.7"/><path class="cls-1" d="M192.21,191.56c.14,1.64.6.29.54,1.83.22.37.06-1.26.25-.88C192.61,191.54,192.61,191,192.21,191.56Z"/><path class="cls-1" d="M193,192.51c.05.16.1.33.17.51A2.76,2.76,0,0,0,193,192.51Z"/><path class="cls-1" d="M173.78,187.58l1.06.35-.66-.38Z"/><path class="cls-1" d="M176,187.43l.14.53.74-.25A2.4,2.4,0,0,1,176,187.43Z"/><path class="cls-1" d="M194.08,139.14l-.11.11a3.35,3.35,0,0,0,1.14.27A9.81,9.81,0,0,0,194.08,139.14Z"/><path class="cls-1" d="M208.4,149.43l-.13-.28c-.05.24-.09.47-.15.7Z"/><path class="cls-1" d="M212.78,160.39a1.84,1.84,0,0,1-.52-.48,1.48,1.48,0,0,1,.29.56C212.59,160.61,212.64,160.62,212.78,160.39Z"/><path class="cls-1" d="M246.79,166.93c-.12,1.07.23.72.27.88C247.14,166,246.71,167,246.79,166.93Z"/><polygon class="cls-1" points="245.49 149.43 245.67 149.71 244.9 147.23 245.49 149.43"/><path class="cls-1" d="M240.43,133.87a18.18,18.18,0,0,0,1.47,3.64c.37.74.67,1.56,1,2.34a14.67,14.67,0,0,1,.74,2.28l0,.5.79,1.14A77,77,0,0,0,240.43,133.87Z"/><path class="cls-1" d="M236.84,125.7c.09.28-.24-.07-.28-.11a15.31,15.31,0,0,1,1.41,1.87c-.09-.18-.11-.24-.17-.34C237.59,126.82,237.34,126.39,236.84,125.7Z"/><path class="cls-1" d="M237.8,127.12c1,1.46-.5-1.06,0,0Z"/><path class="cls-1" d="M232.66,120.8c.57.53,1.11,1.08,1.67,1.63-.23-.45-1.56-2-1-1.52C231.62,119.23,231.86,119.7,232.66,120.8Z"/><path class="cls-1" d="M230.85,119.5l.89.8A2.56,2.56,0,0,0,230.85,119.5Z"/><path class="cls-1" d="M233.57,122.06l-.89-.91-.94-.85c.17.3.07.44.85.79C232.34,121.05,232.79,121.31,233.57,122.06Z"/><path class="cls-1" d="M234.45,123.21c.75,1.07,1.66,2.46.13.73C237.29,127.4,237.25,126.65,234.45,123.21Z"/><path class="cls-1" d="M239.56,133.38l.63,1.58c.28.4.5.83.76,1.25A20.55,20.55,0,0,0,239.56,133.38Z"/><path class="cls-1" d="M221.73,111.33c-.18,0,.5.68.56.9.51.26,1,.55,1.49.86C223.13,112.48,221.74,111.55,221.73,111.33Z"/><path class="cls-1" d="M222.29,112.23c-.75-.4-1.49-.82-2.25-1.21C222,112.25,222.34,112.41,222.29,112.23Z"/><path class="cls-1" d="M230.14,119.63c1.05.89,2.16,1.76,3.14,2.75-.58-.59-1.18-1.16-1.82-1.7s-1.24-1.1-1.89-1.61A7.53,7.53,0,0,1,230.14,119.63Z"/><polygon class="cls-1" points="213.03 106.77 214.48 107.1 211.93 106.45 213.03 106.77"/><path class="cls-1" d="M206.86,104.65c1.1.1-1.32-.78-.19-.58a20.94,20.94,0,0,0-2.45-.47,19.8,19.8,0,0,0-2.19-.22,13,13,0,0,1,2.26.44A19.93,19.93,0,0,1,206.86,104.65Z"/><path class="cls-1" d="M199.74,103.22c.72.06,1.47.12,2.29.16A21.84,21.84,0,0,0,199.74,103.22Z"/><path class="cls-1" d="M216.25,108.9a5.56,5.56,0,0,0-1.67-1.17c.27.23.52.48.77.73Z"/><path class="cls-1" d="M215.38,108.48l0,0c-1-.51-1.68-.76-2-.91C213.63,107.68,214.26,107.89,215.38,108.48Z"/><path class="cls-1" d="M216.47,109l-.22-.12A.29.29,0,0,0,216.47,109Z"/><path class="cls-1" d="M225.35,115.05c-1.3-.75-3.91-2.39-1.66-.42C224.68,115.08,223.39,113.94,225.35,115.05Z"/><path class="cls-1" d="M217.4,109.93l2.3,1.39c0-.1-.36-.45.33-.16Z"/><polygon class="cls-1" points="216.18 109.43 217.4 109.93 216.52 109.46 216.18 109.43"/><path class="cls-1" d="M204.26,104.42c-1.17-.16-2.43-.37-3.86-.6l2.29.49,2.26.56C205.18,104.82,205.88,104.8,204.26,104.42Z"/><path class="cls-1" d="M209.76,106.13l-.25-.07C209.65,106.14,209.77,106.19,209.76,106.13Z"/><path class="cls-1" d="M186.21,103.38l.23,0,.05-.06Z"/><path class="cls-1" d="M205.19,105a16.92,16.92,0,0,0,2.45.58c-.85-.22-1.72-.49-2.69-.7C204.84,104.89,204.82,104.91,205.19,105Z"/><path class="cls-1" d="M195.75,102.94c.6.1,1.28.21,2,.36A6.71,6.71,0,0,0,195.75,102.94Z"/><path class="cls-1" d="M209.17,105.84l.17,0C209,105.69,209,105.74,209.17,105.84Z"/><path class="cls-1" d="M209.17,105.84a11.55,11.55,0,0,0-1.53-.27c.68.18,1.33.32,1.87.49C209.38,106,209.26,105.9,209.17,105.84Z"/><path class="cls-1" d="M182.33,106.07a4.45,4.45,0,0,1,1.87-.73,15.79,15.79,0,0,1,3.73-.31c2.5-.32.84-1.3-1.49-1.61-.06.16-.06.2-2.67.77.95-.08,5.88-.24,3.68.2a18.08,18.08,0,0,1-2.92.3,15,15,0,0,0-1.62.06c1.47.11-4.25,1.32-3.34,1.78,1-.33,1.93-.52,2.9-.79C182.54,105.81,181.5,106.15,182.33,106.07Z"/><path class="cls-1" d="M191.53,103.19l1.11,0c-1.26-.06-2.16-.21-3.83-.33-1.84.22-2.2.43-2.32.53.9-.12,1.81-.13,2.71-.18l1.36-.05,1.35,0Z"/><path class="cls-1" d="M197.57,103.48c-.89.17-3.52.2-1.94.63a20.39,20.39,0,0,0,2.55.1,8.43,8.43,0,0,1,1.62,0c-5.15-.56,1.5,0-2.2-.64,1,.09,2,.14,2.8.3-.91-.22-1.81-.34-2.65-.52l.11,0h0c.22.07.29.11,0,0h-.11a.71.71,0,0,1-.24.09c-1.5-.25-.23-.12.24-.09,0,0,.06,0,.07,0h0c-.86-.1-1.74-.13-2.61-.15s-1.74-.07-2.61,0c.55,0,1.17,0,2,.11S196.35,103.32,197.57,103.48Z"/><path class="cls-1" d="M221.07,113.65c-.12-.11-.1-.12-.1-.15C220.67,113.36,220.55,113.31,221.07,113.65Z"/><path class="cls-1" d="M219.41,112.36a7.47,7.47,0,0,1,1.66.9c.83.64-.09.12-.1.24.65.32,2.26,1.19.44-.18l-.33-.16a35.73,35.73,0,0,1-3.46-2.71A9.65,9.65,0,0,0,219.41,112.36Z"/><path class="cls-1" d="M208.88,106.79c-.69-.21-1.38-.37-2.07-.55s-1.38-.37-2.08-.49c.69.24,1.35.54,2,.84l-.06-.19C209,107.16,208.55,106.82,208.88,106.79Z"/><path class="cls-1" d="M185.7,103.28l.54-.41c-.82.28-1.65.47-2.45.8C184.42,103.48,185.06,103.41,185.7,103.28Z"/><path class="cls-1" d="M180.1,104.28l.14-.33a10.51,10.51,0,0,0-1.42.52A7.91,7.91,0,0,1,180.1,104.28Z"/><path class="cls-1" d="M203.63,236.63l-.31,1.18C203.48,237.26,203.57,236.9,203.63,236.63Z"/><path class="cls-1" d="M206.74,228.33l-.06-.25C206.6,228.49,206.59,228.67,206.74,228.33Z"/><path class="cls-1" d="M172.79,121.85c1.69-.51,3.55-1,3.25-1.16-.21,0-.41,0-.61-.08A19.42,19.42,0,0,1,172.79,121.85Z"/><path class="cls-1" d="M235,161.88l0-.23.06-.28-.27-1.23.13,1.51Z"/><path class="cls-1" d="M236.39,163.13c0,.81-.15,1.63-.22,2.44A21.34,21.34,0,0,0,236.39,163.13Z"/><path class="cls-1" d="M172.74,273c-.5.19-1,.37-1.52.53C173.68,273.25,172.57,273.2,172.74,273Z"/><path class="cls-1" d="M139.46,142.05c-.16.37-.31.72-.45,1.06s-.22.68-.32,1c-.19.64-.35,1.22-.49,1.77l.87-2.41A3.43,3.43,0,0,0,139.46,142.05Z"/><path class="cls-1" d="M201.55,232.16c-.2.73-.25,1.06-.18,1.07C201.59,232.47,201.69,232,201.55,232.16Z"/><path class="cls-1" d="M137.35,150.47c.07-.28.13-.55.2-.84,0-.59.11-1.18.19-1.8s.28-1.26.46-2a17.17,17.17,0,0,0-.65,2.2A16.08,16.08,0,0,0,137.35,150.47Z"/><path class="cls-1" d="M214.46,226.26l.2-.36C214.63,225.85,214.56,226,214.46,226.26Z"/><path class="cls-1" d="M242.9,182.67c-.14.5-.46,1.29-.74,2A19.25,19.25,0,0,0,242.9,182.67Z"/><path class="cls-1" d="M159.56,113.84c.95-.73.13-.14,0,0Z"/><path class="cls-1" d="M165.07,111.67c-.2.16-.33.3-.32.38A1,1,0,0,1,165.07,111.67Z"/><path class="cls-1" d="M140.41,161.86l.07.07C140.28,161.65,140.32,161.69,140.41,161.86Z"/><path class="cls-1" d="M161.09,112.88c-.38.24-.81.52-1.28.84C160,113.59,160.42,113.34,161.09,112.88Z"/><path class="cls-1" d="M160.81,112.9c.34-.23.6-.43.86-.59C161.77,112.18,161.63,112.21,160.81,112.9Z"/><path class="cls-1" d="M158.23,114.86c.55-.41,1.07-.79,1.58-1.14-.2.13-.29.17-.25.12Z"/><path class="cls-1" d="M153.3,276.18l.19.15C154.53,276.79,154.09,276.55,153.3,276.18Z"/><path class="cls-1" d="M201.54,114.76h-.13l.17,0Z"/><path class="cls-1" d="M205.78,115.66a18.84,18.84,0,0,1-4.2-.86c.4.39.78.82,1.15,1.24l1.52-.23Z"/><path class="cls-1" d="M196.08,257.06l.91-1.26c.29-.43.56-.87.84-1.3-1.27,3.56-3.13,5.72-1.11,3.47-.16-.23.15-1,.68-2s1.16-2.41,1.72-3.8c1.17-2.77,1.94-5.65,1.52-6l.75-1.78c-.17.52-.13.62-.29,1.14,1.51-3.42.05-2.86,1.66-7.39.61-1.55,1.12-2.61.87-1.49.31-1.2.66-2.39,1-3.59.39-1,.46-.7.08.31.6-1.79,1.28-3.55,1.95-5.32v.05c.17-.81.64-2.6.9-3.47.72-1.26-.2.71.07.42l1-3c.76-1.06-.07,1.42-1,3.39,2.12-2.26.75-2.52,4.05-7.95-.41.9-.8,1.8-1.18,2.71a15.75,15.75,0,0,0,1.82-2.71,41.34,41.34,0,0,1,2.22-3.68c-.56.58-3.85,5.52-2.55,2.38a23,23,0,0,0,1.8-3.64c.32.15,1.12-1.45,2.2-3.41l.34.37a18.94,18.94,0,0,0,1.36-3.44c1.48-2.26,2.07-2.54,2.69-2.89,2.45-3.55-2.14,2.16.61-2.15,1.07-1.45,1.95-2.7,2.84-4s1.83-2.78,3-4.69c1.59-2.08,0,.54.62-.16.32-.72.66-1.41,1-2.15.31-.47.31-.26.31-.15.89-1.74-.28-.36,1.11-3.08a3.41,3.41,0,0,1,.55-1.28c.35-.58.83-1.32,1.31-2.17a17,17,0,0,0,2.28-5.71c.4-.86.14.52.4.3.32-1.28.49-2.2.62-2.93s.2-1.25.26-1.75a29.62,29.62,0,0,0,.2-4c.27-1.19.44-2.4.61-3.61-.52,2.66-.64-.79-1.16-3.69-.15.93-.27,1.72-.35,2.25,0-.83-.13-1.62-.19-2.49l-.06-2.17c.1-.56.25-.1.43.67,0-.32-.07-.62-.09-.85.14-1.66.46-.82.71.4-.12.56-.23,1.13-.35,1.68,0,.09,0,.21.07.28.3,1,.62,1.91.87,1.68a13.39,13.39,0,0,1-.18-1.55c.09.3.17.5.21.35a1.29,1.29,0,0,0-.05-.48c0-.12-.07-.51-.12-.85l.57-1.07-.2-.27a48.91,48.91,0,0,0,0-6.29,43,43,0,0,0-2.18-6.45,79.52,79.52,0,0,0-3.69-7.76c1.11,1.38.74.06,1.21-.07.4,1.94,2.45,5,3.27,8.59-.47-1.87-.15-1.53.06-1.07a43.08,43.08,0,0,0-2.65-6.06c.39,0-.28-1.42-1-3,0,.76-.67-.3-1.62-1.73a33.11,33.11,0,0,0-3.11-4.24c.06-.14.23-.13.62.26a13.1,13.1,0,0,1,1.91,2.53,8.79,8.79,0,0,0-2.53-3.26,13.6,13.6,0,0,1-2.84-2.91c.54.58.8.92,1.11,1.06-.71-.61-1.79-1.77-2.66-2.64s-1.47-1.51-1-1.25l.6.52a37.63,37.63,0,0,0-8.2-5.93c-3.06-1.64-5.85-2.5-6.32-2.32a2.61,2.61,0,0,1,1.27-.48,42.37,42.37,0,0,0-9.5-.46c.44-.21,0-.75-.12-1.2s.29-.85,2.49-.54a20,20,0,0,0-5.45-.81c.86.17,2,1,.87.94a16.42,16.42,0,0,0-2.76-.68l-1.18-.18-2.2-.26c1.29.11-.13.94-2.12,1.1.31-.15-.23-.83.51-1l-2.5.62c-.81.25-1.62.55-2.41.83,1.2-.37.1-.75-1.08-.78.54,0-4.31,1-5.56,1.58a19,19,0,0,1,2.12-.46c-5.5,1.69-5,2.88-9.79,5.52.48-.49.91-1.8-1.62-.39-.48.49-1.37,1.8-2.57,3.32-.63.73-1.21,1.66-1.91,2.54-.34.44-.71.89-1.09,1.33s-.7.94-1.08,1.41l-.81.5a31.19,31.19,0,0,0-2.13,3c.22-.54.57-1.32,1-2.25s1.1-1.87,1.74-2.92a33.53,33.53,0,0,1,4.39-5.36,10.43,10.43,0,0,1-1.35.73,5,5,0,0,0-.56.36l-1.25,1.1c-.51.29-.23-.07.26-.58.25-.26.54-.56.83-.83l.78-.62c-1.06.7-2,1.6-3,2.4a32.62,32.62,0,0,0-2.75,2.64c.15,0,0,.32-.3.76l-.54.73-.59.9c-.81,1.21-1.62,2.41-1.36,2.42.77-1.11,1.52-2.25,2.33-3.35s1.73-2.12,2.64-3.15c.57.16-2.43,4.23-5.32,8.52-.9,1-.21-1.33-.4-1.35a23.17,23.17,0,0,1-1.37,2.51c-.6,1.07-1.1,2.17-1.29,2.35l.82-2.13a21.38,21.38,0,0,0-1.67,3.62,20.72,20.72,0,0,1-1.69,4.09c-.39,1.15-1.7,3.34-1.48,3.62,1.15-1.8,3-1.58,3-.26a62,62,0,0,0-2.18,7.2c-.66,1.93-.75-3.07-1.31-1.44a5.8,5.8,0,0,1,.18,1.67c-.22,1.26-.42-.54-.54,2.21a4.06,4.06,0,0,1,0,2.24c-.08.35-.14.55-.1.46a7.15,7.15,0,0,0,.44-1.44,5.23,5.23,0,0,1-.57,2.44,3.79,3.79,0,0,1-1.72,1.73c.4-.06.14.57-.94,1a4.93,4.93,0,0,1-4.08-.29c.2,0-.21-.51-.35-.76a5.32,5.32,0,0,1-1.37-3.29,19.21,19.21,0,0,1,.09-3.15c.09-1,.08-2,.25-3.08s.34-2.16.52-3.41c.11-.45.91-2.75.86-1.71a17.88,17.88,0,0,1,.42-2.91c.28-.7.44-.81.41-.67s-.13.59-.22,1.05c-.2.93-.41,1.94.12.91a1.55,1.55,0,0,1,0-.77,7.45,7.45,0,0,1,.3-1.57c.33-1.21.73-2.65,1-3.72-.63.48-1.86,4.78-2.05,7-.31-.06-.4-1.07-.28-2.75.11-.82.33-1.79.59-2.89.13-.55.28-1.13.43-1.74s.44-1.2.68-1.83c1.63-4,1.13-1.51,1.36-2.23,1-1.75,1.64-3,2.1-4l1.21-2.44a24,24,0,0,1,1.16-2.19,30.8,30.8,0,0,1,2.46-2.94c2-1.8.68.43,1.27.16a34.48,34.48,0,0,1-2.71,3.25c-.74.92-1.4,1.74-2.06,2.71l1.78-2.27a33.6,33.6,0,0,1-2.49,3.92c.34-.43,1-1.3,1.86-2.49.44-.58.85-1.28,1.41-1.95l1.74-2.13.92-1.13,1-1.07,2.06-2.11c1.43-1.3,2.85-2.49,4.05-3.41.78-.75,2.19-2,1.39-1.59l-1.52,1.21c-1.63.82,2.66-2.55.59-1.19a29.29,29.29,0,0,1,7.56-5.4l.84.09a8.77,8.77,0,0,0-3.08,1.57,7.86,7.86,0,0,1,1.33-.82l1.91-.8a15.4,15.4,0,0,0,3.3-1.74,21.29,21.29,0,0,0-2.49.81,34.79,34.79,0,0,1,3.85-2.16,19.29,19.29,0,0,1,2.21-1c.78-.26,1.58-.5,2.39-.71-1.59,0-.72.25-3.17.47,1.07-.07-.92.71-2.76,1.45l-1.3.53a8,8,0,0,0-.92.49c-.42.27-.42.36.39.15a15.45,15.45,0,0,0-3.23,1.17l-.81.36-.83.45c-.58.3-1.23.62-2,.93.17.08,1.12-.36-1.31,1.08-.08.09-.28.33-.42.47l-.16.1.14-.08c-.09.09-.09.1.05,0a5,5,0,0,1,1.31-.6c-.51.48-1.61,1.44-2.75,2.37l-1.63,1.34c-.47.44-.86.84-1.11,1.12-1.28,1,.4-.59-.38-.12l-1.48,1.69c-.45-.17-3.5,2.71-.89-.22-.87.79-1.65,1.68-2.48,2.51-.39.35-.81.73-1.24,1.14s-.8.89-1.19,1.35c-.78.92-1.49,1.83-2,2.56-1,1.35-2.06,3.7-1.46,2.35a44.82,44.82,0,0,0-2.69,4.84h-.1c-2.61,4.84-4.09,10.44-5.65,16.52-.09.93-.18,1.86-.3,3s-.07,2.35-.17,3.9l-.32.61a10.07,10.07,0,0,0,1.33,5.43,5.92,5.92,0,0,0,2.4,2.11,4.39,4.39,0,0,0,1.8.48,6.08,6.08,0,0,0,3.88.26,6.26,6.26,0,0,0,2.75-1.48,7.06,7.06,0,0,0,1.78-2.72,10.57,10.57,0,0,0,.62-2.8c.07-.47.05-.82.08-1.23s0-.74,0-1.11c.08-1.34.22-2.54.35-3.48l-.37-.2c.17-1.3.49-2.56.7-3.91.09-.69.34-1.35.5-2.07s.36-1.48.61-2.26l-.39.07a21.38,21.38,0,0,1,.85-2.27l.56-1.28c.25-.42.5-.85.75-1.3a63.89,63.89,0,0,1,3.59-5.47,11.67,11.67,0,0,1-1.25,1.88c.45-.51.84-1.06,1.28-1.59s.9-1,1.32-1.59c.81-1.13,1.76-2.15,2.64-3.23l.67-.79.73-.73,1.46-1.4a10.52,10.52,0,0,1,1.55-1.22c.52-.36,1-.71,1.58-1a10.19,10.19,0,0,1,2.5-1.57l-.25.17.43-.25a15.81,15.81,0,0,1,1.54-.68,6.62,6.62,0,0,0-1.31.54c.77-.55,2.06-1.14,3.27-1.84l.68.06.28-.15c1.32-.36,1-.54.17-.54.64-.3,1.22-.6,1.66-.86a7.56,7.56,0,0,0,2.38-.6,6.84,6.84,0,0,1,2.7-.51,23.68,23.68,0,0,1,3.84-1c1.71-.28,3.42-.51,3.79-.87.05.08.47.08-.29.15,1.58,0,3.15.09,4.58,0,.21.17.42.32.63.5,1.15-.1,2.32-.2,3.49-.2,2,.62,2.81,1,.74.92a27.82,27.82,0,0,1,4.37.66l3.8.92-.3.2,2.52.89a7.14,7.14,0,0,1,2,1c.34.27.82.6,1.42,1l2,1.41a50.51,50.51,0,0,1,5.09,4.15,37.09,37.09,0,0,1,8.57,11.86c0-.94.42,0,.82,1.19s.83,2.66,1.22,2.69c0,.55.27,1.72-.36.47a25.92,25.92,0,0,1,1.52,5.1,39.65,39.65,0,0,0,1,4.21c-.14.52-.41-.9-.48-.44a6.5,6.5,0,0,1,.28,1.83c-.07.46-.25-.62-.42-1.29.53,4.41,1,4.88,1.63,5.2-.06.66-.12,1.21-.17,1.72a11.33,11.33,0,0,0,0,1.43,11.66,11.66,0,0,0,.37,2.11c-.22.81-.4,2.15-.49-.69a47.08,47.08,0,0,1-.33,5.46c-.23,2.23-.64,4.26-.43,4.39a18.58,18.58,0,0,0-.61,2.59c-.26.86-.48,1.51-.66,2.07s-.37,1-.54,1.47-.35.9-.57,1.44-.47,1.17-.84,2l.48-.86c-.06,1.51-1.08,2.76-2.45,5.27v-.1c-1.84,2.73-2.25,3.29-2.59,3.91a24,24,0,0,1-2.86,3.68l.51-.08c.24.94-3.82,4.46-5.64,7.88.3-.36.62-.7.93-1.05-.93,1.87-4,4.39-5.17,6.18-.29.37.28-.68.57-1.26-3.18,4.57,0,.86-1.91,4.49-.58.55-.11-1.18-1.46,1.26-.89,1.11-2.95,7.53-4.87,10.81.52-.69,1-1.36.39.44-1.11,2.7-3.74,7-4,9.76-.18.33-.27.45-.33.45-.31,1.07-.81,2.82-1.29,4.46a27.42,27.42,0,0,0-.85,3.89,7.24,7.24,0,0,0-1.29,2.79c-.19.66-.4,1.38-.61,2.13l-.3,1.13c-.12.37-.24.75-.35,1.12-.9,3-2.16,5.57-2.63,5.27a36.24,36.24,0,0,1-3.64,5.43l0-.21c-2.8,3.07-3.89,4.07-4.9,5.19-.85.5-.33,0-.3-.09a43.08,43.08,0,0,1-5.52,3c-.7.34-1.37.67-2.19,1s-1.73.77-3,1.26c-.2-.07-.41-.15-.61-.24a16.35,16.35,0,0,1-5.59.48,25.33,25.33,0,0,1-8.58-2c.07,0,.21,0,.64.13a13.2,13.2,0,0,1-4.32-2.82A16.24,16.24,0,0,1,153,260.9a26.69,26.69,0,0,1-1.62-4.14c-.19-.58-.35-1.09-.49-1.54a6.57,6.57,0,0,0-.48-1.17c-.09-.74-.25-1.59-.37-2.37a10.19,10.19,0,0,0-.62-2.41,6.4,6.4,0,0,1,.33,2.56c0,.25-.14,0-.25-.29-.18-.67-.64-1.73-.49-.48a12.42,12.42,0,0,0-1.08-3.47c-.21-.41-.38-.66-.32-.68s.35.18.78.86a3.66,3.66,0,0,1,.18.46c.28.19.25-.19-.09-.86a4.67,4.67,0,0,0-2.32-2c-2.32-1-4.69,0-4.69-.22a5.92,5.92,0,0,0-2.27,1.6,6.24,6.24,0,0,0-1.26,2.4,8.87,8.87,0,0,0-.33,2.52l.09,2.28a32.68,32.68,0,0,0,1.78,8.83,30.13,30.13,0,0,0,10.31,14.2l-.71-1.26a28.78,28.78,0,0,0,3.25,2.34c.85.63,1,1.15-1.45-.44a8.42,8.42,0,0,0,2.59,1.54,7.32,7.32,0,0,0,1.87.55c2.53,1.21,2,1.1,1,.86s-2.46-.87-1.67-.48,1.46.64,2.2.91l-.47-.25c.93.26,1.47.31,2.17.46s1.58.38,3.26.74c2.13.51,1.05.55,1.9.7,0,0,.28.12,1.32.18a33.66,33.66,0,0,0,5.12.15c-.69-.11-1.37-.23-2-.38,2.24-.19,4.73-.28,2.39-.54,1.73.31,6.38-.36,10.64-1.77,1.05-.39,2.11-.75,3.08-1.15l2.69-1.2c1.56-.85,2.78-1.43,3.23-1.7a71,71,0,0,0,7.63-6.38c-.72.61-1.44.66.84-1.62,0,.38.27.34.69,0a21.16,21.16,0,0,0,1.67-1.74c.65-.75,1.28-1.66,1.94-2.46a23.22,23.22,0,0,1,1.69-2.06c-.83.89.42-1.09,1.31-3.06a16,16,0,0,0,1-2.44c.15-.52.07-.59-.46.18,1.16-2.44.41,0,1.46-1.8,1-3.06,2.09-6.53,3.15-10s2.47-7,3.8-10.67c-.08-.17-.74,1-.32-.65.69-1.2,1.43-2.37,2.15-3.54.54-1.43-.15-1.6,1.41-4-.26.31-.67.78-.27-.17a192,192,0,0,1,11.52-20.06c1.08-1.63,2.22-3.17,3.38-4.79s2.31-3.25,3.39-4.92a107.85,107.85,0,0,0,6-10.4c-1.09,1.88-.52.56.08-1-.44,1-.29-.15-.54,0a65,65,0,0,0,2.61-6.12,23.07,23.07,0,0,1,.75-4c.17-.84.32-1.67.42-2.33a3.48,3.48,0,0,0,0-1.36c-.09.7-.16,1.39-.28,2.08,0-1.42-.5-.51-1.07.65s-1.28,2.57-1.57,2.29a16.21,16.21,0,0,1-1.76,5.47,46.25,46.25,0,0,0-2.65,6.68c-.6.93.18-.94-.22-.48a15.36,15.36,0,0,1-2.37,5.05l.09-.31a60.24,60.24,0,0,1-5.42,8.06c-1.86,2.39-3.79,4.89-6.31,8.7l.66-.38c-1.07,1.64-1.4,1.92-1.94,2.67-.71,2.19,2.91-4.68,2.34-2.61-1,.9-2.83,3.83-4.44,6.76s-3.1,5.81-3.86,6.42c-1.3,2.72.74-.63-.55,2.1l-.54.63-.06.81c-.84,1.78-1.5,2.59-1.7,2.58.22-.43.5-1.27.7-1.75-1.33,2.23-2.7,6.73-3.09,7.52l1.18-2.66c-1.44,3.87-3,8.17-4.27,12.52L206.47,250c-.64,2-1.29,3.94-2,5.73l.39-.47a21.43,21.43,0,0,1-1.33,3,15.76,15.76,0,0,1-1,1.77c-.35.51-.72,1-1.19,1.79s-1.16,1.64-2.07,3a2.12,2.12,0,0,0,.11-.21,20.34,20.34,0,0,1-2.94,3.73c.49-.66-.11-.17-.66.26s-1.09.77-.4,0c-1.08,1.13-1.8,1.8-2.25,2.27a11.25,11.25,0,0,0-.89.86l-.54.65a10.47,10.47,0,0,1-1.47,1.44l-1,.29a8.69,8.69,0,0,1-1.33,1.12c-.25.18-.56.38-1,.63a11.69,11.69,0,0,1-1.69.91c2.32-1.3-2.05.44.51-1-1.6.54-2.92,1.13-4.15,1.54-.61.22-1.16.47-1.7.66l-1.53.53c-.49.16-.94.33-1.38.46s-.88.22-1.3.3a7.88,7.88,0,0,1-2.4.16c-1.44.59,0,.55,1.6.21l2.18-.46c.53-.14.75-.2.34,0,1.5-.12-2.37,1.21-4.51,1.45a11.84,11.84,0,0,1-3.35-.17l-5.64-.77c.53.07.57,0,1.09.09-1.92-.43-3.9-.34-6.1-1.44-1.45,0-2.88-1.22-3.49-.87A29.22,29.22,0,0,0,160,279a36.61,36.61,0,0,1-4.2-1.15,15,15,0,0,1-4.93-2.93c.35.15,1.57.81,2.41,1.23a29.57,29.57,0,0,1-3.18-2.38c.35-.11,1.49.82,3,1.78A16.24,16.24,0,0,0,158,277.8c-.62-.35-1.91-.83-2.84-1.26s-1.49-.78-.7-.68a7.29,7.29,0,0,1-3.34-1.86c-1.13-1-2.3-2.1-3.72-3.24l.43-.06a12.21,12.21,0,0,1-1.91-2c.49.42,1,.81,1.51,1.18-2.16-1.95-2.91-4.65-4.17-7,.58,1.31.93,2,1.1,2.41s.14.47.05.47-.59-.37-.07.76a14.34,14.34,0,0,1-1.78-3.38,7.61,7.61,0,0,1-.39-1.94c-.07-.58-.11-1.19-.26-2.12s-.42-2.2-.7-4.16c.12,1.06.53,4,0,2.39a21,21,0,0,1-.24-2.44,10.38,10.38,0,0,1,.11-2c-.08-1.2-.11-1.75-.12-1.94s-.09,0-.17.21c-.14.43-.21,1.45-.35.34a9,9,0,0,0,.34-1.82,2.65,2.65,0,0,1,.83-1.78l.22.28a5.1,5.1,0,0,1,2-.65,2.26,2.26,0,0,0,.68-.22.84.84,0,0,1,.62-.12,2.35,2.35,0,0,1,1.59,1.09,2.63,2.63,0,0,0-1.57-.55,2.68,2.68,0,0,1,1.51,1.11,3.11,3.11,0,0,0-.57-.1,3.67,3.67,0,0,1,.81,1.22,7.06,7.06,0,0,1,.38,1.32c.07.47.08,1,.11,1.52,0,.28,0,.57,0,.89s0,.72,0,1.13c.1-.4.27-.3.45.27s.43,1.71.87,3.1c.19,1,0,.76,0,.77s0,.07.08.39a15.69,15.69,0,0,0,.78,1.85,6,6,0,0,1-1.5-3.61,2.45,2.45,0,0,1-.31-.53c-.12-.22-.23-.5-.3-.59a13.67,13.67,0,0,0,1,3.85,21.85,21.85,0,0,0,1.59,3,11.94,11.94,0,0,1-.76-1.55,20,20,0,0,0,4.06,4.84c.61.78,0,.33-.65-.17a23.33,23.33,0,0,0,3.2,2.49c-.55-.08-.72.36-2.84-1.41a20,20,0,0,0,5.19,3.3,9.69,9.69,0,0,0,1.38.9c.55.32,1,.56.59.47a16.36,16.36,0,0,0,5.9,1.17,43.94,43.94,0,0,0,6.69-.39,14.4,14.4,0,0,1,1.56-.46c1-.2,1.92-.47,2.88-.69s1.88-.54,2.82-.9a22.44,22.44,0,0,0,5.71-3.11c.85-.36,1.71-.75,2.55-1.16,1.45-1.27.61-.8,0-.55s-.89.32,1.4-1.79c1.55-1.55,1.86-1.82,2-1.75s.08.42.66-.11c1.32-1.84,3.15-5.16,5.27-8.57-.26.61-.53,1.14-.79,1.66Zm16-40.79a13.16,13.16,0,0,1-1.3,2.84C210.78,218.06,211.31,217.49,212.05,216.27Zm23.57-60.88a7.83,7.83,0,0,1,0,2.75c0-.4,0-.84,0-1.29S235.61,155.9,235.62,155.39ZM150.21,123l-.05.08C148.83,124.54,149.31,124,150.21,123Zm2.85-2.87c.24-.33.18-.34,0-.26a10.93,10.93,0,0,1-1.48,1.66A5.64,5.64,0,0,0,153.06,120.16Zm11.13,162.38-.78-.2C165.21,282.48,164.7,282.5,164.19,282.54Z"/><path class="cls-1" d="M236.23,163a.58.58,0,0,1-.18.37C236.12,163.67,236.19,163.68,236.23,163Z"/><path class="cls-1" d="M173,272.92l-.15,0-.13.09Z"/><path class="cls-1" d="M147.72,154.18a9.33,9.33,0,0,1,.36-1.58C148,152.54,147.88,152.91,147.72,154.18Z"/><path class="cls-1" d="M170.16,107.31c-.78.4-1.54.84-2.3,1.26a17.17,17.17,0,0,1,2.15-1C169.92,107.56,169.42,107.67,170.16,107.31Z"/><path class="cls-1" d="M192.25,104.92c.37,0,.78,0,1.14,0l-.09-.17C191.73,104.71,190.64,104.84,192.25,104.92Z"/><path class="cls-1" d="M172.85,107.52c.15.1.59,0,1.2-.25l1-.43,1.22-.41-.3.09c.19-.28-.17-.25-.79-.06A23.67,23.67,0,0,0,172.85,107.52Z"/><path class="cls-1" d="M176.68,106.3c.53-.17,1.06-.34,1.59-.48C178.42,105.6,177.61,106,176.68,106.3Z"/><path class="cls-1" d="M156.65,116.5c.69-.51.15-.65.6-.88C157.71,114.69,153.25,119.79,156.65,116.5Z"/><polygon class="cls-1" points="174.55 107.92 173.83 107.8 173.02 108.45 174.55 107.92"/><path class="cls-1" d="M162.11,114.14c.77-.55,1.63-1,2.43-1.45-.07,0,.22-.26.57-.51A17.24,17.24,0,0,0,162.11,114.14Z"/><path class="cls-1" d="M165.11,112.18,167,111A15.76,15.76,0,0,0,165.11,112.18Z"/><polygon class="cls-1" points="171.03 109.45 170.25 109.76 168.47 110.64 171.03 109.45"/><path class="cls-1" d="M142.87,137.21a28.11,28.11,0,0,0-1.1,2.89c0,.17.1.06.23-.22s.3-.75.53-1.28C142.75,137.9,143.17,136.83,142.87,137.21Z"/><path class="cls-1" d="M148.26,129.64a5.74,5.74,0,0,1-1,1l.34.33Z"/><path class="cls-1" d="M144,137.38c0,.34-1.46,4.13.08.65C144.13,137.7,145.28,134.89,144,137.38Z"/><polygon class="cls-1" points="149.68 149.57 149.53 150.34 150.3 150.37 149.68 149.57"/><path class="cls-1" d="M173.6,117.12c-1.76.76-1.91,1-2,1.14a.81.81,0,0,1-.33.32c-.23.14-.65.32-1.4.73-.34.31.28,0,.9-.32s1.28-.54.91-.27C173.62,117.55,174.75,117.12,173.6,117.12Z"/><path class="cls-1" d="M171.66,118.72a11.2,11.2,0,0,0-1,.62C171.24,119,171.51,118.84,171.66,118.72Z"/><path class="cls-1" d="M245.69,174.33c.2-.78.42-1.56.61-2.34-.16.5-.36,1-.54,1.48Z"/><path class="cls-1" d="M245.92,169.7l.55-.5-.26-1.48A9.51,9.51,0,0,1,245.92,169.7Z"/><path class="cls-1" d="M215.94,211.08l0-.21a7.33,7.33,0,0,0-1.1,1.65Z"/><polygon class="cls-1" points="203.16 239.54 203.33 239.03 202.61 239.86 203.16 239.54"/><path class="cls-1" d="M191.4,264.47a11.41,11.41,0,0,0,1.29-1.38c.42-.49.86-1,1.22-1.43a14.78,14.78,0,0,1-2.08,2.11C191.31,264.18,191.09,264.38,191.4,264.47Z"/><path class="cls-1" d="M366.65,199.41c.11-.11.23-.21.23-.26l.05-.07,0,0,.13.05.1,0,.07,0h.11a.49.49,0,0,1-.19,0,2.11,2.11,0,0,1-.35-.14c-.17-.1-.09-.08-.12-.06a.08.08,0,0,0,0,.05c-.05.07-.12.18-.19.26s-.16.24-.12.27S366.71,199.41,366.65,199.41Z"/><path class="cls-1" d="M360.88,221.73l-.57-.31a20.89,20.89,0,0,1,2,1.62,6.92,6.92,0,0,1,.8.86,2,2,0,0,1,.43.81C363.36,223.76,362.07,222.67,360.88,221.73Z"/><path class="cls-1" d="M343.4,245.49l.39-.65.25-.42.31-.39a9.49,9.49,0,0,1,1.56-1.54,48,48,0,0,1,4.1-2.82,23.22,23.22,0,0,0,2.09-1.51,6.44,6.44,0,0,0,1.56-1.74,1.67,1.67,0,0,0,.21-.45l.1-.23.14-.38a6.91,6.91,0,0,1,.72-1.38,11.63,11.63,0,0,1,1.81-2c.29-.22.59-.41.88-.61l1.91-2.12c-.71.59-1.49,1.21-2.26,1.9a15.59,15.59,0,0,0-2.29,2.41,5.94,5.94,0,0,0-.49.77,3.87,3.87,0,0,0-.41.87l-.17.46-.1.25-.09.26-.16.25a7.56,7.56,0,0,1-1.83,1.89c-1.52,1.15-3.24,2.11-4.77,3.19a14,14,0,0,0-2.09,1.8,7,7,0,0,0-.83,1.07C343.73,244.79,343.5,245.27,343.4,245.49Z"/><path class="cls-1" d="M336.41,263.07c-.07-.59.27.37.31.47,0-.05-.05-.13-.27-.8-.11-.36-.27-.83-.46-1.53a14.16,14.16,0,0,1-.53-2.92c0,.56,0,.67,0,1A24.07,24.07,0,0,0,336.41,263.07Z"/><path class="cls-1" d="M335.5,259.27c0-.28-.07-.51-.09-.7s0-.38,0-.5,0-.35,0-.34,0,.13,0,.31a5,5,0,0,0,0,.66C335.44,259.64,335.65,260.69,335.5,259.27Z"/><path class="cls-1" d="M334.86,269.56a12.35,12.35,0,0,0,2-.17,2,2,0,0,0,.36-.09.28.28,0,0,0,.08-.05.42.42,0,0,0,.18-.17.7.7,0,0,1-.23.06l-.73.06c-.78,0-1.39,0-.71-.07-1,.05-1.88,0-2.4,0a2.57,2.57,0,0,0-.78,0A8.56,8.56,0,0,0,334.86,269.56Z"/><path class="cls-1" d="M330.44,269.58c.82.07,1.64.12,2.45.17A12.53,12.53,0,0,0,330.44,269.58Z"/><path class="cls-1" d="M337.36,269.55l-.08,0-.23.05-.51.08a10.38,10.38,0,0,1-1.15.08c-.81,0-1.65,0-2.5,0a3.8,3.8,0,0,0,2.3.07c-.2.07-.06.08.39.05.21,0,.51-.05.85-.11.16,0,.36-.05.53-.09A2,2,0,0,0,337.36,269.55Z"/><path class="cls-1" d="M338,269a2.32,2.32,0,0,0,.08-.6,6.89,6.89,0,0,0,0-.78c-.06-.53-.12-1-.17-1.28s0-.35.08-.08.13.36.2.67.08.34.14.54.06.42.1.67a13.17,13.17,0,0,0-.54-2.58c-.23-.76-.45-1.38-.62-1.86-.36-1-.52-1.37-.52-1.19a17.6,17.6,0,0,0,.54,2.14c.17.61.36,1.31.54,2.1a9.38,9.38,0,0,1,.19,1.2,2.93,2.93,0,0,1,0,.58v.28A.61.61,0,0,0,338,269Z"/><path class="cls-1" d="M343.17,247.23a11.31,11.31,0,0,0,.83-1.53c.11-.25.29-.57.44-.86a7.64,7.64,0,0,1,.58-.79,12.6,12.6,0,0,1,2.35-2.27,11.56,11.56,0,0,0-3.07,3c-.1.2-.19.39-.29.58s-.14.31-.2.46c-.12.3-.26.55-.36.77C343.24,247,343.11,247.26,343.17,247.23Z"/><path class="cls-1" d="M323.17,284.46c.28.16-.8-1.46-.91-1.84q-1.18-1.37-2.34-2.79C321,281.4,323.15,284.16,323.17,284.46Z"/><path class="cls-1" d="M322.26,282.62l3.55,4C322.79,283,322.17,282.29,322.26,282.62Z"/><path class="cls-1" d="M329.52,270.07c1.45.1,2.9.2,4.31.22.71,0,1.4,0,2.07-.05q.5,0,1-.12l.43-.09a1.87,1.87,0,0,0,.25-.08,4.37,4.37,0,0,1-.87.19c-.36.05-.76.08-1.16.1-.8,0-1.65,0-2.49,0-1.7-.07-3.43-.22-5.18-.35Z"/><path class="cls-1" d="M332.7,297.51a.26.26,0,0,0,0-.11c0-.12-.11-.23-.19-.26s.18.14.16.24a.3.3,0,0,1-.1.2c-.11.07,0,.1-.53.22a1.76,1.76,0,0,0,.4-.1l.09-.05A.62.62,0,0,0,332.7,297.51Z"/><path class="cls-1" d="M320.9,298.05c1.29-.27.42-.28-.54-.19-.48,0-1,.14-1.18.17s0-.09.75-.31a8.27,8.27,0,0,0-1.93.7,5.71,5.71,0,0,0-1.9,1.56,11.35,11.35,0,0,0-1.58,2.74,34.63,34.63,0,0,0-1.47,4.56,31.66,31.66,0,0,1,1.76-4.73,14.5,14.5,0,0,1,.81-1.38,7.74,7.74,0,0,1,.51-.7,7.53,7.53,0,0,1,.73-.81,5.9,5.9,0,0,1,2.11-1.2A9.53,9.53,0,0,1,320.9,298.05Z"/><path class="cls-1" d="M311.59,311.17a16.31,16.31,0,0,0,1.46-3.89A23.8,23.8,0,0,1,311.59,311.17Z"/><path class="cls-1" d="M331.35,293.71c.09.18.22.45.5,1,.15.25.32.58.55,1l.36.67.2.37,0,.1v0l0,.07v-.08s0,0,0-.13l-.16-.44c-.11-.3-.24-.6-.37-.9C332.17,294.86,331.77,294.28,331.35,293.71Z"/><path class="cls-1" d="M332.46,295.3l0,.06c.29.45.53.86.74,1.23a4.78,4.78,0,0,1,.21.47.83.83,0,0,1,.06.58.81.81,0,0,0,0-.54,3.59,3.59,0,0,0-.19-.43C333.06,296.27,332.8,295.82,332.46,295.3Z"/><path class="cls-1" d="M331.05,293.29l.3.42A1.25,1.25,0,0,0,331.05,293.29Z"/><path class="cls-1" d="M317.4,274.68c.12.27.29.54.45.82s.27.44.42.66c.27.41.57.83.87,1.22.6.79,1.19,1.51,1.61,2,.85.93.94.93-.84-1.75-.74-.88-.62-.55-.68-.46s-.11,0-.36-.26a7.58,7.58,0,0,1-.52-.65c-.11-.16-.24-.33-.38-.55S317.59,275.07,317.4,274.68Z"/><path class="cls-1" d="M329.81,291c-1.14-1.48-2.31-2.95-3.49-4.42,0,.14.56,1-.5-.14C327.17,288,328.51,289.49,329.81,291Z"/><path class="cls-1" d="M331.55,293.13c-.56-.71-1.14-1.41-1.74-2.11l1.25,1.66Z"/><path class="cls-1" d="M315.47,302.58c-1.16,2.54-1.7,5.24-2.84,7.7a39.23,39.23,0,0,0,1.73-4.38,18.63,18.63,0,0,1,2.35-4.82c.07-.12.17-.31.25-.47s.22-.32.17-.32-.24.17-.5.49A8.46,8.46,0,0,0,315.47,302.58Z"/><path class="cls-1" d="M328,298.4h-.54C327.76,298.44,328,298.45,328,298.4Z"/><path class="cls-1" d="M291.32,329.42a2.48,2.48,0,0,0,.37-.17.93.93,0,0,1,.05-.1A3.74,3.74,0,0,1,291.32,329.42Z"/><path class="cls-1" d="M317.18,300.58a5.07,5.07,0,0,1,2-1.31,11.29,11.29,0,0,1,1.62-.43c1-.18,1.71-.26,2.44-.34a16.78,16.78,0,0,0-3.12.4,6.78,6.78,0,0,0-1.83.68,5,5,0,0,0-1.62,1.5C316.6,301.3,316.57,301.37,317.18,300.58Z"/><path class="cls-1" d="M306,316.23c1.06-.7,2.22-1.5,3.35-2.39C308.42,314.53,306.34,315.89,306,316.23Z"/><path class="cls-1" d="M326.61,298.3H327C326.17,298.21,326.27,298.25,326.61,298.3Z"/><path class="cls-1" d="M326.61,298.3c-1.26,0-2.28.09-3.33.2,1.57-.08,3-.06,4.15-.09C327.13,298.38,326.83,298.34,326.61,298.3Z"/><path class="cls-1" d="M284,334.53a16.36,16.36,0,0,1,3.9-1.76,32.93,32.93,0,0,0,3.57-1.51,21,21,0,0,0,3.46-2.34c1.95-1.91,2-2.49,1.24-2.17s-2.58,1.52-4.46,2.5c0,.1,0,.18-.52.55a17.25,17.25,0,0,1-4.19,2,19.85,19.85,0,0,0,5.54-2.26c1.79-1.25,2.91-2.16,1.25-.52a12.18,12.18,0,0,1-3.3,2.19,14.86,14.86,0,0,1-2,.73c-1,.29-1.56.35-3.3.87.89-.19.5,0-.46.47a21.65,21.65,0,0,0-3.69,2,3.56,3.56,0,0,1-2.31.51c-.6,0-.89,0-.59.17a4,4,0,0,0,3.12-.31,16.86,16.86,0,0,1,3-1.55C284.4,334.12,282.3,335.15,284,334.53Z"/><path class="cls-1" d="M299.33,322.26c.56-.56,1.13-1.11,1.72-1.65-2.07,1.78-3.46,3.12-6.05,5.3-2.59,2.64-3.17,3-3.26,3.24a35.63,35.63,0,0,0,4.07-3.5c1.33-1.29,2.66-2.65,4.08-4Z"/><path class="cls-1" d="M309.25,314.2c-1.09,1.36-5.51,4.75-2.57,3a27.17,27.17,0,0,0,4.07-3.44c.27-.3.48-.55.78-.9a9.49,9.49,0,0,0,1-1.5,6.81,6.81,0,0,1-.87,1.19c-.3.31-.61.6-.84.81-.47.44-.76.67-.89.77s.08-.13.47-.52a5.73,5.73,0,0,0,.81-.94,19.72,19.72,0,0,0-1.89,1.5,26.56,26.56,0,0,0,2.06-2,7.5,7.5,0,0,0,1.23-1.93,6.91,6.91,0,0,1-1.32,1.9,22.28,22.28,0,0,1-1.94,1.66l.2-.13,0,0h0c.36-.26.49-.33.09,0l-.15.14a1.87,1.87,0,0,1-.29.4c-2.43,1.86-.41.24.29-.4a1.33,1.33,0,0,0,.06-.12l0,0c-2.61,2.3-5.68,4.31-8.52,6.9.92-.79,2-1.64,3.33-2.65S307.35,315.78,309.25,314.2Z"/><path class="cls-1" d="M324,281.85c.2.28.17.28.17.32C324.67,282.69,324.86,282.88,324,281.85Z"/><path class="cls-1" d="M326.74,285.45a31.86,31.86,0,0,1-2.68-3c-1.33-1.81.13-.09.14-.25-1.05-1.15-3.58-4.14-.66-.2l.52.58a85.83,85.83,0,0,1,5.44,7.53A33.15,33.15,0,0,0,326.74,285.45Z"/><path class="cls-1" d="M326.65,299.3a42.93,42.93,0,0,0-4.65.16,10.29,10.29,0,0,0-2.42.52,4.77,4.77,0,0,0-1.22.64,3.5,3.5,0,0,0-.53.49l-.39.51a4.12,4.12,0,0,1,1-.94,4.22,4.22,0,0,1,1.24-.55,10.42,10.42,0,0,1,2.44-.32l-.26-.14c2.67-.17,3.67-.09,4.13-.17S326.32,299.36,326.65,299.3Z"/><path class="cls-1" d="M290.46,329.72a8.67,8.67,0,0,0,.71-.8,19.72,19.72,0,0,1-4.17,2.34A27.06,27.06,0,0,0,290.46,329.72Z"/><path class="cls-1" d="M280,334.08a1.91,1.91,0,0,0,0-.32.78.78,0,0,1-.54.12,5.11,5.11,0,0,1-1.14-.14A5.17,5.17,0,0,0,280,334.08Z"/><path class="cls-1" d="M35,109.84a10.94,10.94,0,0,1-.29-3.22A10,10,0,0,0,35,109.84Z"/><path class="cls-1" d="M28.77,118.49l-.48.12C29.18,118.58,29.54,118.53,28.77,118.49Z"/><path class="cls-1" d="M74.87,331.65c1.2-3.46,3.27-7.36,2.76-7l-.72,1C76,328.15,75.34,330.07,74.87,331.65Z"/><path class="cls-1" d="M21.06,227.57l1.11.28,2.65.12Z"/><path class="cls-1" d="M18.11,228.45a28.31,28.31,0,0,1-5.18-1.52A23.61,23.61,0,0,0,18.11,228.45Z"/><path class="cls-1" d="M76.64,30.8l2.51-1.92C75,31.43,76.89,30.47,76.64,30.8Z"/><path class="cls-1" d="M202.69,354.25c-1.5,3.08-2.51,5.53-3.59,7.32a37.21,37.21,0,0,0,2.42-4.45A14.74,14.74,0,0,0,202.69,354.25Z"/><path class="cls-1" d="M40,116.94a9.16,9.16,0,0,0-.3-2c-.1-.41-.18-.56-.21-.53C40,116.11,39.93,117.39,40,116.94Z"/><path class="cls-1" d="M195.14,360.57c.3.46.62.9,1,1.31.19.2.38.4.57.57a4.76,4.76,0,0,0,.47.39.93.93,0,0,0,.6.19.88.88,0,0,0,.53-.29l.11-.14a2.62,2.62,0,0,0,.24-.3c.16-.22.32-.47.49-.73-.16.22-.32.45-.48.65a2.9,2.9,0,0,1-.39.44.92.92,0,0,1-.51.23.76.76,0,0,1-.36-.11l-.16-.1s-.23-.17-.35-.29A19.18,19.18,0,0,1,195.14,360.57Z"/><path class="cls-1" d="M333,105.89c.18.07.44.13.64.19S333.35,106,333,105.89Z"/><path class="cls-1" d="M345,181.43c.65-1,1.86-2.4,2.78-3.68C347.3,178.39,346.44,179.34,345,181.43Z"/><path class="cls-1" d="M240.89,339.9Z"/><path class="cls-1" d="M252.71,342.41a3,3,0,0,0-1-.08A5.07,5.07,0,0,1,252.71,342.41Z"/><path class="cls-1" d="M174.21,357.34l-.21,0a2.5,2.5,0,0,0,.54-.06S174.42,357.34,174.21,357.34Z"/><path class="cls-1" d="M244.14,339.58a4.71,4.71,0,0,0-1,.14l-.53.14-.14,0h-.06l-.1,0a1.68,1.68,0,0,1-.47.06l-.25,0-.3,0,.32,0,.41,0,.54-.11A6.92,6.92,0,0,1,244.14,339.58Z"/><path class="cls-1" d="M243.43,339.52a9.23,9.23,0,0,1,2.83,0c.19,0,.21,0-.16-.07a5.15,5.15,0,0,0-.89-.07A8.15,8.15,0,0,0,243.43,339.52Z"/><path class="cls-1" d="M238,339.07a13.27,13.27,0,0,0,3.33.91c-.33,0-.51-.1-.4-.08A13,13,0,0,1,238,339.07Z"/><path class="cls-1" d="M206.46,12.12c.15-.11.3-.24.47-.35a16,16,0,0,1,1.33-1A7.68,7.68,0,0,0,206.46,12.12Z"/><path class="cls-1" d="M43.53,312.5l.2.2-.24-.29Z"/><path class="cls-1" d="M38.69,304.17a33,33,0,0,0,2.08,4.76,9.82,9.82,0,0,0,.67,1l.37.48.33.39,1.35,1.6c-.43-1-.86-1.87-1.27-2.9A17.41,17.41,0,0,1,38.69,304.17Z"/><path class="cls-1" d="M60,75.87l-.2.54c-.08.15-.17.28-.24.43a3.4,3.4,0,0,0-.25.31l-.55.59c-.75.81-1.46,1.64-2.15,2.47.54-.82,1.09-1.6,1.64-2.32.25-.35.59-.75.77-1a1,1,0,0,1,.11-.21,2.18,2.18,0,0,0,.11-.27,8.21,8.21,0,0,0,.34-2.59c0-.71,0-1.1-.08-.9s-.12,1-.37,2.1a.51.51,0,0,1,.11.32,2.19,2.19,0,0,1,0,.62,2.86,2.86,0,0,1-.17.67c-.07.09-.05.12-.17.3l-.55.7c-1.55,1.94-3.38,4.53-5.14,7l-1.32,1.82a2.62,2.62,0,0,1-.85.57,15.13,15.13,0,0,1-3.28.87c-2.24.38-4,.83-4.21,1.15a13.25,13.25,0,0,0-2.35.59,10.79,10.79,0,0,0-1.25.59,5.74,5.74,0,0,0-1.23,1,3.8,3.8,0,0,1,.83-.78,3.6,3.6,0,0,1,.65-.46,7.61,7.61,0,0,1,1.5-.7A8.69,8.69,0,0,0,40,90a5.5,5.5,0,0,0-1.43,1.19,5.4,5.4,0,0,0-.84,1.24,11,11,0,0,0-.45,1,10.51,10.51,0,0,0-.51,3.25c0,1,0,2,0,3.36a14.53,14.53,0,0,1-.23,2.31,7.23,7.23,0,0,1-.34,1.31,3.53,3.53,0,0,1-.28.67l-.18.38c-.09.2-.18.41-.26.61a7.37,7.37,0,0,0-.39,3.06c.06.82.16,1.45.22,1.86.13.82,0,.89-.29-.43.34,1.45.79,2.75,1.16,4a12.1,12.1,0,0,1,.64,3.46c-.07.58-.25.71-.25.63a.7.7,0,0,1,0-.28,1.62,1.62,0,0,0,0-.21,3.21,3.21,0,0,0,0-.57,3.41,3.41,0,0,1,0,.56,1.12,1.12,0,0,1-.05.27.74.74,0,0,1-.35.51,1.51,1.51,0,0,1-.29.13c-.11,0-.18,0-.42.1a12.79,12.79,0,0,1-1.34.18,51.81,51.81,0,0,1-6,0l.09,0c-1.75.09-5.76.06-7.74.09-3.18-.28,1.6,0,.79-.2a50.76,50.76,0,0,0-7,.25c-.75,0-1,0-.73-.1a7,7,0,0,1,1.75-.33,43.67,43.67,0,0,1,6.8,0,20,20,0,0,0-7.19-.42,17.77,17.77,0,0,0-2.22.39A6.17,6.17,0,0,0,11,119a3.9,3.9,0,0,0-.84.64,1.64,1.64,0,0,0-.33.44,3.06,3.06,0,0,0-.26.51,11.25,11.25,0,0,0-.39,1.16c0,.18-.07.36-.11.55a4.17,4.17,0,0,0-.08.49,15.45,15.45,0,0,0-.14,2.08c0,1.43.09,3,.15,4.68a32.44,32.44,0,0,1-.29-6.9c-.63,2.47-.35,5-.24,7.54a14,14,0,0,1-.18,3.65l-.11.37-.13.3a1.68,1.68,0,0,1-.17.32,3,3,0,0,1-.23.35,11.39,11.39,0,0,1-1.42,1.62A11.8,11.8,0,0,0,7.8,135a4.91,4.91,0,0,0,.35-.54l.15-.27.12-.34a8.56,8.56,0,0,0,.34-1.57c.15-1.08.18-2,.28-2.23s.27.4.33,2.09a8,8,0,0,1-.6,2.91A17.8,17.8,0,0,1,6,138.76c-.13-.1-.77.43-1.8,1.45a23,23,0,0,0-1.78,2,12.24,12.24,0,0,0-1,1.43l-.24.41c-.09.19-.17.39-.26.58a8.24,8.24,0,0,0-.43,1.24,2.42,2.42,0,0,0-.05.76v.4a2.79,2.79,0,0,0,.1.39A2.58,2.58,0,0,1,0,147a4.79,4.79,0,0,0,1.4,2.6c.14.16.33.3.48.45l.33.28.58.41a13.84,13.84,0,0,0,1.68,1c.9.45,1.56.72,3,1.41,5.25,2.9,6.18,3.7,7.27,4.63,8.27,4.41-5.45-3.54,4.4,1.55,1.44.83,2.78,1.63,3.94,2.45.29.2.57.41.82.62a4,4,0,0,1,.37.3c.1.1.25.22.28.25a.8.8,0,0,1,.31.76c0,.1,0,.11-.05.31s-.07.38-.12.58c-.08.38-.19.77-.3,1.17-.22.79-.49,1.62-.78,2.51a23.16,23.16,0,0,0-1.35,6.24,2.25,2.25,0,0,1-.47,1.2A6.24,6.24,0,0,1,20.4,177c-.16.1,0-.07.18-.3.42-.47.94-1.18.36-.64a26.83,26.83,0,0,1-3.32,3.19c-1,.71-.73.39-.6.22-1.65,1.33-1.64,1.53-1.87,1.87a11.71,11.71,0,0,1-.74.92,10.22,10.22,0,0,0-.87,1.09,5.3,5.3,0,0,0-1,2.29c0,.13,0,.3,0,.51a1.45,1.45,0,0,1,0,.36,2.48,2.48,0,0,1-.43,1,13.08,13.08,0,0,1-2.83,2.78c-1.27,1-2.78,2.05-4.29,3.32a15.29,15.29,0,0,0-2.21,2.2,6.5,6.5,0,0,0-.94,1.5,4.31,4.31,0,0,0-.37,2A19.27,19.27,0,0,0,2.23,203c.3,2-.5-.89-.55-.25.7,2.78,1.33,4.62,1.73,6.08s.66,2.46.86,3.48c.51,2.45,1.71,4.2,4.26,7.83a14.75,14.75,0,0,1,1.59,3.94,5.34,5.34,0,0,0,.16.53,1.69,1.69,0,0,0,.23.49,3.33,3.33,0,0,0,.71.83,6.93,6.93,0,0,0,1.71,1,7.78,7.78,0,0,1-.93-.51,4.11,4.11,0,0,1-.67-.53c-.33-.31-.41-.51-.39-.55s.19.07.46.25a6.78,6.78,0,0,0,1.2.57,40.25,40.25,0,0,0,8.46,1.41c-2-.47-3.62-.92-4.71-1.24,3.28.62,6.63.89,10,1.46,1.2.34.15.26-1.51.18l1.84.23c1.76.46,2.13.74,1.78.75s-1.46-.11-2.75-.21c-1.18-.32-2.37-.61-3.52-.89-2.5-.08-4.88-.18-4.42.18.67.07,1.94.23,3.31.42-.65,0-1.08,0-.79.08a29.87,29.87,0,0,0,3,.29c.72.3,1.44.6,2.13.92l.58-.11a23.88,23.88,0,0,1,3,.85,4.07,4.07,0,0,1,.81.4,1.19,1.19,0,0,1,.52.61,1,1,0,0,1-.2.77,4.34,4.34,0,0,1-.51.61,26,26,0,0,1-2.31,2.07c-3.33,3.17-6.84,5.94-10.62,9.46-.47.44-1,.9-1.42,1.39a20.24,20.24,0,0,0-1.41,1.62,4.87,4.87,0,0,0-1.07,2.11,2,2,0,0,0,1.11,2,7.48,7.48,0,0,0,2.35.9c.79.18,1.6.3,2.44.41,1.67.21,3.43.34,5.3.51-3.74,0-.86.55-1.11,1-1-.23-2.24-.4-3.65-.59-.71-.1-1.47-.21-2.26-.36-.4-.08-.82-.16-1.24-.27a12.74,12.74,0,0,1-1.56-.55,3.42,3.42,0,0,1-2.14-2.48,4.83,4.83,0,0,1,1.42-3.31c.23-.29.38-.43.55-.63s.35-.36.53-.54c.35-.35.71-.68,1.08-1,.74-.65,1.5-1.28,2.28-1.88a21.28,21.28,0,0,1-2.45,1.81c-.17.06.16-.33.54-.7a27.12,27.12,0,0,0-2.62,2.63c-1.11,1.32-2.06,2.92-1.37,4.46a3.87,3.87,0,0,0,1.67,1.68,7.32,7.32,0,0,0,1.14.51c.38.12.82.27,1.09.32a27.28,27.28,0,0,0,3.58.55c-.18.17.56.34,1.79.52s2.94.35,4.67.66c-.76-.32-.17-.39,1.15-.28a15.25,15.25,0,0,1,2.39.43,5.48,5.48,0,0,1,1.25.47,1.73,1.73,0,0,1,.79.77,5.64,5.64,0,0,0,2,2.09,13.87,13.87,0,0,0,2.31,1.16c1.52.59,2.89,1,3.93,1.37.11.18-.15.2-1.24-.1-.55-.16-1.31-.38-2.38-.78a14.43,14.43,0,0,1-1.83-.8,7.71,7.71,0,0,1-2.23-1.64,8.89,8.89,0,0,0,3.64,2.43,29.25,29.25,0,0,0,3,.95,25.54,25.54,0,0,1,2.51.8,7.6,7.6,0,0,1,1.1.57,2.59,2.59,0,0,1,.78.7,1.33,1.33,0,0,1,0,1.44,8.83,8.83,0,0,1-.49.89c-.2.33-.46.66-.72,1a13.27,13.27,0,0,0,1-1.61,1.38,1.38,0,0,0,.2-.8,2,2,0,0,1-.12.5,6.79,6.79,0,0,1-.29.66,16.37,16.37,0,0,1-1,1.63,37,37,0,0,1-2.57,3.24c-1.7,1.94-3,3.24-2.33,2.33l1.09-1.26c-1.63,1.86-3.7,4.12-5.86,6.64-1.07,1.27-2.16,2.6-3.18,4.06a14.66,14.66,0,0,0-1.41,2.43,5.41,5.41,0,0,0-.45,1.71,2.66,2.66,0,0,0,.49,1.64c.2.29.44.63.62.84s.36.44.54.63c.36.42.74.79,1.12,1.16.75.72,1.51,1.37,2.23,2,1.45,1.22,2.78,2.28,3.8,3.28a18.38,18.38,0,0,1,1.33,1.42,10.56,10.56,0,0,1,.82,1.24c.43.78.69,1.34.85,1.53a10.68,10.68,0,0,1-1.57-1.5,21.42,21.42,0,0,1,2,4.28,36.44,36.44,0,0,0,2,4.67,9.09,9.09,0,0,0,1.51,2.07c.6.59,1.22,1.14,1.84,1.7q1.85,1.68,3.74,3.31c-1.59-.93,2,5-4.49-1.7.87,1,1.84,2.15,3.11,3.52.64.69,1.35,1.43,2.16,2.24l1.29,1.27a3.56,3.56,0,0,0,2.53,1.33,2.73,2.73,0,0,1-1-.25,3.83,3.83,0,0,1-.8-.69,5.58,5.58,0,0,1-.55-.7,4.48,4.48,0,0,1-.28-.49c-.27-.56-.18-.73.71.13.14.18.33.38.49.55l.24.27a1.71,1.71,0,0,1,.27.2,2.29,2.29,0,0,0,1.18.34,4.75,4.75,0,0,0,1.08-.05c.33-.06.57-.09.81-.15a16.55,16.55,0,0,0,2.23-.7c1.33-.52,2.82-1.16,6.62-3-2.44,1.23-.2-1,3.52-3.1-.51.45.73.56-.58,1.42a92.38,92.38,0,0,1,8.95-5.65c-1.17.57-1.19.8-.66.77.27,0,.67-.09,1.14-.17a5.21,5.21,0,0,1,.85,0c-.12,0,.08-.11.49-.15a.65.65,0,0,1,.66.28,1.68,1.68,0,0,1,.09.93,20.45,20.45,0,0,1-.83,3.27l-1,3c.57-1.38,1.11-2.76,1.57-4.14-.84,2.79-1.61,4.9-2.16,6.68s-.95,3.22-1.32,4.67-.74,2.9-1.21,4.71c-.23.91-.47,1.91-.69,3.07a11.74,11.74,0,0,0-.21,1.91,2.15,2.15,0,0,0,.78,2c-.62-.26-.94-1-1.19-1.14s-.23,0-.24.31a2,2,0,0,0,.76,1.65,4,4,0,0,0,1.25.63,6.56,6.56,0,0,0,2,.21,17.31,17.31,0,0,0,3.34-1.14c1.39-.59,3-1.39,4.87-2.19a18.23,18.23,0,0,1,3.08-1.05,7,7,0,0,1,1.81-.2,4,4,0,0,1,1,.16,4.63,4.63,0,0,1,.92.43,73.1,73.1,0,0,1,6.43,4.22c.49.46,1,.91,1.48,1.35a49.41,49.41,0,0,0,7.17,3.46c-1.21-.37-3-.93-4.94-1.74a39.84,39.84,0,0,1-6.33-3.46c-1.1-.69-2.2-1.39-3.31-2-.55-.32-1.15-.66-1.64-.9a3.07,3.07,0,0,0-1.47-.16,14.19,14.19,0,0,0-3.23.82c-1,.36-2,.75-2.93,1.1a23,23,0,0,1,3-.66l1.26-.25a11,11,0,0,1,1.18-.17,4.18,4.18,0,0,1,1.42.05c.22.13.18.21.09.19s-.29,0-.81,0a17.48,17.48,0,0,0-3.79.8,17,17,0,0,1,3.4-.66c1.17,0,.88,0,2.24.91,2,1.45,4,3.16,6.25,4.77-.07-.21.54.12,1.55.68.5.28,1.13.62,1.8.95s1.36.64,2.06,1c2.84,1.26,5.67,2.34,5.48,2a86.47,86.47,0,0,1-7.95-3.52A70.19,70.19,0,0,1,92,337.48c-.06-.21.44,0,1.38.51s2.31,1.41,4,2.44c3.52,2.16,8.66,4,13.72,6.28a3.19,3.19,0,0,1,.45.28c.31.27.14.31-.14.3a21.72,21.72,0,0,0-2.46-.37c.35.11,1.21.44,2.23.86a1.86,1.86,0,0,1,.57.4,5.71,5.71,0,0,1,.61.89,14.08,14.08,0,0,1,1,2.39,32,32,0,0,1,.94,3.48c-.5-1.5-1-3-1.54-4.33.69,2.2,1.22,4.28,1.94,6.35a27.93,27.93,0,0,0,1.27,3.2,9.81,9.81,0,0,0,1,1.72,4.66,4.66,0,0,0,2,1.57,9.75,9.75,0,0,0,4.73.19c1.37-.26,3.3-.72,4.87-1.06a22,22,0,0,0,2.92-.64c-1.82,0-3.25-.11-3.76-.57s-.24-1.12,1.1-1.71a18.38,18.38,0,0,1,2.65-.42,7.25,7.25,0,0,1,2.57.24,14,14,0,0,0,2.44.54,49.56,49.56,0,0,0,5.23.22,23.7,23.7,0,0,1,3.71.29c2.09.51.45.47-1.17.69s-3.34.57-1.57.7a11.67,11.67,0,0,1,3.31-.22c1.23.26.91.35,1,.45s.15.1.54.27a14.27,14.27,0,0,1,2.23,1.22,5.91,5.91,0,0,1,1.8,1l2.5,1.83a4.71,4.71,0,0,0,1,.66c-.21-.15-1.13-.79-2.88-2.28a23,23,0,0,0,5.38,3.27,6.11,6.11,0,0,0,1.46.36,3.74,3.74,0,0,0,1.86-.31,11.9,11.9,0,0,0,3.48-2.63c-.91.65.05-.62,1.53-2.65a38.79,38.79,0,0,1,2.71-3.35,12,12,0,0,1,1.74-1.59,4.19,4.19,0,0,1,2.2-.91c-.19.07.11.14.44.2a4.89,4.89,0,0,0,.59.09l.56,0a12.2,12.2,0,0,0,3.83-1.67c1.13-.68,2.18-1.38,3.24-1.95a9,9,0,0,1,3.24-1.14,3.31,3.31,0,0,1,2.85,1.16,34.61,34.61,0,0,1,4,5.34c.64,1,1.3,2,2,3a11.69,11.69,0,0,0,2.82,2.91,3.07,3.07,0,0,0,1.72.62,3.94,3.94,0,0,0,2.47-1.36c.43-.45.6-.56.11.19,1-1.43,1.55-2.83,2.89-5.95,1.5-2.93.78-1.19,0,.74s-1.89,4.06-.48,1.87a46.48,46.48,0,0,1,1.73-4.77,38.7,38.7,0,0,1,1.69-3.82c.71-1.26,1.27-2.21,2.26-2.51a.44.44,0,0,1,.19,0,.31.31,0,0,0-.19,0c-.4-.07-1.15.32-1.78,1.19a17.09,17.09,0,0,0-2,3.65c-1.23,2.84-2.33,6.14-3.54,8.27-.23-.14.38-1.66,1.23-4.29.44-1.31,1-2.9,1.67-4.71a23.59,23.59,0,0,1,1.32-2.84c.14-.24.29-.49.46-.73a8.23,8.23,0,0,1,.65-.81,3.7,3.7,0,0,1,1.81-1.11c1.52-.37,3.21,1.37,4.1,2.4a29.58,29.58,0,0,1,2.66,3.74c.43.72.52,1,.49,1s-.66-.6-.19.05c2.25,3.66,3.85,6.25,5.28,8.12A14.46,14.46,0,0,0,222.6,366a2.47,2.47,0,0,0,1.42.76.73.73,0,0,0,.65-.34,2.33,2.33,0,0,0,.32-.7,6.74,6.74,0,0,0,.17-.75l.06-.38c0-.13.07-.42.09-.64.29-1.91.5-4.38.81-7.9.71-5.61.82-.21,1.18-1.45a64,64,0,0,1-.82,9.06,11.5,11.5,0,0,1-1,3.2,1.36,1.36,0,0,1-1.17.86A2.47,2.47,0,0,1,223,367a2.81,2.81,0,0,0,1.15.72,1.1,1.1,0,0,0,1.19-.42,6.77,6.77,0,0,0,1-2.56,10,10,0,0,1-.47,2,2.88,2.88,0,0,1-.66,1.09,1.21,1.21,0,0,1-1.25.23,5.81,5.81,0,0,1-2.08-1.68,17,17,0,0,1-1.41-1.89,17.44,17.44,0,0,0,1.24,1.77,10.67,10.67,0,0,0,1.05,1.13,3.24,3.24,0,0,0,1.54.89,1.93,1.93,0,0,0,.48,0,1.51,1.51,0,0,0,.44-.22,2.35,2.35,0,0,0,.64-.81,8.52,8.52,0,0,0,.71-2.12,38.69,38.69,0,0,0,.67-4.84c.3-3.41.43-7.13.69-10.82.13-1.84.28-3.69.57-5.46a15.17,15.17,0,0,1,.6-2.58,4.69,4.69,0,0,1,.54-1.1,1.31,1.31,0,0,1,1-.61,6.6,6.6,0,0,1,3,.21,23.86,23.86,0,0,1,2.67.95,26,26,0,0,0,3.74,1c1.07.13,1.59,0,.67-.12a19.46,19.46,0,0,1-4-1.13c-1.75-.84.14-.22,1.83.28a10.7,10.7,0,0,0,1.92.38c.28,0,.05,0-1.16-.39a8.42,8.42,0,0,0,1.95.28h.48l.46-.07a1.6,1.6,0,0,0,.43-.11l.49-.16a6.75,6.75,0,0,1,2.62-.35,14.17,14.17,0,0,1,2.53.38c1.65.36,3.27.91,4.9,1.22a7.52,7.52,0,0,0,2.34.13,3.1,3.1,0,0,0,1.88-1l.59-.33.56-.43a7.79,7.79,0,0,1-1.86,1.68,6.68,6.68,0,0,1-3.82.22,9.71,9.71,0,0,0,3,.13,4.42,4.42,0,0,0,2.9-2.31,27.42,27.42,0,0,0,1.88-4c.52-1.29,1-2.46,1.42-3.35a35.93,35.93,0,0,0-2.69,5c.44-1.14.84-2.41,1.41-3.74a8.44,8.44,0,0,1,3.07-4,4.33,4.33,0,0,1,2-.54,7.53,7.53,0,0,1,1.75.14,17.88,17.88,0,0,1,3,.93c1.86.74,3.6,1.63,5.3,2.43a15,15,0,0,0-2.25-1.28c-.59-.25-1.27-.66-3.65-1.92.88.51.55.45-.47.11a19.78,19.78,0,0,0-2.15-.58,8.53,8.53,0,0,0-1.61-.13,4.83,4.83,0,0,0-2,.53,8.26,8.26,0,0,0-3,3.3,25.08,25.08,0,0,0-1.24,2.74c-.52,1.36-.58,1.74.35,0-.64,1.14-1.15,2.18-1.68,3.1a6.76,6.76,0,0,1-1.65,2.08,3.17,3.17,0,0,1-2.32.3,21.14,21.14,0,0,1-4-1.24c.08.1.64.34.46.33a5.56,5.56,0,0,1-1-.24,28.21,28.21,0,0,0-3.28-.75c-.3,0-1.09,0-1.59.05-.23,0-.32,0-.53,0l.44,0c-.35.06-.37.05.15,0a10,10,0,0,1,3.39.68,16,16,0,0,0-3.63-.24,6.45,6.45,0,0,0-1.3.25l-.61.19-.35.11a4.75,4.75,0,0,1-1.77,0,26.89,26.89,0,0,1-4.06-1.22,15.64,15.64,0,0,0-3.43-.9,11.43,11.43,0,0,0-1.47-.18c-.06,0,.23-.08.55-.06.67,0,1.55.08.46-.17a7.68,7.68,0,0,0-1.17,0,6.52,6.52,0,0,0-1.37.25c-1.37.32-2,1.93-2.29,3a5.43,5.43,0,0,0-.61,1.55c-.23.79-.41,1.69-.55,2.32s-.23,1-.25.63a20,20,0,0,1,.38-3.55,56.17,56.17,0,0,0-.88,7.63c-.47,4.37-.73,10.36-1.16,13.77-.05.27-.11.56-.17.85a3.38,3.38,0,0,1-.09.41c0,.27-.23.59-.47.59a.85.85,0,0,1-.39-.1s0,0,.25,0a2,2,0,0,1-.73-.55l-.1-.11-.21-.25c-.14-.16-.28-.35-.42-.53-.28-.35-.55-.73-.82-1.1-1.08-1.52-2.11-3.13-3.15-4.76l0-.13c-1.11-1.82-2.25-3.67-3.55-5.51a25.68,25.68,0,0,0-2.19-2.76,9.19,9.19,0,0,0-1.84-1.54,3.82,3.82,0,0,0-2.43-.58,4.52,4.52,0,0,0-1.65.72,7.16,7.16,0,0,0-1.33,1.31,15.68,15.68,0,0,0-1.43,2.34c-.78,1.53-1.4,3.05-2,4.55s-1.27,3-2,4.37a10.81,10.81,0,0,1-1.19,1.82,1.24,1.24,0,0,1-.9.54,1.06,1.06,0,0,1-.67-.32,5.37,5.37,0,0,1-.45-.44,7.05,7.05,0,0,1-.54-.63,45.17,45.17,0,0,1-3.55-4.74c-.66-.94-1.36-2-2.26-3.11a17.24,17.24,0,0,0-1.58-1.76,9.3,9.3,0,0,0-1.13-.9,5.35,5.35,0,0,0-1.7-.72,7.83,7.83,0,0,0-1.92-.27c-3.38.6-6.44,3.36-9,4.41a5.15,5.15,0,0,1-1.6.41h-.31a6.46,6.46,0,0,0-1,0,5.51,5.51,0,0,0-1.6.48,8.66,8.66,0,0,0-2.82,2.1,36.21,36.21,0,0,0-4.62,4.31,22.86,22.86,0,0,1-2.76,2.53,2.52,2.52,0,0,1-.9.48,3.52,3.52,0,0,1-1.09-.3,18.07,18.07,0,0,1-3.58-2.24,39.18,39.18,0,0,0-4.19-2.84,11.14,11.14,0,0,0-2.64-1.07,14.36,14.36,0,0,0-2.49-.36c-1.53-.11-2.84-.06-3.94-.05l-.32.4c-1.5.05-2.93.12-4.26,0a10.49,10.49,0,0,1-1.91-.25l-.47-.1-.8-.16a8.89,8.89,0,0,0-1.53-.07A20.75,20.75,0,0,0,127,359.3a34.71,34.71,0,0,1-4.8,1.36c.15.1.29.2.44.28a5.38,5.38,0,0,1-2.64,0,1.7,1.7,0,0,1-.84-.73,7.88,7.88,0,0,1-.79-1.54,34.37,34.37,0,0,1-1.18-4c-.36-1.47-.71-3-1.22-4.65a15.39,15.39,0,0,0-1-2.52,7.49,7.49,0,0,0-.87-1.32,5,5,0,0,0-1.5-1.16c-1.6-.75-3.17-1.43-4.76-2.13a36.2,36.2,0,0,1,4.68,2.05c-2.72-1.45-5.57-2.68-8.33-4-1.37-.66-2.76-1.33-4-2.06s-2.5-1.63-3.75-2.54-2.51-1.85-3.83-2.75l-1-.66-.52-.32a4.73,4.73,0,0,0-.78-.39,6.47,6.47,0,0,0-2.94-.28,28.47,28.47,0,0,0-4.6,1c-1.42.4-2.76.8-4,1.08a14.26,14.26,0,0,1-2.85.65l-.42,0-.3,0a1.1,1.1,0,0,1-.52-.21.59.59,0,0,1-.2-.24.49.49,0,0,0,.22.19.56.56,0,0,1-.26-.37,1.92,1.92,0,0,1,.08-.76c0-.14.1-.49.18-.75s.15-.57.25-.88a12.62,12.62,0,0,0-.42,1.45c0,.22-.07.25-.09.38a1.65,1.65,0,0,0,0,.31c0-.11,0-.23,0-.35a.75.75,0,0,1,0-.2c0-.11,0-.24.05-.36a18.8,18.8,0,0,1,.41-1.86c.35-1.34.82-2.82,1.31-4.3l.79-1.11c.08-.24.15-.43.24-.68,1.21-2.82.71-2.37-.12-.93.5-1.49,1-2.87,1.26-4a21.73,21.73,0,0,0,2-5.18c.15-.54.31-1.08.44-1.64s.28-1,.42-1.89a6,6,0,0,0-.35-4.05,2.9,2.9,0,0,0-1.52-.87,6.23,6.23,0,0,0-3,.32l-.88.3-.7.29c-.43.19-.85.4-1.29.61-.87.43-1.75.9-2.61,1.38A47.14,47.14,0,0,0,63.65,314c-.14,0-1,.4.51-.44-3.07,1.65-6.13,3.34-8.85,4.6a8.28,8.28,0,0,1-1.42,0,1.89,1.89,0,0,1-1.09.18,1.66,1.66,0,0,1-.47-.29c-.12-.08-.42-.36-.64-.55l-2.86-2.53c-2.95-3.57-4.08-5.11-.74-2-2-1.93-3.34-3.35-4.33-4.43a8.91,8.91,0,0,1-1.54-2.75c-.34-.91-.62-1.81-1-3.06-.19-.62-.41-1.33-.69-2.18a20,20,0,0,0-1.23-2.94l.47.33a10.5,10.5,0,0,0-.68-1.33,10.78,10.78,0,0,0-1-1.31,24.12,24.12,0,0,0-2.32-2.22,39.75,39.75,0,0,1-3.68-3.26c-.35-.38-.78-.82-1.25-1.35-.24-.26-.47-.55-.72-.85-.13-.15-.24-.32-.37-.48s-.16-.24-.24-.36a.93.93,0,0,1-.2-.76,2.74,2.74,0,0,1,.31-.83,17.61,17.61,0,0,1,1.59-2.44c1.29-1.71,2.88-3.53,4.59-5.47s3.56-4,5.39-6.18a42.84,42.84,0,0,0,2.69-3.52c.21-.32.42-.65.62-1a8.58,8.58,0,0,0,.59-1.21l.25-.74c0-.25.09-.51.11-.76a2.8,2.8,0,0,0-.37-1.47,4.94,4.94,0,0,0-.76-1l-.42-.44-.44-.34a6.7,6.7,0,0,0-.84-.55,8.73,8.73,0,0,0-.85-.45c-1.13-.54-2.25-.94-3.31-1.33a25,25,0,0,1-3-1.26,4.27,4.27,0,0,1-1.86-1.66,4.42,4.42,0,0,0-2.33-2.11,13.38,13.38,0,0,0-2.39-.76c-1.54-.36-3-.55-4.36-.75,1.85.65-.43.29-3.2-.12-1.38-.22-2.88-.48-4-.74-1.28-.3-1.46-.37-1.74-.3-.24-.2-.55-.58-.52-.81s0-.14.11-.09a2.26,2.26,0,0,0,.51.36.78.78,0,0,1-.43-.56,1.14,1.14,0,0,1,.24-.64,2.56,2.56,0,0,1,.2-.26l.1-.13.22-.22c.31-.34.67-.66,1-1,1.39-1.24,2.78-2.29,4.1-3.29a76.06,76.06,0,0,0,7.57-6.17c1-.57-1.5,1.6-.62,1.05.61-.54,2.38-2.19,3.26-2.91s-1,1.26-2.2,2.32a34.11,34.11,0,0,0,2.64-2.45c.19-.21.38-.39.55-.61a7.09,7.09,0,0,0,.72-.93c.19-.31.4-.6.55-.9s.27-.59.34-.88a3.33,3.33,0,0,0-.5-2.88,4.48,4.48,0,0,0-1.76-1.35,7,7,0,0,0-1.5-.48,3.37,3.37,0,0,0-.8,0,2.46,2.46,0,0,0-.88.21,41,41,0,0,0-6.17-1.36c-1.73-.24-3.29-.37-5.12-.53a12.58,12.58,0,0,1-2.07-.77c-.14-.14.58.08,3.64.59-.65-.13-1.82-.34-3.2-.7a12.87,12.87,0,0,1-2.11-.73,2.7,2.7,0,0,1-.75-.47,1.16,1.16,0,0,1-.38-.68l-.06-.25c0-.1-.05-.21-.09-.31l-.22-.62c-.15-.4-.32-.8-.5-1.17a23.87,23.87,0,0,0-1.17-2.14c-.81-1.34-1.59-2.55-2.19-3.6a14.77,14.77,0,0,1-1.2-2.61c-.13-.32-.17-.58-.25-.77a1.11,1.11,0,0,0-.16-.37,32.46,32.46,0,0,0-1.36-5.82,35.74,35.74,0,0,1-1.25-6.52c-.06-.87.66-1.84,1.6-2.81s2.22-2,4-3.5l-1.71,1.31a38.53,38.53,0,0,1,3.78-3.61,10.3,10.3,0,0,0,2.29-2.77,4,4,0,0,0,.38-1.1c0-.18,0-.47.06-.59a1.67,1.67,0,0,1,.06-.38,3.85,3.85,0,0,1,.9-1.62l-.06.16a15.13,15.13,0,0,1,2.48-2.15l2-1.46a29.86,29.86,0,0,0,2.45-1.93,11.93,11.93,0,0,0,1.34-1.45,6.69,6.69,0,0,0,.63-1,4.17,4.17,0,0,0,.51-1.64,14.15,14.15,0,0,1,.49-2.59c.29-1.08.81-2.37,1.47-4.07l-.59.62a4.54,4.54,0,0,1,.31-1.66c.12-.41.25-.88.41-1.41s.29-1.06.43-1.82a2.43,2.43,0,0,0,0-1,3,3,0,0,0-.45-.93,8.89,8.89,0,0,0-1.44-1.49,29.9,29.9,0,0,0-3.4-2.41,71.93,71.93,0,0,0-7.35-4l2.56,1.55a54,54,0,0,1-7.36-4.32c-1.3-.88-2.56-1.8-3.64-2.68a15.55,15.55,0,0,1-1.42-1.26L4.5,147a.78.78,0,0,1-.1-.15,1.18,1.18,0,0,1-.16-.29c0-.19,0,0,.19.15a2.68,2.68,0,0,0,.33.29c.25.2.54.42.8.59a9.45,9.45,0,0,1-.81-.71,2.14,2.14,0,0,1-.19-.26.44.44,0,0,1,0-.45l.09-.22a1,1,0,0,1,.12-.24,3.17,3.17,0,0,0,.2-.45c.06-.2,0-.2-.1-.26s-.35-.46,2.16-3.1c.66-.48.41,0,.52.09s.19,0,.59-.35a22,22,0,0,0,2.13-2.13,9.77,9.77,0,0,0,1.15-1.43,8.83,8.83,0,0,0,1.3-2.88,20.9,20.9,0,0,0-.1-7.31,32.31,32.31,0,0,1-.29-3.59,9.36,9.36,0,0,1,.13-1.63,1.23,1.23,0,0,1,.32-.78,1.43,1.43,0,0,1,.37-.19,5,5,0,0,1,.51-.13,13.57,13.57,0,0,1,1.59-.17,25,25,0,0,1,3.15.07,13.62,13.62,0,0,1-1.87-.29c-.15-.08.4-.21,2.41-.23,3.11,0,7.31.6,11.55.84,1.06.06,2.13.08,3.2.05.54,0,1.08-.05,1.62-.11a8.75,8.75,0,0,0,1.79-.38,4.28,4.28,0,0,0,1.79-1,5.09,5.09,0,0,0,.82-1.77c0-.3.1-.72.12-.94s0-.5,0-.73a7.87,7.87,0,0,0-.18-1.29,6.2,6.2,0,0,1-.07-1.25c-.3-1.26-.82-2.78-1.25-4.38a12.46,12.46,0,0,1-.42-2.36,5.09,5.09,0,0,1,.08-1.05,1.58,1.58,0,0,1,.14-.45l.08-.22.17-.37a15,15,0,0,0,1.08-5.38c.06-1.47.11-2.67.14-3.39.25-.49.48-1.3.89-2.17a7,7,0,0,1,.36-.65c.06-.11.13-.22.2-.33a2.4,2.4,0,0,1,.21-.23,3.47,3.47,0,0,1,1.26-.81,22.68,22.68,0,0,1,4.4-1,25.18,25.18,0,0,0,5.31-1.24,6,6,0,0,0,2.53-1.87c.48-.69.95-1.36,1.41-2C57,85.16,57.81,84,58.53,83,60,81.08,61,80,61.24,80.18l.58-.69c.2-.24.48-.65.7-1a8,8,0,0,0,.76-2.13,21.09,21.09,0,0,0,.33-3.94c0-1.25,0-2.46.12-3.59a5.52,5.52,0,0,1,.83-2.79,1.08,1.08,0,0,0,0,.27c.67-1.23,2.61-1.38,4.15-1.5s3-.07,4.32-.18a11.48,11.48,0,0,0,3.44-.71,6.68,6.68,0,0,0,.81-.4A3.74,3.74,0,0,0,78,63a2.49,2.49,0,0,0,.92-1.36,7.57,7.57,0,0,0,.26-1.33c0-.2,0-.21.07-.1a8.22,8.22,0,0,1,0,1c.06-.3.06-.6.09-.89s0-.57,0-.78c0-.45-.08-.89-.15-1.28-.13-.82-.3-1.54-.47-2.23-.34-1.36-.7-2.55-1-3.62-.69-2.15-1.29-3.86-1.87-5.49s-1.16-3.17-1.74-5a25.84,25.84,0,0,1-.79-2.87,7.9,7.9,0,0,1-.19-1.47,1.34,1.34,0,0,1,.51-1.18l.3-.25,1.18-.37a35.55,35.55,0,0,1,3.33-2.16L81.17,32l1.61-.93c.52-.32,1.07-.64,1.63-1A.88.88,0,0,1,85,30a2.36,2.36,0,0,1,.74.17,12.24,12.24,0,0,1,2.16,1.06c1.49.87,3,2,4.6,3s3.17,2.24,4.86,3.29A27.88,27.88,0,0,0,100,39a13.61,13.61,0,0,0,1.46.62,6.74,6.74,0,0,0,1.77.39,1.62,1.62,0,0,1-.59,0,5.43,5.43,0,0,1-1.32-.3,7.08,7.08,0,0,0,1.81.43,4,4,0,0,0,1.09,0,2,2,0,0,0,.53-.17,1.71,1.71,0,0,1,.27-.09l.16-.07.08,0c1.32-.69,3.35-.38,5.48,0,1.08.2,2.22.43,3.45.54a8.4,8.4,0,0,0,4-.53,4.43,4.43,0,0,0,1.45-1.09,6.48,6.48,0,0,0,.88-1.3,13.33,13.33,0,0,0,1-2.47c.48-1.6.79-3.12,1.11-4.55a31.26,31.26,0,0,1,1-3.9,6.71,6.71,0,0,1,.66-1.39,1.27,1.27,0,0,1,.6-.54,8.61,8.61,0,0,0,2.78-1.87,16.68,16.68,0,0,0,1.72-1.94,21.65,21.65,0,0,0,1.92-2.9A9,9,0,0,1,134.75,15c1-.44,2.56.24,3.92,1a8.65,8.65,0,0,0-3-1.33,2.6,2.6,0,0,0-1.21.09c-.44.11-.07-.17.49-.38a4.13,4.13,0,0,1,1.89,0c.42.12.43-.08-.84-.44a9.92,9.92,0,0,1,3.67,1.75c1.13.79,2.14,1.6,2.88,2.19,1.5,1.16,1.79,1.55-.83-.23l-.76-.62c-.57-.18-.05.31,1.06,1.17.56.43,1.27,1,2.12,1.5a11.22,11.22,0,0,0,3,1.43,4.65,4.65,0,0,0,2.07.09A3.33,3.33,0,0,0,151,20.17a7.63,7.63,0,0,0,1-1.42c.25-.44.46-.87.65-1.26A11.25,11.25,0,0,1,153.82,15c.8-2.3,1.45-4.59,2.23-6.78a25.13,25.13,0,0,1,1.29-3.12c.12-.22.28-.51.37-.64a4.43,4.43,0,0,1,.29-.42,1.47,1.47,0,0,1,.84-.54,1.25,1.25,0,0,1,.87.26,3.47,3.47,0,0,1,.37.3l.17.16.24.26a20.19,20.19,0,0,1,1.88,2.42c1.19,1.75,2.3,3.6,3.47,5.44a31.55,31.55,0,0,0,4,5.43,7.38,7.38,0,0,0,.72.63,4.92,4.92,0,0,0,1,.6,3.52,3.52,0,0,0,2.31.26A10.47,10.47,0,0,0,177.3,18c2-1.12,3.66-2.45,5.36-3.27a5.86,5.86,0,0,1,2.42-.65,3,3,0,0,1,1.83.94,38.61,38.61,0,0,1,3.9,4.59,21.42,21.42,0,0,0,2.25,2.5,8.36,8.36,0,0,0,.7.59l.8.56c.32.16.64.31,1,.46l1.17.25a5.06,5.06,0,0,0,3.11-1,12.87,12.87,0,0,0,2-1.69c1.15-1.16,2.1-2.36,3.06-3.51-.73.59-1.46,1.2-2.21,1.79a62.1,62.1,0,0,1,5.43-6.1c.81-.59,1.33-.65,1.19-.5a19.55,19.55,0,0,0-2.88,2.79c.56-.51,1.22-1.22,1.92-1.84a7,7,0,0,1,1-.77,1.41,1.41,0,0,1,.77-.23l.52.06.57.14c.36.13.71.24,1,.38.59.24,1,.47,1,.45,1.12.8,1.88,1.49,2.4,1.93a7.41,7.41,0,0,1,.82.78c.1.17-.62-.3-1.5-.91a26.08,26.08,0,0,0-2.56-1.66c-.65-.32-.91-.43-.25-.06a38.09,38.09,0,0,1,3.74,2.71l-.83-.73a25.78,25.78,0,0,0,4.09,2.49,10,10,0,0,0,1.28.52c.24.09.52.14.8.22l.67.17a8.59,8.59,0,0,1,3.16,2,14.49,14.49,0,0,1,2.1,2.24c.13.22,0,.19.71.82,0,0,.09.13.45.42a10.84,10.84,0,0,0,2.08,1.36,9,9,0,0,0,1.49.63,5.85,5.85,0,0,0,1.83.19,9.83,9.83,0,0,0,3-.7c1.81-.69,3.36-1.56,4.89-2.26-1.28.44-2.6,1-4,1.45,2.18-1.11,4.29-2.27,5.41-2.66.55-.23.84-.31.72-.34a6.07,6.07,0,0,0-1.77.4,12.59,12.59,0,0,1,2.83-.66,5.48,5.48,0,0,1,.81,0l.36.11.21.06.33.1a7.27,7.27,0,0,0,2.78.28,35.82,35.82,0,0,0,5.6-1.06,21.24,21.24,0,0,1,2.79-.5l.68,0,.64,0c.21,0,.42.07.6.09a3.33,3.33,0,0,1,.45.13,1.39,1.39,0,0,1,.76.86,7.38,7.38,0,0,1,.42,1.64,30.92,30.92,0,0,1,.31,3.77c.09,2.54.06,5,.23,7.32a17.61,17.61,0,0,0,.48,3.3A6.79,6.79,0,0,0,262.9,40a3.59,3.59,0,0,0,1.18,1.26,5.24,5.24,0,0,0,1.4.56,5.61,5.61,0,0,0,1.11.19,14.17,14.17,0,0,0,1.5,0c1.78-.23,3.37-.69,5-1a22.63,22.63,0,0,1,2.34-.42,6,6,0,0,1,2.18.08c1.29.24,2.2,1.57,2.86,3.14s1.11,3.45,1.86,5.41c-.34-1-.44-1.8-.22-1.53A7.91,7.91,0,0,1,282.7,49c.18.38.4.86.71,1.44a6.76,6.76,0,0,0,1.49,1.9c-.35-.14-.47-.11-.35.11a2.17,2.17,0,0,0,1.2.92,5.3,5.3,0,0,0,2.7-.07,19.72,19.72,0,0,0,2.89-1c3.94-1.69,8.44-4.26,11.06-5-1.09.38-.68.09.49-.46a15.18,15.18,0,0,1,2.2-.85c.2-.05.42-.12.62-.15a2.07,2.07,0,0,1,.46,0,1.09,1.09,0,0,1,.82.28l.56.49.64.57,1.21,1.1L311.28,50c.94.84,1.13.88-.18-.68,4,4.13,0,.5,2.87,3.77l2.1,2c.49.4.69,1.67.62,3a36.18,36.18,0,0,1-.5,4.18c-.22,1.45-.49,2.94-.63,4.54a14.32,14.32,0,0,0,0,2.54,5.2,5.2,0,0,0,1.09,2.87,20.35,20.35,0,0,1,2.84,5.28c.42,1,.85,2,1.36,3.08.25.52.53,1,.84,1.57.16.26.31.52.49.77l.27.38a1.78,1.78,0,0,1,.1.21,4.2,4.2,0,0,1,.21,2.33,24.31,24.31,0,0,1-.61,3.11c-.26,1.07-.56,2.18-.78,3.37a11.61,11.61,0,0,0-.2,3.92c.06.14.08-.66.16-.93s.09-.14.15.15a7,7,0,0,0,.59,2,5.91,5.91,0,0,0,.29.66l.31.52c.2.34.42.68.65,1,.45.65.94,1.26,1.42,1.86,1,1.18,2,2.28,2.8,3.4.48.51.84.9,1.15,1.25l.45.48a2.43,2.43,0,0,1,.2.25,2.38,2.38,0,0,1,.25.32,4.53,4.53,0,0,0,.95,1,6.47,6.47,0,0,0,.7.4,6.12,6.12,0,0,0,.81.29,23.14,23.14,0,0,0,4,.69c-.9-.15-2.23-.39.1-.32,2.91.12,5.76,0,8.59,0a40.26,40.26,0,0,1,4.14.13,8.58,8.58,0,0,1,1.69.3,1.4,1.4,0,0,1,.95.7,2,2,0,0,1-.12,1.34,13.07,13.07,0,0,1-1,1.9c-.81,1.31-1.77,2.6-2.73,3.91s-2,2.64-2.86,4.1a14.83,14.83,0,0,0-1.21,2.39,4.61,4.61,0,0,0-.2,3.24,4.47,4.47,0,0,0,.74,1.22,6.31,6.31,0,0,0,.91.89,12.06,12.06,0,0,0,1.92,1.19c1.28.65,2.57,1.15,3.82,1.65s2.48,1,3.59,1.56a9.88,9.88,0,0,1,1.5,1,4.16,4.16,0,0,1,.47.46,2,2,0,0,1,.29.52,1.23,1.23,0,0,1,0,.78,2.32,2.32,0,0,1-.16.36,3.79,3.79,0,0,1-.25.41,14.15,14.15,0,0,1-1.6,1.86c-1.22,1.21-2.57,2.36-3.93,3.53s-2.74,2.32-4.07,3.63a15.68,15.68,0,0,0-1.89,2.19,4.33,4.33,0,0,0-.94,3.36,8.84,8.84,0,0,0,.3,1,7,7,0,0,0,.37.89,13.4,13.4,0,0,0,.9,1.63c.65,1,1.36,1.94,2,2.84a15,15,0,0,1,1.61,2.68,7.42,7.42,0,0,1,.58,2.84,44.4,44.4,0,0,1-.45,6.56,31.56,31.56,0,0,0-.19,3.55v.81a2.31,2.31,0,0,1-.07.51,3.42,3.42,0,0,1-.18.54,3.73,3.73,0,0,1-.28.57,5.4,5.4,0,0,0,.59-1.36c0-.18.06-.15.08,0a3.58,3.58,0,0,1-.26,1.1,10,10,0,0,1-1.06,1.8c1.2-1.67.26.22.62,0-1.31,1.81-3.13,3.38-4.36,5.8a5.17,5.17,0,0,0-.39,1c-.06.21-.13.43-.17.64s0,.41-.07.61a2.74,2.74,0,0,0,.71,2.32,8.3,8.3,0,0,0,.91.87,7.7,7.7,0,0,0,.82.6,18.85,18.85,0,0,0,1.63,1c2.62.94,14.26,5.43,15.68,5.7-1.35-.55-2.74-1.06-4.13-1.56,2.85.8,1.05-.24-1.38-1.5s-5.42-2.76-4.88-2.94a23.62,23.62,0,0,1-5.16-2.17,8.68,8.68,0,0,1-1.24-.84,2.15,2.15,0,0,1-.73-.91,1.07,1.07,0,0,1,0-.59,2.3,2.3,0,0,1,.14-.56,7.17,7.17,0,0,1,.69-1.39,30.2,30.2,0,0,1,2.23-2.84,18.15,18.15,0,0,0,2.42-3.4,7,7,0,0,0,.75-2.31v-1l0-.24c0-.32-.05-.63-.06-.95-.06-1.29,0-2.62,0-4,.36-2.39.06,2.06.34.79-.05-1.38.05-2.92,0-5,0-.51,0-1.05-.08-1.63a13.75,13.75,0,0,0-.28-1.89,13,13,0,0,0-2-4.07c.16.18.32.38.48.57-.92-1.37-1.86-2.5-2.59-3.58a12.62,12.62,0,0,1-.93-1.57,6,6,0,0,1-.32-.75,6.22,6.22,0,0,1-.19-.64c-.13-.59.12-1,.61-1.71a14.46,14.46,0,0,1,1.67-1.86c1.23-1.18,2.55-2.27,3.86-3.37s2.66-2.21,4-3.48a16.26,16.26,0,0,0,2-2.19,6.41,6.41,0,0,0,.91-1.7,3.57,3.57,0,0,0,.07-2.05,5,5,0,0,0-1.22-2,8.51,8.51,0,0,0-1.57-1.24,24.09,24.09,0,0,0-3.33-1.67c-1.14-.49-2.32-1-3.48-1.48a11.26,11.26,0,0,1-3.08-1.83,4.8,4.8,0,0,0,.7,1,4.93,4.93,0,0,1-1-.85,1.72,1.72,0,0,1-.37-.59,1.32,1.32,0,0,1,0-.65c0-.14.12-.39.21-.61a10.66,10.66,0,0,1,.77-1.41c.48-1.09.31-1-.17-.2a9.06,9.06,0,0,0-.75,1.47c0,.14-.09.28-.14.42s-.05.22-.06.34a1.38,1.38,0,0,0,.06.67c.21.66,1.32,1.4,1.86,1.75s.64.49-.27.15a5,5,0,0,1-1.69-1.86,1.35,1.35,0,0,1-.05-.57,2.4,2.4,0,0,1,.15-.64,9.09,9.09,0,0,1,.84-1.74c.73-1.24,1.7-2.56,2.72-3.94s2.11-2.81,3.1-4.36a14.83,14.83,0,0,0,1.35-2.54,4.7,4.7,0,0,0,.2-3.5,3.51,3.51,0,0,0-1.85-1.69,8.14,8.14,0,0,0-1.21-.39c-.4-.11-.65-.14-1-.2a29.85,29.85,0,0,0-3.23-.28c-1.89-.08-3.28-.12-4-.25-6.43.21,1.87.37-4.52.54l-1.66-.22-1.57.21a8.43,8.43,0,0,1-2.32-.46,1.16,1.16,0,0,1-.71-.7s-.11-.23-.16-.34a4,4,0,0,0-.18-.36c-.1-.22-.2-.41-.27-.56-.16-.31-.23-.49-.21-.56.15.22.34.47.54.77l.3.46c.09.13.17.27.26.41a.72.72,0,0,0,.31.29,4.35,4.35,0,0,0,.42.15,1.28,1.28,0,0,1-.39-.21.71.71,0,0,1-.24-.3l0,0-.07-.13-.16-.27-.33-.52c-.22-.35-.48-.68-.73-1a24.8,24.8,0,0,0-1.64-1.88c-1.13-1.18-2.25-2.22-3.14-3.21a17.11,17.11,0,0,1-1.18-1.44,3.11,3.11,0,0,1-.36-.56l-.09-.16a1.41,1.41,0,0,1-.06-.22,4,4,0,0,1-.11-.91c0-.31.05-.56.06-.73a4.17,4.17,0,0,0,.13,2c0,.06,0,.09.07.19l.19.29q.18.28.39.57c.27.38.56.75.87,1.12-.37-.42-.73-.84-1.06-1.28-.17-.21-.31-.44-.47-.66s-.13-.26-.2-.42a6.94,6.94,0,0,1,0-2.91c.19-1.14.52-2.36.81-3.63a24.29,24.29,0,0,0,.7-4.1,9.51,9.51,0,0,0,0-1.19,5.76,5.76,0,0,0-.23-1.29,4.89,4.89,0,0,0-.6-1.33c-.15-.25-.22-.34-.3-.46l-.25-.35a24.89,24.89,0,0,1-1.7-3.26c-1-2.33-2-5-4-7.34-.41-.38-.55-1.82-.43-3.17s.33-2.82.55-4.28a43.06,43.06,0,0,0,.51-4.52,11.71,11.71,0,0,0-.12-2.48,6,6,0,0,0-.41-1.38,4.43,4.43,0,0,0-.89-1.33c-1.91-1.85-3.7-3.65-5.52-5.36l.8,1-2.79-2.63-1.15-1.05-1.08-1a3.36,3.36,0,0,0-1.28-.67,4.62,4.62,0,0,0-1.33-.06,10.62,10.62,0,0,0-2,.41,29.12,29.12,0,0,0-3.24,1.24c-1.1.49-2.33,1.08-3.88,1.88s-3.43,1.82-5.86,3l.44-.25c-.61.34-1.29.67-2,1a10.47,10.47,0,0,1-2.2.72,1.92,1.92,0,0,1-.86,0,1.85,1.85,0,0,1-.72-.53,7.1,7.1,0,0,1-1.27-2.17c.78,1.45.16.07-.21-1.39s-.72-2.86.1-.66a40,40,0,0,0-1.62-4.23,9.18,9.18,0,0,0-1.93-2.75,8.21,8.21,0,0,0-1.05-.74,5.93,5.93,0,0,0-.94-.39,6.37,6.37,0,0,0-2.27-.19,10.75,10.75,0,0,0-1.15.16c-.92.16-2.24.52-4.46,1.15-.71,0-1.42.09-2.1.08a9.12,9.12,0,0,1-1.8.24,3.71,3.71,0,0,1-.75,0,2.17,2.17,0,0,1-.71-.17,1.34,1.34,0,0,1-.69-.48,3.49,3.49,0,0,1-.53-1,16.7,16.7,0,0,1-.62-4c.14,1.44.27,1.85.32,1.8a9.34,9.34,0,0,0,.07-1.1c0-.51.06-1,.12-1a11.64,11.64,0,0,1,.39,2.15c-.2-3.27,0-6.34-.17-9.11a24.62,24.62,0,0,0-.47-4c-.08-.33-.17-.66-.28-1-.05-.16-.12-.33-.19-.51a3.75,3.75,0,0,0-.28-.57,3.59,3.59,0,0,0-1.73-1.65,6.23,6.23,0,0,0-1.29-.35,5.3,5.3,0,0,0-1.1-.1,6.8,6.8,0,0,0-1,0,6.89,6.89,0,0,0-.94.12c-1.21.19-2.28.46-3.28.71a13.93,13.93,0,0,1-5.33.6c-.34,0-.57,0-.76.06a.88.88,0,0,0-.32,0c-.1,0,0,.12.31.24a8.59,8.59,0,0,0,3.88-.19c1.71-.37,3.57-.9,4.83-1.1s1.84-.23.81-.07c1.76,0,.15.11-2.18.79-1.18.32-2.57.75-3.95,1.05a8.27,8.27,0,0,1-3.8.13l-.85-.23a3.89,3.89,0,0,0-.49-.12l-.48,0a4.32,4.32,0,0,0-.95,0,5.78,5.78,0,0,0-.93.13,22.59,22.59,0,0,0-3.84,1.23l-2.21.89a20.52,20.52,0,0,1-2.51.84,4.27,4.27,0,0,1-.66.13,3.66,3.66,0,0,1-.64.05A1.82,1.82,0,0,1,233,24l-.27-.06-.34-.13a10.68,10.68,0,0,1-2.94-2,13.89,13.89,0,0,0,1.79,1.34c-1.57-1.13-3.05-2.74-5-4.3a11.13,11.13,0,0,0-3.62-2l-.93-.27a4.34,4.34,0,0,1-.72-.29,8.38,8.38,0,0,1-1.48-.93,24,24,0,0,1-3.93-2.71c-1.26-.95-2.52-1.62-3.11-1.52a23.43,23.43,0,0,1,4.79,3.17,13.6,13.6,0,0,0,4.35,2.58,12.58,12.58,0,0,1-3.79-2c-1.28-.88-2.6-1.91-4.21-2.83A9.49,9.49,0,0,0,210.82,11a3.21,3.21,0,0,0-1.71,0,5.45,5.45,0,0,0-1.53.81,37.72,37.72,0,0,0-4.91,5.12,32.7,32.7,0,0,1,3.79-4.8c-2.49,2.07-3.81,4.61-6,6.73a10.08,10.08,0,0,1,1.42-2.09,51,51,0,0,1,3.48-4.15,9.71,9.71,0,0,1,2.93-2.22,4,4,0,0,1,2.34-.31,8.76,8.76,0,0,1,1.89.56A32.44,32.44,0,0,1,217.78,14a25.75,25.75,0,0,0-2.65-2.1,11.24,11.24,0,0,0-4-1.86l-.59-.11c-.22,0-.43,0-.63,0a4.15,4.15,0,0,0-1.1.18,6.69,6.69,0,0,0-1.34.6c-.25.14-.37.19-.34.12a2.49,2.49,0,0,1,.7-.63,15.28,15.28,0,0,0-2.84,2.7c-.84,1-1.67,2-2.55,3S200.64,18,199.65,19s-2.13,1.93-2.75,1.85a4.65,4.65,0,0,1-2.33-1.3,4.12,4.12,0,0,0,.59.07,33.83,33.83,0,0,1-4.1-4.52c1.06,1,2,2.1,3,3C193,17,192,15.7,191,14.4a21.91,21.91,0,0,0-1.84-1.93,7.35,7.35,0,0,0-2.72-1.65,7,7,0,0,0-3.36,0,12.67,12.67,0,0,0-2.62,1,45.61,45.61,0,0,0-4.06,2.61c1.3-.83,2.41-1.61,3.34-2.15a13.52,13.52,0,0,1,2.26-1.1c1.15-.39,1.36-.33,1.24-.24s-.49.31-.43.37.5-.14,2.27-.18a8,8,0,0,0-3.21.85,20.71,20.71,0,0,0-2.18,1.23c-1.23.79-2.15,1.43-2.95,1.89a10.28,10.28,0,0,1-2,.94,4.68,4.68,0,0,1-.81.19,2,2,0,0,1-.61,0,1.1,1.1,0,0,1-.73-.47,13.12,13.12,0,0,1-1.43-1.77c-1.17-1.62-2.61-4.13-5.19-8,.74,1.05,1.93,3.06,2.67,4.37s1,2-.05.42c-1.8-2.93-4-7-5.77-8.92A7.85,7.85,0,0,0,160.41.28a4.71,4.71,0,0,0-2-.27,4.35,4.35,0,0,0-2.55,1.54c-.31.4-.31.43-.12.26a5.49,5.49,0,0,1,1-.87,4.39,4.39,0,0,1,1.68-.62,3.44,3.44,0,0,1,1.3.2s0,0-.21,0a5.32,5.32,0,0,0-1.06,0L158,.68a4,4,0,0,0-1.85,1.06,7,7,0,0,0-.66.8c-.2.28-.4.57-.5.75a13.42,13.42,0,0,0-1,2.45c-.52,1.64-.89,3.43-1.62,6l-.36-.07a49,49,0,0,1-2.23,5.85c-.21.45-.38.75-.45.9s-.09.25-.14.34a.84.84,0,0,1-.82.54,2.15,2.15,0,0,1-.58-.05,4.51,4.51,0,0,1-1-.32,16.31,16.31,0,0,1-3-1.81,22.27,22.27,0,0,0,2.24,1.12,5.59,5.59,0,0,0,2,.52,4.38,4.38,0,0,1-1.11-.33,10.67,10.67,0,0,1-1.27-.63c-.87-.49-1.74-1.08-2.63-1.67l1.31.41c-1.45-.9-2.68-1.75-3.86-2.47a14.29,14.29,0,0,0-3.77-1.73,5.16,5.16,0,0,0-2.57,0,7.9,7.9,0,0,0-2.16,1,18.45,18.45,0,0,0-3.6,3.35c.64-.54.6-.25-.08.75a20.43,20.43,0,0,1-1.47,2,8.8,8.8,0,0,1-2.6,2.26l-.38.14-.61.26-.38.22a1.84,1.84,0,0,1-.31.18c-.08,0,0-.13,0-.12a3.1,3.1,0,0,0-.88.94,12.54,12.54,0,0,0-1.59,4.13,13.62,13.62,0,0,1,.58-2.72,6.7,6.7,0,0,1,.84-1.71,4.37,4.37,0,0,1,2.14-1.7,6.57,6.57,0,0,0,1.39-.69c.09-.13.36-.46.63-.78a7.21,7.21,0,0,0,.61-.89,9.19,9.19,0,0,1-2.76,2.05,5,5,0,0,0-2,1.4,7.07,7.07,0,0,0-1,1.67,16.81,16.81,0,0,0-1,3c-.43,1.84-.67,3.38-.9,4.45.25-1.16.55-2.59.77-3.34-.33,1.84-.56,3.61-.9,5.28a15.28,15.28,0,0,1-.65,2.3,5,5,0,0,1-.44.87A1.54,1.54,0,0,1,117,37a4.1,4.1,0,0,1-1.22.36c-.79,0-.91-.12-.61-.15a7.64,7.64,0,0,0,1.37-.35,7.25,7.25,0,0,1-2.83.2c-1.13-.07-2.44-.34-4.41-.6a7,7,0,0,1,1.51-.2c.38,0,.89,0,1.6.11a23.3,23.3,0,0,0,2.66.17,32.25,32.25,0,0,1-4.85-.55,18.16,18.16,0,0,0-3-.2,10.75,10.75,0,0,0-1.66.17l-.87.25a5.82,5.82,0,0,0-.81.35.83.83,0,0,1-.46.12.53.53,0,0,0-.19-.09c-.13-.06-.3-.12-.5-.22a13.24,13.24,0,0,1-1.41-.8c-.94-.61-1.66-1.18-1-.84l-6.76-4.45c-1.3-.82-2.66-1.67-4.22-2.47a15.33,15.33,0,0,0-2.62-1.07,6.85,6.85,0,0,0-.92-.2,4.46,4.46,0,0,0-1-.06,3.9,3.9,0,0,0-1,.18,9.9,9.9,0,0,0-.93.44l-1.66,1.07-1.56,1L76.43,31c-.36.3-1.13.82-2.71,1.91l-1,.64-.47.33-.66.48a8.63,8.63,0,0,0-.8.8,3.63,3.63,0,0,0-.47,1,4.73,4.73,0,0,0-.22,1.12,7.37,7.37,0,0,0,0,1,18.43,18.43,0,0,0,.46,3c.42,1.9,1,3.69,1.55,5.49s1.23,3.63,1.89,5.51,1.35,3.83,1.87,5.81A10.45,10.45,0,0,1,76,59.42a3.09,3.09,0,0,1,0,.54.39.39,0,0,1-.06.2.4.4,0,0,1-.21.23c-.09,0-.25.07-.24,0a.9.9,0,0,1-.29.11l-.32.12-.52.13c-.25.08-.35.1-.27.13a1.17,1.17,0,0,0,.48,0h.37l.34,0c.52-.06.5,0,.47.11-.26.18-1.2.69-4.37.72-2.24,0-3.71.09-4.61.2s-1.21.15-1.29.08,0-.18,0-.24-.4-.07-1.46.37a5.43,5.43,0,0,0-1.11.75c-.18.16-.37.32-.54.5s-.31.4-.46.61a6.8,6.8,0,0,0-.71,1.33,9.62,9.62,0,0,0-.38,1.37A26,26,0,0,0,60.49,72a24.85,24.85,0,0,1-.05,2.6,5.85,5.85,0,0,1-.53,2.22,1.3,1.3,0,0,1-.24.38,3,3,0,0,1-.41.5l-1,1.19-2,2.43c.79-1.15,1.56-2.16,2.35-3.12l.6-.71a2.87,2.87,0,0,0,.27-.32c0-.07.09-.14.14-.2A3.71,3.71,0,0,0,60,75.87ZM9.38,132c0-1.63-.73-5.27-.51-6.76a21.79,21.79,0,0,1,.45,3.11A32.49,32.49,0,0,1,9.38,132ZM30.77,232.67a4.44,4.44,0,0,0,.32-.75,1.09,1.09,0,0,0-.16-.93,2.52,2.52,0,0,0-.86-.71,7.59,7.59,0,0,0-1.28-.58c.2.05.4.12.59.18l.49.19a3.68,3.68,0,0,1,.93.55,1.16,1.16,0,0,1,.48,1A2.22,2.22,0,0,1,30.77,232.67ZM225.66,355.61a1.48,1.48,0,0,1,0,.2C225.28,359.85,225.43,358.42,225.66,355.61Zm.69-8.52c0-.87,0-.81-.11-.45,0,.61-.12,2.55-.27,4.73A31,31,0,0,0,226.35,347.09ZM228.74,25c-.46-.39-.89-.8-1.29-1.21,1.5,1.26,2.18,1.66,2.24,1.73A4.79,4.79,0,0,1,228.74,25Z"/><path class="cls-1" d="M18.5,228.36a2,2,0,0,1-.75-.33C17,228,17,228,18.5,228.36Z"/><path class="cls-1" d="M76.18,31.16l.25-.15a1.29,1.29,0,0,0,.21-.21Z"/><path class="cls-1" d="M145.89,362.23c-1.55-.23-2.52-.24-3.15-.31-.05.05.13.08.63.11S144.7,362.08,145.89,362.23Z"/><path class="cls-1" d="M259.62,334.16c-.81,1.81-1.35,3.51-2.06,4.93,1-2.11,1.38-3.08,2-4.31C259.45,334.86,258.88,335.83,259.62,334.16Z"/><path class="cls-1" d="M301.66,322.44c.55-.58,1.25-1.13,1.83-1.66h-.27a25.66,25.66,0,0,0-2.71,2.55C300.13,323.78,300.35,323.6,301.66,322.44Z"/><path class="cls-1" d="M264.42,330.37c.16,0,.54-.06,1.11-.07a8.8,8.8,0,0,1,1.94.27,30.4,30.4,0,0,1,4.91,1.87l-.61-.29c.6.05,0-.34-1.33-.91a19.76,19.76,0,0,0-2.47-.86,9.55,9.55,0,0,0-1.63-.27A4.53,4.53,0,0,0,264.42,330.37Z"/><path class="cls-1" d="M273.19,332.81c1.06.49,2.14,1,3.16,1.43C276.81,334.25,275.09,333.7,273.19,332.81Z"/><path class="cls-1" d="M233,337.77a4.53,4.53,0,0,0,1.59.21,1.15,1.15,0,0,1,.85.15c.59.09,0-.15-1.1-.43a10.56,10.56,0,0,0-2-.3,7.79,7.79,0,0,0-2.61.31,3,3,0,0,0-1.6,1.25c0,.08,0,0,.27-.23a4.24,4.24,0,0,1,.5-.41,6.62,6.62,0,0,1,.91-.42,7,7,0,0,1,1.52-.22,3.74,3.74,0,0,1,.82,0C232.43,337.71,232.75,337.71,233,337.77Z"/><path class="cls-1" d="M267.79,331.48a8.61,8.61,0,0,0-1.28-.67,3.63,3.63,0,0,0-2.14.59l0,0h0A4.48,4.48,0,0,1,267.79,331.48Z"/><path class="cls-1" d="M244.55,341.16a20.09,20.09,0,0,1,6,1.29,7.43,7.43,0,0,1,1.6.3c-1.8-.44-3.66-1.13-5.14-1.42A6.09,6.09,0,0,0,244.55,341.16Z"/><path class="cls-1" d="M252.16,342.75c1.86.51,3.73.47,4.56-.12a4.34,4.34,0,0,1-2,.43A12.1,12.1,0,0,1,252.16,342.75Z"/><path class="cls-1" d="M261.63,335.32c-.27.54-.52,1.08-.78,1.62a28.69,28.69,0,0,1-1.84,3.88A53.23,53.23,0,0,0,261.63,335.32Z"/><path class="cls-1" d="M212.58,352a15.81,15.81,0,0,0-1.72-1.88,3,3,0,0,0-2.39-1,3.11,3.11,0,0,0-1.54.95c-.15.23-.07.19.17,0a3.5,3.5,0,0,1,1.4-.75,2.31,2.31,0,0,1,1.78.61C211.65,350.83,213.08,352.88,212.58,352Z"/><path class="cls-1" d="M224.17,368.9a3.62,3.62,0,0,1-1.74-1,10.32,10.32,0,0,1-.87-1.1,3.39,3.39,0,0,1-.48.17A5.86,5.86,0,0,0,224.17,368.9Z"/><path class="cls-1" d="M212.09,353.21c-.12-.11-.54-.63-1.06-1.19-.26-.27-.56-.58-.82-.8a3.72,3.72,0,0,0-.59-.44c-.36-.2-.58-.2-.39-.11a3,3,0,0,1,.54.37,6.11,6.11,0,0,1,.5.48,11.78,11.78,0,0,1,.84,1C211.66,352.82,215.39,358.25,212.09,353.21Z"/><path class="cls-1" d="M135.8,360.83a16,16,0,0,0,1.7.11l-.22-.77A14.14,14.14,0,0,1,135.8,360.83Z"/><path class="cls-1" d="M73,324.75c-1.45,3.73-1.42,4.3-1.44,4.69a3.66,3.66,0,0,1-.13,1c-.06.29-.16.69-.28,1.25-.07.28-.14.61-.2,1a4.84,4.84,0,0,0-.1.85,5.51,5.51,0,0,0,0,1c.12.7.13.48.09-.18,0-.33,0-.78.08-1.29,0-.2.08-.42.12-.65s.08-.38.13-.58c.37-1.53.87-2.91.66-2,.6-2.39,1.24-4.1,1.5-5S73.64,323.8,73,324.75Z"/><path class="cls-1" d="M71.93,329.85a20.3,20.3,0,0,0-.49,2.53C71.67,330.9,71.85,330.27,71.93,329.85Z"/><path class="cls-1" d="M356.21,194.49c1.57.64,3.12,1.27,4.64,1.93l-2.92-1.4Z"/><path class="cls-1" d="M365.25,197.58c.24.33.5.64.69,1,.2.09.41.17.58.26l.27.14.21.13a1,1,0,0,1,.19.11l.14.09h.05l.13,0a.28.28,0,0,1,.23,0c-.13,0-.17,0-.31,0s0,0-.09-.13l-.09-.11-.16-.14a2.83,2.83,0,0,0-.35-.29C366.21,198.19,365.57,197.82,365.25,197.58Z"/><path class="cls-1" d="M1.63,141.94l-.18.45c.64-.71,1.54-1.76,3.26-3.45A29.6,29.6,0,0,0,1.63,141.94Z"/><path class="cls-1" d="M35.61,102.78a7.7,7.7,0,0,1-.28.85,8.09,8.09,0,0,0,.89-1.61A9.64,9.64,0,0,1,35.61,102.78Z"/><path class="cls-1" d="M69.19,60.53a15.1,15.1,0,0,0-4.49.65l-.66.24q-.35.16-.69.36a6.62,6.62,0,0,0-1.31.94A8,8,0,0,0,61,64a10.93,10.93,0,0,0-.65,1.27A9.63,9.63,0,0,1,61,63.91a8.2,8.2,0,0,1,1-1.17,6.81,6.81,0,0,1,2.26-1.34,11,11,0,0,1,3.17-.58C69,60.77,69.52,60.81,69.19,60.53Z"/></g></g></svg>