<svg xmlns="http://www.w3.org/2000/svg" viewBox="0 0 212.64 348.29"><defs><style>.cls-1{fill:#fff;}</style></defs><g id="Layer_2" data-name="Layer 2"><g id="Layer_1-2" data-name="Layer 1"><path class="cls-1" d="M209.76,116.18c-.13,24-7.08,46-19.51,66.39-5.79,9.51-11.47,19.09-17.53,28.42-13.78,21.18-23.19,44.32-31.42,68.07A184.76,184.76,0,0,1,122.92,318C113,333.47,99.1,343.38,80.75,345.71c-24.3,3.08-46.14-10.41-56.1-33.65a56,56,0,0,1-2-39.59c1.45-4.74,5.21-7.43,9.92-7.14,3.17.19,4.5,1.64,4.13,4.84a46.34,46.34,0,0,1-1.22,6,45.43,45.43,0,0,0,2.9,30.38c5.49,12.3,15.81,17.25,28.65,18.52,21.33,2.1,37.63-5.83,47.68-24.71a219.2,219.2,0,0,0,15-34.35,358.22,358.22,0,0,1,36.83-79.11c9.44-15.07,19.75-34.49,22.13-52.31,2.67-20-.89-36.62-6.85-56.09-8.35-27.32-31.32-54.7-71.75-56.28-11.59-.45-23.12-.06-34.42,3Q49.2,32.38,35.18,55.93C28.33,67.38,24,79.5,24.6,93.09A70.84,70.84,0,0,1,24,105.78a11.72,11.72,0,0,1-2.6,6c-3.71,4.39-9,4.09-12.34-.37-3.66-4.89-5.13-10-5.85-15.41A65.7,65.7,0,0,1,9.73,58.54C20.11,37.4,36.22,21,59.31,10.73c18.77-8.31,38.8-9,58.93-7,17.57,1.76,33.84,7.37,47.59,18.69C189.61,42,203.72,67.28,208.17,97.78,209.05,103.86,209.25,110.05,209.76,116.18Z"/><path class="cls-1" d="M212.06,114.39c.12,2,.48,1.25.58,1.55C212.28,112.6,212,114.48,212.06,114.39Z"/><path class="cls-1" d="M206.14,81l.32.54c-.56-1.59-1.24-3.13-1.84-4.68C205.12,78.28,205.65,79.65,206.14,81Z"/><path class="cls-1" d="M193.56,51.94a16.61,16.61,0,0,0,1.36,2.86c.63,1.15,1.37,2.47,2.15,3.88s1.56,2.89,2.29,4.36c.36.74.72,1.47,1,2.18s.57,1.42.81,2.09l.2.92c.5.72,1,1.43,1.5,2.16-.65-1.6-1.42-3.29-2.17-5s-1.7-3.4-2.52-5.06l-2.53-4.62C194.89,54.27,194.13,53,193.56,51.94Z"/><path class="cls-1" d="M184.91,37.16c.45,1-2.51-2.73,2.45,3.17-.22-.32-.28-.42-.4-.6Z"/><path class="cls-1" d="M187,39.73c2.14,2.63-1.21-1.88,0,0Z"/><path class="cls-1" d="M176.43,28.17l3.29,3c-.53-.78-3.28-3.66-2.17-2.69a10.79,10.79,0,0,0-2.46-2.07A8.33,8.33,0,0,0,176.43,28.17Z"/><path class="cls-1" d="M173,25.65l1.75,1.5A7.35,7.35,0,0,0,173,25.65Z"/><path class="cls-1" d="M178.37,30.44c-1.19-1.12-2.36-2.25-3.61-3.29.38.53.29.72,1.67,1.49C176,28.51,176.82,29.05,178.37,30.44Z"/><path class="cls-1" d="M180.21,32.5c1.55,2,3.6,4.44.47,1.28,1.41,1.57,2.48,2.65,3.12,3.35s.92.94.87.78a8.47,8.47,0,0,0-1.17-1.66C182.75,35.34,181.64,34.08,180.21,32.5Z"/><path class="cls-1" d="M192.1,50.94l1.5,2.93c.54.78,1.13,1.54,1.63,2.34C194.46,55,192.18,50.65,192.1,50.94Z"/><path class="cls-1" d="M154.44,11c-.32,0,1.14,1.09,1.34,1.42,1,.47,2,1,2.95,1.54-.71-.48-1.73-1.19-2.63-1.75A7.74,7.74,0,0,1,154.44,11Z"/><path class="cls-1" d="M155.78,12.4l-2.24-1.08-2.28-1c2,1,3.14,1.6,3.79,1.91S155.86,12.54,155.78,12.4Z"/><path class="cls-1" d="M171.9,25.69l3.1,2.55c1.05.84,2,1.77,3,2.66-2.32-2.2-4.8-4.23-7.27-6.24C171.15,25,171.52,25.34,171.9,25.69Z"/><path class="cls-1" d="M136.75,3.91c.94.14,1.88.28,2.82.47-1.66-.36-3.33-.61-5-.87C135.31,3.61,136,3.78,136.75,3.91Z"/><path class="cls-1" d="M124.44,1.34c2.11,0-2.76-.9-.55-.76A65,65,0,0,0,115,.12,53.72,53.72,0,0,1,124.44,1.34Z"/><path class="cls-1" d="M110.62.13c1.37,0,2.8,0,4.36,0C113.52.07,112.07.06,110.62.13Z"/><path class="cls-1" d="M143.53,7A13,13,0,0,0,140,5.27c.58.34,1.16.65,1.72,1Z"/><path class="cls-1" d="M141.76,6.32l-.06,0c-2-.68-3.39-1.13-4-1.3C138.22,5.13,139.45,5.52,141.76,6.32Z"/><path class="cls-1" d="M144,7.11,143.53,7A.85.85,0,0,0,144,7.11Z"/><path class="cls-1" d="M162.2,17.28c-2.5-1.51-7.76-4.37-3-1C161.05,17.18,158.4,15.13,162.2,17.28Z"/><path class="cls-1" d="M146,8.5c.81.33,1.6.69,2.39,1.07s1.58.72,2.35,1.14c0-.15-.82-.72.52-.19-.86-.38-1.74-.72-2.62-1S146.93,8.79,146,8.5Z"/><path class="cls-1" d="M143.61,7.69c.82.24,1.62.54,2.43.81l-1.79-.76Z"/><path class="cls-1" d="M119.44,1.28c-2.26-.06-4.68-.26-7.44-.42,3,.29,6,.59,8.89.94C121.31,1.72,122.63,1.62,119.44,1.28Z"/><path class="cls-1" d="M130.41,3.13l-.5-.07C130.2,3.15,130.44,3.22,130.41,3.13Z"/><path class="cls-1" d="M84.72,1.38l.45,0,.09-.08Z"/><path class="cls-1" d="M121.38,1.94a42.39,42.39,0,0,0,4.83.56c-1.66-.25-3.43-.47-5.32-.7C120.7,1.84,120.66,1.88,121.38,1.94Z"/><path class="cls-1" d="M103,0l3.87.35A23,23,0,0,0,103,0Z"/><path class="cls-1" d="M129.19,2.78l.33.05C128.82,2.59,128.9,2.66,129.19,2.78Z"/><path class="cls-1" d="M129.19,2.78c-1.15-.18-2.07-.2-3-.28,1.35.2,2.61.38,3.7.56A6.83,6.83,0,0,1,129.19,2.78Z"/><path class="cls-1" d="M77.07,5.44c.14-.25,1.62-.71,3.69-1.19,1-.21,2.23-.39,3.47-.56s2.54-.22,3.79-.26c2.43-.36,2.83-.78,2.07-1.18a8.05,8.05,0,0,0-1.92-.55c-.85-.13-1.89-.23-3-.29C85,1.61,85,1.69,80,2.74l2.47-.21c1.08-.1,2.31-.21,3.35-.24,2.08-.09,3.39-.08,1.27.34-3.34.45-4.7.7-5.66.73s-1.48,0-3.12.22c1.43,0-.67.5-2.87,1.25s-4.51,1.62-3.71,1.76C73.58,6,75.48,5.48,77.37,5,77.49,5.05,75.46,5.7,77.07,5.44Z"/><path class="cls-1" d="M95,.66c.7-.06,1.41-.07,2.11-.11L93.68.5c-1.13,0-2.37-.09-4-.1-3.52.48-4.22.79-4.45.93C88.72.9,92.2.71,95.67.57Z"/><path class="cls-1" d="M106.54.62c-.83.19-2.51.29-3.59.43s-1.57.31,0,.55c6.15.13,4.32-.21,8-.22-9.94-.42,2.87-.1-4.3-.71,2,0,3.72.07,5.38.19L106.86.37l.22,0h0c.43.08.57.12.09.06H107a1.52,1.52,0,0,1-.46.15c-2.89-.18-.45-.13.46-.15,0,0,.11,0,.12-.06h0c-3.34,0-6.68,0-10,.15C99.19.57,101.84.5,106.54.62Z"/><path class="cls-1" d="M154.15,14.34c-.25-.18-.22-.2-.23-.24C153.34,13.84,153.11,13.75,154.15,14.34Z"/><path class="cls-1" d="M150.67,12.22A15.65,15.65,0,0,1,154,13.75c1.72,1.09-.11.17-.09.35.65.28,1.77.82,2.24,1s.36,0-1.53-1.22L154,13.6c-3.42-2.08-8-4.6-7.32-4.36.48.4.91.79,1.52,1.24S149.57,11.44,150.67,12.22Z"/><path class="cls-1" d="M129,4.1c-1.37-.25-2.74-.42-4.11-.64s-2.74-.35-4.12-.46c1.38.28,2.75.64,4.12,1l-.17-.25C129.32,4.58,128.37,4.16,129,4.1Z"/><path class="cls-1" d="M83.74,1.3Q84.27,1,84.79.7c-1.59.42-3.16.88-4.72,1.35C81.29,1.77,82.52,1.55,83.74,1.3Z"/><path class="cls-1" d="M73,3.39l.3-.48c-.93.3-1.84.65-2.75,1Z"/><path class="cls-1" d="M131.29,269l-.71,2.34C130.93,270.19,131.15,269.47,131.29,269Z"/><path class="cls-1" d="M137,252.52l0-.47C136.83,252.84,136.79,253.18,137,252.52Z"/><path class="cls-1" d="M72.73,28.72c3.36-.7,7.15-1,6.66-1.31l-1.11-.19C76,27.86,74.24,28.35,72.73,28.72Z"/><path class="cls-1" d="M189.71,121c0-.33.1-.68.13-1-.17-.85-.34-1.65-.48-2.36C189.46,118.59,189.63,119.74,189.71,121Z"/><path class="cls-1" d="M191.49,123.49c-.16,1.57-.29,3.13-.51,4.69C191.18,127.14,191.31,125.62,191.49,123.49Z"/><path class="cls-1" d="M64,327.57c-1,0-2,0-3-.07C65.56,328.32,63.56,327.71,64,327.57Z"/><path class="cls-1" d="M.69,81a50.67,50.67,0,0,0-.64,7.84C.24,85,1,82.05.69,81Z"/><path class="cls-1" d="M129.12,260.94c-.4,1.43-.52,2.06-.41,2.05C129.12,261.52,129.32,260.67,129.12,260.94Z"/><path class="cls-1" d="M.83,98c0-.56-.09-1.11-.14-1.68a49.5,49.5,0,0,1-.64-7.44A30.94,30.94,0,0,0,.83,98Z"/><path class="cls-1" d="M157.38,233.07c.12-.22.28-.48.4-.68S157.6,232.6,157.38,233.07Z"/><path class="cls-1" d="M208,145.65c-.19,1-.64,2.58-1.05,4.07A38.89,38.89,0,0,0,208,145.65Z"/><path class="cls-1" d="M33.94,23.13c1.78-1.5.25-.29,0,0Z"/><path class="cls-1" d="M44,17.88c-.38.3-.66.55-.65.67A2.46,2.46,0,0,1,44,17.88Z"/><path class="cls-1" d="M15.3,114.85h.19C14.83,114.78,14.94,114.79,15.3,114.85Z"/><path class="cls-1" d="M36.81,21.11c-.72.5-1.55,1.07-2.42,1.73Z"/><path class="cls-1" d="M36.31,21.24,37.94,20C38.13,19.79,37.9,19.91,36.31,21.24Z"/><path class="cls-1" d="M31.49,25.25c1-.87,2-1.66,2.9-2.41-.37.27-.53.38-.45.29Z"/><path class="cls-1" d="M42.64,333.85l.34.32C44.84,335.4,44.06,334.82,42.64,333.85Z"/><path class="cls-1" d="M130.71,23.52l-.27,0,.33.1Z"/><path class="cls-1" d="M138.7,26c-1.74-.46-3.12-.73-4.33-1.15-.62-.19-1.2-.4-1.78-.62a15.54,15.54,0,0,0-1.82-.63,26.53,26.53,0,0,1,2.23,2C134.87,25.72,136.8,25.75,138.7,26Z"/><path class="cls-1" d="M113.37,307.38c.6-.79,1.23-1.58,1.8-2.39l1.66-2.49a40.37,40.37,0,0,1-2.25,4.39c-.72,1.24-1.32,2.24-1.78,2.86-.88,1.26-.72,1.27,1.21-.88-.17-.39.6-1.78,1.71-3.74.52-1,1.14-2.13,1.8-3.33l1.88-3.67c2.55-5,4.88-10.1,4.42-10.75l1.83-3.36c-.45,1-.46,1.19-.91,2.17a19,19,0,0,0,2.48-6.26,42.16,42.16,0,0,1,2.5-7.95c1.23-3.09,2.13-5.24,1.57-3l2-7.06c.72-2,.76-1.43.06.56,1.16-3.51,2.38-7,3.63-10.49v.09c.35-1.56,1.34-5,1.85-6.72,1.24-2.55-.39,1.37,0,.76l2-5.83c1.29-2.18-.36,2.65-1.95,6.59,3.41-4.81,1.47-4.92,7.16-15.95l-2.16,5.38c2.2-3.12,3.72-7.38,7-13.07-.93,1.26-6.59,11.39-4.13,5.19a73,73,0,0,0,3.26-7.26c.47.19,1.86-3,3.85-7l.43.56A63.64,63.64,0,0,0,157,208c2.58-4.62,3.55-5.34,4.53-6.21,4.3-7.29-3.59,4.69,1.28-4.08,1.9-3,3.43-5.55,5-8.29s3.29-5.73,5.25-9.53c2.69-4.24-.09,1,1-.51l1.73-4.13c.53-1,.5-.57.49-.37,1.6-3.4-.38-.57,2.17-5.87,0-.87,1.62-3.44,3.39-6.74a47.4,47.4,0,0,0,4.48-11c.75-1.66.09.95.5.51.34-1.22.63-2.26.88-3.18s.42-1.7.59-2.39c.35-1.37.5-2.4.7-3.35s.32-1.86.47-3.05.29-2.65.44-4.72c.44-2.3.83-4.61,1.13-6.95-.93,5.11-.77-1.52-1.27-7.22-.23,1.81-.46,3.34-.62,4.37,0-3-.13-6-.37-9,0-1.09.34-.2.64,1.28-.07-.62-.14-1.2-.23-1.65,0-3.25.51-1.62,1,.71q-.15,1.68-.3,3.3c.39,2.25.79,4.39,1.17,3.92-.06-.6-.12-1.75-.15-3,.1.59.19,1,.26.7a12.71,12.71,0,0,0-.27-2.78l.66-2.13-.32-.49a108.29,108.29,0,0,0-.84-12.08c-1-4.22-2.31-8.07-3.81-12.47-.76-2.19-1.57-4.52-2.46-7.11-.45-1.3-.92-2.65-1.41-4.08s-1-2.94-1.61-4.53c1.57,3,1,.43,1.69.4a53.58,53.58,0,0,0,2.1,7.25,92.81,92.81,0,0,1,2.84,9.64c-.81-3.6-.35-2.88,0-2-1.21-4-2.56-8-4-12,.27.06.2-.6-.1-1.69s-.8-2.6-1.24-4.21c0,.68-.28.47-.66-.3s-1-2-1.69-3.57-1.51-3.22-2.32-4.84c-.42-.8-.78-1.6-1.21-2.3s-.82-1.33-1.18-1.87c.07-.23.33-.11,1,.75a31.32,31.32,0,0,1,2.89,5.39,27.22,27.22,0,0,0-1.82-4.08c-.69-1.09-1.38-2-2.07-2.89a45.24,45.24,0,0,1-4.47-6.46,13.25,13.25,0,0,0,1.75,2.41c-2-3-7.57-9.79-6-8.4.34.39.7.75,1,1.16-.82-1-1.8-2.06-2.83-3.23-.53-.57-1-1.21-1.63-1.78l-1.83-1.75-1.9-1.79c-.64-.59-1.36-1.12-2-1.67l-2.05-1.64c-.34-.26-.67-.54-1-.79L153.2,35l-4-2.61c-1.31-.69-2.52-1.31-3.57-1.83a11.63,11.63,0,0,0-4-1.51,5.32,5.32,0,0,1,2.31-.26l-4.47-1.25c-.75-.19-1.47-.44-2.23-.58l-2.26-.42c-1.5-.26-3-.6-4.47-.77L126,25.3c.84-.16-.09-1-.24-1.67s.52-1,4.72-.15c-1.17-.36-2.49-.76-4.15-1.19L125,22c-.46-.09-1-.15-1.48-.23-1-.15-2.19-.3-3.47-.45,1.64.38,3.9,1.72,1.66,1.42a33,33,0,0,0-5.29-1.39l-6.5-1c1.24.15,1.15.49.27.72a15.22,15.22,0,0,1-4.47.43c.61-.16-.3-1.14,1.13-1.22-3.25.3-6.49.67-9.71,1.17,2.41-.27.41-1-1.8-1.19.51.09-1.6.16-4.16.37s-5.58.57-6.87.83c1.39-.13,2.77-.22,4.16-.29a34.6,34.6,0,0,0-10.67,2.57l-4.09,1.69-6,2.31c1.12-.68,2.55-2.58-2.72-.59L62.53,29c-1.05.87-2.37,1.88-3.77,3.12-2.84,2.42-6.14,5.5-9.46,8.78-.52.31-1,.62-1.54,1a61.93,61.93,0,0,0-4.64,5.48,50.33,50.33,0,0,1,6.63-9.13,56.61,56.61,0,0,1,10.1-8.78c-1.9.9-2.19,1-2.7,1.2A26.85,26.85,0,0,0,53.29,33c-2,1,2.57-2.38,4.24-3.24a66.47,66.47,0,0,0-12,8.61c.23,0-.14.53-.79,1.32-.33.39-.73.85-1.17,1.34l-1.32,1.59c-1.8,2.17-3.43,4.48-3,4.43A66.72,66.72,0,0,1,49.9,35.3c.47.08-1.1,1.83-3.5,4.57s-5.53,6.59-8.49,10.7c-1.7,2,.12-2.29-.13-2.24L34.89,53c-1.25,2-2.38,4.08-2.68,4.45.61-1.32,1.22-2.63,1.91-3.93a36.15,36.15,0,0,0-3.55,6.8c-1,2.28-2,4.68-3.55,7.77-.44,1.1-1.26,2.7-1.87,4.13a7.57,7.57,0,0,0-.92,2.91c.88-1.8,2-2.66,2.82-2.75s1.39.56,1.3,1.82c-.07.19-.35,1-.74,2.12s-.83,2.63-1.23,4.2c-.83,3.12-1.31,6.58-1.55,7.89-.33,1.89-.7.47-.95-1.08s-.44-3.19-.84-1.55A21.31,21.31,0,0,1,23.35,89c-.11,1.25-.25,1-.36,1.09s-.21.6-.1,3.3c.84.84-.19,10.54.62,2.44a31.66,31.66,0,0,1-.18,5.36c-.09.73-.19,1.48-.31,2.42a30.54,30.54,0,0,1-.57,3.41c.22-.4.34-.28.38.21a6.73,6.73,0,0,1-.41,2.43,9.22,9.22,0,0,1-2,3.29,7.58,7.58,0,0,1-3.62,2.22c.27-.23-1-.21-1.5-.36a6.57,6.57,0,0,1-3.52-1,8.84,8.84,0,0,1-2.46-2.28,26.33,26.33,0,0,1-3.06-5.31A39.29,39.29,0,0,1,3.41,93.87c0-.46,0-1.87.07-2.91s.18-1.73.35-.73c-.07-.7-.2-1.37-.26-2.24a24.66,24.66,0,0,1,0-3.46c.24-1.45.37-1.75.38-1.46s0,1.17,0,2.09c-.07,1.85,0,3.86.39,1.66A3.44,3.44,0,0,1,4,85.38c-.05-.81,0-1.9,0-3.12a74.51,74.51,0,0,1,.8-7.46,7.39,7.39,0,0,0-.69,2.09,36.45,36.45,0,0,0-.54,3.8,54.3,54.3,0,0,0,0,8.24c-.41,0-.91-1.85-1.1-5.07a48.89,48.89,0,0,1,1.28-13c1-4.06,1.55-4.85,1.69-4.84s0,.83.21.13C7,62.52,8.09,60,8.93,58s1.42-3.49,2-4.86a39.11,39.11,0,0,1,2.1-4.32c.46-.8,1-1.7,1.66-2.72s1.51-2.12,2.49-3.43c3.52-3.82,1,.45,2-.24l-4.67,6.79c-.67.94-1.28,1.84-1.84,2.77S11.56,53.78,11,54.79c1-1.6,2-3.19,3-4.75-.5,1-1.21,2.45-2,3.93s-1.55,3-2.19,4.09C11,56.26,14,50.44,18.28,44.33A86.22,86.22,0,0,1,32.87,28.18c1.45-1.53,4.13-4,2.68-3.08l-2.82,2.51c-1.41,1-.25-.32.93-1.44s2.21-2.17.31-.68A63.35,63.35,0,0,1,48.4,14.66l1.48-.14A26.71,26.71,0,0,0,44,17.84a24.37,24.37,0,0,1,2.57-1.63l3.57-1.83a42.32,42.32,0,0,0,6.37-3.45c-1.59.56-3.15,1.21-4.7,1.87C54,11.44,56.54,10,59.26,8.6c1.38-.67,2.8-1.37,4.29-1.93.74-.29,1.49-.58,2.25-.84s1.55-.48,2.32-.7c-3,.32-1.4.46-6,1.38,2-.28-1.89,1.12-5.35,2.76a44.65,44.65,0,0,0-4.21,2.11c-.82.49-.84.63.68.1a32.11,32.11,0,0,0-3.16,1.19c-1,.44-1.92,1-2.9,1.48L45.69,15l-1.58.92-3.68,2c.28.06,2-.95-2.49,2.12-.16.2-.57.62-.83.88l-.3.21.25-.16c-.17.16-.18.18.09-.07a13.49,13.49,0,0,1,2.41-1.39c-.49.48-1.29,1.15-2.2,2s-2,1.67-3.08,2.65-2.14,1.89-3,2.78-1.65,1.65-2.14,2.19c-2.35,2.16.8-1.1-.61,0l-2.78,3.34c-.61,0-6.24,5.88-1.39,0L22.06,35,19.88,37.6A57.23,57.23,0,0,0,12.3,48.13c-1.79,2.7-3.59,7.31-2.55,4.68C8.93,54.4,8.18,56,7.4,57.62s-1.43,3.31-2.06,5l-.14.05a65,65,0,0,0-4.05,16A94.49,94.49,0,0,0,.69,96.3,51.71,51.71,0,0,0,2,102a36.81,36.81,0,0,0,2.9,7.32c.08.43.18.85.29,1.27.33.52.72,1.08,1.14,1.69.23.31.41.6.69,1s.55.72.89,1.06a10.92,10.92,0,0,0,5.24,3.21,9.53,9.53,0,0,0,3.12.27,9.42,9.42,0,0,0,2.67-.64,7.87,7.87,0,0,0,2.89-1.88,9.88,9.88,0,0,0,2.3-1.91,12.49,12.49,0,0,0,2.18-3.48,13.88,13.88,0,0,0,.74-2.23c.09-.39.18-.79.24-1.2s.1-.72.16-1.08c.18-1.41.32-2.9.41-4.41s.12-3,.11-4.57c0-.76,0-1.52-.06-2.26s-.05-1.42-.08-2.1A40.86,40.86,0,0,1,28,85.23l-.48-.34a68,68,0,0,1,3.8-16.07l-.57.2c1.73-5.36,6.38-13.14,11.87-20A30.57,30.57,0,0,1,40,52.56,135.31,135.31,0,0,1,51,40.58,43,43,0,0,1,63.85,32a29.63,29.63,0,0,1,2.83-1.41c.86-.37,1.68-.62,2.48-.89l-.54.24.91-.35c1-.32,2.08-.55,3.2-.88-1,.23-1.91.45-2.71.68l3.16-1.13C74.4,27.9,75.7,27.42,77,27l1.25.18.61-.16c2.66-.41,2.07-.7.58-.74l3.53-1c2.28.34,7.18-1.34,10.28-.69a56.33,56.33,0,0,1,7.87-.71c3.46-.17,6.89-.25,7.65-.64.1.11.92.19-.59.15,1.57.07,3.11.26,4.62.39s3,.21,4.38.2c.41.25.81.54,1.22.81l3.39.15a32.36,32.36,0,0,1,3.41.23c3.92,1.4,5.47,2,1.43,1.47A39.43,39.43,0,0,1,132,27.83l3.06.93c1.76.47,3.2,1.19,7.19,2.58l-.55.18c2.65,1.35,7.1,3.29,8.35,4.68.63.56,1.55,1.24,2.64,2.11s2.3,2,3.71,3.17,2.79,2.69,4.36,4.17c.77.77,1.48,1.64,2.25,2.49s1.6,1.69,2.3,2.66c1.44,1.91,3,3.81,4.34,6,.67,1,1.42,2.06,2,3.16l1.83,3.28c.65,1.07,1.11,2.23,1.65,3.33s1.08,2.18,1.48,3.3a67.85,67.85,0,0,1,2.26,6.41c0-1.77.53.17,1.18,2.58s1.26,5.43,1.78,5.64c0,1,.53,3.42-.47.78A102.82,102.82,0,0,1,184.1,95.6c.62,2.9,1.15,5.46,2,8.39-.11,1-.7-1.79-.72-.88a19.75,19.75,0,0,1,.66,3.63c0,.91-.43-1.23-.77-2.57a74,74,0,0,0,1.63,8.19,3.35,3.35,0,0,0,1.29,2,60.4,60.4,0,0,0,.38,10.16c-.34,1.58-.7,4.2-.59-1.38-.06,1.57-.3,6.36-.93,10.76s-1.53,8.32-1.27,8.56c-.36.92-1.21,4.21-1.39,5-1.1,3.36-1.82,5.15-2.5,6.93s-1.42,3.53-2.81,6.72l.87-1.72c-.39,2.84-2.21,5.37-4.7,10.42v-.18c-3.25,5.59-3.95,6.79-4.56,8a68.3,68.3,0,0,1-4.87,7.7l.77-.34c.13.77-1.49,3.11-3.59,6.08-1,1.5-2.17,3.16-3.27,4.86s-2.12,3.47-2.94,5.15c.51-.75,1-1.48,1.56-2.21-1.72,3.69-6.75,9.29-8.72,12.91-.48.76.52-1.32,1-2.47-5.43,9.31-.11,1.52-3.54,8.75-.94,1.18,0-2.1-2.35,2.74a32.84,32.84,0,0,0-1.53,3.36c-.63,1.59-1.39,3.56-2.21,5.65-1.6,4.21-3.42,8.94-5.07,12.25.85-1.41,1.69-2.8.48.72-2.05,5.29-6.4,14.05-7.24,19.2-.3.66-.45.9-.52.91-.61,2.12-1.59,5.43-2.63,8.54s-2.06,6-2.35,7.29c-1.51,1.52-4,7.71-6.56,13.34-1.28,2.82-2.55,5.51-3.59,7.44s-1.87,3-2.19,2.77a48.59,48.59,0,0,1-7.9,10.06l.13-.35c-1.45,1.44-2.83,2.44-3.93,3.39s-2.14,1.59-3,2.16-1.62,1.07-2.28,1.54l-1.93,1.19c-1.77.7-.56,0-.45-.16a47.46,47.46,0,0,1-11.91,3,70.67,70.67,0,0,1-11,.9l-1-.57a21.11,21.11,0,0,1-4-.46,40.53,40.53,0,0,1-6.86-1.83,33.33,33.33,0,0,1-7.62-3.9,30,30,0,0,1-6.38-6,4.76,4.76,0,0,1,.94.85,26.85,26.85,0,0,1-5-9,43.36,43.36,0,0,1-2.37-10.41c-.74-6.76.37-12.39,0-14.94.23-1.41.59-2.95.82-4.48q.19-1.16.3-2.34a10.21,10.21,0,0,0,0-2.65,8.68,8.68,0,0,1-.08,2.27c-.08.57-.17,1-.26,1.42a10.3,10.3,0,0,1-.39,1.44c-.19.44-.19,0-.16-.68,0-1.35.09-3.53-.4-1.16a11.1,11.1,0,0,0,.14-3.75,3.41,3.41,0,0,0-.85-1.63,4.21,4.21,0,0,0-1.31-.87c-.86-.36-1.42-.47-1.37-.55a1.39,1.39,0,0,1,.58,0,5.28,5.28,0,0,1,1.73.55,3.62,3.62,0,0,1,.77.69c.3.14.35.06.18-.22a3.07,3.07,0,0,0-1.32-1.06,6.85,6.85,0,0,0-1.28-.43,8.13,8.13,0,0,0-1.4-.19,10.75,10.75,0,0,0-3.1.22,10.2,10.2,0,0,0-3,1.17,10.76,10.76,0,0,0-2.27,1.79c-1.17,1.22-1.74,2.2-1.84,2a13.25,13.25,0,0,0-1,2.25c-.26.77-.42,1.43-.63,2.15s-.38,1.43-.56,2.14-.35,1.43-.48,2.15a57.28,57.28,0,0,0-1.18,8.72A56.35,56.35,0,0,0,20,304.1,61.76,61.76,0,0,0,26.41,320a58.7,58.7,0,0,0,10.37,13.34A24,24,0,0,1,35.47,331c.84,1,1.84,1.8,2.77,2.7.47.43.92.9,1.43,1.3l1.51,1.21c1.51,1.37,1.79,2.19-2.52-1.35a11.55,11.55,0,0,0,2,1.79,18.93,18.93,0,0,0,2.56,1.74A24.38,24.38,0,0,0,46.58,340c4.67,2.74,3.67,2.43,1.82,1.61-.92-.42-2.09-.9-2.76-1.31s-1-.53-.28-.06a20.5,20.5,0,0,0,2,1.14l2,1.08-.87-.57a32.16,32.16,0,0,0,4,1.48c.66.22,1.36.55,2.34.86s2.19.72,3.76,1.27c4,1.19,2,1,3.6,1.42,0,0,.12.08.5.18s1,.17,2,.31l2.43.42,2.47.22c.82.06,1.64.18,2.46.19h2.47a38.89,38.89,0,0,1-3.91-.66c1.08.06,2.2,0,3.19,0l2.46,0c.59-.07.91-.13.79-.19s-.65-.07-1.78-.26a18.2,18.2,0,0,0,3.46.09c.73,0,1.52,0,2.37-.11l2.66-.33A54.28,54.28,0,0,0,96,343.38a56.13,56.13,0,0,0,10.68-5.82l2-1.42,1.6-1.27c1-.73,1.64-1.35,2.05-1.65a94.8,94.8,0,0,0,12.06-15c-.53.74-1.11,1.23-1.09.9s.62-1.49,2.27-4.14c0,1.33,1.62-1,3.55-4.3s4.1-7.45,5.62-9.55c-1.28,1.91.65-2.12,2.23-5.95s2.87-7.4,1.12-4.28c2-4.81.59-.11,2.34-3.68,1-2.94,2.07-6,3.18-9.23s2.33-6.43,3.63-9.76c2.6-6.65,5.49-13.57,8.45-20.54-.06-.29-1.33,1.93-.26-1.16,1.33-2.33,2.72-4.64,4.12-6.92,1.21-2.74.25-2.95,3.25-7.56-.48.62-1.19,1.55-.34-.27,3.59-6.51,7.35-13,11.44-19.34s8.11-13,12-19.56l5.94-9.86c2-3.32,3.92-6.68,5.68-10.13a174.75,174.75,0,0,0,9.3-21.29c-1.62,3.88-.73,1.24.12-1.84-.64,2-.41-.16-.75.16a119.26,119.26,0,0,0,3.57-12.38,16.23,16.23,0,0,1,.23-3.18c.18-1.42.38-3.1.58-4.75s.31-3.28.38-4.58a9.73,9.73,0,0,0-.13-2.61c-.05,1.35-.05,2.71-.17,4.06-.11-2.72-.71-.86-1.38,1.53s-1.58,5.3-2,4.84a25.53,25.53,0,0,1-.64,5.07c-.45,1.85-.95,3.86-1.63,6-1.27,4.21-2.84,8.77-4,13.53-.9,2,.32-1.83-.27-.82-.11.61-.25,1.25-.43,1.94s-.45,1.42-.75,2.24a58.88,58.88,0,0,1-2.65,6.07c.05-.2.12-.4.17-.61A122.66,122.66,0,0,1,188,182.91l-11.14,17.47,1.09-.86c-2,3.18-2.6,3.77-3.63,5.2-1.69,4.06,5.64-9,4.22-5.2-1.72,1.9-5.24,7.48-8.78,12.95s-6.58,11-7.87,12.26c-2.78,5.17,1.26-1.28-1.47,3.91l-1,1.25-.33,1.49c-1.79,3.4-2.94,5-3.23,5,.42-.83,1.08-2.43,1.52-3.33a77,77,0,0,0-4,8.21c-1.25,2.85-2.22,5.37-2.62,6.13l2.44-5.09c-3.17,7.35-6.53,15.57-9.57,23.82-1.54,4.12-3,8.25-4.33,12.27s-2.67,7.79-4,11.37l.65-1a78.21,78.21,0,0,1-4.18,9.75c-1.14,2.19-2.35,4.5-5.29,10.16l.18-.43a64.47,64.47,0,0,1-4.52,8.29c.73-1.44-.16-.2-1,.88s-1.67,2-.64.22c-3.26,5.24-4.36,6.35-4.84,7.25l-.9,1.38-.85,1.25c-.39.52-.9,1.14-1.55,1.95-.53.37-1.08.7-1.64,1a27.24,27.24,0,0,1-2.28,2.49,32.05,32.05,0,0,1-4.74,3.69c1.07-.74,1.33-1.07,1.25-1.1a4.51,4.51,0,0,0-.94.38c-.88.35-1.64.7.61-1.07a83.21,83.21,0,0,1-13.71,6.71c-3.73,1.34-6.79,2.08-9.84,1.9-1.45.46-1.48.57-.74.63a28.39,28.39,0,0,0,3.81-.41c3.14-.55,6.48-1.64,4.88-1.07,1.42-.21.27.3-1.76,1-1,.29-2.28.63-3.54.9s-2.53.47-3.57.53a27.12,27.12,0,0,1-6.54-.32c-.64-.1-1.34-.14-2.09-.26s-1.57-.28-2.46-.41l-1.41-.2-1.53-.32-1.67-.32-.9-.16-.93-.24a15,15,0,0,0,2.11.37c-3.73-1-7.58-1.4-11.75-3.86-2.72-.56-5.44-3-6.48-2.77A50.74,50.74,0,0,0,55.11,341c-1.26-.53-2.55-.94-3.85-1.48s-2.62-1.12-4-1.88l-2.1-1.24c-.36-.22-.75-.43-1.11-.69L43,334.86c-.73-.57-1.52-1.15-2.3-1.83s-1.51-1.48-2.31-2.29c.65.34,2.7,2.12,4.29,3.11-.48-.46-1-.86-1.48-1.28s-1-.86-1.44-1.28-1-.85-1.46-1.3a16.36,16.36,0,0,1-1.32-1.52c.29,0,.9.57,1.82,1.37.47.39,1,.86,1.59,1.38s1.19,1.12,1.91,1.64l2.17,1.68c.73.59,1.56,1,2.33,1.56a27.05,27.05,0,0,0,4.49,2.34A20,20,0,0,0,48.79,337c-1-.54-2-1.19-2.84-1.7a10.08,10.08,0,0,1-1.83-1.3c-.29-.28-.2-.34.5-.06a16.15,16.15,0,0,1-3-1.8c-1-.83-2-1.78-3-2.8s-2-2.26-3.09-3.48c-.51-.63-1-1.27-1.62-1.91L33,323l-.85-1,.65.12a32,32,0,0,1-3.19-4.5l1.19,1.47,1.29,1.38a20.29,20.29,0,0,1-1.27-1.7c-.37-.6-.72-1.2-1.05-1.81s-.66-1.21-1-1.82-.53-1.27-.79-1.9c-1.09-2.5-1.87-5.06-2.84-7.59.86,2.7,1.47,4.17,1.73,5s.28.94.14.9-.9-.92,0,1.36a31.47,31.47,0,0,1-2.83-7,20.53,20.53,0,0,1-.63-3.85c-.06-1.14-.16-2.32-.3-4.18s-.45-4.4-.48-8.31c0,1.06,0,3,0,4.35a8.14,8.14,0,0,1-.07,1.27c0,.12-.16-.12-.27-.95a37.4,37.4,0,0,1,.53-8.76c1.21-10.33-.74,1.53-.46-2.91a17.77,17.77,0,0,0,.57-2.33,18.57,18.57,0,0,0,.28-2.1,34.62,34.62,0,0,1,.87-5.25l.47.12a10.22,10.22,0,0,1,1.39-2.65A9.73,9.73,0,0,1,27.25,269a8.46,8.46,0,0,0,1-1,2.17,2.17,0,0,1,1-.78,5.48,5.48,0,0,1,1.57-.4,6.21,6.21,0,0,1,1.25,0,6.28,6.28,0,0,1,1.47.2,10.33,10.33,0,0,0-1.89.18,8.53,8.53,0,0,0-1.81.59,8,8,0,0,1,2.27-.34,7.67,7.67,0,0,1,1.11,0,3.17,3.17,0,0,1,.69.17,1.75,1.75,0,0,0-.68.35,1.15,1.15,0,0,1,1.15.81,2.27,2.27,0,0,1,.07.81A12.41,12.41,0,0,1,34.3,271a29.55,29.55,0,0,1-.65,3c-.15.55-.3,1.13-.47,1.76s-.37,1.4-.56,2.2c.33-.72.48-.46.45.67s-.24,3.13-.42,6c-.24,1.93-.31,1.39-.39,1.37s-.06.11-.08.74a33,33,0,0,0,.12,3.81,15,15,0,0,1-.16-7.41c-.13-.38-.12-1.85-.2-2.25a31.08,31.08,0,0,0-.61,7.35,48.43,48.43,0,0,0,.66,6.38,24.41,24.41,0,0,1-.28-3.23,48.11,48.11,0,0,0,3.14,11.43c.42,1.81-.19.48-.8-.87.41,1.13.8,2.07,1.29,3.11s1,2.2,1.84,3.8c-.72-.67-1.17-.25-3.14-4.88A41.65,41.65,0,0,0,39.67,314a22.38,22.38,0,0,0,1.72,2.64c.76,1,1.35,1.74.76,1.23a24,24,0,0,0,4.19,3.57,31.41,31.41,0,0,0,5.51,2.85,61.35,61.35,0,0,0,12.39,3.25c.44,0,1.3,0,3.05.13a71,71,0,0,0,11.39.34A39.26,39.26,0,0,0,91,325.15c.87-.21,1.77-.35,2.62-.62l2.6-.81c3.26-1.84,1.52-1.17.37-.78-.58.18-1,.23-.66-.05.2-.14.57-.42,1.23-.84l1.21-.75.79-.48.86-.61,2.13-1.5c.53-.43.93-.73,1.24-.95.61-.43.85-.5,1-.46s-.09.67,1.16-.23l2.53-2.84,1.38-1.77c.5-.61,1-1.25,1.47-1.95,2-2.68,4-5.92,6.1-9.17-.56,1.15-1.14,2.16-1.7,3.13S114,306.35,113.37,307.38Zm33.34-78.84c-.6,1.54-1.64,4.66-2.37,5.65C144.58,232.25,145.4,231,146.71,228.54Zm43.11-120.23a23,23,0,0,1,.43,5.31C190.07,112.06,190,110.28,189.82,108.31ZM16.91,42a1.14,1.14,0,0,1-.09.16C14.54,45.13,15.34,44.06,16.91,42Zm5-6c.44-.66.36-.66.1-.44a35.16,35.16,0,0,1-2.65,3.4A17,17,0,0,0,21.89,35.92ZM63.09,347c-.5-.11-1-.32-1.47-.47a17.91,17.91,0,0,0,1.81.34A3,3,0,0,1,64,347,3.4,3.4,0,0,1,63.09,347Z"/><path class="cls-1" d="M191.28,123.14a1.21,1.21,0,0,1-.27.71C191.05,124.51,191.17,124.53,191.28,123.14Z"/><path class="cls-1" d="M64.51,327.57l-.27,0a1,1,0,0,0-.28,0Z"/><path class="cls-1" d="M22.62,88.93A18.47,18.47,0,0,1,23,85.81C22.94,85.71,22.73,86.44,22.62,88.93Z"/><path class="cls-1" d="M54,10c-1.48.79-2.94,1.62-4.42,2.43a45.17,45.17,0,0,1,4.1-2C53.57,10.38,52.63,10.66,54,10Z"/><path class="cls-1" d="M96.44,2.92c.71-.08,1.52,0,2.22-.12l-.2-.22C95.4,2.64,93.28,2.94,96.44,2.92Z"/><path class="cls-1" d="M58.91,9.44c.54.24,3.32-1.17,6.59-2.37l-.58.21C65.71,6.4,62.23,7.78,58.91,9.44Z"/><path class="cls-1" d="M66.26,6.79c1-.34,2.06-.68,3.06-1C69.65,5.47,68.06,6.16,66.26,6.79Z"/><path class="cls-1" d="M28.47,28.47c1.29-1.07.41-1.1,1.21-1.62.53-.82-1.46,1.16-2.63,2.65S25.34,31.8,28.47,28.47Z"/><path class="cls-1" d="M62,9.6H60.69c-.54.37-1.09.73-1.62,1.12Z"/><path class="cls-1" d="M38.29,22.69c1.46-1.12,3-2.08,4.54-3.12-.12,0,.43-.47,1.14-.95C41.12,20.46,38.08,22.63,38.29,22.69Z"/><path class="cls-1" d="M44,18.62c1.5-.94,2.89-1.89,3.72-2.43C46.84,16.65,45.14,17.81,44,18.62Z"/><path class="cls-1" d="M55.24,12.8l-1.49.65c-1.14.6-2.32,1.14-3.44,1.79C51.93,14.38,53.6,13.6,55.24,12.8Z"/><path class="cls-1" d="M4.69,70.4c-.5,1.95-.9,3.92-1.23,5.9.07.64.43-1,.89-3.15C4.53,71.72,5.11,69.56,4.69,70.4Z"/><path class="cls-1" d="M13,54.31a22,22,0,0,1-1.57,2.14l.46.44C12.23,56,12.56,55.15,13,54.31Z"/><path class="cls-1" d="M6.32,70.2c-.05.61-1.59,8.38.16,1.16C6.41,70.73,8.08,65.07,6.32,70.2Z"/><path class="cls-1" d="M25.35,79.74c-.1.5-.2,1-.27,1.51l1,0C25.84,80.72,25.6,80.24,25.35,79.74Z"/><path class="cls-1" d="M76.55,22.23c-3.59.81-3.94,1.16-4.24,1.38S71.82,24,68.64,25c-1.54.77,5.19-1.5,3.59-.73L75,23.32c.77-.25,1.38-.42,1.79-.57C77.57,22.46,77.62,22.31,76.55,22.23Z"/><path class="cls-1" d="M72.23,24.25c-.66.24-1.35.55-2.08.86Z"/><path class="cls-1" d="M211.48,129c.21-1.54.47-3.08.62-4.63-.15,1-.39,2-.59,3Z"/><path class="cls-1" d="M211.36,120.06,212,119l-.53-2.8A26.3,26.3,0,0,1,211.36,120.06Z"/><path class="cls-1" d="M153.3,217.75l0-.38a21.33,21.33,0,0,0-1.9,3.39Z"/><polygon class="cls-1" points="129.89 274.65 130.29 273.65 129.02 275.33 129.89 274.65"/><path class="cls-1" d="M102.56,320.43a36,36,0,0,0,2.86-2.3c1-.81,1.81-1.74,2.67-2.51a33.08,33.08,0,0,1-2.48,2.25c-.78.57-1.45,1-2,1.41C102.6,320,102.08,320.29,102.56,320.43Z"/><path class="cls-1" d="M154.71,125.28a2.68,2.68,0,0,1-2.56-2.23,23.79,23.79,0,0,1-.31-3.44c-.13-7.28-2.33-14-5-21.11-3.35-9-8.49-15.07-16.16-19.31-9.63-5.33-21.17-9.77-31.38-5.65-6.27,2.54-11.52,5.57-17.07,18.66a11.65,11.65,0,0,0-.65,2c-5.77,23.71-12,50.07,3.06,69.59,13,16.89,29.83,23.46,24.74,52.61-5.57,13.62-13.82,26.49-28.51,28.48-9.67,1.32-15.28.16-20.59-7.88-2.92-4.42-2.54-9-.43-13.86,3.76-8.69,10.32-10.45,13.58-19.35,2-5.6-4.29-21.22-7.94-25.93s-6.9-9.42-10.67-13.86A16.47,16.47,0,0,1,50.7,153c0-7,1.78-13.55,6.76-18.73,4.78-5,6.1-10.73,6-17.48-.17-8.16-.29-16.53,1.23-24.49C68,74.72,82.48,62.58,101.05,60.42c23.71-2.75,44.61,8.58,53.38,30.77,4.47,11.31,5.81,19.47,3.54,32.21,0,0,0,0,0,0C157.76,125,156.12,125.32,154.71,125.28Z"/><path class="cls-1" d="M155.63,127.69c-1.26,0-.79.4-1,.49,1.05,0,1.33-.26,1.29-.36S155.6,127.64,155.63,127.69Z"/><path class="cls-1" d="M160.52,111.53l.18.28c-.15-.78-.31-1.56-.5-2.32C160.33,110.16,160.44,110.84,160.52,111.53Z"/><path class="cls-1" d="M158.08,97c-.25,1.51,1.6,5.09,1.73,7.77l-.1.46.74,1.1C160,103.1,158.59,99.16,158.08,97Z"/><path class="cls-1" d="M156.81,89.08c-.07.56-.88-1.5.64,1.75a1.89,1.89,0,0,1,0-.33C157.29,90.2,157.11,89.79,156.81,89.08Z"/><path class="cls-1" d="M157.4,90.5c.57,1.44-.15-1,0,0Z"/><path class="cls-1" d="M154.13,83.91l1.23,1.74c-.06-.46-.93-2.14-.49-1.58C153.7,82.22,153.78,82.7,154.13,83.91Z"/><path class="cls-1" d="M152.73,82.42l.61.9A1.63,1.63,0,0,0,152.73,82.42Z"/><path class="cls-1" d="M154.63,85.23l-1.29-1.91c0,.32-.15.46.57.89C153.64,84.14,154,84.44,154.63,85.23Z"/><path class="cls-1" d="M155.12,86.44c.34,1.14.85,2.55-.21.75C156.6,90.77,156.83,90.06,155.12,86.44Z"/><path class="cls-1" d="M157.15,96.51c.1.49.17,1,.25,1.5s.41.79.59,1.19C157.71,98.6,157.35,96.34,157.15,96.51Z"/><path class="cls-1" d="M146.76,73c-.2,0,.19.8.15,1,.39.35.82.66,1.17,1C147.67,74.41,146.66,73.26,146.76,73Z"/><path class="cls-1" d="M146.91,74.06l-1.77-1.51C146.53,74.07,146.88,74.27,146.91,74.06Z"/><path class="cls-1" d="M151.87,82.51l2.27,3-1.31-1.84a21.07,21.07,0,0,0-1.37-1.78Z"/><polygon class="cls-1" points="140.08 67.02 141.37 67.55 139.14 66.54 140.08 67.02"/><path class="cls-1" d="M135.08,63.78c.49.14.26-.15,0-.42s-.48-.48,0-.32a26.43,26.43,0,0,0-4-1.47A18.13,18.13,0,0,1,135.08,63.78Z"/><path class="cls-1" d="M129,61.08c.64.18,1.32.32,2.06.49A14.68,14.68,0,0,0,129,61.08Z"/><path class="cls-1" d="M142.3,69.81a2.88,2.88,0,0,0-.23-.49,4.16,4.16,0,0,0-.9-1c.15.3.32.58.45.9Z"/><path class="cls-1" d="M141.64,69.23l0,0c-.76-.63-1.32-1-1.55-1.22C140.27,68.14,140.76,68.5,141.64,69.23Z"/><path class="cls-1" d="M142.47,70l-.17-.16C142.34,69.9,142.37,70,142.47,70Z"/><path class="cls-1" d="M148.78,77.38c-1-.91-2.94-2.91-1.56-.58C148,77.37,147.24,76,148.78,77.38Z"/><path class="cls-1" d="M143,71.12c.57.58,1.2,1.1,1.71,1.73,0-.11-.14-.55.4-.15A23.18,23.18,0,0,0,143,71.12Z"/><polygon class="cls-1" points="141.97 70.42 142.95 71.12 142.3 70.49 141.97 70.42"/><path class="cls-1" d="M132.72,63.21c-1-.32-2.06-.86-3.3-1.29,1.28.56,2.53,1.31,3.76,1.93C133.41,63.82,134.07,63.88,132.72,63.21Z"/><path class="cls-1" d="M137.19,65.93l-.21-.11C137.08,65.93,137.18,66,137.19,65.93Z"/><path class="cls-1" d="M117.08,58.39l.19.11a.2.2,0,0,1,.06-.07Z"/><path class="cls-1" d="M133.35,64a11.91,11.91,0,0,0,2.06,1l-1.06-.59-1.17-.57C133.07,63.86,133,63.89,133.35,64Z"/><path class="cls-1" d="M125.56,60c.49.27,1.08.49,1.66.8A5,5,0,0,0,125.56,60Z"/><path class="cls-1" d="M136.74,65.53l.15.07C136.64,65.34,136.65,65.4,136.74,65.53Z"/><path class="cls-1" d="M136.74,65.53c-.5-.23-.91-.37-1.33-.52.57.31,1.1.59,1.57.81A2,2,0,0,1,136.74,65.53Z"/><path class="cls-1" d="M113,60.64a2.53,2.53,0,0,1,1.79-.3,12.44,12.44,0,0,1,3.29.63c1.12.09,1.4-.25,1.17-.77a3,3,0,0,0-.71-.88,7.12,7.12,0,0,0-1.25-.82c-.1.16-.13.31-2.53.2.82.33,5.14,1.27,3.1,1.33-3.11-.25-2.5-.54-4-.92,1.22.58-4,.44-3.35,1.21l2.69-.07C113.23,60.37,112.24,60.48,113,60.64Z"/><path class="cls-1" d="M121.76,59.46l1,.18a23.44,23.44,0,0,1-3.24-1.3,7,7,0,0,0-1.66-.05c-.32,0-.45.08-.51.14l1.2.19,1.2.28,2.38.58Z"/><path class="cls-1" d="M127,61c-.89.13-3.19-.38-2,.49.68.21,1.16.33,1.5.41a3.52,3.52,0,0,0,.74.14,5.61,5.61,0,0,1,1.45.24c-4.37-1.67,1.34.29-1.72-1.22.89.28,1.67.57,2.41.86-.77-.38-1.51-.75-2.2-1.12l.09.07h0c.17.13.22.19,0,.07l-.1,0A.44.44,0,0,1,127,61c-1.27-.51-.16-.2.25-.07,0,0,.07,0,.08,0h0c-1.51-.47-3-.83-4.57-1.23C123.68,60,124.88,60.34,127,61Z"/><path class="cls-1" d="M144.93,75.57c-.07-.13,0-.15,0-.17C144.66,75.22,144.56,75.16,144.93,75.57Z"/><path class="cls-1" d="M143.84,74a4.64,4.64,0,0,1,1.29,1.1c.54.77-.16.13-.23.27.52.39,1.79,1.45.55-.18l-.27-.2c-.58-.71-1.16-1.62-1.62-2.29s-.76-1.1-.62-1A9.78,9.78,0,0,0,143.84,74Z"/><path class="cls-1" d="M136.05,66.67a32.55,32.55,0,0,0-3.43-1.75c.51.42,1,.78,1.53,1.25l0-.24C136,67.15,135.72,66.67,136.05,66.67Z"/><polygon class="cls-1" points="116.66 58.11 117.25 57.74 114.91 58.04 116.66 58.11"/><polygon class="cls-1" points="111.58 57.63 111.79 57.25 110.43 57.39 111.58 57.63"/><path class="cls-1" d="M102,226.12l.44-1A8,8,0,0,0,102,226.12Z"/><path class="cls-1" d="M97.65,232.35l0,.27C97.83,232.28,97.86,232.12,97.65,232.35Z"/><path class="cls-1" d="M48.79,146.24c-.7,1.64-1.41,3.57-.95,3.39l.48-.49A10.94,10.94,0,0,1,48.79,146.24Z"/><path class="cls-1" d="M62.54,218.67l.38-.3c.11-.4.22-.78.34-1.11C63,217.67,62.79,218.17,62.54,218.67Z"/><path class="cls-1" d="M63.41,220.58c-.45.49-.83,1-1.24,1.55C62.49,221.8,62.83,221.26,63.41,220.58Z"/><path class="cls-1" d="M102,187.78a11.25,11.25,0,0,0-1-.74C102,188.57,101.69,187.78,102,187.78Z"/><path class="cls-1" d="M66.76,79.68a18.43,18.43,0,0,0-1.88,3.2,21.11,21.11,0,0,1,1.33-2A2.12,2.12,0,0,0,66.76,79.68Z"/><path class="cls-1" d="M104.25,231.24c.32-.63.41-.93.32-1C104.23,230.92,104.07,231.3,104.25,231.24Z"/><path class="cls-1" d="M63.37,86.88c.11-.24.22-.47.34-.71a17.24,17.24,0,0,1,1.17-3.29,18,18,0,0,0-1,1.86A8.18,8.18,0,0,0,63.37,86.88Z"/><path class="cls-1" d="M127.5,74.73a2.36,2.36,0,0,1,.31.2C127.87,74.89,127.73,74.82,127.5,74.73Z"/><path class="cls-1" d="M149.36,113.68c-.09-.42-.23-1.12-.37-1.78A15.64,15.64,0,0,0,149.36,113.68Z"/><path class="cls-1" d="M91.19,59.78c1-.34.15-.09,0,0Z"/><path class="cls-1" d="M96.68,60.12c-.21.1-.36.2-.36.3A.74.74,0,0,1,96.68,60.12Z"/><path class="cls-1" d="M63.93,97.79v.09C64,97.58,64,97.63,63.93,97.79Z"/><path class="cls-1" d="M92.82,59.5c-.41.06-.87.16-1.38.28C91.67,59.74,92.09,59.66,92.82,59.5Z"/><path class="cls-1" d="M92.55,59.36l.93-.23C93.6,59,93.47,59,92.55,59.36Z"/><path class="cls-1" d="M89.74,60.28a11.11,11.11,0,0,1,1.7-.5c-.21,0-.3,0-.25,0C90.89,59.9,90.44,60,89.74,60.28Z"/><path class="cls-1" d="M74.73,122l.06-.22C74.73,120.68,74.7,121.14,74.73,122Z"/><path class="cls-1" d="M61.82,169.53l-.09-.08.08.13Z"/><path class="cls-1" d="M64.31,172.32a7.52,7.52,0,0,1-2.5-2.74l-.26,1.74Z"/><path class="cls-1" d="M107.72,209.35a21.07,21.07,0,0,1-.58,2.44c0-.76-.12-1.46-.17-2s-.09-1.05-.11-1.36c-.07-.62-.15-.58-.48.54.34.11.48.75.54,1.67a29.46,29.46,0,0,1-.29,3.33c0,.3-.08.6-.11.89l0,.44,0,.26a.34.34,0,0,1,0,.1l0,.06-.06.18q-.14.38-.24.72c-.28.91-.38,1.59-.11,1.8l-1,1.41c.21-.43.17-.53.38-1a4.43,4.43,0,0,0-1.06,2.76,6.41,6.41,0,0,1-1.2,3.5c-.82,1.22-1.52,2-1.14,1-.44,1-.93,1.95-1.44,2.91-.54.77-.61.44-.07-.32-.42.7-.89,1.36-1.36,2s-1,1.32-1.47,1.94v0a17.12,17.12,0,0,1-1.53,2.71c-1,.76.33-.56,0-.44-.52.75-1.14,1.4-1.72,2.09-.53.24-.43-.09,0-.61s1.1-1.25,1.73-1.92A3.78,3.78,0,0,0,93.89,236a6.14,6.14,0,0,1-1.2,1.27,12.5,12.5,0,0,1-1,.78,13.75,13.75,0,0,1-1.54.77,19.66,19.66,0,0,0,1.9-1.51c-1.68.33-3.08,1.57-5.67,2.19a22.62,22.62,0,0,0,2.61-.45c.49-.05.86-.15,1-.06s0,.34-.55.74a19.11,19.11,0,0,0-3,1.54c-.09-.22-.47-.16-1,0s-1.37.4-2.25.68l0-.66c-1.87.56-1.65.86-2.81,1.33a6.12,6.12,0,0,1-2.37-.09,2.9,2.9,0,0,1-1-.55c-1.78,0-1.16.21-.62.41s1,.46-1.12.56c-1.49-.12-2.7-.21-3.93-.4a13.71,13.71,0,0,1-4-1.17c-.77-.62-.61-.69-.38-.6s.63.18.39-.07a13.44,13.44,0,0,1-1.67-.66c-.31-.31-.1-.33,0-.34-.61-.43-.75-.34-1-.33s-.51-.06-1.38-1c-.24,0-.52-.33-.83-.81a17.59,17.59,0,0,1-.93-1.89c-.61-1.43-.94-3-1.48-4.38.11-.7.43.29.65.05a9.32,9.32,0,0,1-.33-2.13c0-.55,0-1,0-1.35a25.2,25.2,0,0,1,.31-3.26,24.59,24.59,0,0,1,1.61-2.56c-1.37,1.77-.82-1.07.37-3.46A15.47,15.47,0,0,0,61,220.06a29.46,29.46,0,0,1,2.2-3.65c.41-.33.3.15.08.85l.36-.7c1.17-1,.91-.15.52.89-.41.3-.83.61-1.22.92-.32,1-.4,2.07,0,2.09a5.35,5.35,0,0,1,.58-1.17c-.07.27-.09.45,0,.4s.26-.48.51-1.1c.37-.1.76-.18,1.12-.26L65.1,218c1.22-1.23,2.56-2.38,3.94-3.63a36.18,36.18,0,0,0,2.95-5.5c.22-.5.41-1.06.64-1.6l.6-1.75c.16-.62.39-1.24.53-1.94,0-.36.15-.72.17-1.09s0-.75,0-1.14c.4,1.6.83.42,1.44.51-.31.9-.66,2.45-1.12,3.76A14.5,14.5,0,0,1,72.11,210c1.07-1.44,1.09-1,.93-.52a26,26,0,0,0,1.26-2.87c.2-.48.33-1,.48-1.47l.22-.74c.07-.27.11-.59.16-.88.21.15.46-.24.59-.85a18.24,18.24,0,0,0,.26-2.29c-.5.65-.62-.57-.94-2.11-.13-.78-.34-1.64-.52-2.47a16.37,16.37,0,0,0-.68-2.13c.27-.23.83.2,1.34,3.15a5,5,0,0,0-.3-2.08,6.41,6.41,0,0,0-.77-1.5,7.45,7.45,0,0,1-1.38-3.37c.24.67.3,1,.55,1.26a22.22,22.22,0,0,1-1.2-3.12c-.35-1-.51-1.81-.2-1.42l.27.66a43.21,43.21,0,0,0-3.94-8.16,18.21,18.21,0,0,0-1.36-1.86c-.45-.56-.85-1-1.22-1.35-.74-.75-1.3-1.22-1.57-1.23a3.27,3.27,0,0,1,1.48,0l-7.2-4.84c1,.14.72-3.14,3.36-.33a19.06,19.06,0,0,0-2.95-3.79c.39.66.32,2.13-.36,1.36a18.8,18.8,0,0,0-1.06-2.32l-.54-.92c-.23-.39-.58-1-.91-1.65.54.88-1.14.77-2-.71.28.12.88-.72,1.3-.3a14.9,14.9,0,0,1-2.81-3.1c.55.91.92-.18,1-1.07,0,.23-.29-.57-.44-1.57s-.15-2.19-.19-2.76c-.1.6-.16,1.13-.21,1.7a23.43,23.43,0,0,0-.21-2.73,19.31,19.31,0,0,0-.42-2,8.65,8.65,0,0,1,0-4.87c.08.65,1,1.68,1.78-.53a14.21,14.21,0,0,1-.33-3.75,11.76,11.76,0,0,1,2-6c.27-.17.56-.3.83-.45l1-1.35c.31-.43.58-.88.85-1.33a12.14,12.14,0,0,1-.72,2.09c-.36.86-.85,1.86-1.23,2.88a29.45,29.45,0,0,0-1.45,5.73,3.4,3.4,0,0,1,.76-1,13.45,13.45,0,0,0,.91-1.56c.72-.58-.29,1.39-.55,2.07A20.12,20.12,0,0,1,59,137c-.16-.06-.1-.32.1-.69l.16-.29.26-.39.59-.82c.78-1.16,1.43-2.38,1.12-2.42a24.44,24.44,0,0,1-2.14,3.2,22,22,0,0,0-1.79,2.69c-.34-.09-.23-1.13.52-2.54.34-.69,1-1.54,1.56-2.46s1.21-1.91,1.82-2.93c.83-.95.6,1.4.8,1.44.09-.34.6-1.43,1-2.52s.78-2.16.93-2.36q-.16,1.06-.42,2.13a9.19,9.19,0,0,0,.94-3.65,18.64,18.64,0,0,1,.71-4c.18-1.1,1-3.33.64-3.53-.8,1.85-3.19,2-3.74.88.12-.3.67-5.53,1-6.75.59-1.75,1.47,2.6,2,1.11-.19-.06-.43-1-.5-1.42.15-1.11.57.45.47-2-.69-.41.1-4.89-.57-1.14-.17-2.36.16-2.5.23-5.25-.48.86-1.4-2.55-1.35-5,.16.16.44-.35.57-.6a41.53,41.53,0,0,1,1.14-6c.24-.87.49-1.73.74-2.64s.66-1.84,1-2.91c.3-.33,1.33-2.22,1.24-1.27a7.16,7.16,0,0,1,.75-2.5c.88-1,.54-.34.19.41s-.64,1.62.06.85c-.28-.31,1.07-3.37,2-5.1-.4.09-1.09,1-1.66,2.18a22.51,22.51,0,0,0-1.32,3.53c-.38-.16-.5-1.15-.12-2.61a18.6,18.6,0,0,1,2.4-5.56c2.19-3.23,1.44-1,1.76-1.61a44.9,44.9,0,0,0,4.17-5.11,11.63,11.63,0,0,1,4.43-3.61c2.31-.85.65.83,1.31.87-2.46,1.85-4.08,2.45-5.66,3.86.67-.55,1.44-1,2.15-1.45a18.17,18.17,0,0,1-1.45,1.42A12,12,0,0,1,75.48,72c.88-.49,3-2.56,5.93-4.39a33.32,33.32,0,0,1,9-4.22c.82-.55,2.39-1.15,1.56-1.14a15.88,15.88,0,0,0-1.62.62c-.81.08-.11-.35.55-.73s1.3-.62.2-.39a21.39,21.39,0,0,1,8-2.45l.71.51a6.39,6.39,0,0,0-3.09.34c1.33-.59,5.12,0,6.54-.85L100.89,59c1.17-.25,2.48-.59,3.88-.88a18.29,18.29,0,0,1,4.4-.27c-1.37-.6-.68.07-2.84-.62.94.45-1,.39-2.76.58s-3.4.27-1.88.61a8,8,0,0,0-3.13-.17l-1.65.14a17.39,17.39,0,0,1-2,.09c.13.18,1.09.14-1.43.63a3.46,3.46,0,0,1-.49.33l-.17,0,.14,0c-.1.06-.1.07.05,0a3.57,3.57,0,0,1,1.34,0,22.48,22.48,0,0,1-3,1.31,20.94,20.94,0,0,0-3,1.39c-1.43.44.5-.44-.35-.35-.59.33-1.15.75-1.71,1.14-.35-.33-4,1-.84-.72l-1.46.69-1.42.78a15.72,15.72,0,0,0-2.85,1.46,12.82,12.82,0,0,0-2.38,1.8,12.35,12.35,0,0,0-1.73,1.6c-.39.47-.53.7-.16.11A45.21,45.21,0,0,0,72,72.44l-.12,0a33.12,33.12,0,0,0-4.39,6.37c-.63,1.18-1.23,2.39-1.87,3.61-.29.62-.59,1.25-.91,1.87l-.5,1c-.15.32-.31.64-.46,1-.2.83-.44,1.65-.66,2.62s-.48,2.09-.82,3.45l-.48.46c-.28,2.11-1.23,6.28-.87,7.22-.62,1.09-.83,3.66-.83,6.37s.18,5.57.12,7.37l.51.13c0,1.23.07,2.5.14,3.7s.11,2.48.06,3.89l.46-.13a11.49,11.49,0,0,1-.91,4.43,25,25,0,0,1-2.62,4.75,5.37,5.37,0,0,1,1-1.59c-.75.84-1.43,1.72-2.17,2.6-.17.23-.36.44-.54.66l-.59.72a19,19,0,0,0-1.28,1.71,75.29,75.29,0,0,0-3.85,7.07,18.33,18.33,0,0,1-.88,2.84c0-.11,0-.21,0-.3l-.13.49c-.21.5-.4,1-.59,1.61.2-.49.4-1,.52-1.35a20.65,20.65,0,0,0-.45,3.71l-.54.54c0,.11,0,.2,0,.32-.28,1.35.15,1.1.56.41a13.27,13.27,0,0,0,.19,1.81,3.61,3.61,0,0,0-.24,2.42,8.28,8.28,0,0,1,.08,2.88c.3.44.81,2.22,1.72,3.77s2.06,2.85,2.62,2.87c-.06.11.14.46-.31-.13a15.33,15.33,0,0,0,2.7,3.27l-.1.85,2.57,2c.85,1.74,1.15,2.5-.36,1.28,3.32,3.21,2.43,2.81,5.36,5.5l-.43.09a24,24,0,0,0,1.67,1.81,3.79,3.79,0,0,1,1.09,1.58c.48,1.42,2.25,4.73,3.8,8.82a52.42,52.42,0,0,1,2,6.44,19,19,0,0,1,.6,6.06c.27-.33.39-.31.42-.05a5.8,5.8,0,0,1-.21,1.15c-.07.22-.19.39-.26.59s-.08.2-.11.29l-.17.34c-.19.43-.26.78-.08.94-.42.3-1,1.11-.72,0a13.13,13.13,0,0,1-2.29,3.8,17.47,17.47,0,0,0-2.18,3.09c-.51.14.28-.89-.12-.71A3.93,3.93,0,0,1,65,211.84c-.4.18.24-.59.58-1.13A10,10,0,0,0,63.33,214a1.75,1.75,0,0,0,.15,1.53,6.86,6.86,0,0,0-2.76,4c-.32.25-.67.65-.81.66s-.09-.38.64-1.55A24.15,24.15,0,0,0,58,223.29c-.84,2-1.16,4.15-.84,4.28a6.45,6.45,0,0,0-.21,2.64,13.35,13.35,0,0,0,.49,3.75A12.71,12.71,0,0,0,59,237.33c-.14-.3-.28-.59-.4-.9a5.21,5.21,0,0,1,1.54,1.71A13.52,13.52,0,0,0,62,240.76h-.11l.65.85.6.64a7.53,7.53,0,0,0,.92.86,5.21,5.21,0,0,0,1.11.75c.31.15.59.35,1.16.67A19.9,19.9,0,0,0,69.25,246l-.19-.56c.43-.41,1.65.16,3.35.56a13.46,13.46,0,0,0,5.54.36c-.42,0-.85-.12-1.28-.19a10.41,10.41,0,0,1,3.65.26,14.63,14.63,0,0,0,3.87.29c.45,0-.65.28-1.26.45a7.72,7.72,0,0,0,2.41-.41c.36-.13.37-.24.34-.37s-.31-.48,1.51-1.18c.79,0-.59,1.16,1.94.21a5.33,5.33,0,0,0,1.65-.84l1.18-.78c.41-.3.82-.66,1.26-1,1.77-1.36,3.49-3.11,5-4.09-.76.34-1.5.66-.32-.67a18.93,18.93,0,0,1,1.68-1.62c.64-.57,1.26-1.22,1.91-1.85a10.51,10.51,0,0,0,2.63-4c.24-.25.37-.32.44-.3,1-1.82,3.05-5.89,3.13-7.2a4.42,4.42,0,0,0,1.71-2.22c.27-.57.55-1.21.79-1.88l.36-1,.18-.53a3.68,3.68,0,0,0,.23-.71c.06-.77.11-1.53.16-2.23s.1-1.26.17-1.77c.16-1,.37-1.66.73-1.62l.11-3.16c0-.53,0-1.05,0-1.58l-.1-1.59.16.16c0-1-.07-1.87-.13-2.6a11.2,11.2,0,0,0-.38-1.83,17,17,0,0,0-.87-2.37c-.11-.93.19-.3.29-.24-.31-1.46-.57-2.6-.8-3.55a21.87,21.87,0,0,0-.92-2.37,20.86,20.86,0,0,0-3-4.53l.14-.69a10.33,10.33,0,0,1-1.09-1.67c-.46-.85-1.16-1.82-1.89-2.95a41.88,41.88,0,0,0-2.64-3.4,31.48,31.48,0,0,0-3.11-3.11c.08,0,.23,0,.59.29a64.72,64.72,0,0,1-6.81-7.5,41.82,41.82,0,0,0-2.79-3.26,5.06,5.06,0,0,0-2.3-1.65l-.72-.72-.66-.76-1.32-1.53c2.86,4.39-1.09-.2-.11,1.75a11.08,11.08,0,0,1-1.56-2.77c-.23-.76-.15-1,.49.08,0,.14.1.26.14.38.35.06.26-.22.07-.77a19,19,0,0,0-1-2.05c-.85-1.49-1.45-3.22-1.15-3.27a44.4,44.4,0,0,1-3.37-14.63,91,91,0,0,1,.5-14.71l-.84,1,.39-3.38c.27-.87.7-1.12.41,1.28a8.63,8.63,0,0,0,0-4.17c1-4.66.58,2,.81.52l.22-2-.15.43a12.89,12.89,0,0,1,.21-4.7c.46-1.8.62-.85.78-1.56,0,0,.12-.23.24-1.1.3-1.4.6-2.8.94-4.2L80,108.25c.13-1.93.91-4-.16-2.15.8-1.33,1.78-5.24,2.7-9,.24-.93.45-1.93.68-2.75A16.9,16.9,0,0,1,84,92.15a17.7,17.7,0,0,1,1.38-2.77,21.78,21.78,0,0,1,4-7.29c-.28.27-.63.41-.68.21s.16-.76,1.11-1.79c.18.83,1.08-.05,2.33-1a9,9,0,0,1,4.1-2.13c-1,.18.59-.79,2.23-1.57s3.12-1.37,1.54-1.32c2.15-.63.3.41,2,.2a17,17,0,0,1,8.44-.73,50,50,0,0,1,9.37,2.47c.16-.13-.82-.77.64-.52,1,.7,2,1.42,3,2.18,1.25.46,1.56-.42,3.5,1.23-.24-.29-.61-.73.23-.37a56.25,56.25,0,0,1,8.28,5.57A32,32,0,0,1,142,92a34.49,34.49,0,0,1,2.36,4.46,50.18,50.18,0,0,1,1.8,4.83,47.22,47.22,0,0,1,2.29,10c-.09-1.84.24-.67.54.68-.11-.9.43-.07.63-.29a44.51,44.51,0,0,1,.17,5.64,3.12,3.12,0,0,1,.38,1.35c0,.31.06.64.08,1s0,.8.06,1.2a16.07,16.07,0,0,0,.28,2.19,4.24,4.24,0,0,0,.32,1,1.21,1.21,0,0,0,.42.51,4.27,4.27,0,0,1-.47-1.24c-.08-.33-.14-.65-.2-1,.55,1.24.81.26,1.14-.9s.8-2.51,1.27-2.36c-.47-1.4-.29-3.25-.36-5.36a13.35,13.35,0,0,0-1.57-6.5c-.09-1,.54.75.6.17a15.13,15.13,0,0,1-1.83-4.85l.19.25c-.6-1.71-1.12-3.17-1.6-4.53s-.95-2.66-1.48-3.94a35.87,35.87,0,0,0-5-8.66l0,.79c-1.12-1.44-1.29-1.81-1.81-2.51-1-.5-.07.4.77,1.39s1.63,2.06.74,1.56c-.35-1.24-2.5-3.7-4.95-5.62s-5-3.45-5.48-4.3c-2.39-1.3.45.86-1.95-.43l-.5-.59-.79,0c-1.57-.84-2.23-1.56-2.19-1.82.39.21,1.15.47,1.58.66-1.93-1.38-6.12-2.56-6.86-2.89.82.36,1.64.72,2.43,1.12a49.8,49.8,0,0,0-11.88-3,27.29,27.29,0,0,0-6.39.09A20.28,20.28,0,0,0,99,71.76l.62,0c-2.58,1.16-3.53,1.63-4.66,2.09A15.76,15.76,0,0,0,90.26,77l.13-.19-3,3.56c.41-.68-.19-.21-.69.26s-1,.89-.48,0a15.19,15.19,0,0,0-2,3.84c-.14.49-.11.79-.66,2.72-.26.2-.49.42-.74.64a17.11,17.11,0,0,1-1.29,4.28c.33-1.2,0-.81-.3-.47-.17.16-.3.37-.38.32s-.08-.36.11-1a11.09,11.09,0,0,0-1,2.18A12.46,12.46,0,0,0,79.4,95c-.26,1.16-.42,2.2-.56,3.13a9.93,9.93,0,0,1-1.4,4.56c.36,3,1.77-5.09,1.63-3.49.63-1.21.2,2.46-.33,4.33s-2,3-3,7.91c.1-.49,0-.54.14-1-.65,1.78-.32,3.68-1.15,5.87.42,1.37-.46,3,.27,3.44.16-1.52.29-3,.51-4.57-.13,1.3,0,2.59,0,4.08,0,.74,0,1.52-.13,2.39A21.26,21.26,0,0,1,75,124.5a14.35,14.35,0,0,1-.22-2.53c-.37,1.23-.1,2.42-.48,3.7-.37-.22-.27-1.62-.11-3.33a36.5,36.5,0,0,0,.37-5.12c-.53,1.3-.18,5.34-.83,3.83.86,2.14-.71,5,0,8.44l-.47-.24c0,.27.07.69.11,1.17a10.64,10.64,0,0,1,.1,1.51c-.19-.61-.42-1.22-.58-1.84a15.19,15.19,0,0,1,0,4.1,14.77,14.77,0,0,0,0,4c-.33-5.68.47-1.3.74-3.69a23.19,23.19,0,0,1,.26,3.65,12.71,12.71,0,0,1-.29,1.92,11.45,11.45,0,0,0-.23,2.12,16.13,16.13,0,0,0,.07,1.73,23.35,23.35,0,0,0,.5,2.46,11.74,11.74,0,0,1-.32-2.2c0-.67.12-1,.34-.2a34,34,0,0,1,.39,4.44c1.6,5,.22-.9,1.15,1.17a3.8,3.8,0,0,0,.59,2.16l.59,1a10.74,10.74,0,0,1,.78,1.28l-.44.19A16,16,0,0,0,78,156.88a1.42,1.42,0,0,0,.68.62c.37.18.69.28,1.79,2.7l-1.66-1.66,1.49,2.37-.75-.22c.43.64.88,1.1,1.24,1.55s.66.84.94,1.25c.57.82,1.06,1.7,1.94,2.86-.15-.74.92-.24,2.57,1.72.94,1.5-1-.43,1.46,2.25A4.6,4.6,0,0,1,85.36,168c-.22,0-.75-.45-1-.48a13.66,13.66,0,0,0,2,2.59c.76.83,1.51,1.57,2,2a8.41,8.41,0,0,1-.88-1.12q2,1.72,4.07,3.37c.44.71-.12.35-.66,0,.76.72,1.43,1.1,2.53,2.18-.56,0-.78.34-2.44-1.12l3.73,3.25c.12.36,1.35,2.14.82,1.78,1.67,2.09,4.92,4.34,6.58,7.36a5.18,5.18,0,0,1,.85.94,73.9,73.9,0,0,1,3.76,8.88l-.06,1.1c0,.36-.12.74-.17,1.1.3,1.41.41.68.57.17s.36-.8.87,1.64a4.65,4.65,0,0,1,.16,1.7c0,.31-.12.41-.22.44s-.46-.17-.53.45a15.5,15.5,0,0,1,.65,3.44,20.63,20.63,0,0,1,0,2.23,9.67,9.67,0,0,1-.13,1.18,10.65,10.65,0,0,1-.32,1.2c0-.55.08-1,.12-1.5S107.72,209.85,107.72,209.35ZM89.45,239.71c.57-.43,1.53-1.47,2.13-1.49C91.22,239.09,90.55,239.25,89.45,239.71ZM66.93,215a6.35,6.35,0,0,1-1.69,1.68A10.32,10.32,0,0,1,66.93,215ZM80.5,65.2l-.06.07C78.86,66.11,79.42,65.82,80.5,65.2Zm3.29-1.68c.29-.25.23-.29.07-.28a7.09,7.09,0,0,1-1.72,1.09A3.7,3.7,0,0,0,83.79,63.52Zm-4.11,48-.26.64C79.59,110.69,79.63,111.13,79.68,111.57Z"/><path class="cls-1" d="M63.32,220.35a.53.53,0,0,1-.39.11C62.84,220.74,62.92,220.79,63.32,220.35Z"/><path class="cls-1" d="M102.15,187.92l-.05-.1a.3.3,0,0,0-.14,0Z"/><path class="cls-1" d="M65.31,111.72a6.09,6.09,0,0,1-.23,1.39C65.2,113.15,65.29,112.82,65.31,111.72Z"/><path class="cls-1" d="M102.24,57.38c-.78.11-1.56.19-2.33.37a6.85,6.85,0,0,1,2.12-.07C102,57.57,101.51,57.44,102.24,57.38Z"/><path class="cls-1" d="M121.82,61.83c.34,0,.67.18,1,.22l0-.24C121.44,61.42,120.43,61.44,121.82,61.83Z"/><path class="cls-1" d="M104.5,58.81c.1.2.51.21,1.09.2s1.34-.06,2.14-.1h-.28c.23-.28-.08-.37-.67-.37A11.05,11.05,0,0,0,104.5,58.81Z"/><path class="cls-1" d="M108.1,58.9a14.69,14.69,0,0,1,1.48,0C109.78,58.65,109,58.83,108.1,58.9Z"/><path class="cls-1" d="M87.92,61.31c.77-.18.27-.66.75-.66.32-.4-.87.22-1.62.71-.37.26-.63.51-.56.54A6.46,6.46,0,0,0,87.92,61.31Z"/><path class="cls-1" d="M105.85,60.07c-.2-.17-.39-.34-.59-.49l-.86.48A14,14,0,0,1,105.85,60.07Z"/><path class="cls-1" d="M93.5,61.54c.81-.22,1.66-.31,2.49-.47-.06-.07.25-.19.62-.31l-2.17.44C93.84,61.33,93.45,61.49,93.5,61.54Z"/><path class="cls-1" d="M96.61,60.76c.79-.19,1.56-.31,2-.46A12.24,12.24,0,0,0,96.61,60.76Z"/><path class="cls-1" d="M102.44,60.46l-.75,0a17.2,17.2,0,0,0-1.76.18c.41,0,.83-.09,1.25-.11Z"/><path class="cls-1" d="M71.19,76.36c-.26.38-.54.75-.77,1.15l-.69,1.21c0,.33.49-.25,1-1.15C71,77,71.58,76.12,71.19,76.36Z"/><path class="cls-1" d="M77.77,71.25a3.39,3.39,0,0,1-1.12.52l.36.52Z"/><path class="cls-1" d="M72.58,77c-.07.31-1.85,3.39.07.66C72.67,77.39,74.17,75.18,72.58,77Z"/><polygon class="cls-1" points="63.67 115.97 63.65 115.28 62.64 115.4 63.67 115.97"/><path class="cls-1" d="M53.57,149.44c.29-1.46.19-1.65.06-1.82s-.27-.3.17-1.58c-.1-.75-.68,2.12-.74,1.38C53,149.27,52.84,150.2,53.57,149.44Z"/><path class="cls-1" d="M53.06,147.42c0-.3,0-.62,0-.95A5.28,5.28,0,0,0,53.06,147.42Z"/><path class="cls-1" d="M149.46,121.17a23.49,23.49,0,0,0,.07,2.35c0-.55.07-1,.13-1.55Z"/><path class="cls-1" d="M152,126a4,4,0,0,0,.35,1,4.56,4.56,0,0,0,2.29,0,4,4,0,0,1-1.51-.27A2.61,2.61,0,0,1,152,126Z"/><path class="cls-1" d="M84.18,240.54l-.09.19a2.8,2.8,0,0,0,1.56-.29A10.27,10.27,0,0,1,84.18,240.54Z"/><polygon class="cls-1" points="102.72 223.61 102.48 224.02 103.42 223.53 102.72 223.61"/><path class="cls-1" d="M106.42,202.6c0,.89.19,1.92.21,2.81C106.43,203.5,107.14,202.29,106.42,202.6Z"/></g></g></svg>