<svg xmlns="http://www.w3.org/2000/svg" viewBox="0 0 718.5 119.04"><defs><style>.cls-1{fill:#fff;}</style></defs><g id="Layer_2" data-name="Layer 2"><g id="Layer_1-2" data-name="Layer 1"><path class="cls-1" d="M246.91,95.73a14.38,14.38,0,0,0,.7,1.77C247.43,97.08,247.16,96.39,246.91,95.73Z"/><path class="cls-1" d="M67.5,51.1l-.49.32c1.47-.56,2.93-1.15,4.41-1.69Z"/><path class="cls-1" d="M80.68,47.29l-.89.07-2.16,1.2c6.21-1.8,14.24-4.3,18.71-5.2C93.42,43.33,85.89,46.17,80.68,47.29Z"/><path class="cls-1" d="M108.54,41.87l.66-.08,3-.69C111.14,41.06,115.45,40.07,108.54,41.87Z"/><path class="cls-1" d="M109.2,41.79c-3,.74,2.06-.25,0,0Z"/><path class="cls-1" d="M122.49,39.13c4.11-1.06,3.22-1,.81-.76l-4,1.15C120.2,39.49,123.8,38.72,122.49,39.13Z"/><path class="cls-1" d="M125,37.57A6,6,0,0,0,127,37Z"/><path class="cls-1" d="M120.56,38.78,125,37.57a2.71,2.71,0,0,0-2,.54C123.24,37.82,122.41,38.22,120.56,38.78Z"/><path class="cls-1" d="M118,39.24c-2.3.35-5.24.95-1.25-.23C109.08,40.93,110.33,41.12,118,39.24Z"/><path class="cls-1" d="M97.64,42.28l-3.07.55L92,43.72C93.3,43.28,97.88,42.45,97.64,42.28Z"/><path class="cls-1" d="M148.59,33.41c.22-.2-1.44-.13-1.79-.26l-3,.76C145.4,33.7,148.34,33.23,148.59,33.41Z"/><path class="cls-1" d="M146.8,33.15,151.24,32C147.23,32.77,146.52,33,146.8,33.15Z"/><polygon class="cls-1" points="127.57 36.07 120.35 38.25 128.98 35.74 127.57 36.07"/><polygon class="cls-1" points="167.71 29.64 165.75 30.17 163.26 30.98 167.71 29.64"/><path class="cls-1" d="M177.84,28.65c3.1-.57,5.7-1.25,8-1.86a74.77,74.77,0,0,1-8.75,1.29C175.29,28.68,179.81,28.14,177.84,28.65Z"/><path class="cls-1" d="M185.89,26.79c1.34-.29,2.65-.61,4-1C188.59,26.08,187.3,26.42,185.89,26.79Z"/><path class="cls-1" d="M162.53,30.38l-1.85-.1-1.77.32A15.39,15.39,0,0,0,162.53,30.38Z"/><path class="cls-1" d="M160.61,30.28h.07l3.83-.67Z"/><path class="cls-1" d="M158.91,30.6a.77.77,0,0,0-.45.08Z"/><path class="cls-1" d="M139.39,34c2.58-.8,8-2.18,2.63-1.44C140.19,33.21,143.27,32.77,139.39,34Z"/><path class="cls-1" d="M151.1,31.88l5.07-1.29-4.79.83C151.49,31.51,152.38,31.51,151.1,31.88Z"/><polygon class="cls-1" points="158.48 30 156.17 30.59 157.94 30.28 158.48 30"/><path class="cls-1" d="M181.57,26.76c2-.53,4.31-.91,6.86-1.37-2.75.37-5.6.8-8.29,1.24C179.78,26.83,178.64,27.26,181.57,26.76Z"/><path class="cls-1" d="M171.37,28.38l.46-.1C171.54,28.29,171.31,28.32,171.37,28.38Z"/><path class="cls-1" d="M213.69,21.64l-.42,0-.08.08Z"/><path class="cls-1" d="M179.67,26.63a26.79,26.79,0,0,0-4.45.89c1.54-.3,3.17-.59,4.92-.89C180.3,26.54,180.33,26.5,179.67,26.63Z"/><path class="cls-1" d="M193.24,24.82a22.78,22.78,0,0,0,3.61-.3C195.77,24.59,194.53,24.69,193.24,24.82Z"/><path class="cls-1" d="M172.54,28.27l-.3.07C172.93,28.31,172.84,28.28,172.54,28.27Z"/><path class="cls-1" d="M172.54,28.27c1.05-.25,1.86-.51,2.68-.75-1.24.26-2.4.51-3.39.76A5.77,5.77,0,0,1,172.54,28.27Z"/><path class="cls-1" d="M204.21,22.87l-2,.34c2.24-.27,3.86-.35,6.84-.48,3.22-.64,3.88-.86,4.09-1-3.22.39-6.43.87-9.64,1.33Z"/><path class="cls-1" d="M196.67,23c-5.74.88-4,.95-7.36,1.69,9.22-1.59-2.62.65,4.1-.16l-5,.91c1.67-.21,3.28-.43,4.81-.57H193c-.41,0-.54,0-.09,0l.19,0a1.44,1.44,0,0,1,.39-.22c2.7-.31.44.05-.39.22,0,0-.1.06-.1.08h0l9.24-1.61c-2,.23-4.43.61-8.78,1.31C194.94,23.86,199.61,23,196.67,23Z"/><path class="cls-1" d="M146.75,30.63c.29,0,.28,0,.31,0C147.65,30.5,147.87,30.42,146.75,30.63Z"/><path class="cls-1" d="M155,30.25l.29,0C155.43,30.25,155.3,30.24,155,30.25Z"/><path class="cls-1" d="M146.69,31.27l.64-.18c2.94-.46,6.56-.8,7.67-.84a23.62,23.62,0,0,0-4.41-.11,18.93,18.93,0,0,1-3.37.85c-1.91.25,0-.2-.16-.32C145.77,31,142.53,31.87,146.69,31.27Z"/><path class="cls-1" d="M175.94,25.72l.24.19c-4.4.67-3.4.79-3.91,1.06,2.54-.55,5.1-1,7.66-1.53Z"/><polygon class="cls-1" points="214.6 21.73 213.64 22.32 218.02 21.09 214.6 21.73"/><polygon class="cls-1" points="224.65 20.35 224.33 20.79 226.95 20.2 224.65 20.35"/><path class="cls-1" d="M479.75,18l-1-.54a56.44,56.44,0,0,1-5.61-.66C476.46,17.48,480.1,18.45,479.75,18Z"/><path class="cls-1" d="M578.87,82.8c-1.36.37-1.92.58-1.86.66C578.4,83.1,579.19,82.85,578.87,82.8Z"/><path class="cls-1" d="M66.09,67.14c-.68-.22-1.82-.55-3.79-1.08Z"/><path class="cls-1" d="M243.58,18.49l-.47.06Z"/><path class="cls-1" d="M238.64,17.44c-.41-.36-3.31.12-6.55.58l.58-.07C231.78,18.63,235.22,18,238.64,17.44Z"/><path class="cls-1" d="M231.34,18.13c-1,.13-2,.26-3,.36C228,18.76,229.57,18.39,231.34,18.13Z"/><polygon class="cls-1" points="238.85 16.17 235.85 16.43 237.08 16.79 238.85 16.17"/><polygon class="cls-1" points="47.25 60.91 43.18 59.4 45.74 60.57 47.25 60.91"/><path class="cls-1" d="M353.29,118.58c-2.12,0-1.36.38-1.68.46C355.16,118.93,353.2,118.47,353.29,118.58Z"/><polygon class="cls-1" points="387.64 117.21 392.78 116.6 388.25 117.01 387.64 117.21"/><path class="cls-1" d="M403.27,116.29l-1-.12-2.6.69c7.07-.37,16.24-1.27,21.22-1.37C417.8,115,409.1,116.29,403.27,116.29Z"/><path class="cls-1" d="M434.37,116.06h.74l3.33-.23C437.34,115.65,442.19,115.33,434.37,116.06Z"/><path class="cls-1" d="M435.11,116.07c-3.44.28,2.27.07,0,0Z"/><path class="cls-1" d="M446.47,115.28c1,.09,5-.21,3.51,0,4.63-.55,3.66-.63,1-.66Z"/><path class="cls-1" d="M455.22,113.75l-2.33.32A7.5,7.5,0,0,0,455.22,113.75Z"/><path class="cls-1" d="M450.61,114.35c.39-.24-.58.05-2.68.37l5-.65A3.24,3.24,0,0,0,450.61,114.35Z"/><path class="cls-1" d="M443.79,114.45c-8.65.76-7.34,1.18,1.32.39C442.56,114.89,439.27,115.06,443.79,114.45Z"/><path class="cls-1" d="M416.22,115.06c1.46-.21,6.55-.19,6.33-.4h-3.41Z"/><path class="cls-1" d="M479.18,112.25c.26-.18-1.57-.23-1.92-.39l-3.32.53A39.73,39.73,0,0,1,479.18,112.25Z"/><path class="cls-1" d="M477.26,111.86l4.95-.82C477.76,111.51,477,111.73,477.26,111.86Z"/><polygon class="cls-1" points="447.79 114.16 457.54 112.74 455.95 112.89 447.79 114.16"/><polygon class="cls-1" points="495.44 110.72 500.4 109.54 498.22 110 495.44 110.72"/><path class="cls-1" d="M511.57,108.84c3.42-.53,6.31-1.17,8.9-1.79a85.11,85.11,0,0,1-9.64,1.22C508.78,108.85,513.75,108.36,511.57,108.84Z"/><path class="cls-1" d="M524.84,106.06c-1.39.28-2.81.62-4.37,1C522,106.76,523.39,106.44,524.84,106.06Z"/><path class="cls-1" d="M490.71,110.12a15.84,15.84,0,0,0,4,0l-2-.19Z"/><path class="cls-1" d="M492.61,109.89h.07l4.23-.5Z"/><path class="cls-1" d="M490.22,110.18l.49-.06A.91.91,0,0,0,490.22,110.18Z"/><path class="cls-1" d="M469.08,112c2.91-.54,9-1.44,3-1.18C470.05,111.35,473.45,111.2,469.08,112Z"/><path class="cls-1" d="M482.07,110.89l5.65-1-5.3.52C482.54,110.56,483.51,110.61,482.07,110.89Z"/><polygon class="cls-1" points="487.72 109.94 489.69 109.74 490.3 109.5 487.72 109.94"/><path class="cls-1" d="M515.74,107c2.26-.49,4.75-.88,7.56-1.34-3,.39-6.16.79-9.12,1.2C513.78,107,512.51,107.46,515.74,107Z"/><path class="cls-1" d="M504.5,108.42l.51-.09C504.69,108.33,504.44,108.35,504.5,108.42Z"/><path class="cls-1" d="M551,101.2h-.46a.76.76,0,0,1-.09.09Z"/><path class="cls-1" d="M513.66,106.84a33.92,33.92,0,0,0-4.9.84c1.69-.28,3.49-.56,5.42-.83C514.36,106.76,514.39,106.72,513.66,106.84Z"/><path class="cls-1" d="M528.58,105.06a23.1,23.1,0,0,0,3.95-.38Z"/><path class="cls-1" d="M505.79,108.35l-.34.06C506.21,108.4,506.11,108.37,505.79,108.35Z"/><path class="cls-1" d="M505.79,108.35c1.16-.21,2.06-.45,3-.67l-3.75.65A6.36,6.36,0,0,1,505.79,108.35Z"/><path class="cls-1" d="M540.59,102.84l-2.13.39c2.45-.32,4.22-.45,7.48-.7,3.52-.8,4.24-1.07,4.46-1.24L539.87,103Z"/><path class="cls-1" d="M532.34,103.12c-6.27,1-4.34,1-8.07,1.78,10.13-1.63-2.88.68,4.49-.18-2,.37-3.77.66-5.46.93,1.83-.22,3.6-.42,5.28-.59h-.28c-.45,0-.6,0-.1,0l.21,0a1.42,1.42,0,0,1,.44-.23c2.95-.36.48,0-.44.23,0,0-.1.05-.11.08h0c3.38-.58,6.74-1.23,10.12-1.84-2.16.28-4.85.74-9.61,1.53C530.46,104.09,535.56,103.06,532.34,103.12Z"/><path class="cls-1" d="M477.46,109.34c.32,0,.31,0,.34.06C478.46,109.28,478.7,109.21,477.46,109.34Z"/><path class="cls-1" d="M477.33,110l.71-.14c3.25-.25,7.24-.34,8.45-.3a27.42,27.42,0,0,0-4.8-.41,24,24,0,0,1-3.75.61c-2.11.1,0-.21-.14-.34C476.36,109.68,472.75,110.25,477.33,110Z"/><path class="cls-1" d="M486.49,109.54l.31.06C487,109.57,486.81,109.55,486.49,109.54Z"/><path class="cls-1" d="M505.56,107l8.44-1.38-4.36.24.25.19C505.06,106.67,506.13,106.78,505.56,107Z"/><polygon class="cls-1" points="550.91 101.89 555.67 100.39 551.95 101.25 550.91 101.89"/><polygon class="cls-1" points="562.56 99.69 565.4 98.92 562.89 99.23 562.56 99.69"/><path class="cls-1" d="M588,21l1,.65A52.66,52.66,0,0,1,595.07,23C591.57,21.86,587.67,20.51,588,21Z"/><path class="cls-1" d="M681.29,70.47c-3.72.91-6.76,1.45-7.62,2.08C676.75,71.8,679.17,71.11,681.29,70.47Z"/><path class="cls-1" d="M249.48,5c-1.53.23-2.17.4-2.12.48C248.93,5.2,249.81,5,249.48,5Z"/><path class="cls-1" d="M690,67.66l-1.62.43c-2.18.78-4.38,1.56-7.09,2.38A53,53,0,0,0,690,67.66Z"/><path class="cls-1" d="M316.75,117.58c.77.06,2.07.09,4.31.09C320,117.67,318.34,117.63,316.75,117.58Z"/><path class="cls-1" d="M606.8,90.43c-2.3.54-.36.13,0,0Z"/><path class="cls-1" d="M596.1,90.81a2.68,2.68,0,0,1-.88.41C595.7,91.06,596.06,90.92,596.1,90.81Z"/><path class="cls-1" d="M603.29,91c.87-.14,1.88-.32,3-.53C605.78,90.55,604.87,90.71,603.29,91Z"/><path class="cls-1" d="M603.8,91.11l-2,.41C601.5,91.66,601.77,91.64,603.8,91.11Z"/><path class="cls-1" d="M606.8,90.43l3.2-.75c-1.32.31-2.55.56-3.74.8C606.72,90.4,606.92,90.39,606.8,90.43Z"/><path class="cls-1" d="M718.44,57.48l-.47-.16-.92-.32-1.81-.63-3.33-1.13c-2-.68-3.7-1.19-4.65-1.4-.84-.43-2.1-1-3.69-1.58l-4.43-1.63c-2.33-.84-5.11-1.75-8-2.67-5.75-1.85-12-3.51-15.84-4.84l-.45.4c-5.36-1.7-10.61-3-17.37-4.78l.29.55c-2.94-.68-6.66-1.73-10.78-3l-6.45-2c-2.23-.64-4.53-1.25-6.84-1.83a25.47,25.47,0,0,1,4.63,1.16,128.74,128.74,0,0,0-17-4.41C615.57,28.13,610,27,605,25.52a46.61,46.61,0,0,1-6.09-1.36l.62.12-1-.24-3.43-1c1,.34,2,.65,2.88.88-1.94-.41-4.88-1-7.79-1.52L589,21.68l-.67-.12c-2.8-.76-2.32-.25-.88.42-1.47-.22-2.83-.4-3.88-.5-2.15-1.22-7.62-1.33-10.62-2.71-1.88,0-12.85-2.12-15.78-1.95a89.64,89.64,0,0,0-9.28-1.54l-1.27-.84c-2.4-.13-4.8-.27-7.21-.35-4.25-1-6-1.53-1.65-1.33-5.22-.44-7.32-.7-9.24-.93s-3.63-.42-8.08-.67l.49-.33c-3.15-.43-8.25-.6-10.1-1.19s-4.79-.9-8.66-1.44S493.61,7,488.55,6.51,478.08,5.32,472.8,4.8s-10.42-1.11-14.95-1.67c3.43,1.43-8.41-1.16-9.2-.32-1-.35-3.57-.7-.6-.71-2.33-.11-4.36-.26-6.21-.41l-5.06-.4a64.4,64.4,0,0,0-9.13-.21c-1-.33,2-.29,1.07-.51A23,23,0,0,1,424.8.45c-.94-.21,1.37-.16,2.85-.21-9.51-.43-10.51.38-11.24,1.14a39.42,39.42,0,0,0-10.69-.22c-1.67-.33-4.45-.7,1.45-.58-3.31-.22-20.28-1-20.63-.33a44.42,44.42,0,0,0-5.52,0c-7.46-.15-8.11-.2-15.43-.14l2,.1c-2.9.79-6.09.12-12,.31L355.8.4C342.26,0,350,.68,336.6.35l.74.46c-.61.54-3.56.42-7.34.33a111.07,111.07,0,0,0-12.23.09l2.81.17c-4.21.49-11.88-.87-16.14-.81-.93,0,1.46-.21,2.75-.34-11.16,0-1.41.7-9.69,1.31-1.54-.25,1.92-1-3.66-.71-1.4-.07-5.42.47-10,1-2.31.28-4.78.55-7.14.75S272,3,270.11,3c1.7.12,3.38.24-.44.75-5.88.54-16,.44-21.23,1.77-.75,0-1,0-1.08-.1-4.46.69-14.55,1.89-17.19,2.69-2.17-.57-9.12.42-15.51,1.5S202.41,11.76,202.35,11c-4.58.65-9.15,1.38-13.73,2.09l.34-.2a93.12,93.12,0,0,0-14.85,3c-2,.24-.58-.15-.43-.26-12.83,1.87-14.1,2.17-24.64,4.9l-1.2-.27C145,21,129.27,23,117,26.31a4.43,4.43,0,0,1,1.32-.52c-6.93,1.79-15.36,3.37-22.63,4.91s-13.41,3.06-15.72,4.59l-9,2.82c11.84-3-1.56,1.22,3.37.23-4.61,1.31-12.12,2.71-6.45,1.06l.91-.15c.93-.74-2.76.17-6.65,1.19s-8,2.2-7.91,1.85C42.62,45.63,31.25,49,20.13,52.7L16,54.1l-2.85,1-3.05,1.13L3.91,58.54.81,59.7,0,60C0,60,0,60,0,60l.1,0,.19.06.38.13,1.52.53L14.52,65,23,67.77l-2.24-1.5,7.46,2.48c1.91.77,2.45,1.41-2.87-.37a37.88,37.88,0,0,0,9.27,2.4c10.4,3.51-4.34-.45-1.13.55l4.38,1.3-1-.38a83.44,83.44,0,0,1,10.48,2.57c4,1.33,2,1,3.57,1.54a12.63,12.63,0,0,0,2.47.74c3.17.93,6.32,1.91,9.5,2.77-1.22-.54-2.44-1.05-3.65-1.61,4.3.91,9,2.49,4.73.66,3.1,1.35,12,4,20.61,6.1s17,4.07,19,4.72c1.52.26,3,.54,4.55.84s3.06.58,4.64.91c3.15.65,6.46,1.4,10.13,2.23-1.8-.53-2.76-1.36,3.55,0-2.52.81,10.8,2.88,16.06,4.76-2.34-1,18.26,3.31,11.48,1.15,5.29,1.09.23.57,4.21,1.6,3.2.42,6.54.94,10,1.54l5.28.94,5.45.94,11.29,1.93q5.78.89,11.71,1.66c.27-.15-2.33-.78,1.08-.57q4.09,1,8.21,2c3.13.3,3-.65,8.62.65-.78-.24-2-.61.14-.41,15.42,2.22,31.29,3.66,47.23,4.71s31.94,2,47.74,3.28c-4.28-.47-1.42-.42,1.85-.33-2.12-.14.06-.43-.35-.68,4.41.35,8.81.68,13.23,1,2.42-.59,14.2.15,15.59-.5l-4.2.09c3.08-.38.4-.87-2.49-1.39q6.53.06,13.08.07a1170.89,1170.89,0,0,0,143-9c14.76-1.83,28.88-3.88,42.29-6l-.43.08.24.19c2.68-.44,4.64-.89,3.12-.75q3.55-.58,7-1.18c-4.15,1.07-.77,1.74,3.58,1.71.12-.21.1-.33,5.24-1.5-1.84.14-11.59,1.49-7.27.4a49.57,49.57,0,0,1,9-1.24c-2.59,0,6.18-1.78,7-2.51q5.28-1,10.37-2l1.34.24,1.89-.79-3.15.53c11-2.16,21.35-4.35,30.91-6.5-.2.1-.14.14.37.09l3.81-.93c3.61-.38-7.07,2.21-2.18,1.31a160.14,160.14,0,0,1-18,4.49l-1.49-.32a34.87,34.87,0,0,0,6.82-1.25c-3,.93-11.29,1.52-14.45,3l5.17-.62c-2.55.7-5.41,1.51-8.43,2.28a95.09,95.09,0,0,1-9.48,2c3.06,0,1.48-.35,6.21-.54-4.15-.06,16.51-3.26,9.94-2.89,4.86-.17,8.2-1.33,14.48-2-.23-.16-2.25.09,3.17-1,.23-.11.78-.31,1.14-.44l.37-.07-.3,0c.22-.09.24-.1-.12,0a18.65,18.65,0,0,1-2.81.31c2.58-1,11.15-2.95,14-3.87,3.21-.65-1.28.53.51.34l4.23-1.36c.53.33,8.64-1.32,1.2.75l6.76-1.62a118.63,118.63,0,0,0,12.83-3.08c3.2-.73,7.88-2.59,5.21-1.52q5.24-1.55,10.45-3.14l.13.08c10.38-2.84,21.07-6.82,33-9.87l5.46-2,3.3-1.15,4.25-1.46,2.08-.35c3.64-1.45,9.3-3.51,14.64-5.48l.25-.09C718.44,57.54,718.58,57.51,718.44,57.48Zm-10.18-.84c-.58,0-.21.27.08.49l-6.05-2-.49-.16c.51.11,1,.23,1.58.37C705,55.69,706.72,56.18,708.26,56.64Zm-38.92,3.82-1.19.33-1,.3c-1.22.37-1.84.6-2.46.82a70.8,70.8,0,0,1-8.38,2.33l.77.26c-.39.67-3,1.3-6.41,2s-7.48,1.58-10.84,2.7l2.54-.42a33.27,33.27,0,0,1-7.23,1.39,73.67,73.67,0,0,0-7.34,1c-.84.13,1.25-.48,2.37-.85-10,2-1.1,1-8.39,3-1.44,0,1.52-1.28-3.43-.1-2.51.38-14.08,4.6-21,5.5,1.55-.08,3.09-.16-.29.8-2.62.63-6.23,1.19-9.76,1.82A52.55,52.55,0,0,0,578,83.47c-.69.07-1,0-1,0-4,1.1-13.06,3-15.41,3.9a18.63,18.63,0,0,0-5.62.48c-2.54.44-5.55,1.08-8.44,1.71s-5.67,1.25-7.73,1.6-3.42.42-3.46,0l-12.49,2.14.31-.21a86.31,86.31,0,0,0-13.57,2.66c-1.87.18-.54-.17-.39-.27-5.88.75-9.12,1-12.09,1.53s-5.71,1-10.58,2.06l-1.09-.37c-1.32.3-5.59.6-11,1.08-2.67.21-5.6.46-8.59.76a5.91,5.91,0,0,0,.13-.63c1.15-.66,1-3.25,2.31-4.28,0-.89,1.6-5.55,1.28-6.94a14.42,14.42,0,0,0,1.06-4l.75-.44c0-1.08-.05-2.17-.08-3.25.79-1.78,1.13-2.53,1.22-.56.19-4.66.47-3.73.36-7.69l.37.25c.08-.7.07-1.61.09-2.45a5.17,5.17,0,0,1,.24-2c.56-1.51.91-5.37,1-9.84s-.15-9.57-.25-13.6c-.5.83-.46-.11-.43-1.29s0-2.6-.45-2.69c.21-.5.17-1.64.62-.38-.9-4-.64-6.19-2-8.8.17-.53.59.77.66.32a4.78,4.78,0,0,1-.47-1.68c.05-.44.38.53.63,1.15-1-4.11-2-4.28-2.87-4.35A7.49,7.49,0,0,0,469.52,23c0-.77-.11-2,.78.41-.19-.71-.81-2.85-1.52-4.8a27.27,27.27,0,0,0-1.17-2.77c.69.08,1.34.18,2,.28l-.58,0,1,.1,3.21.58c-1-.21-1.89-.4-2.7-.52,1.8.18,4.53.41,7.22.58l1.09.6.62.06c2.6.45,2.13,0,.77-.52,1.35.07,2.6.1,3.57.09,2,1,7,.58,9.84,1.75.92-.08,4.29.23,7.61.53a46.81,46.81,0,0,0,6.86.36,79,79,0,0,0,8.53,1.14l1.17.79,6.6.18c3.88,1,5.47,1.43,1.49,1.3,4.77.35,6.69.6,8.43.83s3.31.43,7.38.75l-.46.32c1.43.23,3.31.41,5,.61a21.85,21.85,0,0,1,4.14.78c3.12,1,11,2.38,20.11,4.28l7,1.43,7.12,1.6,6.93,1.61c2.24.57,4.38,1.14,6.39,1.7-2.88-1.87,7.41,2.26,8.26,1.53.88.49,3.09,1.21.42.79,8.3,1.81,12.28,3.46,18.13,4.24.87.52-1.85-.07-1.06.31a17.93,17.93,0,0,1,3.48.85c.79.38-1.26-.1-2.59-.33,8.38,2.19,9.46,1.59,10.28,1a35.74,35.74,0,0,0,9.46,2.45c1.4.67,3.78,1.63-1.43.25l10,3c4.11,1.25,7.91,2.31,8.15,2a36,36,0,0,0,4.84,1.43c4.79,1.56,5,1.69,9.8,3.15l-1-.43a22.28,22.28,0,0,1,2.57.44l.53.14.26.07s.12,0,.08,0l-.1,0-1,.3c-1.44.44-3.16.89-5,1.52v-.08ZM508.07,19.69a2.07,2.07,0,0,0,.49-.1C508.63,19.71,509.35,19.86,508.07,19.69Zm-39.15,3.14c.51,1.28,1.07,2.55,1.54,3.85,0,.51-.29.16-.73-.41l.35.68c.07.59,0,.84-.1.87-.18-.64-.36-1.29-.55-1.93l.3.38c-.14-.28-.29-.58-.46-.89l-.27-.86C469,23.83,469,23.24,468.92,22.83Zm3.41,57.86c-.17-.26-.51-.22-.87-.16.18-.81.34-1.63.5-2.45C472.09,79,472.23,79.81,472.33,80.69Zm-1.81,7.76c.11,0,.26-.32.1.25A.82.82,0,0,0,470.52,88.45ZM248.28,15.88l.08,0h0Zm276.84,5,5.39.85c-1.81,0-3.63,0-5.45.07C525.56,21.65,525.37,21.29,525.12,20.89ZM220.78,18.27l1.19-.15-1.28.23S220.71,18.3,220.78,18.27ZM202.2,20.85c-.57.11-1.18.18-1.73.32l.22.19c2.75-.42,4.68-.88,2.21-.61l7.35-1.06c-4.17.93-1,1.73,3,1.93.12-.19.1-.35,4.83-1.21-1.69,0-10.64.9-6.67,0,6.29-1,5.2-.55,8.29-.75-2.38-.13,5.8-1.44,6.56-2.1l1.42-.18c7-.88,14.06-1.66,21.1-2.4-.14.27-.28.57-.42.87a29.13,29.13,0,0,0-7.2.93l4.77-.08c-4.77.79-10.62,2.17-16.6,2.68,2.78.28,1.37-.24,5.68,0-1.88-.22,1.93-.67,5.46-1.08,3.25-.36,6.25-.67,4.39-.83,1,.05,1.85.06,2.74,0l-.24.49c-2,.22-2.76.21-3.84.25.1.09.77.15,0,.27l3.8-.51a10.49,10.49,0,0,1-1.23,2c.64-.87,0,1.06-.53,2.87s-.91,3.5,0,2.09c-.79,2.24-.53,0-1.33,1.63-1.07,5.57-3.34,12.09-3.86,19.13.16.12.55-1,.66.51-.43,1.19-.8,2.4-1.18,3.61,0,1.4.94,1.33.21,3.83.17-.36.41-.88.43,0a70.15,70.15,0,0,0-.12,10.36c.24,3.48.68,7,1.25,10.43s1.34,6.91,2.12,10.33,1.64,6.85,2.45,10.26c-.32-1.9.13-.71.65.63-.25-.91.42-.13.58-.39.45,1.9,1,3.78,1.54,5.66a4.89,4.89,0,0,1,1.1,1.68c-2.85-.22-5.84-.52-9.14-.91,1.68.3,2.63,1-3.24.34,1.14-.55-1.53-1-5.08-1.45a74.57,74.57,0,0,1-10.26-1.86c2.08.57-2.09.1-6-.29s-7.45-.84-4.19.08c-4.88-.78-.23-.54-3.9-1.36-11.72-1-25.55-4.1-39.87-6.4-.25.13,2.1.83-1,.53l-7.38-2.26c-2.83-.45-2.79.55-7.81-1.06.69.29,1.73.73-.16.41-13.88-3.14-28.1-6.07-42.31-9.36a422.54,422.54,0,0,1-42-11.87c3.67,1.39,1.15.72-1.72-.08,1.84.6-.17.4.13.73-3.81-1.32-7.6-2.72-11.4-4.08C52.51,63.84,42.44,60,41,60.2l3.69,1c-2.82-.46-.58.74,1.81,2q-5.74-1.79-11.45-3.65l2.86-1a9.06,9.06,0,0,1,1.13.45l-.54-.65C61.85,50.7,120.76,32.87,202.2,20.85Zm8.59-1.23q4.29-.6,8.66-1.18A52.4,52.4,0,0,1,210.79,19.62Zm434.35,27.9-8.42-2c-1-.37-.08-.36,1.35-.23-.58-.11-1.13-.22-1.57-.28-1.19-.41-1.61-.65-1.56-.77l4.19,1.15-1.06-.1,2.23.43,1.51.42C643.16,46.7,644.33,47.2,645.14,47.52Zm18.35-6,6.6,2.38c3.21,1.18,6.61,2.54,7.87,3.12a3.18,3.18,0,0,1,.73.43c-2.66-.82-5.33-1.63-8-2.43l0-.78-1.17.45c-2.64-.79-5.28-1.56-7.93-2.33C661.81,41.83,662.43,41.48,663.49,41.55ZM622.62,30.49l1.78.77,7.47,1.53c-2-.12-5.62-.53-9.62-.93q-6.11-1.5-12.24-2.93A102.64,102.64,0,0,1,622.62,30.49ZM557.17,16.83a2,2,0,0,0-.52.08C556.57,16.79,555.8,16.6,557.17,16.83Zm-18.52-2.76c-.52.14-.35.48-.08.87-1.86-.3-3.72-.6-5.58-.88ZM414.4,1.66c1.13.16.17.33-1.39.54l1.74-.09c1.34.16,1.86.31,1.85.43l-4.69-.2L413,2.2l-2.3.1-2-.08c-1.52-.24-2.83-.45-3.74-.57ZM51.82,76.43l-1.45-.55C53.77,76.72,52.8,76.57,51.82,76.43ZM548,99.31q4.38-.75,8.65-1.52A57.92,57.92,0,0,1,548,99.31Zm10.51-1.83v0l.44-.08Zm73.4-13.43.17-.07C635.82,83.22,634.48,83.49,631.88,84.05ZM658,75.52A131.73,131.73,0,0,0,644.12,80a67.38,67.38,0,0,1-12,3.39c-5.27.76-.49-1-1.73-1.07,6.72-1.9,10.46-2.32,15-3.56L639.67,80a90.74,90.74,0,0,1,9.05-2.58c-.52.08-1.29.25-2.26.47,12.55-3.38,23.14-6.5,31.64-9.15a121.28,121.28,0,0,1-15,5.8C654.94,77.07,659.4,75,658,75.52Z"/><path class="cls-1" d="M142.47,98.53l.4.15Z"/><path class="cls-1" d="M583.39,95.38c.11.08.83.06.11.26l4.43-1C585.52,95.13,584.63,95.2,583.39,95.38Z"/><path class="cls-1" d="M583.5,95.64l-.55.12Z"/><path class="cls-1" d="M578,95.11c-.48-.32-3.59.46-7.09,1.19l.62-.11C570.59,97,574.3,96.05,578,95.11Z"/><path class="cls-1" d="M566.84,97.1c-.37.3,1.32-.21,3.25-.63C569,96.7,567.9,96.91,566.84,97.1Z"/><path class="cls-1" d="M614.28,88.37c-1.67.28-.92.75-1.89.8C610.66,90.11,623.28,86,614.28,88.37Z"/><path class="cls-1" d="M602.6,89,597,90c.1.06-.6.27-1.46.49C599,89.81,602.77,89.08,602.6,89Z"/><path class="cls-1" d="M595.53,90.53c-1.8.38-3.5.76-4.48,1C592,91.38,594.1,90.9,595.53,90.53Z"/><path class="cls-1" d="M664.81,72.83c-1.4.53-3.61,1.23-2.65,1.13l6-1.89C668.67,71.73,667,72.11,664.81,72.83Z"/><polygon class="cls-1" points="338.49 118.53 343.25 118.79 340.18 118.42 338.49 118.53"/><path class="cls-1" d="M347.63,117.84l1.12.65,2.86-.59A28.69,28.69,0,0,1,347.63,117.84Z"/></g></g></svg>