<svg xmlns="http://www.w3.org/2000/svg" viewBox="0 0 711.07 313.26"><defs><style>.cls-1{fill:#fff;}.cls-2{fill:none;}</style></defs><g id="Layer_2" data-name="Layer 2"><g id="Layer_1-2" data-name="Layer 1"><circle class="cls-1" cx="354.91" cy="155.83" r="116.04"/><path class="cls-1" d="M354,37.37c1.09,0,.7-.4.87-.48C353.06,37,354.08,37.48,354,37.37Z"/><polygon class="cls-1" points="336.13 39.81 336.42 39.59 333.87 40.47 336.13 39.81"/><path class="cls-1" d="M319.75,43.65c1.74.25,5.81-1.87,8.82-2.21l.52,0,1.19-.86c-1.76.47-3.8,1-5.66,1.61S321,43.37,319.75,43.65Z"/><path class="cls-1" d="M310.74,45.25c.62,0-1.74.94,2-.7l-.38.08C312,44.77,311.55,45,310.74,45.25Z"/><path class="cls-1" d="M312.36,44.63c1.66-.68-1.18.21,0,0Z"/><path class="cls-1" d="M304.79,48l2-1.2c-.51.06-2.45.89-1.79.46C302.89,48.39,303.42,48.33,304.79,48Z"/><path class="cls-1" d="M303,49.42c.35-.22.7-.43,1.05-.62A1.84,1.84,0,0,0,303,49.42Z"/><path class="cls-1" d="M306.31,47.53,304,48.8c.36,0,.49.16,1-.56C305,48.51,305.37,48.12,306.31,47.53Z"/><path class="cls-1" d="M307.69,47c1.26-.42,2.89-.94.8.18,2.05-.91,2.9-1.37,2.7-1.44A11.73,11.73,0,0,0,307.69,47Z"/><path class="cls-1" d="M319.17,44.63c.57-.12,1.13-.25,1.71-.33l1.38-.64a13.81,13.81,0,0,1-1.88.51C319.67,44.35,319.08,44.54,319.17,44.63Z"/><path class="cls-1" d="M291.68,54.71c-.05.21.88-.08,1.13,0,.45-.38.93-.71,1.4-1.05C293.37,54,291.9,54.84,291.68,54.71Z"/><path class="cls-1" d="M292.81,54.7l-2.05,1.62C292.73,55.09,293,54.76,292.81,54.7Z"/><path class="cls-1" d="M303,50.33c1.16-.84,2.41-1.53,3.62-2.3-1.47.87-2.94,1.71-4.34,2.67Z"/><path class="cls-1" d="M283.41,60.33c.32-.39.66-.76,1-1.15q-.95,1-1.8,2Z"/><path class="cls-1" d="M278.27,64.52c.64-.95-1.46.61-.7-.29a30,30,0,0,0-3.22,3.51A22.26,22.26,0,0,1,278.27,64.52Z"/><path class="cls-1" d="M272.89,69.59c.48-.56.95-1.18,1.46-1.85A18.85,18.85,0,0,0,272.89,69.59Z"/><path class="cls-1" d="M287,58.73a4.73,4.73,0,0,0-1.92.83l1.08-.24Z"/><path class="cls-1" d="M286.24,59.31h0l-1.81,1.26Z"/><path class="cls-1" d="M287.25,58.58l-.21.15A.24.24,0,0,0,287.25,58.58Z"/><path class="cls-1" d="M296.81,53.17c-1.21,1-3.81,2.75-1,1.55C296.63,53.92,295,54.62,296.81,53.17Z"/><path class="cls-1" d="M288.59,58.29c.76-.51,1.57-.95,2.35-1.42-.1-.07-.61.06,0-.45C290.13,57.05,289.34,57.64,288.59,58.29Z"/><polygon class="cls-1" points="287.57 59.18 288.59 58.29 287.74 58.85 287.57 59.18"/><path class="cls-1" d="M276.66,66.68A16.57,16.57,0,0,1,275.35,68l-1.47,1.48c1.18-1,2.44-2.08,3.62-3.09C277.57,66.19,277.93,65.56,276.66,66.68Z"/><path class="cls-1" d="M281.25,63l-.2.19C281.2,63.11,281.31,63,281.25,63Z"/><path class="cls-1" d="M263.92,80.06l.21-.13a.24.24,0,0,1,0-.09Z"/><path class="cls-1" d="M277.75,66.32a9,9,0,0,0,1.84-1.8c-.64.61-1.33,1.25-2.09,1.91C277.46,66.54,277.47,66.58,277.75,66.32Z"/><path class="cls-1" d="M270.13,72.57c.48-.39,1-.84,1.62-1.29A5.62,5.62,0,0,0,270.13,72.57Z"/><path class="cls-1" d="M280.66,63.34l.13-.12C280.43,63.39,280.5,63.39,280.66,63.34Z"/><path class="cls-1" d="M280.66,63.34a15.26,15.26,0,0,0-1.07,1.18c.55-.48,1.05-.93,1.46-1.33A2.79,2.79,0,0,1,280.66,63.34Z"/><path class="cls-1" d="M263.35,85.17c-.09-.2.26-1,.88-1.89a16.56,16.56,0,0,1,1.12-1.49,16.09,16.09,0,0,1,1.46-1.4c1.48-2.16-.6-1.75-2.68-.46.09.18.16.25-1.32,2.54.7-.66,4.24-4.28,3-2.32a20.42,20.42,0,0,1-1.94,2.3,16.19,16.19,0,0,0-1.27,1.09c.65-.43.08.58-.5,1.66s-1.14,2.3-.63,2.19c.51-.9,1.1-1.75,1.67-2.62C263.29,84.79,262.74,85.79,263.35,85.17Z"/><path class="cls-1" d="M267.57,76l.74-.84c-.95.86-1.66,1.45-3,2.53-1.08,1.54-1.22,1.93-1.2,2.11,1.23-1.37,2.41-2.78,3.68-4.12Z"/><path class="cls-1" d="M271.81,71.58c-.36.89-2,3-.58,2.12,2.27-2.35,1.38-1.86,2.65-3.36-3.75,3.73.94-1.22-2,1.24.7-.77,1.37-1.43,2-2.06-.73.62-1.45,1.21-2.13,1.76l.1-.07h0c.21-.12.28-.15.07,0,0,0-.05.06-.07.08a.58.58,0,0,1-.06.29c-1.18,1-.25.08.06-.29a.27.27,0,0,0,0-.09h0c-1.24,1.27-2.36,2.67-3.54,4C269.14,74.43,270.07,73.37,271.81,71.58Z"/><path class="cls-1" d="M293.91,56.94c-.16.06-.17,0-.2,0C293.46,57.18,293.37,57.28,293.91,56.94Z"/><path class="cls-1" d="M292,57.88a6.36,6.36,0,0,1,1.54-1.2c1-.47.1.18.22.27.56-.51,2.06-1.65,0-.59l-.28.25a18.1,18.1,0,0,1-4.18,1.79A8.3,8.3,0,0,0,292,57.88Z"/><path class="cls-1" d="M281.52,64.36c-1.13.94-2.17,2-3.23,3l1.93-1.17-.23-.1C282,64.54,281.39,64.7,281.52,64.36Z"/><path class="cls-1" d="M263.42,80.3l0-.73c-.42.77-.75,1.61-1.12,2.4Z"/><path class="cls-1" d="M259.89,84.87l-.18-.4c-.25.45-.47.92-.7,1.38Z"/><path class="cls-1" d="M412.81,253.63l1-.72C413.35,253.23,413,253.45,412.81,253.63Z"/><path class="cls-1" d="M404.84,257.92l-.11.27C405.05,257.9,405.17,257.75,404.84,257.92Z"/><path class="cls-1" d="M254.11,218.19c.71,1.79,1.39,3.91,1.64,3.47l0-.74A19.39,19.39,0,0,1,254.11,218.19Z"/><path class="cls-1" d="M332.1,269.51l-.51-.23-1.31.13C330.83,269.44,331.44,269.51,332.1,269.51Z"/><path class="cls-1" d="M333.72,268l2.33.71A23.79,23.79,0,0,0,333.72,268Z"/><path class="cls-1" d="M448.27,219.83c.16-.48.32-1,.45-1.45C447.46,220.26,448.19,219.55,448.27,219.83Z"/><path class="cls-1" d="M237.71,139c-.38,1.6-.61,2.89-.78,4C237.43,141.06,238,139.53,237.71,139Z"/><path class="cls-1" d="M412,259.44c.65-.47.9-.72.83-.79C412.11,259.12,411.75,259.43,412,259.44Z"/><path class="cls-1" d="M236.54,147.72c.05-.29.11-.57.16-.86a32.41,32.41,0,0,1,.23-3.87A13.88,13.88,0,0,0,236.54,147.72Z"/><path class="cls-1" d="M418.42,61.67c-.1-.09-.23-.18-.31-.26S418.19,61.53,418.42,61.67Z"/><path class="cls-1" d="M370.62,39c.54,0,1.4.15,2.22.25A18.32,18.32,0,0,0,370.62,39Z"/><path class="cls-1" d="M247.72,104.63c.51-1.11,0-.2,0,0Z"/><path class="cls-1" d="M251.93,100.14c-.07.25-.11.45,0,.53A.9.9,0,0,1,251.93,100.14Z"/><path class="cls-1" d="M239,159.82v.1C239.11,159.56,239.09,159.62,239,159.82Z"/><path class="cls-1" d="M248.72,103.07c-.25.39-.54.84-.82,1.34C248,104.2,248.29,103.79,248.72,103.07Z"/><path class="cls-1" d="M248.43,103.2c.2-.37.37-.66.52-.93S248.85,102.2,248.43,103.2Z"/><path class="cls-1" d="M247,106.2c.28-.64.57-1.23.86-1.79-.13.21-.19.29-.18.22Z"/><path class="cls-1" d="M468.62,140.77v-.26C468.29,139.35,468.39,139.86,468.62,140.77Z"/><path class="cls-1" d="M277.36,239.39l-.11-.08.12.14Z"/><path class="cls-1" d="M280.73,242a8.53,8.53,0,0,1-3.36-2.51c.05.62.1,1.26.18,1.88Z"/><path class="cls-1" d="M430.22,240.76l-2.49,1.64c2.28-2.81,4.32-4.33,1.9-2.92.15.32-.31,1-1.08,1.74a27.84,27.84,0,0,1-2.95,2.64c-1.11.89-2.22,1.79-3,2.55s-1.36,1.3-1.25,1.64l-1.75.89c.46-.31.49-.43.95-.74-3.44,1.67-1.75,2.43-6,4.94-1.51.81-2.66,1.2-1.73.49l-3.13,2.18c-1,.52-.85.19.12-.34-1.67,1-3.4,1.85-5.09,2.78l0-.06a35,35,0,0,1-3,2.14c-1.43.43.62-.44.2-.44-.93.54-1.86,1.11-2.81,1.61-.68.08-.43-.2.25-.6a18.35,18.35,0,0,1,2.76-1.44,4.81,4.81,0,0,0-3.15.94,18.58,18.58,0,0,1-5.45,2.11c.93-.38,1.84-.84,2.75-1.25a12.71,12.71,0,0,0-3.28.62c-1.22.32-2.59.73-4.27,1.05.82,0,6.84-1,3.67.39a17.2,17.2,0,0,0-3.91,1.43c-.16-.45-1.88.16-4.08.81l0-.66a14.51,14.51,0,0,0-2.08.92,10.56,10.56,0,0,1-1.34.76c-2.71.56-3.37.21-4.09-.1-4.35.67,3.16.24-2,1.28-.92.1-1.76.22-2.58.37s-1.61.22-2.43.37c-1.63.28-3.35.71-5.54,1-2.59,0,.42-.43-.52-.54l-2.24.69c-.56,0-.39-.14-.3-.23-1.92.3-.13.66-3.17.92-.4.35-2,.18-3.91-.09a22.06,22.06,0,0,0-6.11-.28c-.92-.25.47-.36.2-.62l-4.69.12c-1,0-1.88,0-4,.12-1.18-.29-2.36-.57-3.52-.94,2.54.94-.89.9-3.95.83.89.39,1.66.74,2.18.93-1.6-.17-3.21-.33-4.81-.61-.54-.23,0-.34.81-.42l-.9-.05c-1.63-.62-.67-.78.6-.85l1.61.77c1.24-.17,2.41-.4,2.23-.81a10.28,10.28,0,0,1-1.57-.1c.33-.05.54-.11.41-.2a6.77,6.77,0,0,0-1.45-.05l-.91-.94-.31.22c-2-.6-4-1.2-5.9-1.94l-3.31-.34c-1.1-.16-2.23-.32-3.44-.52l-1.88-.34c-.65-.14-1.3-.32-2-.51a44.66,44.66,0,0,1-4.59-1.49c1.82.25.68-.63,1-1.16a9.84,9.84,0,0,0,3.58,1.58l2.42.71a25.31,25.31,0,0,1,2.57.8c-1.78-.67-1.28-.82-.79-.76-2.13-.46-4.2-1.14-6.3-1.73.33-.41-1.15-.85-2.6-1.77.39.73-.78.38-2.38-.25-.8-.3-1.69-.72-2.52-1.13s-1.65-.77-2.28-1c0-.38.74-.39,3.58,1.15-2.81-2.31-4.69-1-7.42-3.35.69.39,1,.65,1.39.65a21.69,21.69,0,0,1-3.3-1.77c-1-.67-1.67-1.28-1.15-1.11l.66.42c-1.08-.73-2.47-1.64-4-2.58L287,248c-2.81-2-5.22-3.59-5.78-3.53a3.55,3.55,0,0,1,1.54-.28c-3-1.27-6-2.6-8.95-4.15,1.1,0,0-3.39,3.45-.7-.41-.46-.88-1-1.5-1.59s-1.41-1.28-2.4-2.16c.51.69.73,2.27-.13,1.48-1.62-2.9-1.27-1.89-3.4-5.27.71,1.07-1.06.77-2.37-.8.33.13.74-.86,1.32-.39l-2.08-1.53c-.69-.52-1.33-1.08-2-1.62.94.87.88-.42.44-1.49.08.27-.59-.59-1.38-1.63s-1.63-2.36-2.06-2.86l1,1.88a18.25,18.25,0,0,0-3.81-4.22,20.64,20.64,0,0,1-1.71-1.62,13.47,13.47,0,0,1-2-2.74c.54.48,2.06.73.76-1.82a26.4,26.4,0,0,1-7.86-8.22l-.11-1c-.65-1.14-1.32-2.27-1.89-3.45.81,1,2.42,2.82,4,4.78.78,1,1.68,1.94,2.46,2.87s1.5,1.79,2.09,2.5c-.75-2,.07-.7-1.4-3.5-.23-1.13,1.2,1.32,1.64,2.13-1.06-2.2-2.14-4.39-3-6.66-.24.29-1-.92-1.7-2.14s-1.31-2.53-1.52-2.29c1.14,2.43,2.53,4.73,3.82,7.06-.24.3-1.14-.55-2.26-2.09a22.68,22.68,0,0,1-1.73-2.79,31.6,31.6,0,0,1-1.53-3.52c-.24-1.34,1.48.51,1.65.32a12.61,12.61,0,0,1-1.26-2.51,14.65,14.65,0,0,1-.84-2.51l1.05,2a16,16,0,0,0-1.51-3.61,11.93,11.93,0,0,1-1.19-4.18c-.33-1.17-.06-3.69-.49-3.8-.3,2.08-2.51,3.08-3.37,1.9,0-.21-.2-1.84-.39-3.6a31.59,31.59,0,0,1-.15-4.36c.24-2.08,1.94,2.72,2.15.94-.19,0-.61-1.09-.76-1.53-.07-1.28.65.42.08-2.28-.74-.36-.65-5.59-.74-1.21a18.08,18.08,0,0,1-.36-2.84c0-.78-.1-1.62-.22-3.21-.18.53-.61-.15-1-1.31a17.05,17.05,0,0,1-1-4.18c.18.16.39-.47.48-.77,0-1.41,0-2.65,0-3.8s.13-2.22.2-3.27.14-2.09.21-3.19.22-2.26.32-3.56c.19-.47.61-2.95.8-1.86a14,14,0,0,1,0-3.06c1-3-.36,3.56.64,1.3-.34-.24-.09-4.18.14-6.46a6.24,6.24,0,0,0-.77,3.11c-.12,1.52-.15,3.25-.17,4.4-.42,0-.73-1.07-.89-2.8a28.54,28.54,0,0,1-.1-3.07c.06-1.16.16-2.45.3-3.83.27-2.19.58-2.61.71-2.61s.21.46.23.08a37.4,37.4,0,0,0,.9-4.6c.2-1.13.26-2,.33-2.79a20.17,20.17,0,0,1,.34-2.53,21.41,21.41,0,0,1,1.33-3.69c1.38-2.41,1.05.23,1.61-.21a32.27,32.27,0,0,1-1.47,4.11,33.46,33.46,0,0,0-1.18,3.31l1.06-2.79a22.92,22.92,0,0,1-1.16,4.65,22.56,22.56,0,0,0,1.1-3c.21-.72.46-1.52.72-2.38l.92-2.69c.33-.93.64-1.9,1-2.86s.77-1.9,1.15-2.82a44.94,44.94,0,0,1,2.33-5c.3-1.09.93-2.93.36-2.19l-.76,1.85c-1.15,1.5,1-3.69-.22-1.46.39-1.31.93-2.64,1.51-4.11.31-.73.64-1.49,1-2.26s.89-1.54,1.41-2.33l.89-.32a9.8,9.8,0,0,0-1.92,3A18.4,18.4,0,0,1,254,97a21.06,21.06,0,0,0,1.17-1.8,4.53,4.53,0,0,0,.66-1.57c-.6.67-1.22,1.33-1.77,2,.53-1.26,1.2-2.64,1.91-4.11a20.7,20.7,0,0,1,2.66-4.24c-1.39.92-.41.67-2.38,2.26,1.86-1.29-4.73,7.34-2.14,5a12.32,12.32,0,0,0-2.23,2.73c-.65,1-1.35,2-2.38,3.34.22,0,.87-.85-.53,1.66a5.19,5.19,0,0,1-.13.64l-.1.16.1-.13c0,.13,0,.14,0,0a5.91,5.91,0,0,1,.94-1.15,22.67,22.67,0,0,1-1.28,3.49c-.54,1.4-1.11,2.8-1.32,3.55-.78,1.5.08-.74-.5,0-.21.74-.4,1.49-.56,2.25-.49,0-2.34,3.91-1.12.09l-1.34,3.35a31,31,0,0,0-2.36,6.43c-.56,1.62-.7,4.28-.63,2.76-.21.92-.44,1.83-.63,2.76l-.5,2.78-.12,0a81,81,0,0,0-1.4,8.5c-.28,2.95-.75,6-1.33,9.12,0,.94,0,1.9-.06,3s0,2.37-.13,3.94l-.41.61c0,1.21,0,3,0,4.66a11.46,11.46,0,0,0,.24,3.62,10.44,10.44,0,0,0-.25,3c0,.65,0,1.35.09,2.09s.19,1.51.29,2.29c.24,1.55.45,3.17.75,4.64s.55,2.81.69,3.87l.53.06a40.44,40.44,0,0,0,1,4.3l.63,2.27c.25.78.54,1.59.83,2.44l.37-.33c.62,1.44,1,3.4,1.66,5.53.31,1.07.62,2.2.95,3.36s.8,2.29,1.26,3.43a7.23,7.23,0,0,1-.93-2.29,26.34,26.34,0,0,0,1.36,4.32c.61,1.4,1.36,2.76,2.08,4.1s1.52,2.61,2.21,3.89a40.67,40.67,0,0,1,1.83,3.78,12.73,12.73,0,0,1,1.61,2.8c-.07-.1-.13-.2-.19-.27l.27.47c.22.56.46,1.12.76,1.71-.2-.53-.43-1-.61-1.45.52.88,1.43,2.15,2.34,3.37l-.05.81.2.29c.67,1.37.84.89.71,0a13,13,0,0,0,1.38,1.49A4.89,4.89,0,0,0,259.4,225a7.31,7.31,0,0,1,1.55,2.58,28.82,28.82,0,0,1,3,3.14c1.34,1.34,2.69,2.62,3.27,2.64,0,.11.21.48-.33-.13a17.54,17.54,0,0,0,3.34,3.56l.05.95,1.57,1.05,1.62,1c1.35,1.81,1.89,2.62-.06,1.42l3.86,2.87a35.75,35.75,0,0,0,3.47,2.33l-.42.17c1.3,1,3.67,2.19,4.24,3a27.87,27.87,0,0,0,3.47,2.91c.79.62,1.72,1.24,2.72,1.89l3.16,2.05c4.5,2.7,9.77,5.48,14,7.64-.59-.91.34-.32,1.53.36s2.67,1.44,3,1.09c.41.45,1.58,1.08.07.74,2.28.81,4,1.39,5.5,2a14,14,0,0,0,4.62,1c.46.42-1.1.11-.68.4a6.28,6.28,0,0,1,2,.48c.43.3-.74,0-1.51-.06a24.41,24.41,0,0,0,2.88.64,6.92,6.92,0,0,0,1.73,0,1.88,1.88,0,0,0,1.4-.83,16.16,16.16,0,0,0,2.88.91,10.19,10.19,0,0,0,2.53,0c.8.41,2.17.93-.84.49l2.31.48,1.68.34,1.81.25c2.4.32,4.62.54,4.74.19a11.46,11.46,0,0,0,2.83.19c1.91.17,2.95.26,4,.28s2.06.07,3.94.08l-1-.13c1.49-.7,3.11-.17,6.14-.33l-.08.08a25.4,25.4,0,0,0,3.51,0,11.58,11.58,0,0,0,1.44-.16,12.85,12.85,0,0,1,1.43-.14l1.35,0,2.12-.09-.43-.43c.26-.55,1.77-.59,3.71-.6a28.69,28.69,0,0,0,6.23-.76h-1.46a13.8,13.8,0,0,1,4.15-.29,18.45,18.45,0,0,0,4.27-.07c.48-.05-.69.36-1.33.58,5.73-1,.56-.8,4.64-2.11.86.1-.72,1.15,2.07.34a33.57,33.57,0,0,0,4.84-2c1.08-.55,2.24-1.12,3.37-1.6.56-.24,1.12-.46,1.66-.65s1-.38,1.52-.51c-.9.12-1.78.23-.05-.76,2.74-1.27,7.89-2.65,9.9-4.74.37-.13.53-.15.57-.1,1-.69,2.58-1.65,4-2.72A25,25,0,0,0,420,253.3a5.69,5.69,0,0,0,2.92-1.32,34.39,34.39,0,0,0,3.8-3c1.24-1.13,2.45-2.17,3.34-2.94s1.56-1.15,1.8-.86c.89-.8,1.8-1.56,2.66-2.39l2.57-2.5,0,.24a26.77,26.77,0,0,0,3.43-3.67,18.45,18.45,0,0,0,1.54-2.36c.77-.73.37-.05.37.07a46.14,46.14,0,0,0,4.55-5.17,37.09,37.09,0,0,0,3.13-5.22l.74-.19c.71-1.32,6.14-7.57,8.64-13.71,0,.08.05.24-.13.74,1.47-3.4,3.67-7.24,5.27-10.75s2.68-6.61,2.26-8.17c.41-1.57.64-3.19,1-4.78-1.84,6-.5-1.11-1.49,1.28a20,20,0,0,1,1.25-3.49c.36-.84.62-1,.27.47l-.21.43c.71,1.34,2.15-7.48,2.67-7.2a144.25,144.25,0,0,0,2.36-18.16q.1-2.27.21-4.5c0-1.49,0-3,0-4.47,0-.74,0-1.48,0-2.22s-.09-1.47-.13-2.2c-.12-1.47-.15-2.93-.35-4.38-.18.47-.36.94-.58,1.41-.11-1.34-.3-2.68-.44-4,0-1.08.39-1.5.72,1.38a9.92,9.92,0,0,0-1.18-4.81c-.7-5.62,1.23,2,.94.33l-.47-2.32v.54c-.31-.92-.55-1.4-.79-2.09-.12-.34-.23-.73-.36-1.25s-.31-1.15-.5-2c-.35-2.17.19-1.2,0-2.05,0,0,0-.3-.28-1.3-.41-1.66-.88-3.3-1.32-5v2.12c-.88-2.09-1.31-4.6-1.27-2.16,0-1.79-1.4-6.35-3.15-10.59-.84-2.13-1.86-4.14-2.59-5.8s-1.42-2.85-1.58-3.36c-.46-.65-.88-1.32-1.3-2s-.88-1.35-1.31-2.05c-.87-1.41-1.69-2.95-2.74-4.57.42.87.17,1.69-1.54-1.13.87.15.23-1.25-.86-2.94a32.47,32.47,0,0,1-3-5.13c.49,1.14-1-.71-2.43-2.39s-2.88-3.1-2-1.39c-1.74-2.17.27-.45-.88-2.26-4.74-4.63-9.87-10.84-16.52-15.74-.21.06.7,1.12-.84.24-.93-1.15-2-2.18-3-3.27a5.34,5.34,0,0,0-1.67-.62,6.22,6.22,0,0,1-2.24-1.56c.27.35.67.87-.27.33a90.84,90.84,0,0,0-21.61-11.29A242.11,242.11,0,0,0,373.84,39c2.12.73.66.5-1,.22,1.07.27-.09.42.08.69-2.21-.5-4.44-1-6.68-1.49-.66.29-2.48.16-4.24,0s-3.45-.1-3.81.18l2.15-.06c-1.44.34-.45.76.82,1.27S364,41,363.73,41.41a8.54,8.54,0,0,1,2.71,0c1,.16,2.06.46,3.19.73A26.43,26.43,0,0,0,377,43.23c1.08.4-1,.14-.46.46,1.36-.21,2.92.1,5.72.93l-.35,0c2,.4,3.67,1,5.23,1.42s3,1,4.38,1.53,2.87,1.09,4.46,1.83,3.38,1.46,5.42,2.5l-.43-.71a21.77,21.77,0,0,1,2.88,1.66c2.37.28-5-2.32-2.83-2.19a13.14,13.14,0,0,0,2.84,1.75l4.3,2.26a41.93,41.93,0,0,1,4.05,2.37,6.58,6.58,0,0,1,2.18,1.86c2.54,1.64-.46-1,2.08.69l.52.69.85.09c1.65,1.11,2.21,2.07,2.14,2.29-.37-.3-1.15-.73-1.58-1a30.52,30.52,0,0,0,3.77,2.79,31,31,0,0,1,2.77,2c-.73-.64-1.44-1.3-2.18-1.93,1.66,1.21,3.42,2.51,5.13,3.93s3.46,2.9,5.08,4.51l2.47,2.33,2.34,2.37c1.59,1.53,3,3.12,4.43,4.52l-.22-.6c.54.55,1,1,1.37,1.43s.67.8.94,1.14c.52.67.89,1.19,1.25,1.73l1.27,1.85c.52.78,1.2,1.74,2.21,3.08l-.19-.17a21.79,21.79,0,0,1,3,4c-1.14-1.29,1.29,2.95-.16,1.23,1.93,2.69,2.35,3.4,2.76,3.79a15.49,15.49,0,0,1,2.09,2.27l.13,1.07c.49.59.79.89,1.17,1.42a17,17,0,0,1,1.59,2.79c-1.43-2.38.37,2.2-1.28-.44a35,35,0,0,0,1.7,4.33c.54,1.24,1,2.32,1.51,3.28a10.79,10.79,0,0,1,1.53,5.18c1,1.36.66-.12.15-1.75s-1.28-3.35-.83-2.55c-.12-.76.3-.21.85.8a24.91,24.91,0,0,1,1.4,3.61,11.59,11.59,0,0,1,.41,3.51,24.74,24.74,0,0,0,.25,2.5c.08.48.18,1,.31,1.58s.22,1.21.39,1.9c-.13-.55-.21-.57-.33-1.11a17.34,17.34,0,0,0,.74,3.09c.16.52.31,1.07.44,1.64a11.86,11.86,0,0,1,.17,1.84c.87,1.32.56,3.32,1.41,3.61l-1.09-5.09c.36,1.43.89,2.78,1.38,4.4a23.77,23.77,0,0,1,.89,6,19.27,19.27,0,0,1-.83-2.74c-.08,1.43.54,2.69.4,4.18-.39-.17-.61-1.73-.88-3.62-.13-1-.26-2-.44-3a17.79,17.79,0,0,0-.74-2.65,18.69,18.69,0,0,0,.62,3.28c.21,1.08.31,1.78-.21,1.06a8.78,8.78,0,0,1,1,4,20.2,20.2,0,0,0,.65,5.23l-.49-.22a15.32,15.32,0,0,1,.41,3l-.67-2c.59,3.06-.25,5.93-.11,8.87.08-3.08.22-3.43.4-3.33s.44.65.58-.67c.49,7.69-1.18,4.39-1.62,12.87,0-1.15.62-4.29.71-2.47-.12.8-.23,1.74-.43,2.59a17,17,0,0,1-.59,2.09c-.61,5.61.59-.8.58,1.63-.79,1.83-.19,2.78-.44,5.28l-.47-.07c-.18.79-.31,1.41-.39,1.9s-.16.85-.19,1.13a1.83,1.83,0,0,0,.1,1c.16.39.33.71-.51,3.51l-.09-2.56c-.19,1-.32,2-.54,3-.12-.25-.23-.5-.37-.75a29.88,29.88,0,0,1-.75,3.73,30.29,30.29,0,0,1-1.24,3.54c.56-.6.69.67-.22,3.41-.94,1.74,0-1.17-1.43,2.64a6.34,6.34,0,0,1,1.08-3.54c-.09-.22,0-.95-.09-1.18-.92,1.9-1.9,4.9-2.42,6.27a12.29,12.29,0,0,1,.68-1.43c-.26.95-.5,1.91-.77,2.85l-.91,2.82c-.55.77-.38,0-.21-.68-.46,1.1-.54,2-1.3,3.55-.15-.58-.52-.65.31-3-.6,1.76-1.35,3.46-2.06,5.19-.31.26-1.74,2.31-1.53,1.6a39.25,39.25,0,0,0-2.5,4.85,31.12,31.12,0,0,1-3.23,5.31,6,6,0,0,1-.7,1.35c-.58.77-1.16,1.51-1.74,2.24L444,225.72c-.62.72-1.22,1.49-1.85,2.3s-1.29,1.64-1.94,2.59c-.75.49-1.45,1-2.23,1.47-2.35,2.69,3.08-1.94-.85,2.56-2.77,3.22-1.51.73-2.7,1.63-.64.85-1.49,2-2.59,3.3a21,21,0,0,1-4.19,3.54C428.51,242.17,429.34,241.59,430.22,240.76ZM392.47,263.3c.39-.18,1-.49,1.53-.74a3.56,3.56,0,0,1,1.43-.47C394.72,263,393.92,263,392.47,263.3Zm-66.62,3.83a8.36,8.36,0,0,1,2.67.74A15.33,15.33,0,0,1,325.85,267.13ZM243,117.2v.1C242.19,119.12,242.49,118.48,243,117.2Zm1.61-3.81c.09-.41,0-.41-.11-.27a8.75,8.75,0,0,1-.74,2.15A4.75,4.75,0,0,0,244.63,113.39Zm224.82,14.17.05.81C469,126.65,469.2,127.11,469.45,127.56Z"/><path class="cls-1" d="M333.51,268.15a.57.57,0,0,1,.31.32C334.17,268.45,334.19,268.36,333.51,268.15Z"/><path class="cls-1" d="M448.18,220.1l.08-.11a.31.31,0,0,0,0-.16Z"/><path class="cls-1" d="M242.57,175.54a8.14,8.14,0,0,1,0,1.61C242.72,177.17,242.76,176.78,242.57,175.54Z"/><path class="cls-1" d="M253.62,93.39c-.46.76-.84,1.56-1.25,2.35a9.74,9.74,0,0,1,1.35-2C253.59,93.75,253.18,94.1,253.62,93.39Z"/><path class="cls-1" d="M269.78,77.06c.22-.31.55-.59.76-.9l-.23-.08C269.2,77.27,268.56,78.21,269.78,77.06Z"/><path class="cls-1" d="M256.3,92.19c.23,0,.53-.33.9-.89s.79-1.32,1.3-2.08l-.18.27c-.08-.39-.36-.15-.75.39A24.77,24.77,0,0,0,256.3,92.19Z"/><path class="cls-1" d="M258.74,88.87c.31-.48.64-1,1-1.39C259.66,87.17,259.28,88,258.74,88.87Z"/><path class="cls-1" d="M246.36,108.44c.46-.76-.24-.71.11-1.1,0-.56-.49.85-.73,1.83-.12.48-.16.87-.09.85A6.93,6.93,0,0,0,246.36,108.44Z"/><polygon class="cls-1" points="258.22 91.67 257.44 91.95 257.23 93.03 258.22 91.67"/><path class="cls-1" d="M250.7,103.93l1.46-2.53c-.1,0,0-.35.2-.77A23,23,0,0,0,250.7,103.93Z"/><path class="cls-1" d="M252.36,100.63a23.37,23.37,0,0,0,1.09-2.09A23,23,0,0,0,252.36,100.63Z"/><path class="cls-1" d="M256.2,95.1l-.55.67-1.05,1.76C255.13,96.72,255.62,95.87,256.2,95.1Z"/><path class="cls-1" d="M240.56,133.49l-.42,3.16c.12.35.37-.49.51-1.66C240.67,134.22,240.81,133,240.56,133.49Z"/><path class="cls-1" d="M244.12,124.5a4.35,4.35,0,0,1-.75,1.24l.58.25Z"/><path class="cls-1" d="M242.11,133.45c.11.34-.31,4.56.35.65C242.32,133.75,242.8,130.64,242.11,133.45Z"/><polygon class="cls-1" points="241.82 180.63 241.63 179.85 240.66 180.18 241.82 180.63"/><path class="cls-1" d="M260.05,217.82c-1.77-3.22-1-.39-2.53-3.37-.67-.6,1.23,2.44.59,1.8C259.53,218,260,219.05,260.05,217.82Z"/><path class="cls-1" d="M258.11,216.25c-.23-.28-.47-.57-.75-.88C257.77,215.88,258,216.11,258.11,216.25Z"/><path class="cls-1" d="M361.7,37.54c-.81-.15-1.64-.21-2.46-.31l1.58.39C361.11,37.58,361.41,37.57,361.7,37.54Z"/><path class="cls-1" d="M357,38.14l-.56-.66-1.48.55A8.33,8.33,0,0,1,357,38.14Z"/><path class="cls-1" d="M385.84,264l-.13.2a6.1,6.1,0,0,0,2-.35Z"/><polygon class="cls-1" points="415.01 251.53 414.55 251.81 415.72 251.75 415.01 251.53"/><path class="cls-1" d="M435.27,234.2c-.75.79-1.59,1.76-2.4,2.49C434.53,235,436,234.49,435.27,234.2Z"/><path class="cls-1" d="M348.5,310.37a423.4,423.4,0,0,1-77.35-7.12C180.84,286.5,93.17,240,10.58,165L2.9,158l7.25-7.42c.84-.86,21-21.35,56.79-47.14,33-23.76,86-56.64,151.44-78.36C292.2.56,366.36-5,438.79,8.41c90.3,16.76,177.93,63.32,260.45,138.38l7.67,7-7.24,7.41c-.84.86-21,21.33-56.75,47.11C610,232,557,264.89,491.54,286.6,443.83,302.43,396,310.37,348.5,310.37ZM32,157.33C109.32,225.47,190.8,267.91,274.35,283.5c69,12.88,139.71,7.61,210.19-15.65C583.93,235,655.21,175.06,677.77,154.41,600.42,86.1,518.83,43.61,435.14,28.07c-69.07-12.83-139.88-7.45-210.45,16C125.45,77,54.53,136.72,32,157.33Z"/><path class="cls-2" d="M348.5,310.37a423.4,423.4,0,0,1-77.35-7.12C180.84,286.5,93.17,240,10.58,165L2.9,158l7.25-7.42c.84-.86,21-21.35,56.79-47.14,33-23.76,86-56.64,151.44-78.36C292.2.56,366.36-5,438.79,8.41c90.3,16.76,177.93,63.32,260.45,138.38l7.67,7-7.24,7.41c-.84.86-21,21.33-56.75,47.11C610,232,557,264.89,491.54,286.6,443.83,302.43,396,310.37,348.5,310.37ZM32,157.33C109.32,225.47,190.8,267.91,274.35,283.5c69,12.88,139.71,7.61,210.19-15.65C583.93,235,655.21,175.06,677.77,154.41,600.42,86.1,518.83,43.61,435.14,28.07c-69.07-12.83-139.88-7.45-210.45,16C125.45,77,54.53,136.72,32,157.33Z"/><path class="cls-1" d="M34.92,158c-1.58,1.38-.74,1.19-.92,1.45C36.54,157.05,34.79,158,34.92,158Z"/><polygon class="cls-1" points="60.88 134.96 60.51 135.47 64.3 131.99 60.88 134.96"/><path class="cls-1" d="M87,115.63c-2.91,1.21-9.59,6.85-14.34,10.16l-.86.44-1.76,2c2.81-2.12,6-4.67,9-6.93S85,117,87,115.63Z"/><path class="cls-1" d="M102.24,107.22c-.52.17.23-.38.31-.44s-.54.35-3.71,2.6l.64-.35C100.06,108.64,100.84,108.07,102.24,107.22Z"/><path class="cls-1" d="M99.48,109c-2.82,1.92,2-1.06,0,0Z"/><path class="cls-1" d="M112.66,100.36,109,103c.88-.36,4.28-2.48,3.09-1.58a16,16,0,0,0,2.61-1.93A7.69,7.69,0,0,0,112.66,100.36Z"/><path class="cls-1" d="M116,97.69l-2,1.29A7.37,7.37,0,0,0,116,97.69Z"/><path class="cls-1" d="M110,101.82c1.36-.95,2.7-1.91,4.06-2.84-.62.23-.79.09-1.88,1.28C112.43,99.86,111.71,100.56,110,101.82Z"/><path class="cls-1" d="M107.6,103.23c-2.21,1.23-5,2.91-1.34.27C99.05,108.21,100.4,108,107.6,103.23Z"/><path class="cls-1" d="M88,114.06l-2.88,1.79-2.25,1.89C84,116.8,88.26,114.12,88,114.06Z"/><path class="cls-1" d="M137,86.48c.18-.27-1.51.39-1.9.38l-2.81,1.79C133.83,87.9,136.7,86.39,137,86.48Z"/><path class="cls-1" d="M135.1,86.86l4.21-2.67C135.42,86.35,134.77,86.85,135.1,86.86Z"/><path class="cls-1" d="M116.3,96.6c-1.12.78-2.25,1.55-3.35,2.35l-3.31,2.43,4-2.85,4-2.75Z"/><polygon class="cls-1" points="153.74 77.54 151.41 79.16 155.61 76.36 153.74 77.54"/><path class="cls-1" d="M165,71.89c-1.75,1.17,2.78-.8.88.32,3-1.52,5.56-3,7.85-4.36A95.31,95.31,0,0,1,165,71.89Z"/><path class="cls-1" d="M177.62,65.77c-1.25.63-2.52,1.32-3.9,2.08C175.05,67.19,176.34,66.51,177.62,65.77Z"/><path class="cls-1" d="M146.82,80.26a16.38,16.38,0,0,0,3.67-1.44l-1.93.53Z"/><path class="cls-1" d="M148.49,79.37l.07,0,3.75-1.94Z"/><path class="cls-1" d="M146.38,80.48l.44-.22A.88.88,0,0,0,146.38,80.48Z"/><path class="cls-1" d="M127.71,90.22c2.43-1.64,7.63-4.86,2.29-2.28C128.32,89.23,131.37,87.75,127.71,90.22Z"/><path class="cls-1" d="M144,81.14l-2.36,1.18-2.34,1.25c.15.05,1.06-.27-.15.54l2.41-1.52Z"/><polygon class="cls-1" points="146.2 79.82 143.97 81.14 145.73 80.26 146.2 79.82"/><path class="cls-1" d="M169.24,69.19c1-.58,2-1.14,3.16-1.72s2.35-1.1,3.63-1.69c-2.82,1.1-5.64,2.46-8.31,3.75C167.4,69.83,166.33,70.61,169.24,69.19Z"/><path class="cls-1" d="M159.07,74l.45-.24C159.22,73.83,159,73.93,159.07,74Z"/><path class="cls-1" d="M201.61,55l-.44.09-.07.11Z"/><path class="cls-1" d="M167.23,69.68A31.22,31.22,0,0,0,162.86,72c1.51-.78,3.12-1.59,4.86-2.43C167.86,69.39,167.88,69.34,167.23,69.68Z"/><path class="cls-1" d="M184.62,62.46c-1.12.4-2.38.87-3.69,1.37A25,25,0,0,0,184.62,62.46Z"/><path class="cls-1" d="M160.26,73.5l-.3.17C160.67,73.42,160.57,73.42,160.26,73.5Z"/><path class="cls-1" d="M160.26,73.5c1-.56,1.81-1.06,2.6-1.54-1.23.63-2.37,1.23-3.34,1.77A6.66,6.66,0,0,1,160.26,73.5Z"/><path class="cls-1" d="M208.5,49.4c-.11.27-1.58.91-3.58,1.84a66.5,66.5,0,0,1-7.09,2.68c-4.63,2.16-1,2.13,3.34,1.17.08-.22,0-.37,4.8-2.52-1.78.47-11,3.82-7,1.86a41.23,41.23,0,0,1,8.55-3c-2.88.49,8.07-3.63,6.4-3.8l-5.66,2.27C208.11,49.83,210.14,48.93,208.5,49.4Z"/><path class="cls-1" d="M191.91,58.74l-2,.84c2.31-.85,4-1.35,7.11-2.26,3.24-1.5,3.88-1.91,4.06-2.12l-9.85,3.86Z"/><path class="cls-1" d="M181.1,63.47c1.36-1.07,6-3.33,2.94-2.48-5.77,2.58-3.91,2.12-7.28,3.81,9.28-4.21-2.58,1.4,4.25-1.34-1.8.87-3.43,1.62-5,2.32,1.7-.69,3.34-1.35,4.9-2l-.23.07,0,0h0c-.42.13-.56.16-.1,0l.19-.1a1.51,1.51,0,0,1,.36-.33c2.73-1.11.46-.08-.36.33,0,0-.09.09-.09.11h0l9.23-4.32C187.93,60.38,185.47,61.49,181.1,63.47Z"/><path class="cls-1" d="M134.3,84.46c.3-.12.3-.09.34-.07C135.19,84,135.39,83.86,134.3,84.46Z"/><path class="cls-1" d="M138.1,82.62a22,22,0,0,1-3.21,2c-1.89.92-.09-.18-.25-.25-1.22.81-4.3,2.77-.21.71l.6-.4c1.83-1,4-2,5.56-2.67a8.7,8.7,0,0,1,2.39-.89c-.62.11-1.2.23-1.95.43S139.38,82.12,138.1,82.62Z"/><path class="cls-1" d="M159.62,72.33l7.57-3.89L163.13,70l.29.1C159,72.12,160.09,71.91,159.62,72.33Z"/><polygon class="cls-1" points="202.59 54.84 201.71 55.68 206.03 53.26 202.59 54.84"/><polygon class="cls-1" points="212.9 50.92 212.65 51.43 215.31 50.23 212.9 50.92"/><path class="cls-1" d="M580.39,227.4l-2.14,1.33C579.27,228.12,579.92,227.71,580.39,227.4Z"/><path class="cls-1" d="M596.09,218.17l.28-.4C595.71,218.3,595.45,218.55,596.09,218.17Z"/><path class="cls-1" d="M478.5,41.23l2.53,1,2.22,1c1.3.57,2.15.88,2,.6l-.93-.76c-1.21-.36-2.28-.71-3.23-1S479.28,41.51,478.5,41.23Z"/><path class="cls-1" d="M643,125.63l-.76-.75-2.21-1.17Z"/><path class="cls-1" d="M646.17,125.78l3.65,3.16C649,128.19,647.85,127.18,646.17,125.78Z"/><path class="cls-1" d="M490.05,268.91l-2.63,1.4C491.76,268.77,489.78,269.24,490.05,268.91Z"/><path class="cls-1" d="M322.57,25.58c3.14-.12,5.62-.28,7.8-.46C326.6,25.22,323.53,25.13,322.57,25.58Z"/><path class="cls-1" d="M584.27,219.86c-1.26.85-1.78,1.27-1.69,1.33C583.89,220.31,584.61,219.78,584.27,219.86Z"/><path class="cls-1" d="M339.4,24.57h-1.66c-2.28.21-4.58.39-7.37.55A57.63,57.63,0,0,0,339.4,24.57Z"/><path class="cls-1" d="M140.84,237.51l-.69-.44C140.05,237.09,140.37,237.26,140.84,237.51Z"/><path class="cls-1" d="M56.54,175.43c.81.63,2.11,1.68,3.35,2.68C59.31,177.6,58.3,176.79,56.54,175.43Z"/><path class="cls-1" d="M255.26,37.89c-2.26.6-.35.13,0,0Z"/><path class="cls-1" d="M243.83,39.24c.46-.18.81-.35.84-.46A2.72,2.72,0,0,1,243.83,39.24Z"/><path class="cls-1" d="M362.65,21.27h.2C362.16,21.19,362.27,21.21,362.65,21.27Z"/><path class="cls-1" d="M251.8,38.56c.86-.17,1.85-.37,2.93-.61C254.25,38,253.36,38.22,251.8,38.56Z"/><path class="cls-1" d="M252.31,38.64c-.79.17-1.39.36-2,.5C250.07,39.3,250.32,39.25,252.31,38.64Z"/><path class="cls-1" d="M258.41,37.07c-1.3.33-2.51.62-3.68.88.45-.08.64-.11.53-.06Z"/><path class="cls-1" d="M325,291l-.5-.08C322.1,290.91,323.15,291,325,291Z"/><path class="cls-1" d="M537.2,58.71l-.26-.09.31.16Z"/><path class="cls-1" d="M545,62a40.17,40.17,0,0,1-7.79-3.17l2,2.29C541.19,61.37,543.13,61.63,545,62Z"/><path class="cls-1" d="M541.74,247.62l5.54-2.23c-6.21,3.7-11,5.76-5.72,3.83.09-.8,5.3-3.35,10.5-5.9,2.62-1.23,5.16-2.62,7.09-3.73s3.21-2,3.24-2.39l3.61-1.57c-1,.51-1.12.67-2.11,1.17a21.84,21.84,0,0,0,6-3.41,38.65,38.65,0,0,1,7.21-4.69c3-1.58,5.22-2.58,3.26-1.3,2.16-1.35,4.34-2.67,6.45-4.1,1.91-1.12,1.57-.64-.34.48l9.93-6.08-.06.07,5.8-4.43c2.59-1.42-1.18.92-.45.66l5.26-3.74c2.4-1.11-1.92,2-5.7,4.39A18.32,18.32,0,0,0,607,211.5c.89-.66,2-1.45,3.51-2.47s3.54-2.35,6.35-4L612,208.58c3.67-1.57,7.5-4.41,13.45-7.93-1.47.78-12.12,6.72-6.49,2.55a52.64,52.64,0,0,0,6.81-4.83c.3.38,3.24-1.85,7-4.54l.12.7c4-3,3.41-3.13,5.6-5.09,4.5-3.27,5.74-3.54,7-4,7.11-5.39-5.34,3.13,2.92-3.42,3-2.18,5.5-4.1,8-6.28s5.19-4.47,8.44-7.48c4.11-3.17-.44.88,1.1-.18,1.06-1.12,2.14-2.21,3.18-3.35.85-.73.68-.38.59-.2,2.79-2.69-.17-.69,4.3-4.81a3,3,0,0,1,.65-.8c.17-.17.36-.35.58-.54l.91-.79,2.43-2c.44-.38,1-.78,1.41-1.2l-1.36-1.29-3.06-2.86c-.75-.7-1.52-1.42-2.3-2.12a49,49,0,0,0-4.74-3.8c-1.28-1.34.94.29.67-.27l-4.64-3.6-2.82-2.06c-1.61-1.16-3.06-2.15-6.57-4.55l-5.34-4.87c1.91,1.86,1.46,1.83-.07.92s-4.24-2.61-6.73-4.23c1.35,1.32,2.5,2.46,3.29,3.19l-7.7-5.47c-.84-.77,0-.37,1.44.36l-1.47-.93c-2.54-2.24-.93-1.48,1.21-.29l2.47,2.39c2.09,1.11,4.09,2.1,3.93,1.5-.53-.31-1.51-1-2.57-1.74.55.28.92.45.73.22a20.71,20.71,0,0,0-2.41-1.55l-1.28-1.87-.58-.09-4.79-3.95-4.89-3.81c-3.82-2.29-7.42-4.38-11.56-6.82s-8.88-5.12-14.78-8.92c3.18,1.51,1.09-.29,1.59-.71,2.81,2.71,9.2,5.84,15.14,10.08-3.08-2.23-2.24-2-1.38-1.52l-11.12-6.79c.27-.13-.25-.59-1.18-1.29S604.86,96,603.47,95c1.63,2.21-8.56-4.61-13.2-7.17-.1-.46,1.15-.08,6.57,3.43a30.19,30.19,0,0,0-7-4.15,31.81,31.81,0,0,1-7.1-3.8,14.67,14.67,0,0,0,2.69,1.43c-3.33-1.61-11-6.36-9-5.54l1.36.79c-1.13-.67-2.38-1.46-3.78-2.22l-4.43-2.41c-3.08-1.66-6.35-3.41-9.39-5-6.17-3-11.43-5.31-12.3-5.29a5.38,5.38,0,0,1,2.32-.18c-6-2-12.07-3.63-18.08-5.35,1.79,0-3.25-4.19,4.82-1-1.11-.57-2.36-1.2-3.94-1.93a59.47,59.47,0,0,0-6-2.47c1.55.72,3.48,2.64,1.33,1.76-5.57-3.19-3.92-2.09-10.92-5.74,2.29,1.12-.75,1.09-4.46-.47.65.07.11-1.18,1.51-.73-3.25-.88-6.53-1.65-9.78-2.48,2.41.68.74-.74-1.25-1.82.45.29-1.59-.47-4-1.41s-5.42-1.87-6.7-2.26l4,1.58a59.93,59.93,0,0,0-10.91-2.84c-1.38-.23-2.75-.51-4.47-.84s-3.75-.82-6.44-1.61c1.37.15,3.63-.45-1.82-2.17L469.89,35c-1.39-.08-3.08-.27-5-.37a104.85,104.85,0,0,1-13.42-1.71c-.59-.27-1.18-.52-1.78-.74L442.18,31c1.19,0,2.93.11,5,.22l3.27.19c1.14.09,2.33.23,3.54.35,4.82.54,10,1.12,13.61,1.7-4-1.32-1.05-.67-7.22-2.18-2.11-.84,3.48.38,5.3.81L451.3,28.36c.5.79-11.24-1.63-10.79-1,5.28.89,10.61,1.61,15.85,2.76.23.42-2.13.29-5.82-.18a130.86,130.86,0,0,1-13.86-2.25c-2.56-.8,2.17-.77,2-1-1.36-.14-9.87-1.33-10.79-1.66l4.45.39c-5.73-1.21-9.52-.78-16.38-2.3-2.39-.35-7.06-1.86-7.53-1.46,3.84,1.23,4.28,3.73,1.63,3.94-.41-.12-3.53-.6-6.88-1.18s-6.94-1.24-8.3-1.49c-1.95-.44-.44-.69,1.15-.93s3.25-.36,1.59-.79a4.43,4.43,0,0,1-1.36.15c-.69,0-1.47.06-1.93.06-2.52-.33,1.1-.49-4.42-.8-1,.62-11.19-.83-2.64.4-5.39-.21-5.71-.47-12-.7,2,.54-5.72,1.21-11.09,1.47.31-.17-.89-.4-1.48-.51-5.51-.11-9.75,0-13.89,0-2.08,0-4.13,0-6.3.1l-7,.37c-.95-.11-5.93,0-3.84-.43-1.47.18-2.81.58-6,.88-6.17,0,7.05-.74,2.32-1-.36.46-8.15,1.24-12.61,2,1.44.36,10.41-.87,14.9-1.56,0,.42-1.88,1-5.14,1.7s-7.85,1.36-13.14,2.28c-8.42,1.26-3.73-.09-5.19.22-15.86,2.17-13.25,3.4-26.39,5.25-5.28.45-.44-1-1.67-1.17,3.4-.74,6-1.15,8.4-1.48l6.79-1-2.88.32-2.88.41a63.34,63.34,0,0,1,9.23-1.69c-1.11,0-3.34.33-6.26.74s-6.47,1.17-10.29,1.87l-2.9.54-2.94.63-5.87,1.25c-1.92.42-3.81.77-5.57,1.18l-4.95,1.11c-2.09.71-5.73,1.82-3.93,1.59l3.78-1c3.59-.45-7,2.38-2.14,1.37-5,1.5-10.52,3.67-17.68,5.42-.51-.07-1-.11-1.5-.17a42.37,42.37,0,0,0,6.67-1.75c-1.43.57-4.23,1.08-7,1.81a31.9,31.9,0,0,0-7.05,2.43l5.05-1.16-8.08,3.16c-2.9,1.11-5.9,2.37-9,3.35,3-.42,1.39-.57,6-1.45-2,.26,1.88-1.18,5.58-2.29s7.09-2.23,3.87-1.7A52.7,52.7,0,0,0,239.66,42c2.18-.54,4.52-1.15,7.6-1.66-.24-.14-2.22.23,3.07-1.17.22-.12.76-.35,1.11-.5l.36-.08-.3.06c.22-.1.24-.11-.11,0a20.87,20.87,0,0,1-2.76.46c.62-.29,1.61-.66,2.79-1.07s2.57-.77,4-1.17c2.78-.79,5.59-1.55,7-2,3.18-.7-1.26.56.51.33,1.39-.49,2.79-.93,4.2-1.35.53.34,8.59-1.13,1.18.77L275,33.12l6.67-1.1c2.29-.4,4.5-.83,6.17-1.24,3.19-.56,8-1.86,5.26-1.08l10.62-1.94.11.09c10.55-1.32,21.7-3.47,33.92-3.28,1.78-.17,3.6-.34,5.72-.5s4.54-.16,7.54-.19l1.18.36c1.15-.07,2.58-.1,4.13-.12s3.18.07,4.74.1a51.75,51.75,0,0,0,6.91-.07,55.31,55.31,0,0,0,5.69.63c2.44.16,5.32.27,8.3.35s6.05.33,8.88.48,5.43.31,7.43.6l.35-.48c2.77.3,5.49.55,8.37.79,1.45.1,2.93.26,4.48.44l4.89.52L416,27c1.49.11,3.19.31,5,.57s3.83.7,5.93,1.1l6.56,1.29c2.25.43,4.54,1,6.86,1.45a26.38,26.38,0,0,1-4.64-.94c2.72.82,5.53,1.48,8.39,2.06s5.77,1,8.6,1.65,5.67,1.17,8.39,1.79a56.87,56.87,0,0,1,7.73,2.21,46.78,46.78,0,0,1,5.94,1.72l-.62-.15,1,.29,3.33,1.21c-1-.4-1.95-.77-2.79-1l3.45.94,2,.53,2.1.61,1,.85.65.2c2.66,1.07,2.26.5.92-.32,1.42.39,2.73.72,3.76.94,1.95,1.49,7.4,2.08,10.08,4,1,.16,4.46,1.37,7.9,2.51,1.72.57,3.44,1.11,4.84,1.52a10.65,10.65,0,0,0,2.88.67c0,.14.83.52-.64-.08a87.85,87.85,0,0,0,8.76,3.57l1,1.1,3.45,1,3.41,1.1c3.79,2.14,5.32,3.08,1.22,1.73,9.73,3.68,7.82,3.13,16,6.45l-.56.17c2.82,1.39,7.58,3.17,9.14,4.32,1.5.93,4.12,2.54,7.52,4.42l5.59,3.1,3.11,1.71,3.2,1.89,6.71,4c2.26,1.36,4.6,2.66,6.79,4.12,4.43,2.85,8.73,5.67,12.47,8.23-1.17-1.42.56-.22,2.64,1.42s4.6,3.54,5.15,3.36c.72.82,2.73,2.36.16.92,7.86,4.89,11.15,8.27,16.78,11.36.7.85-1.84-.82-1.17-.14a22.31,22.31,0,0,1,3.21,2.21c.66.69-1.24-.6-2.49-1.36a62.16,62.16,0,0,0,7.45,4.76,3.37,3.37,0,0,0,2.47.47,40.88,40.88,0,0,0,8.57,6.32c1.17,1.22,3.21,3.12-1.51-.37l3.57,2.81,5.26,4.35c3.62,2.95,7,5.61,7.34,5.47a21.93,21.93,0,0,0,2.13,1.83c.88.71,1.75,1.41,2.11,1.66l5.82,5.08,2.43,2.09,2.58,2.19-.92-.93a7.3,7.3,0,0,1,1.63.93l.4.31.2.16.1.08-.08.08c-.25.23-.52.46-.81.71l-1.94,1.62c-.88.76-1.87,1.61-3,2.58l.07-.17c-5.24,4.23-6.34,5.18-7.39,6.14-.53.49-1.06,1-2.12,1.82s-2.64,2.1-5.33,4.05l.87-.08c-.16.79-2.54,2.53-5.61,4.69s-6.89,4.69-9.84,7.17c.8-.47,1.59-1,2.37-1.47a36.15,36.15,0,0,1-6.74,4.32c-2.62,1.42-5.23,2.83-7,4-.81.45,1.11-.94,2.09-1.76-9.34,5.91-.79,1.34-7.42,6.23-1.44.6,1.1-1.84-3.46,1.31-1.19.7-4.38,3.14-8.08,5.92a88.19,88.19,0,0,1-11.36,7.5c1.54-.68,3.08-1.35,0,.87-4.85,3.33-14,7.44-18.14,10.9-.68.32-1,.41-1,.37-3.8,2.38-12.52,7.45-14.68,9.15-2.23.23-8.31,3.63-13.92,6.81s-10.92,5.79-11.2,5.1l-6.19,3-6.29,2.81.27-.29A139.85,139.85,0,0,0,517,254.33c-1.93.66-.6,0-.48-.16-6,2.24-9.35,3.49-12.37,4.76-1.5.67-3,1.26-4.66,2l-6.12,2.63-1.23-.09c-2.65,1.3-17.8,5.43-29.84,9.21a4.07,4.07,0,0,1,1.27-.59c-1.68.55-3.47,1.09-5.31,1.61s-3.75.93-5.66,1.38c-3.84.86-7.7,1.79-11.33,2.43s-7,1.36-9.68,2a24.52,24.52,0,0,0-6.07,1.9c-3,.69-6.08,1.5-9.15,2.1,12-2-1.64,1.14,3.32.54-4.7.91-12.3,1.37-6.51.4l.93-.05c1-.63-2.75-.14-6.71.43-2,.31-4,.53-5.56.67s-2.54.18-2.48,0c-11.83,1.6-23.61,2.27-35.18,2.69-5.8.06-11.54.25-17.23.08-2.84-.06-5.68,0-8.49-.15l-8.41-.36,2.54.83c-2.59-.14-5.19-.18-7.78-.4-2-.33-2.71-.73,2.83-.38a43.34,43.34,0,0,0-9.49-.13c-10.83-1.06,4.31-.55,1-.8l-4.52-.27,1,.16c-1.85,0-2.85.09-4.23.05s-3.13-.14-6.46-.51c-4.19-.58-2.1-.67-3.75-.87a14.53,14.53,0,0,0-2.53-.34L289,283.72l3.81,1.1c-2.18-.16-4.47-.46-5.66-.61s-1.29-.08.9.59c-1.61-.5-4.66-1.19-8.4-1.91-1.87-.38-3.93-.7-6-1.15l-6.46-1.36c-8.68-1.65-16.92-3.84-18.88-4.43-1.5-.27-3-.56-4.51-.87s-3-.77-4.54-1.19c-3.09-.84-6.33-1.79-9.91-2.85.88.31,1.54.7,1.2.78a4,4,0,0,1-1.33-.17c-.38-.08-.85-.19-1.41-.35s-1.21-.38-2-.65c1.32-.27-1.44-1.33-5.1-2.64s-8.26-2.82-10.5-4.25c4.13,2.22-17.19-6.23-10.68-2.84-2.5-1-2.53-1.14-2.4-1.25s.42-.18-1.4-1.11c-3-1.1-6.12-2.34-9.34-3.68-1.6-.68-3.25-1.34-4.89-2.09l-4.95-2.36-10.25-4.91c-3.44-1.77-6.93-3.54-10.48-5.26-.31.05,1.94,1.47-1.21.19-1.17-.76-2.37-1.48-3.52-2.28l-3.46-2.37c-2.78-1.41-3-.48-7.72-3.73.63.51,1.58,1.28-.28.33-3.38-1.89-6.66-4-10-6l-5-3c-1.69-1-3.38-2-5-3.06-6.66-4.2-13.45-8.29-20-12.78A359,359,0,0,1,61.55,179c3.12,2.91.86,1.19-1.66-.85,1.59,1.39-.31.31-.14.75l-9.81-8.81a15.9,15.9,0,0,1-2.69-1.82c-1.14-.92-2.46-2-3.75-3.15-2.59-2.21-5.08-4.33-5.8-4.54l3.24,2.63c-4.71-3,4.82,6.32,3.59,6.53a77.59,77.59,0,0,1,9.07,7.62c1.7,1.55,3.52,3.18,5.45,4.76a50.79,50.79,0,0,0,6.25,4.36c1.68,1.53-1.72-.93-.89,0a62.77,62.77,0,0,1,9.35,6.76l-.58-.31c1.61,1.24,3.16,2.33,4.62,3.38l4.11,3,7.44,5.52,7.86,5.57,4.56,3.21,2.52,1.77,2.77,1.81-.89-1.12c3.3,2.15,3.92,2.72,5.42,3.81,4.21,1.8-9.35-5.94-5.43-4.41,2,1.8,7.83,5.51,13.52,9.11,5.8,3.43,11.41,6.76,12.67,8.13,5.24,3.05-1.29-1.33,4,1.64l1.27,1,1.53.4c3.47,1.95,5.06,3.23,5.07,3.52-.84-.48-2.45-1.25-3.37-1.72,2.19,1.38,5.4,3.09,8.26,4.58s5.44,2.56,6.2,3l-5.14-2.77c3.74,1.79,7.66,3.71,11.67,5.7l3,1.5L168,251l6.23,2.84,6.21,2.82,6.22,2.51,6,2.39,2.93,1.12c1,.36,1.94.66,2.89,1L197.4,263c5.8,1.94,8.06,2.85,10.47,3.84,1.2.49,2.43,1,4.16,1.66s4,1.36,7.19,2.36l-.48-.1c2.62.61,6,1.69,9.54,2.78-3.33-.69,6,2.26,1.62,1.3,6.44,1.63,8,2,9.11,2.17l1.74.23,4.2.64,1.86.85a64.17,64.17,0,0,1,9.77,1.79c-5.4-1,4,1.58-2,.51a77,77,0,0,0,9,2.26c2.67.53,5,.92,7.12,1.28l5.72,1a31.55,31.55,0,0,1,4.87,1.28c6.53.07-11.9-2.59-8.29-2.25-1.45-.49-.12-.36,2.13-.1s5.41.7,7.57,1.12c4.4.81,7.32,2.51,18.55,3.95-1.12-.11-1.21,0-2.32-.21,4.17.77,8.28.53,13.4,1.5,2.95-.35,6.72.53,7.62-.19-3.45-.19-6.91-.32-10.34-.67,1.46.09,2.91.18,4.41.18h4.7c3.33,0,7.1.26,11.92.61A49,49,0,0,1,325,291c2.81.43,5.45.08,8.36.45-.43.37-3.58.31-7.41.16s-8.33-.57-11.5-.5c3,.55,11.94.28,8.72.91a22.73,22.73,0,0,1,3.8-.21c1.38,0,2.87.09,4.45.18s3.27.2,5,.25c.88,0,1.78,0,2.7,0s1.87-.1,2.83-.2l-.52.48c1.22-.07,3.73-.28,6-.25l-4,.59a66.69,66.69,0,0,1,9.06.05,87.51,87.51,0,0,0,8.87-.05c-12.47.34-2.82-.5-8.09-.71,7.67-.52,9.88-.27,12.33,0s5.14.49,13.74-.14c-2.33.22-8.76.23-5.13-.2l5.28-.11c1.74-.07,3.33-.1,4.34-.07,11.36-1.13-1.78-.33,3-1.06a18,18,0,0,0,4.86-.36c1.52-.3,3.15-.78,5.62-1.17l.09.48c12.92-1.31,3.3-1.3,14.89-2.68l-4.78,1.41,6-1.1-1.16.74c3.24-.73,5.39-1.09,7.51-1.48s4.23-.73,7.44-1.25c-1.55-.08.68-1,6.3-2.13,3.89-.56-2.05.91,5.89-.89a22.17,22.17,0,0,1-7.18,1.81c-.32.23-1.72.63-2.06.86,4.22-.46,10.41-2.16,13.29-2.77-1.11.22-2.44.49-3.14.57,1.9-.54,3.81-1,5.69-1.61l5.65-1.76c1.85-.27.46.23-.93.72,2.31-.63,3.87-1.25,7.27-2.14-.79.6-.47.94-5.27,2.33l5.42-1.58c1.8-.55,3.58-1.15,5.37-1.72.77,0,5.69-1.12,4.33-.59,1.51-.37,3.19-.84,5-1.43l5.54-2c1.92-.7,3.9-1.41,5.91-2.09s4-1.43,6-2a24.83,24.83,0,0,1,2.81-1.21L503.94,264c3.59-1.36,7.34-2.86,11.52-4.81l5.13-1.28c6.6-2.94-6.85,2,4.1-3,7.69-3.63,3.14-.73,5.95-1.75,1.87-1,4.41-2.43,7.41-3.92a99.73,99.73,0,0,1,10-4.7C545.77,245.74,543.9,246.52,541.74,247.62Zm77-44.34c-1.37,1.05-4,3.23-5.25,3.7C614.83,205.42,616.24,204.79,618.76,203.28ZM633.19,117a25.06,25.06,0,0,1,4.32,3.38C636.19,119.43,634.78,118.25,633.19,117ZM280.13,31.77l.18-.06C284.08,31.19,282.74,31.37,280.13,31.77Zm-7.78,1.43c-.76.24-.7.29-.35.28a32.52,32.52,0,0,1,4.23-1A15.91,15.91,0,0,0,272.35,33.2Zm27.94,252.33c.51.11,1,.19,1.52.29C298.34,285.57,299.32,285.52,300.29,285.53Z"/><path class="cls-1" d="M645.77,125.73a1.37,1.37,0,0,1,.42.65C646.78,126.73,646.85,126.67,645.77,125.73Z"/><path class="cls-1" d="M490.54,268.65l-.26.09a.73.73,0,0,0-.23.17Z"/><path class="cls-1" d="M394.48,20.69a20.27,20.27,0,0,1,3.14.51C397.72,21.11,397,20.88,394.48,20.69Z"/><path class="cls-1" d="M232.09,44.8l4.79-1.65a43.49,43.49,0,0,1-4.4,1.22C232.63,44.45,233.6,44.31,232.09,44.8Z"/><path class="cls-1" d="M189.68,57.15c-.67.32-1.45.61-2.1,1l.27.13C190.76,57,192.77,56,189.68,57.15Z"/><path class="cls-1" d="M227.12,44.69a5.23,5.23,0,0,0-2.36.46c-1.22.43-2.79,1-4.46,1.67l.59-.21c-.4.44.28.31,1.49-.12S225.34,45.32,227.12,44.69Z"/><path class="cls-1" d="M219.53,47.11c-1,.38-2.08.77-3.1,1.11C216.11,48.57,217.7,47.82,219.53,47.11Z"/><path class="cls-1" d="M262.62,35.69c-1.65.31-.9.76-1.86.83-.85.48,1.83-.35,3.62-1,.89-.33,1.57-.55,1.46-.6A16.1,16.1,0,0,0,262.62,35.69Z"/><path class="cls-1" d="M224,44.31c.46,0,.91,0,1.37.07l1.78-1C226.06,43.7,225,44,224,44.31Z"/><path class="cls-1" d="M251,36.53,245.51,38c.1,0-.58.3-1.42.58C247.47,37.59,251.19,36.64,251,36.53Z"/><path class="cls-1" d="M244.09,38.54c-1.77.49-3.44,1-4.39,1.33C240.65,39.59,242.69,39,244.09,38.54Z"/><polygon class="cls-1" points="231.34 41.79 232.98 41.39 236.83 40.21 231.34 41.79"/><path class="cls-1" d="M311.09,24.92l6.15-.91c.61-.25-1.08-.15-3.37.21C312.4,24.52,310.12,24.87,311.09,24.92Z"/><path class="cls-1" d="M292.26,26.24a15.56,15.56,0,0,1,2.78,0l.08-.65Z"/><path class="cls-1" d="M310.23,23.49c.6-.24,8.94-1.6,1.09-.59C310.71,23.15,304.53,24.06,310.23,23.49Z"/><polygon class="cls-1" points="403.93 23.31 402.35 23.16 402.47 24.19 403.93 23.31"/><path class="cls-1" d="M485.44,37.94c-3.48-1.3-4-1.2-4.35-1.17s-.67.11-3.85-1c-1.73-.25,5.19,1.76,3.42,1.46,2.19.47,3.8,1,4.68,1.22S486.32,38.58,485.44,37.94Z"/><path class="cls-1" d="M480.66,37.26l-2.24-.48C479.68,37.08,480.28,37.2,480.66,37.26Z"/><polygon class="cls-1" points="43.55 163.97 40.1 160.74 42.19 162.98 43.55 163.97"/><path class="cls-1" d="M36.17,158.64l-.42-1.22L33.21,156A28.43,28.43,0,0,1,36.17,158.64Z"/><path class="cls-1" d="M630.38,196.81l.21-.34a24.15,24.15,0,0,0-3.46,2.2Z"/><polygon class="cls-1" points="575.47 230.89 576.45 230.36 574.35 230.87 575.47 230.89"/><path class="cls-1" d="M527.12,255.57c2-.87,4.37-2,6.42-2.91C529.16,254.7,526.28,255.14,527.12,255.57Z"/><path class="cls-1" d="M350.36,312.79c-2.34,0-1.5.39-1.86.47C352.42,313.13,350.26,312.68,350.36,312.79Z"/><polygon class="cls-1" points="388.83 309.94 388.17 310.17 393.78 309.21 388.83 309.94"/><path class="cls-1" d="M424.53,305.12A58.65,58.65,0,0,0,416,306.3c-1.79.31-3.67.69-5.51,1s-3.63.53-5.23.68l-1.07,0c-.93.32-1.86.65-2.8.94C409.13,307.81,419.1,306,424.53,305.12Z"/><path class="cls-1" d="M443.7,302.9c-1.22,0,4-1.12-4.41.87l.81-.1Z"/><path class="cls-1" d="M440.1,303.67c-3.71.83,2.49-.3,0,0Z"/><path class="cls-1" d="M457.19,299.57c-1.59.49-3.2.94-4.81,1.42,1.06-.09,5.41-1.09,3.83-.59C461.16,299,460.09,299.09,457.19,299.57Z"/><path class="cls-1" d="M461.66,297.87l-2.48.75A8.68,8.68,0,0,0,461.66,297.87Z"/><path class="cls-1" d="M453.89,300.17c1.77-.48,3.53-1,5.29-1.55a4,4,0,0,0-2.43.71C457.14,299,456.13,299.49,453.89,300.17Z"/><path class="cls-1" d="M450.83,300.79c-2.77.5-6.32,1.24-1.48-.16-4.65,1.15-6.63,1.67-6.25,1.74A51.78,51.78,0,0,0,450.83,300.79Z"/><path class="cls-1" d="M426.21,304.08l-3.72.44c-1.05.26-2.1.55-3.15.79C420.92,304.94,426.48,304.25,426.21,304.08Z"/><path class="cls-1" d="M487.32,291.35c.25-.24-1.73.13-2.14,0-1.16.44-2.32.87-3.48,1.27C483.56,292.25,487,291.2,487.32,291.35Z"/><path class="cls-1" d="M485.18,291.4l5.19-1.94C485.65,291,484.83,291.34,485.18,291.4Z"/><path class="cls-1" d="M462.33,296.88c-2.89.92-5.76,1.91-8.67,2.76,3.48-1,6.91-2.14,10.36-3.21Z"/><polygon class="cls-1" points="507.34 284.49 504.51 285.91 509.57 283.46 507.34 284.49"/><path class="cls-1" d="M520.42,279.42c-2,1.13,3.14-.74.93.35,3.51-1.5,6.47-2.88,9.06-4.28A87.38,87.38,0,0,1,520.42,279.42Z"/><path class="cls-1" d="M534.8,273.25c-1.4.68-2.83,1.43-4.39,2.24C531.9,274.78,533.36,274.05,534.8,273.25Z"/><path class="cls-1" d="M499.31,286.49a19.46,19.46,0,0,0,4.26-1l-2.2.31Z"/><path class="cls-1" d="M501.29,285.8h.08c2.24-.76,3.78-1.3,4.44-1.55C505.25,284.46,503.89,284.93,501.29,285.8Z"/><path class="cls-1" d="M498.79,286.67l.52-.18A1.08,1.08,0,0,0,498.79,286.67Z"/><path class="cls-1" d="M476.38,293.36c3.05-1.17,9.44-3.36,3.07-1.82C477.31,292.49,481,291.61,476.38,293.36Z"/><path class="cls-1" d="M496.06,287.05c-1.86.6-3.71,1.24-5.59,1.79.15.07,1.21-.09-.29.51C492.16,288.63,494.11,287.83,496.06,287.05Z"/><polygon class="cls-1" points="498.74 285.98 496.06 287.05 498.13 286.37 498.74 285.98"/><path class="cls-1" d="M525.37,276.8c2.29-1.1,4.83-2.23,7.7-3.49l-4.71,1.92-4.69,1.86C523.29,277.39,522,278.16,525.37,276.8Z"/><path class="cls-1" d="M513.71,281.29l.52-.22C513.89,281.15,513.63,281.24,513.71,281.29Z"/><path class="cls-1" d="M561.09,260.39l-.47.16a1.27,1.27,0,0,0-.07.12Z"/><path class="cls-1" d="M523.12,277.23a39.57,39.57,0,0,0-5,2.19c1.73-.75,3.58-1.52,5.57-2.33C523.84,277,523.86,276.91,523.12,277.23Z"/><path class="cls-1" d="M542.61,269.59l-4.09,1.59A27.66,27.66,0,0,0,542.61,269.59Z"/><path class="cls-1" d="M515.07,280.88l-.35.15C515.53,280.82,515.42,280.82,515.07,280.88Z"/><path class="cls-1" d="M515.07,280.88c1.2-.51,2.11-1,3-1.46l-3.87,1.65Z"/><path class="cls-1" d="M568.17,253.73c-.22.53-5.92,3.92-11.25,6-4.93,2.7-1.06,2.29,3.7.8.08-.24,0-.38,5.07-3.21-1,.36-3.87,1.71-6,2.63s-3.59,1.38-1.46.16a61.11,61.11,0,0,1,9.1-4.18c-1.53.5.57-.76,2.81-2.14s4.59-2.95,3.68-2.87c-1.94,1.11-3.85,2.27-5.82,3.34C567.8,254.24,569.88,253,568.17,253.73Z"/><path class="cls-1" d="M550.64,265.31c-.71.37-1.43.7-2.14,1.05,2.51-1.06,4.31-1.8,7.68-3.07,3.5-1.9,4.18-2.39,4.37-2.62l-10.62,5.05Z"/><path class="cls-1" d="M538.74,270.8c1.53-1.15,6.66-3.7,3.28-2.67-3.17,1.48-4.26,2-5,2.48a27.43,27.43,0,0,1-3.07,1.68c10.34-4.56-2.89,1.5,4.72-1.5-2,.95-3.84,1.76-5.57,2.52,1.89-.76,3.72-1.47,5.45-2.13l-.24.08,0,0h0c-.47.14-.63.18-.11,0l.21-.1a1.56,1.56,0,0,1,.41-.35c3-1.27.52-.09-.41.35,0,0-.09.08-.1.11h0c3.42-1.6,6.81-3.27,10.22-4.9C546.29,267.3,543.57,268.57,538.74,270.8Z"/><path class="cls-1" d="M484.93,288.88c.35-.08.34,0,.38,0C486,288.59,486.24,288.47,484.93,288.88Z"/><path class="cls-1" d="M489.43,287.7a27.87,27.87,0,0,1-3.91,1.46c-2.25.58,0-.2-.21-.3-1.5.6-5.27,2-.4.67l.74-.3c2.18-.63,4.72-1.25,6.6-1.7a12,12,0,0,1,2.75-.6A38.23,38.23,0,0,0,489.43,287.7Z"/><path class="cls-1" d="M514.54,279.66c2.91-1.18,5.78-2.46,8.67-3.68l-4.59,1.44.31.12C513.94,279.46,515.09,279.24,514.54,279.66Z"/><polygon class="cls-1" points="562.15 260.1 561.24 261.07 565.81 258.03 562.15 260.1"/><polygon class="cls-1" points="573.04 254.46 572.83 255.02 575.57 253.29 573.04 254.46"/><path class="cls-1" d="M230,23.89l-2.59.94C228.64,24.4,229.42,24.11,230,23.89Z"/><path class="cls-1" d="M249.13,18.47l.42-.3C248.68,18.5,248.34,18.66,249.13,18.47Z"/><path class="cls-1" d="M603.8,71.19c-3.27-2.39-6.85-5.21-6.66-4.57l.84,1C600.44,69,602.27,70.17,603.8,71.19Z"/><path class="cls-1" d="M410.86,4.29c.38.07.77.16,1.16.26l2.74,0C413.59,4.45,412.26,4.33,410.86,4.29Z"/><path class="cls-1" d="M407.85,5.78,402.62,5C403.8,5.18,405.47,5.45,407.85,5.78Z"/><path class="cls-1" d="M130.41,66.77l-2.59,2C132.2,66.28,130.16,67.16,130.41,66.77Z"/><path class="cls-1" d="M677.16,184.71c2.78-2.11,5-3.85,6.79-5.44C680.62,181.83,677.79,183.73,677.16,184.71Z"/><path class="cls-1" d="M236.22,17.25c-1.61.54-2.28.82-2.21.9C235.67,17.6,236.6,17.25,236.22,17.25Z"/><path class="cls-1" d="M691.49,172.57l-1.43,1.17c-1.85,1.75-3.73,3.51-6.11,5.53A59.51,59.51,0,0,0,691.49,172.57Z"/><path class="cls-1" d="M203.48,282.3l.82.37C204.4,282.64,204,282.5,203.48,282.3Z"/><path class="cls-1" d="M314.86,310.94c-1.14-.06-3-.23-4.74-.37C311,310.67,312.39,310.8,314.86,310.94Z"/><path class="cls-1" d="M615.82,229.91c-2.19,1.41-.32.26,0,0Z"/><path class="cls-1" d="M604.18,235.1c.45-.32.77-.59.78-.71A3.31,3.31,0,0,1,604.18,235.1Z"/><path class="cls-1" d="M705.58,152.64l-.17-.15C705.88,153,705.8,152.93,705.58,152.64Z"/><path class="cls-1" d="M612.4,231.82c.86-.47,1.83-1,2.89-1.65C614.81,230.42,613.94,230.92,612.4,231.82Z"/><path class="cls-1" d="M613,231.71l-2,1.17C610.76,233.12,611,233,613,231.71Z"/><path class="cls-1" d="M618.85,227.93c-1.24.81-2.41,1.56-3.56,2.24.45-.25.64-.34.53-.26Z"/><path class="cls-1" d="M23.19,174.34l.38.4C25.65,176.33,24.77,175.59,23.19,174.34Z"/><path class="cls-1" d="M542.25,43.44l.27.11-.33-.18Z"/><path class="cls-1" d="M533.65,40a45.08,45.08,0,0,1,4.73,1.53c1.31.57,2.47,1.16,3.81,1.84l-2.27-2.43C537.85,40.56,535.73,40.31,533.65,40Z"/><path class="cls-1" d="M185.24,40.1,191.41,38c-7,3.48-12.32,5.53-6.51,3.66.17-.79,6-3.22,11.86-5.55s11.77-4.51,12-5.24l4.14-1.14c-1.16.39-1.32.53-2.47.92,8.09-2.08,5.49-3.06,15.81-6.09,3.6-1,6.15-1.63,3.77-.71,2.6-1,5.25-1.81,7.9-2.68,2.34-.64,1.83-.25-.5.38l6.1-1.79,3.06-.89,3.07-.8-.08.06c1.7-.65,5.62-2,7.53-2.6,3.19-.6-1.54.53-.69.5,2.25-.69,4.5-1.37,6.78-2,2.88-.25-2.76,1.25-7.48,2.45a25,25,0,0,0,7.06-1.25,86.39,86.39,0,0,1,12.58-2.72c-2.17.47-4.31,1.05-6.46,1.57a66.75,66.75,0,0,0,7.23-.93c2.73-.43,5.86-1,9.58-1.42-1.78.08-15,1.58-7.55-.16a75.8,75.8,0,0,0,8.94-1.8c.11.43,4.07-.29,9-1.09l-.25.68c5.35-1,4.87-1.32,8-2,6-.68,7.34-.34,8.8-.1,9.64-1-6.75,0,4.66-1.44,4-.25,7.45-.57,11.07-1l12.25-1.19c5.66-.12-1,.45,1.07.51,1.66-.3,3.32-.46,5-.69,1.22,0,.83.15.63.23,4.22-.31.33-.65,7-1a9.14,9.14,0,0,1,3-.21c1.5,0,3.41.19,5.52.32s4.41.27,6.71.32,4.57.15,6.64,0c2,.25-1,.35-.38.62,11.29-.14,9.67.07,19,0,2.62.29,5.23.72,7.83,1.13-5.73-1.07,1.7-.88,8.24-.67-2-.45-3.76-.83-4.93-1l5.2.37c1.73.14,3.46.34,5.19.51,1.23.27.16.35-1.56.39l1.91.1c3.66.74,1.69.84-1,.84L412,4.55c-2.6.09-5,.3-4.54.72.67,0,2,.06,3.4.17-.68,0-1.12.09-.82.19s1.44.06,3.14.14l2.24,1,.61-.2C420.5,7.36,425,8,429.39,9c4.83.46,9.39.71,14.6,1.46a167.91,167.91,0,0,1,18.69,3.27c-3.84-.42-1,.63-1.35,1.18a27.42,27.42,0,0,0-3.59-1.14c-.7-.18-1.44-.35-2.22-.52s-1.61-.29-2.47-.43c-3.41-.57-7.3-1.17-11.19-2,4.07.91,3.11,1,2.05.9l7,1.15c2.34.38,4.69.74,7,1.25-.43.42,2.84,1.1,6.4,2.2-1.24-.82,1.37-.34,5,.48l2.88.67,3,.82c2,.54,3.82,1.05,5.23,1.38.25.42-1.18.36-7.94-1.69,7.27,2.92,10,1.66,17.17,4.48a14.36,14.36,0,0,0-3.24-.85,62.72,62.72,0,0,1,7.81,2.4c2.53.9,4.27,1.62,3.13,1.4l-1.64-.54,9.77,3.3c3.59,1.35,7.39,2.75,10.92,4l5,1.78,4.21,1.56a22.24,22.24,0,0,0,4.65,1.41,6.19,6.19,0,0,1-2.49.25l10,2.65c3.33.92,6.6,2,9.92,3-1.94-.1,3.59,4.39-5.2.77,2.43,1.24,5.44,2.77,10.76,5-1.64-.88-3.75-2.91-1.41-1.9l5.25,3.21c1.22.73,2.63,1.53,6.3,3.79-2.41-1.4.87-1,4.79,1-.69-.16-.19,1.17-1.68.54,1.71.67,3.44,1.32,5.14,2l5.07,2.17c-2.49-1.15-.87.6,1.12,2.07-.45-.37,1.63.78,4.14,2.19s5.47,3,6.73,3.79c-1.28-.89-2.6-1.7-3.91-2.53,2.71,1.5,4.7,2.68,6.43,3.53s3.13,1.48,4.54,2.09,2.83,1.22,4.55,2.07a54.19,54.19,0,0,1,6.34,3.63c-1.38-.61-3.85-.78,1.33,2.73,2.67,1.1,12.27,4.41,21.45,10.4L631,90.78c2.36,1.5,4.76,3,7.1,4.49-2.36-1.18-6.87-3.42-11.59-5.92l-7.08-3.74c-2.32-1.16-4.47-2.26-6.24-3.19,3.74,2.75.88,1,6.7,4.79.92.83.09.37-1.21-.4s-3.07-1.83-3.93-2.37c4.53,2.9,8.85,6.12,13.25,9.21-.1-.48,2.53,1.14,5.17,2.78l1.94,1.2,1.65,1.06c1,.6,1.59.93,1.55.72-1.22-.81-2.41-1.66-3.65-2.44L631,94.61l-7.42-4.7c-.1-.48,2.25.56,5.81,2.57,1.78,1,3.86,2.24,6.08,3.64s4.49,3.1,6.79,4.82c2.19,2-2.46-.33-2.4,0,1.33.7,9,6.11,9.76,6.87l-4.13-2.6c2.48,2,4.75,3.32,7,4.9a61.79,61.79,0,0,1,7.47,5.91c2.06,1.67,5.67,5.56,6.28,5.53-2.91-3.26-2.1-5.64.53-4.31l2,1.74c1,1,2.35,2.19,3.73,3.48,2.73,2.58,5.64,5.35,6.68,6.47,3,3.26-6-3.11-3.43-.33a18.79,18.79,0,0,1,3,1.92c2,1.9-1.25-.3,3.44,3.51,1.22.13,9.18,8.18,2.53,1.44,4.56,3.78,4.61,4.27,9.84,8.85-.69-.89.73-.14,2.89,1.31,1.09.73,2.35,1.63,3.62,2.61.62.5,1.26,1,1.89,1.49s1.18,1,1.84,1.53c-.4-.13.45.95.79,1.39l1.22,1.13-5.32,5.32c-1.66,1.65-3.21,3.17-4.8,4.64-3.18,2.94-6.37,5.8-10.37,9.37-.88.58-5.12,4-3.57,2.27A59.32,59.32,0,0,1,678,180c-5.52,3.93,5.85-5.12,1.48-2.31a27.18,27.18,0,0,1-3.74,3.77l-6.48,5.79c1.6-.46,8.94-7.21,12.51-10.67.58.61-5.37,7-14.38,14.74-7.26,6-3.54,2.11-4.75,3.22-7,5.39-9.84,7.9-12.36,10.2a78.23,78.23,0,0,1-11,8.27c-5.07,2.93-.83-.72-2.11-.29,6.15-4.59,9.77-6.57,13.94-9.69-1.75,1.23-3.54,2.39-5.31,3.59.93-.79,2.41-2,4-3.14s3.1-2.38,4.26-3.15c-2.09,1.27-8.06,5.76-15.06,10.67s-15,10.32-20.86,13.8c-1.93,1.47-5.36,3.87-3.57,3l3.58-2.41c3.57-1.79-6.49,4.92-1.8,2.12a168.83,168.83,0,0,1-17.13,11.19l-1.63.25a42,42,0,0,0,6.63-3.77,78.85,78.85,0,0,1-7,3.93,38.77,38.77,0,0,0-7,4.29l5.17-2.5A173,173,0,0,1,578,251.43c3.2-1,1.45-.82,6.29-2.71-2.16.7,1.89-1.54,5.65-3.63s7.14-4.13,3.81-2.73c5-1.92,8.06-4.33,14.34-7.3-.29-.07-2.28,1,2.94-2.18.2-.19.71-.6,1-.86l.36-.2-.3.16c.21-.17.23-.19-.11.06a26.38,26.38,0,0,1-2.79,1.38c1.16-1,3.79-2.77,6.46-4.55s5.32-3.61,6.63-4.6c3.07-1.88-1.14,1,.63.13l3.87-3c.65.11,8.38-4.71,1.46.24,2.13-1.4,4.24-2.84,6.34-4.29,1.94-1.17,4.19-2.62,6.32-4.11s4.16-2.94,5.64-4.16c1.49-1,3.26-2.47,4.36-3.39s1.53-1.34.38-.26c3.15-2.47,6.3-4.94,9.4-7.48l.15,0c9.42-7.21,18.6-15.77,29.22-24.22,2.89-2.77,5.88-5.64,10.73-10.27l1.2-.67c.87-.94,2-2.08,3.22-3.29l5.86-5.87-5.65-5.2a20.25,20.25,0,0,0-2.26-1.85c-1.65-2.26-6.32-6.39-11.32-10.77-2.52-2.16-5.08-4.46-7.54-6.44s-4.69-3.85-6.39-5.33l-.58.17c-2.37-2-4.72-3.92-7.23-5.94s-5.29-4-8.38-6.3l.1.65c-2.73-1.89-6-4.64-9.7-7.59S644.27,98.9,640,95.8a31.08,31.08,0,0,1,4.24,3.1A89.2,89.2,0,0,0,636.73,93c-2.68-1.84-5.42-3.62-8.14-5.37l-8-5.16c-2.63-1.64-5.13-3.29-7.42-5a57,57,0,0,1-5.77-3.73l.6.36-1-.64c-1-.75-2.06-1.5-3.22-2.27l2.69,1.94c-1.84-1.18-4.74-2.79-7.57-4.38L598,67.63l-.65-.38c-2.65-1.79-2.32-1.12-1,.07-1.45-.78-2.78-1.46-3.83-2a18.63,18.63,0,0,0-4.76-3.09,27.56,27.56,0,0,1-5.44-3.36c-1-.35-4.66-2.26-8.24-4.09s-7.25-3.37-8.21-3.4c0-.15-.87-.63.69.16-3.18-1.73-6.36-3.45-9.35-4.71-.37-.41-.73-.84-1.11-1.24l-7.51-2.58c-4.19-2.36-5.91-3.4-1.39-1.82-5.38-2.08-7.5-3-9.5-3.77s-3.76-1.43-8.41-3l.6-.18c-1.62-.67-3.77-1.43-5.73-2.15a40.88,40.88,0,0,1-4.73-1.85,216,216,0,0,0-23.2-8.76l-4.05-1.36c-1.37-.47-2.75-.93-4.16-1.32l-8.45-2.51-4.16-1.26c-1.37-.43-2.73-.84-4.08-1.18-2.69-.73-5.28-1.44-7.7-2.13,1.76,1-.48.35-3.28-.52-1.4-.43-2.94-.91-4.19-1.23a5.19,5.19,0,0,0-2.48-.23c-1.08-.51-3.8-1.23-.56-.8-5.05-.91-8.81-1.8-12.19-2.54-1.69-.4-3.3-.65-4.93-.89s-3.27-.4-5.05-.51c-1.11-.47,2.24,0,1.23-.37A27.81,27.81,0,0,1,427.83,4c-1-.33,1.52,0,3.15.18-2.59-.42-4.61-.73-6.2-.85a31.87,31.87,0,0,0-3.59-.09,3.9,3.9,0,0,0-2.63.78C416,3.5,414,3.15,412.2,2.94a37.9,37.9,0,0,0-5.36-.13c-1.81-.45-4.85-1,1.64-.46l-5-.58c-2.27-.24-4.94-.62-7.53-.77C390.77.63,386,.37,385.8.68a40.72,40.72,0,0,0-6.07-.26L371.18.05C369,0,366.77,0,362.74,0L365,.12a20.75,20.75,0,0,1-5.35.36c-1.05,0-2.2-.09-3.49-.09s-2.73,0-4.35.09L352,.39c-7.45-.06-9.06,0-10.64.19s-3.13.29-10.49.41l.83.43a6.09,6.09,0,0,1-2.71.51c-1.41.13-3.26.2-5.34.27a95.48,95.48,0,0,0-13.42,1l3.09-.11c-4.57.93-13.11.14-17.77.83-1,.07,1.58-.39,3-.67C286.25,4.59,297,4.16,288,5.72c-.86,0-.36-.34-.41-.51s-.64-.23-3.67.31C282.39,5.67,278,6.75,273,7.94s-10.59,2.71-14.76,3.37a8.41,8.41,0,0,1,2-.1c.19.1-.38.3-2.41.93-3.14.84-7.47,1.67-11.7,2.58a70.65,70.65,0,0,0-11,3.3c-.82.16-1.14.18-1.19.13-2.38.73-6.18,2.1-9.77,3.34A78,78,0,0,0,216,24.66c-2.42,0-9.71,2.6-16.29,5.39-6.63,2.64-12.57,5.41-12.82,4.66-4.74,1.88-9.38,4-14.06,6l.3-.3c-4.51,1.89-7.46,3.39-9.71,4.53s-3.72,2-5.18,3c-2.08.88-.66,0-.53-.11l-7.87,3.62c-2.09,1-3.77,1.88-5.38,2.74s-3.13,1.7-4.9,2.72l-6.29,3.85-1.33.15c-1.38.86-6,3.21-11.74,6.23-2.85,1.56-6,3.3-9.16,5.12S104.72,76,101.81,78a4.87,4.87,0,0,1,1.2-1c-6.55,4.4-14.71,9.13-21.59,13.58C78,92.75,74.83,94.9,72.3,96.72a29.13,29.13,0,0,0-5.3,4.67q-4.08,3.21-8.12,6.49c10.91-7.84-1.16,1.8,3.48-1.22-4.19,3.2-11.25,7.74-6.13,3.76l.87-.54c.68-1.08-2.74,1.32-6.26,4s-7.2,5.58-7.26,5.21q-11.25,9-21.9,18.26-5.31,4.65-10.4,9.45c-.84.81-1.68,1.61-2.52,2.45L6.32,151.7,0,158.07l9.18,8.44Q13,170,16.86,173.35l-1.66-2.43,6.45,5.75c1.59,1.63,1.91,2.45-2.69-1.66a36.1,36.1,0,0,0,4.83,4.21,23.32,23.32,0,0,0,3.43,2.31c9.08,8-4.18-2.37-1.34,0l3.89,3.19-.81-.8a91.42,91.42,0,0,1,9.47,7.15c3.51,3.11,1.56,1.89,3,3.07,0,0,.09.12.42.39s.9.71,1.79,1.37l8.54,6.79-3.08-3.15c4,2.76,8,6.35,4.49,2.73.64.67,1.63,1.56,2.85,2.63s2.77,2.22,4.44,3.51c3.35,2.58,7.35,5.56,11.29,8.47l11.18,7.72,6.5,4.54c3,1.65,5.83,3.39,8.84,5.27s6.1,4,9.67,6.06c-1.7-1.16-2.42-2.34,3.65,1.38-2.91-.2,10.84,7.29,15.51,10.77-2.1-1.52,2.36.9,6.51,3.11L137,257.3c.9.44,1.68.79,2.22,1,1.09.44,1.22.35-.48-.76,5.26,2.79.09.6,4,2.93,3.22,1.49,6.56,3.14,10,4.9l10.8,5.19,5.63,2.72c1.9.91,3.87,1.71,5.83,2.58,3.94,1.7,7.94,3.43,12,5.05.32-.06-2.32-1.37,1.28-.27l8.35,4.09a23,23,0,0,0,3.61.86,30.33,30.33,0,0,1,5.46,2c-.8-.43-2-1.06.23-.38q6.06,2.19,12.2,4.3c2,.75,4.14,1.32,6.22,1.95l6.27,1.84,6.3,1.82,6.39,1.56,6.4,1.56c2.14.51,4.27,1.07,6.43,1.47,17.21,3.74,34.65,6.58,52,9-4.68-.8-1.54-.52,2.06-.19-2.33-.3.09-.42-.35-.71q7.23,1,14.51,1.75c1.35-.27,5.25-.06,9,.06s7.4.19,8.17-.12c-1.54,0-3.08,0-4.63,0,3.09-.29.94-.77-1.84-1.29s-6.2-1.15-5.73-1.6c-6.9.54-17.89-2.3-29.14-2.39-2.44-.48,2.13-.06.84-.44-2.87.08-6.29-.22-12.56-1.3h.72c-4.42-.6-8.2-1.22-11.69-1.84s-6.69-1.26-9.93-2l-10.28-2.33c-.93-.22-1.89-.41-2.87-.66l-3-.82-6.75-1.78,1.33.82c-4.17-1.11-5-1.47-6.94-2.07-5-.5,11.74,3,7.17,2.64a60.32,60.32,0,0,0-6.91-2.16c-3.07-.84-6.64-2-10.18-3l-5.18-1.54-2.42-.73c-.77-.25-1.5-.53-2.19-.77a33.61,33.61,0,0,1-5.71-2.44c-6.28-2.1,1.67,1.14-4.62-1l-1.57-.83-1.71-.17c-4.08-1.51-6-2.69-6.06-3,1,.4,2.83,1,3.89,1.37-5.13-2.34-14.92-5.43-16.65-6.33,1.92.91,3.92,1.64,5.87,2.47-4.28-1.46-8.66-3.35-13.18-5.23l-6.83-2.85c-2.28-1-4.53-2.08-6.8-3.11l-6.76-3.12-3.35-1.53c-1.11-.5-2.18-1.07-3.26-1.6-4.32-2.13-8.51-4.16-12.48-6l1.08.8c-3.05-1.39-5.07-2.57-6.71-3.45s-2.82-1.6-4-2.33-2.48-1.48-4.23-2.48l-3.07-1.72c-1.19-.66-2.52-1.48-4.11-2.4l.48.23c-2.63-1.31-6.06-3.23-9.49-5.32,3.31,1.68-5.72-4-1.4-1.76-1.59-.87-2.85-1.62-3.88-2.25l-2.5-1.47c-1.29-.76-2-1.12-2.48-1.38-1.06-.52-1.63-.67-5.89-2.92L92.15,227c-3-1.46-3.23-1.53-9.34-5.61,5.14,3.16-3.53-3.13,2.25.36-6.09-4.72-10.94-7.73-14.75-10.44A60.19,60.19,0,0,1,61,204.06c-6.31-3.38,10.37,8.36,7.06,6.19,2.47,2.24-5.16-2.85-9-5.81s-5.79-6.19-15.53-13.79c1,.76,1.08.75,2,1.51-.87-.77-1.77-1.47-2.68-2.19l-2.76-2.18a76.72,76.72,0,0,1-5.9-5c-2.84-1.56-5.63-4.75-6.85-4.73l8.84,7.13c-2.54-2-5.12-3.76-8-5.94a107.92,107.92,0,0,1-9.92-8.56c.72.42,3.22,2.35,4.93,3.7-2.17-2.23-4.58-3.84-6.83-6.14.61,0,3.22,2.26,6.37,5,1.59,1.37,3.29,2.9,5,4.3s3.36,2.65,4.78,3.64c-1.16-1.2-3.77-3.15-5.64-4.67s-3-2.56-1.46-1.74c-4.43-2.49-9-8.13-15.84-13.12l.73,0L8,159.87,6.93,159c-.24-.2-.49-.4-.71-.61a11.49,11.49,0,0,0,1,.53,5,5,0,0,1,.75.48l.92.63-1.74-1.4a9.45,9.45,0,0,1-.8-.72c.34-.31.68-.6,1-.85l.11-.1.12-.1.15-.14.63-.59,1.26-1.18c.83-.78,1.66-1.58,2.47-2.39s1.59-1.58,2.37-2.41l-2.84,2.8c-.73.73-1.26,1.23-1.64,1.57-.75.69-.9.73-.89.59,0-.29.69-1.32-1.45.63,1.41-1.56,2.59-2.83,3.6-3.87s1.85-1.83,2.58-2.48a36.42,36.42,0,0,1,3.61-2.84C19.67,145,22,143.26,29,137c-1.89,1.7-7.32,6.1-4.51,3.3,2.73-2.31,6.41-5.26,8.24-6.48,9.43-8.09-1.78.85,2.08-2.79,3.62-2.26,4.53-4.09,8.67-7.66l.33.35c5.64-4.3,6.23-5.07,6.68-5.72s.77-1.22,6-5c-1.32,1.25-2.59,2.54-3.88,3.82,1.71-1.41,3.44-2.81,5.18-4.18L57,114A128.81,128.81,0,0,1,70.27,104c-1.54.69.23-1.27,5.37-4.88,3.7-2.2-1.71,1.74,5.58-3.38a26.19,26.19,0,0,1-6.52,4.79c-.24.36-1.44,1.39-1.69,1.76C77,99.91,82.57,95.76,85.26,94c-1.05.67-2.29,1.47-3,1.84,3.45-2.58,6.89-5.17,10.4-7.67,1.8-1,.53,0-.73,1,2.17-1.45,3.54-2.66,6.79-4.72-.63.88-.24,1-4.7,4.16,3.34-2.37,6.77-4.61,10.16-6.92.78-.3,5.64-2.86,4.34-1.92,1.49-.83,3.1-1.82,4.81-2.91l5.42-3.43c3.74-2.42,7.82-4.83,11.84-6.9a23.66,23.66,0,0,1,2.83-1.76c3.77-1.94,7.34-3.76,11.13-5.56s7.67-3.86,12.1-6.25l5.44-1.85c7.09-3.42-7.41,2.41,4.42-3.28,8.36-4.06,3.4-.89,6.44-2.06,4.09-2.14,11.18-6,19.34-8.63C189.76,38.34,187.66,39.07,185.24,40.1ZM278,11.68l-3.59.89a18.15,18.15,0,0,1-3.26.63,11.43,11.43,0,0,1,3-1C275.14,12,276.36,11.9,278,11.68ZM425,7.11A36.61,36.61,0,0,1,419,6.2C420.78,6.4,422.77,6.69,425,7.11ZM639.28,213.73l.16-.14C643,211.29,641.73,212.1,639.28,213.73Zm-7.34,4.84c-.69.56-.6.58-.26.42a38.12,38.12,0,0,1,3.93-2.82A20.19,20.19,0,0,0,631.94,218.57Zm-589.64-24L41,193.46C44.15,195.73,43.23,195.16,42.3,194.61Z"/><path class="cls-1" d="M408.25,5.61a1.54,1.54,0,0,1-.77-.34C406.73,5.27,406.7,5.37,408.25,5.61Z"/><path class="cls-1" d="M130.89,66.42l-.26.13a1.4,1.4,0,0,0-.22.22Z"/><path class="cls-1" d="M678.19,131c-1.33-1.21-2.05-1.92-2.5-2.42C675.54,128.62,676.1,129.22,678.19,131Z"/><path class="cls-1" d="M592.89,244l4.81-2.94c-2.34,1.39-3.24,1.79-4.47,2.41C593.4,243.52,594.41,243.13,592.89,244Z"/><path class="cls-1" d="M548.22,263.91c-.72.39-1.58.72-2.29,1.11l.29.12C549.4,263.68,551.52,262.45,548.22,263.91Z"/><path class="cls-1" d="M587.56,245.2c-.58-.14-3.6,1.7-7,3.68l.61-.34C580.42,249.6,584,247.4,587.56,245.2Z"/><path class="cls-1" d="M579.76,249.33c-1.06.59-2.15,1.18-3.21,1.72C576.25,251.46,577.88,250.4,579.76,249.33Z"/><path class="cls-1" d="M622.82,225c-1.63.92-.7,1.07-1.68,1.5-.74.78,1.81-1,3.45-2.35S627,222.06,622.82,225Z"/><polygon class="cls-1" points="584.13 245.58 585.6 245.34 587.33 243.91 584.13 245.58"/><path class="cls-1" d="M611.05,230.12c-1.81,1.07-3.6,2.16-5.41,3.2.12,0-.54.48-1.36,1C607.62,232.37,611.24,230.15,611.05,230.12Z"/><path class="cls-1" d="M604.28,234.33c-1.73,1-3.37,2-4.29,2.69C600.92,236.45,602.93,235.22,604.28,234.33Z"/><polygon class="cls-1" points="591.53 241.23 593.19 240.39 597.04 238.2 591.53 241.23"/><path class="cls-1" d="M666.22,191.2l5.25-4.43c.43-.57-1.09.53-3,2.19C667.25,190.09,665.29,191.72,666.22,191.2Z"/><path class="cls-1" d="M649,202.75a17.87,17.87,0,0,1,2.65-1.51l-.21-.62Z"/><path class="cls-1" d="M664.7,190.47c.44-.54,7.4-6.62.7-1.14C665,189.9,659.68,194.26,664.7,190.47Z"/><polygon class="cls-1" points="671.16 122.91 672.5 124.03 672.96 123.08 671.16 122.91"/><path class="cls-1" d="M595.75,72.42c6.8,4.37,2,.43,8.07,4.49.86.42-.34-.48-1.6-1.27s-2.49-1.63-1.6-1.21C596.3,72.13,594.17,70.69,595.75,72.42Z"/><path class="cls-1" d="M600.62,74.43l2.22,1.15C601.59,74.9,601,74.6,600.62,74.43Z"/><polygon class="cls-1" points="334.03 312.57 339.28 312.93 335.89 312.5 334.03 312.57"/><path class="cls-1" d="M344.12,312l1.23.65,3.15-.56A36.36,36.36,0,0,1,344.12,312Z"/><path class="cls-1" d="M292.37,10.44l.37-.22a28.23,28.23,0,0,0-4.43.48Z"/><polygon class="cls-1" points="223.94 26.47 225.1 26.12 222.76 26.24 223.94 26.47"/><path class="cls-1" d="M169.16,48.45c2.2-1,4.72-2.28,7-3.19-2.4,1.07-4.35,1.78-5.61,2.27S168.71,48.25,169.16,48.45Z"/></g></g></svg>