<svg xmlns="http://www.w3.org/2000/svg" viewBox="0 0 712.76 221.1"><defs><style>.cls-1{fill:#fff;}</style></defs><g id="Layer_2" data-name="Layer 2"><g id="Layer_1-2" data-name="Layer 1"><path class="cls-1" d="M474.54,106.59l-.42.58a12.33,12.33,0,0,1,0,3.13C474.52,108.45,475,106.35,474.54,106.59Z"/><path class="cls-1" d="M447,184.62a30.39,30.39,0,0,0,2.72-2.94C448.37,183.06,447.07,184,447,184.62Z"/><path class="cls-1" d="M452.48,177.94l-.58.62c-.63,1-1.28,2-2.15,3.12A14.78,14.78,0,0,0,452.48,177.94Z"/><path class="cls-1" d="M441.84,187.72c.66-.81,1.37-1.56,2-2.41.06-.37-.52.25-1.27,1.13C442.13,187.06,441.4,188,441.84,187.72Z"/><polygon class="cls-1" points="63.44 94.47 63.01 94.9 67.1 92.19 63.44 94.47"/><path class="cls-1" d="M82.66,84.48c3.2-1.67,6.17-3.25,8.36-4.14a32.41,32.41,0,0,0-6.76,3c-2.75,1.49-5.81,3.11-8.3,4.3l-.88.28-1.94,1.66,4.66-2.56Z"/><path class="cls-1" d="M103.09,76.28l.67-.22,2.88-1.27C105.6,75,109.8,73.11,103.09,76.28Z"/><path class="cls-1" d="M103.76,76.06c-3,1.35,2-.66,0,0Z"/><path class="cls-1" d="M116.76,70.75c4-1.84,3.1-1.64.69-.91-1.28.64-2.57,1.25-3.84,1.91C114.48,71.52,118,70.09,116.76,70.75Z"/><path class="cls-1" d="M119,68.74a6.63,6.63,0,0,0,2-1Z"/><path class="cls-1" d="M114.73,70.78l4.26-2a3,3,0,0,0-2,.91C117.3,69.31,116.52,69.86,114.73,70.78Z"/><path class="cls-1" d="M112.24,71.75c-2.26.85-5.14,2-1.3,0C103.48,75.24,104.79,75.2,112.24,71.75Z"/><path class="cls-1" d="M92.13,79l-3,1.19c-.81.47-1.6,1-2.4,1.45C87.91,80.88,92.41,79.11,92.13,79Z"/><path class="cls-1" d="M142.35,60.13c.19-.24-1.49.15-1.86.09l-2.88,1.32C139.16,61,142.06,60,142.35,60.13Z"/><path class="cls-1" d="M140.49,60.22c1.44-.68,2.89-1.3,4.35-1.93C140.84,59.71,140.19,60.18,140.49,60.22Z"/><polygon class="cls-1" points="121.4 66.75 114.42 70.28 122.78 66.16 121.4 66.75"/><path class="cls-1" d="M161.28,53.1l-1.93.85c-.8.4-1.62.78-2.41,1.21C158.37,54.44,159.83,53.79,161.28,53.1Z"/><path class="cls-1" d="M171.51,50.47c3.05-1.13,5.66-2.11,8-3.09C177,48.3,174.25,49,170.7,50,168.91,51,173.44,49.63,171.51,50.47Z"/><path class="cls-1" d="M179.49,47.38c1.33-.49,2.63-1,3.92-1.56C182.16,46.28,180.88,46.81,179.49,47.38Z"/><path class="cls-1" d="M154.21,54.94l-1.76.64a14.74,14.74,0,0,0,3.65-.88Z"/><path class="cls-1" d="M157.78,53.66l.22-.07Z"/><path class="cls-1" d="M157.56,53.73l.22-.07Z"/><path class="cls-1" d="M157.49,53.76l.07,0Z"/><path class="cls-1" d="M157.33,53.81l.16-.05Z"/><path class="cls-1" d="M154.14,55h.07l3.12-1.13Z"/><path class="cls-1" d="M152,55.74l.44-.16A.79.79,0,0,0,152,55.74Z"/><path class="cls-1" d="M133.07,62.4c2.5-1.25,7.83-3.63,2.45-1.9C133.77,61.51,136.84,60.52,133.07,62.4Z"/><path class="cls-1" d="M144.67,58.18l5-2.14-4.77,1.64C145,57.76,145.92,57.6,144.67,58.18Z"/><polygon class="cls-1" points="151.92 55.06 149.65 56.04 151.41 55.42 151.92 55.06"/><path class="cls-1" d="M175.05,48c2-.82,4.29-1.54,6.86-2.37-2.78.78-5.65,1.62-8.35,2.46C173.23,48.34,172.11,48.92,175.05,48Z"/><path class="cls-1" d="M164.86,51.27l.45-.17C165,51.16,164.78,51.22,164.86,51.27Z"/><path class="cls-1" d="M207.34,38.26l-.43,0a.35.35,0,0,1-.08.1Z"/><path class="cls-1" d="M173.08,48.15a30.27,30.27,0,0,0-4.41,1.65c1.53-.55,3.14-1.14,4.89-1.72C173.71,48,173.73,47.91,173.08,48.15Z"/><path class="cls-1" d="M186.76,44.33a22.59,22.59,0,0,0,3.65-.89C189.3,43.69,188.06,44,186.76,44.33Z"/><path class="cls-1" d="M166,51l-.3.13C166.44,51,166.34,50.94,166,51Z"/><path class="cls-1" d="M166,51c1-.41,1.83-.79,2.63-1.17-1.23.46-2.38.9-3.36,1.3C165.57,51,165.84,51,166,51Z"/><path class="cls-1" d="M197.76,40.82l-2,.6c2.27-.56,3.92-.86,7-1.39,3.23-1.11,3.87-1.44,4.06-1.63l-9.73,2.67Z"/><path class="cls-1" d="M190.15,42.46c1-.44,1.38-.72-.14-.54-5.75,1.8-3.93,1.59-7.31,2.83,9.25-3-2.59,1.06,4.18-.79-1.8.64-3.43,1.17-5,1.66,1.68-.46,3.31-.9,4.85-1.29l-.22,0h0c-.41.08-.56.08-.1,0l.19-.06A1.52,1.52,0,0,1,187,44c2.71-.74.45,0-.38.29,0,0-.09.07-.09.09h0c3.06-1.07,6.16-2,9.26-2.95-2,.53-4.5,1.13-8.83,2.57C187.67,43.55,189.18,42.91,190.15,42.46Z"/><path class="cls-1" d="M140,57.73c.3-.08.3,0,.33,0C140.92,57.43,141.13,57.31,140,57.73Z"/><path class="cls-1" d="M140.07,58.38l.62-.31c2.93-1,6.6-1.94,7.72-2.17a24.71,24.71,0,0,0-4.54.66A24,24,0,0,1,140.56,58c-1.9.61-.06-.2-.21-.29C139.1,58.33,135.94,59.78,140.07,58.38Z"/><path class="cls-1" d="M148.41,55.9h.3C148.84,55.83,148.71,55.84,148.41,55.9Z"/><path class="cls-1" d="M169.15,47.9l.27.14c-4.4,1.4-3.37,1.34-3.86,1.69l7.62-2.8Z"/><path class="cls-1" d="M208.29,38.24c-.31.23-.62.46-.92.71,1.45-.61,2.91-1.17,4.37-1.77Z"/><polygon class="cls-1" points="218.48 35.65 218.2 36.12 220.84 35.22 218.48 35.65"/><path class="cls-1" d="M481.16,31l-1-.64c-2.38-.4-4.19-.81-5.72-1.22C477.82,30.16,481.48,31.49,481.16,31Z"/><path class="cls-1" d="M580.4,155.94c-1.32.61-1.87.92-1.79,1C580,156.32,580.73,155.93,580.4,155.94Z"/><path class="cls-1" d="M62.23,125.85c-.63-.39-1.7-1-3.57-2C59.53,124.32,60.92,125.11,62.23,125.85Z"/><path class="cls-1" d="M259.91,27.09c-2.2.42-.34.11,0,0Z"/><path class="cls-1" d="M249.75,27a2.49,2.49,0,0,1-.83.38C249.37,27.22,249.71,27.09,249.75,27Z"/><path class="cls-1" d="M256.57,27.48c.83-.09,1.79-.22,2.83-.37C258.94,27.16,258.08,27.27,256.57,27.48Z"/><path class="cls-1" d="M257.05,27.6l-1.93.3C254.86,28,255.11,28,257.05,27.6Z"/><path class="cls-1" d="M259.91,27.09l3-.56c-1.25.22-2.43.41-3.56.58C259.83,27.06,260,27.05,259.91,27.09Z"/><path class="cls-1" d="M216.29,186.27l-.32-.13Z"/><path class="cls-1" d="M242,30.58c-2.29.48-3.13.54-4.29.73.12.09,1.06,0-.41.38C238.86,31.29,240.43,30.93,242,30.58Z"/><path class="cls-1" d="M195.81,39c-.67.25-1.45.41-2.11.66l.25.16C196.86,39,198.84,38.23,195.81,39Z"/><path class="cls-1" d="M232.58,31.09c-.46-.31-3.4.48-6.69,1.29l.58-.13C225.62,33,229.11,32.05,232.58,31.09Z"/><path class="cls-1" d="M225.12,32.58c-1,.27-2,.53-3,.76C221.75,33.66,223.33,33.08,225.12,32.58Z"/><path class="cls-1" d="M267.07,25.52c-1.6.14-.91.66-1.83.65C263.55,26.94,275.72,23.91,267.07,25.52Z"/><polygon class="cls-1" points="232.68 29.8 229.61 30.38 230.91 30.61 232.68 29.8"/><path class="cls-1" d="M256,25.39c-1.78.29-3.58.51-5.36.84.09.07-.57.25-1.4.45C252.49,26,256.13,25.54,256,25.39Z"/><path class="cls-1" d="M244.94,27.62c.93-.19,2.91-.6,4.27-.94C247.5,27,245.88,27.35,244.94,27.62Z"/><polygon class="cls-1" points="44.65 115.13 40.91 112.63 43.22 114.42 44.65 115.13"/><path class="cls-1" d="M351,220.63c-2.22,0-1.42.39-1.75.47C352.91,221,350.86,220.52,351,220.63Z"/><polygon class="cls-1" points="386.81 218.69 392.15 217.92 387.44 218.48 386.81 218.69"/><path class="cls-1" d="M413.31,216.09c-3.42.45-7.2.92-10.23,1.09l-1-.07-2.69.79c3.69-.32,7.91-.87,11.86-1.32s7.62-1,10.22-1.15A44.67,44.67,0,0,0,413.31,216.09Z"/><path class="cls-1" d="M440.15,214.31Z"/><path class="cls-1" d="M440.15,214.31c-.27.05-1.4.25-4.66.77l.78,0,3.45-.47C439.2,214.52,439.92,214.35,440.15,214.31Z"/><path class="cls-1" d="M436.27,215c-3.57.52,2.37-.09,0,0Z"/><path class="cls-1" d="M452.69,212.34l-4.64,1c1,0,5.18-.66,3.65-.28C456.48,212.15,455.47,212.15,452.69,212.34Z"/><path class="cls-1" d="M457,211.08l-2.41.52A8.31,8.31,0,0,0,457,211.08Z"/><path class="cls-1" d="M452.29,212.07c.38-.28-.6.09-2.76.61l5.1-1.08A3.5,3.5,0,0,0,452.29,212.07Z"/><path class="cls-1" d="M445.2,212.75c-8.95,1.46-7.56,1.76,1.4.29C443.94,213.29,440.53,213.71,445.2,212.75Z"/><path class="cls-1" d="M416.52,215.27c.75-.14,2.46-.28,3.94-.41a10.75,10.75,0,0,0,2.63-.37c-1.18.07-2.36.16-3.55.21Z"/><path class="cls-1" d="M481.81,207.15c.26-.21-1.65-.06-2-.18l-3.4.9C478.17,207.6,481.53,207,481.81,207.15Z"/><path class="cls-1" d="M479.78,207c1.69-.45,3.38-.88,5.07-1.35C480.27,206.59,479.45,206.86,479.78,207Z"/><path class="cls-1" d="M449.34,212.13c3.35-.76,6.7-1.46,10-2.28l-1.63.3Z"/><polygon class="cls-1" points="498.53 203.7 503.56 201.93 501.34 202.65 498.53 203.7"/><path class="cls-1" d="M515,199.76c3.49-1,6.38-2.09,9-3a79.68,79.68,0,0,1-9.83,2.57C512.15,200.13,517.25,199,515,199.76Z"/><path class="cls-1" d="M528.43,195.13c-1.4.47-2.83,1-4.4,1.58C525.52,196.22,527,195.71,528.43,195.13Z"/><path class="cls-1" d="M493.57,203.71a17,17,0,0,0,4.11-.55l-2.1.07Z"/><path class="cls-1" d="M495.5,203.24h.08l4.33-1Z"/><path class="cls-1" d="M493.57,203.71a1,1,0,0,0-.51.13Z"/><path class="cls-1" d="M471.3,208c3-.8,9.19-2.4,3.05-1.48C472.24,207.23,475.77,206.75,471.3,208Z"/><path class="cls-1" d="M484.68,205.49l5.77-1.61L485,205C485.13,205.1,486.15,205,484.68,205.49Z"/><polygon class="cls-1" points="490.45 203.88 492.47 203.46 493.07 203.14 490.45 203.88"/><path class="cls-1" d="M519.14,197.34c2.26-.83,4.79-1.56,7.64-2.4-3.09.79-6.27,1.64-9.28,2.49C517.11,197.68,515.86,198.28,519.14,197.34Z"/><path class="cls-1" d="M507.67,200.28l.51-.16C507.85,200.17,507.6,200.22,507.67,200.28Z"/><path class="cls-1" d="M554.69,186.2l-.47.08-.08.1Z"/><path class="cls-1" d="M517,197.5a35.31,35.31,0,0,0-5,1.47l5.51-1.54C517.68,197.31,517.7,197.27,517,197.5Z"/><path class="cls-1" d="M532.15,193.56a27.83,27.83,0,0,0,4-1C535,192.86,533.59,193.19,532.15,193.56Z"/><path class="cls-1" d="M509,200l-.34.11C509.43,200,509.32,200,509,200Z"/><path class="cls-1" d="M509,200c1.18-.38,2.09-.72,3-1.06-1.4.4-2.69.79-3.81,1.15A6.89,6.89,0,0,1,509,200Z"/><path class="cls-1" d="M544.25,189.5l-2.14.73c2.48-.72,4.28-1.13,7.62-1.87,3.52-1.37,4.21-1.77,4.41-2-3.51,1.2-7.07,2.29-10.61,3.41Z"/><path class="cls-1" d="M535.79,191.06c-6.35,1.94-4.35,1.69-8.1,3,10.24-3.18-2.87,1.12,4.61-.87-2,.67-3.8,1.26-5.52,1.75l5.37-1.38-.24,0,0,0h0c-.46.08-.61.09-.11,0l.22-.07a1.43,1.43,0,0,1,.41-.3c3-.81.5,0-.41.3,0,0-.11.07-.11.1h0c3.4-1.13,6.82-2.17,10.2-3.37l-9.72,3C534,192.29,539.11,190.55,535.79,191.06Z"/><path class="cls-1" d="M479.75,204.44c.33,0,.33,0,.36,0C480.77,204.27,481,204.18,479.75,204.44Z"/><path class="cls-1" d="M489.1,203.62l.35,0C489.61,203.59,489.46,203.58,489.1,203.62Z"/><path class="cls-1" d="M479.67,205.09l.73-.22c3.33-.56,7.42-1.14,8.7-1.25a29.74,29.74,0,0,0-5,.15,21.78,21.78,0,0,1-3.83,1c-2.17.33,0-.2-.17-.31C478.64,204.89,475,205.87,479.67,205.09Z"/><path class="cls-1" d="M508.6,198.75l8.58-2.49c-1.49.3-3,.54-4.49.81l.28.16C508,198.44,509.17,198.42,508.6,198.75Z"/><polygon class="cls-1" points="554.75 186.89 559.44 184.62 555.73 186.08 554.75 186.89"/><polygon class="cls-1" points="566.42 182.73 569.23 181.48 566.69 182.21 566.42 182.73"/><path class="cls-1" d="M591.51,43.7l.92.86c2.5,1,4.37,1.8,5.94,2.56C595,45.3,591.25,43.11,591.51,43.7Z"/><path class="cls-1" d="M681.91,128.5c-3.54,1.84-6.51,3.12-7.24,4C677.62,131,679.92,129.67,681.91,128.5Z"/><path class="cls-1" d="M242.61,10.73c-1.56.39-2.22.61-2.15.69C242.07,11,243,10.76,242.61,10.73Z"/><path class="cls-1" d="M690.06,123.49l-1.54.84c-2,1.35-4.06,2.67-6.61,4.17A56.16,56.16,0,0,0,690.06,123.49Z"/><path class="cls-1" d="M312.81,219c.8.08,2.16.17,4.5.22C316.23,219.24,314.46,219.14,312.81,219Z"/><path class="cls-1" d="M610.25,165.21c-2.24,1-.34.2,0,0Z"/><path class="cls-1" d="M599.39,167.75a3,3,0,0,1-.83.57C599,168.08,599.37,167.86,599.39,167.75Z"/><path class="cls-1" d="M606.77,166.5c.88-.3,1.87-.68,3-1.13Z"/><path class="cls-1" d="M607.31,166.5l-2,.8C605.05,167.49,605.32,167.42,607.31,166.5Z"/><path class="cls-1" d="M610.25,165.21l3.14-1.4c-1.29.57-2.5,1.08-3.67,1.56C610.17,165.21,610.37,165.15,610.25,165.21Z"/><path class="cls-1" d="M706.35,104,705,103.2l-.59-.36-.35-.2a7.31,7.31,0,0,0-1-.49c-1.9-1.86-6.91-5-12.29-8.28l-4.08-2.47c-1.35-.82-2.73-1.57-4-2.32-2.61-1.49-5-2.86-6.81-4l-.53.27c-5-3.05-10.07-5.59-16.54-9L659,77c-1.41-.68-3-1.52-4.71-2.48l-5.57-3-6.16-3.4c-2.14-1.15-4.3-2.36-6.56-3.41a22.71,22.71,0,0,1,4.46,2.22,73.82,73.82,0,0,0-8-4.33c-2.77-1.34-5.6-2.6-8.41-3.84-5.63-2.43-11.22-4.6-16-7.18-2.5-1-4.29-1.74-6-2.58l.63.23-1-.43-3.34-1.67c1,.54,2,1,2.8,1.44-1.92-.79-4.83-2-7.71-3.05l-1-.95-.66-.27c-2.72-1.33-2.33-.73-1,.23-1.45-.54-2.82-.93-3.89-1.23-2-1.62-7.62-2.68-10.44-4.67a28.57,28.57,0,0,1-3.18-1L568.14,36a61.17,61.17,0,0,0-7.57-2.1c-1.57-.6-3.13-1.24-4.69-1.76s-3.14-1-4.64-1.35l-1.19-1-7.37-1.54c-2.1-.9-3.6-1.5-4-1.78s.28-.29,2.5.17c-10.66-2.44-8.57-2.26-17.66-4.2l.54-.26c-3.2-.85-8.47-1.68-10.31-2.51-.87-.33-2.08-.72-3.57-1.17s-3.23-1-5.22-1.45c-4-1-8.78-2.13-13.95-3.35l-16.19-3.4c-5.43-1.07-10.75-2-15.41-3,1.72.9-.43.38-3.14-.24s-6-1.23-6.42-.84c-1.06-.43-3.66-1-.57-.76-4.84-.54-8.43-1.25-11.68-1.66a72.62,72.62,0,0,0-9.52-.78c-1.07-.4,2.12-.15,1.15-.43a29.88,29.88,0,0,1-4.09-.39c-1-.26,1.45-.1,3,0-9.9-1-11-.17-11.77.53a40,40,0,0,0-11.15-.69c-1.72-.39-4.62-.87,1.54-.52L402,1,398.52.71l-3.69-.2c-4.91-.25-9.43-.4-9.62-.09a44.94,44.94,0,0,0-5.76-.13L371.35,0c-2.1,0-4.18,0-8,0l2.12.11a18.72,18.72,0,0,1-5.08.37l-3.3-.1c-1.23,0-2.59,0-4.13,0l.17-.08c-14.13-.28-6.08.33-20,.25l.78.45c-1.25,1-12.36,0-20.4,1.06,1,0,1.95,0,2.93,0a45.55,45.55,0,0,1-8.4.13,73.52,73.52,0,0,0-8.46-.16c-1,0,1.5-.32,2.84-.51-11.63.63-1.43.78-10,1.86-1.63-.16,1.95-1.08-3.86-.51-1.46,0-5.63.88-10.42,1.73L270.7,6c-2.45.41-4.79.73-6.79.87,1.78,0,3.54,0-.41.79-3,.48-7.18,1-11.24,1.56-2,.28-4,.58-5.87.92a36.46,36.46,0,0,0-4.8,1.27c-.79.08-1.09.07-1.13,0-2.29.58-6,1.37-9.53,2.26s-6.73,1.76-8.06,2.28c-2.32-.38-9.4,1.55-15.92,3.36s-12.43,3.73-12.58,3c-4.63,1.36-9.3,2.63-13.91,4.06l.32-.26c-4.45,1.3-7.44,2.25-9.68,3.08s-3.73,1.52-5.23,2.19c-2.07.56-.63-.06-.48-.19-13,3.91-14.21,4.47-24.64,9l-1.28-.05c-1.38.69-6.05,2.15-11.86,4.25S114.84,49.1,108.84,52a4.5,4.5,0,0,1,1.26-.77c-6.79,3.14-15.11,6.42-22.25,9.49s-13.07,5.93-15.12,7.95c-2.88,1.6-5.76,3.18-8.61,4.83,11.43-5.64-1.34,1.55,3.47-.56-4.41,2.35-11.75,5.46-6.34,2.53l.9-.36c.79-.94-2.77.8-6.5,2.73S48,81.86,48,81.5C40,85.91,32.2,90.39,24.55,95c-3.83,2.32-7.6,4.67-11.3,7.11-1.85,1.2-3.71,2.49-5.48,3.75L0,111.37l10.73,6.92L19,123.44l-1.91-2L24,125.75c1.74,1.28,2.16,2-2.8-1.1a32.67,32.67,0,0,0,5.2,3.16,29.26,29.26,0,0,0,3.6,1.57c9.74,6-4.29-1.53-1.27.26L32.87,132l-.89-.61a83.6,83.6,0,0,1,10,5.16c3.82,2.28,1.78,1.5,3.3,2.37a12.22,12.22,0,0,0,2.34,1.32l9,5-3.34-2.5c4.12,2,8.55,4.59,4.63,1.83a89.45,89.45,0,0,0,7.79,4.59c3.53,1.9,7.69,4.16,11.89,6.14l11.6,5.6c3.34,1.52,5.87,2.68,6.81,3.19,3,1.13,6,2.35,9,3.69s6.37,2.66,10,4.21c-1.75-.87-2.57-1.92,3.62.77-1.38.12,1.39,1.53,5.16,3.09a103.1,103.1,0,0,1,10.87,4.9c-1.08-.59-.5-.46.88,0l2.55.91,3.12,1.06c4.23,1.43,8.14,2.71,4.68,1,5.28,2,.15.58,4.08,2.32l10,3.23c3.49,1.14,7.08,2.37,10.77,3.64l11.43,3.56c1.94.59,3.89,1.22,5.88,1.77l6,1.56c.3-.1-2.32-1.07,1.19-.41l8.26,3.09c3.21.7,3.18-.29,8.87,1.68-.79-.34-2-.84.19-.4,7.84,2.16,15.91,3.77,24,5.44,4.06.78,8.16,1.43,12.26,2.14l6.15,1,6.2.86c16.5,2.48,33.15,4.16,49.6,6-4.45-.64-1.47-.45,1.95-.27-2.22-.21.07-.43-.35-.69q6.89.77,13.78,1.34c2.54-.51,14.83.38,16.29-.28l-4.38.05c3.22-.34.39-.86-2.62-1.43,4.55.11,9.1.18,13.67.18a629.69,629.69,0,0,0,143-16.69c16.92-3.94,33-8.41,48.15-13.15a4.61,4.61,0,0,0-.56.2l.27.14c2.54-.82,4.43-1.55,3.34-1.3,2.32-.74,4.63-1.49,6.91-2.24-4.21,1.74-.61,1.9,3.87,1.11.1-.22.06-.37,5.19-2.35-1.9.41-11.71,3.42-7.44,1.6,6.82-2.53,5.69-1.77,9.11-2.72-2.64.48,6-2.82,6.84-3.71q5.28-1.9,10.35-3.83h1.42l1.8-1.12-3,1.06c10.89-4.13,21.06-8.29,30.43-12.36-.19.15-.12.18.39,0l3.72-1.71c3.62-1.11-6.82,3.65-2,1.75-2.45,1.26-5,2.58-8,3.93s-6.09,2.75-9.72,4.09l-1.58,0a41.07,41.07,0,0,0,6.77-2.56c-1.44.73-4.27,1.66-7.11,2.66a37.65,37.65,0,0,0-7.2,3l5.21-1.57c-2.51,1.16-5.32,2.46-8.27,3.84s-6.16,2.61-9.41,3.72c3.14-.52,1.46-.62,6.28-1.66-2.15.31,2-1.16,5.78-2.66s7.29-2.85,4-2a44.2,44.2,0,0,0,6.74-2.09c2.21-.82,4.61-1.7,7.75-2.67-.26-.11-2.28.54,3.07-1.61.22-.16.75-.46,1.1-.66l.36-.14-.3.11c.22-.13.23-.14-.11,0a25.82,25.82,0,0,1-2.83.86c2.47-1.52,10.87-5.17,13.59-6.67,3.16-1.32-1.2.8.58.23l4.07-2.24c.61.24,8.56-3.15,1.36.49l6.59-3a120.32,120.32,0,0,0,12.47-5.88c3.12-1.43,7.48-4.37,5-2.69,3.34-1.8,6.66-3.65,10-5.51l.14.05c9.94-5.27,19.89-11.79,31.23-17.91,3.15-2.11,6.38-4.3,11.72-7.79l1.25-.4,1.68-1.23,2.3-1.63c2.38-1.66,4.91-3.43,7.29-5.11C710.44,106.65,708.2,105.2,706.35,104Zm-43.2,12.7a68,68,0,0,1-7.93,4.32l.84.08c-.52,1.5-10.07,5-16.4,8.69l2.48-1c-3.41,2.17-10.58,4-14.26,5.59-.82.31,1.18-.74,2.24-1.35-9.69,4.14-.94,1.17-7.9,4.8-1.45.32,1.31-1.57-3.49.63-1.25.44-4.59,2.32-8.47,4.41a98.48,98.48,0,0,1-11.81,5.39c1.55-.41,3.1-.82-.15.85-2.54,1.18-6.14,2.38-9.61,3.69-1.74.65-3.46,1.31-5,2a32.37,32.37,0,0,0-4.06,1.95c-.69.19-1,.22-1,.17-2,.89-5.15,2.24-8.14,3.55s-5.83,2.44-7,3.11a19.45,19.45,0,0,0-5.67,1.44c-1.26.45-2.63,1-4,1.53l-4.33,1.62c-5.74,2.17-11,4.2-11.2,3.46-4.17,1.36-8.36,2.65-12.53,4l.28-.25c-2,.59-3.7,1.12-5.13,1.59s-2.63.81-3.65,1.17c-2,.7-3.43,1.27-4.8,1.84-1.91.42-.58-.09-.44-.21-6,1.49-9.21,2.38-12.24,3.16s-5.76,1.71-10.68,3.32l-1.15-.23c-2.63,1-17.47,3.21-29.18,6a4.19,4.19,0,0,1,1.26-.47A216.33,216.33,0,0,1,438.39,195l-.8.11c1-1.07,2-2.13,3-3.24l.11,0c.94-1,1.85-2,2.76-3.09l1.37-1.62,1.31-1.72c.88-1.14,1.8-2.29,2.78-3.42s1.9-2.35,3-3.49l1.59-2.47c.56-.93,1.23-2,2.11-3.23l.65-.29c.3-.52.7-1.13,1.15-1.79l1.28-2.07a13.29,13.29,0,0,0,1.65-3.14c1.13-.84,2.37-3.45,3.7-6.22.66-1.39,1.16-2.91,1.71-4.27s1.06-2.59,1.44-3.56l-.42-.33c.48-1.34.92-2.67,1.35-4.09.21-.71.44-1.44.64-2.21s.36-1.6.55-2.47l-.49.09a20,20,0,0,1,.6-2.51c.26-.91.62-1.88.89-2.93a67.24,67.24,0,0,0,1.67-6.78,2.6,2.6,0,0,1,0,1c-.1.44-.25.94-.39,1.35a16.7,16.7,0,0,0,1.08-4.28c.22-1.48.36-3,.46-4.46s0-3,.13-4.38.27-2.78.46-4.08a12.11,12.11,0,0,1,.1-3.15,3.08,3.08,0,0,0,0,.33c0-.14,0-.33,0-.54.09-.57.19-1.16.29-1.8a15.13,15.13,0,0,0-.28,1.52,26.57,26.57,0,0,0-.16-4l.46-.64c0-.13,0-.22,0-.35.13-1.47-.27-1.17-.61-.38a18.53,18.53,0,0,0-.35-2,4.63,4.63,0,0,0,.18-2.61,5.9,5.9,0,0,1,0-2.93,29,29,0,0,1-.81-4.16,13.45,13.45,0,0,0-1.13-3.63,18.52,18.52,0,0,0-.84-4.67l.44-.8-1.59-3.34c-.11-2.21-.11-3.17.83-1.15-.44-1.25-.83-2.1-1.1-2.77s-.44-1.15-.61-1.61a35.89,35.89,0,0,0-1.61-3.75l.45.08c-.56-1.5-1.92-3.71-1.94-4.73a14.05,14.05,0,0,0-.4-1.77c-.21-.72-.54-1.53-.9-2.45l-1.22-3c-.23-.53-.45-1.09-.71-1.65s-.56-1.11-.84-1.69c-1.15-2.29-2.33-4.76-3.69-7.06-.65-1.17-1.29-2.33-1.89-3.45s-1.28-2.15-1.84-3.16c0,2.15-1.9-3.89-2.93-3.61-.1-.59-.75-1.71.35-.65-1.53-1.8-2.51-3.28-3.43-4.57a16.38,16.38,0,0,0-3.26-3.29c-.14-.59,1,.5.77,0a6,6,0,0,1-1.35-1.46c-.19-.48.62.37,1.2.86a19.09,19.09,0,0,0-2-2.06,6.84,6.84,0,0,0-1.42-.91,1.87,1.87,0,0,0-1.62-.05c-1.42-2-2.24-2.89-3.92-3.66-.43-.75-1.28-1.91,1,0-.42-.41-1.44-1.42-2.61-2.53,2.11.41,4.25.81,6.43,1.1,2.75.39,5.54.69,8.3,1A129,129,0,0,1,465.06,27a33.33,33.33,0,0,1,5.79,1.13l-.6-.1,1,.21,3.26.9c-1-.31-1.91-.59-2.73-.8,1.84.37,4.63.88,7.39,1.32l1.06.7.64.12c2.64.72,2.2.24.85-.43,1.39.21,2.66.43,3.66.53,2,1.26,7.19,1.4,9.95,2.89a19.84,19.84,0,0,1,3,.47L503.07,35a50.46,50.46,0,0,0,7,1.24c3,.84,5.89,1.82,8.61,2.36l1.1,1,6.76,1.11a20.78,20.78,0,0,1,3.64,1.62c.37.29-.25.25-2.27-.12,9.64,2.3,7.72,2.18,16,4.06l-.52.25c2.86,1,7.57,2.06,9.17,3,1.52.74,4.27,1.76,7.72,3.1s7.64,3,12.14,4.71,9.22,3.78,13.86,5.72c2.32,1,4.57,2,6.74,3s4.25,2,6.18,3c-2.58-2.43,7.13,3.71,8.09,3.26.79.68,2.9,1.85.27.87,4,1.76,7,3.28,9.64,4.59a70.25,70.25,0,0,0,7.88,3.55c.78.7-1.86-.49-1.13.06a19.83,19.83,0,0,1,3.34,1.61c.73.55-1.25-.38-2.55-.9,8,4,9.25,3.66,10.19,3.28a36.91,36.91,0,0,0,9,4.63c1.28,1,3.48,2.48-1.49-.09,1.37.78,5.6,3.06,9.44,5.32s7.46,4.19,7.76,4a46.16,46.16,0,0,0,4.54,2.59l6.28,3.85,2.37,1.43,2.39,1.42-1-.7a9.54,9.54,0,0,1,1.84.7l.44.23.22.12s.09,0,.09.06l-.1.06c-.26.18-.56.36-.87.54l-2.08,1.2-1.16.69-1.67,1,.1-.15C665.48,115.27,664.29,116,663.15,116.72Zm-153-80.51a2.27,2.27,0,0,0,.51,0C510.69,36.3,511.41,36.54,510.11,36.21Zm-71-7.75c.35.49.46.74.42.86-.51-.54-1-1.07-1.56-1.6l.43.23-.83-.62c-.27-.28-.54-.56-.82-.83-.4-.66-.79-1.19-1.05-1.56,1.26.95,2.41,2,3.59,3.08.32.49-.17.29-.89-.07Zm32.09,62.45c.1-.07.09-.48.21.24A.86.86,0,0,0,471.19,90.91Zm-3.8,54.38-1.56,3.18c-.4.76-.8,1.55-1.15,2.23a12.68,12.68,0,0,1-.95,1.48,1,1,0,0,1-.34.3c.51-1.29,1-2.58,1.47-3.89l.71.17-.52-.68c.45-1.3.89-2.6,1.3-3.91A1.29,1.29,0,0,1,467.39,145.29Zm-224.11-72,.38-.7C243.21,74.32,243.26,73.82,243.28,73.31Zm215,90.19a13.77,13.77,0,0,1-1,2.65c-.05-.16-.32,0-.55.19C457.29,165.4,457.8,164.45,458.3,163.5Zm13-45.29a24.4,24.4,0,0,1,.78,6.36l-.48.91-.21,3.83c-.22-1.05-.45-2.87-.72-4.87C470.94,122.38,471.14,120.3,471.3,118.21Zm-2.89-36c-.22-.92-.45-1.84-.69-2.75.53.83,1.06,1.66,1.52,2.53C469,81.82,468.7,82,468.41,82.22Zm-33.9-60.07,3,.41a9,9,0,0,1-1.87-.16l-1-.13Zm14-.23q6,.91,12,2c-1.71,0-3.57,0-5.55-.09-1.09-.05-2.21-.12-3.35-.21s-2.3-.15-3.48-.27l-1.73-.58-7.21-.66C441.15,22,444.64,21.92,448.53,21.92Zm79,17.94c1.86.56,3.73,1.14,5.59,1.72-1.93-.28-3.85-.58-5.78-.84C527.82,40.66,527.68,40.28,527.48,39.86ZM214.37,34l1.94-.49-2.13.63S214.24,34.06,214.37,34Zm-1.27.32c-.59.22-1.35.47-2.23.73s-2.15.6-3.36.88-2.44.6-3.66.82c-4.6,1.6-1.19,2,3.06,1.56.1-.2.05-.39,4.83-1.81-.87.13-3.6.62-5.58,1s-3.26.59-1.27-.15A35.47,35.47,0,0,1,210.3,36c.92-.14,1.45-.13,3-.41-2.54.16,6.28-2.26,6.57-3q2.72-.66,5.48-1.3c5.3-1.24,10.61-2.39,15.92-3.49l.88-.16-.39.06q8.76-1.8,17.53-3.34c-.39.14-.43.22.17.19l3.66-.72c3.44-.17-6.81,1.81-2.13,1.19-2.43.59-5,1.24-7.84,1.87s-5.91,1.35-9.38,1.91l-1.42-.34a33.77,33.77,0,0,0,6.48-1.11c-2.81.85-10.76,1.24-13.71,2.78,1.63-.2,3.26-.46,4.9-.62-2.43.64-5.1,1.52-8,2.32s-5.85,1.55-8.89,2.24c2.89-.08,1.37-.45,5.85-.71-3.67,0,13-3,10.24-3,4.14-.22,7.26-1.19,12.8-1.64-.21-.14-2.14,0,3-.83.22-.1.76-.27,1.1-.37l.35-.05-.29,0c.22-.07.23-.08-.11,0a18.73,18.73,0,0,1-2.67.16c2.47-.9,10.65-2.38,13.39-3,3.08-.37-1.25.43.46.39l4.09-1c.28.22,3,0,3.83.06l-.2.24.26-.23c.56,0,.15.22-2.81.79l4.2-.64c-1.69,1.68-4.49,3.56-2.53,1.55l.39-.26c.07-.71-1.36.54-2.84,1.92s-2.86,3-3,2.74a120.23,120.23,0,0,0-20,28.91l1.23-.86c-.57,1.18-1.22,2.33-1.73,3.55-.53.89-1.09,1,.09-1.53-1,1.18-1.52,4.51-1.42,4.63-2.4,5,0-2.32-.63-.76l-.83,2.15.28-.44a28,28,0,0,1-1.33,5.29c-.85,2-.79.9-1.1,1.69,0,0-.17.24-.44,1.23l-1.41,4.79,1.09-1.76c-.32,2.2-1.29,4.49,0,2.45a8.76,8.76,0,0,0-.76,1.63c-.24.7-.48,1.54-.73,2.48a55.47,55.47,0,0,0-1.35,6.3c-.16,1.11-.33,2.21-.49,3.25s-.3,2-.36,2.9c-.16,1.76-.31,3.09-.43,3.6,0,.78,0,1.55,0,2.33s0,1.57,0,2.38c0,1.61-.08,3.31-.14,5.2.05-.47.27-.84.43-.69s.29.81.31,2.43c-.68-.58-.78.9-.82,2.88,0,1,0,2.09-.05,3.12a10.84,10.84,0,0,1-.21,2.65c.21-1.2.47,1.11.75,3.24a13.27,13.27,0,0,0,.5,2.6c.18.51.32.52.4-.42.32,2.69-.47.23-.46,2.32,1.41,6.32,2.47,14.12,5.36,21.65.21.06,0-1.29.83.23.23,1.41.37,2.87.67,4.28.71,1.43,1.52.94,2.11,3.84,0-.44-.07-1.09.41-.14a92.09,92.09,0,0,0,11.75,20.72c4.8,6.46,10.17,12.44,15.52,18.44-1.38-1.7-.28-.76.95.34-.74-.78.31-.31.31-.62l1.57,1.73-.74-.1c-.35-.3-.75-.66-1.14-1a14.86,14.86,0,0,0,1.12,1c-2.07-.26-4.21-.55-6.33-.88l-11.57-1.66c-3.28-.56-5.76-1-6.7-1.26-2.9-.29-5.77-.68-8.79-1.16s-6.15-1.21-9.63-1.94c1.71.47,2.62,1.32-3.39,0,.62-.22.25-.5-.73-.84s-2.56-.71-4.35-1.19a94.25,94.25,0,0,1-10.05-2.93c1.22.55-2.76-.26-6.43-1.2-3.93-.95-7.57-1.79-4.32-.47-4.92-1.4-.17-.57-3.85-1.85-1.48-.33-3-.66-4.55-1.07l-4.71-1.34c-3.19-.93-6.48-1.94-9.86-3l-10.26-3.48L167,172.12l-5.31-1.84c-.28.09,2,1.18-1.12.36l-7.21-3.46c-2.83-.92-2.91,0-7.78-2.5.66.41,1.65,1-.23.37-13.68-5.54-27.59-11.34-41.38-17.58l-10.28-4.83C90.3,141,87,139.23,83.6,137.5c-6.75-3.41-13.24-7.29-19.66-11.15,3.42,2.21,1,1-1.71-.5,1.71,1.06-.25.36,0,.76l-10.58-6.78c-2.37-.48-11.59-6.83-13.05-7l3.47,2c-2.75-1.17-.71.61,1.43,2.48q-4-2.4-8.07-4.87c1.06-.86-.12-.46,0-.43l-.34.22-2.31-1.42,1.67-1.07a20.35,20.35,0,0,1,2.45,1.58l-.57-1.1-1.71-.59C57.87,94.86,122.81,57.26,213.1,34.31ZM434,195.58a15.4,15.4,0,0,0,1.86-1.58c-.67.53-1.33,1.08-2,1.6h-.11a23.74,23.74,0,0,1,3.11-3.15,4.55,4.55,0,0,0-.5.36,119,119,0,0,0,10.58-11.74,13.13,13.13,0,0,1-.55,1.21c-.38.76-.88,1.64-1.48,2.61-.3.48-.63,1-1,1.51s-.77,1-1.2,1.55c-2.76,3.3-1.66,1-2.08,1.62-.7.72-1.26,1.38-1.78,1.92s-.94,1-1.3,1.46a25.53,25.53,0,0,0-1.65,2.2l-.12.18ZM644.85,89.75l-8.09-4c-.9-.61,0-.38,1.42.09l-1.52-.65c-1.1-.7-1.48-1-1.41-1.14l4.12,2.18-1.19-.39L640.66,87l.93.49C642.92,88.41,644.05,89.22,644.85,89.75Zm58.54,15.48c.72.41,1.45.82,2.13,1.23-.39-.08.13.47.51.85L700,103.44l1.37.69C702,104.49,702.66,104.83,703.39,105.23ZM664.32,80.62c.36.25,3.2,2,6.17,3.94s6.1,4.15,7.25,5a4.14,4.14,0,0,1,.62.58q-3.75-2.21-7.51-4.37l.22-.73-1.27.12q-3.75-2.13-7.51-4.22C662.57,80.48,663.27,80.3,664.32,80.62Zm-42.76-21.8c1.17.44,2.36.93,3.55,1.45l1.65,1.16,7.32,3.14c-2-.58-5.54-1.7-9.44-3q-5.89-2.81-11.81-5.5c1.63.45,3.39,1,5.23,1.54C619.2,58,620.37,58.39,621.56,58.82Zm-61-24.93a2.23,2.23,0,0,0-.56,0C559.93,33.73,559.15,33.4,560.55,33.89Zm-18.67-5.84c-.56.05-.42.43-.2.86-1.89-.6-3.77-1.18-5.66-1.75C538,27.43,539.94,27.71,541.88,28.05ZM414.23,2.8c1.18.22.17.34-1.46.46l1.81,0c1.3.21,1.86.37,1.92.49-1.62-.14-3.23-.29-4.85-.42l1.12-.09h-2.21L408,3.06c-1.49-.28-2.77-.53-3.68-.67C407.64,2.53,410.94,2.59,414.23,2.8ZM46.17,139.21l-1.36-.89C48.09,140,47.13,139.58,46.17,139.21Zm505.17,45.62c2.94-1,5.86-2,8.72-3A68.55,68.55,0,0,1,551.34,184.83Zm10.56-3.57a0,0,0,0,1,0,0l.45-.15Zm72.75-27.67.16-.1C638.51,151.91,637.2,152.46,634.65,153.59Zm24.81-14.39c-7.42,3.92-10.44,5.85-13.16,7.6-1.36.88-2.66,1.69-4.42,2.63s-4,2-7.17,3.42c-5.21,1.92-.69-.86-2-.67,3.23-1.67,5.77-2.82,8-3.85s4.32-1.89,6.5-3c-1.84.85-3.67,1.7-5.52,2.52,2-1.17,6.24-3.54,8.66-4.6-.5.19-1.23.52-2.13.95,12-6.17,22-11.83,30-16.57A123.33,123.33,0,0,1,664.43,137C656.69,141.45,660.76,138.35,659.46,139.2Z"/><path class="cls-1" d="M587.26,174.93l-.52.22Z"/><path class="cls-1" d="M587.13,174.69c.13.05.89-.1.13.24,1.47-.61,3-1.21,4.41-1.86A44,44,0,0,1,587.13,174.69Z"/><path class="cls-1" d="M581.56,175.45c-.54-.21-3.62,1.08-7.09,2.46l.62-.23C574.25,178.59,577.92,177,581.56,175.45Z"/><path class="cls-1" d="M570.43,179.43c-.33.37,1.33-.43,3.23-1.21C572.59,178.64,571.49,179.07,570.43,179.43Z"/><path class="cls-1" d="M617.53,161.64c-1.66.64-.8.94-1.79,1.19C614.16,164.13,626.26,157.37,617.53,161.64Z"/><path class="cls-1" d="M605.71,164.61l-5.55,2.19c.12,0-.56.39-1.4.78C602.15,166.17,605.89,164.69,605.71,164.61Z"/><path class="cls-1" d="M598.76,167.58c-1.78.72-3.46,1.41-4.42,1.89C595.3,169.07,597.36,168.22,598.76,167.58Z"/><path class="cls-1" d="M665.78,134.92c-1.31.86-3.38,2.09-2.43,1.75,1.87-1.1,3.75-2.17,5.61-3.3C669.45,132.89,667.86,133.69,665.78,134.92Z"/><polygon class="cls-1" points="335.49 220.5 340.46 220.8 337.25 220.4 335.49 220.5"/><path class="cls-1" d="M345,219.88l1.17.66,3-.58A31.09,31.09,0,0,1,345,219.88Z"/></g></g></svg>