<svg xmlns="http://www.w3.org/2000/svg" viewBox="0 0 588.61 575.93"><defs><style>.cls-1{fill:#fff;}</style></defs><g id="Layer_2" data-name="Layer 2"><g id="Layer_1-2" data-name="Layer 1"><g id="LoZPH6.tif"><path class="cls-1" d="M287.71,2.48h12.44c9.6,7,12.58,16.26,12.46,28.16-.54,51.28.68,116.68-.68,167.93-.54,20.39,31.72,38.53,46.18,52.22-2.35-41.48-4.63-79.2-6.54-116.94-1.05-20.5,10.64-29.76,30.11-24.21a206.48,206.48,0,0,1,103,66.48c91.1,108.13,118.3,233,93.18,370.53-4.66,25.56-12.59,31.11-37.86,24.53a564.44,564.44,0,0,1-144.19-59.81c-5.74-3.37-10.93-7.89-15.82-12.48-15.92-15-23.29-32.6-22.16-55.37,2.06-41.36,1.68-82.84,2.07-124.27,0-3.91-.44-8.89-2.76-11.57-14.14-16.31-48.6-41.38-63.61-57.85-14.22,15.67-44.4,39.57-56.75,54.19A25.54,25.54,0,0,0,231,319.15c-.11,39.36-2.06,79,1.61,118,3.22,34.39-9.95,57.16-37.46,73.7-47.26,28.41-97.05,51-151.56,61.7-17.94,3.52-25-.63-29.12-18.59C10,534.89,6.89,515.52,3.2,496.27V424.72c1-5.51,2.36-11,3.08-16.53,10.3-79,35.64-152.09,85.43-215.28,29.1-36.94,64.79-65.4,110.06-80.49,28.54-9.52,38.81-1.48,36.92,28.24-2,32.07-3.61,64.16-5.23,96.25-.19,3.68.62,7.41,1,11.49,18.73-13.09,41.81-39.32,41.07-61.13-1.64-48.15-.22-110.49-.72-158.69C274.68,17.05,277.85,8.44,287.71,2.48Z"/><path class="cls-1" d="M283.39,2.49l1.19-.89c.33-.23.59-.41.8-.57a3.43,3.43,0,0,0,.67-.6c.15-.23-.12-.21.16-.43-.82.55-1.49,1-2,1.37s-.88.71-1.14.95c-.54.46-.65.66-.58.68A3.1,3.1,0,0,0,283.39,2.49Z"/><polygon class="cls-1" points="273.39 73.12 273.22 71.85 273.6 82.43 273.39 73.12"/><path class="cls-1" d="M273.24,140.28c.68-6.35-.15-24.34.15-36.31l.18-2L273,96.6C273,111.14,273.39,130,273.24,140.28Z"/><path class="cls-1" d="M272.17,176.15c.23-2.22.4,7.75-.09-8.37,0,.81,0,1,0,1.52C272.06,170.75,272.1,172.75,272.17,176.15Z"/><path class="cls-1" d="M272,169.3c-.16-7.09-.15,4.64,0,0Z"/><path class="cls-1" d="M270.34,200.64a41,41,0,0,0,1.82-8.47c-.14.87-.66,3.18-1.15,4.9s-.95,2.85-.58,1.47c-1.28,4.26-2.12,5.91-2,6A20.9,20.9,0,0,0,270.34,200.64Z"/><path class="cls-1" d="M267.4,208.59c.35-.7.69-1.4,1-2.11s.64-1.42.92-2.14C268.93,205.06,268.43,206.17,267.4,208.59Z"/><path class="cls-1" d="M272.13,195.06a49,49,0,0,1-2.81,9.28,9.71,9.71,0,0,0,1.55-4.22C270.77,201,271.38,199.07,272.13,195.06Z"/><path class="cls-1" d="M272.93,189.74c.18-2.3.06-5.44.13-6.58s.14-.53.4,4.15c-.32-8.92-.55-12.72-.66-12.06-.05.33-.09,1.77-.05,4.25,0,1.24.07,2.74.1,4.48,0,.88.06,1.81.09,2.81,0,.51,0,1,0,1.45S273,189.22,272.93,189.74Z"/><path class="cls-1" d="M274,143.71l.18-7-.25-6C274,133.69,273.77,144.14,274,143.71Z"/><path class="cls-1" d="M237.45,242.12c0,.13.05.19.26.17a2,2,0,0,0,.92-.33c1.71-1.45,3.37-3,5-4.5-1.32,1.11-3.24,2.72-4.93,4l-.62.47c-.13.09-.12.07-.18.11l-.24.11C237.54,242.2,237.46,242.18,237.45,242.12Z"/><path class="cls-1" d="M238.63,242l-1.19,1-.54.46-.28.23-.15.12s-.11.11-.1,0l-.18-1c.05.45.09.85.12,1.09V244l0,0,.1-.07.18-.13.34-.25.56-.44c.32-.26.54-.46.68-.6s.09-.1.23-.23l.24-.25C238.78,241.92,238.75,241.91,238.63,242Z"/><path class="cls-1" d="M267.34,210.39A55.43,55.43,0,0,0,272.72,195a58.51,58.51,0,0,1-7,18.16C266.3,212.25,266.83,211.32,267.34,210.39Z"/><polygon class="cls-1" points="238.02 212.82 238.06 218.66 238.09 208.25 238.02 212.82"/><path class="cls-1" d="M239.38,186.78c.05,4.33.81-5.88.74-1.31.33-7.08.41-13.13.48-18.58C240.42,172.68,240.05,178.83,239.38,186.78Z"/><path class="cls-1" d="M240.77,157.74c-.08,2.89-.12,5.89-.17,9.15C240.7,163.82,240.77,160.8,240.77,157.74Z"/><path class="cls-1" d="M236.39,228.06a68.2,68.2,0,0,0,.87-8.07l-.64,4C236.55,225.25,236.47,226.64,236.39,228.06Z"/><path class="cls-1" d="M236.59,224.15l0-.14c.25-4.38.42-7.42.49-8.73C237.05,216.4,236.89,219.07,236.59,224.15Z"/><path class="cls-1" d="M236.33,229.08c0-.38,0-.65.06-1A3.87,3.87,0,0,0,236.33,229.08Z"/><path class="cls-1" d="M251.16,231.34c-3.85,4.55-13.12,12.95-3.91,5.12,1.46-1.59.88-1.24.75-1.28S248.18,234.69,251.16,231.34Z"/><path class="cls-1" d="M235.53,234.07l-.18,2.73a23.89,23.89,0,0,0,0,2.54c0,.43,0,.86.08,1.3l.1,1.11.15,1.44c0-.11.07-.44.13-.56s.14,0,.27.54l-.23-1.22-.06-.32,0-.19,0-.35q-.09-.69-.15-1.38a22.58,22.58,0,0,1-.11-2.71Z"/><polygon class="cls-1" points="235.68 228.72 235.53 234.07 235.78 230.03 235.68 228.72"/><path class="cls-1" d="M239.36,176.42c.07-4.73.33-9.89.62-15.72-.42,6.24-.82,12.7-1.15,18.83C238.91,180.4,239,183.11,239.36,176.42Z"/><path class="cls-1" d="M238,199.61c0-.32,0-.74,0-1.05C237.94,199.21,237.9,199.72,238,199.61Z"/><path class="cls-1" d="M226,106.8l1,.3h.25C226.87,107,226.45,106.9,226,106.8Z"/><path class="cls-1" d="M238.69,180.57c-.34,4.69-.38,7.5-.4,10.18.17-3.51.35-7.23.54-11.22C238.79,179.14,238.75,179.06,238.69,180.57Z"/><path class="cls-1" d="M241.44,141.73c-.2,2.44-.43,5.21-.67,8.12C241,147.47,241.51,142.6,241.44,141.73Z"/><path class="cls-1" d="M238.21,197c0,.23,0,.45,0,.7C238.37,196.16,238.31,196.35,238.21,197Z"/><path class="cls-1" d="M238.21,197c.07-2.42.07-4.32.08-6.24-.12,2.86-.22,5.51-.28,7.81C238.07,198,238.15,197.4,238.21,197Z"/><path class="cls-1" d="M208.43,110.82a10.5,10.5,0,0,1,2.43-.87,38.55,38.55,0,0,1,5.54-1.16,27.59,27.59,0,0,1,7.52-.1,18.38,18.38,0,0,1,4,1,14,14,0,0,1,3.51,2A25.9,25.9,0,0,1,235,115c.53.5.63.26.37-.56a11.17,11.17,0,0,0-.78-1.57,13.08,13.08,0,0,0-1.62-2,15.18,15.18,0,0,0-6-3.69c-.2.05-.31.09-1.84-.13a34.47,34.47,0,0,0-10.05.34,47.81,47.81,0,0,1,5.42-.22,23.17,23.17,0,0,1,7.4,1.29,13.88,13.88,0,0,1,4.34,2.54c.5.56.15.17-2-1a16.24,16.24,0,0,0-4.58-1.62,23.44,23.44,0,0,0-3.44-.45c-1-.08-1.76,0-2.45-.07l-1.78,0a43.56,43.56,0,0,0-6.7.65c3-.3-1.55.61-6.2,2.26-1.18.38-2.34.84-3.43,1.24s-2.07.86-2.86,1.21c-1.59.71-2.41,1.16-1.61,1.07a116,116,0,0,1,11.87-4C209.38,110.28,205,111.6,208.43,110.82Z"/><path class="cls-1" d="M240.42,124.31c.27,1.54.48,3.08.6,4.62a51.49,51.49,0,0,0-1-7.43,30,30,0,0,0-1.13-4,20.71,20.71,0,0,0-2.34-4.62,15.32,15.32,0,0,0-4-3.66,12,12,0,0,0-1.64-.93,8.33,8.33,0,0,0-1.3-.56,8.56,8.56,0,0,0-1.66-.5,5.78,5.78,0,0,0-.74-.13,16.34,16.34,0,0,1,9.88,7.51,29.49,29.49,0,0,1,3.57,11.27Z"/><path class="cls-1" d="M240.54,149.19c-.12-1.75-.08-5.29-.11-7.58s-.15-3.37-.55-.09c-.68,13-.14,9.15-.38,16.95,1-21-.09,6.05,1-9.13-.15,4.14-.33,7.86-.5,11.36.27-3.78.54-7.42.79-10.85,0,.19,0,.32-.06.48v.07c-.11.91-.16,1.2-.07.18,0-.07,0-.32,0-.44a5.59,5.59,0,0,1-.11-.95c.42-6.09.17-1,.11.95,0,.08,0,.24.06.26v-.07l.46-10.56a85.39,85.39,0,0,0-.15-10.84c.15,2.31.2,4.91.1,8.17S240.78,144.23,240.54,149.19Z"/><path class="cls-1" d="M239.43,244.5c-.51.35-.5.3-.55.3C237.9,245.64,237.48,246,239.43,244.5Z"/><path class="cls-1" d="M234.54,245.54c.09.56.2,1,.31,1.76v.12l0,0,.16-.14.37-.28.85-.64,2.32-1.77c3.09-2.29.08.21.27.23l.93-.79,1.1-1c.74-.64,1.41-1.28,1.79-1.66.75-.78.34-.48-3.33,2.38l-.92.79c-.56.43-1.15.84-1.73,1.24-.28.2-.58.39-.86.58l-.43.28-.21.14-.11.07s0-.09,0-.14c-.2-3-.47-5.17-.44-7.82.07-2.24.35-3.65.31-3.05a20.82,20.82,0,0,0-.56,3.83q0,.57,0,1.23c0,.41,0,.85,0,1.32C234.41,243.1,234.47,244.17,234.54,245.54Z"/><path class="cls-1" d="M236.88,197l.74-17.55-.86,8.91.25-.44C236.38,197.91,236.77,195.77,236.88,197Z"/><path class="cls-1" d="M223.85,106.22a22,22,0,0,1,2.69,0,24,24,0,0,0-5.7-.31,38,38,0,0,0-5.39.67A34.41,34.41,0,0,1,223.85,106.22Z"/><path class="cls-1" d="M200.42,110.21c.23-.22.45-.45.68-.66l-5.67,2.27Z"/><path class="cls-1" d="M368.48,481c.44.7.85,1.42,1.33,2.1l1.42,2-1.68-2.43Z"/><path class="cls-1" d="M360.11,446.36l-.17-.9C360,447.15,360.06,447.84,360.11,446.36Z"/><path class="cls-1" d="M44.71,574.87c3.74-.62,7.72-1.18,10.62-1.71s4.75-1,4.25-1.08l-2.36.12c-2.56.69-4.85,1.16-6.91,1.58S46.41,574.56,44.71,574.87Z"/><path class="cls-1" d="M235.19,305.91c-.44.57-.86,1.19-1.26,1.83a26.35,26.35,0,0,0-1.63,4.82A26.8,26.8,0,0,1,235.19,305.91Z"/><path class="cls-1" d="M237.22,300.6c1.15-1.24,2.36-2.38,3.54-3.57l3.63-3.44C242.73,295.11,240.37,297.27,237.22,300.6Z"/><path class="cls-1" d="M546.06,569.7c1.93.25,3.85.42,5.73.48-4.39-.53-5.67-.9-5.9-.83S546.43,569.66,546.06,569.7Z"/><path class="cls-1" d="M40.22,274l-2,4.21-.92,1.95-.8,1.9-2.85,6.84c1.6-3.6,3-6.85,4.23-9.41A39.87,39.87,0,0,0,40.22,274Z"/><path class="cls-1" d="M358.45,469.34l.67,2c.23.55.41,1,.56,1.33.3.68.45,1,.48.91-.31-.78-.59-1.47-.82-2.07s-.4-1.1-.53-1.48C358.53,469.26,358.4,469,358.45,469.34Z"/><path class="cls-1" d="M27,306.57c.43-1.07.84-2.12,1.28-3.21,1.6-4.49,3.06-9.07,5.34-14.44l-1.8,4.13c-.59,1.42-1.13,2.9-1.69,4.39C29.06,300.43,28,303.52,27,306.57Z"/><path class="cls-1" d="M353.56,250.05l-2.1-1.85A16.43,16.43,0,0,0,353.56,250.05Z"/><path class="cls-1" d="M314.39,48.73c0,2.12,0,5.58,0,8.84C314.44,56,314.43,53.32,314.39,48.73Z"/><path class="cls-1" d="M121,157.22c3.62-3.29.55-.55,0,0Z"/><path class="cls-1" d="M140.41,143.42a6.74,6.74,0,0,0-1.42,1.35A9.08,9.08,0,0,1,140.41,143.42Z"/><path class="cls-1" d="M16.21,353.76c0,.14-.05.25-.09.41C16.52,352.78,16.45,353,16.21,353.76Z"/><path class="cls-1" d="M126.68,152.48c-1.46,1.12-3,2.55-4.77,4.05C122.7,155.9,124.1,154.61,126.68,152.48Z"/><path class="cls-1" d="M125.78,153l3.31-2.71C129.52,149.79,129.07,150.11,125.78,153Z"/><path class="cls-1" d="M116.09,161.9l2.93-2.81,2.89-2.56c-.73.62-1,.87-.87.69l-2,1.81Z"/><path class="cls-1" d="M539.88,260.69l-.45-.94C537,255.54,538,257.42,539.88,260.69Z"/><path class="cls-1" d="M161.25,527.61l-.48.27.64-.32Z"/><path class="cls-1" d="M176.34,519.08c-3.1,2-5.58,3.51-7.91,4.83s-4.52,2.39-7,3.65l5.66-1.57Z"/><path class="cls-1" d="M438.92,531.52c-3.58-1.9-7.19-3.75-10.72-5.73,13.37,6,23,10.52,12.85,5.25-1.06.24-11.74-4.8-22.16-10.33-2.61-1.37-5.22-2.75-7.65-4.09L404.51,513c-4-2.18-6.8-3.6-7.34-3.52a62.84,62.84,0,0,1-6.25-4.57c1.77,1.35,2.11,1.49,3.91,2.72-3-2.21-5-3.88-6.66-5.16s-2.89-2.22-4.25-3.26-2.84-2.2-4.79-4c-1-.87-2-2-3.28-3.29s-2.55-2.95-4-4.95c-.51-.68-1-1.37-1.38-2l-1.16-1.83c-.66-1.15-1.16-2.12-1.5-2.76s-.46-1-.38-.93.39.55,1,1.52a60.72,60.72,0,0,1-6.22-13.73c-.58-2.13-.66-3-.55-2.72s.42,1.58,1.09,3.66a61.51,61.51,0,0,1-2.39-11.28,75.94,75.94,0,0,1-.51-11.59l0,.17c-.09-1.64-.07-4.46-.07-7.29v-7.61c.43-6.06,0,3.06.25,1.51.08-4.42.1-8.84.13-13.25.5-5.38.57,5.6.13,14.75a73.74,73.74,0,0,0,.92-13.46c0-4.54-.05-10.87.55-24.21l-.06,12.51c.95-8.05.84-17.82,1.44-32-.24,3.35-1.57,28.29-1.7,13.91.16-4.05.27-9.38.06-17.14.48-.06.42-7.63.44-17.1l.64.65c-.13-10.23-.46-9.42-.72-15.44.13-11.4.64-13.76,1.08-16.44,0-2.28,0-3.79,0-4.74a6.86,6.86,0,0,0-.07-1.36,25.61,25.61,0,0,0-.31,2.86c-.13,1.36-.26,2.62-.36,2.19a20.07,20.07,0,0,1-.11-2.11c0-.63,0-1.42,0-2.38s0-2.23-.16-3.67a22.08,22.08,0,0,0-1.14-6,12.14,12.14,0,0,0-1.5-2.93c-.17-.22-.36-.47-.53-.67l-.45-.49-.89-1c-.59-.65-1.17-1.3-1.77-1.92l-1.82-1.83c-1.2-1.23-2.45-2.38-3.71-3.56-5.08-4.69-10.64-9.34-17.68-15.1-8-7.05,1.67.9-1.12-1.7l-7.52-5.7c-1.76-1.5-1.09-1.14-.75-1-6.16-5-.94.09-10.5-7.9-1.48-.85-6.21-5.18-11.73-10.78L298.85,253l-1.07-1.11-1.49-1.62-1.55-1.67-.78-.85-.39-.42s-.07-.09-.1-.09l-.1.1-.2.21-3.24,3.38-4.67,4.72c-1.47,1.47-2.88,2.92-4.22,4.31-2.88,2.46,1.06-1.54,0-.93-7.51,7.4-10.88,10.46-13.81,13.28s-5.54,5.3-11.75,11.42c-3.75,3.24-7.48,6.51-11.14,9.87,4.12-3.62,3.74-2.9,1.29-.18-1.22,1.36-2.94,3.25-4.83,5.4-.94,1.08-1.94,2.2-2.9,3.4L236.5,304c-.47.62-.91,1.26-1.31,1.91a37.88,37.88,0,0,1,3.6-3.9c1.11-1.13,2.15-2,2.93-2.82-1.08,1.19-2.2,2.37-3.22,3.61-.52.62-1.07,1.22-1.56,1.84a23.2,23.2,0,0,0-1.35,1.94,26.44,26.44,0,0,0-3.43,8.78c-.26,1.1-.36,1.19-.35.6a16.38,16.38,0,0,1,.49-3.4,21.43,21.43,0,0,0-.71,3.45c-.36,1.68-.4,2.75-.49,3.31s-.16.61-.24.28a15.2,15.2,0,0,1,.12-5.39,27.22,27.22,0,0,1,3-6.47,26.13,26.13,0,0,1,1.65-3.12c.59-1,1.19-1.75,1.64-2.42.92-1.34,1.36-2.15.89-1.89-.4.5-1,1.23-1.72,2.09a25.56,25.56,0,0,0-2.32,3.12c.64-1.17,1.11-1.9.68-1.44a20.28,20.28,0,0,0-2.87,5.48,27,27,0,0,0-2.19,4.2l0,1.19a22.72,22.72,0,0,0-.49,3.42c0,.6-.05,1.14-.06,1.66l0,1.59L229,328l-.37,12.72c.56,18.22,1,34.08,1.94,63-.72-7.16-.89-1.53-1.52-1.9.23-4,.07-9.56-.11-16s-.33-13.87-.18-21.37c-.14,7.82-.42,6.1-.5,4.11.12,8.92.31,17.84.64,26.76-.51-.6-.3,5.69-.29,12.7.43-2.66.73,2.32,1.15,9.33.11,1.75.23,3.62.35,5.54s.29,3.87.43,5.77c.29,3.8.71,7.43.95,10.1-.15.34-.33-.1-.63-2.31s-.74-6.18-1.12-12.82c.06,3.67.23,6.7.54,9.37s.65,5,.94,7.31c.15,1.15.31,2.3.44,3.49s.14,2.42.19,3.73c0,.65,0,1.33,0,2s-.08,1.42-.12,2.17-.12,1.52-.18,2.33c0,.41-.07.82-.11,1.24s-.14.85-.22,1.28a36.22,36.22,0,0,0,.31-3.79,18.92,18.92,0,0,0,0-2.36,67.18,67.18,0,0,1-1.84,14.92c-.62,2.39-1.32,4.37-1.68,5.52s-.67,1.41-.36.39.59-2,.9-3a62.29,62.29,0,0,1-7.84,17.06A73.47,73.47,0,0,1,206.48,501c-2.62,2.26-5.34,4.19-7.84,6L195,509.33c-1.16.77-2.31,1.44-3.34,2.1a88.15,88.15,0,0,0-7.54,5,16.81,16.81,0,0,1,3-3.1c-10.53,7.26-21.27,14.24-32.28,20.85,2.67-2.19-9.63,2.15,6-6.32l-8,4L141,537.78c3.18-1.41,8.28-2.8,4-.68l-10.63,4.29c-1.22.5-2.52,1.08-4.47,1.84l-8.3,3.19c2.43-1,2.42-.6.86.4a58.64,58.64,0,0,1-8.56,4.09c1.14-.64-1-.79,1.7-2-3.09,1.49-6.22,2.86-9.35,4.24s-6.3,2.72-9.46,4c4.76-1.89.53-1.2-3.9,0,1.05-.21-3.16,1.15-8.28,2.79-2.55.84-5.38,1.6-7.86,2.36l-3.43,1-2.55.71c2.83-.63,5.61-1.43,8.42-2.16-5.55,1.66-9.71,2.82-13.14,3.88s-6.17,1.88-8.88,2.77c-1.37.43-2.73.89-4.19,1.3s-3,.83-4.74,1.27a64.42,64.42,0,0,1-13.38,2.35c1.39-.2,3-.68,2.91-1.05-.06-.16-.57-.26-1.75-.33-.59,0-1.36,0-2.3-.08l-1.57-.08-1.85-.23a23.17,23.17,0,0,1-2.38-.2l-1.53-.35c-.55-.14-1.09-.4-1.71-.62-2.4-1-4.91-3.38-6.86-6.78a52.26,52.26,0,0,1-4.72-12.14c-1.29-4.51-2.53-9.35-3.63-14.34L9,533.35,5.74,518C7,522.74,9.42,531.73,12,541.34c1.33,4.78,2.69,9.76,4.12,14.3a50.76,50.76,0,0,0,2.44,6.28,23,23,0,0,0,3.05,4.74,12.84,12.84,0,0,1-1.23-2,8.66,8.66,0,0,1-.64-1.35c-.28-.72-.42-1.1-.61-1.6a66.34,66.34,0,0,1-2.54-8.58c-.18-1.13-.14-1.28,0-.79s.47,1.58.85,2.88.87,2.82,1.34,4.22l.76,1.91c.23.58.5,1,.68,1.45a39.57,39.57,0,0,1-2.36-6.65c-.59-2.32-1.13-4.79-1.65-7.26-1-4.91-2-9.85-3-14.8-.2.73-1.48-4.92-2.68-10.61S8.2,512.06,8,512.68c2.21,10.76,4.41,21.5,6.9,32.15-.19.72-1.67-3.81-3.49-11.21S7.47,516,5.57,505.4c-.73-5.43,1.93,3.81,2.06,3.32-.36-1.35-1.39-6.35-2.39-11.25l-.18-.92L5,496.19a1.06,1.06,0,0,1,0-.25c0-.6,0-1.2,0-1.78,0-1.18,0-2.29,0-3.27,0-2,0-3.45.06-3.94l.36,9c0-.72,0-1.42,0-2.11s0-1.42,0-2.1c0-1.38,0-2.72-.06-4-.09-2.61-.17-5.13-.25-7.72-.18-5.18-.3-10.67,0-17.86,0-5,.87-14.81.47-15.67-.77,8.09-3.14,9.67-3.72,4.28,0-.87.22-7.38.44-14.39.12-3.5.24-7.13.35-10.23,0-.39,0-.77,0-1.15a5.18,5.18,0,0,1,.2-1.14c.17-.69.33-1.33.47-1.92.3-1.17.56-2.14.73-2.83,1.12-3.94.86-.86.55,2.36-.07.8-.14,1.62-.2,2.33a8.9,8.9,0,0,0,0,.92,3.17,3.17,0,0,0,.1.59c.08.41.15.61.23.48a1.56,1.56,0,0,0,.1-.43,3,3,0,0,1,.14-.67,58,58,0,0,1,.85-6.64c.6-2.55.62-2,.78-2.19s.51-1.13,1.33-6.84c-.41-2,3.31-22.75.18-5.38.71-5.48,1.1-8.4,1.68-11.52s1.24-6.48,2.31-12.88c-.28,1-.4.76-.37-.33s.24-3,.54-5.41.7-5.26,1.14-8.21,1.1-6,1.66-8.68c0,.68.8-1.7,1.16-2.85,2.65-11,5-19.43,7.57-27.58,1.18-4.09,2.61-8.06,4-12.31.73-2.11,1.4-4.31,2.23-6.57s1.69-4.6,2.6-7.08c.42-.89,1.52-3.72,2.43-5.78s1.6-3.36.93-1.3c1-2.85,1.85-5.53,4.28-11.58,2.86-5.64,1.33-2.34-.17,1.37s-3.06,7.81-.93,3.49a62.85,62.85,0,0,1,3.45-9.27l3.24-7.7c1.12-2.59,2.33-5.05,3.28-7.17a74.53,74.53,0,0,0-5.73,11.63c-1.21,2.84-2.55,5.84-3.66,8.73s-2.11,5.62-2.92,7.8c-.38-.13.67-4.05,3-10.49,1.22-3.19,2.73-7,4.48-11.32s4.05-8.94,6.39-14c8.15-15.65,4.1-6.48,5.44-9.23,1.92-3.67,3.76-6.7,5.3-9.38s2.83-5,4-7c2.38-4,4-6.88,5.63-9.64.81-1.37,1.53-2.75,2.43-4.12s1.84-2.83,2.94-4.47,2.34-3.44,3.82-5.54c.73-1.06,1.56-2.16,2.48-3.32l3-3.78c7-8.39,1.15.26,2.92-1.44-2.13,2.89-4,5.42-5.79,7.71l-4.66,6.44c-1.46,2-2.83,3.87-4.19,5.74s-2.55,3.84-3.86,5.89l3.33-5c1.12-1.64,2.34-3.23,3.5-4.85-2.58,3.76-7.49,12-10.47,16.27,1.34-1.86,3.89-5.73,7.19-10.81,1.66-2.52,3.67-5.26,5.73-8.24l3.21-4.6c1.14-1.55,2.35-3.1,3.55-4.7,9.45-12.9,21.41-26.48,30.77-35.12,1.57-1.62,3.69-3.86,5.17-5.3s2.16-2.21.71-1.05c-2,1.78-3.89,3.71-5.82,5.58-2.82,2.42-.19-.32,2.21-2.8,1.19-1.26,2.38-2.39,2.77-2.8s0-.14-1.94,1.57a178.55,178.55,0,0,1,29.67-24.26l2.73-1.07c-.18,0-2.31,1.32-4.84,2.93s-5.31,3.74-7,5.07c1.25-1,3.1-2.3,5.25-3.77s4.69-3,7.19-4.59c1.24-.81,2.54-1.53,3.8-2.27l3.61-2.17c1.13-.72,2.23-1.34,3.21-1.94s1.84-1.15,2.56-1.66l-4.79,2.41-4.7,2.61c9.11-6,20.91-12.88,33.7-17.68a40.13,40.13,0,0,0-4.85,1.65c-1.15.44-2.64,1.14-7.22,2.81,2-.66,1-.1-1.39,1-1.2.57-2.71,1.39-4.41,2.23s-3.55,1.73-5.31,2.74c-7.14,3.81-13.4,7.86-7.42,4.71-2.23,1.11-4.28,2.21-6.27,3.33s-3.85,2.4-5.82,3.66l-1.5,1-1.5,1-3.17,2.18c-2.23,1.47-4.55,3.2-7.24,5,.22,0,1.19-.67,1-.42a17.45,17.45,0,0,1-1.48,1.21c-1,.73-2.42,1.93-4.63,3.76-.36.37-1.24,1.21-1.81,1.75l-.6.48.5-.39c-.36.34-.39.38.18-.14,2.15-1.68,3.91-3,4.67-3.51-1,1-2.65,2.48-4.59,4.2s-4.1,3.8-6.33,5.82c-4.37,4.13-8.64,8.44-10.66,10.74-4.79,4.78,1.81-2.18-.92.31-2.08,2.25-4,4.62-6,6.94a17.65,17.65,0,0,0-2.21,2l-3.07,3.16c-1.67,1.71-2,1.82,3.15-4.3-3.15,3.61-6.31,7.22-9.29,11-2.83,3.17-5.83,7.18-8.82,11S77.69,207,75.7,210c-4.08,5.42-9,14.56-6.14,9.37-2,3.19-4,6.35-5.92,9.57l-5.58,9.77-.2.13c-1.45,2.36-2.69,4.87-4,7.35l-4,7.53q-1.85,3.87-3.73,7.8c-1.23,2.63-2.57,5.24-3.71,8-2.34,5.43-4.87,10.87-7.11,16.56l-3.54,8.55q-1.68,4.35-3.45,8.77c-1.28,3.51-2.37,7.15-3.71,11.37l-2.21,6.83L20,329.74,18.89,332c-.32,1.16-.69,2.45-1.08,3.85l-1.18,4.46c-.83,3.1-1.71,6.42-2.56,9.57-1.5,6.33-2.83,12-3.08,14.07-.76,2.48-1.72,6.58-2.78,11.58-.57,2.49-1,5.24-1.52,8.12s-1,5.9-1.51,9c-.85,6.12-1.73,12.45-2.53,18.27-.46,2.83-1,5.56-1.54,8.12-.26,1.28-.51,2.52-.75,3.69-.06.3-.11.59-.17.88l-.12.59a3.25,3.25,0,0,0-.06.76c0,.59,0,1.16,0,1.72l.51.63c0,11.54.11,22.61.32,36.94l.44-.88c.19,6.17.11,14.11,0,22.95,0,2.21-.06,4.48-.1,6.79,0,.57,0,1.15,0,1.73v1.42a2.51,2.51,0,0,0,.08.67q.3,1.75.63,3.54l2.56,14.28c-.41-1.27-1.26-6.16-1.79-9.62,1.63,11.55,4,23.66,6.56,35.46q1,4.43,2,8.78c.68,2.89,1.36,5.74,2.16,8.63a44.2,44.2,0,0,0,3.28,8.34,18.65,18.65,0,0,0,6,6.89,19.31,19.31,0,0,0,7.49,2.43l1.66.18c.53.05,1.05,0,1.57.06s1,0,1.52,0l1.47-.06-1.38.12,2.28-.15c1.22-.08,2.44-.2,3.7-.34s2.54-.34,3.82-.57c-2.22.33-4.4.61-6.31.78,4.27-.47,10.26-2,16.19-3.31l2.63-.14,1.36-.34c5.86-1.22,4.62-1.34,1.44-1l4.19-1.14,3.52-1.11a60.38,60.38,0,0,0,10.3-2.6c2-.63,4.07-1.27,6-1.83a54.89,54.89,0,0,1,5.46-1.42c1.9-.79,9.11-3.3,16.12-6s13.8-5.74,15.13-6.74c.24,0,1.91-.6-1.12.64,3.17-1.19,6.27-2.54,9.3-3.82s5.93-2.67,8.64-4l2.87-.64c2.18-1.14,4.32-2.37,6.48-3.55s4.32-2.37,6.44-3.62c4.09-1.85,7-3.14,7.88-3.45s-.14.49-4,2.7c9.41-5.23,13.19-7.41,16.63-9.38s6.51-3.75,14.24-8.64l-.57.8c2.8-1.7,6.41-3.89,9.7-6.08s6.21-4.35,7.93-5.37a72.07,72.07,0,0,0,13.55-12.29l2-2.44c.7-.82,1.28-1.78,1.94-2.69l1-1.41a12.26,12.26,0,0,0,.94-1.47l1.8-3.1a15.72,15.72,0,0,0,.85-1.63l.81-1.69a33,33,0,0,0,1.52-3.48c.46-1.21.92-2.42,1.38-3.65s.74-2.54,1.11-3.83a75.81,75.81,0,0,0,2.49-16.21l.13-2.08v-6.27c-.19-2.76-.32-5.6-.55-8.28-.92-10.8-1.33-21.38-1.42-30.72-.47,3.64-.5-.7-.44-6.13s.22-12-.25-12.7c.28-2.18.43-7.38.67-1.33-.29-19.07.67-28.66.06-41.86.31-2.18.35,4.09.54,2.15,0-1.53-.16-6.07,0-8.06s.2,2.8.28,5.83c.21-19.54-.7-21.53-1.48-22.95a22.5,22.5,0,0,1,1.21-6.08,29.89,29.89,0,0,1,2.05-4.71,25.79,25.79,0,0,1,2.51-3.88c1-1.24,2-2.55,3.12-3.91l2-1.81a15.57,15.57,0,0,1,1.3-1c.35-.15-.8,1-4.79,5.42.55-.63,1.42-1.56,2.53-2.7s2.46-2.48,3.95-4c3-2.93,6.67-6.34,10.24-9.58,7.11-6.49,13.72-12.45,13.75-12.93,1.7-1.31,7.12-6.36,8.39-7.65,5.66-5.17,8.69-8.06,11.62-11l1.11-1.11.54-.55.37-.39.75-.8.4-.42.2-.22c.07,0,.13-.22.21-.08l1.92,2,3.61,3.51-2.93-3c4.77,3.67,9.21,8.55,18.48,16.39l-.31-.17c10.4,9.23,12.75,11.08,15,13,1.14.94,2.27,1.87,4.39,3.7s5.23,4.59,10.17,9.3l-.77-1.36c1.25.5,5.79,4.58,10.9,10.33l1.92,2.24c.16.19.34.39.48.57a5.36,5.36,0,0,1,.38.55,7.31,7.31,0,0,1,.63,1.25,18.47,18.47,0,0,1,1.15,5.9c.06,1,.08,2.09.06,3.14s0,2.14-.05,3.2c0,2.13,0,4.21,0,6.2l.32-5.75c.27,8.7-1.56,24.29-1.73,33-.1,1.9-.13-3-.18-5.66-.74,22.84.62,3,.65,20-.36,3.13-.82-4.05-1,7.4-.3,5.7.74,33.22-.53,48.8.38-3.43.75-6.83.68,1.07-.09,3-.26,6.58-.52,10.37-.12,1.9-.26,3.87-.39,5.86s-.24,4.09-.19,6.15a57,57,0,0,0,3.81,21.56,9.77,9.77,0,0,1,.59,2.18,71.58,71.58,0,0,0,3.87,8.08,72.42,72.42,0,0,0,6.08,8.91A75.35,75.35,0,0,0,382,502.33a47,47,0,0,0,9.62,8.48c1.22.83,2.58,1.68,3.95,2.46l4.22,2.38c2.86,1.64,5.87,3.24,8.81,4.8,11.79,6.26,22.86,11.47,22.44,12.09,8.55,4.22,17.23,8.16,26,12l-.75-.15c16.76,7.3,23,9.1,29.13,11,3.93,1.54,1,.62.63.57,12.47,4.77,19.47,7,26,9s12.56,3.6,23.46,6.13l2.12,1.09c1.47.32,4.55,1.19,8.84,2.09a60.42,60.42,0,0,0,7.38,1.06,27.05,27.05,0,0,0,9.09-.7,17.2,17.2,0,0,0,4.76-2.08,17.68,17.68,0,0,0,4-3.59,30.27,30.27,0,0,0,5-9.45,75.88,75.88,0,0,0,2.63-10.16c.66-3.4,1.1-6.7,1.61-9.95a17.93,17.93,0,0,1-.27,2.87c2.29-14.55,5-32,6.47-47.25s1.88-28.26,1.1-33.67c0-3.24-.08-6.49-.15-9.73s-.13-6.47-.33-9.71c0,1.57.06,2.93.08,4.1s0,2.16,0,3c0,1.63-.07,2.61-.11,3.1-.09,1-.19.06-.3-1.33-.22-2.78-.45-7.41-.6-2.25,0-2.46-.08-5.29-.1-7.95s0-5.17,0-7c0-3.63.14-4.53.44,1.53l0,1.91c.26,1.1.36-.29.38-3s-.24-6.73-.44-10.87c-.5-8.27-1.31-17-1-16.69a430.41,430.41,0,0,0-13.5-71.95,396.25,396.25,0,0,0-25-66.35c.59,1.7,1.12,3.42,1.64,5.15-1.09-2.47-2.31-4.88-3.5-7.3s-2.36-4.84-3.6-7.24c-.93-1.91-1.47-3.23-1.11-2.81a59.49,59.49,0,0,1,4.21,7.79c-.59-1.4-1.41-3.2-2.4-5.06s-2.12-3.8-3.16-5.58-2-3.4-2.74-4.58-1.28-1.9-1.35-1.95c-11-19.78,5.12,7.25,1.7,1.22l-4.73-8.16,1,1.89-2.55-4c-.76-1.12-1.45-2.15-2.26-3.33s-1.67-2.55-2.81-4.36c-.57-.9-1.2-1.92-1.93-3.07l-2.52-3.87c-4.67-7.44-2.07-4-4-6.94a4.67,4.67,0,0,0-.58-.92l-2.42-3.45c-3.79-5.66-7.85-11.11-11.86-16.61l4.36,6.92c-1.39-1.78-2.79-3.64-4-5.3s-2.39-3.07-3.16-4c-1.55-1.94-1.73-2,.89,1.87-.95-1.43-2.39-3.45-4.19-5.9s-4-5.28-6.49-8.36a208.72,208.72,0,0,0-36.83-36.54c-1.41-1.15-2.82-2.11-4.08-3l-3.45-2.53c-2.11-1.44-3.68-2.53-4.54-3.16-1.34-.86-2.7-1.66-4.08-2.46L432.8,130l-4.24-2.34c-1.42-.78-2.84-1.61-4.34-2.34l-4.5-2.32c-1.52-.8-3.12-1.49-4.72-2.27-3.18-1.58-6.61-3-10.16-4.52,1.75.81,3.09,1.6,2.46,1.51a17.09,17.09,0,0,1-2.61-.89c-1.5-.55-3.71-1.36-6.82-2.58,2.52.24-3.13-2.14-10.84-4.62l-3-.94c-1-.32-2-.67-3.12-.92a43.71,43.71,0,0,0-6.54-1.29,29.19,29.19,0,0,0-11.45.79c1.3-.32,1.64-.36,1.29-.2a22.42,22.42,0,0,0-2.82,1.21q-.54.25-1.14.57a14.18,14.18,0,0,0-1.19.78l-1.27.9-1.2,1.13a17.83,17.83,0,0,0-2.28,2.66,11.48,11.48,0,0,0-.95,1.53c-.28.52-.61,1-.85,1.57l-.66,1.63a10.33,10.33,0,0,0-.57,1.61c-.14.54-.28,1.07-.42,1.58a10.66,10.66,0,0,0-.33,1.5c-.14,1-.28,1.88-.39,2.68s-.08,1.5-.1,2.06c-.06,2.27.07,2.39.57-1.46-.11,1.42-.23,2.5-.27,3.31s0,1.36-.05,1.73c-.05.74-.12.74-.19.66s-.17-.26-.24.14a8.18,8.18,0,0,0-.11,1.1c0,.54,0,1.3,0,2.35,2,26.35,2.91,58.14,4.91,90.73.21.5.17-5,.82,2l.05,8.63v4.22q0,1-.12,1.8c0,.46.1.88.18,1.32,0,.23.08.45.12.65l.06.34,0,.17s0,0-.05,0a7.16,7.16,0,0,1-1.57-1c-.41-.32-.92-.73-1.52-1.26l-3.51-3.05c1.22,1.16,3,2.88-.41.23-6.23-5-12.57-9.94-18.48-15.3a95.49,95.49,0,0,1-8.34-8.5,42.09,42.09,0,0,1-6.39-9.74,24.24,24.24,0,0,1-1.7-5.41,30.14,30.14,0,0,1-.22-5.77q.12-6.12.23-12.26c.13-8.18.18-16.38.22-24.58.13-32.81-.14-65.74.68-98.2-.34,8.79-.39,2.93-.39-3.79-.09,4.37-.43-.1-.67.76q.34-13.59.8-27.17c-.17-1.25-.2-3.77-.57-6.87a38.61,38.61,0,0,0-2.5-10.22,28.55,28.55,0,0,0-5.56-8.56l-1.45-1.4-1.28-1.06a10,10,0,0,0-1-.74c-.32-.21-.66-.43-.85-.53l1,.79c.3.22.58.46.87.71.56.49,1.14,1,1.66,1.5a21.73,21.73,0,0,1,1.56,1.62,21.66,21.66,0,0,1,1.43,1.74,11,11,0,0,0-1.22-1.31,5.76,5.76,0,0,0-.71-.61c-.31-.21-.3,0-.06.39a47.1,47.1,0,0,1,2.91,5.23,27.17,27.17,0,0,1,2.12,7.35,14.81,14.81,0,0,1,.16,2.5c0,.57-.09.82-.24.64a32,32,0,0,1,.67,5c.12,1.8.07,3.73,0,5.79-.1,4.1-.28,8.58-.43,13.32-.31,9.49-.53,20,.1,30.52-.19,4.64-.32-4-.53-1.48.42,5.33.52,11.77.37,23.71l-.11-1.35c.1,16.76,0,28.74-.08,41.22s-.33,25.5-.77,44.3l.52-2.77c-.2,8.08-.39,9.78-.6,13.56.25,4.64.4-1,.54-6.81s.24-11.66.57-7.43c-.3,2.68-.47,7.58-.69,13.54,0,1.49-.09,3-.14,4.65,0,.79,0,1.74,0,2.61a24.34,24.34,0,0,0,.38,2.68,26.73,26.73,0,0,0,1.62,5.22,37.44,37.44,0,0,0,2.56,4.81c3.86,6.12,8.88,11,13,14.81s7.39,6.58,8.64,7.94c9.8,7.76-2.54-2.66,7.26,5l2.41,2.27,2.7,1.64,1.45,1.19c.67.55,1.31,1.1,1.92,1.63,1.22,1,2.34,2.09,3.37,3.05l2.76,2.67,2.07,2.08a.91.91,0,0,0,.08-.13c0-.1,0-.2,0-.3s0-.36,0-.52c0-.32,0-.58,0-.8,0-.42.06-.62.11-.62,0,.45.05.95.08,1.49,0,.28,0,.56,0,.86s0,.3,0,.45a.8.8,0,0,1,0,.3c-2.27-2.08-5.25-4.71-7.19-6.42L361,257c0-.09,0-.16,0-.27l0-.42,0-.84-.09-1.7c-.07-1.15-.13-2.31-.19-3.49-.14-2.36-.27-4.76-.41-7.15-.2-3.07-.39-6.12-.57-8.92-.34-5.21-.64-9.48-.67-11l.48,11.95c-1.09-16.95-2.11-35.79-3.17-54.48-.55-9.35-1.09-18.66-1.62-27.68q-.44-6.76-.86-13.28c-.13-2.16-.31-4.32-.41-6.4l-.09-3,.15-3-.39,2.37c.19-6,1.62-10.07,3.34-12.77a14.77,14.77,0,0,1,5.84-5.29c.55-.24,1.1-.52,1.68-.75l1.9-.55a22.32,22.32,0,0,1,4.62-.57,18.91,18.91,0,0,1,2.88.07,25.53,25.53,0,0,1,3.35.42,38.08,38.08,0,0,1,3.88.84c1.39.34,2.92.85,4.55,1.32l-1-.24,4.27,1.15c1.5.44,3.08,1,4.72,1.5,3.3,1,6.72,2.41,10.22,3.75-3.28-1.1-.26.1,2.4,1.44s5.11,2.48.9.83c1.56.65,3,1.2,4.24,1.76l3.42,1.54,2.74,1.24c.81.37,1.5.73,2.13,1,2.51,1.22,3.76,1.81,4.76,2.26l3.22,1.51c1.49.73,3.76,1.77,7.64,4,1.1.84,2.22,1.64,3.29,2.5,5.19,3.17,5.91,3,16.75,11.42-9-6.7,6.49,5.84-3.62-1.6A298.18,298.18,0,0,1,476,169.16l2.21,2.28,2,2.23c1.3,1.47,2.56,2.84,3.69,4.24,2.27,2.81,4.3,5.48,6.16,8.21,2.3,2.38,2.44,2.4,1.55,1.06s-3-3.88-5.17-6.58c-1.1-1.34-2.21-2.74-3.27-4s-2.05-2.36-2.82-3.23c-1.52-1.75-2.16-2.5-.91-1.15-1.9-2.44,0-.52,3.17,2.87,1.6,1.67,3.37,3.84,5.17,6s3.56,4.25,4.95,6c2.8,3.66,5,6.91,8.12,11.62,1.54,2.37,3.34,5.1,5.6,8.39s4.83,7.26,8.1,12c-1.27-1.91-1.45-2-2.74-3.87,4.67,7.25,9.66,13.9,14.77,23.2a77.11,77.11,0,0,1,4.94,7.91c1.46,2.51,2.67,4.57,3.4,5.14-3.5-6.14-7-12.26-10.82-18.22,6.44,10.12,13,19.44,21.28,37.46-.83-1.31-3.64-6.5-5.55-10.06,1.19,2.64,2.46,5.12,3.75,7.62.64,1.25,1.29,2.5,1.91,3.8s1.2,2.64,1.77,4a24.55,24.55,0,0,1-2.41-4.33c-1.25-2.39-2.85-5.57-4.6-9.07s-3.84-7.22-5.78-10.82-4-6.9-5.74-9.62c1.36,2.79,4.6,7.93,6.72,11.9s3.57,6.49,1.67,3.84c.67,1,1.33,2,2,3.1s1.28,2.3,1.93,3.55c1.28,2.5,2.65,5.21,4,8.15s2.72,6.09,4.25,9.35,3,6.74,4.72,10.25l-.84-.76c1.09,2.22,3.09,6.93,4.75,11.17l-3.56-7.44c5.22,11.53,8.1,22.95,11.93,34.42-3.8-12.09-4.18-13.46-3.85-13.14.15.16.45.75.53.66s0-.87-.88-3.42c5.35,14.73,6.09,19.24,7.16,24.09.53,2.43.94,5,1.87,9.08.23,1,.49,2.12.77,3.35s.56,2.58.89,4.07.69,3.12,1.09,4.9.86,3.74,1.27,5.89c-.44-2.33-1.4-6.67-1.94-9.56s-.72-4.29.21-.69c1.48,6.5,2.93,15.2,3.48,19.25,3.92,22.87-.1-3.6,1.81,6.1.19,2,.41,3.66.67,5.24s.48,3.05.77,4.6c.55,3.08,1.38,6.43,2,11.49l-.47.13c.34,3.29.61,5.87.82,7.91s.31,3.54.44,4.67a24.39,24.39,0,0,0,.63,3.74,19.38,19.38,0,0,1,.57,3.26c.18,1.93.36,5.19.59,11.15l-1.21-10c.27,4.13.59,8.27.81,12.41-.2-.85-.42-1.7-.66-2.54a250.41,250.41,0,0,1,.42,30.95c.21-1.53.42-1.1.54,1.19.06,1.15.1,2.76.1,4.81s-.12,4.56-.25,7.5c-.35,4-.41,2.86-.47,2.82s-.08.22-.15,1.51-.24,3.63-.54,7.78c0-1.88,0-3.86.07-6.26s.21-5.23.61-8.84c-.12-.75-.09-3.71-.26-4.48-.34,4.3-.63,9.7-.91,14.77s-.62,9.83-.92,12.83c.27-2.31.45-5.07.64-6.48-.11,2-.17,4-.32,6l-.43,6-.45,6-.58,6c-.65,3.75-.42.74-.2-2.24-.55,4.85-.7,8.24-1.75,15.35a19.26,19.26,0,0,1-.17-2.73c0-1.4.28-3.82.79-8.87-.37,3.81-.87,7.6-1.37,11.4l-.73,5.69-.86,5.68c-.21.75-.82,3.63-1.34,6s-1,4-.77,2.58c-.65,3.05-1.37,6.43-2.44,9.84s-2.5,6.9-4.84,9.44a11.87,11.87,0,0,1-4.15,3,17.21,17.21,0,0,1-5.4,1.24,42.36,42.36,0,0,1-12.06-1.27,51.16,51.16,0,0,1-6-1.24c-7.66-2.09-14.83-4.23-22.3-6.62S501.93,556.88,493,554c-3.25-1.46-6.53-2.85-9.76-4.35-13.79-5.16,13.16,6.05-9.81-2.59-8.1-3.13-9.52-4-9.64-4.22s1.09,0-1.67-1.31A266.13,266.13,0,0,1,426,525.21C430.78,527.52,434.46,529.41,438.92,531.52Zm-77.4-140.8c.05,3.54.24,10.6-.09,13.18C361,399.86,361.27,396.75,361.52,390.72ZM229.84,332c-.13-2.63,0-6.69.19-11.27C230.05,324,230,327.77,229.84,332ZM85.55,197.18l-.21.32C80.4,203.72,82.16,201.52,85.55,197.18Zm10.37-12.81c1-1.3.9-1.26.39-.77-.69.92-3,3.84-5.67,7.08A73.85,73.85,0,0,0,95.92,184.37ZM516.2,214.6c.57.9,1.16,1.79,1.7,2.72C513.72,211.42,514.94,213,516.2,214.6Z"/><path class="cls-1" d="M236.89,301.28a5.17,5.17,0,0,1,1.22-1c.45-.55.66-.83.5-.73A16.38,16.38,0,0,0,236.89,301.28Z"/><path class="cls-1" d="M545,569.56l.53.11a3.26,3.26,0,0,0,.55,0Z"/><path class="cls-1" d="M6.48,418.39c-.75,3.29-1.21,5.1-1.53,6.3C5,424.88,5.4,423.43,6.48,418.39Z"/><path class="cls-1" d="M161.76,127.13c-1.56.85-3,1.85-4.55,2.76s-3,1.86-4.49,2.84c4.36-2.73,6-3.58,8.25-4.84-.13,0-.65.23-.78.25S160.3,127.93,161.76,127.13Z"/><path class="cls-1" d="M238.55,127.65c.22,1.51.26,3.24.36,4.74l.21-.42a40.21,40.21,0,0,0-.77-7.13c-.11-.55-.17-.68-.13-.26S238.41,126,238.55,127.65Z"/><path class="cls-1" d="M171.15,123.87a22.92,22.92,0,0,0,4.56-2c2.4-1.19,5.6-2.61,8.94-4.19l-1.19.54c.88-.71-.46-.21-2.9.89-1.22.56-2.73,1.24-4.34,2.05Z"/><path class="cls-1" d="M186.23,117c2.11-.87,4.26-1.75,6.33-2.56C193.28,113.94,190,115.47,186.23,117Z"/><path class="cls-1" d="M109.75,168.65c2.52-2.45,1.17-2,2.67-3.26,1.19-1.59-2.8,2.73-5.41,5.69a20.18,20.18,0,0,0-2,2.57C105.18,173.56,106.41,172.12,109.75,168.65Z"/><polygon class="cls-1" points="177.07 122.39 174.5 123.12 171 125.33 177.07 122.39"/><path class="cls-1" d="M128.44,153.82,133,150.1c1.52-1.24,3.11-2.38,4.66-3.58a17.65,17.65,0,0,1,2.39-2.07l-4.3,3.32-2,1.55-1.78,1.47A37.46,37.46,0,0,0,128.44,153.82Z"/><path class="cls-1" d="M140,144.45c3.05-2.22,6-4.32,7.64-5.59C146,140,142.44,142.61,140,144.45Z"/><path class="cls-1" d="M163,130c-1,.51-2,1.12-3,1.68-2.35,1.45-4.77,2.78-7.06,4.34,1.63-1.09,3.33-2.07,5-3.06S161.22,130.93,163,130Z"/><path class="cls-1" d="M52.09,253.62c-1.92,3.81-3.7,7.71-5.56,11.56-.42,1.24,1.21-1.85,3.25-6.16l2-4.4C52.35,253.43,52.63,252.79,52.09,253.62Z"/><path class="cls-1" d="M72.8,220.87c-2,2.86-2.17,3-3.36,4.55l.32.66Z"/><path class="cls-1" d="M54.09,253.1c-.1.3-.71,1.47-1.36,2.88l-1.85,4.15c-1,2.24-1.06,2.51,2.5-4.76C53.84,254.16,59.78,242.81,54.09,253.1Z"/><polygon class="cls-1" points="3.46 437.67 3.45 434.41 2.43 434.88 3.46 437.67"/><path class="cls-1" d="M55,567.33c-7.38,1.54-8.24,1.8-8.9,2.12a7.39,7.39,0,0,1-1.67.54c-.52.13-1.24.31-2.22.46s-2.25.4-3.88.54c-.84.17-.59.18.2.12.4,0,.93-.08,1.53-.15l2-.29c2.69-.43,5.44-1,3.67-.52C54.57,568.08,59.22,567,55,567.33Z"/><path class="cls-1" d="M45.69,570.15c-1.42.35-2.93.71-4.5,1C43.72,570.7,45,570.33,45.69,570.15Z"/><path class="cls-1" d="M311.63,12.34a29.76,29.76,0,0,0-6-8.74,29.33,29.33,0,0,1,4.08,5.51A26.38,26.38,0,0,1,311.63,12.34Z"/><path class="cls-1" d="M295.87.78l-2.3-.65-5.86.59C289.92.69,294.2.64,295.87.78Z"/><path class="cls-1" d="M363.08,363.58l-.16-.74c-.17,1.51-.2,3.79-.26,8.38Z"/><path class="cls-1" d="M375.84,490.21l-1.4-1.69c.74,1.16,1.43,2.37,2.22,3.51C376.35,491.44,376.1,490.82,375.84,490.21Z"/><path class="cls-1" d="M470.33,544.07c-2.09-.84-4.36-1.76-6.63-2.71s-4.55-1.85-6.61-2.79c4.53,1.91,8.05,3.56,10.33,4.62S470.76,544.64,470.33,544.07Z"/></g></g></g></svg>