<svg id="Layer_1" data-name="Layer 1" xmlns="http://www.w3.org/2000/svg" viewBox="0 0 831.4 467.72"><defs><style>.cls-1{opacity:0.9;}.cls-2{fill:#676b6d;}.cls-3{fill:#4c5151;}</style></defs><g class="cls-1"><rect class="cls-2" x="247.43" y="126.27" width="336.53" height="204.25"/><path class="cls-3" d="M245,127.53c0-1.59-.38-1-.46-1.26C244.64,128.94,245.11,127.47,245,127.53Z"/><polygon class="cls-3" points="245.95 153.89 245.78 153.43 246.2 157.31 245.95 153.89"/><path class="cls-3" d="M245.94,178.54c.72-2.33-.11-8.93.14-13.32l.17-.72-.58-2C245.76,167.85,246.14,174.79,245.94,178.54Z"/><path class="cls-3" d="M244.4,191.69c.28-.81.24,2.84.09-3.07l-.07.56C244.41,189.71,244.41,190.44,244.4,191.69Z"/><path class="cls-3" d="M244.42,189.18c0-2.6-.24,1.7,0,0Z"/><path class="cls-3" d="M244.58,201.16l-.25-3.41c-.17.71-.2,3.75-.32,2.62C244.14,203.88,244.31,203.16,244.58,201.16Z"/><path class="cls-3" d="M245.1,204.41l-.11-1.78A4.31,4.31,0,0,0,245.1,204.41Z"/><path class="cls-3" d="M244.77,198.88l.22,3.75c.12-.49.35-.54-.08-1.72C245.12,201.22,244.92,200.47,244.77,198.88Z"/><path class="cls-3" d="M244.88,196.75c.15-1.92.25-4.4.5-1C245.28,189.24,244.78,190.21,244.88,196.75Z"/><path class="cls-3" d="M246.68,179.8l.21-2.56-.24-2.22C246.77,176.13,246.46,180,246.68,179.8Z"/><path class="cls-3" d="M244.21,222.47c.15.21.4-1.15.6-1.41l-.18-2.52A21.05,21.05,0,0,1,244.21,222.47Z"/><path class="cls-3" d="M244.81,221.06l.26,3.78C245.1,221.46,245,220.85,244.81,221.06Z"/><polygon class="cls-3" points="245.89 205.02 245.34 198.81 245.9 206.21 245.89 205.02"/><polygon class="cls-3" points="244.19 236.9 243.84 234.76 244.37 238.57 244.19 236.9"/><path class="cls-3" d="M244.25,246.47c-.29-1.58-.49,2.17-.67.5,0,2.6.3,4.82.52,6.82A51.72,51.72,0,0,1,244.25,246.47Z"/><path class="cls-3" d="M244.43,257.15c-.07-1.06-.19-2.16-.33-3.36C244.17,254.92,244.27,256,244.43,257.15Z"/><path class="cls-3" d="M245,231.28a9.53,9.53,0,0,0-.43,3l.42-1.49Z"/><path class="cls-3" d="M245,232.71l0,0,0,3.22Z"/><path class="cls-3" d="M245,230.9v.38A.5.5,0,0,0,245,230.9Z"/><path class="cls-3" d="M245.5,214.92c.24,2.22.5,6.85.86,2.37C246.07,215.7,245.86,218.26,245.5,214.92Z"/><path class="cls-3" d="M245.53,229.06l.09-4c-.11.08-.27.81-.39-.29Z"/><polygon class="cls-3" points="245.66 231.02 245.53 229.06 245.49 230.54 245.66 231.02"/><path class="cls-3" d="M244.83,250.27c.19,1.73.2,3.63.23,5.77.09-2.29.13-4.67.13-6.92C245.06,248.8,244.82,247.81,244.83,250.27Z"/><path class="cls-3" d="M245,241.74l0,.38C245,241.89,245,241.7,245,241.74Z"/><path class="cls-3" d="M245.06,277.14l.08-.34-.08-.08Z"/><path class="cls-3" d="M245.27,248.73a19.17,19.17,0,0,0-.15-3.74c0,1.29.07,2.66.07,4.13C245.25,249.26,245.29,249.29,245.27,248.73Z"/><path class="cls-3" d="M244.63,263c.09-.9.17-1.92.24-3A14.41,14.41,0,0,0,244.63,263Z"/><path class="cls-3" d="M244.86,242.71l0-.26C244.75,243,244.79,242.94,244.86,242.71Z"/><path class="cls-3" d="M244.86,242.71c.06.88.16,1.58.26,2.28,0-1.05-.08-2-.15-2.87A5.74,5.74,0,0,1,244.86,242.71Z"/><path class="cls-3" d="M247.8,283.52c-.39-.3-.76-4.84-.33-8.75-.3-3.86-1.6-1.34-2.33,2,.17.12.33.12.56,4.08.22-1.39.51-8.8.87-5.45.2,5.25-.14,4.3-.35,6.86.49-2.17.72,6.68,1.44,5.54l-.25-4.61C247.52,283.13,247.7,284.8,247.8,283.52Z"/><path class="cls-3" d="M245.18,269.24l-.05-1.63c-.07,1.86-.23,3.19-.54,5.64.19,2.72.34,3.28.47,3.47l.06-8Z"/><path class="cls-3" d="M245.13,260.28c.43,1.27.61,5.19,1.08,2.79,0-4.79-.36-3.35-.55-6.22.11,7.73-.24-2.22-.48,3.37-.08-1.52-.1-2.89-.12-4.18-.05,1.4-.11,2.74-.19,4l0-.18v0h0c0-.34.08-.45,0-.07v.16a.88.88,0,0,1,.16.35c-.08,2.24-.11.35-.16-.35,0,0,0-.09-.06-.09v0l.24,7.75C245.19,266,245.18,263.92,245.13,260.28Z"/><path class="cls-3" d="M247.29,221.42c0,.24-.07.23-.1.25C247.24,222.17,247.28,222.36,247.29,221.42Z"/><path class="cls-3" d="M247,224.61a13.38,13.38,0,0,1-.19-2.86c.13-1.59.21,0,.35-.08-.12-1.1-.31-3.86-.52-.4l.06.55c-.15,3.11-.69,7.12-.75,6.57A15.23,15.23,0,0,0,247,224.61Z"/><path class="cls-3" d="M246.19,242.67l.21,6.44.37-3.28-.22.17C246.64,242.33,246.36,243.12,246.19,242.67Z"/><polygon class="cls-3" points="244.84 277.87 244.39 277.02 245.03 280.74 244.84 277.87"/><polygon class="cls-3" points="244.9 286.25 244.5 285.94 244.74 288.15 244.9 286.25"/><path class="cls-3" d="M581.59,238.49l-.11-1.89C581.51,237.5,581.55,238.07,581.59,238.49Z"/><path class="cls-3" d="M581.56,252.21l.2.34C581.65,251.91,581.57,251.65,581.56,252.21Z"/><path class="cls-3" d="M409,333c2.76.37,5.84.94,5.51.5l-.85-.43A42.12,42.12,0,0,1,409,333Z"/><path class="cls-3" d="M549.88,330.42l-.8-.13-1.87.41Z"/><path class="cls-3" d="M551.83,328.63l3.64.28C554.65,328.81,553.48,328.71,551.83,328.63Z"/><path class="cls-3" d="M581.13,163.58l-.44-2.21C580.69,164.83,580.91,163.31,581.13,163.58Z"/><path class="cls-3" d="M289,332.9c2.38.17,4.28.24,5.94.26C292.05,332.91,289.74,332.54,289,332.9Z"/><path class="cls-3" d="M586.2,243.89c-.08-1.16-.17-1.65-.27-1.62C586,243.46,586.09,244.14,586.2,243.89Z"/><path class="cls-3" d="M301.8,333.16l-1.26-.11c-1.74.08-3.49.14-5.62.11A32.94,32.94,0,0,0,301.8,333.16Z"/><path class="cls-3" d="M349.6,128.75l-.62-.06C348.92,128.75,349.2,128.76,349.6,128.75Z"/><path class="cls-3" d="M270.45,124.37c.78,0,2.05,0,3.25,0C273.11,124.31,272.13,124.31,270.45,124.37Z"/><path class="cls-3" d="M244.71,320c0-1.77-.05-.28,0,0Z"/><path class="cls-3" d="M246.43,311.32c0,.38.11.67.21.71A1.53,1.53,0,0,1,246.43,311.32Z"/><path class="cls-3" d="M319.5,330.46h.16C319.13,330.37,319.22,330.39,319.5,330.46Z"/><path class="cls-3" d="M244.91,317.29c-.06.67-.1,1.44-.13,2.27C244.81,319.2,244.85,318.51,244.91,317.29Z"/><path class="cls-3" d="M244.7,317.65l0-1.55C244.67,315.87,244.63,316.07,244.7,317.65Z"/><path class="cls-3" d="M244.73,322.44c0-1,0-2,.05-2.88,0,.35-.05.5-.07.4Z"/><path class="cls-3" d="M495.16,127.59l-.38,0C493,127.72,493.78,127.7,495.16,127.59Z"/><path class="cls-3" d="M455.2,328.51l-.2,0h.26Z"/><path class="cls-3" d="M461.58,328.18a21.45,21.45,0,0,1-6.32.36l2.11,1.25Z"/><path class="cls-3" d="M581.47,205.65l-.39,4.48c-.65-5.41-.42-9.32-1-5.11,1.36.63.14,17.42,1.49,18l-.28,3c0-.85-.07-1-.05-1.82-.65,5.74,1,4.27.78,11.67-.1,2.58-.3,4.38-.46,2.62l.34,5.75c0,1.68-.26,1.27-.24-.4l.11,8.77,0-.06c.21,1.25.54,4.08.68,5.47-.19,2.22-.14-1.12-.31-.55l.33,4.86c-.35,2-.7-2.05-.65-5.41-1.35,4.54.35,4-.45,13.82l-.17-4.58c-.77,2.95-.49,6.53-1,11.71.25-1.23,1.21-10.38,1.55-5.1a37.28,37.28,0,0,0,.12,6.28c-.48,0-.36,2.8-.34,6.28l-.64-.24c.19,3.75.52,3.46.8,5.67-.06,4.18-.56,5.05-1,6-.1,6.7.79-4.63.91,3.3a146.65,146.65,0,0,0,.4,16.16c-.22,3.9-.39-.68-.57.72l.51,3.46c0,.84-.17.57-.25.43.2,2.91.64.24.81,4.82a3.53,3.53,0,0,1,.17,1.47,17,17,0,0,1-.23,1.89l-1.59-.21-.74-.08-1.28-.07a30,30,0,0,0-5.16.19c-1.4-.19.67-.4.25-.64-7.78.52-6.67.38-13.06,1.09l-5.44-.42c4,.48-1.11,1-5.59,1.51,1.42.23,2.63.44,3.45.53l-7.14.35c-.87-.11-.15-.33,1-.6l-1.31.16c-2.55-.24-1.23-.61.6-1l2.58.4c1.76-.39,3.41-.82,3-1.19-.46.07-1.36.13-2.34.17.46-.11.76-.2.54-.27a12.08,12.08,0,0,0-2.15.24l-1.63-.71-.39.28-9.34-.44c-6.69.71-12.5,1.77-23.11,2.07,2.63-.53.57-.86.71-1.48,2.89.66,8.22-.28,13.71-.14-2.87-.07-2.23-.37-1.5-.47l-9.81.6c.22-.51-2.08-.38-4.65-.59,1.94,1-7.31.66-11.3,1-.24-.34.71-.68,5.58-.6-5.37-.75-6.94,1.18-12.21.54a8.4,8.4,0,0,0,2.3-.13c-2.78.3-9.57.06-8-.23h1.19c-7.9-.12-24,0-25.21.85-.07-.12,1-1,1.52-1.2L452,331.41c1.25-.73-3.52-2.47,3-2.88a59.23,59.23,0,0,0-8.17,0c1.28.1,3.2,1.06,1.45,1.12-4.81-.81-3.34-.43-9.27-1.13,1.92.16-.21,1.31-3.25,1.27.48-.17-.25-1.13.86-1.25l-7.56,1.12c1.89-.2.33-.95-1.36-1.27.79.22-6.53,0-8.55.09l3.21.26c-8.54-.17-8.43,1.59-16.9,1.53,1-.24,2.54-1.43-1.77-1.57a71.83,71.83,0,0,1-16.23,3.21l-1.43-.33-5.75.38c3.58-.87,13.62-2.69,19.11-3.4-3.2-.27-.89-.39-5.68-.36-1.69-.31,2.61-.47,4-.49l-11.14-.2c.5.67-8.51.68-8.09,1.24l12.1-.7c.49.67-7,1.91-14.88,1.79-2-.27,1.5-1.2,1.33-1.42a59.29,59.29,0,0,1-8.21.28l3.35-.36c-4.4-.26-7.17.89-12.45.25-1.82-.05-5.44-.87-5.75-.47,3,.77,3.55,3.14,1.57,3.71-.64-.05-9.57-.73-11.64-1.11-3-.6,4.5-1.43,1.94-1.95a9.18,9.18,0,0,1-2.45.49c-1.92-.16.79-.57-3.37-.49-.69.68-8.45-.06-2,.58-4.07.19-4.32-.15-9.1-.12,1.52.44-4.29,1.5-8.36,1.7.24-.17-.67-.4-1.12-.5-8.33-.07-12.81-.38-20.58-.38-.71-.17-4.46-.37-2.87-.66a32.52,32.52,0,0,1-4.54.37c-4.64-.59,5.34-.09,1.81-.8-.3.39-6.2.55-9.62.79,1.05.62,7.89.12,11.31-.13,0,.85-5.93,1.73-14.06,2.12-6.45.21-2.8-.54-3.92-.42-12.12-.15-10.33,1.47-20.4.86-4-.54-.18-1.07-1.06-1.46,5.25-.2,8.07.34,11.63.32l-4.38-.25a48.58,48.58,0,0,1,7.09-.16c-1.29-.19-4.64-.24-8.8-.27l-13.47-.07.07-3.69c0-1.24.07-2.41.12-3.48-.18-1.66-.36-4.53-.58-3.17l.08,3c-.44,2.72-.6-5.57-.81-1.82a106.75,106.75,0,0,1-.53-14l.61-1.05a20.92,20.92,0,0,0-.18,5.23c-.27-2.33.83-8.57,0-11.13l-.43,3.92a114.19,114.19,0,0,1-.76-13.87c-.61,2.26.07,1.14-.64,4.66.88-3.05,0,12.68.89,7.78-.83,3.61-.35,6.25-1,11,.2-.15.38-1.67.28,2.49a7.71,7.71,0,0,1,.18.91v.28l0-.23c0,.18,0,.2,0-.08a11.47,11.47,0,0,1,.31-2.12c.46,2.06.45,8.68.69,10.91-.1,2.48-.23-1-.45.32.06.44.12,1.4.18,2.17l.18,2.3a7.93,7.93,0,0,0-.31,1.86c1,.14,2.43.26,2.83.37s-.23.21-3.51.3l0-.56v.59l7.48,0a76,76,0,0,0,9.93.16c2.47.1,6.23-.5,4.08-.15l8.21-.27.08.11c8.09.05,16.67-.75,25.92.06,2.73-.11,5.55-.25,10.11-.12l.89.39c3.5-.14,10.51.39,12,0,3.78,1.05,17,.23,23.14.42l.24-.51c4.23,0,8.3-.12,13.55-.32l-.32-.45c4.54-.37,11.66.32,18.83.27a14.64,14.64,0,0,1-3.59,0c8.57,1,18.08-.74,25.85,0a27,27,0,0,1,4.69,0,3.43,3.43,0,0,0-.48,0h.8L409,333c-.81-.11-1.59-.2-2.26-.24,1.49,0,3.76-.06,6-.18l.94.49.51,0c2.18.18,1.76-.23.59-.59,1.12-.08,2.15-.17,2.94-.29,1.77.78,5.83-.26,8.24.57,1.5-.41,11.16-.31,12.35-1.16.07.11.73.17-.47.17a50.23,50.23,0,0,0,7.17,0l1.05.61,5.4-.82c3.29.37,4.65.59,1.39,1.06,7.87-.73,6.39-.27,13.08-1l-.33.39c2.4,0,6.22-.54,7.67-.22,5.35.76,26.49.11,40.23.81-2.67-1.17,6.39.52,6.93-.38.8.27,2.72.43.49.67,7-.27,10.54.44,15.38-.33.8.28-1.5.41-.79.57a12.53,12.53,0,0,1,3-.07c.72.16-1,.23-2.14.35,7.17-.05,7.89-.9,8.41-1.7a23.22,23.22,0,0,0,8.07-.2c1.26.27,3.37.54-1.08.63,2.5,0,15.3.38,15.55-.25a25,25,0,0,0,4.16,0l5.86.05h2.42l4.35,0-2.09-.1a10.85,10.85,0,0,1,2.89-.4c0-1,0-2.09.07-3.4s.09-2.5.06-4l.08.13c.56-10.2-.27-4.41.37-14.47l-.48.55c-1-.94.61-8.92.21-14.76l-.27,2.11c-.35-3.19,1.4-8.92,1.53-12.12.09-.7.14,1.1.21,2.08.61-8.39-.63-1.09-.77-7.34.34-1.15.86,1.49.92-2.72.28-2.09-1.1-12.2-.45-17.94-.26,1.27-.52,2.52-.72-.38-.09-4.45,1-12,.17-16.05.07-.56.14-.78.2-.8-.21-3.4-.35-11.05-.8-13.1,1.66-3.14-.8-21.14.73-21.07l-.09-10.46.16.27a57.43,57.43,0,0,0-.63-11.4c.1-1.54.24-.42.32-.29.31-9.77.25-10.74-.51-18.93l.49-.85c-.29-2.22.78-14.13.2-23.71a2.41,2.41,0,0,1,.22,1.05c-.14-2.71-.13-5.68,0-8.68,0-1.5.09-3,.14-4.49,0-2.26.11-4.49.16-6.64l-6.29-.1c-1.26,0-2.43,0-3.49,0a14.15,14.15,0,0,0-4.78.75l-7.11.44c9.2.14-1.37.78,2.41,1.08-3.62.11-9.35-.54-4.91-.63l.7.09c1.63-.94-11.44-.34-11.19-1-18.11,0-35.77-.47-52.73-.51l1.95.73-5.92,0c-1.55-.17-2.08-.58,2.14-.55a23.27,23.27,0,0,0-7.2.51c-8.27-.3,3.23-.85.69-.87l-3.44,0,.78.09a42.25,42.25,0,0,1-8.12.58c-3.21-.15-1.64-.45-2.91-.48a6.54,6.54,0,0,0-1.94,0l-7.45-.06,3,.57c-3.31.29-7,0-3.57.63-5.05-1-27.82-.36-30.92-.68a148.22,148.22,0,0,1-14.85.37c1.4.12,2.24.77-2.64.69,1.79-1.34-8.94-.59-12.88-1.55,3.52.64-13.88.16-8.35,1.07-4.07-.11-.25-.51-3.34-.82-9.69.52-21.36-.34-33.35-.16-.18.17,1.82.44-.75.7l-6.32-.88c-2.37.09-2.18,1-6.51.41.61.15,1.53.37-.06.43-23.48-.86-48,.7-71.81-.91,3.23.34,1.07.37-1.39.39,1.6.08,0,.43.28.67l-10-.66c-1.81.66-10.7,0-11.74.67l3.16-.11c-4.2.75,5.88,1.66,5.27,2.62,4.71-.85,12.41,1.25,20.13,0,1.71.19-1.45.31-.54.53a35.41,35.41,0,0,1,8.7-.31l-.49.1c12.3-.1,17.58.3,31.41.57l-1-.47a48,48,0,0,1,5,.33c3.41-.72-8.34,0-5.24-.83,3.94,1,20.95,0,23.62,1.11,4.57,0-1.34-.55,3.23-.54l1.21.29,1.15-.38c3,.06,4.51.43,4.62.68-.72,0-2.06.07-2.84.1,3.88.35,10.95-.12,12.29,0l-4.39-.18c12.47-.28,27.7.11,39.75-.49l-.91-.23c9.2-.41,7.37.25,17.47.06l-.37,0a69.07,69.07,0,0,1,7.49-.31c-2.55.26,4.8.51,1.45.8,10-.44,4.94-.35,11.53-1.18l1.52.37a38.13,38.13,0,0,1,7.48-.61c-4.14.32,3.22.57-1.41,1,10.58.81,15.72-.82,20.58.37,4.86-1-9.17-.57-6.44-.79-2.28-.34,4-.77,7.33-.67s5.76,1.32,14.26,1.3c-.84,0-.9.07-1.74.06,3.18.27,6.24-.35,10.14.08,2.19-.63,5.07,0,5.7-.76l-7.8.18c4.42-.2,8.57-1.13,15.86-.68a40.14,40.14,0,0,1-4.23.49c2.14.23,4.11-.16,6.32.08-.63.79-9.49.17-14.23.78,2.29.33,9-.58,6.59.28,3.42-1.09,8.38.14,14.14-.69l-.38.47c.92-.07,2.81-.3,4.48-.29l-3,.62c4.66-.53,9,.46,13.46.17-9.37,0-2.1-.57-6.06-.92,11.56-.63,6.64,1.25,19.58,1-1.75.06-6.57-.29-3.83-.51,2.46.1,5.71.28,7.22.53,8.58-.1-1.31-.49,2.34-.78,2.91.58,4.2-.23,8-.42l0,.48c9.77.31,2.59-1,11.38-.63l-3.71.67,4.58-.17-1,.55a78.09,78.09,0,0,1,11.43-.15c-1.13-.34.64-.88,5-.89,1.47.14,1.06.26,1,.33s.09.06.56.07h2l-.59.23-.27.09-.06,0-.16,0-.33,0a13.17,13.17,0,0,1-3.26-.16c-.28.15-1.37.3-1.65.45a44.37,44.37,0,0,0,4.75.17h.82l.34,0,.66,0v.28l0-.32a1.19,1.19,0,0,1-.4-.09l.6-.11c.09.36.18.81.28,1.35l.28,3.64c-.19,1.4-.33.29-.47-.81,0,1.8.27,3,.31,5.69-.39-.68-.8-.52-1-4.27l.44,8.48c-.18.56-.47,4.34-.62,3.24-.23,4.7.76,11.52.46,17.75a14.76,14.76,0,0,1,.2,2.29c-.08,5.85-.57,11,0,18l-.7,3.94c.16,5.43.88-5.33,1.15,3.72.22,6.4-.6,2.39-.8,4.63a68.42,68.42,0,0,1,.51,14.6C581.41,209,581.52,207.47,581.47,205.65Zm.31,67c-.1-1.3-.42-3.89-.13-4.84C582.2,269.28,581.94,270.42,581.78,272.64ZM540,329.49a17,17,0,0,1,4.14.11A35.32,35.32,0,0,1,540,329.49Zm-283.66,3.36.14,0C259.39,333,258.36,332.94,256.36,332.85Zm-6.54-.21c-.95.07-.93.14-.54.2a16,16,0,0,1,2-.1c.61,0,1.31,0,2.08,0a4.14,4.14,0,0,0-1-.14c-.24,0-.52,0-.85,0Zm226.36-208.3,1.17.12C474.71,124.6,475.45,124.48,476.18,124.34Z"/><path class="cls-3" d="M551.57,328.83c.36.09.47.17.55.27C552.63,329,552.64,328.92,551.57,328.83Z"/><path class="cls-3" d="M581.21,164v-.2a.61.61,0,0,0-.09-.21Z"/><path class="cls-3" d="M343.48,328.55a17.75,17.75,0,0,1,2.38.25C345.93,328.68,345.37,328.58,343.48,328.55Z"/><path class="cls-3" d="M244.49,301.57l.13,3.85a25.42,25.42,0,0,1,.16-3.47C244.66,302,244.5,302.78,244.49,301.57Z"/><path class="cls-3" d="M247.48,268.14c-.06-.56,0-1.19-.07-1.75l-.22.16C247.2,269,247.38,270.62,247.48,268.14Z"/><path class="cls-3" d="M246.1,298c.4-.31.26-2.73.19-5.42v.47C245.72,292.27,245.91,295.14,246.1,298Z"/><path class="cls-3" d="M246.27,292c0-.83,0-1.68,0-2.49C246,289.15,246.22,290.48,246.27,292Z"/><path class="cls-3" d="M245,325.81c.11-1.28-.52-.81-.35-1.53-.13-.36-.16,0-.13.62,0,.31.05.69.09,1.08l.06.59.06.89a6.11,6.11,0,0,0,.26,1.89,5.12,5.12,0,0,0,.05-1v-1.23Z"/><polygon class="cls-3" points="247.43 295.82 246.93 296.79 247.34 298.3 247.43 295.82"/><path class="cls-3" d="M247.06,317.12l.14-4.31c-.08.07-.13-.48-.17-1.15A51.65,51.65,0,0,0,247.06,317.12Z"/><path class="cls-3" d="M247,311.66c0-1.39,0-2.7-.08-3.47C247,308.94,247,310.55,247,311.66Z"/><polygon class="cls-3" points="247.58 301.71 247.48 302.99 247.44 306.03 247.58 301.71"/><path class="cls-3" d="M280.37,331l4.71-.15c.48-.17-.8-.27-2.56-.2C281.4,330.76,279.65,330.82,280.37,331Z"/><path class="cls-3" d="M266.15,329.62a8.5,8.5,0,0,1,2.07.38l.14-.62Z"/><path class="cls-3" d="M279.87,329.47c.46-.17,6.82-.49.86-.46C280.25,329.19,275.54,329.33,279.87,329.47Z"/><polygon class="cls-3" points="350.75 330.26 349.56 330.26 349.73 331.28 350.75 330.26"/><path class="cls-3" d="M413.23,327.82c-5.58-.24-1.33.63-6.36.32-1.31.24,4.11.25,2.77.46C413,328.35,414.77,328.49,413.23,327.82Z"/><path class="cls-3" d="M409.64,328.6l-1.72.15C408.9,328.69,409.36,328.64,409.64,328.6Z"/><polygon class="cls-3" points="257.31 123.82 253.73 123.61 256.04 123.95 257.31 123.82"/><path class="cls-3" d="M250.43,124.58l-.84-.65-2.16.59A16.31,16.31,0,0,1,250.43,124.58Z"/><path class="cls-3" d="M580.47,282.6l.16.27a13.7,13.7,0,0,0,.21-3.08Z"/><polygon class="cls-3" points="580.96 233.98 580.94 234.81 581.53 233.25 580.96 233.98"/><path class="cls-3" d="M580.21,193.17c0,1.67.1,3.63.08,5.3C580.18,194.84,580.94,192.72,580.21,193.17Z"/></g></svg>