<svg id="Camada_1" data-name="Camada 1" xmlns="http://www.w3.org/2000/svg" viewBox="0 0 173.44 7.72"><defs><style>.cls-1{fill:#b2b5b7;}</style></defs><path class="cls-1" d="M.2,6.29c-.25,0-.16.39-.2.46C.43,6.66.19,6.18.2,6.29Z"/><polygon class="cls-1" points="4.43 5.34 4.35 5.51 4.98 5.09 4.43 5.34"/><path class="cls-1" d="M8.38,5.35C8,4.64,7,5.46,6.25,5.21l-.12-.16-.32.57A8.51,8.51,0,0,1,8.38,5.35Z"/><path class="cls-1" d="M10.49,6.89c-.13-.27.46-.24-.49-.08l.09.07A1.88,1.88,0,0,1,10.49,6.89Z"/><path class="cls-1" d="M10.09,6.88c-.42,0,.27.23,0,0Z"/><path class="cls-1" d="M12,6.72,11.46,7c.12.16.6.2.42.32C12.44,7.15,12.33,7,12,6.72Z"/><path class="cls-1" d="M12.53,6.2l-.28.1C12.29,6.37,12.37,6.39,12.53,6.2Z"/><path class="cls-1" d="M11.64,6.52l.61-.22c-.08-.11-.09-.34-.28.08C12,6.17,11.9,6.37,11.64,6.52Z"/><path class="cls-1" d="M11.3,6.41c-.31-.15-.7-.25-.15-.5C10.1,6,10.25,6.51,11.3,6.41Z"/><path class="cls-1" d="M8.58,4.61,8.17,4.4l-.35.24C8,4.52,8.61,4.83,8.58,4.61Z"/><path class="cls-1" d="M15.43,7.09c0-.15-.19-.41-.23-.6l-.41.17C15,6.77,15.4,6.86,15.43,7.09Z"/><path class="cls-1" d="M15.2,6.49l.61-.26C15.26,6.2,15.17,6.32,15.2,6.49Z"/><polygon class="cls-1" points="12.63 5.4 11.63 5.95 12.82 5.4 12.63 5.4"/><polygon class="cls-1" points="17.74 7.11 17.4 7.46 18.01 6.93 17.74 7.11"/><path class="cls-1" d="M19.27,7c-.25.3.35.5.08.68a2.68,2.68,0,0,0,1.1-.53A1.4,1.4,0,0,1,19.27,7Z"/><path class="cls-1" d="M21,6.86a3.27,3.27,0,0,0-.54.33A1.57,1.57,0,0,0,21,6.86Z"/><path class="cls-1" d="M16.84,6.3a.77.77,0,0,0,.47.44l-.23-.43Z"/><path class="cls-1" d="M17.07,6.3h0l.51,0Z"/><path class="cls-1" d="M16.78,6.3h.06S16.8,6.25,16.78,6.3Z"/><path class="cls-1" d="M14.22,5.79c.35-.24,1.09-.49.38-.86C14.34,5.22,14.75,5.43,14.22,5.79Z"/><path class="cls-1" d="M16.48,5.77l-.64-.1c0,.11.13.28-.05.39Z"/><polygon class="cls-1" points="16.8 5.63 16.48 5.77 16.72 5.8 16.8 5.63"/><path class="cls-1" d="M19.88,6.46a1.94,1.94,0,0,1,.93-.23A5.33,5.33,0,0,0,19.7,6.1C19.65,6.24,19.49,6.48,19.88,6.46Z"/><path class="cls-1" d="M18.52,6.34l.06,0S18.51,6.27,18.52,6.34Z"/><path class="cls-1" d="M24.19,6.23l-.05-.07a.64.64,0,0,0,0,.07Z"/><path class="cls-1" d="M19.64,6a.57.57,0,0,0-.6.16,3.31,3.31,0,0,1,.66-.08C19.72,6,19.73,6,19.64,6Z"/><path class="cls-1" d="M21.93,6.66a3.05,3.05,0,0,0-.48-.23C21.59,6.56,21.88,6.77,21.93,6.66Z"/><path class="cls-1" d="M18.67,6.44l0,0C18.72,6.55,18.71,6.5,18.67,6.44Z"/><path class="cls-1" d="M18.67,6.44A1.64,1.64,0,0,0,19,6.18a1.91,1.91,0,0,0-.46.14A.54.54,0,0,1,18.67,6.44Z"/><path class="cls-1" d="M25.22,3.49c0,.4-.78.76-1.41.34-.62.29-.21,1.6.33,2.33,0-.18,0-.34.65-.57-.22-.22-1.41-.51-.87-.86.84-.21.69.14,1.1.34-.35-.49,1.07-.71.89-1.44l-.74.26C25.15,3.77,25.42,3.59,25.22,3.49Z"/><path class="cls-1" d="M22.93,6.12l-.27,0a2.31,2.31,0,0,1,.91.54c.43-.19.53-.34.55-.47l-1.28-.06Z"/><path class="cls-1" d="M21.49,6.17c.2-.43.83-.62.45-1.08-.77,0-.54.36-1,.54,1.24-.1-.36.24.54.49a3.46,3.46,0,0,1-.67.11,4.34,4.34,0,0,1,.64.2l0,0h0c-.06-.06-.07-.09,0-.06h0a.44.44,0,0,1,.06-.16c.36.09.06.11-.06.16s0,0,0,.07h0l1.24-.24A4.1,4.1,0,0,0,21.49,6.17Z"/><path class="cls-1" d="M15.26,4s0,.07,0,.1S15.41,4,15.26,4Z"/><path class="cls-1" d="M15.77,4.26c-.09.06-.17.24-.46.19s0-.2,0-.35c-.18.12-.62.31-.07.52l.09-.06c.5.15,1.14.69,1.06.75A3.18,3.18,0,0,0,15.77,4.26Z"/><path class="cls-1" d="M18.66,5.11l1-.22-.53-.37,0,.23C18.61,4.66,18.74,4.93,18.66,5.11Z"/><polygon class="cls-1" points="24.31 6.45 24.17 6.9 24.77 6.26 24.31 6.45"/><polygon class="cls-1" points="25.65 6.39 25.6 6.79 25.96 6.55 25.65 6.39"/><path class="cls-1" d="M101.48,1.48l.3-.11A1.2,1.2,0,0,0,101.48,1.48Z"/><path class="cls-1" d="M99.28,1.46l-.06.19C99.32,1.54,99.37,1.46,99.28,1.46Z"/><path class="cls-1" d="M58.65,6.35c.45.37.94.94.89.5l-.14-.44A1.08,1.08,0,0,1,58.65,6.35Z"/><path class="cls-1" d="M81.25,3.76l-.13-.13c-.1.15-.21.28-.3.41Z"/><path class="cls-1" d="M81.56,2l.59.28A2.33,2.33,0,0,0,81.56,2Z"/><path class="cls-1" d="M113.49,1l.35-.44C113.29.58,113.53.81,113.49,1Z"/><path class="cls-1" d="M39.42,6.23a3.09,3.09,0,0,0,.95.27C39.91,6.25,39.54,5.87,39.42,6.23Z"/><path class="cls-1" d="M100.61,6.09c.19-.08.27-.17.26-.27C100.68,5.9,100.57,6,100.61,6.09Z"/><path class="cls-1" d="M41.47,6.49l-.2-.1a2.85,2.85,0,0,1-.9.11A.92.92,0,0,0,41.47,6.49Z"/><path class="cls-1" d="M157.05,1.38l.1.05C157.16,1.38,157.12,1.37,157.05,1.38Z"/><path class="cls-1" d="M169.75,5.76a2.75,2.75,0,0,1-.53,0A1.12,1.12,0,0,0,169.75,5.76Z"/><path class="cls-1" d="M31.06,6.58c-.29,0,0,0,0,0Z"/><path class="cls-1" d="M29.67,4.87a.3.3,0,0,0,.12-.21A.42.42,0,0,1,29.67,4.87Z"/><path class="cls-1" d="M44.31,3.79h0C44.25,3.71,44.26,3.73,44.31,3.79Z"/><path class="cls-1" d="M30.63,6.39a1.79,1.79,0,0,0,.37.12A1.94,1.94,0,0,0,30.63,6.39Z"/><path class="cls-1" d="M30.69,6.59l-.25,0C30.4,6.62,30.44,6.67,30.69,6.59Z"/><path class="cls-1" d="M31.46,6.56a1.36,1.36,0,0,1-.46,0c.05,0,.08.06.06.07Z"/><path class="cls-1" d="M133.71,2.54l.06,0C134.06,2.4,133.93,2.43,133.71,2.54Z"/><path class="cls-1" d="M66.07,1.84l0,0,0,0Z"/><path class="cls-1" d="M67.09,1.52c-.43.54-.68.47-1,.36l.34,1.25Z"/><path class="cls-1" d="M106.74,1.36,106,1c.87-.64,1.5-.42.82-1-.1,1.36-2.79.14-2.89,1.5l-.47-.29c.13,0,.15-.07.29-.05-.92-.65-.69,1-1.87.79-.42-.11-.71-.31-.42-.47l-.93.34c-.27,0-.2-.26.07-.24l-1.41.11v0a5.6,5.6,0,0,1-.88.68c-.35-.19.18-.14.09-.31l-.78.33c-.31-.35.33-.69.87-.64-.73-1.36-.65.34-2.22-.45L97,1.08C96.57.31,96,.59,95.16.11c.2.25,1.66,1.21.82,1.55a1,1,0,0,0-1,.12c0-.48-.45-.36-1-.33l0-.64c-.6.18-.55.51-.91.79-.67-.06-.81-.55-1-1-1.08-.1.74.79-.53.91a4,4,0,0,0-2.6.4c-.62-.22.11-.39-.11-.57l-.56.51c-.13,0-.09-.17-.06-.25-.47.2,0,.64-.78.81-.2.71-1.51-1-2.42-.23-.22-.18.11-.39,0-.64A7.37,7.37,0,0,0,83,2.66l-.87-.42c.64.48-.18,1-.9,1.52.23.23.42.43.55.53l-1.14.34c-.14-.1,0-.32.16-.59l-.21.16c-.41-.24-.19-.61.1-1,.14.13.28.26.41.4a1.8,1.8,0,0,0,.49-1.2.8.8,0,0,1-.37.18c.07-.11.12-.2.08-.27s-.16.08-.34.24l-.26-.71-.07.28L79.16,1.7c-1.08.72-2,1.78-3.71,2.07.42-.52.09-.85.11-1.47C76,3,76.88,2,77.76,2.15c-.46-.07-.36-.36-.24-.46L76,2.28c0-.5-.34-.38-.75-.59.31,1-1.17.67-1.81,1,0-.34.12-.68.9-.6-.87-.75-1.12,1.18-2,.53.19,0,.29,0,.37-.12-.45.3-1.54.06-1.28-.23h.19c-1.27-.12-3.85,0-4,.84a6.43,6.43,0,0,1,.24-1.19L65.55,4.75C65.75,4,65,2.28,66,1.86a1.65,1.65,0,0,0-1.31,0C64.93,2,65.24,3,65,3c-.77-.81-.54-.44-1.49-1.13.31.16,0,1.3-.52,1.27.08-.17,0-1.13.14-1.25L61.88,3c.3-.2,0-.95-.22-1.27.13.22-1,0-1.37.09l.51.26c-1.37-.17-1.35,1.58-2.71,1.52.17-.23.41-1.43-.28-1.57-.32.58-1.4,2.77-2.6,3.22L55,5l-.92.37a21.14,21.14,0,0,1,3.06-3.4c-.51-.26-.14-.39-.91-.36-.27-.3.42-.46.64-.48L55.07.88c.08.67-1.37.67-1.3,1.23l1.94-.69c.08.67-1.12,1.9-2.39,1.79-.32-.27.24-1.2.22-1.42-.17.23-1.2.44-1.32.27l.54-.36c-.71-.25-1.15.9-2,.25-.29,0-.87-.86-.92-.46a6,6,0,0,1,.25,3.71,9.64,9.64,0,0,1-1.87-1.11c-.48-.6.73-1.43.32-1.95,0,.18-.29.41-.4.48-.3-.15.13-.57-.54-.48-.11.68-1.35-.06-.31.57-.65.2-.7-.14-1.46-.11.24.44-.69,1.5-1.34,1.7a.79.79,0,0,0-.18-.51C43,3.73,42.26,3.42,41,3.42c-.12-.17-.72-.37-.46-.66a1.23,1.23,0,0,1-.73.37c-.74-.59.86-.09.29-.8,0,.39-1,.54-1.54.79.17.61,1.26.12,1.81-.13,0,.84-1,1.73-2.25,2.12-1,.21-.45-.55-.63-.43-2-.14-1.66,1.48-3.27.87-.64-.54,0-1.07-.17-1.46.84-.2,1.29.34,1.86.32l-.7-.25A1.35,1.35,0,0,1,36.36,4c-.54-.49-3.29-.1-4.79-.54-.27.18-.73.37-.51.58L31.54,4c.43.43-.9.6-.3.8A3.13,3.13,0,0,1,29,5.31l-.17-.62c0,.18.59.37.84.18-.38.27-1.38-.83-1.79,0l.63.42c-.64.31-1.43,1-2.22.77.36.6.18-.07.75.64-.49-.89,2,0,1.24-.89.58.82,1,.34,1.76,1,0-.21-.27-.39.4-.29a.65.65,0,0,1,.15-.18l0,0,0,0s0,0,0,0a.79.79,0,0,1-.34-.3c.33-.47,1.39-.45,1.75-.69.4.09-.16.23.05.44l.54-.36c.05.45,1.05.75.12,1l.84,0a2,2,0,0,0,1.59.17c.39.09,1-.5.65-.15l1.32-.28v.11c1.3.06,2.67-.74,4.16.07a3.37,3.37,0,0,1,1.62-.12l.14.39c.56-.14,1.69.38,1.93,0,.6,1.05,2.72.23,3.71.41l0-.5a8.26,8.26,0,0,0,2.17-.32l-.05-.45c.73-.37,1.87.32,3,.27-.08.17-.37.13-.58,0,1.38,1,2.9-.73,4.15,0a.72.72,0,0,1,.75,0l-.08,0h.13c.14.08.28.17.43.24a1.32,1.32,0,0,0-.36-.24,4.14,4.14,0,0,0,1-.18l.15.48h.08c.35.18.28-.23.1-.59a2,2,0,0,0,.47-.29c.28.78.93-.26,1.32.57.24-.41,1.79-.31,2-1.16,0,.11.12.16-.08.17a1.36,1.36,0,0,0,1.15,0l.17.61.87-.83c.53.38.74.59.22,1.07,1.26-.73,1-.28,2.1-1l0,.4c.38,0,1-.55,1.23-.22.85.75,4.24.11,6.45.81-.43-1.17,1,.52,1.11-.39.13.28.43.44.08.67,1.12-.27,1.69.44,2.46-.32.13.28-.24.4-.12.57.09-.06.35-.24.47-.08s-.16.23-.34.35c1.15,0,1.26-.89,1.35-1.69.58.38.87.33,1.29-.2.2.26.54.54-.17.63.4,0,2.45.38,2.49-.26.13.17.56.05.67,0a11.59,11.59,0,0,0,1.86,0l-.24-.1c.35-.77.73-.17,1.45-.27l0,.08c1.63.56.7-.26,2.32.37L90,4.79c.15-1,1.43.61,2.36.21L92,4.73c.51-.35,1.43,1.4,1.94,1.53.11.09-.18.15-.33.21,1.34.61.17-.63,1.17-.77.19.34-.23.86.44.92.34.28,2-1.1,2.88-.45-.21-.26-.41-.52.06-.71.71-.1,1.93,1,2.57.16a.28.28,0,0,1,.13.2c.55-.21,1.77-.35,2.1-.8.5,1.66,3.39-.8,3.38.73L108,5.66l0,.16a1.93,1.93,0,0,0,1.83-.63c.25.1.07.25,0,.33a3.1,3.1,0,0,0,3-.52l.14.49c.36-.29,2.27.78,3.8.2a.29.29,0,0,1-.17.22c1.73-.58,4.14,1.38,4.78-.43L122.58,5c-1.48-.14.22-.78-.39-1.08.58-.11,1.5.54.79.63l-.11-.09c-.27.94,1.83.34,1.79,1,2.9-.05,5.74.47,8.46.51l-.32-.73.95,0c.25.17.34.58-.34.54.35.42,1.13-.34,1.15-.5,1.33.29-.51.85-.11.87l.55-.06-.12-.08c.45-.3.49-.62,1.3-.58.52.15.26.45.47.48,0,0,.06.07.31,0l1.19.06-.47-.58c.53-.28,1.12,0,.57-.62.81,1,4.46.36,5,.68a4,4,0,0,1,2.38-.37c-.23-.12-.36-.77.42-.69-.29,1.34,1.43.58,2.07,1.55-.57-.64,2.22-.16,1.34-1.07.65.11,0,.5.53.82,1.55-.52,3.43.34,5.35.16,0-.17-.29-.44.12-.7l1,.87c.38-.08.35-1,1-.4-.1-.15-.25-.37,0-.43,3.76.86,7.69-.7,11.51.91-.52-.34-.17-.37.22-.39-.25-.08,0-.43,0-.67l1.6.66c.29-.66,1.72,0,1.88-.67l-.5.11c.67-.75-.95-1.66-.85-2.62-.75.85-2-1.25-3.23,0-.27-.2.24-.31.09-.53-.31.41-.69.5-1.39.31l.07-.1c-2,.1-2.81-.3-5-.57l.16.47a1.68,1.68,0,0,1-.8-.33c-.54.72,1.34,0,.84.83-.63-1-3.36,0-3.78-1.11-.74,0,.21.55-.52.54l-.2-.29-.18.38a.82.82,0,0,1-.74-.69c.11,0,.33-.07.45-.09-.62-.35-1.75.12-2,0l.71.18c-2,.28-4.45-.11-6.38.49l.15.22c-1.48.42-1.18-.24-2.8,0l.06,0a2,2,0,0,1-1.21.31c.41-.26-.77-.51-.23-.8-1.6.44-.79.35-1.85,1.18l-.24-.37a1.52,1.52,0,0,1-1.2.61c.66-.32-.52-.57.23-1-1.7-.81-2.52.82-3.3-.37-.78,1,1.47.57,1,.79.37.34-.64.77-1.18.67s-.92-1.32-2.28-1.3c.13,0,.14-.07.28-.07-.51-.26-1,.36-1.63-.07-.35.62-.81,0-.91.76l1.25-.18c-.71.2-1.38,1.13-2.55.68a2,2,0,0,1,.68-.49c-.34-.23-.66.16-1-.08.1-.79,1.52-.17,2.28-.78-.37-.33-1.44.58-1.06-.28-.55,1.09-1.34-.14-2.26.69l.06-.47a1.7,1.7,0,0,1-.72.29l.48-.62c-.74.53-1.44-.46-2.15-.17,1.5,0,.33.57,1,.92-1.86.63-1.07-1.25-3.14-1,.28-.07,1.05.29.61.51A2.82,2.82,0,0,1,126.61,1c-1.37.1.21.49-.37.78-.47-.58-.68.23-1.28.42V1.72c-1.57-.31-.42,1-1.83.63l.6-.67-.74.17.16-.55a2.14,2.14,0,0,1-1.84.15c.18.34-.1.87-.79.89-.48-.29.26-.46-.72-.39.22-.3.46-.68.89-.24,0-.15.22-.3.27-.45-.51-.33-1.29-.08-1.64-.07a.71.71,0,0,1,.38.11L118.28,2c-.23-.18,0-.33.13-.47-.29.05-.49.27-.92.31.11-.39.09-.79.69-1l-1.36.44c-.09-.17-.7-.47-.52-.62-.75-.23-1.85.76-2.85.46a.58.58,0,0,1-.36.21c-.94-.09-1.77-.57-2.88,0l-.64-.7c-.87.16.86.89-.59,1.15-1,.23-.39-.6-.75-.79-.51.35-1.39,1.07-2.34.5C106.21,1.31,106.45,1.41,106.74,1.36ZM96,1.67c.21-.1.62-.41.78-.13C96.54,2.09,96.35,1.83,96,1.67ZM79.67,2.83c.16-.16.39-.08.66.1A1,1,0,0,1,79.67,2.83ZM34.18,6.19l0,0C34.67,6.35,34.51,6.28,34.18,6.19Zm-1-.21c-.1.07-.09.14,0,.2.07-.12.28-.13.53-.09C33.63,6,33.51,5.87,33.22,6Zm103.53-.19-.18-.13C137,5.53,136.87,5.65,136.75,5.79Z"/><path class="cls-1" d="M81.52,2.17a.51.51,0,0,1,.09.26C81.69,2.35,81.69,2.26,81.52,2.17Z"/><path class="cls-1" d="M113.42,1.1h0a.36.36,0,0,0,0-.09Z"/><path class="cls-1" d="M48.15,1.89a.87.87,0,0,1,.39.25C48.55,2,48.46,1.92,48.15,1.89Z"/><path class="cls-1" d="M28.11,6.8l.62-.12a.89.89,0,0,1-.56-.16C28.19,6.63,28.3,6.79,28.11,6.8Z"/><path class="cls-1" d="M22.75,3.82c-.09.05-.19,0-.28.06l0,.23C22.88,4.09,23.15,3.91,22.75,3.82Z"/><path class="cls-1" d="M27.54,5.2c-.05-.41-.44-.27-.87-.2h.08C26.62,5.57,27.08,5.38,27.54,5.2Z"/><path class="cls-1" d="M26.57,5a1.34,1.34,0,0,1-.4,0C26.12,5.26,26.33,5.08,26.57,5Z"/><path class="cls-1" d="M32,6.25c-.21-.1-.13.52-.25.35C31.52,7.12,33.12,6,32,6.25Z"/><polygon class="cls-1" points="27.19 3.86 27.34 4.36 27.59 3.96 27.19 3.86"/><path class="cls-1" d="M30.6,4.23l-.69-.14c0,.08-.07.13-.18.17C30.15,4.28,30.62,4.38,30.6,4.23Z"/><path class="cls-1" d="M29.73,4.26a1,1,0,0,0-.56.08A2.09,2.09,0,0,0,29.73,4.26Z"/><polygon class="cls-1" points="28.13 3.71 28.34 3.81 28.83 3.85 28.13 3.71"/><path class="cls-1" d="M38,4.32l.76-.14c.08-.17-.13-.28-.41-.21S37.92,4.16,38,4.32Z"/><path class="cls-1" d="M35.75,3c.21.11.22.22.34.38l0-.62Z"/><path class="cls-1" d="M38,2.81c.08-.17,1.1-.5.14-.46C38,2.52,37.26,2.67,38,2.81Z"/><polygon class="cls-1" points="49.32 3.59 49.13 3.6 49.16 4.62 49.32 3.59"/><path class="cls-1" d="M59.34,1.16c-.9-.25-.21.63-1,.32-.21.24.66.25.44.46C59.3,1.68,59.59,1.83,59.34,1.16Z"/><path class="cls-1" d="M58.76,1.94l-.27.15A.83.83,0,0,0,58.76,1.94Z"/><polygon class="cls-1" points="171.85 6.31 172.43 6.52 172.06 6.18 171.85 6.31"/><path class="cls-1" d="M173,5.55l.13.65.35-.59C173.31,5.64,173.05,5.7,173,5.55Z"/><path class="cls-1" d="M94.4.36l0,.16c.09.17.22.18.49.21Z"/><polygon class="cls-1" points="102.2 0.85 102.06 0.83 102.32 1.42 102.2 0.85"/><path class="cls-1" d="M108.74.1c-.26,0-.58.11-.85.08C108.48.07,108.81.83,108.74.1Z"/></svg>