<svg id="Camada_1" data-name="Camada 1" xmlns="http://www.w3.org/2000/svg" viewBox="0 0 173.44 7.35"><defs><style>.cls-1{fill:#7e7e7f;}</style></defs><path class="cls-1" d="M173.23,3.47l.21,0C173,3.42,173.24,3.47,173.23,3.47Z"/><polygon class="cls-1" points="169.01 3.15 169.08 3.12 168.46 3.17 169.01 3.15"/><path class="cls-1" d="M165.05,2.86c.38.31,1.44.05,2.14.2l.12,0,.31-.15C166.77,2.91,165.66,3,165.05,2.86Z"/><path class="cls-1" d="M163,1.91c.13.16-.46.06.49.11L163.35,2Z"/><path class="cls-1" d="M163.35,2c.42.05-.27-.15,0,0Z"/><path class="cls-1" d="M161.43,1.8l.54-.07c-.11-.11-.6-.2-.42-.25C161,1.48,161.11,1.6,161.43,1.8Z"/><path class="cls-1" d="M160.91,2.05l.28,0C161.14,2,161.07,2,160.91,2.05Z"/><path class="cls-1" d="M161.79,2l-.6.06c.08.08.09.22.28,0C161.42,2.12,161.54,2,161.79,2Z"/><path class="cls-1" d="M162.13,2.06c.31.13.71.21.16.3C163.34,2.4,163.18,2.14,162.13,2.06Z"/><path class="cls-1" d="M164.85,3.16l.41.11.36-.09C165.44,3.22,164.83,3.07,164.85,3.16Z"/><path class="cls-1" d="M158,1.1c0,.11.18.32.23.47l.4-.08C158.43,1.39,158,1.27,158,1.1Z"/><path class="cls-1" d="M158.24,1.57l-.61.13C158.17,1.78,158.27,1.7,158.24,1.57Z"/><path class="cls-1" d="M160.81,2.53q.49-.13,1-.24c-.39.07-.79.15-1.18.24Z"/><polygon class="cls-1" points="155.7 0.77 156.04 0.53 155.43 0.89 155.7 0.77"/><path class="cls-1" d="M154.16.62c.26-.23-.35-.5-.08-.62A2.09,2.09,0,0,0,153,.33,1.6,1.6,0,0,1,154.16.62Z"/><path class="cls-1" d="M152.45.57A2.49,2.49,0,0,0,153,.33,1.43,1.43,0,0,0,152.45.57Z"/><path class="cls-1" d="M156.6,1.53a.8.8,0,0,0-.48-.4l.24.37Z"/><path class="cls-1" d="M156.37,1.52v0l-.52-.07Z"/><path class="cls-1" d="M156.66,1.54h-.06S156.63,1.58,156.66,1.54Z"/><path class="cls-1" d="M159.22,2.16c-.36.13-1.1.28-.38.58C159.1,2.55,158.68,2.37,159.22,2.16Z"/><path class="cls-1" d="M157,2l.65.13c0-.09-.13-.22.05-.3Z"/><polygon class="cls-1" points="156.64 2.08 156.95 1.99 156.72 1.94 156.64 2.08"/><path class="cls-1" d="M153.55,1.08a1.86,1.86,0,0,1-.92.12,4.88,4.88,0,0,0,1.11.23C153.79,1.31,154,1.11,153.55,1.08Z"/><path class="cls-1" d="M154.92,1.33h-.06S154.93,1.39,154.92,1.33Z"/><polygon class="cls-1" points="149.24 1.1 149.3 1.18 149.31 1.1 149.24 1.1"/><path class="cls-1" d="M153.8,1.51a.6.6,0,0,0,.6-.08,4.84,4.84,0,0,1-.66,0C153.71,1.48,153.71,1.52,153.8,1.51Z"/><path class="cls-1" d="M151.51.66A3.11,3.11,0,0,0,152,1C151.84.8,151.56.56,151.51.66Z"/><path class="cls-1" d="M154.77,1.23h0C154.72,1.13,154.73,1.17,154.77,1.23Z"/><path class="cls-1" d="M154.77,1.23a1.1,1.1,0,0,0-.37.2,2.08,2.08,0,0,0,.46-.09A.31.31,0,0,1,154.77,1.23Z"/><path class="cls-1" d="M148.22,3.86a.9.9,0,0,1,1.4-.34c.62-.3.22-1.63-.32-2.35,0,.18,0,.35-.66.59.23.21,1.41.48.88.85-.84.22-.69-.13-1.1-.33.35.49-1.07.71-.89,1.44l.74-.26C148.28,3.58,148,3.76,148.22,3.86Z"/><path class="cls-1" d="M150.51,1.18l.26-.05a2.37,2.37,0,0,1-.9-.53c-.44.21-.53.37-.56.5.43,0,.86,0,1.29,0Z"/><path class="cls-1" d="M152,1.2c-.21.4-.84.57-.45,1.05.77,0,.54-.33,1-.48-1.24,0,.35-.2-.54-.52a3.16,3.16,0,0,1,.67-.05A4.6,4.6,0,0,1,152,1l0,0h0c0,.06.07.1,0,.06h0a.75.75,0,0,1-.05.16c-.36-.12-.06-.12.05-.16A.14.14,0,0,0,152,1h0c-.41,0-.82.08-1.24.15A5.63,5.63,0,0,0,152,1.2Z"/><path class="cls-1" d="M158.18,3.38a.07.07,0,0,1,0-.07C158.06,3.35,158,3.38,158.18,3.38Z"/><path class="cls-1" d="M157.67,3.19a.52.52,0,0,1,.46-.14c.25.11,0,.16,0,.26.17-.08.62-.21.06-.38l-.09,0c-.5-.12-1.14-.57-1.05-.61A2.24,2.24,0,0,0,157.67,3.19Z"/><path class="cls-1" d="M154.77,2.4l-1,.14.52.36,0-.2C154.83,2.79,154.7,2.55,154.77,2.4Z"/><polygon class="cls-1" points="149.13 0.89 149.26 0.42 148.67 1.09 149.13 0.89"/><polygon class="cls-1" points="147.78 0.96 147.83 0.56 147.48 0.8 147.78 0.96"/><path class="cls-1" d="M72,5.87l-.3.11A1.38,1.38,0,0,0,72,5.87Z"/><path class="cls-1" d="M74.16,5.89l0-.19C74.11,5.81,74.07,5.89,74.16,5.89Z"/><path class="cls-1" d="M114.78,1c-.44-.37-.93-.94-.88-.5l.14.44A1.06,1.06,0,0,1,114.78,1Z"/><path class="cls-1" d="M92.18,3.59l.13.13.3-.41Z"/><path class="cls-1" d="M91.87,5.39l-.58-.28A2.41,2.41,0,0,0,91.87,5.39Z"/><path class="cls-1" d="M60,6.33l-.36.44C60.15,6.77,59.9,6.54,60,6.33Z"/><path class="cls-1" d="M134,1.12a3.17,3.17,0,0,0-1-.27C133.53,1.1,133.9,1.48,134,1.12Z"/><path class="cls-1" d="M72.83,1.26c-.19.08-.27.17-.26.27C72.76,1.45,72.87,1.37,72.83,1.26Z"/><path class="cls-1" d="M132,.86l.2.1a2.85,2.85,0,0,1,.9-.11A.93.93,0,0,0,132,.86Z"/><path class="cls-1" d="M16.38,5.46l-.1,0S16.32,5.46,16.38,5.46Z"/><path class="cls-1" d="M3.69,3.11l.52-.06A4.45,4.45,0,0,0,3.69,3.11Z"/><path class="cls-1" d="M142.38.77c.28,0,0-.05,0,0Z"/><path class="cls-1" d="M143.76,2.48a.29.29,0,0,0-.11.21A.35.35,0,0,1,143.76,2.48Z"/><path class="cls-1" d="M129.13,3.56h0C129.19,3.64,129.17,3.62,129.13,3.56Z"/><path class="cls-1" d="M142.8,1a1.69,1.69,0,0,0-.36-.12A2,2,0,0,0,142.8,1Z"/><path class="cls-1" d="M142.75.76l.25,0C143,.73,143,.68,142.75.76Z"/><path class="cls-1" d="M142,.79a1.41,1.41,0,0,1,.46,0c-.06,0-.08-.06-.06-.07Z"/><path class="cls-1" d="M39.73,4.81l-.07,0C39.38,5,39.5,4.92,39.73,4.81Z"/><path class="cls-1" d="M107.37,5.51l0,0,0,0Z"/><path class="cls-1" d="M106.34,5.83c.44-.54.69-.47,1-.36L107,4.22Z"/><path class="cls-1" d="M66.69,6l.72.39c-.86.64-1.49.42-.82,1,.1-1.36,2.8-.14,2.9-1.5l.47.29c-.14,0-.16.07-.29.05.92.65.68-1,1.87-.79.41.11.7.31.42.47l.92-.34c.27,0,.21.26-.06.24l1.4-.11v0A6.71,6.71,0,0,1,75.09,5c.36.19-.18.14-.09.31L75.78,5c.32.35-.33.69-.86.64.72,1.36.64-.34,2.21.45l-.73.18c.47.77,1,.49,1.88,1C78.08,7,76.61,6,77.46,5.69a1,1,0,0,0,1-.12c0,.48.45.36,1,.33l0,.64c.61-.18.56-.51.91-.79.67.06.81.55,1,1,1.07.1-.74-.79.53-.91a4,4,0,0,0,2.59-.4c.63.22-.11.39.12.57l.55-.51c.14,0,.09.17.07.25.47-.2,0-.64.77-.81.2-.71,1.51,1,2.42.23.23.18-.11.39,0,.64a7.44,7.44,0,0,0,2.1-1.09l.87.42c-.64-.48.18-1.05.89-1.52a6.1,6.1,0,0,0-.55-.53l1.15-.34c.14.1,0,.32-.17.59l.21-.15c.41.23.2.6-.09,1l-.42-.4a1.9,1.9,0,0,0-.49,1.2.84.84,0,0,1,.38-.18c-.07.11-.12.2-.09.27s.16-.08.35-.24l.26.71.06-.28,1.5.45c1.07-.72,2-1.78,3.71-2.07-.43.52-.09.85-.12,1.47-.46-.65-1.32.28-2.2.15.46.07.36.36.24.46l1.58-.59c0,.5.33.38.74.59-.31-1,1.17-.67,1.81-1,0,.34-.11.68-.89.6.86.76,1.11-1.18,2-.53-.19,0-.3,0-.37.12.44-.3,1.53-.06,1.28.23h-.19c1.26.12,3.85,0,4-.84a7.38,7.38,0,0,1-.24,1.19l2.25-2.86c-.19.73.57,2.47-.48,2.89a1.64,1.64,0,0,0,1.31,0c-.21-.1-.51-1-.23-1.12.77.81.53.44,1.48,1.13-.31-.16,0-1.3.52-1.27-.07.17,0,1.13-.13,1.25l1.21-1.12c-.3.2-.06.95.22,1.27-.13-.22,1,0,1.37-.09l-.52-.26c1.37.17,1.35-1.58,2.71-1.52-.16.23-.4,1.43.29,1.57.31-.58,1.4-2.77,2.6-3.22l.23.33.92-.37a21.14,21.14,0,0,1-3.06,3.4c.51.26.14.39.91.36.27.3-.42.46-.65.48l1.79.2c-.08-.67,1.36-.67,1.3-1.23l-1.94.69c-.08-.67,1.12-1.9,2.38-1.79.32.27-.24,1.2-.21,1.42.16-.23,1.2-.44,1.31-.27l-.53.36c.7.25,1.15-.89,2-.25.3,0,.88.86.93.46a6.08,6.08,0,0,1-.26-3.71,9.09,9.09,0,0,1,1.87,1.11c.48.6-.72,1.43-.31,2,0-.18.28-.41.39-.48.31.15-.12.57.54.48.11-.68,1.36.06.32-.57.65-.2.69.14,1.46.11-.25-.44.68-1.5,1.34-1.7a.79.79,0,0,0,.18.51c1.33.06,2.05.37,3.3.37.11.17.71.37.46.66a1.23,1.23,0,0,1,.73-.37c.74.59-.86.1-.29.8,0-.39,1-.54,1.54-.79-.17-.61-1.27-.12-1.82.13,0-.84,1-1.73,2.26-2.12,1-.21.45.55.63.43,1.94.14,1.65-1.48,3.27-.87.64.54,0,1.07.17,1.46-.84.2-1.3-.34-1.87-.32l.71.25a1.35,1.35,0,0,1-1.14.16c.54.49,3.28.1,4.78.54.27-.18.73-.37.51-.58l-.47.07c-.44-.43.89-.6.29-.8A3.15,3.15,0,0,1,144.44,2l.17.62c0-.18-.59-.37-.84-.18.37-.27,1.37.83,1.78,0l-.63-.42c.64-.31,1.43-1,2.23-.77-.36-.6-.18.07-.75-.63.49.88-2,0-1.25.88-.57-.82-1-.34-1.75-1,0,.21.26.39-.4.29a.65.65,0,0,1-.15.18l0,0,0,0s0,0,0,0a.82.82,0,0,1,.33.3c-.33.47-1.39.45-1.75.69-.39-.09.17-.23-.05-.44l-.53.36c-.05-.45-1.05-.75-.12-1l-.84,0a2.06,2.06,0,0,0-1.59-.17c-.4-.09-1,.5-.66.15l-1.31.28,0-.11C135,1,133.65,1.77,132.17,1a3.37,3.37,0,0,1-1.62.12L130.4.69c-.56.14-1.68-.38-1.92,0-.61-1-2.73-.23-3.71-.41l0,.5a8.38,8.38,0,0,0-2.18.32l.06.45c-.73.37-1.87-.32-3-.27.08-.17.37-.13.57,0-1.37-1-2.9.73-4.14,0a.72.72,0,0,1-.75,0l.07,0h-.13a3.46,3.46,0,0,0-.43-.24,1.35,1.35,0,0,0,.37.24,4.05,4.05,0,0,0-1,.18L114,.94H114c-.35-.18-.28.23-.09.59a2,2,0,0,0-.47.29c-.29-.78-.94.26-1.32-.57-.24.41-1.79.31-2,1.16,0-.11-.12-.16.07-.17a1.36,1.36,0,0,0-1.15,0l-.17-.62-.86.83c-.53-.38-.75-.59-.23-1.07-1.26.73-1,.28-2.09,1l0-.4c-.38,0-1,.55-1.23.22-.86-.75-4.25-.11-6.45-.81.43,1.17-1-.52-1.11.39-.13-.28-.44-.44-.08-.67-1.13.27-1.69-.44-2.47.32-.13-.28.24-.4.13-.57-.09.06-.36.24-.48.08s.17-.23.35-.35c-1.15,0-1.27.89-1.35,1.69-.58-.38-.87-.33-1.29.2-.21-.26-.54-.54.17-.63-.4,0-2.45-.38-2.5.26-.12-.17-.56,0-.66,0a13,13,0,0,0-1.87,0l.25.1c-.35.77-.74.17-1.45.27l0-.08c-1.64-.56-.71.26-2.32-.37l.09.48c-.15,1-1.43-.61-2.37-.21l.34.27C80.92,3,80,1.22,79.49,1.09c-.12-.09.17-.15.33-.21-1.35-.61-.18.63-1.18.77-.18-.34.24-.86-.43-.92-.34-.28-2,1.1-2.88.45.2.26.4.52-.06.72-.72.09-1.93-1-2.57-.17a.25.25,0,0,1-.13-.2c-.55.21-1.78.35-2.1.8-.51-1.66-3.39.8-3.38-.73l-1.68.09,0-.16a2,2,0,0,0-1.83.63c-.24-.1-.06-.25,0-.32a3.09,3.09,0,0,0-3,.51l-.13-.49c-.36.29-2.27-.78-3.81-.2a.36.36,0,0,1,.17-.22C55,2,52.63.06,52,1.87l-1.14.44c1.48.14-.22.78.39,1.08-.58.11-1.5-.54-.79-.63l.11.09c.26-.94-1.83-.34-1.79-1-2.91,0-5.74-.47-8.46-.51l.31.73-1,0c-.24-.17-.33-.57.35-.54-.36-.42-1.14.34-1.16.5-1.32-.29.52-.85.11-.87l-.55.06.13.08c-.45.3-.49.62-1.3.58-.52-.15-.27-.45-.47-.48,0,0-.07-.07-.31,0l-1.2-.06.48.58c-.53.28-1.12,0-.57.62-.81-1-4.46-.36-5-.68a4,4,0,0,1-2.38.37c.22.12.36.77-.42.69.28-1.34-1.44-.58-2.07-1.55.56.66-2.23.12-1.34,1-.65-.12,0-.51-.53-.84-1.56.45-3.43-.18-5.35.15,0,.16.29.37-.12.62q-.51-.34-1-.66c-.38.11-.35.84-1,.41.1.11.24.27,0,.33a30,30,0,0,0-5.74.27c-1.93.2-3.86.25-5.78.27.52,0,.18.08-.22.12.26,0,0,.1,0,.15-.54,0-1.07,0-1.6,0-.3.11-1.72.17-1.89.23l.51,0c-.68.07.94.1.84.25a6.11,6.11,0,0,1,1.44.13,5.05,5.05,0,0,0,1.79.1c.28.07-.23.07-.08.14A3.21,3.21,0,0,1,6.66,4l-.08,0a35.71,35.71,0,0,1,5,.72l-.17-.29a2.06,2.06,0,0,1,.8.27c.55-.4-1.33-.14-.84-.56.64.63,3.36.19,3.79,1,.73.07-.21-.43.52-.37l.19.25.19-.29a.84.84,0,0,1,.74.62,1.79,1.79,0,0,0-.46,0c.63.35,1.76.09,2,.2l-.7-.23c2-.1,4.44.63,6.37-.12l-.14-.22c1.47-.45,1.18.23,2.8,0l-.06,0a2,2,0,0,1,1.2-.31c-.41.27.77.51.23.8,1.6-.44.8-.35,1.85-1.18l.25.37a1.52,1.52,0,0,1,1.2-.61c-.67.32.51.57-.23,1,1.7.81,2.52-.82,3.3.37.78-1-1.47-.57-1-.79C33,4.47,34,4,34.56,4.14s.93,1.32,2.29,1.3c-.14,0-.14.07-.28.07.51.26,1-.36,1.63.07.35-.62.81,0,.91-.76L37.86,5c.71-.2,1.37-1.13,2.54-.68a2,2,0,0,1-.67.49c.34.23.65-.16,1,.08-.1.79-1.52.17-2.28.78.36.33,1.43-.58,1,.28.55-1.09,1.35.14,2.27-.69l-.06.47a1.7,1.7,0,0,1,.72-.29L42,6.06c.75-.52,1.44.46,2.16.17-1.5,0-.34-.57-1-.91,1.85-.64,1.06,1.24,3.14,1-.28.07-1.06-.29-.62-.51a2.7,2.7,0,0,1,1.16.53c1.38-.1-.21-.49.38-.78.46.58.67-.23,1.27-.42v.49c1.56.3.41-1,1.82-.64l-.59.67.73-.17-.15.55a2.12,2.12,0,0,1,1.83-.15c-.18-.34.11-.87.8-.89.47.29-.27.46.72.39-.22.3-.47.68-.9.24,0,.15-.21.3-.26.45.51.33,1.28.08,1.64.07a.78.78,0,0,1-.39-.11l1.43-.67c.22.18,0,.33-.13.47.29,0,.49-.27.91-.31-.11.39-.08.79-.68,1l1.35-.44c.1.17.7.47.53.62.75.23,1.84-.76,2.84-.46a.57.57,0,0,1,.37-.2c.94.08,1.77.56,2.88,0l.63.7c.87-.16-.85-.89.6-1.15,1-.22.38.6.74.79.51-.35,1.4-1.07,2.34-.5C67.23,6,67,5.94,66.69,6Zm10.75-.31c-.21.1-.63.41-.78.13C76.9,5.26,77.08,5.52,77.44,5.68ZM93.77,4.52c-.16.16-.4.08-.67-.1A1,1,0,0,1,93.77,4.52Zm45.48-3.36,0,0C138.77,1,138.93,1.07,139.25,1.16Zm1,.21c.09-.07.09-.13.05-.2-.07.12-.29.13-.53.09C139.8,1.39,139.93,1.48,140.22,1.37ZM36.68,1.56l.19.13C36.45,1.82,36.56,1.7,36.68,1.56Z"/><path class="cls-1" d="M91.91,5.18a.62.62,0,0,1-.09-.26C91.74,5,91.74,5.09,91.91,5.18Z"/><path class="cls-1" d="M60,6.25h0a.16.16,0,0,0,0,.09Z"/><path class="cls-1" d="M125.28,5.46a.78.78,0,0,1-.38-.25C124.89,5.33,125,5.43,125.28,5.46Z"/><path class="cls-1" d="M145.33.55l-.62.13a.8.8,0,0,1,.55.15C145.25.72,145.13.56,145.33.55Z"/><path class="cls-1" d="M150.69,3.54c.09-.06.19,0,.28-.07l0-.23C150.56,3.25,150.29,3.44,150.69,3.54Z"/><path class="cls-1" d="M145.9,2.15c0,.41.43.27.87.2h-.08C146.82,1.78,146.36,2,145.9,2.15Z"/><path class="cls-1" d="M146.87,2.33a1.34,1.34,0,0,1,.4,0C147.32,2.09,147.1,2.27,146.87,2.33Z"/><path class="cls-1" d="M141.44,1.1c.2.1.13-.52.24-.35C141.91.23,140.32,1.37,141.44,1.1Z"/><polygon class="cls-1" points="146.25 3.49 146.09 2.99 145.85 3.39 146.25 3.49"/><path class="cls-1" d="M142.83,3.12l.69.14c0-.08.08-.13.19-.17C143.28,3.07,142.82,3,142.83,3.12Z"/><path class="cls-1" d="M143.71,3.09a1,1,0,0,0,.55-.08A2,2,0,0,0,143.71,3.09Z"/><polygon class="cls-1" points="145.3 3.64 145.1 3.54 144.61 3.5 145.3 3.64"/><path class="cls-1" d="M135.4,3l-.75.14c-.08.17.13.28.41.21S135.52,3.19,135.4,3Z"/><path class="cls-1" d="M137.68,4.4c-.2-.11-.22-.22-.33-.38l0,.62Z"/><path class="cls-1" d="M135.48,4.54c-.07.17-1.09.5-.14.46C135.42,4.83,136.18,4.68,135.48,4.54Z"/><polygon class="cls-1" points="124.12 3.76 124.31 3.75 124.28 2.73 124.12 3.76"/><path class="cls-1" d="M114.1,6.19c.89.25.21-.63,1-.32.21-.24-.66-.25-.45-.46C114.13,5.67,113.85,5.52,114.1,6.19Z"/><path class="cls-1" d="M114.67,5.41l.28-.15A.93.93,0,0,0,114.67,5.41Z"/><polygon class="cls-1" points="1.58 3.27 1.01 3.34 1.38 3.31 1.58 3.27"/><path class="cls-1" d="M.48,3.45H.35L0,3.49Z"/><path class="cls-1" d="M79,7l0-.16c-.09-.17-.23-.18-.5-.21Z"/><polygon class="cls-1" points="71.24 6.5 71.37 6.52 71.12 5.93 71.24 6.5"/><path class="cls-1" d="M64.69,7.25c.27,0,.58-.11.85-.08C65,7.28,64.62,6.52,64.69,7.25Z"/></svg>