<svg id="Camada_1" data-name="Camada 1" xmlns="http://www.w3.org/2000/svg" viewBox="0 0 64.34 34.76"><defs><style>.cls-1{fill:#b2b5b7;}.cls-2,.cls-3{fill:#fff;}.cls-3{font-size:10.35px;font-family:AvenirNext-Bold, Avenir Next;font-weight:700;}</style></defs><rect class="cls-1" x="1.77" y="3.15" width="59.61" height="28.72" rx="14.36"/><path class="cls-1" d="M47.23,34.29c-.26,0-.17.39-.21.47C47.47,34.65,47.22,34.18,47.23,34.29Z"/><polygon class="cls-1" points="51.25 32.76 51.23 32.95 51.69 32.39 51.25 32.76"/><path class="cls-1" d="M54.78,31.32c-.64-.44-1.17.74-1.91.76L52.7,32l-.08.64a6.58,6.58,0,0,0,1.15-.74A3.1,3.1,0,0,1,54.78,31.32Z"/><path class="cls-1" d="M57.41,31.44c-.28-.14.24-.48-.47.24h.12C57.13,31.63,57.23,31.55,57.41,31.44Z"/><path class="cls-1" d="M57.06,31.68c-.35.28.36,0,0,0Z"/><path class="cls-1" d="M58.54,30.29l-.27.57c.19.05.61-.28.54-.06C59.18,30.29,59,30.26,58.54,30.29Z"/><path class="cls-1" d="M58.58,29.55l-.14.27C58.52,29.83,58.59,29.8,58.58,29.55Z"/><path class="cls-1" d="M58.12,30.4l.32-.58c-.14,0-.3-.2-.16.25C58.17,29.88,58.22,30.11,58.12,30.4Z"/><path class="cls-1" d="M57.79,30.55c-.35.08-.73.24-.44-.29C56.57,31,57,31.29,57.79,30.55Z"/><path class="cls-1" d="M54.58,30.58h-.43L54,31C54.07,30.79,54.71,30.77,54.58,30.58Z"/><path class="cls-1" d="M61.23,27.85c-.1-.12-.44-.08-.62-.17l-.12.45C60.7,28,61,27.74,61.23,27.85Z"/><path class="cls-1" d="M60.61,27.68l.16-.65C60.41,27.46,60.45,27.61,60.61,27.68Z"/><polygon class="cls-1" points="58.1 28.91 57.74 29.97 58.23 28.78 58.1 28.91"/><path class="cls-1" d="M62.57,25.76c0,.17.09.33.13.5a7.78,7.78,0,0,0-.16-.84Z"/><path class="cls-1" d="M63.22,24.25c.17.37.59-.17.65.17a2.62,2.62,0,0,0-.08-1.31A1.55,1.55,0,0,1,63.22,24.25Z"/><path class="cls-1" d="M63.66,22.46c0,.2.08.41.13.65A1.35,1.35,0,0,0,63.66,22.46Z"/><path class="cls-1" d="M61.4,26.18A.73.73,0,0,0,62,26h-.5Z"/><path class="cls-1" d="M61.51,26h0l.29-.45Z"/><path class="cls-1" d="M61.36,26.23l0-.05S61.33,26.18,61.36,26.23Z"/><path class="cls-1" d="M59.45,28c.06-.41.26-1.15-.43-.83C59.09,27.58,59.52,27.41,59.45,28Z"/><path class="cls-1" d="M60.75,26.21a6.27,6.27,0,0,1-.42.48c.1,0,.3,0,.29.26A4.78,4.78,0,0,0,60.75,26.21Z"/><polygon class="cls-1" points="60.8 25.87 60.75 26.21 60.91 26.02 60.8 25.87"/><path class="cls-1" d="M62.9,23.43a2,2,0,0,1,.11-1,5.71,5.71,0,0,0-.51,1C62.61,23.58,62.78,23.82,62.9,23.43Z"/><path class="cls-1" d="M62.25,24.68v-.06S62.18,24.66,62.25,24.68Z"/><polygon class="cls-1" points="63.68 19.07 63.6 19.12 63.67 19.14 63.68 19.07"/><path class="cls-1" d="M62.41,23.51a.65.65,0,0,0-.09.62c.06-.2.1-.43.18-.65C62.45,23.44,62.42,23.42,62.41,23.51Z"/><path class="cls-1" d="M63.71,21.45a5.41,5.41,0,0,0-.35.43C63.53,21.77,63.81,21.53,63.71,21.45Z"/><path class="cls-1" d="M62.4,24.58v.05C62.52,24.58,62.48,24.57,62.4,24.58Z"/><path class="cls-1" d="M62.4,24.58a1.33,1.33,0,0,0-.08-.45,2.14,2.14,0,0,0-.07.49Z"/><path class="cls-1" d="M61,18a.72.72,0,0,1,.26,1.23c.2.57,1.56.43,2.35-.06-.17,0-.33-.05-.53-.69a6.4,6.4,0,0,0-.42.67c-.17.23-.36.35-.5.09-.14-.8.18-.63.42-1-.51.3-.67-1-1.42-.82.1.21.15.42.23.64C61.27,18,61.1,17.77,61,18Z"/><path class="cls-1" d="M63.38,20.33v.28a2.39,2.39,0,0,1,.67-.84c-.12-.48-.26-.58-.39-.63-.07.44-.16.87-.24,1.3Z"/><path class="cls-1" d="M63.12,21.77c-.36-.32-.39-.94-.94-.69-.15.72.22.59.29,1.08.2-1.22.14.41.6-.39a3.62,3.62,0,0,1-.06.69,4.69,4.69,0,0,1,.35-.58l0,0h0c-.06,0-.1.05,0,0s0,0,0,0a.56.56,0,0,1-.15-.1c.18-.33.13,0,.15.1l0,0h0c0-.44.08-.86.06-1.29A6.73,6.73,0,0,0,63.12,21.77Z"/><path class="cls-1" d="M58.65,26.15a.2.2,0,0,1,.1,0C58.75,26.1,58.74,26.05,58.65,26.15Z"/><path class="cls-1" d="M59.13,25.94c0,.1.11.25-.09.44s-.17-.12-.29-.2c0,.2-.09.64.38.36v-.1c.41-.26,1.18-.49,1.18-.39A3.65,3.65,0,0,0,59.13,25.94Z"/><path class="cls-1" d="M61.19,24a5.45,5.45,0,0,0,.18-1l-.51.31.22.07C60.76,23.89,61.06,23.89,61.19,24Z"/><polygon class="cls-1" points="63.9 18.97 64.34 19.16 63.74 18.49 63.9 18.97"/><path class="cls-1" d="M63.91,17.59l.4.05a4,4,0,0,0-.25-.37C64,17.38,64,17.48,63.91,17.59Z"/><path class="cls-1" d="M6.74,10.08l0,.24A.59.59,0,0,0,6.74,10.08Z"/><path class="cls-1" d="M7.84,8.9l-.1-.16C7.76,8.87,7.79,8.94,7.84,8.9Z"/><path class="cls-1" d="M40.72.66c-.39-.37-.82-.94-.77-.5l.12.44A.82.82,0,0,1,40.72.66Z"/><path class="cls-1" d="M20.92,3.25l.11.13L21.29,3Z"/><path class="cls-1" d="M20.64,5.05l-.51-.28A2.11,2.11,0,0,0,20.64,5.05Z"/><path class="cls-1" d="M4.65,18.24l.45.21C5.08,18.08,4.86,18.26,4.65,18.24Z"/><path class="cls-1" d="M58.24,5.11a2.4,2.4,0,0,0-.57-.84C57.89,4.76,57.9,5.3,58.24,5.11Z"/><path class="cls-1" d="M3.7,6.55c-.07.19-.05.3,0,.36C3.8,6.72,3.81,6.59,3.7,6.55Z"/><path class="cls-1" d="M56.75,3.59c0,.07.08.13.11.2a2.84,2.84,0,0,1,.81.48A1,1,0,0,0,56.75,3.59Z"/><path class="cls-1" d="M32.67,29.39l.08.05C32.76,29.38,32.72,29.38,32.67,29.39Z"/><path class="cls-1" d="M43.79,33.77a3,3,0,0,1-.46,0A.85.85,0,0,0,43.79,33.77Z"/><path class="cls-1" d="M63.2,12.05c.13.27.06,0,0,0Z"/><path class="cls-1" d="M61.93,13.85a.25.25,0,0,0-.23,0A.3.3,0,0,1,61.93,13.85Z"/><path class="cls-1" d="M53.06,4.57h0C53.07,4.67,53.07,4.65,53.06,4.57Z"/><path class="cls-1" d="M63.16,12.53a1.27,1.27,0,0,0,0-.39A2.33,2.33,0,0,0,63.16,12.53Z"/><path class="cls-1" d="M63.34,12.41c0,.11,0,.19,0,.27S63.48,12.65,63.34,12.41Z"/><path class="cls-1" d="M63,11.67a2,2,0,0,1,.12.47c0-.07,0-.1,0-.09Z"/><path class="cls-1" d="M12.62,30.06l0,.05C12.92,30,12.82,30,12.62,30.06Z"/><path class="cls-1" d="M34.22,5.17l0,0h0Z"/><path class="cls-1" d="M33.33,5.49c.38-.54.6-.48.88-.36l-.29-1.25Z"/><path class="cls-1" d="M5,13.46l.53-.33c.4.8,0,1.08.72.86-.61-.25-.54-.74-.33-1.17s.35-.89-.2-1.25l.42-.15c-.06.08,0,.13-.06.2.9-.2-.61-1,.11-1.58.27-.19.55-.23.55,0a6.17,6.17,0,0,1,.19-.74c.16-.13.3.06.14.19a10.31,10.31,0,0,1,.65-.83l0,0a4.37,4.37,0,0,1,0-1c.34,0,0,.21.16.28a4.35,4.35,0,0,1,.25-.63c.42.13.22.67-.09.92,1.25.67.16-.59,1.55-.64-.12.14-.22.3-.33.45.71.41.89,0,1.6.12-.21-.17-1.62-.44-1.29-1,.21,0,.43-.08.58-.5.23.41.47.18.82,0l.25.59c.3-.34.13-.64.27-1,.49-.11.75.32,1,.68.74-.16-.75-.57.07-1,.71.09,1.05-.31,1.81-.79.49.15,0,.4.16.56.11-.19.22-.39.35-.57.1,0,.08.17.07.25.34-.22,0-.64.54-.84.07-.36.36-.12.76.12s.89.47,1.29.07c.2.19-.1.4,0,.64a6,6,0,0,0,1.84-1.08l.76.42c-.56-.48.16-1,.79-1.52a5.75,5.75,0,0,0-.49-.53l1-.34c.12.1,0,.32-.15.59l.19-.16c.36.24.17.61-.09,1L21,3.38a2,2,0,0,0-.43,1.2.69.69,0,0,1,.33-.18c-.06.11-.1.2-.07.27s.14-.08.3-.24l.23.71.05-.28,1.32.44c.94-.71,1.75-1.77,3.24-2.06-.37.52-.08.85-.1,1.47-.4-.66-1.15.28-1.92.15.4.06.31.36.21.46l1.38-.59c0,.5.29.38.65.59-.27-1,1-.67,1.59-1,0,.34-.1.68-.79.6.76.75,1-1.18,1.72-.54-.17,0-.26,0-.32.13.39-.3,1.34-.06,1.12.23h-.17c1.11.12,3.37,0,3.54-.84a8.31,8.31,0,0,1-.21,1.19l2-2.86c-.18.73.49,2.47-.43,2.88a1.24,1.24,0,0,0,1.15,0C35.22,5,35,4.06,35.2,4c.67.81.46.43,1.3,1.13-.27-.16,0-1.3.45-1.27C36.89,4,37,5,36.83,5.1L37.9,4c-.27.2,0,.95.19,1.27-.11-.22.91,0,1.2-.09l-.45-.26C40,5.07,40,3.32,41.21,3.37c-.14.24-.35,1.43.25,1.58.28-.58,1.23-2.78,2.28-3.22l.2.33.81-.37a20.55,20.55,0,0,1-2.68,3.4c.44.26.12.38.79.35.24.31-.36.47-.56.49l1.56.2c-.07-.67,1.2-.67,1.14-1.23l-1.7.69A2.09,2.09,0,0,1,45.39,3.8c.28.27-.21,1.2-.19,1.42.15-.23,1.06-.44,1.16-.27l-.47.35c.6.26,1.06-.9,1.67-.22.23.06.58.9.65.5a7.56,7.56,0,0,1,.12-3.71A5.87,5.87,0,0,1,49.89,3.2c.27.66-.87,1.32-.62,1.88a.89.89,0,0,1,.4-.43c.2.22-.21.53.3.58.25-.64,1,.32.38-.49.56-.06.51.26,1.09.45C51.38,4.71,52.5,3.94,53.13,4a.92.92,0,0,0-.07.53,4.58,4.58,0,0,1,1.19.87c.33.29.64.57,1,.9,0,.2.26.65-.09.75.19,0,.45-.11.69.1.07.85-.57-.4-.69.45.28-.28.95.12,1.46.25C57,7.37,56,7.07,55.46,7a2.31,2.31,0,0,1,2.9-.19c.82.59-.12.68.08.72,1,1.46,2.19.35,2.51,2-.15.79-.92.54-1.18.85-.58-.53-.29-1.18-.64-1.58a4.86,4.86,0,0,1,.15.66c-.26-.12-.69-.42-.72-.73,0,.33.37.91.76,1.63a7.87,7.87,0,0,1,.53,1.14,2.93,2.93,0,0,1,.24,1.11c.25.15.56.47.7.22l-.21-.37c.27-.53.84.56.84,0a2.45,2.45,0,0,1,1.1,1.91l-.58.27c.19-.05.25-.61,0-.8.39.3-.56,1.4.28,1.65l.33-.65c.2.27.49.59.72.94A1.66,1.66,0,0,1,63.53,17c.59-.4-.07-.17.6-.81-.44.29-.41-.23-.5-.71s-.14-.91-.53-.44a1.25,1.25,0,0,0,.43-.92A2,2,0,0,1,63.75,13c-.19.08-.3.37-.38-.32a1,1,0,0,1-.21-.1v0s0,0,0,0a.79.79,0,0,1-.2.42c-.5-.2-.87-1.17-1.21-1.41,0-.4.27.06.4-.22-.17-.12-.36-.23-.54-.34.39-.22.21-1.28.87-.52l-.36-.79a2,2,0,0,0-.69-1.52c-.13-.42-1-.56-.51-.48-.34-.31-.68-.62-1-.91l.07-.08a7.08,7.08,0,0,0-1.59-1.31,4.78,4.78,0,0,1-.81-.69,3.17,3.17,0,0,1-.68-1A4.74,4.74,0,0,1,55.4,3l.07-.42C54.91,2.4,54,1.44,53.65,1.7c-.09-.59-.77-.92-1.53-1.11S50.5.37,50,.22l-.13.5A4.65,4.65,0,0,0,48.81.63c-.37,0-.76.1-1.2.18l0,.45a1.23,1.23,0,0,1-.61.08,4.39,4.39,0,0,1-.65-.13A4.66,4.66,0,0,0,44.93,1c.07-.17.33-.13.51,0-1.21-1-2.54.74-3.64,0a.57.57,0,0,1-.66,0,.09.09,0,0,0,.07,0H41.1a3.52,3.52,0,0,0-.38-.24A1.21,1.21,0,0,0,41,.9a3.18,3.18,0,0,0-.84.18L40.07.6H40c-.3-.18-.24.23-.08.59a1.38,1.38,0,0,0-.41.29c-.25-.78-.82.26-1.16-.57-.21.41-1.57.31-1.73,1.16,0-.11-.11-.17.06-.17a1.06,1.06,0,0,0-1,0l-.14-.61-.76.82c-.46-.37-.65-.59-.2-1.06-1.1.73-.89.28-1.83,1l0-.39c-.34,0-.87.54-1.08.22C30.94,1.16,28,1.81,26,1.11c.38,1.17-.9-.52-1,.38-.12-.27-.38-.43-.07-.67-1,.27-1.48-.43-2.16.33-.12-.28.21-.41.11-.57-.08.06-.32.24-.42.08s.15-.24.3-.36c-1,0-1.11.9-1.18,1.7-.51-.38-.76-.33-1.13.2-.18-.26-.48-.54.15-.63-.35,0-2.15-.38-2.19.26-.11-.17-.49-.05-.58,0a9,9,0,0,0-1.64,0l.22.1c-.3.76-.66.19-1.33.31V2.15c-.79-.25-.95-.12-1.11,0s-.3.14-1.12,0l.18.46c0,.51-.31.45-.78.33s-1.07-.28-1.42.07l.39.15c-.3.49-1.77-.86-2.33-.7-.14,0,.1-.21.22-.34-1.52.05.1.64-.73,1.21-.32-.21-.19-.89-.83-.59-.22,0-.52.48-.88,1s-.73,1-1.3,1.09c.33.07.64.15.42.59a3.82,3.82,0,0,1-1.2.61c-.44.22-.8.54-.7,1a.28.28,0,0,1-.24,0c-.2.55-.81,1.6-.59,2.11-.8-.24-1.14.57-1.25,1.37a4,4,0,0,1-.24,1c-.11.25-.29.36-.64.22a12.66,12.66,0,0,0-.45,1.6l-.14-.08A1.65,1.65,0,0,0,.66,15c-.14.22-.25,0-.33,0A3.08,3.08,0,0,0,0,16.55a3.2,3.2,0,0,0,.63,1.38l-.49.14c.17.17,0,.73-.1,1.45a6.36,6.36,0,0,0,0,1.15,2.73,2.73,0,0,0,.45,1.12.35.35,0,0,1-.26-.11A4.33,4.33,0,0,1,.73,23c.1.47.13,1,.25,1.43a2.88,2.88,0,0,0,.48,1.13,1,1,0,0,0,1,.29,10.61,10.61,0,0,0,1,.67c-.68-1.21.75-.28.67-.9.39.33.37,1.4-.09.94v-.14c-.45.18-.26.58,0,1s.6.74.35.94a17.4,17.4,0,0,0,6.71,4.89l-.06-.8a6.74,6.74,0,0,0,.86.3c.19.23.18.64-.47.44.24.49,1.18,0,1.22-.21.6.3.45.45.17.6s-.66.17-.47.23.37.06.56.07l-.1-.11c.5-.22.59-.53,1.37-.37.48.22.21.48.4.53,0,.05.07.08.31,0l1.2.12-.46-.6c.54-.25,1,0,.55-.6.71,1,3.91.36,4.34.67a3.17,3.17,0,0,1,2.09-.36c-.2-.12-.31-.77.37-.69-.25,1.34,1.26.58,1.81,1.55-.49-.64,1.95-.16,1.17-1.07.58.11,0,.5.47.82,1.37-.52,3,.33,4.69.16,0-.18-.26-.45.11-.71l.88.88c.34-.08.31-1,.92-.4-.09-.15-.22-.37,0-.43,3.3.86,6.74-.7,10.09.91-.46-.34-.15-.38.19-.39-.22-.08,0-.43,0-.67l1.41.66c.25-.66,1.5,0,1.65-.68l-.45.12c.59-.75-.82-1.66-.74-2.62-.66.85-1.74-1.26-2.83,0-.24-.2.21-.31.08-.53-.28.41-.61.49-1.22.31l.07-.1c-1.73.1-2.47-.31-4.42-.58l.15.48a1.38,1.38,0,0,1-.7-.33c-.48.71,1.17,0,.73.83-.55-1-2.94,0-3.32-1.11-.64,0,.19.55-.45.54l-.17-.3-.16.39a.78.78,0,0,1-.65-.69c.1,0,.29-.07.4-.09-.55-.35-1.54.12-1.73,0l.62.18c-1.75.28-3.89-.11-5.59.49l.13.22c-1.29.42-1-.24-2.45-.05l.05,0a1.56,1.56,0,0,1-1.06.3c.36-.26-.67-.5-.2-.79-1.4.44-.69.34-1.62,1.18l-.21-.38c-.32.34-.34.52-1.05.61.58-.32-.46-.56.19-1-1.48-.81-2.2.82-2.89-.37-.68,1,1.29.57.91.79.32.34-.57.77-1,.66-.24,0-.45-.33-.72-.66a1.44,1.44,0,0,0-1.1-.69c.1,0,.12-.07.22-.06-.35-.26-.8.25-1.2-.23-.39.59-.59-.16-.85.6a8.51,8.51,0,0,0,1,0c-.57.14-1.34.89-2.15.19a2.32,2.32,0,0,1,.67-.31c-.2-.28-.56,0-.74-.32.31-.7,1.19.18,1.88-.28-.18-.38-1.18.29-.69-.47-.71,1-.88-.42-1.82.13l.22-.42c-.13,0-.42.13-.6,0l.58-.4c-.72.22-.74-.84-1.29-.87.92.54-.08.63.17,1.15-1.55-.18-.09-1.42-1.37-2.1.19.06.43.68,0,.67a1.46,1.46,0,0,1-.32-.93c-.79-.58-.21.47-.72.4.15-.67-.54-.14-1-.37L7.31,26c-.53-1.09-1,.46-1.38-.66.27,0,.54,0,.8-.05l-.47-.33.51-.24c-.68-.22-.72-.44-.87-1a.66.66,0,0,1-1.08-.07c.09-.47.49,0,.1-.68.35,0,.75,0,.51.5.15,0,.35,0,.5-.06.08-.47-.33-.85-.47-1.08a.45.45,0,0,1,0,.3,8.07,8.07,0,0,1-1-.71c.11-.23.29-.15.47-.08-.12-.18-.38-.24-.53-.53.4,0,.78-.18,1.1.15a7.46,7.46,0,0,1-.71-.78c.15-.11.33-.59.51-.5,0-.27-.2-.54-.43-.85a1.08,1.08,0,0,1-.31-1A.43.43,0,0,1,4.34,18a4.17,4.17,0,0,1,.26-1,1.6,1.6,0,0,0-.13-1.09l.76-.33c-.06-.63-1,.46-1.05-.64,0-.79.65-.13.9-.33-.28-.42-.72-1.3,0-1.74C5.18,13.12,5,13.25,5,13.46ZM9.6,7.25c-.08.16-.15.58-.4.42C9,7.11,9.29,7.24,9.6,7.25ZM22.3,4.18c-.13.16-.34.08-.58-.1A.74.74,0,0,1,22.3,4.18Zm39.23,5.1h0C61.42,8.77,61.44,9,61.53,9.28Zm.27,1a.13.13,0,0,0,.2-.05c-.14,0-.24-.2-.32-.44C61.6,9.88,61.58,10,61.8,10.24ZM14.72,33.73l-.18-.14C15,33.48,14.84,33.6,14.72,33.73Z"/><path class="cls-1" d="M20.68,4.84a.79.79,0,0,1-.08-.26C20.53,4.66,20.53,4.75,20.68,4.84Z"/><path class="cls-1" d="M4.56,18.2v0l.09,0Z"/><path class="cls-1" d="M49.51,5.37a.63.63,0,0,1-.24-.29C49.24,5.2,49.29,5.3,49.51,5.37Z"/><path class="cls-1" d="M64.13,15l-.23-.62a.86.86,0,0,1-.06.6C64,15,64.09,14.81,64.13,15Z"/><path class="cls-1" d="M61.09,20.1c0,.09,0,.16,0,.25l.22,0C61.38,20,61.24,19.77,61.09,20.1Z"/><path class="cls-1" d="M62.62,15.78c-.38.09-.23.44-.14.84v-.07C63.05,16.64,62.85,16.2,62.62,15.78Z"/><path class="cls-1" d="M62.5,16.72a.93.93,0,0,1,0,.37C62.76,17.14,62.57,16.94,62.5,16.72Z"/><path class="cls-1" d="M62.56,11.26c0,.23.52-.07.41.11C63.55,11.38,61.88,10.29,62.56,11.26Z"/><path class="cls-1" d="M61.32,16.23l.49-.18-.43-.18A2.25,2.25,0,0,1,61.32,16.23Z"/><path class="cls-1" d="M61.1,13.19l0,.64c.08,0,.14,0,.2.12C61.25,13.57,61.24,13.13,61.1,13.19Z"/><path class="cls-1" d="M61.33,14a.82.82,0,0,0,.21.46A1.8,1.8,0,0,0,61.33,14Z"/><polygon class="cls-1" points="61.06 15.43 61.14 15.24 61.11 14.81 61.06 15.43"/><path class="cls-1" d="M57.85,7.4c-.2-.13-.37-.28-.57-.39-.18.08-.1.27.11.41S57.8,7.59,57.85,7.4Z"/><path class="cls-1" d="M58,9.79c0-.2.07-.27.14-.45l-.51.36Z"/><path class="cls-1" d="M56.78,8.49c-.17.06-.94-.31-.4.22C56.54,8.64,57.06,9,56.78,8.49Z"/><polygon class="cls-1" points="48.86 3.55 49.02 3.57 49.14 2.55 48.86 3.55"/><path class="cls-1" d="M40.12,5.85c.78.25.19-.63.89-.32.19-.24-.57-.25-.39-.46C40.15,5.33,39.9,5.18,40.12,5.85Z"/><path class="cls-1" d="M40.62,5.07l.25-.15A.78.78,0,0,0,40.62,5.07Z"/><polygon class="cls-1" points="45.63 34.31 46.14 34.53 45.81 34.19 45.63 34.31"/><path class="cls-1" d="M46.6,33.56l.12.65.3-.59C46.91,33.65,46.69,33.71,46.6,33.56Z"/><path class="cls-1" d="M11.23,7.83l-.05-.15c-.13-.13-.22-.1-.4,0Z"/><polygon class="cls-1" points="6.94 10.87 7.01 10.81 6.42 10.6 6.94 10.87"/><path class="cls-1" d="M5.81,15.13c.07-.16,0-.39.06-.55C5.88,15,5.08,15,5.81,15.13Z"/><circle class="cls-2" cx="48.18" cy="17.89" r="7.26"/><path class="cls-2" d="M39.1,17.75c0-.08-.29-.06-.35-.08C38.82,17.82,39.18,17.75,39.1,17.75Z"/><polygon class="cls-2" points="39.89 19.04 39.76 19.03 40.1 19.17 39.89 19.04"/><path class="cls-2" d="M40.13,20.21c.48-.25-.19-.39-.05-.65l.11-.06h-.44C39.87,19.74,40.23,20,40.13,20.21Z"/><path class="cls-2" d="M39.25,21.22c.18-.11.22.09,0-.18,0,0,0,0,0,.05A.28.28,0,0,1,39.25,21.22Z"/><path class="cls-2" d="M39.21,21.09c-.06-.13-.13.15,0,0Z"/><path class="cls-2" d="M39.57,21.66l-.25-.1c-.1.08,0,.25-.16.23C39.33,21.93,39.43,21.84,39.57,21.66Z"/><path class="cls-2" d="M40,21.66l-.11-.06S39.84,21.67,40,21.66Z"/><path class="cls-2" d="M39.65,21.49l.24.11c.06-.06.22-.13-.1-.06C39.94,21.5,39.79,21.52,39.65,21.49Z"/><path class="cls-2" d="M39.68,21.35c.06-.14.09-.28.33-.18C39.83,20.88,39.48,21.05,39.68,21.35Z"/><path class="cls-2" d="M40.68,20.11l.11-.15-.19-.05C40.69,19.94,40.51,20.17,40.68,20.11Z"/><path class="cls-2" d="M39.86,22.83c.1,0,.23-.21.35-.29L40,22.49C40,22.59,40,22.74,39.86,22.83Z"/><path class="cls-2" d="M40.21,22.54l.27.07C40.41,22.45,40.31,22.47,40.21,22.54Z"/><polygon class="cls-2" points="40.55 21.43 40.04 21.32 40.58 21.49 40.55 21.43"/><polygon class="cls-2" points="40.29 23.52 40.01 23.57 40.46 23.52 40.29 23.52"/><path class="cls-2" d="M40.65,23.93c-.23.06-.21.32-.37.33.12.1.35.07.55,0C40.68,24.28,40.62,24.16,40.65,23.93Z"/><path class="cls-2" d="M41.14,24.29a1.17,1.17,0,0,0-.31,0A.87.87,0,0,0,41.14,24.29Z"/><path class="cls-2" d="M40.61,22.93a.5.5,0,0,0-.18.31l.22-.24Z"/><path class="cls-2" d="M40.66,23h0a.85.85,0,0,0,.09.14A1.32,1.32,0,0,1,40.66,23Z"/><path class="cls-2" d="M40.6,22.91v0S40.64,22.9,40.6,22.91Z"/><path class="cls-2" d="M40.51,22c.21,0,.49.11.62-.21C40.9,21.84,40.83,22,40.51,22Z"/><path class="cls-2" d="M40.88,22.61a1.3,1.3,0,0,1,0-.21c-.07.05-.16.15-.26.14Z"/><polygon class="cls-2" points="41.02 22.64 40.88 22.61 40.9 22.69 41.02 22.64"/><path class="cls-2" d="M41.12,23.81a.38.38,0,0,1,.33.11.73.73,0,0,0-.16-.33C41.2,23.64,41,23.71,41.12,23.81Z"/><path class="cls-2" d="M40.91,23.4h0S41,23.36,40.91,23.4Z"/><polygon class="cls-2" points="42.23 24.71 42.26 24.65 42.22 24.69 42.23 24.71"/><path class="cls-2" d="M41.32,23.53c0-.1-.1-.09-.21-.07a.46.46,0,0,1,.18.13S41.35,23.55,41.32,23.53Z"/><path class="cls-2" d="M41.47,24.42a1.93,1.93,0,0,0,0-.24C41.44,24.29,41.4,24.47,41.47,24.42Z"/><path class="cls-2" d="M40.88,23.48h0C40.83,23.55,40.85,23.52,40.88,23.48Z"/><path class="cls-2" d="M40.88,23.48a.93.93,0,0,0,.23,0,.48.48,0,0,0-.18-.06A.22.22,0,0,1,40.88,23.48Z"/><path class="cls-2" d="M43.79,23.32c-.19.22-.54.32-.44,0-.27,0-.86.84-1.09,1.37a.51.51,0,0,1,.44-.19c0-.16-.07-.57.22-.66s.08.21.08.41c.16-.35.58-.23.86-.7l-.27,0C43.64,23.47,43.78,23.41,43.79,23.32Z"/><path class="cls-2" d="M42,24.36l-.09,0a1.15,1.15,0,0,1-.06.5.49.49,0,0,0,.37-.14l-.28-.32Z"/><path class="cls-2" d="M41.64,24.06c.27-.17.51-.14.68-.46-.18-.15-.31.06-.51,0,.32.24-.2,0-.15.38a.47.47,0,0,1-.21-.11,1.09,1.09,0,0,1,0,.26v0h0s0-.06,0,0h0l.1-.07c0,.13,0,.07-.1.07l0,0h0c.13.07.28.11.42.17C41.88,24.23,41.79,24.17,41.64,24.06Z"/><path class="cls-2" d="M41.83,21.61a.13.13,0,0,1-.06.05S41.84,21.65,41.83,21.61Z"/><path class="cls-2" d="M41.73,21.83s-.17.05-.19,0,.14-.08.23-.14c-.1,0-.29,0-.35.18h0a1.28,1.28,0,0,1-.32.56A5.19,5.19,0,0,0,41.73,21.83Z"/><path class="cls-2" d="M41.67,22.87A1.83,1.83,0,0,0,42,23l.12-.29-.13.11C41.93,22.66,41.79,22.81,41.67,22.87Z"/><polygon class="cls-2" points="42.16 24.85 41.9 25.08 42.37 24.84 42.16 24.85"/><polygon class="cls-2" points="42.53 25.1 42.34 25.32 42.54 25.26 42.53 25.1"/><path class="cls-2" d="M53,15.21h-.11A.14.14,0,0,0,53,15.21Z"/><path class="cls-2" d="M53.14,15.61l.13,0C53.19,15.57,53.14,15.59,53.14,15.61Z"/><path class="cls-2" d="M52.8,25.76c.27.17.65.44.46.17L53,25.68A.18.18,0,0,1,52.8,25.76Z"/><path class="cls-2" d="M55.2,19.47h-.11l.29.15Z"/><path class="cls-2" d="M53.89,19.11l.23-.08A.7.7,0,0,0,53.89,19.11Z"/><path class="cls-2" d="M51.18,13.72l-.24.24C51,14,51.08,13.85,51.18,13.72Z"/><path class="cls-2" d="M46.69,26.81a.64.64,0,0,0,.28.24C46.84,26.84,46.77,26.55,46.69,26.81Z"/><path class="cls-2" d="M56.11,13.76a.32.32,0,0,0-.22,0A.22.22,0,0,0,56.11,13.76Z"/><path class="cls-2" d="M47.34,27.09,47.28,27a.38.38,0,0,1-.31.05C47.07,27.21,47.19,27.3,47.34,27.09Z"/><path class="cls-2" d="M43.77,14.77h0S43.77,14.78,43.77,14.77Z"/><path class="cls-2" d="M39.61,16.54a.32.32,0,0,1,0-.17S39.58,16.45,39.61,16.54Z"/><path class="cls-2" d="M44,26.19c-.1,0,0,0,0,0Z"/><path class="cls-2" d="M44.2,24.86a.44.44,0,0,0,.11-.12A.44.44,0,0,1,44.2,24.86Z"/><path class="cls-2" d="M48.26,25.1h0C48.25,25,48.25,25.05,48.26,25.1Z"/><path class="cls-2" d="M43.92,26a.35.35,0,0,0,.06.14A.35.35,0,0,0,43.92,26Z"/><path class="cls-2" d="M43.87,26.14l-.06-.07S43.76,26.15,43.87,26.14Z"/><path class="cls-2" d="M44.11,26.23a.31.31,0,0,1-.13-.1s0,.05,0,.06Z"/><path class="cls-2" d="M47.5,11.66v0C47.44,11.77,47.46,11.75,47.5,11.66Z"/><polygon class="cls-2" points="52.3 21.9 52.31 21.91 52.32 21.91 52.3 21.9"/><path class="cls-2" d="M52.27,21.58c.24.34.16.34,0,.33l.73.6Q52.68,22,52.27,21.58Z"/><path class="cls-2" d="M52.29,14.42l-.13.29c-.48.18-.42,0-.66.35.81-.64.37.3,1.21-.27l-.13.2s-.06,0-.06,0c-.31.41.69-.29.7,0a.32.32,0,0,1-.26.24l.31,0c0,.05-.15.12-.16.07a2,2,0,0,1,.19.22h0a3.84,3.84,0,0,1,.55,0c-.1.13-.12,0-.22.08l.29.06c-.22.16-.5.12-.52,0-.88.52.3,0-.16.53l-.16-.09c-.52.28-.29.31-.59.54.17-.07.77-.55,1.06-.48-.06.07-.07.13.15.17-.34.1-.24.16-.2.26l-.46.11a2.4,2.4,0,0,0,.62,0c0,.14-.37.24-.68.32-.05.21.57-.24.69,0-.17.2.06.28.35.49-.16.14-.29,0-.43.05l.39.1s-.13,0-.19,0c.15.09.48,0,.62.15.54.06-.78.31-.2.53-.14,0-.29-.05-.47-.05a4.42,4.42,0,0,0,.75.55l-.34.14a1.36,1.36,0,0,1,1.08.44l.41-.06a2.53,2.53,0,0,1,.18.37.89.89,0,0,1-.41-.15l.09.08a1,1,0,0,1-.69-.2l.31,0a3.12,3.12,0,0,0-.85-.31.29.29,0,0,1,.11.11l-.19-.06s.05.05.16.12l-.54-.07.21.06-.41.22c.46.36,1.11.84,1.14,1.35a4,4,0,0,0-1-.48c.49.1-.09-.36.08-.49-.09.07-.29,0-.35-.07.1.15.2.31.29.47-.34-.15-.28,0-.47,0,.71.26.34.45.47.69-.22-.12-.43-.27-.3-.39-.58-.11.67.65.14.57,0,0,.06,0,0-.12.14.21-.15.32-.3.15l0,0a.75.75,0,0,0-.05,1.13c-.06-.05-.55-.53-.64-.63a15.54,15.54,0,0,1,1.18,1.87c-.36-.42-1.39-1.23-1.45-1.61-.1,0-.21,0-.18.21.09,0,.63.5.62.58a6.94,6.94,0,0,0-.82-.41c.13.05.63.75.52.81-.07-.11-.54-.65-.57-.74.11.27.22.55.31.83a2.52,2.52,0,0,0-.61-.74c.11.12-.19.12-.2.22l.2.1c-.3.07.4,1.16.07,1.31,0-.18-.45-1-.63-1a5.38,5.38,0,0,1,.45,2.46l-.16-.2a2.28,2.28,0,0,1-.15.36c0-.67-.22-2.1-.32-2.64-.18-.13-.16-.25-.29-.16-.14-.19-.08-.35,0-.38h-.37c.22.46,0,.57.11.95a4.47,4.47,0,0,0,.16-.63c.24.44.36,1.43,0,1.44a6.27,6.27,0,0,1-.32-1c0,.17-.13.39-.19.29l0-.3c-.18-.13,0,.73-.34.3-.08,0-.32-.6-.27-.3A14.21,14.21,0,0,1,50,26a2.81,2.81,0,0,1-.67-.72c-.19-.43,0-1.09-.16-1.46a1,1,0,0,1,0,.37c-.09-.11,0-.42-.17-.34,0,.51-.3,0,0,.43-.13.16-.17-.07-.34,0a1.93,1.93,0,0,1-.28,1.27,1.24,1.24,0,0,0-.06-.37c-.35,0-.52-.3-.83-.32,0-.12-.14-.29,0-.5-.05.08-.12.25-.21.24-.11-.46.21,0,.15-.58,0,.3-.28.37-.45.53,0,.45.3.14.45,0a1.92,1.92,0,0,1-.87,1.46c-.33.09,0-.43-.11-.35-.48-.27-.79.94-1.11.33,0-.45.27-.75.33-1,.26-.06.25.36.41.39L45.84,25c.11-.1.28-.16.33,0,0-.37-.81-.33-1-.81-.11.09-.28.16-.31.33H45c0,.35-.42.29-.34.5-.26.12-.64.35-.77,0l.19-.42c-.06.11,0,.32.14.24-.2.11,0-.74-.43-.29v.36c-.28.09-.79.37-.9.08-.18.44.07,0-.09.54.25-.63.56.39.72-.33-.17.62.12.4.09,1,.07-.14.06-.3.23-.13l.1-.09h0v0s0,0,0,0a.43.43,0,0,1,0-.25c.26-.26.54-.1.72-.21.08.12-.12.13-.13.31l.26-.18c-.12.31.1.64-.26.71l.25.12c.08.23.28.39.46.3.11.11.43-.26.25,0l.47-.08,0,.08c.43.15.94-.36,1.35.28a.55.55,0,0,1,.54-.05l0,.29c.18-.08.57.29.65,0,.24.79,1,.1,1.3.18L49.76,27a1.23,1.23,0,0,0,.65-.39l-.1-.32c.15-.31.63.06,1-.09,0,.13-.08.13-.17.07.34.29.53.07.67-.18s.26-.49.56-.35c0-.16.11-.15.22-.11l0,0h0l.21.08a.58.58,0,0,0-.19-.1.61.61,0,0,0,.2-.27l.23.29s0,0,0,0c.17.06,0-.19-.21-.39a.57.57,0,0,0,0-.26c.4.43.13-.33.59.11-.11-.28.32-.53-.06-1.06.06.06.11.07.07.11.13,0,.27,0,.23-.24l.35.3q-.11-.31-.24-.63a.73.73,0,0,1,.61.52c-.12-.66.08-.38-.11-1l.22.2c.07-.1-.13-.49.1-.39.63.15.8-1,1.55-1.37-.85-.24.49-.14-.12-.43.2,0,.35,0,.47.16-.06-.4.52-.41,0-.83.21,0,.27.17.4.17,0,0-.14-.16,0-.17s.15.11.22.19c.07-.39-.54-.59-1.11-.76.32-.09.31-.2-.06-.4.2,0,.42-.08.45.15.05-.11.42-.71-.06-.78.12,0,0-.16,0-.2a1.29,1.29,0,0,0,.07-.55l-.08.07c-.57-.12-.13-.21-.2-.43h.06c.4-.5-.19-.19.24-.7l-.35.06c-.78,0,.4-.46.06-.71l-.18.14c-.28-.09.94-.62,1-.82s.11,0,.17.07c.34-.55-.47,0-.65-.23.23-.12.65-.09.63-.32.15-.19-1-.36-.63-.79-.16.13-.32.26-.51.18s.43-.87-.23-.77a.6.6,0,0,1,.12-.11c-.23-.07-.51-.35-.84-.25.49-.4.2-.54-.07-.64s-.54-.14-.1-.51L54.49,12l.1-.07c-.18-.31-.47-.18-.74-.06,0-.11.11-.15.16-.19-.19-.51-.3-.51-.95-.3l.19-.32c-.19.11-.25-.89-.9-.76a.23.23,0,0,1,.12-.12c-.35.07-.51-.32-.72-.57s-.46-.36-.77.25a4.25,4.25,0,0,0-.43.21c.38.22-.24.54-.14.81-.16,0-.28-.51-.07-.52v.07c.27-.65-.44-.39-.32-.84a12.63,12.63,0,0,0-2.62-.56l.15.54h-.29c-.09-.11-.15-.41.06-.41-.15-.3-.33.3-.31.42C46.58,9.44,47.09,9,47,9L46.79,9l.05.06c-.1.24-.08.46-.32.5s-.15-.32-.22-.32,0-.06-.1,0l-.39.05.26.38c-.11.24-.34.06,0,.49-.21-.33-.56-.28-.87-.18s-.57.32-.69.24a.67.67,0,0,1-.5.58c.1,0,.38.45.16.51-.46-.91-.58-.15-1.16-.61.42.27-.49.51.16.88-.2.06-.25-.29-.52-.37-.1.59-1,.54-1.27,1.12.1.09.32.14.39.36-.23-.06-.47-.11-.71-.15,0,.14.54.52.05.44.11,0,.27.1.26.19a2.07,2.07,0,0,0-.94,1.47,2.61,2.61,0,0,1-1,1.59c.28-.12.28,0,.27.12.07-.07.32.06.5.08a5.45,5.45,0,0,0-.57.41c.48.14,0,.54.46.61l-.07-.15c.54.22,1.26-.17,2-.06-.63-.27,1-.29.14-.72.15,0,.22.1.39.1-.3-.13-.33-.23-.15-.35l.06,0c0-.44.41-.53.77-.85l-.34-.12c.09-.07.2,0,.3,0-.42-.35-.15.24-.64-.11.7.19.36-.68,1.12-.31.09-.12-.37-.18-.28-.31l.21.09-.22-.2c.1-.06.36.07.51.18,0,0,0,.08,0,.11.29.06.14-.33.24-.31l-.2,0c.09-.48.65-.6.67-1.21l-.13-.1c.06-.46.32,0,.52-.34v0c0-.18,0-.3.1-.33,0,.21.34.24.35.49.13-.46,0-.31-.07-1l.18.23c0-.26-.09-.38.06-.53,0,.28.28.34.25.7.54.4.31-.77.75,0-.06-.79-.44-.3-.4-.49-.17-.21,0-.6.11-.57s.48.89.75.82c0,0,0,.06-.05.06.14.17.15-.32.34,0,0-.47.17,0,.12-.58l-.26.17c.12-.17.2-.88.51-.59a1.19,1.19,0,0,1-.12.39c.1.17.14-.14.24,0,0,.58-.33.17-.43.63.11.24.24-.46.24.19,0-.84.27.07.43-.56v.36c0-.06.09-.23.14-.22l-.09.47c.15-.4.28.32.41.13-.28,0,0-.44-.17-.7.42-.45.18.95.58.8-.06,0-.18-.23-.08-.39a.72.72,0,0,1,.17.43c.27,0,0-.37.16-.57,0,.45.17-.15.33-.26l-.08.35c.26.3.26-.71.49-.36l-.25.45.18-.08-.14.38c.23-.24.27-.17.37,0,.06-.25.24-.61.39-.56,0,.23-.18.3,0,.32-.14.2-.28.44-.24.1,0,.11-.12.2-.17.3,0,.27.2.14.27.17a.12.12,0,0,1,0-.11,4.84,4.84,0,0,1,.46-.33.45.45,0,0,1-.17.3c.07,0,.18-.14.27-.13-.16.25-.29.53-.45.6l.38-.18c0,.12-.06.37-.15.45s.59-.31.63,0a.17.17,0,0,1,.14-.08c.1.17,0,.52.41.37l-.27.46c.2,0,.34-.59.68-.53s-.26.36-.32.51c.25-.11.78-.32.58.09C52.33,14.52,52.36,14.44,52.29,14.42Zm1.24,1.74c-.09,0-.34,0-.15-.11C53.79,16,53.62,16.06,53.53,16.16Zm.89,3.52c-.11-.07,0-.11.12-.14S54.52,19.65,54.42,19.68Zm-9.37,6.66v0C45.15,26.51,45.12,26.44,45.05,26.34Zm-.24-.26a.21.21,0,0,0-.07.13c.06-.08.12-.06.19,0C44.94,26.11,44.93,26,44.81,26.08ZM46.29,9.39l.08.08C46.27,9.6,46.28,9.5,46.29,9.39Z"/><path class="cls-2" d="M54,19.15l.2,0A.27.27,0,0,0,54,19.15Z"/><polygon class="cls-2" points="51.23 13.68 51.23 13.68 51.18 13.72 51.23 13.68"/><path class="cls-2" d="M49.05,23.61a.5.5,0,0,1,.11.17C49.15,23.7,49.12,23.62,49.05,23.61Z"/><path class="cls-2" d="M43,25.83l.23,0c-.1,0-.09-.12-.1-.2C43.12,25.74,43.09,25.86,43,25.83Z"/><path class="cls-2" d="M43.16,23.08s0,0-.09,0l-.12.13C43,23.25,43.18,23.2,43.16,23.08Z"/><path class="cls-2" d="M43.54,24.73c.16-.26,0-.23-.13-.27s0,0,0,0C43.15,24.8,43.34,24.77,43.54,24.73Z"/><path class="cls-2" d="M43.38,24.45a.15.15,0,0,1-.09-.06C43.17,24.52,43.3,24.45,43.38,24.45Z"/><path class="cls-2" d="M44.37,26.11c0-.11-.21.33-.19.2C44,26.63,44.79,26.08,44.37,26.11Z"/><polygon class="cls-2" points="44.03 23.85 43.85 24.18 44.08 23.97 44.03 23.85"/><path class="cls-2" d="M44.67,24.56l-.12-.18a.16.16,0,0,1-.11.09C44.54,24.53,44.62,24.66,44.67,24.56Z"/><path class="cls-2" d="M44.44,24.47a.14.14,0,0,0-.16,0A.2.2,0,0,0,44.44,24.47Z"/><polygon class="cls-2" points="44.3 23.89 44.3 23.98 44.39 24.08 44.3 23.89"/><path class="cls-2" d="M46.55,25.33l.23-.07c0-.13,0-.21-.08-.17S46.55,25.2,46.55,25.33Z"/><path class="cls-2" d="M46.25,24.18a1,1,0,0,1,0,.3l.14-.45Z"/><path class="cls-2" d="M46.77,24.21c0-.12.33-.32.11-.33C46.84,24,46.64,24.08,46.77,24.21Z"/><polygon class="cls-2" points="49.54 24.82 49.49 24.84 49.64 25.59 49.54 24.82"/><path class="cls-2" d="M50.94,22.34c-.24-.07.21.42,0,.31.06.17.21.09.26.25C51.15,22.68,51.25,22.74,50.94,22.34Z"/><path class="cls-2" d="M51.15,22.9V23A.55.55,0,0,0,51.15,22.9Z"/><polygon class="cls-2" points="39.12 17.16 38.95 17.34 39.21 17.24 39.12 17.16"/><path class="cls-2" d="M39.66,17.55l-.49,0,.43.12S39.55,17.57,39.66,17.55Z"/><path class="cls-2" d="M52.67,16.72l.11,0c.12-.05.13-.07.14-.13Z"/><polygon class="cls-2" points="52.48 15.33 52.48 15.36 52.84 15.09 52.48 15.33"/><path class="cls-2" d="M51.36,14.79s.12,0,.13.05S51.74,14.4,51.36,14.79Z"/><text class="cls-3" transform="translate(15.59 21.64)">ON</text></svg>