<svg id="Camada_1" data-name="Camada 1" xmlns="http://www.w3.org/2000/svg" viewBox="0 0 66.67 34.42"><defs><style>.cls-1{font-size:11.3px;font-family:AvenirNext-Bold, Avenir Next;font-weight:700;}.cls-1,.cls-2{fill:#b2b5b7;}</style></defs><text class="cls-1" transform="translate(28.47 21.37)">OFF</text><path class="cls-2" d="M49.73,34.18c-.26,0-.16.2-.2.24C50,34.35,49.72,34.12,49.73,34.18Z"/><polygon class="cls-2" points="53.87 33.11 53.82 33.21 54.36 32.86 53.87 33.11"/><path class="cls-2" d="M57.51,31.65c-.49-.15-1.24.7-1.95.83l-.14,0-.19.38C56,32.52,56.93,31.83,57.51,31.65Z"/><path class="cls-2" d="M59.72,31.13c-.19,0,.31-.38-.44.27l.1,0A3.3,3.3,0,0,1,59.72,31.13Z"/><path class="cls-2" d="M59.38,31.37c-.34.27.29-.07,0,0Z"/><path class="cls-2" d="M60.89,30.07l-.34.47c.14,0,.53-.34.43-.17C61.37,29.92,61.22,29.94,60.89,30.07Z"/><path class="cls-2" d="M61.11,29.52l-.18.23C61,29.74,61.05,29.7,61.11,29.52Z"/><path class="cls-2" d="M60.54,30.25l.39-.5c-.1,0-.18-.07-.18.22C60.71,29.86,60.69,30,60.54,30.25Z"/><path class="cls-2" d="M60.24,30.43c-.3.13-.65.34-.28-.1C59.14,31,59.41,31.12,60.24,30.43Z"/><path class="cls-2" d="M57.49,31.22l-.39.11-.25.26C57,31.48,57.57,31.31,57.49,31.22Z"/><path class="cls-2" d="M63.42,27.58c0-.08-.28,0-.38,0l-.18.39C63,27.83,63.31,27.53,63.42,27.58Z"/><path class="cls-2" d="M63,27.58,63.3,27C63,27.44,63,27.56,63,27.58Z"/><polygon class="cls-2" points="60.91 29.16 60.35 30.04 61.05 29.03 60.91 29.16"/><path class="cls-2" d="M64.74,25.55l0,.4a5.4,5.4,0,0,0,.08-.69Z"/><path class="cls-2" d="M65.42,24.09c0,.3.37-.24.34.06A4,4,0,0,0,65.92,23,2.85,2.85,0,0,1,65.42,24.09Z"/><path class="cls-2" d="M66,22.39a5.09,5.09,0,0,0,0,.58A2.24,2.24,0,0,0,66,22.39Z"/><path class="cls-2" d="M63.91,26.15a.69.69,0,0,0,.44-.31l-.31.1C64,26,64,26.08,63.91,26.15Z"/><path class="cls-2" d="M64,25.94h0c.15-.22.24-.38.29-.44Z"/><path class="cls-2" d="M63.88,26.2l0-.05S63.87,26.17,63.88,26.2Z"/><path class="cls-2" d="M62.14,28.14c.17-.33.48-1-.08-.56C62,27.87,62.36,27.63,62.14,28.14Z"/><path class="cls-2" d="M63.5,26.31a5,5,0,0,1-.4.51s.19,0,.13.15A4.8,4.8,0,0,0,63.5,26.31Z"/><polygon class="cls-2" points="63.61 26.01 63.5 26.31 63.64 26.12 63.61 26.01"/><path class="cls-2" d="M65.37,23.39a3.46,3.46,0,0,1,.22-.93c-.17.34-.32.7-.45,1C65.19,23.58,65.24,23.78,65.37,23.39Z"/><path class="cls-2" d="M64.76,24.65v-.06S64.72,24.64,64.76,24.65Z"/><polygon class="cls-2" points="66.31 19.09 66.26 19.14 66.3 19.16 66.31 19.09"/><path class="cls-2" d="M65.08,23.55a1.34,1.34,0,0,0-.17.59c.08-.2.16-.41.23-.64C65.12,23.47,65.1,23.46,65.08,23.55Z"/><path class="cls-2" d="M66.1,21.41q-.12.21-.24.45C66,21.74,66.14,21.48,66.1,21.41Z"/><path class="cls-2" d="M64.87,24.53v0C64.94,24.51,64.92,24.51,64.87,24.53Z"/><path class="cls-2" d="M64.87,24.53a1.84,1.84,0,0,0,0-.39c-.06.16-.1.31-.14.45Z"/><path class="cls-2" d="M65,18c.18,0,.39.77.06,1.33.06.6.76.33,1.2-.18-.08,0-.14,0-.23-.68-.09.22-.41,1.36-.51.82a1.57,1.57,0,0,1,.27-1.06c-.27.32-.31-1.06-.68-.88l.09.7C65.14,18.05,65.07,17.8,65,18Z"/><path class="cls-2" d="M66.06,20.36l0,.27a3.36,3.36,0,0,1,.41-.88c0-.45-.09-.55-.15-.59l-.23,1.29Z"/><path class="cls-2" d="M65.75,21.79c-.16-.26-.09-.89-.41-.57-.18.73,0,.56,0,1,.27-1.22,0,.38.37-.46a3.18,3.18,0,0,1-.13.67c.11-.2.18-.41.27-.6l0,0h0c0,.05-.06.06,0,0v0l-.06-.08c.13-.34.07,0,.06.08l0,0h0l.2-1.26A9,9,0,0,0,65.75,21.79Z"/><path class="cls-2" d="M62.09,26.78s0,0,.06,0S62.18,26.67,62.09,26.78Z"/><path class="cls-2" d="M62.48,26.47a.62.62,0,0,1-.19.41c-.2.16-.08-.06-.14-.1-.06.17-.24.58.17.21l0-.09a2.94,2.94,0,0,1,.91-.62A2.36,2.36,0,0,0,62.48,26.47Z"/><path class="cls-2" d="M64.26,24.25a6.48,6.48,0,0,0,.32-1,3.51,3.51,0,0,1-.37.4l.12,0C64,24.2,64.22,24.15,64.26,24.25Z"/><path class="cls-2" d="M66.43,19l.21.17a5.3,5.3,0,0,0-.28-.65Z"/><polygon class="cls-2" points="66.48 17.61 66.67 17.66 66.57 17.29 66.48 17.61"/><path class="cls-2" d="M5.25,8.17l-.11.25A1.47,1.47,0,0,0,5.25,8.17Z"/><path class="cls-2" d="M6.57,6.77l0-.1C6.51,6.77,6.51,6.82,6.57,6.77Z"/><path class="cls-2" d="M43.17.33c-.42-.18-.89-.47-.83-.25l.12.22A1.78,1.78,0,0,1,43.17.33Z"/><path class="cls-2" d="M21.73,1.63l.12.06.28-.21Z"/><path class="cls-2" d="M21.43,2.52l-.55-.14A2.51,2.51,0,0,0,21.43,2.52Z"/><path class="cls-2" d="M2.3,18l.23.29C2.51,17.78,2.41,18,2.3,18Z"/><path class="cls-2" d="M61.13,5a4.86,4.86,0,0,0-.64-.76C60.77,4.69,60.91,5.07,61.13,5Z"/><path class="cls-2" d="M4,6.06c-.1.17-.12.26-.08.28C4.06,6.18,4.1,6.07,4,6.06Z"/><path class="cls-2" d="M59.6,3.58l.13.16a3.5,3.5,0,0,1,.76.53A1.6,1.6,0,0,0,59.6,3.58Z"/><path class="cls-2" d="M34,31.73l.09,0S34,31.73,34,31.73Z"/><path class="cls-2" d="M46,33.92a3.48,3.48,0,0,1-.49,0A2.26,2.26,0,0,0,46,33.92Z"/><path class="cls-2" d="M65.79,12.11c.1.28,0,0,0,0Z"/><path class="cls-2" d="M65.32,13.69c0-.06-.08-.09-.13-.09A.22.22,0,0,1,65.32,13.69Z"/><path class="cls-2" d="M56.51,3.26h0C56.54,3.33,56.53,3.31,56.51,3.26Z"/><path class="cls-2" d="M65.81,12.57a2.53,2.53,0,0,0,0-.38C65.78,12.25,65.79,12.37,65.81,12.57Z"/><path class="cls-2" d="M65.9,12.48l0,.26S66,12.72,65.9,12.48Z"/><path class="cls-2" d="M65.64,11.73a4.75,4.75,0,0,1,.14.46c0-.06,0-.09,0-.08S65.71,11.92,65.64,11.73Z"/><path class="cls-2" d="M12.09,31.64l.05,0C12.42,31.66,12.3,31.64,12.09,31.64Z"/><path class="cls-2" d="M36.14,2.58h0Z"/><path class="cls-2" d="M35.16,2.74a1.14,1.14,0,0,1,1-.18l-.32-.62Z"/><path class="cls-2" d="M3,12.19c.14-.18.26-.35.4-.51,0,.82-.24,1.26.21.83C3,12.16,4.5,10.33,4,10l.34-.28c-.07.09-.05.13-.11.23.68-.51-.13-.79.6-1.58.26-.27.49-.41.4-.16a7.38,7.38,0,0,1,.41-.72c.17-.17.22,0,0,.12a9,9,0,0,1,.82-.92v0a6.13,6.13,0,0,1,.35-.79c.3-.14-.07.17.05.18a5,5,0,0,1,.43-.57c.35,0,0,.42-.39.74.45,0,.53-.08.67-.28a1.74,1.74,0,0,1,1-.72,4.89,4.89,0,0,0-.47.44c.53,0,.89-.29,1.6-.45-.18,0-1.53.22-1-.3a1.6,1.6,0,0,0,.73-.52c.11.2.44,0,.87-.24l.11.31c.42-.31.31-.46.55-.69A.83.83,0,0,1,12,4c.88-.27-.73-.17.3-.59a9.61,9.61,0,0,0,2.19-.67c.56,0-.07.21.14.27.15-.11.3-.23.45-.32s.09.08.08.12c.4-.12,0-.32.66-.44.16-.38,1.39.47,2.26.08.21.09-.1.19,0,.32a9.76,9.76,0,0,0,2-.55l.83.21c-.61-.24.17-.52.85-.75a5.38,5.38,0,0,0-.53-.27l1.09-.17c.13.05,0,.16-.16.29l.2-.07c.39.11.19.3-.09.48l-.39-.2c-.27.2-.52.41-.46.6a1.09,1.09,0,0,1,.35-.09c-.07,0-.11.1-.08.13s.15,0,.33-.12l.25.36.06-.14,1.42.22a12,12,0,0,1,3.51-1c-.4.26-.08.43-.1.73-.44-.32-1.25.14-2.09.08.44,0,.34.18.23.23l1.49-.3c0,.26.32.19.71.3-.3-.5,1.11-.34,1.72-.49,0,.17-.11.34-.85.3.82.38,1.05-.59,1.86-.27-.18,0-.28,0-.35.07.42-.15,1.45,0,1.21.11h-.18c1.2.06,3.65,0,3.83-.42a1.61,1.61,0,0,1-.23.6l2.15-1.43c-.19.37.53,1.24-.46,1.44a3,3,0,0,0,1.24,0c-.2-.06-.49-.53-.22-.57a6.45,6.45,0,0,0,1.41.57c-.29-.08,0-.65.49-.63-.07.08,0,.56-.13.62L40.11,2c-.28.1,0,.48.21.63-.12-.11,1,0,1.3,0l-.49-.13c1.3.08,1.29-.79,2.57-.76a.44.44,0,0,0,.27.78A5.54,5.54,0,0,1,46.44.87l.22.16.88-.19a17.3,17.3,0,0,1-2.91,1.7c.48.13.13.2.86.18.26.16-.4.24-.61.25l1.69.09c-.07-.33,1.3-.33,1.24-.61L46,2.8c-.08-.34,1.06-1,2.26-.9.31.13-.23.6-.2.71a2.89,2.89,0,0,1,1.25-.14l-.51.18c.67.12,1.08-.43,1.82-.07.27,0,.72.5.79.31C51,2.45,51,1.25,51.37,1a7.93,7.93,0,0,1,1.69.86c.37.41-.8.53-.49.88,0-.09.3-.14.4-.15.25.15-.17.25.41.36.19-.31,1.18.35.36-.21.61.06.58.27,1.24.49-.14-.29.88-.49,1.49-.27-.07.06,0,.22,0,.29A16.78,16.78,0,0,1,59,5.08c0,.12.41.54.14.51a1.5,1.5,0,0,1,.61.31c.31.68-.61-.5-.46.12.15-.11.88.38,1.29.69.14-.35-.81-.87-1.26-1.11.14-.16.44-.18.85-.06a3.94,3.94,0,0,1,1.43.8c.76.69.09.51.25.6,1.09,1.53,1.59.87,2.17,2.42,0,.7-.45.28-.56.49C63,9.21,63,8.7,62.7,8.24c.1.2.17.43.25.64A3.2,3.2,0,0,1,62.28,8a13.45,13.45,0,0,0,.92,1.7,8.62,8.62,0,0,1,.93,2.42c.17.2.41.58.45.36l-.2-.42c.06-.47.58.72.48.14a4.16,4.16,0,0,1,.81,2.07l-.28.22a1,1,0,0,0-.07-.82c.25.33-.19,1.39.28,1.72l.12-.64A4.54,4.54,0,0,1,66.3,17c.28-.38,0-.18.28-.78-.21.27-.22-.25-.26-.73s-.14-.91-.31-.49c.31-.64,0-1,.17-1.86-.09.05-.12.31-.24-.36a.74.74,0,0,1-.12-.13v0s0,0,0,0a.88.88,0,0,1-.06.38,2.59,2.59,0,0,1-.44-.78,7.33,7.33,0,0,0-.42-.79c-.1-.39.16.11.19-.13l-.36-.44c.19-.13-.11-1.11.42-.3l-.37-.78a3.07,3.07,0,0,0-.72-1.48c-.16-.38-.76-.73-.41-.53l-.92-1,0,0A12.44,12.44,0,0,0,61.3,5.28a10.33,10.33,0,0,1-1.57-1.54,14.75,14.75,0,0,1-1.4-.88l0-.24c-.5-.27-1.45-1-1.76-.92-.16-.39-.84-.65-1.56-.89s-1.55-.32-2-.49l-.09.24A8.35,8.35,0,0,0,50.62.44l0,.23A4.46,4.46,0,0,1,49.32.61,11.5,11.5,0,0,0,47.73.48c.08-.09.35-.06.55,0C47,0,45.53.84,44.35.47a1.24,1.24,0,0,1-.72,0h-.05L43.17.33a2.08,2.08,0,0,0,.35.12,5.66,5.66,0,0,0-.91.09L42.46.3h-.07c-.34-.08-.27.12-.09.3a2.15,2.15,0,0,0-.45.15C41.58.36,41,.88,40.6.46c-.23.2-1.7.15-1.88.58,0-.06-.11-.08.07-.09A2.48,2.48,0,0,0,37.7,1L37.54.67l-.83.41C36.22.9,36,.79,36.5.55c-1.19.36-1,.14-2,.5l.05-.2c-.36,0-.94.27-1.16.11-.82-.38-4,0-6.12-.4.4.58-1-.26-1.06.19-.12-.14-.41-.22-.07-.34-1.07.14-1.61-.22-2.34.16-.13-.13.22-.2.12-.28s-.34.12-.45,0,.15-.12.32-.18c-1.09,0-1.2.45-1.28.85a1.18,1.18,0,0,0-1.23.1c-.19-.13-.51-.27.17-.32-.38,0-2.33-.19-2.37.13a1.12,1.12,0,0,0-.63,0c-.86,0-.93-.05-1.77,0l.23,0c-.33.38-.7.1-1.4.18l0,0a2.2,2.2,0,0,0-1.15,0,2.66,2.66,0,0,1-1.15.07l.14.22c0,.26-.37.28-.83.27A2.5,2.5,0,0,0,11.12,2h.35c-.39.34-1.57-.19-2.08,0-.12,0,.13-.15.26-.25-1.37.33,0,.37-.9.87-.25-.06,0-.51-.61-.19a4.3,4.3,0,0,0-1,.81,3.67,3.67,0,0,1-1.33,1c.25,0,.49,0,.18.32a7.27,7.27,0,0,1-1.09.75,1.71,1.71,0,0,0-.8,1c-.09,0-.13,0-.16,0a6.4,6.4,0,0,0-1,1.9c-.46,0-.87.76-1.11,1.51S1.45,11.18,1.12,11C1,11.58.73,12.1.61,12.65l-.07-.07a2.59,2.59,0,0,0-.1,1.85c-.09.24-.13.05-.17,0a4.23,4.23,0,0,0,0,3L0,17.61a6.4,6.4,0,0,1,0,1.46,5.74,5.74,0,0,0,.44,2.31.25.25,0,0,1-.15-.14c.32.82.52,1.84.78,2.73s.63,1.59,1.2,1.62c.27.29.52.57.79.84-.71-1.26.43,0,.25-.61.32.44.62,1.32.16.8l0-.11c-.54.07,1,1.53.72,1.68A21.11,21.11,0,0,0,7.33,31.1a14.55,14.55,0,0,0,1.79,1.13l.93.48,1,.38-.18-.46c.3.12.59.24.88.34s.24.39-.4.15c.27.34,1.15.13,1.18.07,1.25.47-.6.29-.22.39l.56.12-.12-.08a3.46,3.46,0,0,1,1.34,0c.5.15.23.26.44.31,0,0,.06,0,.31.06L16,34l-.46-.31c.53-.12,1.11.07.57-.28.8.54,4.24.19,4.72.35a7.11,7.11,0,0,1,2.26-.18c-.21-.06-.34-.38.4-.34-.27.67,1.36.29,2,.77-.53-.32,2.11-.08,1.27-.53.62,0,0,.25.51.41,1.48-.26,3.25.17,5.08.08,0-.09-.28-.22.11-.36l1,.44c.36,0,.33-.5,1-.2-.09-.07-.23-.18,0-.21,3.57.43,7.3-.35,10.93.45-.49-.17-.17-.19.21-.19-.24,0,0-.22,0-.34l1.52.33c.27-.33,1.62,0,1.78-.34l-.48.06c.64-.37-.89-.83-.8-1.31-.72.43-1.89-.63-3.06,0-.26-.1.22-.15.08-.26a1.79,1.79,0,0,1-1.32.15l.07-.05a43.62,43.62,0,0,1-4.78-.29l.16.24A2.44,2.44,0,0,1,37.9,32c-.52.36,1.27,0,.8.41-.6-.48-3.19,0-3.6-.55-.69,0,.21.27-.49.27l-.18-.15-.18.19c-.46,0-.68-.22-.7-.34a3.34,3.34,0,0,0,.43-.05,9.34,9.34,0,0,0-1.87,0l.67.09c-1.9.14-4.22-.06-6.05.24l.14.11c-1.4.21-1.12-.12-2.66,0l.06,0a3.31,3.31,0,0,1-1.14.16c.38-.14-.73-.26-.22-.4-1.52.22-.76.17-1.76.59l-.23-.19a1.9,1.9,0,0,1-1.14.3c.63-.15-.49-.28.22-.49-1.61-.4-2.39.41-3.13-.18-.74.51,1.39.28,1,.39.34.17-.62.39-1.12.33s-.85-.66-2-.77c.12,0,.13,0,.25,0-.43-.2-.91.05-1.42-.26-.37.23-.7-.2-.88.17.37,0,.74.15,1.12.17l-1,.06a2.19,2.19,0,0,1-1.29-.35,2.7,2.7,0,0,1,.66,0c-.25-.21-.58-.13-.85-.35.12-.17.44-.07.83.06a3.21,3.21,0,0,0,1.24.16c-.27-.24-1.31,0-.87-.37-.31.22-.59.07-.89-.07a2.45,2.45,0,0,0-1.1-.31l.14-.19a2,2,0,0,1-.63-.15l.52-.09a1.42,1.42,0,0,1-.86-.41,2,2,0,0,0-.75-.56c1.12.67.11.4.5.84-1.59-.6-.5-1-2-2,.2.14.64.67.26.53a2.34,2.34,0,0,1-.6-.85c-.92-.77,0,.3-.51.07-.11-.48-.52-.32-1-.67l.18-.16C5,26,5.12,27.2,4.49,26.08l.58.22-.45-.47.3,0A2.49,2.49,0,0,1,4,24.48c0,.21-.46.16-.73-.41-.06-.45.31.11-.1-.67.22.12.48.23.45.67.08,0,.21.1.3.1a4.13,4.13,0,0,0-.59-1.3,1,1,0,0,1,.1.33,11.91,11.91,0,0,1-.78-1.05c0-.21.14-.09.27,0a3.91,3.91,0,0,1-.42-.71c.22,0,.39,0,.66.42a8.24,8.24,0,0,1-.54-1.07c.06-.1.08-.63.19-.5,0-.64-.68-1.5-.54-2.39a.68.68,0,0,1-.12-.32,7.92,7.92,0,0,1,.16-1.19,4.16,4.16,0,0,0,0-.62,3.22,3.22,0,0,0,0-.69l.43-.48c0-.75-.58.65-.45-.62.11-.91.37-.25.54-.53a2.4,2.4,0,0,1,.44-2C3.2,11.75,3.1,11.94,3,12.19ZM8.78,4.92c-.13.14-.36.45-.54.43C8.25,5,8.47,5,8.78,4.92ZM23.23,2.09a.84.84,0,0,1-.63,0A1.76,1.76,0,0,1,23.23,2.09ZM64.36,9.24h0C64.17,8.78,64.23,8.94,64.36,9.24Zm.33.93c.07.08.1.06.11,0a1.09,1.09,0,0,1-.27-.47C64.5,9.8,64.52,9.93,64.69,10.17ZM14.61,33.82l-.18-.09C14.86,33.72,14.74,33.77,14.61,33.82Z"/><path class="cls-2" d="M21.47,2.42a.23.23,0,0,1-.08-.13C21.31,2.33,21.31,2.38,21.47,2.42Z"/><path class="cls-2" d="M2.25,17.9v0l0,0Z"/><path class="cls-2" d="M52.88,3a1.15,1.15,0,0,1-.31-.21C52.55,2.81,52.62,2.88,52.88,3Z"/><path class="cls-2" d="M66.54,15.07l-.16-.62a1.62,1.62,0,0,1,0,.58S66.51,14.87,66.54,15.07Z"/><path class="cls-2" d="M64.9,20.31c0,.09,0,.18,0,.27H65C65.07,20.22,65,20,64.9,20.31Z"/><path class="cls-2" d="M65.82,15.73c-.2.07-.12.44-.06.86v-.07C66.05,16.63,65.93,16.18,65.82,15.73Z"/><path class="cls-2" d="M65.78,16.69c0,.13,0,.27,0,.4S65.82,16.92,65.78,16.69Z"/><path class="cls-2" d="M65.3,11.27c0,.21.29,0,.25.17C65.88,11.57,64.78,10.23,65.3,11.27Z"/><polygon class="cls-2" points="65.17 16.13 65.41 15.96 65.2 15.74 65.17 16.13"/><path class="cls-2" d="M64.78,12.89l.1.66s.08.06.13.15C64.91,13.3,64.85,12.86,64.78,12.89Z"/><path class="cls-2" d="M65,13.7a3.68,3.68,0,0,0,.16.52A2.16,2.16,0,0,0,65,13.7Z"/><polygon class="cls-2" points="65 15.24 65.03 15.05 64.97 14.59 65 15.24"/><path class="cls-2" d="M61.4,6.67l-.54-.48c-.11,0,0,.18.18.36S61.41,6.81,61.4,6.67Z"/><path class="cls-2" d="M62.19,8.78a.66.66,0,0,1,0-.36l-.27.16Z"/><path class="cls-2" d="M60.88,7.23c-.11,0-.85-.56-.25.06C60.73,7.28,61.25,7.75,60.88,7.23Z"/><polygon class="cls-2" points="52 1.92 52.17 1.95 52.23 1.44 52 1.92"/><path class="cls-2" d="M42.52,2.93c.85.12.2-.32,1-.17.2-.12-.63-.12-.42-.22C42.56,2.66,42.29,2.59,42.52,2.93Z"/><path class="cls-2" d="M43.07,2.54l.26-.08A.71.71,0,0,0,43.07,2.54Z"/><polygon class="cls-2" points="48.02 34.2 48.57 34.3 48.22 34.13 48.02 34.2"/><path class="cls-2" d="M49.07,33.82l.13.32.33-.29C49.4,33.86,49.16,33.89,49.07,33.82Z"/><path class="cls-2" d="M10.3,4.81V4.73c-.11-.05-.22,0-.43.09Z"/><polygon class="cls-2" points="5.13 8.87 5.2 8.78 4.83 8.78 5.13 8.87"/><path class="cls-2" d="M3.13,14c.07-.21.07-.48.14-.7C3.2,13.79,2.76,14,3.13,14Z"/><circle class="cls-2" cx="13.69" cy="17.27" r="7.93"/><path class="cls-2" d="M3.94,17.12c0-.09-.29-.07-.34-.08C3.67,17.2,4,17.12,3.94,17.12Z"/><polygon class="cls-2" points="4.74 18.51 4.61 18.5 4.95 18.66 4.74 18.51"/><path class="cls-2" d="M5,19.78c.48-.26-.2-.43-.06-.7L5.05,19H4.6C4.73,19.27,5.09,19.55,5,19.78Z"/><path class="cls-2" d="M4.13,20.84c.18-.12.23.09,0-.2a.11.11,0,0,1,0,.05A.75.75,0,0,1,4.13,20.84Z"/><path class="cls-2" d="M4.1,20.69c-.07-.14-.14.16,0,0Z"/><path class="cls-2" d="M4.47,21.31l-.26-.12c-.09.09,0,.27-.15.24C4.24,21.59,4.33,21.49,4.47,21.31Z"/><path class="cls-2" d="M4.9,21.32l-.11-.06S4.74,21.33,4.9,21.32Z"/><path class="cls-2" d="M4.55,21.13l.24.13c.06-.07.22-.14-.1-.07C4.84,21.14,4.69,21.17,4.55,21.13Z"/><path class="cls-2" d="M4.57,21c.06-.14.09-.3.33-.19C4.71,20.48,4.36,20.66,4.57,21Z"/><path class="cls-2" d="M5.55,19.68l.11-.16-.2-.06C5.56,19.49,5.38,19.74,5.55,19.68Z"/><path class="cls-2" d="M4.8,22.56c.1,0,.22-.22.34-.3L5,22.19C4.93,22.3,4.94,22.46,4.8,22.56Z"/><path class="cls-2" d="M5.14,22.26l.28.08C5.34,22.17,5.25,22.18,5.14,22.26Z"/><polygon class="cls-2" points="5.45 21.1 4.94 20.96 5.48 21.15 5.45 21.1"/><polygon class="cls-2" points="5.26 23.29 4.97 23.33 5.43 23.29 5.26 23.29"/><path class="cls-2" d="M5.64,23.72c-.23.06-.2.34-.37.34a.88.88,0,0,0,.57.07C5.69,24.09,5.61,24,5.64,23.72Z"/><path class="cls-2" d="M6.16,24.11a2,2,0,0,0-.32,0A.73.73,0,0,0,6.16,24.11Z"/><path class="cls-2" d="M5.57,22.68A.47.47,0,0,0,5.4,23l.21-.25Z"/><path class="cls-2" d="M5.62,22.74h0l.09.16Z"/><path class="cls-2" d="M5.56,22.66v0S5.59,22.64,5.56,22.66Z"/><path class="cls-2" d="M5.43,21.7c.22,0,.5.13.63-.2C5.82,21.54,5.75,21.73,5.43,21.7Z"/><path class="cls-2" d="M5.83,22.36c0-.08,0-.15,0-.23s-.15.15-.26.14Z"/><polygon class="cls-2" points="5.98 22.39 5.83 22.36 5.86 22.44 5.98 22.39"/><path class="cls-2" d="M6.12,23.61a.45.45,0,0,1,.35.14,1,1,0,0,0-.18-.36C6.2,23.44,6,23.51,6.12,23.61Z"/><path class="cls-2" d="M5.89,23.18h0S5.93,23.15,5.89,23.18Z"/><polygon class="cls-2" points="7.31 24.59 7.33 24.53 7.29 24.57 7.31 24.59"/><path class="cls-2" d="M6.32,23.34c0-.11-.11-.11-.23-.09a.72.72,0,0,1,.2.14S6.35,23.35,6.32,23.34Z"/><path class="cls-2" d="M6.5,24.27a2.18,2.18,0,0,0,0-.25C6.47,24.13,6.43,24.31,6.5,24.27Z"/><path class="cls-2" d="M5.86,23.27h0C5.81,23.33,5.83,23.31,5.86,23.27Z"/><path class="cls-2" d="M5.86,23.27a.93.93,0,0,0,.23,0,.48.48,0,0,0-.18-.06Z"/><path class="cls-2" d="M8.88,23.22c-.19.22-.55.31-.46-.06-.28,0-.87.83-1.09,1.37a.54.54,0,0,1,.45-.18c0-.16-.09-.59.21-.67s.09.22.09.42c.16-.35.6-.21.89-.68l-.29,0C8.73,23.37,8.88,23.31,8.88,23.22Z"/><path class="cls-2" d="M7,24.22l-.09,0a1.12,1.12,0,0,1,0,.52.48.48,0,0,0,.38-.13L7,24.23Z"/><path class="cls-2" d="M6.66,23.9c.28-.17.53-.13.69-.46-.19-.16-.31.06-.52,0,.33.26-.21,0-.14.39a.75.75,0,0,1-.22-.12,1.93,1.93,0,0,1,0,.27v0h0s0-.06,0,0h0l.1-.07c0,.14,0,.07-.1.07l0,0h0c.14.07.29.12.43.18C6.92,24.09,6.83,24,6.66,23.9Z"/><path class="cls-2" d="M6.76,21.33a.13.13,0,0,1-.06.05S6.78,21.37,6.76,21.33Z"/><path class="cls-2" d="M6.67,21.56s-.18.05-.19,0,.13-.08.22-.14c-.1,0-.29-.05-.34.18h0a1.23,1.23,0,0,1-.31.58A4.47,4.47,0,0,0,6.67,21.56Z"/><path class="cls-2" d="M6.65,22.66l.33.16.12-.3L7,22.63C6.91,22.44,6.77,22.6,6.65,22.66Z"/><polygon class="cls-2" points="7.23 24.74 6.97 24.96 7.45 24.73 7.23 24.74"/><polygon class="cls-2" points="7.63 25 7.44 25.23 7.65 25.17 7.63 25"/><path class="cls-2" d="M19.05,14.27l-.11,0A.23.23,0,0,0,19.05,14.27Z"/><path class="cls-2" d="M19.25,14.71l.14-.05C19.31,14.67,19.25,14.69,19.25,14.71Z"/><path class="cls-2" d="M18.65,25.72c.28.16.67.43.47.15l-.21-.25A.22.22,0,0,1,18.65,25.72Z"/><path class="cls-2" d="M21.36,19h-.11l.29.15Z"/><path class="cls-2" d="M20.06,18.63l.23-.1A.67.67,0,0,0,20.06,18.63Z"/><path class="cls-2" d="M17.08,12.56l-.25.23C16.92,12.85,17,12.69,17.08,12.56Z"/><path class="cls-2" d="M12.09,26.84a.7.7,0,0,0,.31.26C12.26,26.88,12.18,26.58,12.09,26.84Z"/><path class="cls-2" d="M22.21,12.84a.28.28,0,0,0-.22,0A.21.21,0,0,0,22.21,12.84Z"/><path class="cls-2" d="M12.79,27.13l-.06-.08a.48.48,0,0,1-.33.05C12.5,27.25,12.63,27.34,12.79,27.13Z"/><path class="cls-2" d="M8.74,13.76H8.69S8.73,13.78,8.74,13.76Z"/><path class="cls-2" d="M4.46,15.81s0-.11,0-.17S4.43,15.72,4.46,15.81Z"/><path class="cls-2" d="M9.19,26.16c-.1,0,0,0,0,0Z"/><path class="cls-2" d="M9.38,24.82a.44.44,0,0,0,.11-.12A.44.44,0,0,1,9.38,24.82Z"/><path class="cls-2" d="M13.78,25.15h0C13.76,25.08,13.77,25.1,13.78,25.15Z"/><path class="cls-2" d="M9.12,26a.52.52,0,0,0,.07.15A.85.85,0,0,0,9.12,26Z"/><path class="cls-2" d="M9.07,26.11,9,26S9,26.12,9.07,26.11Z"/><path class="cls-2" d="M9.33,26.21a.36.36,0,0,1-.14-.1s0,.05,0,.05Z"/><path class="cls-2" d="M12.94,10.38l0,0C12.87,10.49,12.89,10.47,12.94,10.38Z"/><polygon class="cls-2" points="18.29 21.74 18.3 21.76 18.31 21.76 18.29 21.74"/><path class="cls-2" d="M18.28,21.41c.23.34.15.35,0,.35l.74.59C18.8,22,18.54,21.71,18.28,21.41Z"/><path class="cls-2" d="M18.31,13.37l-.12.3c-.5.17-.44,0-.67.34.81-.65.41.35,1.25-.22l-.12.21s-.06,0-.07,0c-.29.42.7-.28.72,0a.29.29,0,0,1-.25.26l.33.06c0,.06-.15.13-.17.07s.14.17.21.25h0a3.7,3.7,0,0,1,.56,0c-.1.14-.12,0-.23.08l.31.08c-.22.16-.51.11-.53,0-.87.53.3,0-.15.58l-.17-.11c-.51.29-.28.33-.57.58.17-.07.76-.59,1.06-.5-.06.08-.07.15.16.2-.35.1-.24.17-.2.28l-.46.11c.16.09.39,0,.62.05,0,.16-.36.26-.67.34-.05.24.57-.26.69,0-.17.23.07.33.36.56-.16.16-.29,0-.43.05l.39.11s-.13,0-.19,0c.15.1.48,0,.62.17.54.07-.78.35-.2.59-.14,0-.29,0-.48,0a4.9,4.9,0,0,0,.75.59l-.34.16a1.28,1.28,0,0,1,1.07.47l.42-.08a2.83,2.83,0,0,1,.17.4.77.77,0,0,1-.41-.16l.09.09a.93.93,0,0,1-.69-.2l.31,0a2.85,2.85,0,0,0-.85-.32.31.31,0,0,1,.11.12.58.58,0,0,0-.19-.06c-.05,0,.06.05.16.12l-.54-.06.2.06-.41.25c.46.39,1.09.89,1.11,1.44a3.52,3.52,0,0,0-1-.49c.5.1-.08-.38.09-.53-.09.08-.28,0-.35-.07.1.16.19.33.28.51-.34-.16-.28,0-.47,0,.71.25.32.47.45.72-.23-.11-.44-.27-.3-.41-.59-.09.66.68.12.62,0,0,.07-.05,0-.13.13.21-.17.35-.32.18l0,0a.83.83,0,0,0-.11,1.2c-.06-.05-.55-.53-.64-.63a13.43,13.43,0,0,1,1.15,1.91c-.35-.43-1.4-1.22-1.44-1.62-.11,0-.22,0-.2.23.09,0,.64.49.62.58a5.61,5.61,0,0,0-.85-.39c.14,0,.63.75.51.82-.06-.12-.54-.65-.57-.75.11.28.21.57.29.85a2.16,2.16,0,0,0-.62-.73c.13.11-.2.13-.21.24l.2.09c-.32.08.37,1.18,0,1.34,0-.18-.44-1-.63-1,.16.41.65,2,.39,2.48l-.16-.2c0,.13-.11.26-.17.38,0-.68-.17-2.13-.25-2.67-.2-.13-.16-.25-.31-.16a.28.28,0,0,1,0-.38h-.41c.22.47-.08.59.08,1a4.92,4.92,0,0,0,.21-.65c.24.43.33,1.44,0,1.46a5.36,5.36,0,0,1-.31-1c0,.17-.16.4-.22.29l0-.29c-.2-.13-.06.73-.39.3-.08,0-.34-.58-.28-.29A13.49,13.49,0,0,1,15.65,26a2.74,2.74,0,0,1-.72-.71c-.2-.43,0-1.09-.15-1.46a.94.94,0,0,1,0,.37c-.09-.11,0-.42-.18-.34,0,.51-.34,0,0,.44-.15.16-.18-.08-.37-.05a1.84,1.84,0,0,1-.32,1.28,1.19,1.19,0,0,0-.06-.37c-.38,0-.57-.31-.91-.33,0-.12-.16-.28-.06-.5-.06.09-.13.25-.23.24-.12-.47.23,0,.16-.58-.05.3-.31.36-.49.52,0,.46.33.15.49,0a1.82,1.82,0,0,1-.92,1.45c-.36.08,0-.43-.12-.35-.53-.28-.83.93-1.19.31-.06-.46.27-.76.33-1,.28-.05.27.38.45.41L11.14,25c.12-.11.31-.16.36,0-.05-.38-.89-.36-1.12-.86-.13.09-.31.15-.33.33h.15c0,.35-.44.28-.34.5-.27.11-.68.33-.83,0l.2-.42c-.07.11,0,.33.15.25-.21.11,0-.76-.46-.32v.38c-.29.08-.81.35-.94.05-.17.44.08,0-.07.55.23-.64.6.42.74-.32-.16.63.15.42.13,1,.07-.13.05-.3.23-.12L9.11,26h0v0s0,0,0,0a.43.43,0,0,1,0-.25c.27-.26.58-.09.76-.2.08.13-.12.14-.13.31l.28-.17c-.13.32.12.65-.27.71l.28.13c.09.24.3.4.49.32.12.11.46-.26.26,0l.51-.08,0,.09c.46.15,1-.35,1.45.3A.59.59,0,0,1,13.3,27l0,.29c.2-.08.62.29.7,0,.26.8,1,.1,1.39.18l0-.38a1.23,1.23,0,0,0,.71-.4l-.1-.32c.16-.31.67.06,1-.11,0,.13-.09.13-.19.08.36.29.57.06.72-.19s.29-.51.61-.38c0-.16.12-.16.23-.12s0,0,0,0l0,0,.22.08a.73.73,0,0,0-.2-.1.61.61,0,0,0,.22-.28l.24.28s0,0,0,0c.18,0,0-.19-.21-.39a.61.61,0,0,0,0-.27c.41.43.14-.34.61.09-.1-.29.36-.55,0-1.09.06.06.11.07.07.12.14,0,.29-.06.25-.27l.35.3a5.39,5.39,0,0,0-.22-.64c.31.08.49.13.61.51-.09-.68.1-.39-.07-1l.22.21c.07-.11-.12-.51.12-.42.64.13.86-1.06,1.63-1.5-.85-.23.5-.16-.12-.46.21,0,.36,0,.48.17-.05-.44.54-.45.06-.89.21,0,.26.17.39.17,0,0-.13-.17,0-.18s.15.11.21.2c.09-.42-.52-.62-1.09-.79.33-.11.31-.22-.06-.43.21,0,.43-.1.46.15.05-.12.43-.76-.06-.84.13,0,.05-.17,0-.21a1.76,1.76,0,0,0,.07-.6l-.08.08c-.57-.13-.13-.24-.2-.47h.06c.39-.54-.19-.21.23-.76l-.35.07c-.77,0,.4-.5.06-.77l-.19.14c-.27-.09.94-.64,1-.86.06-.05.12,0,.18.08.34-.58-.47,0-.65-.25.23-.14.65-.09.62-.34.15-.19-1-.4-.66-.86-.15.14-.3.27-.5.19s.41-.92-.25-.83a.38.38,0,0,1,.11-.11c-.23-.09-.53-.39-.86-.3.48-.4.18-.56-.1-.67s-.56-.18-.12-.54L20.49,11l.1-.06c-.19-.33-.5-.21-.77-.1,0-.11.11-.15.16-.19-.22-.53-.33-.53-1-.34l.18-.32c-.19.1-.3-.93-1-.82A.38.38,0,0,1,18.31,9c-.37.06-.55-.34-.79-.59S17,8,16.71,8.64a4.58,4.58,0,0,0-.46.2c.42.23-.24.54-.12.81-.18,0-.32-.51-.09-.52V9.2c.28-.65-.48-.4-.37-.85a13.74,13.74,0,0,0-2.81-.57l.15.54h-.31c-.1-.12-.17-.41.07-.42-.16-.29-.36.31-.34.43-.47-.16.08-.66,0-.65l-.19.06.05.06c-.11.25-.09.46-.36.5S11.74,8,11.67,8s0-.05-.11,0l-.42,0,.27.38c-.11.25-.36.07-.05.5-.23-.33-.6-.27-.94-.16s-.61.33-.74.26a.77.77,0,0,1-.56.61c.11,0,.39.44.16.51-.46-.91-.61-.13-1.2-.58.43.26-.53.54.13.9-.21.07-.25-.29-.52-.36-.14.62-1,.59-1.37,1.21.1.09.32.14.39.36L6,11.54c0,.15.54.53,0,.47.11,0,.27.09.26.18a2.4,2.4,0,0,0-1,1.59,2.89,2.89,0,0,1-1.08,1.73c.28-.13.29,0,.27.13.08-.08.32.06.5.07-.19.14-.39.29-.57.45.48.15,0,.58.46.66l-.08-.17c.55.24,1.26-.19,2-.08-.63-.29,1-.34.15-.8.16,0,.22.11.39.11-.3-.14-.33-.25-.15-.38l.07,0c0-.49.43-.59.81-1l-.34-.12A.44.44,0,0,1,8,14.4c-.42-.36-.17.27-.65-.09.71.17.4-.75,1.16-.39.1-.14-.37-.18-.27-.32l.21.08-.22-.2c.1-.07.37,0,.52.16,0,0,0,.09,0,.12.29.05.16-.35.26-.34l-.2,0c.11-.51.72-.68.77-1.31L9.44,12c.09-.48.34,0,.57-.37v0c0-.19,0-.31.13-.35,0,.21.35.23.35.48.17-.47,0-.32,0-1l.18.22c0-.26-.08-.39.09-.54-.06.29.28.33.24.7.58.39.37-.79.82,0,0-.8-.47-.29-.42-.48-.17-.21,0-.6.14-.57s.5.88.8.79c0,0,0,.06-.06.07.16.17.18-.33.38,0,0-.46.19,0,.14-.58l-.29.17c.14-.17.23-.88.58-.59a1.3,1.3,0,0,1-.14.39c.1.16.15-.15.26,0,0,.59-.36.18-.48.65.12.23.28-.47.27.18,0-.84.3.06.48-.56V11c0-.06.09-.23.16-.22l-.11.46c.17-.4.32.33.47.13-.32,0-.06-.44-.2-.7.47-.45.21.95.65.81-.06,0-.2-.23-.09-.39a.72.72,0,0,1,.2.43c.3,0,0-.37.17-.57,0,.45.18-.14.36-.25l-.08.35c.3.3.27-.71.54-.35l-.27.44.2-.07-.15.38c.25-.24.3-.16.42,0,0-.25.24-.61.4-.55,0,.24-.18.29.06.33-.14.19-.29.44-.26.09,0,.11-.13.19-.18.3,0,.27.23.15.31.18a.14.14,0,0,1,0-.11,3.84,3.84,0,0,1,.5-.32.51.51,0,0,1-.18.3c.07,0,.18-.14.29-.12-.16.25-.3.52-.47.59l.41-.16c0,.12,0,.37-.13.45,0,.23.62-.28.68,0a.26.26,0,0,1,.15-.07c.12.19,0,.55.47.42l-.27.47c.22.05.32-.6.7-.52s-.26.37-.31.53c.25-.11.8-.3.61.13C18.36,13.48,18.38,13.39,18.31,13.37Zm1.36,2c-.09,0-.34,0-.15-.14C19.93,15.12,19.76,15.23,19.67,15.34Zm.9,3.9c-.1-.07,0-.11.12-.15S20.68,19.2,20.57,19.24Zm-10.24,7.1h0C10.44,26.52,10.41,26.45,10.33,26.34Zm-.26-.27a.16.16,0,0,0-.07.14c.05-.08.13-.06.2,0C10.21,26.11,10.19,26,10.07,26.07Zm1.59-18,.08.08C11.63,8.33,11.64,8.23,11.66,8.12Z"/><path class="cls-2" d="M20.21,18.67l.19,0A.21.21,0,0,0,20.21,18.67Z"/><polygon class="cls-2" points="17.13 12.52 17.13 12.51 17.08 12.56 17.13 12.52"/><path class="cls-2" d="M14.66,23.65a.41.41,0,0,1,.12.17C14.77,23.73,14.74,23.66,14.66,23.65Z"/><path class="cls-2" d="M8.18,25.77l.24,0c-.1,0-.09-.13-.11-.21C8.27,25.68,8.24,25.8,8.18,25.77Z"/><path class="cls-2" d="M8.2,22.94s0,0-.09,0L8,23C8.09,23.11,8.23,23.07,8.2,22.94Z"/><path class="cls-2" d="M8.68,24.66c.16-.26,0-.23-.15-.27h0C8.27,24.72,8.47,24.7,8.68,24.66Z"/><path class="cls-2" d="M8.5,24.37a.14.14,0,0,1-.1-.07C8.28,24.43,8.42,24.36,8.5,24.37Z"/><path class="cls-2" d="M9.6,26.09c0-.1-.21.33-.19.2C9.17,26.61,10,26.08,9.6,26.09Z"/><polygon class="cls-2" points="9.16 23.78 8.98 24.11 9.21 23.9 9.16 23.78"/><path class="cls-2" d="M9.87,24.53l-.13-.19a.15.15,0,0,1-.12.09C9.73,24.5,9.82,24.63,9.87,24.53Z"/><path class="cls-2" d="M9.62,24.43a.14.14,0,0,0-.17,0A.27.27,0,0,0,9.62,24.43Z"/><polygon class="cls-2" points="9.45 23.83 9.45 23.93 9.56 24.03 9.45 23.83"/><path class="cls-2" d="M11.92,25.36l.24-.07c.05-.12,0-.21-.09-.17S11.91,25.23,11.92,25.36Z"/><path class="cls-2" d="M11.56,24.2a.75.75,0,0,1,0,.3l.14-.45Z"/><path class="cls-2" d="M12.14,24.24c0-.12.35-.31.11-.32C12.2,24,12,24.11,12.14,24.24Z"/><polygon class="cls-2" points="15.17 24.86 15.12 24.88 15.27 25.63 15.17 24.86"/><path class="cls-2" d="M16.81,22.29c-.27-.07.2.42-.07.32,0,.18.22.08.26.24C17,22.62,17.12,22.69,16.81,22.29Z"/><path class="cls-2" d="M17,22.85A.28.28,0,0,0,17,23,.55.55,0,0,0,17,22.85Z"/><polygon class="cls-2" points="3.97 16.49 3.79 16.68 4.06 16.57 3.97 16.49"/><path class="cls-2" d="M4.5,16.9l-.48,0,.43.13S4.39,16.93,4.5,16.9Z"/><path class="cls-2" d="M18.82,15.93l.12,0c.12-.05.12-.08.13-.14Z"/><polygon class="cls-2" points="18.56 14.37 18.57 14.4 18.92 14.13 18.56 14.37"/><path class="cls-2" d="M17.34,13.7s.14,0,.16.07S17.72,13.31,17.34,13.7Z"/></svg>