<svg id="Camada_1" data-name="Camada 1" xmlns="http://www.w3.org/2000/svg" viewBox="0 0 106.88 24.48"><defs><style>.cls-1{fill:#878787;}</style></defs><rect class="cls-1" x="0.75" y="0.72" width="105.63" height="22.92" rx="11.46"/><path class="cls-1" d="M11.91.13c.37,0,.24-.11.3-.13C11.58.05,11.93.16,11.91.13Z"/><polygon class="cls-1" points="6.24 1.98 6.31 1.89 5.61 2.44 6.24 1.98"/><path class="cls-1" d="M2.25,5.81a7.41,7.41,0,0,0,.82-1A7.09,7.09,0,0,1,4.2,3.53l.15-.08L4.59,3A14.91,14.91,0,0,0,2.25,5.81Z"/><path class="cls-1" d="M.6,8.37C.73,8.21.43,9,.87,7.7l-.06.12C.76,7.94.7,8.1.6,8.37Z"/><path class="cls-1" d="M.81,7.82c.2-.57-.19.35,0,0Z"/><path class="cls-1" d="M.15,10.54l.06-.8c-.06.15-.18.86-.17.59C0,11.16,0,11,.15,10.54Z"/><path class="cls-1" d="M.21,11.3c0-.14,0-.28,0-.41C.17,11,.17,11.06.21,11.3Z"/><path class="cls-1" d="M.28,10l-.07.87a.45.45,0,0,0,0-.4C.29,10.57.26,10.39.28,10Z"/><path class="cls-1" d="M.4,9.54c.15-.42.32-1,.18-.19.16-.73.25-1,.2-1A4,4,0,0,0,.4,9.54Z"/><path class="cls-1" d="M2.26,6.15l.34-.46.24-.43C2.7,5.46,2.18,6.14,2.26,6.15Z"/><path class="cls-1" d="M.4,15.48s0-.29.06-.36-.13-.37-.18-.56A7.19,7.19,0,0,1,.4,15.48Z"/><path class="cls-1" d="M.46,15.12a8.22,8.22,0,0,0,.3.83C.54,15.2.5,15.06.46,15.12Z"/><path class="cls-1" d="M.4,11.45A8.44,8.44,0,0,1,.43,10a10.61,10.61,0,0,0,0,1.69Z"/><polygon class="cls-1" points="1.75 18.58 1.41 18.19 1.99 18.89 1.75 18.58"/><path class="cls-1" d="M3.1,20.37c-.31-.23.25.46-.05.2a7.19,7.19,0,0,0,1.25,1A6,6,0,0,1,3.1,20.37Z"/><path class="cls-1" d="M5,22c-.21-.14-.44-.26-.68-.42A4.79,4.79,0,0,0,5,22Z"/><path class="cls-1" d="M1.3,17.33a2.07,2.07,0,0,0,.2.67l-.05-.36C1.4,17.55,1.35,17.44,1.3,17.33Z"/><path class="cls-1" d="M1.44,17.63h0a7.2,7.2,0,0,0,.35.66A7.32,7.32,0,0,1,1.44,17.63Z"/><path class="cls-1" d="M1.26,17.25l0,.08A.15.15,0,0,0,1.26,17.25Z"/><path class="cls-1" d="M.37,13.7c.13.5.37,1.51.29.5C.54,13.86.57,14.44.37,13.7Z"/><path class="cls-1" d="M1.2,16.82.91,16s0,.19-.12,0Z"/><polygon class="cls-1" points="1.43 17.21 1.2 16.82 1.34 17.13 1.43 17.21"/><path class="cls-1" d="M3.82,20.91c.33.23.63.54,1.05.82-.43-.32-.8-.73-1.19-1.07C3.62,20.62,3.4,20.52,3.82,20.91Z"/><path class="cls-1" d="M2.54,19.4s0,.05,0,.07S2.54,19.39,2.54,19.4Z"/><polygon class="cls-1" points="9.21 23.85 9.14 23.81 9.12 23.82 9.21 23.85"/><path class="cls-1" d="M3.64,20.58A3.83,3.83,0,0,0,3,20l.65.69S3.73,20.67,3.64,20.58Z"/><path class="cls-1" d="M6.15,22.72l-.56-.41A2.85,2.85,0,0,0,6.15,22.72Z"/><path class="cls-1" d="M2.65,19.6l0-.05C2.67,19.67,2.67,19.65,2.65,19.6Z"/><path class="cls-1" d="M2.65,19.6A3.24,3.24,0,0,0,3,20c-.18-.17-.3-.36-.44-.5A.49.49,0,0,1,2.65,19.6Z"/><path class="cls-1" d="M10.75,23.45a1.7,1.7,0,0,1-.68,0,5.49,5.49,0,0,1-1.21-.33c-.81-.23-.44.32.28.67,0,0,0,0,.94.07-.31-.08-1.9-.61-1.14-.49a14.78,14.78,0,0,1,1.48.41c-.23-.1.15-.09.55-.08s.83-.07.71-.16a8.47,8.47,0,0,1-1,0S11,23.52,10.75,23.45Z"/><path class="cls-1" d="M7.49,23.25l-.34-.15c.37.21.65.34,1.16.61a1.75,1.75,0,0,0,.81.11,11,11,0,0,1-1.75-.61Z"/><path class="cls-1" d="M5.67,22.28c.31.07,1.09.49.69.1-.93-.55-.7-.31-1.25-.66,1.45,1-.47-.22.56.55a5.85,5.85,0,0,1-.8-.54c.25.2.48.42.72.58l0,0h0c-.06-.05-.07-.07,0,0l0,0s0,0,.09,0c.43.29.06.07-.09,0s0,0,0,0h0a12.59,12.59,0,0,0,1.59.82A14,14,0,0,1,5.67,22.28Z"/><path class="cls-1" d="M1.08,15.05s0,0,0,.06S1.13,15.25,1.08,15.05Z"/><path class="cls-1" d="M1.21,15.74A1.71,1.71,0,0,1,1,15.15c-.05-.35.05,0,.08,0C1,14.88.78,14.3.92,15.05l0,.12c.11.69.36,1.56.28,1.46A3.22,3.22,0,0,0,1.21,15.74Z"/><path class="cls-1" d="M2.91,19.39a14.12,14.12,0,0,0,1,1.06l-.43-.61,0,.06C2.92,19.28,3,19.43,2.91,19.39Z"/><path class="cls-1" d="M9.36,23.94,9.14,24A6.55,6.55,0,0,0,10,24,5,5,0,0,1,9.36,23.94Z"/><polygon class="cls-1" points="11.28 24.23 11.2 24.33 11.72 24.29 11.28 24.23"/><path class="cls-1" d="M105.58,10.11c0-.13-.08-.26-.11-.38C105.52,9.91,105.56,10,105.58,10.11Z"/><path class="cls-1" d="M105.74,13l0,.07C105.76,12.89,105.75,12.83,105.74,13Z"/><path class="cls-1" d="M56.5,24.27c.6.09,1.28.23,1.21.12l-.19-.11A8.27,8.27,0,0,1,56.5,24.27Z"/><path class="cls-1" d="M87.44,23.62l-.18,0-.41.1Z"/><path class="cls-1" d="M87.86,23.17l.8.07C88.48,23.22,88.23,23.19,87.86,23.17Z"/><path class="cls-1" d="M94.27,1.43l-.49.11C94.54,1.54,94.21,1.49,94.27,1.43Z"/><path class="cls-1" d="M30.17,24.24c.52,0,.93.06,1.3.06A4.1,4.1,0,0,0,30.17,24.24Z"/><path class="cls-1" d="M106.88,11.12c0-.27-.09-.38-.1-.37C106.84,11,106.85,11.18,106.88,11.12Z"/><path class="cls-1" d="M33,24.3l-.28,0c-.38,0-.76,0-1.23,0A5.87,5.87,0,0,0,33,24.3Z"/><path class="cls-1" d="M34.63,1.34H34.5S34.54,1.34,34.63,1.34Z"/><path class="cls-1" d="M17.26.25H18A5.91,5.91,0,0,0,17.26.25Z"/><path class="cls-1" d="M18.73,24.32c-.39,0-.06,0,0,0Z"/><path class="cls-1" d="M16.83,23.9c.08,0,.15,0,.16-.06A.3.3,0,0,1,16.83,23.9Z"/><path class="cls-1" d="M36.87,23.63h0C36.78,23.61,36.8,23.61,36.87,23.63Z"/><path class="cls-1" d="M18.14,24.28l.5,0Z"/><path class="cls-1" d="M18.22,24.33h-.34C17.83,24.33,17.87,24.35,18.22,24.33Z"/><path class="cls-1" d="M19.27,24.32h0Z"/><path class="cls-1" d="M66.58,1.05H66.5C66.11,1.09,66.28,1.08,66.58,1.05Z"/><path class="cls-1" d="M66.65,23.14h0Z"/><path class="cls-1" d="M68.05,23.06a4.24,4.24,0,0,1-1.38.09l.46.31Z"/><path class="cls-1" d="M102.29,4.26a6,6,0,0,1,.58.73c-.87-.71-1.46-1.23-.91-.57.17-.09.84.51,1.38,1.21s1,1.49,1.18,1.46l.2.58-.18-.33a3,3,0,0,0,.49,1,2.72,2.72,0,0,1,.54,1.25c.13.53.09.91,0,.56a11.55,11.55,0,0,1,.24,1.17c0,.36,0,.27-.06-.07l.06.91c0,.3,0,.61,0,.92v0a6.38,6.38,0,0,1,0,1.16c-.12.46,0-.24-.06-.12a7.17,7.17,0,0,1-.15,1c-.2.37,0-.46.09-1.15a2.53,2.53,0,0,0-.32,1,4.35,4.35,0,0,1-.61,1.73c.13-.28.2-.6.31-.89-.2.25-.32.56-.53.89a6,6,0,0,1-.73,1.15c.22-.14,1.26-1.74.85-.73-.14.28-.37.61-.62,1.16-.1-.06-.41.43-.86,1l-.09-.14c-.49.6-.36.63-.66,1-.65.59-.88.58-1.11.62-1.12.8.89-.41-.42.59a19.33,19.33,0,0,1-3,1.48c-.81.15.11-.13-.18-.1s-.45.21-.68.29-.12,0-.1-.05c-.59.14,0,.18-1,.35a3.31,3.31,0,0,1-1.25,0,8.54,8.54,0,0,0-2,0c-.31,0,.15-.1,0-.16-1.71.13-1.46.1-2.86.27l-1.2-.1c.88.12-.24.26-1.22.38l.75.13-1.57.09c-.19,0,0-.08.23-.15l-.29,0c-.56-.06-.27-.15.13-.24l.57.1c.38-.1.75-.21.67-.3a4.81,4.81,0,0,1-.52,0c.1,0,.17,0,.12-.07a2.88,2.88,0,0,0-.47.06l-.36-.17-.08.07-2.05-.11a46.18,46.18,0,0,1-5.08.51c.58-.13.13-.21.16-.37a23.83,23.83,0,0,0,3,0c-.63,0-.49-.09-.33-.12l-2.15.15c0-.13-.46-.1-1-.15.42.25-1.61.17-2.48.25-.06-.09.15-.17,1.22-.15-1.18-.19-1.52.29-2.68.13a1.61,1.61,0,0,0,.5,0c-.61.07-2.1,0-1.75-.06h.26a33.24,33.24,0,0,0-5.53.21,1,1,0,0,1,.33-.3l-3.09.72c.28-.19-.77-.62.67-.73a13.46,13.46,0,0,0-1.8,0c.29,0,.71.27.32.28-1-.2-.73-.1-2-.28.42,0-.05.33-.72.32.11,0-.05-.28.19-.31l-1.66.28c.42-.05.08-.24-.29-.32.17.05-1.44,0-1.88,0l.7.07c-1.87-.05-1.85.39-3.71.38.23-.06.56-.36-.39-.4a13.57,13.57,0,0,1-3.56.81l-.31-.08L50.21,24c.78-.22,3-.67,4.19-.85a4.8,4.8,0,0,0-1.25-.09c-.37-.08.58-.12.89-.12l-2.45-.05c.11.17-1.87.17-1.77.31L52.47,23c.11.17-1.53.48-3.27.45-.44-.07.33-.3.3-.35a11.21,11.21,0,0,1-1.81.06l.74-.08a26.28,26.28,0,0,1-2.73.06c-.4,0-1.2-.22-1.26-.12.65.19.77.79.34.93-.14,0-2.1-.18-2.56-.28-.65-.15,1-.36.43-.49a1.49,1.49,0,0,1-.54.12c-.42,0,.18-.14-.74-.12-.15.17-1.85,0-.43.15-.89.05-.95,0-2,0,.33.11-1,.37-1.84.42,0,0-.15-.1-.24-.12-1.83,0-2.82-.1-4.52-.1-.16,0-1-.09-.63-.16a5.86,5.86,0,0,1-1,.09c-1-.15,1.17,0,.4-.2a13.6,13.6,0,0,1-2.11.2,9.86,9.86,0,0,0,2.48,0c0,.21-1.3.43-3.09.53-1.41.05-.61-.14-.86-.11-2.66,0-2.27.37-4.48.22-.87-.14,0-.27-.23-.37,1.15-.05,1.77.09,2.56.08l-1-.06a8.91,8.91,0,0,1,1.56,0c-.74-.12-4.5,0-6.55-.14-.37.05-1,.1-.7.15l.65,0c.6.11-1.22.15-.4.2a20.09,20.09,0,0,1-3.07.14l-.24-.16a4.12,4.12,0,0,0,1.15,0,15.26,15.26,0,0,0-2.44,0l.86.11a23.36,23.36,0,0,1-3,.19c.49.15.25,0,1,.16-.67-.22,2.78,0,1.7-.22.8.2,1.38.08,2.41.26,0-.05-.36-.1.55-.07l.2-.05h0a1.94,1.94,0,0,1-.46-.08c.45-.12,1.9-.11,2.39-.17s-.22.06.07.11l.74-.09c.07.11,1.44.19.16.25h1.15a14.63,14.63,0,0,0,2.18,0c.54,0,1.37-.13.89,0L27,24.23v0a54.18,54.18,0,0,1,5.69,0,21.41,21.41,0,0,1,2.22,0l.2.09c.76,0,2.3.1,2.63,0a37.21,37.21,0,0,0,5.08.1l.05-.12c.93,0,1.83,0,3-.08l-.07-.12c1-.09,2.56.08,4.13.07a3.24,3.24,0,0,1-.79,0c1.89.25,4-.19,5.68,0a5,5,0,0,1,1,0h.07l.59.06-.5-.06c.33,0,.83,0,1.31-.05l.21.12h.12c.47,0,.38-.06.12-.15.25,0,.47,0,.65-.07.39.19,1.28-.07,1.81.14a21.21,21.21,0,0,0,2.71-.29s.16,0-.1,0a9.11,9.11,0,0,0,1.57,0l.23.16,1.19-.21c.72.09,1,.15.3.27,1.73-.19,1.4-.07,2.87-.25l-.07.1A11.38,11.38,0,0,1,70.6,24c1.18.19,5.82,0,8.83.2-.58-.29,1.41.13,1.53-.09.17.07.59.11.1.17a28.41,28.41,0,0,0,3.38-.09c.17.07-.33.11-.17.15a2.3,2.3,0,0,1,.65,0c.15,0-.23.06-.47.09,1.57,0,1.73-.23,1.84-.43a4.43,4.43,0,0,0,1.77-.05c.28.07.74.14-.24.16A21.46,21.46,0,0,0,91.24,24a4,4,0,0,0,.91,0c1.24,0,1.34,0,2.56,0l-.34,0a12.64,12.64,0,0,1,2-.17l0,0A6,6,0,0,0,98,23.53l1.55-.46L99.36,23c0-.15.5-.34,1.1-.56.29-.14.61-.29.92-.46a6.16,6.16,0,0,0,.85-.61l-.42.23A25.22,25.22,0,0,0,104.08,20c.13-.1-.14.21-.28.39.72-.66.69-.77.65-.8s-.15-.05.26-.63c.21-.18,0,.42.53-.4a3.68,3.68,0,0,0,.34-.58l.4-1c.13-.39.26-.8.38-1.19s.21-.77.33-1.09c-.14.27-.27.53-.15-.12a9,9,0,0,0,.21-3.63c0-.13,0-.18,0-.19a9.33,9.33,0,0,0-.92-2.82,4.78,4.78,0,0,0-1.13-2.4c-.68-.88-1.44-1.55-1.29-1.69-.28-.28-.59-.54-.88-.8s-.64-.48-1-.72h.07a6,6,0,0,0-2.35-1.08c-.32-.15-.07-.09,0-.1A9.19,9.19,0,0,0,97.1.48a8.1,8.1,0,0,0-2,0L94.89.31c-.48.08-3.1-.19-5.2,0a.65.65,0,0,1,.23-.05c-2.37.14-5.67-.34-6.53.11L81.83.43c2,0-.31.19.53.27-.8,0-2.06-.14-1.08-.16l.15,0C81.79.33,78.92.48,79,.32,75,.33,71.12.2,67.4.19l.43.18h-1.3c-.34,0-.46-.14.47-.13a4.35,4.35,0,0,0-1.58.12c-1.82-.07.71-.21.15-.21h-.76l.17,0A8.32,8.32,0,0,1,63.2.32c-.7,0-.36-.12-.64-.12,0,0-.09,0-.42,0L60.5.17l.66.15c-.73.07-1.54,0-.79.15C59.26.22,54.27.38,53.59.31A30.5,30.5,0,0,1,50.33.4c.3,0,.49.19-.58.17.39-.34-2-.15-2.83-.39.77.16-3.05,0-1.83.27-.9,0-.06-.13-.74-.2C42.23.37,39.66.16,37,.2c0,0,.4.12-.16.18L35.48.16c-.52,0-.48.26-1.43.1.14,0,.34.1,0,.11C28.89.16,23.51.54,18.28.14c.7.09.23.1-.31.1.35,0,0,.11.06.17L15.84.24c-.4.17-2.35,0-2.58.17l.7,0C13,.57,15.25.8,15.11,1c1-.22,2.73.31,4.42,0,.38.05-.32.07-.12.13a7.23,7.23,0,0,1,1.91-.08l-.11,0c2.71,0,3.86.07,6.9.14l-.23-.12a10,10,0,0,1,1.1.09c.75-.18-1.83,0-1.15-.21.86.24,4.6,0,5.18.27,1,0-.29-.13.71-.13l.27.07.25-.09c.66,0,1,.11,1,.17-.16,0-.46,0-.63,0,.85.09,2.41,0,2.7,0l-1-.05c2.74-.06,6.09,0,8.73-.12l-.2,0c2-.11,1.62.06,3.84,0h-.08a13.3,13.3,0,0,1,1.64-.07c-.56.06,1.05.12.32.2A11.74,11.74,0,0,0,53.14,1l.33.09A8,8,0,0,1,55.11.91c-.9.08.71.14-.31.25,2.33.2,3.45-.21,4.52.09,1.07-.26-2-.14-1.41-.2-.5-.08.88-.19,1.61-.16a26.67,26.67,0,0,0,3.13.32l-.39,0c.7.06,1.37-.09,2.23,0,.48-.15,1.11,0,1.25-.18L64,1.1A20.89,20.89,0,0,1,67.51.93a7.76,7.76,0,0,1-.93.12c.47.06.91,0,1.39,0-.14.2-2.08.05-3.12.2.5.08,2-.15,1.44.07.75-.27,1.84,0,3.11-.18l-.09.12c.2,0,.62-.07,1-.07l-.67.16c1-.14,2,.11,3,0-2.06,0-.46-.14-1.33-.23,2.53-.16,1.45.31,4.29.25-.38,0-1.44-.07-.84-.12a14.76,14.76,0,0,1,1.59.13c1.88,0-.29-.12.51-.2.64.15.92-.06,1.75-.1v.12c2.14.08.56-.25,2.49-.16l-.81.17,1-.05-.2.14a15,15,0,0,1,2.51,0c-.25-.09.14-.22,1.09-.23.64.07-.37.12,1,.1a2.42,2.42,0,0,1-1.22.06c-.06,0-.3.07-.37.11a19.07,19.07,0,0,0,2.25,0,3.79,3.79,0,0,1-.53,0l1.95-.16c.31,0,.06.08-.18.11.4,0,.67-.07,1.25-.08-.15.1-.11.2-.94.25l1.86-.11c.13,0,1,.12.72.15,1,.06,2.53-.19,3.89-.11a2.51,2.51,0,0,1,.51,0A18.35,18.35,0,0,1,98.47,2c.24.15.48.28.7.45,1,.45-.91-.68.81.07,1.19.62.36.39.73.66a7.93,7.93,0,0,1,1.14.64A5.09,5.09,0,0,1,103.07,5C102.77,4.76,102.59,4.49,102.29,4.26ZM104.68,17a6,6,0,0,1,.38-.93C105.09,16.45,104.91,16.64,104.68,17ZM85.27,23.39a3.56,3.56,0,0,1,.91,0A7.16,7.16,0,0,1,85.27,23.39ZM23,24.23h0C23.67,24.27,23.44,24.25,23,24.23Zm-1.32-.06c-.13,0-.12,0-.06,0a3.49,3.49,0,0,1,.72,0A2,2,0,0,0,21.68,24.17ZM62.42.24l.25,0C62.09.31,62.26.27,62.42.24Z"/><path class="cls-1" d="M87.81,23.22c.08,0,.1,0,.12.07S88,23.24,87.81,23.22Z"/><path class="cls-1" d="M94.36,1.41h0s0,0,0,0Z"/><path class="cls-1" d="M42.13,23.15a4.42,4.42,0,0,1,.52.06S42.54,23.16,42.13,23.15Z"/><path class="cls-1" d="M14.69,24.38l.85,0a6,6,0,0,1-.76,0S15,24.38,14.69,24.38Z"/><path class="cls-1" d="M7.5,22.61c-.11,0-.23-.11-.35-.15v.07C7.64,22.76,8,22.87,7.5,22.61Z"/><path class="cls-1" d="M13.91,24a3,3,0,0,0-1.19-.05h.1C12.65,24.07,13.28,24,13.91,24Z"/><path class="cls-1" d="M12.58,23.93a3.37,3.37,0,0,1-.55,0C12,24,12.26,24,12.58,23.93Z"/><path class="cls-1" d="M20,24.24c-.28,0-.18.13-.33.09C19.36,24.46,21.55,24.17,20,24.24Z"/><polygon class="cls-1" points="13.43 23.64 13.64 23.77 13.97 23.67 13.43 23.64"/><path class="cls-1" d="M18.1,23.74l-.94,0s-.11,0-.26,0A10.21,10.21,0,0,0,18.1,23.74Z"/><path class="cls-1" d="M16.9,23.74c-.3,0-.59,0-.76,0C16.31,23.76,16.66,23.76,16.9,23.74Z"/><polygon class="cls-1" points="14.72 23.61 15 23.63 15.67 23.64 14.72 23.61"/><path class="cls-1" d="M28.28,23.76l1,0c.1,0-.18-.06-.56,0S28.12,23.72,28.28,23.76Z"/><path class="cls-1" d="M25.15,23.42a1.67,1.67,0,0,1,.46.09l0-.15Z"/><path class="cls-1" d="M28.16,23.38c.11,0,1.5-.12.19-.11C28.25,23.31,27.22,23.35,28.16,23.38Z"/><polygon class="cls-1" points="43.73 23.58 43.46 23.58 43.5 23.83 43.73 23.58"/><path class="cls-1" d="M57.44,23c-1.23-.06-.29.16-1.4.08-.29.06.91.06.61.11C57.39,23.1,57.78,23.14,57.44,23Z"/><path class="cls-1" d="M56.65,23.16l-.38,0A2.63,2.63,0,0,0,56.65,23.16Z"/><polygon class="cls-1" points="14.37 0.11 13.59 0.06 14.1 0.14 14.37 0.11"/><path class="cls-1" d="M12.86.3,12.68.14l-.47.14A3.42,3.42,0,0,1,12.86.3Z"/><path class="cls-1" d="M103.32,18.6v.07a2.18,2.18,0,0,0,.41-.47Z"/><polygon class="cls-1" points="105.2 9.24 105.24 9.4 105.31 9.05 105.2 9.24"/><path class="cls-1" d="M100.05,3a10.47,10.47,0,0,1,.91.55C100.35,3.17,100.06,2.81,100.05,3Z"/></svg>