<svg id="Camada_1" data-name="Camada 1" xmlns="http://www.w3.org/2000/svg" viewBox="0 0 73.69 24.48"><defs><style>.cls-1{fill:#878787;}</style></defs><rect class="cls-1" x="0.91" y="0.72" width="72.39" height="22.92" rx="11.46"/><path class="cls-1" d="M12.16.12c.26,0,.17-.1.21-.12C11.92,0,12.17.15,12.16.12Z"/><path class="cls-1" d="M8,1.21l0-.07c-.18.1-.36.22-.54.34A3.36,3.36,0,0,1,8,1.21Z"/><path class="cls-1" d="M4.56,3.3a3.82,3.82,0,0,0,.79-.55,4.38,4.38,0,0,1,1-.69l.13,0,.2-.29A21.66,21.66,0,0,0,4.56,3.3Z"/><path class="cls-1" d="M2.79,4.61c.14-.05-.26.41.34-.38l-.08.06A3.29,3.29,0,0,0,2.79,4.61Z"/><path class="cls-1" d="M3.05,4.29c.29-.33-.23.17,0,0Z"/><path class="cls-1" d="M1.92,6l.25-.52c-.1.08-.38.51-.3.33C1.59,6.29,1.69,6.2,1.92,6Z"/><path class="cls-1" d="M1.76,6.48c0-.09.08-.18.12-.27A.44.44,0,0,0,1.76,6.48Z"/><path class="cls-1" d="M2.16,5.65l-.28.56C2,6.16,2,6.18,2,6,2,6,2.05,5.9,2.16,5.65Z"/><path class="cls-1" d="M2.37,5.37c.23-.24.49-.55.2-.06C3.2,4.43,3,4.47,2.37,5.37Z"/><path class="cls-1" d="M4.54,3.58l.33-.24.24-.27C5,3.18,4.48,3.56,4.54,3.58Z"/><path class="cls-1" d="M.47,9.22S.62,9.06.68,9l.06-.42C.66,8.81.53,9.21.47,9.22Z"/><path class="cls-1" d="M.68,9l-.1.63C.73,9.12.73,9,.68,9Z"/><path class="cls-1" d="M1.89,6.67c.11-.33.26-.63.4-1A10,10,0,0,0,1.8,6.84Z"/><polygon class="cls-1" points="0.12 11.63 0.05 11.27 0.15 11.92 0.12 11.63"/><path class="cls-1" d="M.16,13.25c-.08-.26-.1.38-.16.1a5.75,5.75,0,0,0,.3,1.13A4.38,4.38,0,0,1,.16,13.25Z"/><path class="cls-1" d="M.5,15a5.58,5.58,0,0,1-.2-.54A1.86,1.86,0,0,0,.5,15Z"/><path class="cls-1" d="M.39,10.71a.88.88,0,0,0-.15.48L.36,11Z"/><path class="cls-1" d="M.36,11h0c0,.26,0,.45,0,.53C.33,11.42.34,11.26.36,11Z"/><path class="cls-1" d="M.4,10.65v.06A0,0,0,0,0,.4,10.65Z"/><path class="cls-1" d="M1.15,8.11c-.08.37-.23,1.1.07.44C1.24,8.28,1.05,8.66,1.15,8.11Z"/><path class="cls-1" d="M.58,10.37c.05-.22.08-.44.13-.65,0,0-.1.11-.08-.07C.59,9.89.6,10.13.58,10.37Z"/><polygon class="cls-1" points="0.57 10.69 0.58 10.37 0.54 10.61 0.57 10.69"/><path class="cls-1" d="M.38,13.87c.1.27.13.59.23.93-.08-.37-.1-.77-.16-1.14C.4,13.62.32,13.46.38,13.87Z"/><path class="cls-1" d="M.3,12.45v.06S.32,12.44.3,12.45Z"/><polygon class="cls-1" points="1.85 18.07 1.84 18.01 1.81 18.01 1.85 18.07"/><path class="cls-1" d="M.46,13.6A4.29,4.29,0,0,0,.37,13a5.78,5.78,0,0,0,.08.67S.47,13.69.46,13.6Z"/><path class="cls-1" d="M.81,16c0-.15-.06-.32-.09-.5A1.44,1.44,0,0,0,.81,16Z"/><path class="cls-1" d="M.28,12.61v0C.26,12.66.27,12.65.28,12.61Z"/><path class="cls-1" d="M.28,12.61c0,.15.06.26.09.38q0-.27-.06-.48Z"/><path class="cls-1" d="M3,18.58a2.16,2.16,0,0,1-.77-1.14c-.33-.51-.46,0-.36.57,0,0,.08,0,.47.5,0-.11-.2-.43-.3-.67s-.12-.42,0-.2a3.21,3.21,0,0,1,.49,1c-.11-.35.77.77.81.51l-.49-.55S3.07,18.76,3,18.58Z"/><path class="cls-1" d="M1.29,16.88l-.1-.25c.07.26.14.48.26.91s.32.46.37.47c-.21-.4-.39-.8-.57-1.21Z"/><path class="cls-1" d="M.8,15.48c.14.18.41.76.39.36a7.54,7.54,0,0,0-.4-.94c.34,1.22-.15-.34,0,.57-.08-.24-.15-.46-.2-.67,0,.23.08.45.11.66v0h0c0-.05,0-.07,0,0v0l.06.05c.07.37,0,.06-.06-.05h0a10.29,10.29,0,0,0,.47,1.2C1.12,16.37,1,16.06.8,15.48Z"/><path class="cls-1" d="M1.26,9.25l0,0C1.22,9.36,1.22,9.39,1.26,9.25Z"/><path class="cls-1" d="M1.07,9.72a1.55,1.55,0,0,1,.07-.45c.1-.24.05,0,.09,0,0-.18.08-.62-.11-.09v.08a9.42,9.42,0,0,1-.4,1A2.58,2.58,0,0,0,1.07,9.72Z"/><path class="cls-1" d="M.61,12.59a9,9,0,0,0,.14,1,2.46,2.46,0,0,1,0-.54l-.06,0C.72,12.53.66,12.66.61,12.59Z"/><polygon class="cls-1" points="1.87 18.2 1.69 18.13 2.16 18.58 1.87 18.2"/><polygon class="cls-1" points="2.65 19.36 2.54 19.38 2.81 19.64 2.65 19.36"/><path class="cls-1" d="M72.21,15.41l0-.28C72.23,15.26,72.22,15.35,72.21,15.41Z"/><path class="cls-1" d="M71.41,17.3l0,.07C71.45,17.27,71.45,17.22,71.41,17.3Z"/><path class="cls-1" d="M34.17,24.27c.44.09.93.23.87.12l-.13-.11A4.38,4.38,0,0,1,34.17,24.27Z"/><path class="cls-1" d="M56.45,23.62l-.13,0-.3.1Z"/><path class="cls-1" d="M56.75,23.17l.58.07C57.2,23.22,57,23.19,56.75,23.17Z"/><path class="cls-1" d="M69.82,5l-.3-.17C69.86,5.22,69.75,5,69.82,5Z"/><path class="cls-1" d="M15.22,24.24a8.75,8.75,0,0,0,.93.06C15.7,24.24,15.34,24.15,15.22,24.24Z"/><path class="cls-1" d="M73,16.59q.07-.27,0-.27C73,16.51,73,16.62,73,16.59Z"/><path class="cls-1" d="M17.24,24.3l-.2,0a8.35,8.35,0,0,1-.89,0A3.07,3.07,0,0,0,17.24,24.3Z"/><path class="cls-1" d="M28.51,1.34h-.1S28.45,1.34,28.51,1.34Z"/><path class="cls-1" d="M16,.25h.52A3.18,3.18,0,0,0,16,.25Z"/><path class="cls-1" d="M6.87,23c-.27-.12,0,0,0,0Z"/><path class="cls-1" d="M5.86,21.92a.23.23,0,0,0,.13,0A.21.21,0,0,1,5.86,21.92Z"/><path class="cls-1" d="M20,23.63h0C20,23.61,20,23.61,20,23.63Z"/><path class="cls-1" d="M6.5,22.75a1.61,1.61,0,0,0,.32.21C6.77,22.92,6.66,22.87,6.5,22.75Z"/><path class="cls-1" d="M6.52,22.83l-.21-.15S6.29,22.71,6.52,22.83Z"/><path class="cls-1" d="M7.25,23.18,6.82,23s.07,0,0,0Z"/><path class="cls-1" d="M51.52,1.05h-.06C51.17,1.09,51.3,1.08,51.52,1.05Z"/><path class="cls-1" d="M41.48,23.14h0Z"/><path class="cls-1" d="M42.49,23.06a2.25,2.25,0,0,1-1,.09l.34.31Z"/><path class="cls-1" d="M72.53,10.55a5,5,0,0,1,0,.67c-.25-.78-.3-1.34-.34-.71.18,0,.3.65.32,1.29s0,1.28.15,1.35a4,4,0,0,1-.12.43c0-.13,0-.15,0-.27-.32.81.2.67-.14,1.75-.11.38-.26.61-.21.35l-.22.84c-.09.24-.12.15,0-.08a13,13,0,0,1-.52,1.21h0c-.05.18-.2.59-.28.79s.06-.16,0-.11a5.19,5.19,0,0,1-.35.66c-.26.18.07-.33.32-.77a1.21,1.21,0,0,0-.5.55,2.71,2.71,0,0,1-.84,1c.14-.18.29-.35.42-.53-.44.19-.71.66-1.37,1.06.09,0,.43-.22.66-.36s.4-.2.16.13a4.13,4.13,0,0,0-.67.67c-.08-.08-.38.2-.8.51l-.06-.15a8.44,8.44,0,0,0-.59.63c-.54.33-.73.26-.9.23-.91.4.7-.13-.35.42-.79.27-1.31.52-2.28.83-.59,0,.08-.11-.13-.12l-.5.2c-.12,0-.09,0-.07-.05-.43.1,0,.19-.71.27-.17.21-1.45-.21-2.36,0-.22,0,.11-.1,0-.16-1.23.13-1,.1-2.06.27l-.86-.1c.63.12-.18.26-.88.38.22.06.41.11.54.13l-1.13.09c-.13,0,0-.08.16-.15l-.2,0c-.41-.06-.2-.15.09-.24l.41.1c.28-.1.54-.21.48-.3a2.28,2.28,0,0,1-.37,0c.07,0,.12,0,.09-.07a1.44,1.44,0,0,0-.34.06l-.26-.17-.06.07-1.48-.11a24.36,24.36,0,0,1-3.65.51c.41-.13.09-.21.11-.37a12.4,12.4,0,0,0,2.17,0c-.46,0-.36-.09-.24-.12l-1.55.15c0-.13-.33-.1-.73-.15.3.25-1.16.17-1.79.25,0-.09.11-.17.88-.15-.85-.19-1.1.29-1.93.13a.83.83,0,0,0,.36,0c-.43.07-1.51,0-1.25-.06h.18a17.33,17.33,0,0,0-4,.21.77.77,0,0,1,.24-.3L41,23.87c.2-.19-.55-.62.48-.73a6.91,6.91,0,0,0-1.29,0c.2,0,.51.27.23.28a14.17,14.17,0,0,0-1.46-.28c.3,0,0,.33-.52.32.08,0,0-.28.14-.31l-1.2.28c.3-.05.06-.24-.21-.32.12.05-1,0-1.35,0l.5.07c-1.35-.05-1.33.39-2.67.38.17-.06.4-.36-.28-.4a7.64,7.64,0,0,1-2.56.81l-.23-.08-.91.09a27.93,27.93,0,0,1,3-.85,2.46,2.46,0,0,0-.89-.09c-.27-.08.41-.12.63-.12l-1.76-.05c.08.17-1.34.17-1.28.31L31.27,23c.08.17-1.1.48-2.35.45-.31-.07.24-.3.21-.35a5.71,5.71,0,0,1-1.29.06l.52-.08c-.69-.07-1.13.22-2,.06-.29,0-.86-.22-.91-.12.47.19.56.79.25.93-.1,0-1.51-.18-1.84-.28s.71-.36.31-.49c0,.05-.28.11-.39.12-.31,0,.12-.14-.53-.12-.11.17-1.34,0-.32.15-.64.05-.68,0-1.43,0,.24.11-.68.37-1.32.42,0,0-.11-.1-.18-.12-1.32,0-2-.1-3.25-.1-.12,0-.71-.09-.46-.16a3,3,0,0,1-.71.09c-.74-.15.84,0,.28-.2a7.17,7.17,0,0,1-1.52.2,5.15,5.15,0,0,0,1.79,0c0,.21-.94.43-2.22.53-1,.05-.45-.14-.62-.11a9.29,9.29,0,0,0-1.76.11A3.13,3.13,0,0,1,10,23.83c-.61-.28,0-.26-.1-.39.83.09,1.25.3,1.83.31-.23,0-.47-.05-.69-.11a6.08,6.08,0,0,1,1.12,0c-.26-.07-1.07-.09-2-.27a8.9,8.9,0,0,1-2.54-.88c-.26-.07-.69-.23-.52-.08l.43.18c.35.29-.86-.25-.35.06a6.25,6.25,0,0,1-1-.39,4,4,0,0,1-1-.69l0-.22a2.15,2.15,0,0,0,.65.54c-.35-.17-1-1-1.4-1.13l.4.51L4,20.68a5.69,5.69,0,0,1-.85-.85c.14.37.14.12.4.68-.08-.27.24.15.62.46s.69.63.47.27a2,2,0,0,0,.57.63c.19.18.38.34.74.66,0-.06-.18-.23.4.15l.15,0,0,0,0,0s0,0,0,0a2.51,2.51,0,0,1-.27-.25c.34.1,1.32.57,1.68.66s-.18,0,0,.12l.54.1c0,.14,1,.54,0,.28a6.27,6.27,0,0,0,.84.26,4.92,4.92,0,0,0,1.62.35c.41.09,1.05,0,.69,0,.46,0,.91,0,1.33,0l0,0a28,28,0,0,1,4.09,0,11.13,11.13,0,0,1,1.6,0l.14.09a17,17,0,0,0,1.9,0,19.33,19.33,0,0,0,3.66.1l0-.12c.67,0,1.31,0,2.15-.08l-.06-.12c.72-.09,1.85.08,3,.07a1.7,1.7,0,0,1-.57,0c1.36.25,2.86-.19,4.09,0a2.6,2.6,0,0,1,.74,0h0l.42.06-.35-.06c.23,0,.59,0,.94-.05l.15.12H35c.35,0,.28-.06.1-.15a4.52,4.52,0,0,0,.46-.07c.28.19.92-.07,1.3.14.24-.1,1.77-.08,1.95-.29,0,0,.12,0-.07,0a4.73,4.73,0,0,0,1.13,0l.17.16.85-.21c.52.09.74.15.22.27,1.24-.19,1-.07,2.07-.25l-.05.1A5.87,5.87,0,0,1,44.33,24c.84.19,4.18,0,6.36.2-.43-.29,1,.13,1.09-.09.13.07.43.11.08.17a14.74,14.74,0,0,0,2.43-.09c.13.07-.24.11-.13.15a1.22,1.22,0,0,1,.47,0c.11,0-.16.06-.34.09,1.14,0,1.25-.23,1.33-.43a2.34,2.34,0,0,0,1.28-.05c.2.07.53.14-.17.16A11,11,0,0,0,59.18,24a2.09,2.09,0,0,0,.66,0c.89,0,1,0,1.84,0l-.24,0c.34-.18.73-.06,1.45-.12l0,0a12.85,12.85,0,0,0,2.32-.34l-.12-.1c.07-.26,1.42-.29,2.23-.83l-.34.08a4.11,4.11,0,0,1,.93-.33,3.53,3.53,0,0,0,1-.35c.11-.05-.12.14-.24.25,1.21-.72.06-.24.85-.89.2-.06,0,.33.49-.13a27.18,27.18,0,0,0,1.88-2.32c-.18.14-.35.27-.12-.15.37-.61,1.22-1.6,1.23-2.32,0-.08.08-.1.09-.1a6.91,6.91,0,0,0,.37-2.12,1.43,1.43,0,0,0,.26-.72,11.17,11.17,0,0,0,0-1.17c-.07-.8-.18-1.51,0-1.53a12.23,12.23,0,0,0-.35-1.68l0,0A4.4,4.4,0,0,0,73,8a2.93,2.93,0,0,0-.36-.58c-.09-.23,0-.08,0-.07a6,6,0,0,0-.75-1.47,6.34,6.34,0,0,0-1-1.09c0-.06,0-.12,0-.18-.16-.1-.48-.6-1-1.12A6.94,6.94,0,0,0,68.07,2a.34.34,0,0,1,.18,0A24.66,24.66,0,0,0,65.68.79a3.07,3.07,0,0,0-2-.32,7.62,7.62,0,0,0-1.17,0c1.48.13-.23.18.37.29-.57,0-1.48-.21-.77-.2l.11,0c.26-.25-1.82-.11-1.77-.26C57.57.33,54.78.2,52.1.19l.31.18h-.93c-.25,0-.33-.14.33-.13a2.26,2.26,0,0,0-1.13.12c-1.31-.07.51-.21.11-.21h-.55l.12,0a4.4,4.4,0,0,1-1.28.15c-.51,0-.26-.12-.46-.12,0,0-.06,0-.31,0l-1.17,0,.47.15c-.52.07-1.11,0-.57.15A46.65,46.65,0,0,0,42.16.31,15.87,15.87,0,0,1,39.81.4c.22,0,.36.19-.42.17.29-.34-1.41-.15-2-.39.56.16-2.19,0-1.32.27-.64,0,0-.13-.53-.2C34,.37,32.14.16,30.24.2c0,0,.29.12-.12.18l-1-.22c-.37,0-.34.26-1,.1.09,0,.24.1,0,.11C24.38.16,20.5.54,16.74.14c.51.09.17.1-.22.1.25,0,0,.11,0,.17L15,.24c-.28.17-1.69,0-1.85.17l.5,0c-.67.19.93.42.83.66.74-.22,2,.31,3.18,0,.27.05-.23.07-.08.13a3.73,3.73,0,0,1,1.37-.08l-.08,0c1.95,0,2.78.07,5,.14l-.17-.12a5.22,5.22,0,0,1,.79.09c.54-.18-1.32,0-.83-.21.63.24,3.32,0,3.74.27.72,0-.22-.13.51-.13l.19.07.18-.09c.47,0,.71.11.73.17s-.33,0-.45,0c.62.09,1.73,0,1.94,0l-.69-.05c2-.06,4.38,0,6.28-.12l-.14,0c1.45-.11,1.16.06,2.76,0H38.6a7,7,0,0,1,1.18-.07c-.4.06.76.12.23.2A6.32,6.32,0,0,0,41.84,1l.24.09A4.12,4.12,0,0,1,43.26.91c-.66.08.51.14-.23.25,1.68.2,2.49-.21,3.26.09.77-.26-1.45-.14-1-.2C44.91,1,45.9.86,46.43.89a14.06,14.06,0,0,0,2.25.32l-.27,0c.5.06,1-.09,1.6,0,.34-.15.8,0,.9-.18l-1.23,0a10.85,10.85,0,0,1,2.5-.17,4.21,4.21,0,0,1-.66.12c.33.06.64,0,1,0-.1.2-1.5.05-2.24.2.36.08,1.41-.15,1,.07.54-.27,1.32,0,2.23-.18l-.06.12a5.28,5.28,0,0,1,.71-.07l-.48.15c.74-.13,1.42.12,2.13,0-1.48,0-.33-.14-1-.23,1.83-.16,1,.31,3.09.25-.27,0-1-.07-.6-.12a7.68,7.68,0,0,1,1.14.13c1.35,0-.21-.12.37-.2.46.15.66-.06,1.26-.1v.12c1.54.08.41-.26,1.8-.15l-.59.16a5.86,5.86,0,0,1,.72,0l-.15.13a4.27,4.27,0,0,1,1.71.12c-.16-.1.13-.24.77-.07.42.18-.27,0,.64.26a1.24,1.24,0,0,1-.83-.15s-.21,0-.26.05c.44.2,1.15.29,1.45.43a2.5,2.5,0,0,1-.32-.15,12.38,12.38,0,0,1,1.3.33c.17.13,0,.09-.16.05.25.11.44.14.81.3-.14,0-.17.15-.69,0A8,8,0,0,1,67.5,3c0,.08.48.43.32.38a9.66,9.66,0,0,1,2,1.65,1.21,1.21,0,0,1,.27.22c.52.7.88,1.38,1.44,2.25,0,.2.06.4.08.6.32.74-.06-.84.46.41.38.89,0,.39,0,.72a8.1,8.1,0,0,1,.37.87,3.53,3.53,0,0,1,.13,1.24C72.61,11,72.58,10.82,72.53,10.55Zm-2.89,9.24c.12-.16.32-.5.47-.55C70.06,19.49,69.9,19.58,69.64,19.79Zm-14.75,3.6a1.82,1.82,0,0,1,.65,0A3.66,3.66,0,0,1,54.89,23.39ZM10,24h0C10.45,24.1,10.28,24.06,10,24Zm-1-.29c-.11,0-.1,0-.07,0a2.33,2.33,0,0,1,.54.12A1,1,0,0,0,9,23.69ZM48.52.24l.18,0C48.28.31,48.4.27,48.52.24Z"/><path class="cls-1" d="M56.71,23.22c.06,0,.08,0,.09.07S56.88,23.24,56.71,23.22Z"/><path class="cls-1" d="M69.88,5l0,0h0Z"/><path class="cls-1" d="M23.83,23.15l.38.06S24.13,23.16,23.83,23.15Z"/><path class="cls-1" d="M4.3,21.31a6.4,6.4,0,0,0,.51.4,1.8,1.8,0,0,1-.42-.41S4.45,21.45,4.3,21.31Z"/><path class="cls-1" d="M1.76,16.49c0-.07-.06-.17-.11-.25l0,0C1.74,16.64,1.88,16.87,1.76,16.49Z"/><path class="cls-1" d="M4.14,20.62c0-.09-.26-.36-.57-.67l.05.06C3.43,20,3.77,20.33,4.14,20.62Z"/><path class="cls-1" d="M3.5,19.88a2.61,2.61,0,0,1-.27-.31C3.16,19.57,3.32,19.71,3.5,19.88Z"/><path class="cls-1" d="M7.79,23.34c-.19-.1-.17.07-.27,0C7.24,23.37,8.91,23.67,7.79,23.34Z"/><path class="cls-1" d="M4.13,20.14v.2a2.5,2.5,0,0,0,.25.09A2.35,2.35,0,0,1,4.13,20.14Z"/><path class="cls-1" d="M6.74,22.27l-.57-.39s-.08,0-.18-.06A4.27,4.27,0,0,0,6.74,22.27Z"/><path class="cls-1" d="M6,21.82c-.19-.12-.35-.25-.46-.3C5.63,21.58,5.83,21.74,6,21.82Z"/><path class="cls-1" d="M4.83,20.75,5,20.9a2.76,2.76,0,0,0,.37.31A3.64,3.64,0,0,1,4.83,20.75Z"/><path class="cls-1" d="M13.86,23.76l.74,0c.07,0-.13-.06-.4,0S13.74,23.72,13.86,23.76Z"/><path class="cls-1" d="M11.62,23.38a1,1,0,0,1,.32.11l0-.15Z"/><path class="cls-1" d="M13.78,23.38c.07,0,1.07-.12.13-.11C13.84,23.31,13.09,23.35,13.78,23.38Z"/><polygon class="cls-1" points="24.98 23.58 24.79 23.58 24.82 23.83 24.98 23.58"/><path class="cls-1" d="M34.85,23c-.88-.06-.21.16-1,.08-.21.06.65.06.43.11C34.82,23.1,35.09,23.14,34.85,23Z"/><path class="cls-1" d="M34.28,23.16l-.27,0A1.27,1.27,0,0,0,34.28,23.16Z"/><polygon class="cls-1" points="13.93 0.11 13.36 0.06 13.73 0.14 13.93 0.11"/><path class="cls-1" d="M12.84.3,12.71.14l-.34.14A1.81,1.81,0,0,1,12.84.3Z"/><path class="cls-1" d="M68.32,20.53v.06a1.06,1.06,0,0,0,.39-.24C68.59,20.42,68.45,20.47,68.32,20.53Z"/><polygon class="cls-1" points="72.22 14.72 72.19 14.84 72.39 14.65 72.22 14.72"/><path class="cls-1" d="M71.8,8.84a6.18,6.18,0,0,1,.23.73C71.89,9.07,72,8.72,71.8,8.84Z"/></svg>