<svg id="Camada_1" data-name="Camada 1" xmlns="http://www.w3.org/2000/svg" viewBox="0 0 42.18 24.43"><defs><style>.cls-1{fill:#878787;}</style></defs><rect class="cls-1" x="0.71" y="0.72" width="40.97" height="22.92" rx="11.46"/><path class="cls-1" d="M12,.12c.17,0,.11-.1.13-.12C11.89,0,12.05.15,12,.12Z"/><polygon class="cls-1" points="9.35 0.7 9.39 0.65 9.03 0.85 9.35 0.7"/><path class="cls-1" d="M7,1.57a1,1,0,0,0,.57-.21,3,3,0,0,1,.7-.29h.09l.14-.2C8,1.08,7.33,1.43,7,1.57Z"/><path class="cls-1" d="M5.58,1.91c.11,0-.23.2.29-.15H5.81Z"/><path class="cls-1" d="M5.81,1.77c.23-.15-.19.05,0,0Z"/><path class="cls-1" d="M4.78,2.52,5,2.26c-.08,0-.35.2-.27.1C4.48,2.61,4.57,2.6,4.78,2.52Z"/><path class="cls-1" d="M4.59,2.83l.13-.13S4.64,2.73,4.59,2.83Z"/><path class="cls-1" d="M5,2.42l-.28.28c.06,0,.1,0,.13-.12C4.86,2.64,4.89,2.55,5,2.42Z"/><path class="cls-1" d="M5.2,2.31c.18-.09.4-.23.15,0C5.91,2,5.75,1.89,5.2,2.31Z"/><path class="cls-1" d="M6.93,1.79l.26-.07.18-.15C7.28,1.65,6.89,1.75,6.93,1.79Z"/><path class="cls-1" d="M3.05,4s.16,0,.22,0l.14-.23C3.3,3.84,3.11,4,3.05,4Z"/><path class="cls-1" d="M3.27,4l-.22.33C3.29,4.07,3.31,4,3.27,4Z"/><path class="cls-1" d="M4.66,3l.43-.49c-.17.19-.36.37-.52.58Z"/><polygon class="cls-1" points="2.09 5.2 2.15 4.96 2.02 5.37 2.09 5.2"/><path class="cls-1" d="M1.56,6.07c0-.18-.23.14-.18,0a2.18,2.18,0,0,0-.22.72A1.63,1.63,0,0,1,1.56,6.07Z"/><path class="cls-1" d="M1.08,7.1c0-.1,0-.22.08-.35A1.37,1.37,0,0,0,1.08,7.1Z"/><path class="cls-1" d="M2.61,4.84A.52.52,0,0,0,2.33,5L2.51,5Z"/><path class="cls-1" d="M2.52,5h0a2.6,2.6,0,0,1-.21.27Z"/><path class="cls-1" d="M2.63,4.81l0,0S2.63,4.83,2.63,4.81Z"/><path class="cls-1" d="M3.83,3.64c-.13.2-.39.6,0,.32C3.87,3.8,3.64,3.94,3.83,3.64Z"/><path class="cls-1" d="M2.85,4.73a4.11,4.11,0,0,1,.29-.3s-.11,0-.06-.09C3,4.47,2.92,4.6,2.85,4.73Z"/><polygon class="cls-1" points="2.76 4.92 2.85 4.73 2.75 4.85 2.76 4.92"/><path class="cls-1" d="M1.48,6.49a3.16,3.16,0,0,1-.21.58l.35-.64S1.6,6.26,1.48,6.49Z"/><path class="cls-1" d="M2,5.73l0,0S2,5.74,2,5.73Z"/><polygon class="cls-1" points="0.52 9.15 0.55 9.12 0.53 9.11 0.52 9.15"/><path class="cls-1" d="M1.66,6.4a.92.92,0,0,0,.17-.35l-.21.38S1.63,6.45,1.66,6.4Z"/><path class="cls-1" d="M.87,7.7,1,7.43A.59.59,0,0,0,.87,7.7Z"/><path class="cls-1" d="M1.89,5.81v0S1.87,5.82,1.89,5.81Z"/><path class="cls-1" d="M1.89,5.81a1.2,1.2,0,0,0-.06.24A2.14,2.14,0,0,0,2,5.77Z"/><path class="cls-1" d="M1,9.93c-.1,0-.07-.51.13-.86,0-.39-.35-.25-.61,0,0,0,.07,0,0,.44.09-.13.35-.84.35-.49-.09.53-.15.42-.26.66.15-.19.06.71.26.62V9.88S1,10.05,1,9.93Z"/><path class="cls-1" d="M.78,8.36l0-.17c-.08.18-.19.3-.32.53s0,.36,0,.38a5.7,5.7,0,0,1,.25-.8Z"/><path class="cls-1" d="M1.09,7.47c0,.17,0,.57.15.38.16-.47.05-.35.13-.64-.32.73,0-.24-.26.26,0-.15.11-.28.16-.4L1,7.43l0,0h0s0,0,0,0h0a.08.08,0,0,1,0,0c-.1.21,0,0,0,0h0C1,7.67.9,7.94.83,8.19.9,8,1,7.83,1.09,7.47Z"/><path class="cls-1" d="M3.7,4.43s0,0,0,0S3.63,4.5,3.7,4.43Z"/><path class="cls-1" d="M3.43,4.63a.59.59,0,0,1,.16-.25c.13-.1,0,0,.07,0s.21-.34-.07-.11l0,0A2.2,2.2,0,0,1,3,4.75,1.25,1.25,0,0,0,3.43,4.63Z"/><path class="cls-1" d="M2.18,6l-.3.59.26-.24H2.08C2.29,6,2.19,6,2.18,6Z"/><polygon class="cls-1" points="0.45 9.21 0.36 9.09 0.42 9.51 0.45 9.21"/><polygon class="cls-1" points="0.27 10.07 0.18 10.03 0.2 10.27 0.27 10.07"/><path class="cls-1" d="M38,19.73l.1-.15A.77.77,0,0,0,38,19.73Z"/><path class="cls-1" d="M37.07,20.6v.06C37.11,20.6,37.12,20.57,37.07,20.6Z"/><path class="cls-1" d="M12.73,24.27c.28.09.58.23.55.12l-.08-.11A1.76,1.76,0,0,1,12.73,24.27Z"/><path class="cls-1" d="M26.81,23.62l-.08,0-.18.1Z"/><path class="cls-1" d="M27,23.17l.36.07A2.86,2.86,0,0,0,27,23.17Z"/><path class="cls-1" d="M40.9,13.41a1.89,1.89,0,0,0-.09-.21C40.78,13.52,40.84,13.38,40.9,13.41Z"/><path class="cls-1" d="M2.05,18.72a2.51,2.51,0,0,0,.3.55C2.21,19,2.16,18.74,2.05,18.72Z"/><path class="cls-1" d="M38.45,20.92c.08-.09.1-.14.08-.16S38.42,20.92,38.45,20.92Z"/><path class="cls-1" d="M2.79,19.85l-.06-.12a4.66,4.66,0,0,1-.38-.46A1.52,1.52,0,0,0,2.79,19.85Z"/><path class="cls-1" d="M22.38,1.34h-.06S22.34,1.34,22.38,1.34Z"/><path class="cls-1" d="M14.47.25h.33A1.28,1.28,0,0,0,14.47.25Z"/><path class="cls-1" d="M.12,13.62c0-.19,0,0,0,0Z"/><path class="cls-1" d="M.48,12.69s0,.07.06.07S.5,12.72.48,12.69Z"/><path class="cls-1" d="M4.54,20.69h0C4.52,20.65,4.53,20.66,4.54,20.69Z"/><path class="cls-1" d="M.14,13.33a1,1,0,0,0,0,.25S.13,13.46.14,13.33Z"/><path class="cls-1" d="M.09,13.38v-.17S.06,13.21.09,13.38Z"/><path class="cls-1" d="M.17,13.88c0-.11,0-.21,0-.3s0,.05,0,0S.14,13.75.17,13.88Z"/><path class="cls-1" d="M36.37,2.91l0,0C36.17,2.83,36.24,2.86,36.37,2.91Z"/><polygon class="cls-1" points="17.35 23.14 17.33 23.14 17.36 23.15 17.35 23.14"/><path class="cls-1" d="M18,23.06a.93.93,0,0,1-.63.09l.21.31Z"/><path class="cls-1" d="M39.82,17.2c-.09.11-.19.22-.29.32.12-.51.29-.82,0-.53.31.23-.78,1.4-.57,1.62l-.22.18c0-.06,0-.08.09-.14-.45.33,0,.48-.56,1-.18.17-.33.26-.25.11-.1.16-.22.29-.33.44s-.14,0,0-.07c-.2.19-.39.39-.6.57h0a4.16,4.16,0,0,1-.32.45c-.2.09.07-.09,0-.09l-.33.34c-.2,0,.06-.26.32-.44-.54,0-.25.32-1.15.63l.35-.26c-.35,0-.58.23-1.07.32.13,0,1-.2.61.13A1.58,1.58,0,0,0,35,22c-.05-.11-.27,0-.57.18l0-.16c-.31.17-.26.23-.43.37-.38.12-.49,0-.61,0-.62.13.48.08-.24.29a13,13,0,0,0-1.49.4c-.37,0,.05-.11-.08-.13a2.39,2.39,0,0,1-.32.16c-.08,0-.05,0,0-.06-.28.06,0,.16-.45.23-.11.19-.92-.23-1.49,0-.14,0,.06-.1,0-.16a8.4,8.4,0,0,0-1.3.27l-.55-.1c.4.12-.11.26-.56.38l.35.13-.72.09c-.08,0,0-.08.11-.15l-.13,0c-.26-.06-.13-.15.06-.24l.25.1c.18-.1.34-.21.31-.3a1.07,1.07,0,0,1-.24,0c.05,0,.08,0,.06-.07a.64.64,0,0,0-.22.06l-.16-.17,0,.07-.93-.11a10.17,10.17,0,0,1-2.31.51c.26-.13.05-.21.07-.37.29.17.82-.07,1.37,0-.29,0-.22-.09-.15-.12l-1,.15c0-.13-.21-.1-.47-.15.2.25-.73.17-1.12.25,0-.09.07-.17.55-.15-.53-.19-.69.29-1.22.13.12,0,.18,0,.23,0-.28.07-.95,0-.79-.06h.11a7,7,0,0,0-2.51.21.77.77,0,0,1,.15-.3L17,23.87c.12-.19-.35-.62.3-.73a2.74,2.74,0,0,0-.81,0c.12,0,.31.27.14.28a5.82,5.82,0,0,0-.93-.28c.2,0,0,.33-.32.32.05,0,0-.28.08-.31l-.75.28c.19-.05,0-.24-.14-.32.08.05-.65,0-.85,0l.32.07c-.85-.05-.84.39-1.69.38.1-.06.25-.36-.18-.4a2.91,2.91,0,0,1-1.66.68l-.13-.1h-.6c.42-.15,1.46-.44,2-.63-.3-.08-.08-.1-.53-.12-.16-.08.25-.1.38-.1a7.1,7.1,0,0,1-1-.15c0,.17-.82.05-.81.17.39,0,.78,0,1.17,0,0,.16-.74.42-1.49.18-.18-.11.21-.25.2-.31a2.2,2.2,0,0,1-.78-.13h.34c-.39-.14-.72,0-1.15-.31-.16-.06-.38-.41-.45-.33.17.3,0,.87-.24.91a5.4,5.4,0,0,1-.93-.78c-.18-.28.55-.08.4-.32,0,0-.2,0-.26,0s.13-.09-.22-.28c-.15.11-.69-.43-.24,0-.37-.16-.33-.27-.71-.53.07.17-.58.06-.9-.2,0,0,0-.12,0-.17a4.84,4.84,0,0,1-.71-.77c-.19-.25-.4-.47-.62-.79,0-.08-.19-.4,0-.32a1.82,1.82,0,0,1-.34-.3c-.13-.46.33.41.27,0-.11,0-.44-.42-.67-.68-.07.16.37.7.64.91-.09.06-.27,0-.49-.14a4.49,4.49,0,0,1-.72-.76c-.35-.57,0-.32-.09-.41-.5-1.11-.77-.83-1-1.86,0-.43.25-.09.32-.21.19.5.19.8.31,1.14l-.09-.44a2.57,2.57,0,0,1,.29.65,11.25,11.25,0,0,0-.37-1.21A6.94,6.94,0,0,1,1,13.84c-.07-.16-.16-.43-.2-.29l.07.29c-.07.29-.24-.54-.23-.16a3.29,3.29,0,0,1-.24-1.42l.15-.11s-.07.38,0,.53c-.1-.24.19-.86,0-1.13L.37,12A3.46,3.46,0,0,1,.3,10.5c-.19.21,0,.12-.23.47.23-.3-.08,1.33.18.83C0,12.17.16,12.45,0,13c.05,0,.09-.18.09.26a.41.41,0,0,1,.05.09v0s0,0,0,0a.62.62,0,0,1,.07-.23c.1.21.21.89.31,1.11s-.08-.1-.11.05l.14.32c-.1.06,0,.71-.23.13l.13.54a2.47,2.47,0,0,0,.27,1c.07.26.34.58.18.4a6.31,6.31,0,0,0,.42.76l0,0c.34.79,1,1.43,1.43,2.32a7.58,7.58,0,0,1,.72.78v.13c.27.25.75.83.93.87.06.23.43.51.82.79s.88.49,1.15.68l.09-.11a7,7,0,0,0,1.33.53v-.12a3.62,3.62,0,0,1,.82.3,9.06,9.06,0,0,0,1,.34.67.67,0,0,1-.37-.09c.83.49,1.89.15,2.68.36a1.25,1.25,0,0,1,.48,0h0l.27.06-.23-.06c.15,0,.38,0,.6-.05l.1.12h.05c.21,0,.17-.06.06-.15a1.77,1.77,0,0,0,.29-.07c.18.19.58-.07.82.14.15-.1,1.12-.08,1.24-.29,0,0,.07,0-.05,0a1.93,1.93,0,0,0,.72,0l.1.16.54-.21c.33.09.47.15.14.27.79-.19.64-.07,1.31-.25l0,.1c.24,0,.63-.14.77-.06.54.19,2.65,0,4,.2-.27-.29.64.13.69-.09.08.07.28.11.05.17.7-.07,1.06.1,1.54-.09.08.07-.15.11-.08.15a.5.5,0,0,1,.3,0c.07,0-.11.06-.22.09.72,0,.79-.23.84-.43a1,1,0,0,0,.81-.05c.13.07.34.14-.11.16.25,0,1.53.09,1.56-.07A.81.81,0,0,0,29,24c.56,0,.61,0,1.16,0L30,24c.22-.19.46-.05.92-.1l0,0c1.06.09.44-.1,1.49-.08l-.08-.11c0-.24.92,0,1.48-.29h-.23c.28-.16,1,0,1.31-.06.08,0-.09.08-.18.13.88-.19.05-.18.62-.49.15,0,0,.27.36.09.25,0,1-.85,1.56-1.07-.14,0-.28.05-.07-.17s.47-.28.73-.45a1.53,1.53,0,0,0,.58-.58c.05,0,.08,0,.09,0a5.63,5.63,0,0,0,.78-1.13c.25,0,.56-.46.79-.91s.41-.88.57-.78c.17-.33.31-.66.46-1l0,0a2.27,2.27,0,0,0,.27-1.16c.08-.14.07,0,.09,0a3.32,3.32,0,0,0,.31-1.93l.13-.07c0-.12.1-.47.15-.93,0-.23.06-.48.07-.74a5,5,0,0,0-.08-.78.18.18,0,0,1,.06.11c-.08-.56-.12-1.23-.17-1.82s-.2-1.07-.5-1.19l-.36-.65c.29.89-.23-.06-.17.33-.13-.34-.23-.92,0-.53v.08c.29,0-.43-1.09-.28-1.14a12.6,12.6,0,0,0-3.51-4.16l.06.27c-.17-.12-.32-.25-.49-.36s-.1-.24.26,0c-.13-.22-.68-.31-.7-.29-.7-.51.39,0,.17-.15l-.31-.17.05.06a2.85,2.85,0,0,1-.81-.27c-.28-.17-.11-.17-.22-.24s0,0-.18-.09S34.51,1,34.26.89l.25.24c-.35,0-.68-.26-.4,0A3.76,3.76,0,0,0,32.55.56C31.86.44,31.2.37,31,.35A10.53,10.53,0,0,1,29.53.4c.14,0,.22.19-.27.17C29.44.23,28.37.42,28,.18c.35.16-1.39,0-.84.27-.41,0,0-.13-.33-.2-1,.12-2.14-.09-3.34,0,0,0,.19.12-.07.18L22.77.16c-.24,0-.22.26-.65.1.06,0,.15.1,0,.11C19.77.16,17.32.54,14.93.14c.33.09.11.1-.13.1.16,0,0,.11,0,.17l-1-.17c-.19.17-1.07,0-1.18.17l.32,0c-.42.19.59.42.52.66.48-.22,1.25.31,2,0,.17.05-.15.07-.06.13a1.55,1.55,0,0,1,.87-.08l-.05,0c1.23,0,1.76.07,3.14.14l-.1-.12a2.14,2.14,0,0,1,.5.09c.34-.18-.84,0-.53-.21.4.24,2.1,0,2.36.27.46,0-.13-.13.33-.13l.12.07.11-.09c.3,0,.45.11.47.17a2.83,2.83,0,0,0-.29,0,8.21,8.21,0,0,0,1.23,0l-.44-.05c1.25-.06,2.77,0,4-.12l-.09,0a17.15,17.15,0,0,1,1.75,0h0a2.81,2.81,0,0,1,.75-.07c-.26.06.48.12.15.2A3.17,3.17,0,0,0,30.79,1l.15.1A1.18,1.18,0,0,1,31.68,1c-.41,0,.29.18-.17.22,1,.32,1.53.09,1.91.49.53-.13-.82-.36-.55-.35-.2-.13.43-.09.74,0s.44.48,1.17.81l-.16-.06c.25.2.58.18.87.45.25,0,.4.26.56.12-.23-.11-.44-.25-.68-.34a2.91,2.91,0,0,1,1.4.67,2.44,2.44,0,0,1-.4-.14c.14.16.34.2.48.38-.08.06-.27-.07-.49-.23a3,3,0,0,0-.75-.36c.14.18.8.32.49.38.44-.06.63.49,1.19.66l-.1.07a1.41,1.41,0,0,1,.36.23L37.24,4c.41.2.56.64.88.91-.6-.64,0-.25-.23-.57a1.14,1.14,0,0,1,.54.7,2,2,0,0,0,.48.87c-.12-.12-.32-.54-.12-.37a2.86,2.86,0,0,1,.3.62c.45.67,0-.17.28.08,0,.32.26.31.49.6l-.1.06c.35.86.33.11.62.91l-.3-.25.22.37-.16,0a2.48,2.48,0,0,1,.42,1c0-.13.24,0,.34.4s-.15-.13,0,.44a.52.52,0,0,1-.19-.5s-.1-.11-.15-.12a4.11,4.11,0,0,0,.22.93c0-.08,0-.17,0-.22a7,7,0,0,1,.32.8c0,.14-.08,0-.13-.06,0,.17.11.28.16.52-.11-.05-.21,0-.3-.36a5.09,5.09,0,0,1,.19.77c0,.06-.1.42-.14.32a8,8,0,0,1,0,1.66.38.38,0,0,1,0,.22,14.68,14.68,0,0,0-.36,1.65,3.83,3.83,0,0,1-.28.29c-.14.5.38-.4.15.43-.16.59-.22.16-.34.34a2.09,2.09,0,0,1-.51,1.27C39.66,17.47,39.76,17.36,39.82,17.2ZM35.5,21.73c.09-.08.26-.28.37-.26C35.83,21.66,35.7,21.66,35.5,21.73Zm-9.67,1.66a.74.74,0,0,1,.41,0A1.46,1.46,0,0,1,25.83,23.39ZM.63,15.61h0C.68,15.93.66,15.82.63,15.61ZM.52,15c0-.06,0-.05-.05,0a.92.92,0,0,1,.11.33C.6,15.24.6,15.16.52,15ZM35.09,1.28l.09.08C34.92,1.28,35,1.28,35.09,1.28Z"/><path class="cls-1" d="M27,23.22a.1.1,0,0,1,.06.07C27.09,23.27,27.09,23.24,27,23.22Z"/><path class="cls-1" d="M40.91,13.45h0s0,0,0,0Z"/><path class="cls-1" d="M6.7,21.68a.65.65,0,0,1,.17.18S6.85,21.78,6.7,21.68Z"/><path class="cls-1" d="M0,11.67v.41a1.75,1.75,0,0,1,.06-.36S0,11.8,0,11.67Z"/><path class="cls-1" d="M1.36,8.44c0-.06,0-.11,0-.17H1.35C1.27,8.49,1.25,8.66,1.36,8.44Z"/><path class="cls-1" d="M.42,11.33c.11,0,.06-.28.1-.55v.05C.38,10.73.38,11,.42,11.33Z"/><path class="cls-1" d="M.52,10.71a2.17,2.17,0,0,1,0-.25C.51,10.42.53,10.56.52,10.71Z"/><path class="cls-1" d="M.3,14.22c0-.14-.14-.07-.11-.15C0,14,.48,14.93.3,14.22Z"/><polygon class="cls-1" points="0.76 11.13 0.63 11.22 0.73 11.38 0.76 11.13"/><path class="cls-1" d="M.67,13.27l0-.44s0-.05,0-.11A2.54,2.54,0,0,0,.67,13.27Z"/><path class="cls-1" d="M.64,12.72a2.27,2.27,0,0,0,0-.35A2.68,2.68,0,0,0,.64,12.72Z"/><polygon class="cls-1" points="0.77 11.72 0.74 11.85 0.71 12.15 0.77 11.72"/><path class="cls-1" d="M2,17.71l.28.39c.06,0,0-.1-.09-.24S2,17.63,2,17.71Z"/><path class="cls-1" d="M1.72,16.28a.4.4,0,0,1,0,.23l.15,0Z"/><path class="cls-1" d="M2.31,17.49c.06,0,.45.5.14,0C2.39,17.49,2.16,17.09,2.31,17.49Z"/><polygon class="cls-1" points="7.13 22.39 7.02 22.34 6.92 22.57 7.13 22.39"/><path class="cls-1" d="M13.16,23c-.56-.06-.13.16-.64.08-.13.06.41.06.28.11C13.14,23.1,13.31,23.14,13.16,23Z"/><path class="cls-1" d="M12.8,23.16l-.17,0A.7.7,0,0,0,12.8,23.16Z"/><polygon class="cls-1" points="13.16 0.11 12.8 0.06 13.03 0.14 13.16 0.11"/><path class="cls-1" d="M12.47.3,12.39.14l-.22.14A.74.74,0,0,1,12.47.3Z"/><path class="cls-1" d="M34.51,21.85v0c.06,0,.13,0,.28-.08Z"/><polygon class="cls-1" points="38.2 19.3 38.14 19.36 38.35 19.35 38.2 19.3"/><path class="cls-1" d="M40,16a3.61,3.61,0,0,1-.17.46C40,16.16,40.19,16,40,16Z"/></svg>