<svg id="Camada_1" data-name="Camada 1" xmlns="http://www.w3.org/2000/svg" viewBox="0 0 180.29 30.09"><defs><style>.cls-1{fill:#878787;}</style></defs><rect class="cls-1" x="0.77" y="0.72" width="178.94" height="28.44" rx="14.22"/><path class="cls-1" d="M14.51.14c.6,0,.39-.12.48-.14C14,.07,14.54.16,14.51.14Z"/><polygon class="cls-1" points="5.58 3.8 5.68 3.65 4.69 4.7 5.58 3.8"/><path class="cls-1" d="M.84,11.42a18,18,0,0,1,2-4.48A1.71,1.71,0,0,1,3,6.74l.32-.67a10.59,10.59,0,0,0-.86,1.31,12.3,12.3,0,0,0-.73,1.45A18,18,0,0,0,.84,11.42Z"/><path class="cls-1" d="M.08,16.29c.05-.32.11,1.07,0-1.17a1.87,1.87,0,0,0,0,.21C0,15.54.05,15.81.08,16.29Z"/><path class="cls-1" d="M0,15.33c0-1,0,.65,0,0Z"/><path class="cls-1" d="M.87,19.79a9.39,9.39,0,0,1-.42-1.23c0,.28.33,1.39.18,1C1.12,20.8,1.07,20.52.87,19.79Z"/><path class="cls-1" d="M1.43,20.88a5.63,5.63,0,0,1-.27-.61A1.72,1.72,0,0,0,1.43,20.88Z"/><path class="cls-1" d="M.66,18.94a12.51,12.51,0,0,0,.5,1.33,1.07,1.07,0,0,0-.24-.6C1,19.76.83,19.52.66,18.94Z"/><path class="cls-1" d="M.49,18.16c-.12-.72-.2-1.64,0-.38-.1-.6-.18-1-.23-1.3s0-.38-.07-.33A7.84,7.84,0,0,0,.49,18.16Z"/><path class="cls-1" d="M.9,11.91,1.19,11a7,7,0,0,1,.18-.79A12.29,12.29,0,0,0,.9,11.91Z"/><path class="cls-1" d="M5.31,26.44c.09,0-.25-.37-.29-.48a8.54,8.54,0,0,1-.73-.62C4.61,25.72,5.31,26.34,5.31,26.44Z"/><path class="cls-1" d="M5,26a8.73,8.73,0,0,0,1.14.86,10.81,10.81,0,0,1-1-.76C5,25.93,5,25.92,5,26Z"/><path class="cls-1" d="M1.71,21a9.06,9.06,0,0,1-.5-1,7.8,7.8,0,0,1-.42-1.08A13.87,13.87,0,0,0,1.9,21.4Z"/><path class="cls-1" d="M10.07,29.14l-.8-.2c.48.12.94.27,1.42.36C10.48,29.27,10.28,29.19,10.07,29.14Z"/><path class="cls-1" d="M13.63,29.89c-.61,0,.83.17.18.18A16.5,16.5,0,0,0,16.34,30c-.38,0-.77,0-1.21,0S14.19,30,13.63,29.89Z"/><path class="cls-1" d="M17.56,29.91,16.34,30C16.75,30,17.15,30,17.56,29.91Z"/><path class="cls-1" d="M8.19,28.12a5.58,5.58,0,0,0,1,.58l-.46-.34Z"/><path class="cls-1" d="M8.68,28.35h0a8.24,8.24,0,0,0,1.11.48A10.29,10.29,0,0,1,8.68,28.35Z"/><path class="cls-1" d="M8.07,28.06l.12.06A.27.27,0,0,0,8.07,28.06Z"/><path class="cls-1" d="M3.56,24.18c.58.6,1.79,1.8.74.52C3.85,24.31,4.44,25.06,3.56,24.18Z"/><path class="cls-1" d="M7.53,27.6a11.68,11.68,0,0,1-1.23-.85s.2.24-.15,0A11.55,11.55,0,0,0,7.53,27.6Z"/><path class="cls-1" d="M8.19,27.93c-.23-.09-.44-.22-.66-.33l.48.29Z"/><path class="cls-1" d="M15.07,29.81c.63,0,1.31,0,2.09,0l-2.51-.05C14.53,29.73,14.15,29.78,15.07,29.81Z"/><path class="cls-1" d="M11.89,29.46l.14,0C11.94,29.46,11.88,29.43,11.89,29.46Z"/><polygon class="cls-1" points="24.77 29.76 24.65 29.74 24.62 29.76 24.77 29.76"/><path class="cls-1" d="M14.5,29.68c-.64-.06-1,0-1.4-.07a14.78,14.78,0,0,0,1.55.1S14.71,29.69,14.5,29.68Z"/><path class="cls-1" d="M19.68,29.86l-1.08-.05A7.55,7.55,0,0,0,19.68,29.86Z"/><path class="cls-1" d="M12.24,29.54h-.1C12.35,29.59,12.33,29.57,12.24,29.54Z"/><path class="cls-1" d="M12.24,29.54c.34,0,.6.05.86.07L12,29.48Z"/><path class="cls-1" d="M27.08,29.07a12.79,12.79,0,0,1-3.16.09c-1.4.07-.49.4.73.58,0,0,0-.09,1.47-.14-.5-.06-3.17-.13-2-.22a13.87,13.87,0,0,1,2.48.09c-.78-.13,2.41-.18,2-.36L27,29.17S27.54,29.1,27.08,29.07Z"/><path class="cls-1" d="M21.92,29.73h-.59c.67,0,1.15.06,2,.13a5.33,5.33,0,0,0,1.25-.11l-2.9,0Z"/><path class="cls-1" d="M18.69,29.74c.46-.11,1.87-.15,1-.27a19.19,19.19,0,0,0-2.24.14c2.79,0-.8.06,1.22.12l-1.51,0,1.44,0h-.07c-.12,0-.16,0,0,0h.06l.13,0c.8,0,.12,0-.13,0,0,0,0,0,0,0h0l2.79-.06Z"/><path class="cls-1" d="M5.53,25.59c.06.07,0,.07,0,.08S5.78,25.82,5.53,25.59Z"/><path class="cls-1" d="M6.38,26.37a3.69,3.69,0,0,1-.84-.61c-.4-.42,0,0,0-.09-.31-.24-1.09-.89-.19,0l.15.12c.4.42.93.8,1.29,1.14s.64.48.55.44C7.15,27.11,6.92,26.91,6.38,26.37Z"/><path class="cls-1" d="M12.29,29.22l1.18.15,1.18,0-1.19-.16,0,.06C12.19,29.09,12.46,29.2,12.29,29.22Z"/><polygon class="cls-1" points="25.04 29.81 24.73 29.93 26.07 29.76 25.04 29.81"/><polygon class="cls-1" points="28.06 29.8 27.95 29.9 28.75 29.84 28.06 29.8"/><path class="cls-1" d="M175.31,5.51a5.12,5.12,0,0,0-.49-.44C175.06,5.27,175.21,5.41,175.31,5.51Z"/><path class="cls-1" d="M177.94,9.43l.09.08C177.91,9.33,177.85,9.25,177.94,9.43Z"/><path class="cls-1" d="M102.33,29.79a8.16,8.16,0,0,0,2,.12l-.3-.11C103.31,29.82,102.78,29.81,102.33,29.79Z"/><path class="cls-1" d="M153.19,29.14l-.29,0-.68.1Z"/><path class="cls-1" d="M153.89,28.69l1.31.07C154.91,28.74,154.49,28.71,153.89,28.69Z"/><path class="cls-1" d="M149.9,1.43l-.79.11C150.35,1.54,149.81,1.49,149.9,1.43Z"/><path class="cls-1" d="M59,29.76c.86,0,1.54.06,2.14.06A11.05,11.05,0,0,0,59,29.76Z"/><path class="cls-1" d="M177.43,6.27c-.27-.34-.4-.48-.41-.45C177.3,6.16,177.47,6.36,177.43,6.27Z"/><path class="cls-1" d="M63.66,29.82l-.46,0c-.63,0-1.26,0-2,0A15.92,15.92,0,0,0,63.66,29.82Z"/><path class="cls-1" d="M51.86,1.34h-.23S51.71,1.34,51.86,1.34Z"/><path class="cls-1" d="M23.29.25h1.17C24.25.23,23.9.23,23.29.25Z"/><path class="cls-1" d="M40.23,29.84c-.64,0-.1,0,0,0Z"/><path class="cls-1" d="M37.11,29.42c.13,0,.24,0,.25-.06A.65.65,0,0,1,37.11,29.42Z"/><path class="cls-1" d="M70.05,29.15h0C69.91,29.13,69.94,29.13,70.05,29.15Z"/><path class="cls-1" d="M39.26,29.8l.82,0Z"/><path class="cls-1" d="M39.39,29.85h-.56C38.75,29.85,38.82,29.87,39.39,29.85Z"/><path class="cls-1" d="M41.12,29.84h0Z"/><path class="cls-1" d="M104.39,1.05h-.14C103.61,1.09,103.89,1.08,104.39,1.05Z"/><path class="cls-1" d="M119,28.66h0Z"/><path class="cls-1" d="M121.32,28.58a11.49,11.49,0,0,1-2.28.09l.76.31Z"/><path class="cls-1" d="M165.09,1.35c.55,0,1,.11,1.55.15l-1.26,0-.9.05c-.41,0-.38,0,.38.11a2.09,2.09,0,0,1,1-.13l1,0,1.08.16c1.46.26,2.84.83,3,.73l.88.5-.57-.25a12.19,12.19,0,0,0,1.6.82,3.81,3.81,0,0,1,.72.37,5.59,5.59,0,0,1,1.13.89c.67.6,1,1.15.58.71l.7.71.63.77c.35.47.21.39-.13-.08a14.06,14.06,0,0,1,1.54,2.62l0,0a11.72,11.72,0,0,1,.79,1.75c.14.77-.14-.37-.13-.17a11.71,11.71,0,0,1,.45,1.64c0,.7-.24-.68-.57-1.8a8.22,8.22,0,0,0,.28,1.69,8,8,0,0,1,.17,3c0-.26,0-.52,0-.78l-.06-.79c0,.26-.05.52-.06.81s-.06.58-.09.9a5,5,0,0,1-.14,1A6.54,6.54,0,0,1,178.4,18a16.37,16.37,0,0,0,.48-1.64c.12-.6.21-.94.2,0-.12.51-.16,1.18-.38,2.15-.1,0-.32.92-.8,2l-.12-.14c-.5,1.18-.41,1.11-.74,1.81-.82,1.19-1.13,1.34-1.43,1.52-1.57,1.67,1.23-1-.61,1a16.41,16.41,0,0,1-4.65,3.07c-1.29.42.19-.17-.28-.05a7.75,7.75,0,0,1-1.11.48c-.28.07-.2,0-.16,0-1,.29,0,.21-1.62.51a6.29,6.29,0,0,1-2.07.07,23,23,0,0,0-3.32,0c-.5,0,.24-.1.09-.16-2.81.13-2.41.1-4.71.27l-2-.1c1.45.12-.4.26-2,.38l1.24.13-2.58.09c-.31,0,0-.08.37-.15l-.47,0c-.92-.06-.44-.15.22-.24l.93.1c.63-.1,1.23-.21,1.1-.3s-.49,0-.85,0c.17,0,.27-.05.2-.07a7.47,7.47,0,0,0-.78.06l-.59-.17-.14.07-3.37-.12c-2.41.18-4.51.45-8.34.52,1-.13.2-.21.26-.37,1,.17,3-.07,5,0-1,0-.81-.09-.55-.12l-3.54.15c.08-.13-.75-.1-1.67-.15.69.25-2.64.17-4.08.25-.09-.09.25-.17,2-.15-1.94-.19-2.5.29-4.41.13a4.41,4.41,0,0,0,.83,0,13.23,13.23,0,0,1-2.87-.06h.42a89.52,89.52,0,0,0-9.09.21,1.37,1.37,0,0,1,.55-.3l-5.09.72c.45-.19-1.27-.62,1.09-.73-.67,0-1.51-.05-2.94,0,.46,0,1.15.27.52.28-1.74-.2-1.21-.1-3.34-.28.69,0-.08.33-1.18.32.17,0-.09-.28.31-.31l-2.73.28c.69-.05.12-.24-.49-.32.29.05-2.35,0-3.08,0l1.16.07c-3.08-.05-3,.39-6.1.38.37-.06.91-.36-.64-.4a35,35,0,0,1-5.86.81l-.52-.08L92,29.53c1.29-.22,4.92-.67,6.89-.85a12.68,12.68,0,0,0-2-.09c-.61-.08.94-.12,1.45-.12l-4,0c.18.17-3.07.17-2.92.31l4.36-.18c.18.17-2.52.48-5.37.45-.72-.07.54-.3.48-.35-.36.05-2.7.11-3,.06l1.21-.09c-1.59-.06-2.59.23-4.49.07a17.79,17.79,0,0,0-2.08-.12c1.07.19,1.28.79.57.93-.23,0-3.45-.18-4.2-.28-1.09-.15,1.62-.36.7-.49a3.87,3.87,0,0,1-.89.12c-.69,0,.29-.14-1.21-.12-.25.17-3,0-.71.15-1.47.05-1.56,0-3.28,0,.54.11-1.55.37-3,.42.09,0-.24-.1-.4-.12l-7.43-.1c-.26,0-1.61-.09-1-.16a15.42,15.42,0,0,1-1.64.09c-1.67-.15,1.93,0,.66-.2-.11.1-2.24.14-3.47.2a26.6,26.6,0,0,0,4.08,0c0,.21-2.15.43-5.08.53-2.33.05-1-.14-1.41-.11-4.38,0-3.73.37-7.36.22-1.45-.14-.07-.27-.39-.37,1.9,0,2.91.09,4.2.08l-1.58-.06a23.91,23.91,0,0,1,2.56,0c-1.21-.12-7.4,0-10.77-.14-.6.05-1.64.1-1.15.15l1.07,0c1,.11-2,.15-.66.2-1.43.08-3,.2-5,.14l-.38-.16a10.85,10.85,0,0,0,1.88.05c-.84.07-3.09-.21-4,0l1.41.11c-1.44.07-3.22.24-5,.19.81.15.41,0,1.68.16-1.1-.22,4.57,0,2.8-.22,1.31.2,2.26.08,4,.26,0-.05-.6-.1.9-.07l.33-.05h0a7.63,7.63,0,0,1-.77-.08c.75-.12,3.14-.11,3.94-.17s-.37.06.12.11l1.2-.09c.12.11,2.37.19.27.25H45.8c1.11.06,2.64.09,3.58,0s2.25-.13,1.48,0l3-.07,0,0c2.92,0,6-.19,9.35,0,1,0,2-.07,3.65,0l.32.09c1.26,0,3.79.1,4.34,0,1.36.26,6.13.06,8.35.1l.08-.12c1.53,0,3,0,4.9-.08l-.12-.12c1.64-.09,4.21.08,6.79.07a8.67,8.67,0,0,1-1.29,0c3.09.25,6.52-.19,9.33,0a13.5,13.5,0,0,1,1.69,0h.12l1,.06-.82-.06c.54,0,1.36,0,2.16-.05l.34.12h.18c.79,0,.64-.06.22-.15.4,0,.77,0,1.06-.07.64.19,2.1-.07,3,.14.54-.1,4-.08,4.46-.29,0,0,.26,0-.17,0a24.56,24.56,0,0,0,2.58,0l.38.16,2-.21c1.19.09,1.68.15.5.27,2.84-.19,2.31-.07,4.73-.25l-.12.1c.86,0,2.24-.14,2.76-.06,1.93.19,9.56,0,14.52.2-1-.29,2.31.13,2.5-.09.29.07,1,.11.18.17,2.53-.07,3.8.1,5.55-.09.29.07-.54.1-.28.15a6.13,6.13,0,0,1,1.06,0c.26,0-.37.06-.77.09,2.59,0,2.85-.23,3-.43a11.9,11.9,0,0,0,2.91-.05c.45.07,1.22.14-.39.16.9,0,5.52.09,5.61-.07a10.72,10.72,0,0,0,1.5,0h4.2l-.55,0a7.2,7.2,0,0,1,1.33-.12,10.13,10.13,0,0,0,2-.16l0,0a8.67,8.67,0,0,0,2.6-.64,19.34,19.34,0,0,0,2.42-1.07h-.23c.07-.22.82-.55,1.67-1.16a10.32,10.32,0,0,0,2.47-2.29,7.14,7.14,0,0,1-.56.54A19.3,19.3,0,0,0,179,21.06c.13-.23-.15.39-.3.73.78-1.39.71-1.53.67-1.55s-.16,0,.19-1.07c.19-.39.07.61.48-.93a5,5,0,0,0,.19-1.07,13.68,13.68,0,0,0,.08-1.78c0-.66-.09-1.36-.13-2s-.16-1.3-.28-1.83c.05.48.1.94-.21-.09-.11-.4-.2-.88-.38-1.37a10.44,10.44,0,0,0-.57-1.52A8.26,8.26,0,0,0,178,7.14a5.25,5.25,0,0,0-.82-1c-.12-.18-.15-.25-.14-.27A16.4,16.4,0,0,0,175.15,4a9.41,9.41,0,0,0-1.07-.79,3.41,3.41,0,0,0-.78-.45A8.66,8.66,0,0,0,169.39.87,22,22,0,0,0,167,.46c-.63,0-1-.09-1-.18-1.29-.05-2.53,0-3.79,0l.09,0a30.44,30.44,0,0,0-4.11.16c-.56,0-.15-.06-.11-.08a55.28,55.28,0,0,0-6.83.13l-.31-.13c-.8.08-5.09-.19-8.55,0a1.65,1.65,0,0,1,.38-.05c-3.89.14-9.32-.34-10.74.11l-2.57.11c3.32,0-.5.19.87.27-1.31,0-3.38-.14-1.77-.16l.25,0c.59-.23-4.13-.08-4-.24-6.54,0-12.91-.12-19-.13l.71.18H104.3c-.56,0-.75-.14.77-.13a11.72,11.72,0,0,0-2.6.12c-3-.07,1.17-.21.25-.21h-1.24l.28,0a22.56,22.56,0,0,1-2.93.15c-1.16,0-.59-.12-1-.12,0,0,0,0-.14,0h-.56l-2.69,0,1.08.15c-1.2.07-2.53,0-1.29.15C92.36.22,84.14.38,83,.31c-1.67.1-3.32.1-5.36.09.51,0,.81.19-1,.17.64-.34-3.23-.15-4.65-.39,1.27.16-5,0-3,.27-1.47,0-.09-.13-1.21-.2-3.5.12-7.71-.09-12,0-.07,0,.65.12-.27.18L53.25.16a8.31,8.31,0,0,1-2.34.1c.22,0,.55.1,0,.11C42.41.16,33.57.54,25,.14c1.16.09.38.1-.51.1.58,0,0,.11.1.17L21,.24c-.65.17-3.86,0-4.24.17l1.15,0C16.35.57,20,.8,19.77,1c1.69-.22,4.48.31,7.26,0,.62.05-.52.07-.19.13A19.4,19.4,0,0,1,30,1.1l-.18,0c4.44,0,6.34.07,11.33.14l-.37-.12c1.08,0,1.3.06,1.8.09,1.23-.18-3,0-1.89-.21,1.43.24,7.56,0,8.53.27,1.65,0-.49-.13,1.16-.13l.44.07.42-.09a4.73,4.73,0,0,1,1.66.17c-.26,0-.74,0-1,0,1.4.09,4,0,4.43,0l-1.58-.05c4.5-.06,10,0,14.34-.12l-.33,0C72,1,71.38,1.18,75,1.13H74.9c.73,0,1.7-.08,2.7-.07-.92.06,1.73.12.53.2A30.81,30.81,0,0,0,82.28,1l.55.09a21.24,21.24,0,0,1,2.7-.15C84,1,86.69,1.05,85,1.16c3.82.2,5.68-.21,7.43.09,1.75-.26-3.31-.14-2.32-.2C89.3,1,91.57.86,92.77.89s2.08.32,5.15.32l-.63,0c1.15.06,2.25-.09,3.66,0,.79-.15,1.83,0,2.06-.18l-2.82,0a56.51,56.51,0,0,1,5.73-.17c-.21,0-1,.09-1.53.12.77.06,1.48,0,2.28,0-.23.2-3.42.05-5.13.2.82.08,3.23-.15,2.37.07,1.24-.27,3,0,5.11-.18l-.14.12c.33,0,1-.07,1.62-.07l-1.1.16c1.68-.14,3.25.11,4.86,0-3.38,0-.76-.14-2.19-.23,4.17-.16,2.4.31,7.07.25-.63,0-2.37-.07-1.39-.12s2.07.07,2.61.13c3.1,0-.47-.12.85-.2a15.28,15.28,0,0,0,2.87-.1v.12c3.52.08.93-.25,4.11-.16l-1.34.17,1.65-.05-.34.14a40.53,40.53,0,0,1,4.12,0c-.41-.09.23-.22,1.8-.23,1.06.07-.6.12,1.61.1a6.45,6.45,0,0,1-2,.06c-.1,0-.49.07-.59.11,1.15.09,2.88,0,3.68,0-.31,0-.68,0-.86,0l3.2-.16c.51,0,.11.08-.29.11.65,0,1.1-.07,2.06-.08-.25.1-.19.2-1.54.25l3.05-.11c.21,0,1.57.12,1.17.15,1.7.06,4.16-.19,6.41-.11a6.37,6.37,0,0,1,.83,0c2.11,0,4,.14,6.48,0l1.42.17c2,0-1.92-.22,1.34-.29,2.31-.05.87.15,1.68.2.57,0,1.36-.11,2.27-.15.45,0,.94,0,1.44,0s1,.07,1.49.14C166.25,1.41,165.75,1.33,165.09,1.35Zm14,15c0-.46,0-1.35,0-1.68A3.81,3.81,0,0,1,179.09,16.33ZM149.63,28.91a9.52,9.52,0,0,1,1.49,0C150.68,28.94,150.18,28.94,149.63,28.91Zm-102.37.84h.05C48.35,29.79,48,29.77,47.26,29.75Zm-2.17-.06c-.22,0-.21,0-.11,0a9.41,9.41,0,0,1,1.19,0A5.43,5.43,0,0,0,45.09,29.69ZM97.54.24l.42,0C97,.31,97.28.27,97.54.24Z"/><path class="cls-1" d="M153.8,28.74c.13,0,.17,0,.2.07C154.18,28.79,154.18,28.76,153.8,28.74Z"/><path class="cls-1" d="M150.05,1.41H150l-.08,0Z"/><path class="cls-1" d="M78.7,28.67c.44,0,.69,0,.86.06C79.58,28.7,79.38,28.68,78.7,28.67Z"/><path class="cls-1" d="M33.59,29.9l1.39,0c-.67,0-.91,0-1.25,0C33.76,29.86,34,29.9,33.59,29.9Z"/><path class="cls-1" d="M21.52,29.15l-.63,0,.06.06C21.81,29.22,22.42,29.18,21.52,29.15Z"/><path class="cls-1" d="M32.3,29.5a8,8,0,0,0-1.95-.05h.17C30.23,29.59,31.27,29.55,32.3,29.5Z"/><path class="cls-1" d="M30.12,29.45h-.9C29.11,29.51,29.59,29.47,30.12,29.45Z"/><path class="cls-1" d="M42.33,29.76c-.46,0-.29.13-.55.09C41.27,30,44.86,29.69,42.33,29.76Z"/><polygon class="cls-1" points="31.51 29.16 31.86 29.29 32.41 29.19 31.51 29.16"/><path class="cls-1" d="M39.2,29.26l-1.55,0a1.36,1.36,0,0,1-.42,0C38.19,29.27,39.24,29.29,39.2,29.26Z"/><path class="cls-1" d="M37.23,29.26c-.5,0-1,0-1.25,0Z"/><polygon class="cls-1" points="33.64 29.13 34.1 29.15 35.2 29.16 33.64 29.13"/><path class="cls-1" d="M55.92,29.28l1.7,0c.17,0-.29-.06-.92,0C56.29,29.22,55.66,29.24,55.92,29.28Z"/><path class="cls-1" d="M50.79,28.94a4.2,4.2,0,0,1,.75.09l.05-.15Z"/><path class="cls-1" d="M55.74,28.9c.17,0,2.46-.12.31-.11C55.88,28.83,54.18,28.87,55.74,28.9Z"/><polygon class="cls-1" points="81.32 29.1 80.89 29.1 80.95 29.35 81.32 29.1"/><path class="cls-1" d="M103.87,28.49c-2-.06-.48.16-2.3.08-.47.06,1.49.06,1,.11C103.79,28.62,104.43,28.66,103.87,28.49Z"/><path class="cls-1" d="M102.58,28.68l-.62,0C102.31,28.71,102.47,28.69,102.58,28.68Z"/><polygon class="cls-1" points="18.55 0.11 17.26 0.06 18.09 0.14 18.55 0.11"/><path class="cls-1" d="M16.07.3,15.76.14,15,.28A9.41,9.41,0,0,1,16.07.3Z"/><path class="cls-1" d="M178,19.57v.1a4,4,0,0,0,.38-1A6.92,6.92,0,0,1,178,19.57Z"/><path class="cls-1" d="M174.07,4.56l.21.2A3.76,3.76,0,0,0,174,4.3Z"/><path class="cls-1" d="M160.58,1.66l1.91,0C161.18,1.67,160.42,1.48,160.58,1.66Z"/></svg>