<svg id="Camada_1" data-name="Camada 1" xmlns="http://www.w3.org/2000/svg" viewBox="0 0 89.38 24.48"><defs><style>.cls-1{fill:#878787;}</style></defs><rect class="cls-1" x="0.81" y="0.72" width="88.16" height="22.92" rx="11.46"/><path class="cls-1" d="M12,.13c.31,0,.2-.11.25-.13C11.74.05,12,.15,12,.13Z"/><path class="cls-1" d="M7.11,1.55l.06-.08c-.21.14-.42.27-.62.43A6.53,6.53,0,0,1,7.11,1.55Z"/><path class="cls-1" d="M3.35,4.42C3.77,4.2,4.51,3.13,5.26,2.7l.14-.05.22-.34A18.45,18.45,0,0,0,3.35,4.42Z"/><path class="cls-1" d="M1.56,6.3c.14-.1-.25.52.33-.51l-.07.09Z"/><path class="cls-1" d="M1.82,5.88c.26-.45-.23.26,0,0Z"/><path class="cls-1" d="M.83,8.05,1,7.38c-.1.12-.31.69-.26.47C.54,8.52.63,8.4.83,8.05Z"/><path class="cls-1" d="M.74,8.69c0-.11.06-.22.09-.34A.53.53,0,0,0,.74,8.69Z"/><path class="cls-1" d="M1,7.64l-.2.71C.89,8.27.94,8.28.92,8,1,8.1,1,8,1,7.64Z"/><path class="cls-1" d="M1.22,7.26c.2-.33.43-.75.2-.12.26-.58.36-.84.31-.81A3.44,3.44,0,0,0,1.22,7.26Z"/><path class="cls-1" d="M3.33,4.72l.37-.33L3.94,4C3.82,4.21,3.27,4.7,3.33,4.72Z"/><path class="cls-1" d="M0,12.2s.11-.23.16-.28l0-.5A3.56,3.56,0,0,1,0,12.2Z"/><path class="cls-1" d="M.16,11.92a6.2,6.2,0,0,0,.08.74C.2,12,.22,11.88.16,11.92Z"/><path class="cls-1" d="M.9,8.86c0-.4.18-.78.27-1.18A11.53,11.53,0,0,0,.84,9.09Z"/><polygon class="cls-1" points="0.35 15.06 0.16 14.66 0.47 15.37 0.35 15.06"/><path class="cls-1" d="M1,16.88c-.19-.27.05.45-.12.16a6.23,6.23,0,0,0,.73,1.17A5.53,5.53,0,0,1,1,16.88Z"/><path class="cls-1" d="M2,18.74l-.42-.53A4.45,4.45,0,0,0,2,18.74Z"/><path class="cls-1" d="M.33,13.92a1.73,1.73,0,0,0,0,.6l.06-.31C.36,14.13.35,14,.33,13.92Z"/><path class="cls-1" d="M.38,14.2h0a4.27,4.27,0,0,0,.11.63A4.25,4.25,0,0,1,.38,14.2Z"/><path class="cls-1" d="M.32,13.85v.07A.06.06,0,0,0,.32,13.85Z"/><path class="cls-1" d="M.42,10.73c0,.44,0,1.33.17.48C.54,10.89.43,11.38.42,10.73Z"/><path class="cls-1" d="M.4,13.48c0-.26,0-.52,0-.78,0,0-.06.16-.1-.06C.32,12.92.35,13.2.4,13.48Z"/><polygon class="cls-1" points="0.49 13.85 0.4 13.48 0.44 13.77 0.49 13.85"/><path class="cls-1" d="M1.4,17.5c.18.3.37.62.6,1a12.57,12.57,0,0,1-.62-1.21C1.32,17.22,1.18,17.07,1.4,17.5Z"/><path class="cls-1" d="M.79,15.93l0,.07S.8,15.92.79,15.93Z"/><polygon class="cls-1" points="4.72 21.58 4.68 21.52 4.66 21.53 4.72 21.58"/><path class="cls-1" d="M1.37,17.18c-.14-.31-.23-.49-.32-.66a7.71,7.71,0,0,0,.33.74S1.42,17.28,1.37,17.18Z"/><path class="cls-1" d="M2.7,19.67l-.31-.51A2,2,0,0,0,2.7,19.67Z"/><path class="cls-1" d="M.83,16.12l0,0C.82,16.19.83,16.17.83,16.12Z"/><path class="cls-1" d="M.83,16.12a3.6,3.6,0,0,0,.22.4C1,16.34.89,16.16.82,16A.57.57,0,0,1,.83,16.12Z"/><path class="cls-1" d="M6.12,21.73a2.59,2.59,0,0,1-1.36-.91c-.58-.43-.47.13-.08.7.05,0,.07-.05.73.37l-.64-.6c-.21-.23-.33-.4-.06-.21a4.65,4.65,0,0,1,1,.86c-.28-.31,1.18.51,1.08.24L6,21.79S6.31,21.88,6.12,21.73Z"/><path class="cls-1" d="M3.6,20.51l-.22-.23c.23.28.37.5.69.88s.53.37.59.37a13.08,13.08,0,0,1-1.14-1.09Z"/><path class="cls-1" d="M2.47,19.16c.24.14.73.72.54.27-.55-.73-.47-.45-.8-.9.86,1.23-.32-.31.26.61A4.55,4.55,0,0,1,2,18.47c.13.24.25.48.39.69l0,0h0c0-.06,0-.08,0,0l0,0,.08,0c.24.37,0,.07-.08,0h0a11.08,11.08,0,0,0,1,1.15A12.94,12.94,0,0,1,2.47,19.16Z"/><path class="cls-1" d="M.78,12s0,0,0,0S.77,12.17.78,12Z"/><path class="cls-1" d="M.73,12.6a1.52,1.52,0,0,1-.07-.54c0-.3.06,0,.09,0,0-.2,0-.73-.12-.07v.1A7,7,0,0,1,.5,13.34,2.82,2.82,0,0,0,.73,12.6Z"/><path class="cls-1" d="M1.14,16a8.72,8.72,0,0,0,.51,1.12,4.21,4.21,0,0,1-.16-.61l0,.05C1.23,15.91,1.21,16.07,1.14,16Z"/><polygon class="cls-1" points="4.81 21.71 4.6 21.69 5.29 22.01 4.81 21.71"/><polygon class="cls-1" points="6.18 22.62 6.08 22.68 6.49 22.85 6.18 22.62"/><path class="cls-1" d="M88.34,12.91v-.34A2.93,2.93,0,0,0,88.34,12.91Z"/><path class="cls-1" d="M87.91,15.3l0,.07C87.94,15.26,87.94,15.21,87.91,15.3Z"/><path class="cls-1" d="M44.75,24.27c.51.09,1.09.23,1,.12l-.16-.11A6,6,0,0,1,44.75,24.27Z"/><path class="cls-1" d="M71.13,23.62l-.15,0-.35.1Z"/><path class="cls-1" d="M71.49,23.17l.68.07C72,23.22,71.8,23.19,71.49,23.17Z"/><path class="cls-1" d="M81.83,2.34l-.4,0C82,2.52,81.76,2.38,81.83,2.34Z"/><path class="cls-1" d="M22.29,24.24c.44,0,.8.06,1.11.06A3,3,0,0,0,22.29,24.24Z"/><path class="cls-1" d="M89.37,14c0-.23,0-.33,0-.32C89.34,14,89.34,14.08,89.37,14Z"/><path class="cls-1" d="M24.69,24.3l-.24,0c-.32,0-.65,0-1.05,0A4.29,4.29,0,0,0,24.69,24.3Z"/><path class="cls-1" d="M31.39,1.34h-.11S31.32,1.34,31.39,1.34Z"/><path class="cls-1" d="M16.57.25h.61A4.37,4.37,0,0,0,16.57.25Z"/><path class="cls-1" d="M12.53,24.32c-.33,0,0,0,0,0Z"/><path class="cls-1" d="M10.89,23.81c.07,0,.13,0,.14,0A.26.26,0,0,1,10.89,23.81Z"/><path class="cls-1" d="M28,23.63h0C27.93,23.61,28,23.61,28,23.63Z"/><path class="cls-1" d="M12,24.26l.44,0Z"/><path class="cls-1" d="M12.09,24.32l-.31,0S11.78,24.32,12.09,24.32Z"/><path class="cls-1" d="M13,24.32h0Z"/><path class="cls-1" d="M58.64,1.05h-.07C58.24,1.09,58.38,1.08,58.64,1.05Z"/><path class="cls-1" d="M53.4,23.14h0Z"/><path class="cls-1" d="M54.6,23.06a3.12,3.12,0,0,1-1.18.09l.39.31Z"/><path class="cls-1" d="M87.17,7.29l.25.75c-.54-.8-.82-1.4-.6-.7.16,0,.54.64.78,1.36s.42,1.46.59,1.48v.53c0-.15,0-.17-.07-.31,0,1,.37.72.35,2,0,.46-.12.78-.14.46a8.8,8.8,0,0,1,0,1c-.06.29-.1.21,0-.08A13.37,13.37,0,0,1,88,15.39v0a9.17,9.17,0,0,1-.17,1c-.18.36,0-.2,0-.12a7.35,7.35,0,0,1-.28.83c-.25.28,0-.39.24-.95a1.82,1.82,0,0,0-.45.76,3.67,3.67,0,0,1-.77,1.36l.38-.71c-.42.35-.7.92-1.37,1.52.2-.09,1.34-1.26.86-.46a8.83,8.83,0,0,0-.68.89c-.11-.09-.38.33-.85.73l-.08-.14c-.45.48-.37.5-.64.79a1.36,1.36,0,0,1-1,.4c-1,.59.8-.26-.38.5A28.25,28.25,0,0,1,80,22.86c-.68.12.1-.13-.15-.11s-.39.16-.58.24-.11,0-.09,0c-.51.11,0,.19-.84.31a2.5,2.5,0,0,1-1.07,0,6.2,6.2,0,0,0-1.72,0c-.26,0,.13-.1,0-.16-1.46.13-1.25.1-2.45.27l-1-.1c.75.12-.2.26-1,.38.26.06.49.11.64.13l-1.33.09c-.16,0,0-.08.19-.15l-.25,0c-.47-.06-.23-.15.12-.24l.48.1c.33-.1.64-.21.57-.3a3.52,3.52,0,0,1-.44,0c.09,0,.14,0,.1-.07a2.12,2.12,0,0,0-.4.06l-.31-.17-.07.07-1.75-.12a31.65,31.65,0,0,1-4.33.52c.5-.13.11-.21.14-.37a17.38,17.38,0,0,0,2.57,0c-.54,0-.42-.09-.29-.12l-1.83.15c0-.13-.39-.1-.87-.15.36.25-1.37.17-2.12.25,0-.09.13-.17,1-.15-1-.19-1.3.29-2.29.13a1.21,1.21,0,0,0,.43,0c-.52.07-1.79,0-1.49-.06h.22a24.23,24.23,0,0,0-4.72.21.89.89,0,0,1,.29-.3l-2.64.72c.23-.19-.66-.62.57-.73a9.73,9.73,0,0,0-1.53,0c.24,0,.6.27.27.28-.9-.2-.63-.1-1.74-.28.36,0,0,.33-.6.32.08,0-.05-.28.16-.31l-1.42.28c.35-.05.06-.24-.25-.32.14.05-1.23,0-1.6,0l.6.07c-1.6-.05-1.58.39-3.17.38.2-.06.48-.36-.33-.4a10.23,10.23,0,0,1-3,.81l-.27-.08L39.38,24c.67-.22,2.55-.67,3.58-.85a3.53,3.53,0,0,0-1.07-.09c-.31-.08.49-.12.75-.12l-2.08-.05c.09.17-1.59.17-1.51.31L41.31,23c.09.17-1.31.48-2.79.45-.37-.07.29-.3.25-.35a8,8,0,0,1-1.53.06l.62-.09a17.21,17.21,0,0,1-2.33.07c-.34,0-1-.22-1.07-.12.55.19.66.79.29.93-.12,0-1.79-.18-2.18-.28-.56-.15.84-.36.37-.49a1.17,1.17,0,0,1-.46.12c-.36,0,.14-.14-.63-.12-.13.17-1.59,0-.37.15-.76.05-.81,0-1.71,0,.29.11-.8.37-1.56.42,0,0-.13-.1-.21-.12-1.56,0-2.4-.1-3.85-.1-.14,0-.84-.09-.54-.16a4.24,4.24,0,0,1-.85.09c-.87-.15,1,0,.34-.2a10,10,0,0,1-1.8.2,7.21,7.21,0,0,0,2.12,0c0,.21-1.12.43-2.64.53-1.2.05-.52-.14-.73-.11-2.27,0-1.93.37-3.82.22-.75-.14,0-.27-.2-.37,1-.05,1.51.09,2.18.08l-.82-.06a6.47,6.47,0,0,1,1.33,0c-.63-.12-3.84,0-5.59-.14-.31.05-.85.1-.59.15l.55,0c.51.11-1,.15-.34.2a7.26,7.26,0,0,1-2.68-.08l-.17-.18a3,3,0,0,0,1,.2,5,5,0,0,1-1-.22,2.6,2.6,0,0,0-1.06-.22l.7.29a9.41,9.41,0,0,1-1.26-.23,4.54,4.54,0,0,1-1.33-.52c.34.33.2.1.77.54-.24-.21.34,0,.89.21s1.07.28.63.05a8.1,8.1,0,0,0,2.09.63c0-.05-.33-.11.49-.05l.18,0h0s0,0,0,0a1.32,1.32,0,0,1-.41-.1c.42-.07,1.65-.07,2.07-.13s-.19.06.06.11L14.3,24c.07.11,1.23.19.14.25h1a10.68,10.68,0,0,0,1.86,0c.46,0,1.17-.13.77,0l1.53-.07,0,0a39.38,39.38,0,0,1,4.85,0,15.53,15.53,0,0,1,1.89,0l.17.09c.65,0,2,.1,2.25,0a27.06,27.06,0,0,0,4.33.1l0-.12c.8,0,1.56,0,2.54-.08l-.06-.12c.85-.09,2.18.08,3.53.07a2.41,2.41,0,0,1-.68,0c1.61.25,3.39-.19,4.84,0a3.66,3.66,0,0,1,.88,0h.06l.51.06-.43-.06c.28,0,.71,0,1.12-.05l.18.12h.09c.41,0,.33-.06.11-.15a5.42,5.42,0,0,0,.55-.07c.34.19,1.09-.07,1.55.14a15.51,15.51,0,0,0,2.31-.29s.14,0-.09,0a6.64,6.64,0,0,0,1.34,0l.2.16,1-.21c.62.09.87.15.26.27,1.47-.19,1.2-.07,2.45-.25l-.06.1A8.23,8.23,0,0,1,56.77,24c1,.19,5,0,7.53.2-.49-.29,1.2.13,1.3-.09.15.07.51.11.09.17a20.58,20.58,0,0,0,2.88-.09c.15.07-.28.11-.14.15a1.65,1.65,0,0,1,.55,0c.13,0-.19.06-.4.09,1.34,0,1.48-.23,1.57-.43a3.24,3.24,0,0,0,1.51-.05c.24.07.63.14-.2.16A15.51,15.51,0,0,0,74.37,24a2.91,2.91,0,0,0,.78,0c1,0,1.15,0,2.18,0L77,24a6.73,6.73,0,0,1,1.72-.13l0,0a4.91,4.91,0,0,0,1.38-.2c.19-.08.4-.08,1.34-.33l-.14-.08c.07-.29,1.67-.43,2.56-1.18l-.38.15a5.87,5.87,0,0,1,1-.53,4.08,4.08,0,0,0,1.07-.56c.11-.08-.14.17-.27.31,1.32-1,.08-.23.9-1.14.21-.11,0,.37.53-.24a6.62,6.62,0,0,0,.83-1.26l.49-.94a5.15,5.15,0,0,1,.46-.85c-.17.19-.33.38-.14-.14.31-.79,1-2.16.87-3,0-.1.06-.14.07-.14.05-.33,0-.87,0-1.38a5.92,5.92,0,0,0-.17-1.16,3.82,3.82,0,0,0-.31-2.24c-.31-.89-.72-1.65-.55-1.72a13.47,13.47,0,0,0-1-1.77l.06,0a5.54,5.54,0,0,0-1.53-1.61c-.19-.22,0-.1,0-.1-.33-.33-.6-.59-.83-.8s-.44-.34-.64-.48a7.48,7.48,0,0,0-1.55-.75l-.09-.18a4.61,4.61,0,0,1-.58-.27c-.27-.14-.63-.28-1-.45A11.38,11.38,0,0,0,79.82.45,7.1,7.1,0,0,0,78.38.31s.06,0,.21,0C77.51.26,76.33.2,75.28.15A5.25,5.25,0,0,0,73,.32L71.64.43c1.72,0-.26.19.45.27-.67,0-1.75-.14-.92-.16l.13,0c.31-.23-2.14-.08-2.09-.24-3.39,0-6.7-.12-9.87-.13l.36.18H58.6c-.3,0-.39-.14.4-.13a3.2,3.2,0,0,0-1.35.12c-1.55-.07.6-.21.13-.21h-.65l.15,0a6.14,6.14,0,0,1-1.52.15c-.6,0-.31-.12-.55-.12,0,0-.07,0-.36,0l-1.39,0L54,.32c-.61.07-1.31,0-.66.15-1-.25-5.21-.09-5.79-.16A22.18,22.18,0,0,1,44.78.4c.26,0,.42.19-.5.17.34-.34-1.67-.15-2.41-.39.66.16-2.6,0-1.56.27-.76,0-.05-.13-.63-.2-1.81.12-4-.09-6.24,0,0,0,.34.12-.14.18L32.12.16c-.45,0-.41.26-1.22.1.11,0,.28.1,0,.11-4.4-.21-9,.17-13.45-.23.61.09.21.1-.26.1.3,0,0,.11.06.17L15.37.24c-.34.17-2,0-2.2.17l.59,0c-.79.19,1.1.42,1,.66.88-.22,2.32.31,3.77,0,.31.05-.28.07-.11.13A5.29,5.29,0,0,1,20,1.1l-.09,0c2.3,0,3.29.07,5.88.14l-.19-.12a7.28,7.28,0,0,1,.93.09c.64-.18-1.56,0-1-.21.74.24,3.92,0,4.42.27.86,0-.25-.13.61-.13l.22.07.22-.09c.56,0,.84.11.86.17-.13,0-.38,0-.53,0,.73.09,2,0,2.3,0l-.82-.05c2.34-.06,5.19,0,7.44-.12l-.17,0c1.72-.11,1.38.06,3.27,0h-.07a9.9,9.9,0,0,1,1.41-.07c-.48.06.89.12.27.2A8.65,8.65,0,0,0,47.18,1l.28.09a5.84,5.84,0,0,1,1.4-.15c-.77.08.6.14-.26.25,2,.2,2.94-.21,3.85.09.91-.26-1.72-.14-1.21-.2C50.82,1,52,.86,52.62.89a19.4,19.4,0,0,0,2.67.32l-.33,0c.6.06,1.17-.09,1.9,0,.41-.15,1,0,1.07-.18l-1.47,0a15.29,15.29,0,0,1,3-.17,5.61,5.61,0,0,1-.79.12c.4.06.77,0,1.19,0-.12.2-1.78.05-2.67.2.43.08,1.68-.15,1.23.07C59,1.07,60,1.37,61,1.16L61,1.28a7.4,7.4,0,0,1,.84-.07l-.57.15c.87-.13,1.69.12,2.52,0-1.75,0-.39-.14-1.13-.23,2.16-.16,1.24.31,3.66.25-.32,0-1.23-.07-.71-.12a10.65,10.65,0,0,1,1.35.13c1.6,0-.25-.12.44-.2.54.15.78-.06,1.49-.1v.12c1.83.08.49-.25,2.13-.16l-.69.17.85-.05L71,1.36a10.94,10.94,0,0,1,2.14,0c-.22-.09.12-.22.93-.23.55.07-.31.12.84.1a1.8,1.8,0,0,1-1,.06s-.25.07-.31.11a13.76,13.76,0,0,0,1.91,0,2.59,2.59,0,0,1-.44,0l1.66-.16c.26,0,0,.08-.15.11.33,0,.57-.07,1.06-.07-.12.09-.09.19-.8.24.55-.05,1-.06,1.54-.07.1,0,.75.2.55.21a10.06,10.06,0,0,1,3,.72,2,2,0,0,1,.39.13,18.55,18.55,0,0,1,2.6,1.8,4.6,4.6,0,0,1,.37.6c.67.68-.48-.85.65.3.75.87.14.43.34.77a4.85,4.85,0,0,1,1.35,2.19C87.42,7.8,87.31,7.58,87.17,7.29Zm-.82,11.27c.13-.19.3-.63.45-.73C86.78,18.12,86.63,18.28,86.35,18.56ZM69.28,23.39a2.62,2.62,0,0,1,.78,0A5.27,5.27,0,0,1,69.28,23.39Zm-53.1.84h0C16.75,24.27,16.56,24.25,16.18,24.23Zm-1.13-.06c-.11,0-.1,0-.05,0a2.58,2.58,0,0,1,.62,0A1.53,1.53,0,0,0,15.05,24.17ZM55.09.24l.22,0C54.81.31,55,.27,55.09.24Z"/><path class="cls-1" d="M71.44,23.22a.16.16,0,0,1,.11.07C71.64,23.27,71.65,23.24,71.44,23.22Z"/><path class="cls-1" d="M81.9,2.36l0,0h0Z"/><path class="cls-1" d="M32.49,23.15a3.52,3.52,0,0,1,.45.06S32.84,23.16,32.49,23.15Z"/><path class="cls-1" d="M8.93,23.91l.75.16A5.92,5.92,0,0,1,9,23.86S9.16,24,8.93,23.91Z"/><path class="cls-1" d="M3.88,20c-.08-.07-.15-.17-.23-.23l0,.05C3.93,20.12,4.17,20.32,3.88,20Z"/><path class="cls-1" d="M8.39,23.31c0-.13-.48-.21-1-.43l.08,0C7.32,23,7.85,23.18,8.39,23.31Z"/><path class="cls-1" d="M7.33,22.83l-.44-.2C6.81,22.65,7.06,22.72,7.33,22.83Z"/><path class="cls-1" d="M13.63,24.24c-.24,0-.15.13-.29.09C13.07,24.46,14.94,24.17,13.63,24.24Z"/><polygon class="cls-1" points="8.11 22.86 8.24 23.04 8.54 23.04 8.11 22.86"/><path class="cls-1" d="M12,23.72l-.81-.07s-.09,0-.22,0A4.7,4.7,0,0,0,12,23.72Z"/><path class="cls-1" d="M11,23.67a5.36,5.36,0,0,0-.65-.08Z"/><polygon class="cls-1" points="9.17 23.17 9.39 23.25 9.94 23.41 9.17 23.17"/><path class="cls-1" d="M20.68,23.76l.88,0c.09,0-.15-.06-.48,0S20.54,23.72,20.68,23.76Z"/><path class="cls-1" d="M18,23.42a1.17,1.17,0,0,1,.39.09l0-.15Z"/><path class="cls-1" d="M20.58,23.38c.09,0,1.28-.12.16-.11C20.65,23.31,19.77,23.35,20.58,23.38Z"/><polygon class="cls-1" points="33.85 23.58 33.63 23.58 33.66 23.83 33.85 23.58"/><path class="cls-1" d="M45.55,23c-1-.06-.25.16-1.19.08-.25.06.77.06.52.11C45.51,23.1,45.84,23.14,45.55,23Z"/><path class="cls-1" d="M44.88,23.16l-.33,0A2.16,2.16,0,0,0,44.88,23.16Z"/><polygon class="cls-1" points="14.12 0.11 13.45 0.06 13.88 0.14 14.12 0.11"/><path class="cls-1" d="M12.83.3,12.67.14l-.4.14A2.55,2.55,0,0,1,12.83.3Z"/><path class="cls-1" d="M85,19.69v0c.1,0,.2-.14.4-.35Z"/><path class="cls-1" d="M88.21,12.11a.38.38,0,0,1,0,.15,2.44,2.44,0,0,0,.14-.28Z"/><path class="cls-1" d="M85.73,5.63c.16.23.4.48.56.72C85.9,5.86,85.82,5.45,85.73,5.63Z"/></svg>