<svg id="Camada_1" data-name="Camada 1" xmlns="http://www.w3.org/2000/svg" viewBox="0 0 385.83 241.04"><defs><style>.cls-1{fill:#19203b;}</style></defs><rect class="cls-1" x="3.86" y="2.66" width="379.17" height="235.05"/><path class="cls-1" d="M1.42,4.1C1.46,2.28,1,2.93,1,2.66,1.06,5.7,1.53,4,1.42,4.1Z"/><polygon class="cls-1" points="2.38 34.04 2.2 33.51 2.62 37.92 2.38 34.04"/><path class="cls-1" d="M2.37,62c.71-2.64-.12-10.14.13-15.13l.17-.82-.58-2.25C2.18,49.89,2.57,57.76,2.37,62Z"/><path class="cls-1" d="M.82,77c.28-.92.24,3.23.09-3.48,0,.34-.05.43-.07.63C.84,74.71.83,75.55.82,77Z"/><path class="cls-1" d="M.84,74.11c0-3-.23,1.93,0,0Z"/><path class="cls-1" d="M1,87.73.75,83.84c-.16.81-.2,4.27-.32,3C.57,90.81.73,90,1,87.73Z"/><path class="cls-1" d="M1.52,91.41l-.1-2A5.39,5.39,0,0,0,1.52,91.41Z"/><path class="cls-1" d="M1.19,85.13l.23,4.27a2.43,2.43,0,0,0-.09-2C1.55,87.79,1.34,86.94,1.19,85.13Z"/><path class="cls-1" d="M1.3,82.71c.16-2.18.25-5,.5-1.09C1.7,74.19,1.2,75.28,1.3,82.71Z"/><path class="cls-1" d="M3.11,63.46l.2-2.91L3.08,58C3.19,59.29,2.88,63.64,3.11,63.46Z"/><path class="cls-1" d="M.63,111.92c.15.24.4-1.31.6-1.6l-.18-2.86A26.86,26.86,0,0,1,.63,111.92Z"/><path class="cls-1" d="M1.23,110.32l.26,4.3C1.52,110.78,1.4,110.08,1.23,110.32Z"/><polygon class="cls-1" points="2.31 92.1 1.76 85.05 2.32 93.46 2.31 92.1"/><polygon class="cls-1" points="0.61 128.31 0.26 125.88 0.79 130.21 0.61 128.31"/><path class="cls-1" d="M.67,139.19c-.29-1.8-.49,2.46-.67.56.05,2.95.3,5.48.53,7.75A64.53,64.53,0,0,1,.67,139.19Z"/><path class="cls-1" d="M.85,151.31c-.07-1.2-.19-2.45-.32-3.81C.59,148.78.69,150,.85,151.31Z"/><path class="cls-1" d="M1.41,121.93A12.23,12.23,0,0,0,1,125.31l.43-1.69Z"/><path class="cls-1" d="M1.42,123.56v.06c0,1.83,0,3.1,0,3.65C1.39,126.8,1.4,125.68,1.42,123.56Z"/><path class="cls-1" d="M1.42,121.5c0,.16,0,.27,0,.43A.63.63,0,0,0,1.42,121.5Z"/><path class="cls-1" d="M1.93,103.35c.23,2.52.49,7.78.86,2.69C2.49,104.24,2.29,107.15,1.93,103.35Z"/><path class="cls-1" d="M2,119.41l.1-4.56c-.12.09-.28.91-.4-.34Z"/><polygon class="cls-1" points="2.09 121.64 1.95 119.41 1.91 121.1 2.09 121.64"/><path class="cls-1" d="M1.25,143.5c.19,2,.21,4.12.24,6.56.08-2.61.13-5.31.12-7.87C1.48,141.83,1.24,140.71,1.25,143.5Z"/><path class="cls-1" d="M1.37,133.81c0,.14,0,.31,0,.44C1.43,134,1.44,133.76,1.37,133.81Z"/><path class="cls-1" d="M1.48,174c0-.13.05-.25.08-.38a.71.71,0,0,1-.07-.09Z"/><path class="cls-1" d="M1.69,141.76a23.6,23.6,0,0,0-.15-4.25c0,1.46.07,3,.07,4.68C1.67,142.36,1.71,142.39,1.69,141.76Z"/><path class="cls-1" d="M1.05,158c.09-1,.17-2.18.24-3.39A18.5,18.5,0,0,0,1.05,158Z"/><path class="cls-1" d="M1.28,134.91c0-.1,0-.19,0-.29C1.17,135.26,1.21,135.18,1.28,134.91Z"/><path class="cls-1" d="M1.28,134.91c.06,1,.17,1.8.26,2.6,0-1.2-.08-2.3-.14-3.26C1.37,134.49,1.32,134.73,1.28,134.91Z"/><path class="cls-1" d="M4.23,181.27c-.4-.34-.77-5.5-.34-10-.3-4.37-1.6-1.51-2.33,2.31.17.14.33.14.57,4.64.21-1.58.5-10,.86-6.19.2,6-.14,4.89-.35,7.79.49-2.47.72,7.59,1.44,6.29l-.25-5.23C3.94,180.83,4.12,182.73,4.23,181.27Z"/><path class="cls-1" d="M1.6,165.05l-.05-1.86c-.07,2.11-.23,3.63-.54,6.41.2,3.09.34,3.73.48,3.94l.05-9.13Z"/><path class="cls-1" d="M1.55,154.87c.43,1.45.61,5.9,1.08,3.17,0-5.44-.36-3.81-.55-7.06.11,8.78-.24-2.52-.48,3.82-.07-1.73-.1-3.28-.11-4.74-.06,1.58-.12,3.1-.2,4.54,0-.08,0-.14,0-.2v0h0c.06-.37.09-.5.06-.07a1.21,1.21,0,0,0,0,.18,1.34,1.34,0,0,1,.16.4c-.09,2.54-.11.4-.16-.4,0,0,0-.1-.07-.11v0l.23,8.79C1.61,161.33,1.6,159,1.55,154.87Z"/><path class="cls-1" d="M3.71,110.74c0,.27-.07.26-.1.28C3.66,111.59,3.7,111.8,3.71,110.74Z"/><path class="cls-1" d="M3.45,114.35a17.17,17.17,0,0,1-.19-3.25c.13-1.8.21,0,.35-.08-.11-1.26-.31-4.39-.52-.46l.06.62a48.62,48.62,0,0,1-.74,7.47A19.93,19.93,0,0,0,3.45,114.35Z"/><path class="cls-1" d="M2.61,134.86l.21,7.33.37-3.73-.22.19C3.06,134.48,2.78,135.38,2.61,134.86Z"/><polygon class="cls-1" points="1.27 174.85 0.81 173.88 1.46 178.11 1.27 174.85"/><polygon class="cls-1" points="1.32 184.37 0.93 184.02 1.17 186.53 1.32 184.37"/><path class="cls-1" d="M380.65,133.19l-.11-2.15C380.58,132.06,380.61,132.71,380.65,133.19Z"/><path class="cls-1" d="M380.63,148.77l.19.38C380.71,148.43,380.63,148.13,380.63,148.77Z"/><path class="cls-1" d="M184.24,240.21c3.14.37,6.64.94,6.26.49l-1-.43A51.87,51.87,0,0,1,184.24,240.21Z"/><path class="cls-1" d="M344.32,237.62l-.92-.14-2.12.42Z"/><path class="cls-1" d="M346.53,235.82l4.13.28C349.73,236,348.4,235.91,346.53,235.82Z"/><path class="cls-1" d="M380.19,48.11l-.44-2.52C379.75,49.52,380,47.79,380.19,48.11Z"/><path class="cls-1" d="M48,240.09c2.71.17,4.86.24,6.75.26C51.47,240.1,48.84,239.73,48,240.09Z"/><path class="cls-1" d="M385.26,139.32c-.08-1.32-.17-1.88-.27-1.84C385.07,138.84,385.15,139.6,385.26,139.32Z"/><path class="cls-1" d="M62.54,240.35l-1.43-.1c-2,.07-4,.13-6.38.1A41.56,41.56,0,0,0,62.54,240.35Z"/><path class="cls-1" d="M119.89,5.14l-.69,0C119.13,5.14,119.44,5.15,119.89,5.14Z"/><path class="cls-1" d="M30,.76c.88,0,2.33,0,3.69,0C33,.7,31.91.7,30,.76Z"/><path class="cls-1" d="M1.13,222.66c0-2,0-.32,0,0Z"/><path class="cls-1" d="M2.85,212.84c0,.43.11.76.21.81A2.18,2.18,0,0,1,2.85,212.84Z"/><path class="cls-1" d="M82.65,237.65h.17C82.22,237.57,82.33,237.58,82.65,237.65Z"/><path class="cls-1" d="M1.33,219.62c-.05.76-.1,1.63-.13,2.58C1.24,221.79,1.28,221,1.33,219.62Z"/><path class="cls-1" d="M1.13,220c0-.69,0-1.24,0-1.76C1.1,218,1.05,218.24,1.13,220Z"/><path class="cls-1" d="M1.16,225.47c0-1.15,0-2.23,0-3.27,0,.4-.05.57-.07.46C1.14,223.25,1.15,224.09,1.16,225.47Z"/><path class="cls-1" d="M285.23,4l-.43,0C282.76,4.12,283.66,4.09,285.23,4Z"/><path class="cls-1" d="M236.77,235.7l-.23,0,.3,0Z"/><path class="cls-1" d="M244,235.38a28.08,28.08,0,0,1-7.18.36l2.4,1.25Z"/><path class="cls-1" d="M380.53,95.89l-.39,5.09c-.64-6.15-.42-10.59-1-5.81,1.36.72.14,19.79,1.5,20.49l-.29,3.36c0-1-.07-1.12-.05-2.07-.65,6.53,1,4.85.79,13.26-.11,2.93-.31,5-.47,3l.34,6.53c0,1.9-.26,1.44-.24-.46l.11,10,0-.07c.21,1.42.54,4.64.68,6.21-.19,2.54-.14-1.26-.31-.62l.33,5.52c-.35,2.25-.69-2.33-.64-6.14-1.36,5.16.34,4.58-.46,15.7l-.17-5.21c-.77,3.36-.49,7.42-1,13.31.25-1.4,1.21-11.79,1.55-5.8a48.17,48.17,0,0,0,.12,7.14c-.48,0-.36,3.18-.33,7.12l-.64-.27c.18,4.27.51,3.93.79,6.44-.06,4.76-.55,5.74-1,6.86-.1,7.61.79-5.26.91,3.75-.24,6.34,0,10.78.4,18.36-.22,4.43-.39-.78-.57.81l.51,3.93c0,1-.17.65-.25.49.2,3.31.64.28.81,5.48a1.91,1.91,0,0,1,.15.73c0,.17,0,.35,0,.55v.32a1.93,1.93,0,0,0,0,.24c0,.65-.12,1.43-.23,2.17l-1.78-.2-.42,0-.22,0-.37,0-1.51-.06a38.7,38.7,0,0,0-5.86.18c-1.59-.18.77-.39.28-.64-8.84.53-7.57.38-14.83,1.09l-6.18-.42c4.54.48-1.26,1.05-6.34,1.52,1.61.23,3,.43,3.91.53l-8.11.34c-1-.1-.17-.32,1.16-.59l-1.49.15c-2.89-.23-1.39-.6.69-1l2.92.39c2-.38,3.88-.81,3.46-1.19-.53.07-1.54.14-2.66.17.52-.1.86-.2.62-.26a13.2,13.2,0,0,0-2.45.24l-1.85-.72-.44.29-10.62-.45c-7.59.72-14.19,1.78-26.24,2.07,3-.52.64-.85.8-1.47,3.29.65,9.34-.28,15.58-.15-3.26-.07-2.54-.36-1.71-.47l-11.14.6c.25-.51-2.37-.38-5.28-.59,2.2,1-8.3.67-12.83,1-.28-.33.8-.68,6.33-.59-6.1-.76-7.88,1.17-13.87.53a10.27,10.27,0,0,0,2.61-.13c-3.15.3-10.86.07-9-.23H276c-9-.12-27.29,0-28.62.84-.09-.11,1.17-1,1.71-1.2l-16,2.86c1.41-.73-4-2.47,3.43-2.88a80.67,80.67,0,0,0-9.27,0c1.46.11,3.63,1.06,1.64,1.13-5.46-.82-3.79-.44-10.52-1.13,2.18.15-.25,1.3-3.69,1.26.53-.17-.29-1.13,1-1.25l-8.59,1.13c2.15-.2.38-.95-1.54-1.27.89.22-7.42,0-9.71.09l3.64.26c-9.69-.17-9.57,1.58-19.19,1.52,1.17-.23,2.88-1.43-2-1.57a90.52,90.52,0,0,1-18.43,3.21l-1.63-.33-6.53.38c4.07-.87,15.47-2.69,21.7-3.4-3.63-.26-1-.39-6.44-.36-1.92-.31,3-.47,4.56-.48l-12.65-.2c.56.67-9.67.67-9.19,1.23l13.74-.7c.55.68-7.94,1.91-16.9,1.79-2.28-.26,1.7-1.19,1.51-1.42a76.35,76.35,0,0,1-9.32.28l3.8-.36c-5-.25-8.14.89-14.14.25-2.07,0-6.18-.86-6.53-.47,3.37.77,4,3.14,1.78,3.72-.72-.05-10.86-.73-13.22-1.11-3.41-.61,5.11-1.44,2.21-1.95a11.93,11.93,0,0,1-2.79.48c-2.17-.16.9-.57-3.82-.49-.79.68-9.61-.05-2.23.58-4.62.19-4.91-.14-10.34-.11,1.73.44-4.87,1.5-9.49,1.69.27-.17-.77-.4-1.27-.5-9.47-.06-14.55-.37-23.38-.38-.81-.16-5.07-.36-3.26-.65a40.38,40.38,0,0,1-5.16.36c-5.27-.59,6.07-.09,2.06-.8-.35.4-7,.55-10.92.8,1.19.61,9,.12,12.84-.13,0,.84-6.74,1.73-16,2.12-7.33.21-3.18-.55-4.45-.43-13.77-.15-11.73,1.47-23.17.86C6.7,238.87,11,238.34,10,238c6-.21,9.17.34,13.22.32l-5-.26a64.63,64.63,0,0,1,8.06-.16c-1.32-.16-4.55-.23-8.64-.25L4,237.54c0-3.91.08-8.06.22-11.26-.18-1.88-.37-5.14-.59-3.6L3.75,226c-.43,3.09-.6-6.33-.8-2.07a135.09,135.09,0,0,1-.54-15.92L3,206.86a27.51,27.51,0,0,0-.18,5.93c-.27-2.64.83-9.73,0-12.63l-.42,4.45a149.7,149.7,0,0,1-.77-15.75c-.6,2.56.07,1.29-.64,5.29.88-3.46,0,14.4.89,8.83-.82,4.1-.35,7.1-1,12.46.2-.16.39-1.9.29,2.83.06.21.13.71.18,1,0,.15,0,.2,0,.32a2.11,2.11,0,0,0,0-.26c0,.21,0,.23,0-.09a16,16,0,0,1,.31-2.41c.46,2.34.45,9.86.69,12.4-.1,2.8-.23-1.18-.45.35l.36,3.8a1.05,1.05,0,0,0-.16.41c0,.29-.1.73-.15,1.19-.09,1-.19,2.1-.26,2.89-.16,1.64-.31,2.11-.44-3.38v5.8H5.41l2.29.09,1.46.07c1,0,2,.07,3,.09,2,0,4,0,5.44-.09,2.8.1,7.08-.49,4.64-.14l9.32-.28.09.11c9.19.06,18.93-.74,29.44.07,3.1-.11,6.3-.25,11.48-.13l1,.39c4-.13,11.94.39,13.65,0,4.28,1,19.29.23,26.28.41l.26-.51c4.82,0,9.43-.11,15.41-.32l-.37-.44c5.15-.37,13.24.32,21.39.27a19.12,19.12,0,0,1-4.09,0c9.74,1,20.54-.73,29.36,0a34.8,34.8,0,0,1,5.34,0l-.55,0h.91l3.05.24c-.92-.11-1.8-.2-2.57-.24,1.7,0,4.27-.07,6.79-.18l1.08.48h.58c2.47.17,2-.23.67-.59,1.27-.08,2.43-.18,3.33-.29,2,.77,6.62-.27,9.37.56,1.7-.4,12.67-.3,14-1.15.08.11.83.16-.53.17a64.64,64.64,0,0,0,8.14-.05l1.19.61,6.14-.82c3.73.37,5.28.59,1.57,1.06,8.94-.72,7.26-.27,14.86-1l-.37.4c2.72,0,7.07-.55,8.7-.22,6.08.75,30.09.1,45.7.8-3-1.16,7.26.52,7.87-.38.91.28,3.09.43.56.67,8-.27,12,.44,17.47-.32.91.27-1.71.4-.9.57a16.79,16.79,0,0,1,3.36-.08c.81.16-1.16.23-2.42.35,8.13,0,9-.89,9.55-1.69a30.18,30.18,0,0,0,9.16-.2c1.43.26,3.83.53-1.23.63,2.85,0,17.38.38,17.67-.26a30.86,30.86,0,0,0,4.72,0l6.65.06,7.52,0-2.37-.1a13.59,13.59,0,0,1,3.34-.4c0-1.16,0-2.38.08-3.88,0-.65,0-1.35.05-2.11s0-1.46,0-2.27l.08.14c.56-11.59-.26-5,.37-16.43l-.48.62c-1-1.07.61-10.13.21-16.76l-.27,2.4c-.35-3.63,1.4-10.13,1.53-13.77.09-.79.15,1.25.21,2.36.61-9.53-.63-1.23-.77-8.33.34-1.31.86,1.68.92-3.09.28-2.38-1.1-13.86-.45-20.38-.26,1.44-.52,2.86-.72-.43-.09-5.06,1-13.66.17-18.23.07-.64.14-.88.2-.91-.21-3.86-.35-12.55-.8-14.88,1.66-3.57-.8-24,.73-23.93l-.09-11.88.16.31a73.87,73.87,0,0,0-.63-12.95c.1-1.76.25-.48.32-.33.31-11.1.25-12.2-.51-21.51l.49-1c-.29-2.53.78-16.05.2-26.93a3,3,0,0,1,.22,1.19c-.17-3.58-.12-7.58,0-11.55.06-2,.12-4,.18-5.88,0-.48,0-1,.05-1.43,0-.7,0-1.4,0-2.09,0-1.5.05-3,.07-4.38l-5.7,0-1.81,0-1.46.06a14.63,14.63,0,0,0-4.26.7l-8.09.44c10.46.14-1.55.78,2.75,1.08-4.11.11-10.63-.54-5.58-.63l.79.09c1.86-.94-13-.34-12.71-1-20.57.05-40.62-.47-59.89-.51l2.22.73-6.73,0c-1.76-.17-2.36-.58,2.43-.54a29.65,29.65,0,0,0-8.18.5c-9.39-.29,3.67-.85.79-.87l-3.91.06.88.08a54.18,54.18,0,0,1-9.21.58c-3.65-.15-1.87-.45-3.31-.48a9.14,9.14,0,0,0-2.2,0L253.76.47l3.39.58c-3.76.28-8,0-4.06.62C247.35.66,221.5,1.31,218,1c-5.26.43-10.45.42-16.88.37,1.6.12,2.56.77-3,.69C200.14.71,188,1.47,183.48.5c4,.64-15.77.16-9.48,1.07-4.63-.11-.28-.5-3.79-.82-11,.52-24.27-.34-37.88-.16-.21.17,2.07.44-.85.7L124.29.42c-2.69.08-2.47,1-7.39.4.7.15,1.73.37-.07.43C90.17.39,62.34,2,35.26.34c3.67.34,1.23.37-1.57.39,1.82.08,0,.43.31.67L22.67.74c-2.07.66-12.16,0-13.34.67l3.59-.11c-4.78.75,6.68,1.66,6,2.62C24.25,3.07,33,5.17,41.77,4c1.93.2-1.65.31-.62.53A45.69,45.69,0,0,1,51,4.18l-.57.1c14-.1,20,.3,35.68.57L85,4.38c3.37.06,4.08.21,5.66.33,3.87-.72-9.48,0-6-.83,4.48,1,23.8,0,26.82,1.11,5.19,0-1.52-.55,3.67-.54l1.38.29,1.31-.38c3.4.06,5.12.43,5.25.69-.83,0-2.35.07-3.24.09,4.42.35,12.45-.12,14,0l-5-.18c14.16-.28,31.46.11,45.15-.49l-1-.22c10.45-.42,8.37.24,19.85,0l-.42,0c2.3-.22,5.37-.33,8.51-.31-2.9.26,5.45.51,1.65.8,11.33-.44,5.6-.35,13.09-1.18l1.73.37a48.83,48.83,0,0,1,8.49-.61c-4.7.32,3.66.57-1.61,1,12,.81,17.86-.82,23.38.37,5.52-1-10.41-.57-7.31-.79-2.59-.34,4.55-.77,8.33-.67s6.53,1.32,16.2,1.3c-1,0-1,.07-2,.07,3.62.26,7.09-.36,11.52.07,2.49-.63,5.76,0,6.48-.76L272,4.17c5-.2,9.74-1.13,18-.68-.64.16-3.11.37-4.8.49,2.42.23,4.66-.16,7.17.08-.71.79-10.77.17-16.15.78,2.59.33,10.18-.58,7.47.28,3.89-1.09,9.53.14,16.07-.69l-.43.47c1-.07,3.18-.3,5.09-.29L301,5.23c5.3-.53,10.21.46,15.29.17-10.64,0-2.38-.57-6.88-.92,13.12-.63,7.55,1.25,22.24,1-2,.07-7.47-.29-4.36-.51,2.8.1,6.49.28,8.21.53,9.74-.1-1.49-.49,2.65-.78,3.31.58,4.78-.23,9.05-.42l0,.48c11.09.31,2.94-1,12.93-.63l-4.22.67,5.2-.17-1.07.55a100.63,100.63,0,0,1,13-.15c-1.29-.34.72-.87,5.64-.89l.5.05.2,0a.5.5,0,0,1,.19.08c.05.06,0,.1,0,.14s.1.1,1.56.08c0,.07,0,.21,0,.37L381,4.71a8,8,0,0,1-1.21.29,2.94,2.94,0,0,1-.59,0c-.48,0-1.1-.09-1.73-.18-.31.15-1.55.3-1.87.45,1.07.1,2.35.15,3.6.17.36,0,.73,0,1.1,0,0,.23,0,.45.05.65s0,.2,0,.29,0,.12,0,.46V6.37a1.94,1.94,0,0,0,0-.24,2.36,2.36,0,0,1,.08-.43c0,.27.11.48.16.9l.17,2.53.34,5c-.18,1.59-.33.32-.47-.92.05,2,.27,3.46.31,6.46-.39-.78-.79-.59-1-4.85l.44,9.63c-.17.64-.47,4.93-.62,3.68-.23,5.34.76,13.09.46,20.16a17.48,17.48,0,0,1,.2,2.61c-.08,6.64-.56,12.53,0,20.41l-.7,4.47c.16,6.17.89-6,1.15,4.22.22,7.27-.6,2.71-.79,5.26a89.25,89.25,0,0,1,.5,16.59C380.48,99.69,380.58,98,380.53,95.89Zm.31,76.08c-.1-1.47-.41-4.41-.13-5.49C381.26,168.16,381,169.46,380.84,172Zm-47.73,64.72a22.6,22.6,0,0,1,4.71.1C336.43,236.83,334.86,236.81,333.11,236.69ZM10.93,240.05l.15,0C14.37,240.21,13.21,240.14,10.93,240.05Zm-8.82-.21a1.69,1.69,0,0,0-.42,0c-.05-.59-.1-.43-.16,0a.4.4,0,0,1,0,.15c1-.1,3.22-.11,5.83-.08A29.46,29.46,0,0,0,2.11,239.84ZM263.67.73,265,.86C262,1,262.84.87,263.67.73Z"/><path class="cls-1" d="M346.23,236a1.09,1.09,0,0,1,.63.26C347.44,236.21,347.45,236.12,346.23,236Z"/><path class="cls-1" d="M380.27,48.57v-.23a.52.52,0,0,0-.09-.23Z"/><path class="cls-1" d="M109.88,235.75a21,21,0,0,1,2.71.25C112.67,235.88,112,235.78,109.88,235.75Z"/><path class="cls-1" d="M.92,201.77,1,206.14a35.09,35.09,0,0,1,.16-3.94C1.09,202.3.92,203.14.92,201.77Z"/><path class="cls-1" d="M3.9,163.8c-.06-.64,0-1.35-.07-2l-.22.17C3.62,164.71,3.81,166.62,3.9,163.8Z"/><path class="cls-1" d="M2.52,197.72c.4-.35.27-3.09.19-6.16v.55C2.14,191.2,2.33,194.47,2.52,197.72Z"/><path class="cls-1" d="M2.7,190.85c0-.94,0-1.9,0-2.83C2.46,187.66,2.64,189.17,2.7,190.85Z"/><path class="cls-1" d="M1.47,229.29c.1-1.45-.52-.91-.36-1.73C.6,225.94,1.74,237.25,1.47,229.29Z"/><polygon class="cls-1" points="3.85 195.24 3.35 196.34 3.76 198.05 3.85 195.24"/><path class="cls-1" d="M3.49,219.43l.14-4.89c-.09.07-.14-.55-.17-1.32A59.49,59.49,0,0,0,3.49,219.43Z"/><path class="cls-1" d="M3.46,213.22c0-1.57,0-3.06-.09-3.94C3.38,210.13,3.39,212,3.46,213.22Z"/><polygon class="cls-1" points="4.01 201.93 3.9 203.38 3.87 206.84 4.01 201.93"/><path class="cls-1" d="M38.21,238.18l5.34-.14c.54-.17-.91-.28-2.9-.21C39.37,238,37.39,238,38.21,238.18Z"/><path class="cls-1" d="M22,236.81a11.41,11.41,0,0,1,2.36.38l.16-.62Z"/><path class="cls-1" d="M37.63,236.67c.53-.18,7.75-.5,1-.46C38.07,236.38,32.72,236.52,37.63,236.67Z"/><polygon class="cls-1" points="118.14 237.45 116.78 237.46 116.98 238.48 118.14 237.45"/><path class="cls-1" d="M189.1,235c-6.33-.24-1.5.63-7.22.33-1.49.24,4.67.25,3.15.45C188.85,235.54,190.86,235.68,189.1,235Z"/><path class="cls-1" d="M185,235.79c-.61,0-1.26.09-1.95.16C184.19,235.89,184.71,235.84,185,235.79Z"/><polygon class="cls-1" points="15.08 0.21 11.01 0 13.64 0.34 15.08 0.21"/><path class="cls-1" d="M7.26,1,6.3.32,3.86.91A21,21,0,0,1,7.26,1Z"/><path class="cls-1" d="M379.53,183.28l.16.31a17.46,17.46,0,0,0,.21-3.49Z"/><polygon class="cls-1" points="380.02 128.06 380 129.01 380.59 127.23 380.02 128.06"/><path class="cls-1" d="M379.27,81.71c0,1.9.11,4.12.08,6C379.24,83.61,380,81.2,379.27,81.71Z"/></svg>