<svg id="Camada_1" data-name="Camada 1" xmlns="http://www.w3.org/2000/svg" viewBox="0 0 62.54 24.48"><defs><style>.cls-1{fill:#878787;}</style></defs><rect class="cls-1" x="0.88" y="0.72" width="61.18" height="22.92" rx="11.46"/><path class="cls-1" d="M12.16.12c.23,0,.15-.1.18-.12C12,0,12.17.15,12.16.12Z"/><polygon class="cls-1" points="8.5 1 8.55 0.94 8.07 1.23 8.5 1"/><path class="cls-1" d="M5.41,2.61c.35-.07,1-.74,1.63-.95h.11l.19-.25A18.4,18.4,0,0,0,5.41,2.61Z"/><path class="cls-1" d="M3.71,3.53c.14,0-.26.33.35-.28L4,3.29Z"/><path class="cls-1" d="M4,3.29c.28-.26-.23.12,0,0Z"/><path class="cls-1" d="M2.83,4.6c.08-.15.18-.29.27-.43-.11,0-.4.39-.31.24C2.5,4.85,2.6,4.79,2.83,4.6Z"/><path class="cls-1" d="M2.65,5.05l.13-.22A.43.43,0,0,0,2.65,5.05Z"/><path class="cls-1" d="M3.08,4.37a4.53,4.53,0,0,0-.3.46c.07,0,.12,0,.14-.21C2.94,4.69,3,4.56,3.08,4.37Z"/><path class="cls-1" d="M3.3,4.16c.22-.18.48-.43.19,0C4.11,3.43,3.93,3.44,3.3,4.16Z"/><path class="cls-1" d="M5.38,2.86l.31-.17c.08-.08.14-.16.22-.23C5.8,2.56,5.33,2.83,5.38,2.86Z"/><path class="cls-1" d="M1.13,7.21s.17-.11.23-.13l.12-.35C1.38,6.89,1.2,7.21,1.13,7.21Z"/><path class="cls-1" d="M1.36,7.08c-.05.18-.13.35-.17.53C1.39,7.16,1.42,7.08,1.36,7.08Z"/><path class="cls-1" d="M2.76,5.24C2.9,5,3,4.7,3.19,4.45c-.2.3-.36.62-.53.93Z"/><polygon class="cls-1" points="0.45 9.21 0.44 8.88 0.43 9.46 0.45 9.21"/><path class="cls-1" d="M.2,10.59c0-.24-.17.31-.18.06a3.62,3.62,0,0,0,.05,1A3.08,3.08,0,0,1,.2,10.59Z"/><path class="cls-1" d="M.13,12.16a4.84,4.84,0,0,0-.06-.5A4.26,4.26,0,0,0,.13,12.16Z"/><path class="cls-1" d="M.86,8.47a.72.72,0,0,0-.23.39l.16-.18A.86.86,0,0,1,.86,8.47Z"/><path class="cls-1" d="M.79,8.67h0l-.12.45C.68,9.07.72,8.93.79,8.67Z"/><path class="cls-1" d="M.88,8.42l0,.05A.06.06,0,0,0,.88,8.42Z"/><path class="cls-1" d="M1.91,6.37c-.11.31-.32.93,0,.4C2,6.54,1.76,6.83,1.91,6.37Z"/><path class="cls-1" d="M1.09,8.22l.22-.53s-.1.08-.07-.08Z"/><polygon class="cls-1" points="1.03 8.49 1.09 8.22 1.01 8.41 1.03 8.49"/><path class="cls-1" d="M.28,11.16A7.47,7.47,0,0,1,.3,12c0-.33.06-.67.08-1C.35,11,.3,10.8.28,11.16Z"/><path class="cls-1" d="M.48,9.94V10S.49,9.94.48,9.94Z"/><polygon class="cls-1" points="0.64 15.01 0.64 14.96 0.62 14.96 0.64 15.01"/><path class="cls-1" d="M.4,11a1.6,1.6,0,0,0,0-.54c0,.19,0,.38-.07.59C.39,11,.4,11,.4,11Z"/><path class="cls-1" d="M.22,13c0-.14,0-.29,0-.44A1.24,1.24,0,0,0,.22,13Z"/><path class="cls-1" d="M.43,10.07v0C.4,10.11.41,10.1.43,10.07Z"/><path class="cls-1" d="M.43,10.07a3.28,3.28,0,0,0,0,.34c0-.15,0-.29,0-.42Z"/><path class="cls-1" d="M1.53,15.69c-.13,0-.36-.59-.39-1.13s-.45-.11-.5.4c0,0,.09,0,.28.53,0-.21-.18-1.23,0-.8a2.22,2.22,0,0,1,.16,1c0-.32.49.82.6.6l-.28-.57S1.57,15.86,1.53,15.69Z"/><path class="cls-1" d="M.45,13.89l0-.23a3.89,3.89,0,0,1,0,.83c.12.38.2.44.23.46a8.77,8.77,0,0,1-.2-1.14Z"/><path class="cls-1" d="M.32,12.61c.12.18.2.73.29.38,0-.67-.12-.47-.17-.88.07,1.11-.08-.31-.1.49a2.55,2.55,0,0,1,0-.6c0,.2,0,.39,0,.57v0h0s0-.06,0,0v0s0,0,0,0c0,.32,0,.05,0,0l0,0h0c0,.37.06.74.14,1.11C.37,13.42.37,13.13.32,12.61Z"/><path class="cls-1" d="M1.9,7.39s0,0,0,0S1.84,7.51,1.9,7.39Z"/><path class="cls-1" d="M1.66,7.76a.8.8,0,0,1,.12-.38c.13-.18.05,0,.08,0,0-.15.17-.52-.09-.1l0,.07a5.33,5.33,0,0,1-.52.79A1.55,1.55,0,0,0,1.66,7.76Z"/><path class="cls-1" d="M.76,10.13.68,11c0-.15.11-.3.16-.44H.78C.88,10.1.79,10.2.76,10.13Z"/><polygon class="cls-1" points="0.61 15.13 0.47 15.04 0.76 15.52 0.61 15.13"/><polygon class="cls-1" points="0.98 16.29 0.87 16.28 1.03 16.56 0.98 16.29"/><path class="cls-1" d="M60.29,17.08l.08-.23C60.33,17,60.31,17,60.29,17.08Z"/><path class="cls-1" d="M59.35,18.59l0,.07C59.39,18.58,59.4,18.54,59.35,18.59Z"/><path class="cls-1" d="M26.57,24.27c.38.09.8.23.76.12l-.12-.11A3.27,3.27,0,0,1,26.57,24.27Z"/><path class="cls-1" d="M45.92,23.62l-.11,0-.25.1Z"/><path class="cls-1" d="M46.19,23.17l.5.07A5,5,0,0,0,46.19,23.17Z"/><path class="cls-1" d="M60.37,7.71l-.23-.21C60.34,7.9,60.3,7.7,60.37,7.71Z"/><path class="cls-1" d="M10,24a8.49,8.49,0,0,0,.84.19C10.43,24.08,10.12,23.93,10,24Z"/><path class="cls-1" d="M61,18.28c.07-.15.08-.22.06-.23C60.94,18.2,60.9,18.3,61,18.28Z"/><path class="cls-1" d="M11.83,24.28l-.18,0a3.26,3.26,0,0,1-.81,0A2,2,0,0,0,11.83,24.28Z"/><path class="cls-1" d="M26.37,1.34h-.09S26.31,1.34,26.37,1.34Z"/><path class="cls-1" d="M15.5.25H16A2.38,2.38,0,0,0,15.5.25Z"/><path class="cls-1" d="M3.47,20.46c-.18-.19,0,0,0,0Z"/><path class="cls-1" d="M3,19.24s.07.05.1,0A.13.13,0,0,1,3,19.24Z"/><path class="cls-1" d="M14.29,23.63h0C14.24,23.61,14.25,23.61,14.29,23.63Z"/><path class="cls-1" d="M3.25,20.14c0,.08.12.17.19.26Z"/><path class="cls-1" d="M3.24,20.21,3.1,20S3.07,20.05,3.24,20.21Z"/><path class="cls-1" d="M3.72,20.72l-.28-.32s0,.06,0,.06Z"/><path class="cls-1" d="M46.36,1.05H46.3C46.06,1.09,46.17,1.08,46.36,1.05Z"/><polygon class="cls-1" points="32.92 23.14 32.89 23.14 32.93 23.15 32.92 23.14"/><path class="cls-1" d="M33.8,23.06a1.72,1.72,0,0,1-.87.09l.29.31Z"/><path class="cls-1" d="M61.4,13a3.58,3.58,0,0,1-.16.56c-.07-.7,0-1.19-.18-.67.08,0,.12.18.14.4s-.05.49-.09.76c-.07.55-.24,1.09-.08,1.18a2.21,2.21,0,0,1-.18.34,1.87,1.87,0,0,0,.07-.22c-.42.63.08.61-.37,1.48-.18.3-.32.48-.26.26a4.7,4.7,0,0,1-.29.7c-.12.18-.14.1,0-.08a8.79,8.79,0,0,1-.61,1h0a4.49,4.49,0,0,1-.31.67c-.24.19.07-.13,0-.1l-.37.53c-.24.13,0-.32.35-.63a.78.78,0,0,0-.51.4,2.19,2.19,0,0,1-.83.8l.41-.43c-.41.11-.68.49-1.3.77l.62-.23c.22-.1.37-.12.14.14a2.67,2.67,0,0,0-.63.52c-.07-.09-.35.15-.74.38l0-.16c-.39.29-.32.36-.54.54-.5.22-.66.16-.81.12-.81.28.64,0-.31.36-.7.2-1.17.4-2,.65-.52,0,.07-.11-.12-.12l-.43.19c-.11,0-.08,0-.06,0-.37.1,0,.17-.62.25-.15.2-1.26-.22-2.05,0-.19,0,.1-.1,0-.16a15.66,15.66,0,0,0-1.79.27l-.75-.1c.55.12-.15.26-.77.38.2.06.36.11.47.13l-1,.09c-.11,0,0-.08.15-.15l-.18,0c-.35-.06-.17-.15.08-.24l.35.1c.24-.1.47-.21.42-.3a1.82,1.82,0,0,1-.32,0c.06,0,.1,0,.07-.07a1.14,1.14,0,0,0-.29.06l-.23-.17-.05.07-1.28-.11a18.53,18.53,0,0,1-3.18.51c.37-.13.08-.21.1-.37.4.17,1.13-.07,1.88,0-.39,0-.3-.09-.2-.12l-1.35.15c0-.13-.29-.1-.64-.15.27.25-1,.17-1.55.25,0-.09.1-.17.77-.15-.74-.19-1,.29-1.68.13a.7.7,0,0,0,.32,0c-.39.07-1.32,0-1.1-.06h.16a13.14,13.14,0,0,0-3.46.21.87.87,0,0,1,.21-.3l-1.93.72c.17-.19-.49-.62.41-.73a5.2,5.2,0,0,0-1.12,0c.18,0,.44.27.2.28a10.81,10.81,0,0,0-1.27-.28c.26,0,0,.33-.45.32.07,0,0-.28.12-.31l-1,.28c.26-.05.05-.24-.18-.32.1.05-.9,0-1.18,0l.44.07c-1.17-.05-1.16.39-2.32.38.14-.06.35-.36-.24-.4a6.07,6.07,0,0,1-2.23.81l-.2-.08-.79.09a21.51,21.51,0,0,1,2.63-.85,1.93,1.93,0,0,0-.78-.09c-.23-.08.36-.12.55-.12L23.5,22.9c.07.17-1.17.17-1.11.31L24.05,23c.07.17-1,.48-2,.45-.28-.07.2-.3.18-.35a4.38,4.38,0,0,1-1.13.06l.46-.08c-.6-.07-1,.22-1.71.06-.25,0-.74-.22-.79-.12.41.19.49.79.22.93a16.09,16.09,0,0,1-1.6-.28c-.41-.15.62-.36.27-.49,0,.05-.24.11-.34.12-.26,0,.11-.14-.46-.12-.1.17-1.16,0-.27.15-.56.05-.59,0-1.25,0,.21.11-.59.37-1.15.42,0,0-.09-.1-.15-.12-1.14,0-1.77-.07-2.82-.14-.09,0-.59-.15-.37-.19a2.6,2.6,0,0,1-.62,0c-.59-.23.72.09.27-.16a3.29,3.29,0,0,1-1.29-.06c0,.09.3.17.61.22s.66,0,.89,0c0,.2-.87.36-2,.13-.88-.25-.33-.26-.49-.28A9.46,9.46,0,0,0,7,22.71,2.59,2.59,0,0,1,5.8,22.1c-.39-.44.12-.23.07-.39.65.34.9.68,1.36.87a5.54,5.54,0,0,1-.51-.33,5.81,5.81,0,0,1,.89.4c-.18-.15-.82-.45-1.49-.89a11.58,11.58,0,0,1-1-.74c-.3-.27-.58-.55-.79-.78s-.49-.39-.4-.22l.29.29c.18.35-.64-.46-.32,0-.21-.18-.45-.37-.69-.59a5.69,5.69,0,0,1-.66-.86,2.09,2.09,0,0,1,0-.21c0,.05.22.47.39.62-.28-.21-.51-1.1-.85-1.3l.19.52a5.36,5.36,0,0,1-1.08-1.66c0,.36.08.14.14.68,0-.25.19.17.39.54s.42.7.34.34c.08.56.41.8.68,1.45,0-.05-.08-.24.29.23l.12.07,0,0,0,0s0,0,0,0a1,1,0,0,1-.14-.28c.29.14.9.86,1.2,1s-.15-.06,0,.11l.42.25c-.06.13.62.73-.09.27.19.17.4.31.6.46a4.24,4.24,0,0,0,1.18.83c.3.22.87.29.55.24A8.73,8.73,0,0,0,8,23.41v0a20.89,20.89,0,0,0,3.65.8c.4,0,.8,0,1.42,0l.12.09a12.77,12.77,0,0,0,1.65,0,14.64,14.64,0,0,0,3.18.1l0-.12c.59,0,1.14,0,1.87-.08l-.05-.12c.62-.09,1.6.08,2.59.07a1.32,1.32,0,0,1-.5,0c1.18.25,2.49-.19,3.55,0a2,2,0,0,1,.65,0h0l.37.06-.31-.06c.21,0,.52,0,.82-.05l.13.12h.07c.3,0,.24-.06.08-.15a3.14,3.14,0,0,0,.41-.07c.24.19.8-.07,1.13.14.2-.1,1.53-.08,1.69-.29,0,0,.1,0-.06,0a3.56,3.56,0,0,0,1,0l.15.16.74-.21c.45.09.64.15.19.27,1.08-.19.88-.07,1.79-.25l0,.1a4.45,4.45,0,0,1,1-.06c.74.19,3.64,0,5.53.2-.37-.29.87.13.95-.09.11.07.37.11.07.17a11.15,11.15,0,0,0,2.11-.09c.11.07-.21.11-.11.15a.93.93,0,0,1,.41,0c.09,0-.15.06-.3.09,1,0,1.08-.23,1.16-.43a1.74,1.74,0,0,0,1.1-.05c.18.07.47.14-.14.16A8.34,8.34,0,0,0,48.3,24a1.56,1.56,0,0,0,.57,0c.77,0,.84,0,1.6,0l-.21,0c.3-.18.63-.06,1.26-.11l0,0a2.93,2.93,0,0,0,1-.09c.15,0,.3,0,1-.15l-.1-.1c0-.15.34-.17.74-.23a3.84,3.84,0,0,0,1.23-.39,2.47,2.47,0,0,1-.29.06c.36-.26,1.29-.2,1.7-.44.1,0-.12.11-.23.2,1.12-.51.06-.21.79-.73.19,0,0,.31.45,0,.31-.12,1.21-1.31,1.84-1.84-.17.09-.34.18-.1-.16.4-.47,1.25-1.22,1.36-1.83.05-.06.08-.08.1-.07a6.6,6.6,0,0,0,.6-1.77,1.16,1.16,0,0,0,.36-.57c.08-.29.15-.65.21-1,.08-.7.09-1.33.29-1.3,0-.5.06-1,0-1.49l0,0a3.13,3.13,0,0,0-.3-1.6c0-.22,0-.06.08,0a5,5,0,0,0-.84-2.54l.07-.16c-.09-.13-.26-.61-.51-1.19-.15-.28-.32-.59-.5-.9a9.33,9.33,0,0,0-.67-.83s.05,0,.13.09c-.53-.57-1.11-1.28-1.7-1.84S57.13,2,56.77,2.06a6.42,6.42,0,0,0-.94-.39c1.14.61-.25.08.18.38-.45-.19-1.11-.68-.54-.43l.08.06c.15-.05-.19-.27-.59-.43s-.82-.31-.78-.38A14.76,14.76,0,0,0,50.43.26C49.22.23,48,.19,46.87.19l.27.18h-.82c-.21,0-.28-.14.3-.13a1.75,1.75,0,0,0-1,.12c-1.14-.07.44-.21.09-.21h-.47l.11,0a3.42,3.42,0,0,1-1.12.15C43.8.28,44,.2,43.84.2c0,0-.06,0-.26,0l-1,0L43,.32c-.45.07-1,0-.49.15A35.31,35.31,0,0,0,38.23.31a12,12,0,0,1-2,.09c.19,0,.31.19-.36.17C36.07.23,34.6.42,34.06.18c.48.16-1.91,0-1.15.27-.56,0,0-.13-.46-.2-1.33.12-2.93-.09-4.58,0,0,0,.25.12-.1.18L26.9.16c-.32,0-.3.26-.89.1.08,0,.21.1,0,.11C22.78.16,19.41.54,16.14.14c.44.09.15.1-.19.1.22,0,0,.11,0,.17L14.62.24c-.25.17-1.47,0-1.62.17l.44,0c-.58.19.8.42.72.66.65-.22,1.7.31,2.76,0,.24.05-.2.07-.07.13a2.88,2.88,0,0,1,1.2-.08l-.07,0c1.69,0,2.41.07,4.31.14l-.14-.12a3.83,3.83,0,0,1,.68.09c.47-.18-1.14,0-.72-.21.55.24,2.88,0,3.25.27.63,0-.19-.13.44-.13l.17.07.16-.09c.41,0,.61.11.63.17s-.28,0-.39,0a15.52,15.52,0,0,0,1.69,0l-.61-.05c1.72-.06,3.81,0,5.46-.12l-.12,0c1.26-.11,1,.06,2.4,0h0a5.15,5.15,0,0,1,1-.07c-.35.06.66.12.2.2A4.85,4.85,0,0,0,38,1l.21.09a3.11,3.11,0,0,1,1-.15c-.57.08.44.14-.19.25,1.45.2,2.16-.21,2.82.09.67-.26-1.25-.14-.88-.2-.31-.08.55-.19,1-.16a10.71,10.71,0,0,0,2,.32l-.25,0c.44.06.86-.09,1.4,0,.3-.15.69,0,.78-.18l-1.07,0A8.29,8.29,0,0,1,46.94.93a3.36,3.36,0,0,1-.58.12c.29.06.56,0,.86,0-.08.2-1.3.05-1.95.2.32.08,1.23-.15.9.07.48-.27,1.16,0,1.95-.18l0,.12a3.82,3.82,0,0,1,.61-.07l-.42.15c.64-.13,1.24.12,1.85,0-1.28,0-.29-.14-.83-.23,1.58-.15.94.27,2.6.34-.22,0-.84-.13-.48-.17a2.85,2.85,0,0,1,.91.24c1.1.14-.15-.15.34-.15.34.21.54.07,1,.14l0,.12c1.18.49.41-.15,1.46.37a3,3,0,0,0-.52,0,3.47,3.47,0,0,1,.57.19L55,2.3A3.56,3.56,0,0,1,56.33,3c-.09-.14.2-.16.67.17.27.3-.25,0,.41.44a.93.93,0,0,1-.62-.39s-.19,0-.24,0c.29.3.83.62,1,.81l-.22-.22c.34.19.65.43,1,.65.09.16,0,.08-.16,0a4.2,4.2,0,0,1,.57.49c-.14,0-.2.08-.55-.25.26.25.55.48.8.75,0,.08.25.52.13.43.17.25.41.52.65.84a3.56,3.56,0,0,1,.61,1,1.33,1.33,0,0,1,.18.25c.1.36.21.71.31,1.06a9.79,9.79,0,0,0,.34,1.17l-.1.53c.14.68.13-.72.35.44.1.83-.14.32-.17.61a3.25,3.25,0,0,1,.15.82,2.36,2.36,0,0,1-.12,1.07C61.35,13.42,61.41,13.23,61.4,13Zm-3.82,7.58c.11-.13.3-.42.44-.45C58,20.35,57.82,20.41,57.58,20.57Zm-13,2.82a1.41,1.41,0,0,1,.57,0A2.81,2.81,0,0,1,44.57,23.39ZM5.67,22.21h0C6,22.47,5.91,22.38,5.67,22.21ZM5,21.66c-.08,0-.09,0-.07,0a1.76,1.76,0,0,1,.4.26C5.31,21.87,5.23,21.79,5,21.66ZM43.75.24l.16,0C43.55.31,43.65.27,43.75.24Z"/><path class="cls-1" d="M46.15,23.22c.05,0,.07,0,.08.07S46.3,23.24,46.15,23.22Z"/><path class="cls-1" d="M60.41,7.75v0h0Z"/><path class="cls-1" d="M17.58,23.15a1.8,1.8,0,0,1,.33.06S17.84,23.16,17.58,23.15Z"/><path class="cls-1" d="M1.83,18.34l.32.47a2.09,2.09,0,0,1-.23-.45S1.92,18.49,1.83,18.34Z"/><path class="cls-1" d="M1,13.66A1.69,1.69,0,0,1,1,13.42l-.06,0C1,13.78,1,14,1,13.66Z"/><path class="cls-1" d="M1.92,17.71c.07-.09-.1-.38-.29-.71l0,.06C1.48,17,1.7,17.36,1.92,17.71Z"/><path class="cls-1" d="M1.59,16.92a1.3,1.3,0,0,1-.14-.32C1.39,16.57,1.48,16.74,1.59,16.92Z"/><path class="cls-1" d="M4.13,21C4,20.85,4,21,3.9,20.91,3.66,20.87,4.92,21.63,4.13,21Z"/><polygon class="cls-1" points="2.09 17.28 2.03 17.46 2.21 17.6 2.09 17.28"/><path class="cls-1" d="M3.64,19.76a4.29,4.29,0,0,1-.36-.48s-.06,0-.13-.1C3.36,19.49,3.62,19.8,3.64,19.76Z"/><path class="cls-1" d="M3.15,19.18a2.75,2.75,0,0,0-.3-.37C2.91,18.89,3.05,19.07,3.15,19.18Z"/><polygon class="cls-1" points="2.5 17.97 2.57 18.13 2.78 18.5 2.5 17.97"/><path class="cls-1" d="M8.93,23.25l.64.13c.08,0-.09-.1-.33-.14S8.85,23.18,8.93,23.25Z"/><path class="cls-1" d="M7.26,22.19a.68.68,0,0,1,.21.21l.09-.13Z"/><path class="cls-1" d="M9,22.87c.07,0,.91.1.14-.08C9.05,22.82,8.45,22.63,9,22.87Z"/><polygon class="cls-1" points="18.58 23.58 18.41 23.58 18.44 23.83 18.58 23.58"/><path class="cls-1" d="M27.16,23c-.77-.06-.18.16-.88.08-.18.06.57.06.39.11C27.13,23.1,27.37,23.14,27.16,23Z"/><path class="cls-1" d="M26.67,23.16l-.24,0A1.24,1.24,0,0,0,26.67,23.16Z"/><polygon class="cls-1" points="13.7 0.11 13.21 0.06 13.52 0.14 13.7 0.11"/><path class="cls-1" d="M12.75.3,12.64.14l-.3.14A1.36,1.36,0,0,1,12.75.3Z"/><path class="cls-1" d="M56.35,21.07v.05a.81.81,0,0,0,.36-.18Z"/><polygon class="cls-1" points="60.4 16.49 60.35 16.58 60.58 16.46 60.4 16.49"/><path class="cls-1" d="M61.08,11.39c0,.21.05.46.06.67C61.09,11.6,61.26,11.32,61.08,11.39Z"/></svg>