<svg id="Camada_1" data-name="Camada 1" xmlns="http://www.w3.org/2000/svg" viewBox="0 0 240.41 30.13"><defs><style>.cls-1{fill:#878787;}</style></defs><rect class="cls-1" x="0.36" y="0.72" width="239.37" height="28.44" rx="14.22"/><path class="cls-1" d="M14,.15c.79,0,.51-.13.63-.15C13.25.09,14,.17,14,.15Z"/><path class="cls-1" d="M3,6.09l.1-.2a12.5,12.5,0,0,0-1,1.61l.4-.73Z"/><path class="cls-1" d="M.2,17.37c0-.57-.15-1.64-.14-2.84A12.8,12.8,0,0,1,.2,12.68,9.23,9.23,0,0,1,.58,11l.12-.33.2-1A14,14,0,0,0,0,13.78a14.45,14.45,0,0,0,0,2A13.46,13.46,0,0,0,.2,17.37Z"/><path class="cls-1" d="M2.25,23.45c-.09-.18.13.09.16.12a9.72,9.72,0,0,1-.94-1.43l.12.25C1.74,22.61,1.91,22.93,2.25,23.45Z"/><path class="cls-1" d="M1.59,22.39c-.66-1.11.38.75,0,0Z"/><path class="cls-1" d="M5.53,26.81a15.21,15.21,0,0,1-1.34-1.06l.71.71c.26.24.46.37.22.22C6.55,27.71,6.28,27.45,5.53,26.81Z"/><path class="cls-1" d="M6.92,27.6c-.25-.15-.51-.28-.75-.44A3.21,3.21,0,0,0,6.92,27.6Z"/><path class="cls-1" d="M4.68,26.05a18,18,0,0,0,1.49,1.11,1.89,1.89,0,0,0-.69-.5C5.64,26.7,5.28,26.57,4.68,26.05Z"/><path class="cls-1" d="M3.94,25.31c-.62-.73-1.4-1.65-.23-.44a16.74,16.74,0,0,1-1.12-1.32c-.22-.28-.32-.38-.3-.32A11.16,11.16,0,0,0,3.94,25.31Z"/><path class="cls-1" d="M.48,17.93c-.06-.4-.09-.81-.14-1.22A7.36,7.36,0,0,1,.2,15.66,12.39,12.39,0,0,0,.48,17.93Z"/><path class="cls-1" d="M15.38,30c.1,0-.55-.1-.67-.15-.4,0-.83,0-1.24,0l1.18.1A3.31,3.31,0,0,1,15.38,30Z"/><path class="cls-1" d="M14.71,29.82l1.79-.06C14.9,29.75,14.61,29.78,14.71,29.82Z"/><path class="cls-1" d="M7.28,27.58a14,14,0,0,1-2.53-1.66,14.91,14.91,0,0,0,3,1.95A4.08,4.08,0,0,1,7.28,27.58Z"/><polygon class="cls-1" points="22.2 29.98 21.19 30.06 22.99 29.93 22.2 29.98"/><path class="cls-1" d="M26.72,30c-.75.07,1,.12.24.17,1.23,0,2.28-.08,3.22-.13C29.18,30,28.11,30,26.72,30Z"/><path class="cls-1" d="M31.77,29.91,30.18,30C30.72,30,31.24,30,31.77,29.91Z"/><path class="cls-1" d="M19.54,29.77a6.91,6.91,0,0,0,1.41.11l-.71-.1Z"/><path class="cls-1" d="M20.22,29.77h0Z"/><path class="cls-1" d="M19.36,29.77h0Z"/><path class="cls-1" d="M11.74,29.37c1.08.17,3.31.19,1.17,0C12.13,29.28,13.36,29.52,11.74,29.37Z"/><path class="cls-1" d="M18.49,29.64l-1.89,0s.37.07-.14.1Z"/><polygon class="cls-1" points="19.42 29.61 18.49 29.64 19.2 29.65 19.42 29.61"/><path class="cls-1" d="M28.52,29.81c.82,0,1.71,0,2.73,0l-3.28,0C27.82,29.76,27.36,29.82,28.52,29.81Z"/><path class="cls-1" d="M24.49,29.78h.18C24.56,29.77,24.47,29.77,24.49,29.78Z"/><path class="cls-1" d="M41.22,29.76l-.16,0,0,0Z"/><path class="cls-1" d="M27.79,29.7c-.81,0-1.3,0-1.77,0l1.95,0C28,29.71,28.05,29.7,27.79,29.7Z"/><path class="cls-1" d="M34.55,29.86l-1.41-.05A12.83,12.83,0,0,0,34.55,29.86Z"/><path class="cls-1" d="M24.94,29.81h-.12C25.09,29.84,25.06,29.82,24.94,29.81Z"/><path class="cls-1" d="M24.94,29.81,26,29.74l-1.35,0Z"/><path class="cls-1" d="M44.24,29.07a21.91,21.91,0,0,1-4.14.09c-1.83.07-.63.4,1,.58,0,0,0-.09,1.93-.14-.66-.06-4.16-.13-2.58-.22a23.7,23.7,0,0,1,3.24.09c-1-.13,3.16-.18,2.62-.36l-2.18.06S44.84,29.1,44.24,29.07Z"/><path class="cls-1" d="M37.48,29.73h-.77c.88,0,1.51.06,2.67.13A9.15,9.15,0,0,0,41,29.76l-3.8,0Z"/><path class="cls-1" d="M33.25,29.74c.6-.11,2.45-.15,1.32-.27-2.26,0-1.59.09-2.94.14,3.65,0-1.05.06,1.59.12l-2,0,1.89,0H33c-.16,0-.21,0,0,0h.07l.17,0c1.06,0,.17,0-.17,0,0,0,0,0,0,0h0l3.66-.06Z"/><path class="cls-1" d="M14.88,29.2c.12,0,.11,0,.12,0C15.24,29.21,15.33,29.2,14.88,29.2Z"/><path class="cls-1" d="M16.39,29.27c-.27,0-.49.05-1.35,0s0,0,0-.08c-.52,0-1.84,0-.19.12h.26c1.47,0,3.37.17,3.11.19A11.66,11.66,0,0,0,16.39,29.27Z"/><path class="cls-1" d="M24.92,29.48l3-.06-1.55-.09.08.06C24.77,29.36,25.14,29.43,24.92,29.48Z"/><polygon class="cls-1" points="41.56 29.81 41.16 29.93 42.92 29.76 41.56 29.81"/><polygon class="cls-1" points="45.52 29.8 45.38 29.9 46.42 29.84 45.52 29.8"/><path class="cls-1" d="M226.62,1.37h0Z"/><path class="cls-1" d="M232.47,3.26l.16,0C232.37,3.17,232.26,3.13,232.47,3.26Z"/><path class="cls-1" d="M142.78,29.79a14.14,14.14,0,0,0,2.61.12l-.4-.11C144.08,29.82,143.38,29.81,142.78,29.79Z"/><path class="cls-1" d="M209.39,29.14l-.38,0-.88.1Z"/><path class="cls-1" d="M210.31,28.69l1.72.07C211.65,28.74,211.09,28.71,210.31,28.69Z"/><path class="cls-1" d="M191.26,1.43l-1,.11C191.85,1.54,191.14,1.49,191.26,1.43Z"/><path class="cls-1" d="M86.08,29.76c1.13,0,2,.06,2.81.06A19,19,0,0,0,86.08,29.76Z"/><path class="cls-1" d="M229.32.68a2.71,2.71,0,0,0-.78-.13C229.1.67,229.43.74,229.32.68Z"/><path class="cls-1" d="M92.14,29.82l-.59,0c-.83,0-1.65,0-2.66,0A27.09,27.09,0,0,0,92.14,29.82Z"/><path class="cls-1" d="M62.86,1.34h-.29A1.09,1.09,0,0,0,62.86,1.34Z"/><path class="cls-1" d="M25.45.25H27C26.71.23,26.25.23,25.45.25Z"/><path class="cls-1" d="M61.46,29.84c-.84,0-.13,0,0,0Z"/><path class="cls-1" d="M57.37,29.42a.94.94,0,0,0,.34-.06A1.16,1.16,0,0,1,57.37,29.42Z"/><path class="cls-1" d="M100.51,29.15h.07C100.33,29.13,100.37,29.13,100.51,29.15Z"/><path class="cls-1" d="M60.19,29.8l1.08,0Z"/><path class="cls-1" d="M60.36,29.85h-.73C59.52,29.85,59.62,29.87,60.36,29.85Z"/><path class="cls-1" d="M62.63,29.84h0Z"/><path class="cls-1" d="M131.66,1.05h-.18C130.63,1.09,131,1.08,131.66,1.05Z"/><path class="cls-1" d="M164.64,28.66h0Z"/><path class="cls-1" d="M167.66,28.58a19.68,19.68,0,0,1-3,.09l1,.31Z"/><path class="cls-1" d="M211.15,1.35l2.12.1c-2.56.16-4.41.1-2.42.24.3-.34,8.23,0,8.53-.38l1.39.08h-.86c2.72.16,2-.25,5.52-.2,1.19.08,2,.18,1.19.17a14.09,14.09,0,0,1,2.58.38c.73.2.54.21-.19,0a13.05,13.05,0,0,1,3.65,1.54h0a7.16,7.16,0,0,1,1.07.61l.58.38.45.36c.73.73-.4-.32-.23-.11s.57.47.84.73l.78.8c.49.77-.68-.66-1.86-1.63a9.31,9.31,0,0,0,.81.91c.22.26.43.47.7.74a9.56,9.56,0,0,1,2.14,3.37l-.47-.93-.55-.87a15.17,15.17,0,0,1,1.67,4.91,4.87,4.87,0,0,0-.12-.9,8.53,8.53,0,0,0-.28-1.28c-.2-.78-.28-1.23.18-.12.1.32.23.69.34,1.14.06.23.12.47.2.74s.11.56.17.88c-.12,0,.14,1.27,0,2.84l-.15-.11c0,.84-.1,1.22-.09,1.53a4.28,4.28,0,0,1-.11,1,5.29,5.29,0,0,1-1.15,2.47c-.31.67-.46.87-.44.89a2.12,2.12,0,0,0,.29-.37c.13-.19.24-.37.23-.29a4.11,4.11,0,0,1-.6,1.18c-.31.54-.72,1-1.05,1.44s-.72.86-1.15,1.23a14,14,0,0,1-3.08,2.31c-1.62.72.24-.22-.36,0a8.81,8.81,0,0,1-1.4.72c-.36.13-.25.05-.2,0-.62.24-.65.25-.75.33a3.75,3.75,0,0,1-1.34.39,3.81,3.81,0,0,1-.95.16c-.48,0-1.07,0-1.76,0a39.49,39.49,0,0,0-4.35,0c-.66,0,.32-.1.12-.16-3.68.13-3.16.1-6.17.27l-2.58-.1c1.89.12-.52.26-2.64.38l1.63.13-3.37.09c-.41,0-.07-.08.48-.15l-.62,0c-1.2-.06-.58-.15.29-.24l1.21.1c.84-.1,1.62-.21,1.44-.3s-.64,0-1.1,0c.21,0,.35-.05.25-.07s-.46,0-1,.06l-.76-.17-.19.07-4.42-.12c-3.16.18-5.9.45-10.92.52,1.25-.13.27-.21.34-.37,1.37.17,3.88-.07,6.48,0-1.36,0-1.06-.09-.71-.12l-4.64.15c.11-.13-1-.1-2.19-.15.91.25-3.46.17-5.34.25-.12-.09.33-.17,2.63-.15-2.54-.19-3.28.29-5.77.13a7.67,7.67,0,0,0,1.09,0,22.82,22.82,0,0,1-3.77-.06H181c-3.73,0-11.35,0-11.91.21a2.05,2.05,0,0,1,.71-.3l-6.65.72c.59-.19-1.67-.62,1.43-.73-.89,0-2-.05-3.86,0,.6,0,1.51.27.68.28-2.27-.2-1.58-.1-4.38-.28.91,0-.1.33-1.53.32.22,0-.12-.28.4-.31l-3.57.28c.89-.05.16-.24-.64-.32.37.05-3.09,0-4,0l1.51.07c-4-.05-4,.39-8,.38.48-.06,1.19-.36-.84-.4a59.23,59.23,0,0,1-7.67.81l-.68-.08-2.72.09c1.7-.22,6.44-.67,9-.85a21.83,21.83,0,0,0-2.68-.09c-.8-.08,1.24-.12,1.9-.12l-5.26,0c.23.17-4,.17-3.83.31l5.72-.18c.23.17-3.3.48-7,.45-1-.07.71-.3.63-.35-.49.05-3.54.11-3.88.06l1.58-.09c-2.08-.06-3.39.23-5.88.07-.86,0-2.57-.22-2.72-.12,1.4.19,1.68.79.74.93-.3,0-4.52-.18-5.5-.28-1.42-.15,2.13-.36.92-.49a6.53,6.53,0,0,1-1.16.12c-.91,0,.37-.14-1.59-.12-.33.17-4,0-.93.15-1.92.05-2,0-4.3,0,.72.11-2,.37-3.95.42.11,0-.32-.1-.53-.12l-9.73-.1c-.34,0-2.11-.09-1.35-.16-.53,0-1,.09-2.15.09-2.19-.15,2.52,0,.85-.2-.14.1-2.93.14-4.54.2a45.55,45.55,0,0,0,5.34,0c0,.21-2.8.43-6.64.53-3.05.05-1.32-.14-1.85-.11-5.74,0-4.89.37-9.65.22-1.88-.14-.08-.27-.5-.37,2.49,0,3.82.09,5.5.08l-2.07-.06c.79,0,2.45-.08,3.35,0-1.58-.12-9.68,0-14.1-.14-.79.05-2.15.1-1.5.15l1.4,0c1.28.11-2.64.15-.87.2-1.87.08-4,.2-6.62.14l-.5-.16a18.8,18.8,0,0,0,2.47.05c-1.1.07-4.05-.21-5.26,0l1.86.11c-1.89.07-4.22.24-6.56.19,1.07.15.54,0,2.21.16-1.45-.22,6,0,3.67-.22,1.71.2,2.95.08,5.19.26-.07-.05-.8-.1,1.17-.07l.43-.05h0c-.47,0-.85-.05-1-.08,1-.12,4.11-.11,5.16-.17s-.48.06.15.11l1.58-.09c.16.11,3.1.19.35.25h2.48c1.45.06,3.45.09,4.69,0s3-.13,1.93,0l3.88-.07,0,0c3.83,0,7.88-.19,12.26,0,1.29,0,2.62-.07,4.77,0l.42.09c1.66,0,5,.1,5.68,0,1.79.26,8,.06,10.94.1l.11-.12c2,0,3.92,0,6.41-.08l-.15-.12c2.14-.09,5.51.08,8.9.07a15.13,15.13,0,0,1-1.7,0c4,.25,8.54-.19,12.21,0,.92,0,1.58,0,2.22,0h.15l1.27.06-1.07-.06,2.83-.05.45.12h.24c1,0,.83-.06.28-.15.53,0,1,0,1.39-.07.83.19,2.75-.07,3.89.14.71-.1,5.28-.08,5.84-.29,0,0,.34,0-.22,0,1.16,0,2.33.05,3.38,0l.5.16,2.55-.21c1.56.09,2.2.15.66.27,3.72-.19,3-.07,6.18-.25l-.15.1c1.13,0,2.94-.14,3.62-.06,2.53.19,12.52,0,19,.2-1.26-.29,3,.13,3.28-.09.38.07,1.28.11.23.17,3.32-.07,5,.1,7.27-.09.38.07-.71.1-.37.15a10.65,10.65,0,0,1,1.4,0c.33,0-.49.06-1,.09,3.38,0,3.73-.23,4-.43a20.35,20.35,0,0,0,3.81-.05c.6.07,1.6.14-.51.16,1.19,0,7.23.09,7.35-.07a18.48,18.48,0,0,0,2,0h5.5l-.73,0a12.5,12.5,0,0,1,1.74-.12,13,13,0,0,0,2.56-.29l-.05,0A10.47,10.47,0,0,0,231.88,28a9.87,9.87,0,0,0,.9-.48l.82-.48,1.22-.87a2.29,2.29,0,0,1-.28.07,3.85,3.85,0,0,1,.62-.65,17,17,0,0,0,1.26-1.22,12.11,12.11,0,0,0,2.42-3.69l-.5.88c.31-.7.82-1.64,1.2-2.66a11,11,0,0,0,.73-2.87c0-.34,0,.55-.06,1,.3-2,.18-2.2.13-2.2s-.14.13-.24-1.39c0-.57.33.7,0-1.36a10.09,10.09,0,0,0-.35-1.38,14.65,14.65,0,0,0-.92-2.14,20.36,20.36,0,0,0-3-4.12c.38.51.76,1-.26,0A18.74,18.74,0,0,0,232.5,2,10.34,10.34,0,0,0,228.9.7c-.26-.09-.36-.13-.36-.15L227,.34c-.6,0-1.26-.05-1.87,0-1.23,0-2.37.07-2.86.12-1.48-.41-10,.2-9.95-.18l-4.95,0,.13,0a52.2,52.2,0,0,0-5.39.16c-.73,0-.2-.06-.13-.08-4.62-.08-5.08-.06-8.95.13l-.41-.13c-1.05.08-6.67-.19-11.2,0a3,3,0,0,1,.5-.05c-5.1.14-12.2-.34-14.07.11l-3.36.11c4.35,0-.65.19,1.14.27-1.71,0-4.42-.14-2.32-.16l.33,0c.77-.23-5.41-.08-5.29-.24L133.41.19l.93.18h-2.8c-.73,0-1-.14,1-.13a19.87,19.87,0,0,0-3.4.12c-3.91-.07,1.52-.21.32-.21h-1.62l.36,0a38.17,38.17,0,0,1-3.83.15A12.08,12.08,0,0,1,123,.2s0,0-.18,0h-.73l-3.53,0L120,.32c-1.56.07-3.31,0-1.68.15C115.9.22,105.14.38,103.67.31c-2.18.1-4.34.1-7,.09.67,0,1.07.19-1.24.17.84-.34-4.23-.15-6.09-.39,1.67.16-6.56,0-3.95.27-1.92,0-.11-.13-1.57-.2C79.21.37,73.7.16,68,.2c-.08,0,.86.12-.35.18l-3-.22a14.28,14.28,0,0,1-3.07.1c.28,0,.72.1,0,.11C50.49.16,38.91.54,27.64.14c1.53.09.51.1-.65.1.76,0,0,.11.13.17L22.4.24c-.86.17-5.06,0-5.55.17l1.5,0c-2,.19,2.78.42,2.49.66,2.22-.22,5.86.31,9.51,0,.81.05-.69.07-.26.13a33.45,33.45,0,0,1,4.12-.08l-.24,0c5.82,0,8.31.07,14.85.14l-.49-.12c1.41,0,1.7.06,2.36.09,1.61-.18-3.94,0-2.47-.21,1.86.24,9.9,0,11.16.27,2.16,0-.64-.13,1.52-.13l.58.07L62,1.15a8.2,8.2,0,0,1,2.19.17c-.35,0-1,0-1.35,0,1.84.09,5.18,0,5.81,0l-2.08-.05c5.9-.06,13.1,0,18.79-.12l-.43,0c4.35-.11,3.48.06,8.26,0H93c.95,0,2.23-.08,3.53-.07-1.2.06,2.27.12.69.2a53.21,53.21,0,0,0,5.45-.3l.72.09C104.49,1,104.58.94,107,.91c-1.95.08,1.53.14-.67.25,5,.2,7.44-.21,9.73.09,2.3-.26-4.33-.14-3-.2C111.9,1,114.87.86,116.45.89s2.71.32,6.74.32l-.83,0c1.5.06,3-.09,4.79,0a26.26,26.26,0,0,0,2.7-.18l-3.69,0c2.09-.05,4.05-.28,7.5-.17-.27,0-1.3.09-2,.12,1,.06,1.94,0,3,0-.29.2-4.48.05-6.72.2,1.08.08,4.24-.15,3.11.07,1.62-.27,4,0,6.69-.18l-.18.12c.43,0,1.32-.07,2.12-.07l-1.44.16c2.21-.14,4.25.11,6.37,0-4.43,0-1-.14-2.87-.23,5.46-.16,3.14.31,9.26.25-.83,0-3.11-.07-1.82-.12s2.7.07,3.42.13c4,0-.62-.12,1.1-.2a26.3,26.3,0,0,0,3.77-.1v.12c4.61.08,1.22-.25,5.38-.16l-1.76.17,2.17-.05-.45.14c2.36-.1,3.09-.07,5.4,0-.53-.09.3-.22,2.35-.23a6.74,6.74,0,0,0,2.12.1,11.11,11.11,0,0,1-2.64.06c-.13,0-.64.07-.77.11,1.5.09,3.77,0,4.82,0-.4,0-.89,0-1.14,0l4.21-.16c.66,0,.13.08-.39.11.85,0,1.44-.07,2.69-.08-.32.1-.24.2-2,.25l4-.11c.27,0,2.05.12,1.53.15,2.22.06,5.45-.19,8.39-.11.15,0,.46,0,1.09,0,2.76,0,5.21.14,8.49,0l1.86.17c2.57,0-2.52-.22,1.76-.29,3-.05,1.13.15,2.19.2a61.78,61.78,0,0,1,6.9-.12C212.73,1.36,212,1.34,211.15,1.35Zm27.17,8.86c-.2-.56-.8-1.57-.95-2a2.65,2.65,0,0,1,.52.83A6.73,6.73,0,0,1,238.32,10.21Zm-33.59,18.7a16.47,16.47,0,0,1,2,0C206.11,28.94,205.46,28.94,204.73,28.91Zm-134.07.84h.07C72.1,29.79,71.61,29.77,70.66,29.75Zm-2.84-.06c-.28,0-.26,0-.14,0s.83,0,1.56,0A9.33,9.33,0,0,0,67.82,29.69ZM122.69.24l.55,0C122,.31,122.34.27,122.69.24Z"/><path class="cls-1" d="M210.19,28.74a.5.5,0,0,1,.26.07C210.69,28.79,210.7,28.76,210.19,28.74Z"/><path class="cls-1" d="M191.46,1.41h-.1l-.1,0Z"/><path class="cls-1" d="M111.84,28.67c.58,0,.91,0,1.13.06A3.94,3.94,0,0,0,111.84,28.67Z"/><path class="cls-1" d="M52.76,29.9l1.83,0c-.89,0-1.2,0-1.64,0C53,29.86,53.33,29.9,52.76,29.9Z"/><path class="cls-1" d="M37,29.15l-.83,0,.07.06C37.35,29.22,38.14,29.18,37,29.15Z"/><path class="cls-1" d="M51.08,29.5a13.74,13.74,0,0,0-2.56-.05h.22C48.37,29.59,49.73,29.55,51.08,29.5Z"/><path class="cls-1" d="M48.22,29.45H47A5.3,5.3,0,0,0,48.22,29.45Z"/><path class="cls-1" d="M64.22,29.76c-.61,0-.38.13-.72.09C62.82,30,67.53,29.69,64.22,29.76Z"/><polygon class="cls-1" points="50.05 29.16 50.51 29.29 51.22 29.19 50.05 29.16"/><path class="cls-1" d="M60.12,29.26l-2,0a2.23,2.23,0,0,1-.55,0C58.79,29.27,60.16,29.29,60.12,29.26Z"/><path class="cls-1" d="M57.53,29.26c-.65,0-1.27,0-1.64,0Z"/><polygon class="cls-1" points="52.83 29.13 53.44 29.15 54.87 29.16 52.83 29.13"/><path class="cls-1" d="M82,29.28l2.22,0c.23,0-.38-.06-1.21,0C82.5,29.22,81.67,29.24,82,29.28Z"/><path class="cls-1" d="M75.29,28.94a7.11,7.11,0,0,1,1,.09l.07-.15Z"/><path class="cls-1" d="M81.78,28.9c.22,0,3.22-.12.4-.11C82,28.83,79.73,28.87,81.78,28.9Z"/><polygon class="cls-1" points="115.28 29.1 114.71 29.1 114.79 29.35 115.28 29.1"/><path class="cls-1" d="M144.81,28.49c-2.64-.06-.63.16-3,.08-.62.06,1.95.06,1.31.11C144.7,28.62,145.54,28.66,144.81,28.49Z"/><path class="cls-1" d="M143.11,28.68l-.81,0Z"/><polygon class="cls-1" points="19.25 0.11 17.55 0.06 18.64 0.14 19.25 0.11"/><path class="cls-1" d="M16,.3l-.4-.16-1,.14C15,.28,15.7.26,16,.3Z"/><path class="cls-1" d="M238.83,14.64l0,.12a7.7,7.7,0,0,0,0-1.37C238.87,13.81,238.83,14.23,238.83,14.64Z"/><polygon class="cls-1" points="224.53 1.48 224.93 1.48 224.19 1.33 224.53 1.48"/><path class="cls-1" d="M205.25,1.66l2.5,0C206,1.67,205,1.48,205.25,1.66Z"/></svg>