<svg id="Camada_1" data-name="Camada 1" xmlns="http://www.w3.org/2000/svg" viewBox="0 0 56.48 24.48"><defs><style>.cls-1{fill:#878787;}</style></defs><rect class="cls-1" x="0.7" y="0.72" width="55.32" height="22.92" rx="11.46"/><path class="cls-1" d="M12,.12c.21,0,.13-.1.16-.12C11.81,0,12,.15,12,.12Z"/><polygon class="cls-1" points="8.61 0.9 8.66 0.84 8.21 1.11 8.61 0.9"/><path class="cls-1" d="M5.71,2.27c.35,0,1-.63,1.54-.8h.1l.18-.24-1,.54A6.05,6.05,0,0,1,5.71,2.27Z"/><path class="cls-1" d="M4.1,3c.12,0-.25.3.32-.26l-.07,0Z"/><path class="cls-1" d="M4.35,2.8c.26-.23-.21.1,0,0Z"/><path class="cls-1" d="M3.22,4l.26-.39c-.09,0-.38.34-.3.21C2.89,4.15,3,4.1,3.22,4Z"/><path class="cls-1" d="M3,4.35l.14-.19S3.07,4.22,3,4.35Z"/><path class="cls-1" d="M3.46,3.75l-.3.41c.07,0,.11,0,.14-.18C3.31,4,3.34,3.94,3.46,3.75Z"/><path class="cls-1" d="M3.67,3.57c.22-.15.48-.35.19,0C4.48,3,4.31,3,3.67,3.57Z"/><path class="cls-1" d="M5.67,2.51,6,2.38l.22-.2C6.09,2.28,5.63,2.47,5.67,2.51Z"/><path class="cls-1" d="M1.45,6.21s.17-.09.23-.09l.14-.31C1.71,5.94,1.52,6.22,1.45,6.21Z"/><path class="cls-1" d="M1.68,6.12c-.06.16-.14.31-.19.47C1.7,6.2,1.74,6.12,1.68,6.12Z"/><polygon class="cls-1" points="3.12 4.54 3.57 3.85 3.02 4.66 3.12 4.54"/><polygon class="cls-1" points="0.65 7.98 0.66 7.68 0.61 8.21 0.65 7.98"/><path class="cls-1" d="M.28,9.23c0-.23-.19.25-.18,0a2.79,2.79,0,0,0,0,.94A2.19,2.19,0,0,1,.28,9.23Z"/><path class="cls-1" d="M.06,10.65c0-.14,0-.29,0-.46A2.36,2.36,0,0,0,.06,10.65Z"/><path class="cls-1" d="M1.1,7.35a.71.71,0,0,0-.25.33L1,7.53Z"/><path class="cls-1" d="M1,7.53H1l-.15.4Z"/><path class="cls-1" d="M1.13,7.31l0,0S1.13,7.33,1.13,7.31Z"/><path class="cls-1" d="M2.25,5.52c-.1.28-.36.83,0,.38C2.32,5.68,2.1,5.94,2.25,5.52Z"/><path class="cls-1" d="M1.35,7.14l.25-.46s-.1.06-.07-.08Z"/><polygon class="cls-1" points="1.27 7.39 1.35 7.14 1.26 7.32 1.27 7.39"/><path class="cls-1" d="M.3,9.75a5.4,5.4,0,0,1-.06.77c.07-.29.11-.61.18-.9C.4,9.58.37,9.43.3,9.75Z"/><path class="cls-1" d="M.61,8.66v.05S.63,8.66.61,8.66Z"/><polygon class="cls-1" points="0.17 13.32 0.18 13.28 0.17 13.27 0.17 13.32"/><path class="cls-1" d="M.45,9.58a1.31,1.31,0,0,0,.09-.49c0,.17-.07.34-.12.53C.43,9.65.44,9.65.45,9.58Z"/><path class="cls-1" d="M0,11.44c0-.13,0-.26.08-.39A1,1,0,0,0,0,11.44Z"/><path class="cls-1" d="M.55,8.78v0C.52,8.81.53,8.8.55,8.78Z"/><path class="cls-1" d="M.55,8.78c0,.12,0,.21,0,.31A3.26,3.26,0,0,0,.6,8.71Z"/><path class="cls-1" d="M1,14.05A1.39,1.39,0,0,1,.75,13c-.1-.49-.41-.16-.57.3.05,0,.07,0,.21.52,0-.18,0-1.15.14-.72a2.65,2.65,0,0,1,0,.89c.08-.3.3.82.47.63A5.15,5.15,0,0,1,.86,14S1,14.21,1,14.05Z"/><path class="cls-1" d="M.14,12.27a1.48,1.48,0,0,1,0-.21,7.16,7.16,0,0,1-.11.75c.07.36.11.43.15.46l0-1.07Z"/><path class="cls-1" d="M.18,11.08c.1.18.12.7.25.39,0-.62-.07-.44-.06-.82-.1,1,0-.3-.18.43a3.24,3.24,0,0,1,0-.56c0,.19-.1.36-.12.53v0h0s0-.06,0,0v0a.1.1,0,0,1,0,.05c0,.3,0,.05,0-.05h0v1A9.12,9.12,0,0,0,.18,11.08Z"/><path class="cls-1" d="M2.2,6.47l0,0C2.14,6.55,2.13,6.57,2.2,6.47Z"/><path class="cls-1" d="M1.94,6.79a.63.63,0,0,1,.14-.34c.13-.16,0,0,.08,0,0-.14.19-.47-.09-.11l0,.06c-.24.32-.56.75-.56.68A1.47,1.47,0,0,0,1.94,6.79Z"/><path class="cls-1" d="M.87,8.86l-.15.83L.91,9.3H.85C1,8.85.9,8.93.87,8.86Z"/><path class="cls-1" d="M.12,13.42,0,13.32c.06.16.15.32.22.48Z"/><path class="cls-1" d="M.3,14.53l-.1,0a2.14,2.14,0,0,0,.12.28A2.28,2.28,0,0,1,.3,14.53Z"/><path class="cls-1" d="M53.79,17.9l.1-.21Z"/><path class="cls-1" d="M52.82,19.23v.06C52.86,19.21,52.87,19.18,52.82,19.23Z"/><path class="cls-1" d="M22.43,24.27c.35.09.74.23.7.12L23,24.28A2.79,2.79,0,0,1,22.43,24.27Z"/><path class="cls-1" d="M40.26,23.62l-.11,0-.23.1Z"/><path class="cls-1" d="M40.5,23.17l.46.07A4.23,4.23,0,0,0,40.5,23.17Z"/><path class="cls-1" d="M54.91,9.3l-.17-.23C54.84,9.47,54.85,9.28,54.91,9.3Z"/><path class="cls-1" d="M7.16,23.14a3.49,3.49,0,0,0,.71.37C7.52,23.32,7.29,23.11,7.16,23.14Z"/><path class="cls-1" d="M54.38,19.11c.08-.14.1-.2.07-.21S54.34,19.12,54.38,19.11Z"/><path class="cls-1" d="M8.74,23.8l-.16-.06a7.2,7.2,0,0,1-.71-.23A1.91,1.91,0,0,0,8.74,23.8Z"/><path class="cls-1" d="M25.09,1.34H25S25,1.34,25.09,1.34Z"/><path class="cls-1" d="M15.07.25h.42A2.07,2.07,0,0,0,15.07.25Z"/><path class="cls-1" d="M1.93,18.7c-.13-.2,0,0,0,0Z"/><path class="cls-1" d="M1.74,17.51s.06.06.09,0S1.77,17.54,1.74,17.51Z"/><path class="cls-1" d="M11.12,23.57h0Z"/><path class="cls-1" d="M1.79,18.37a2.28,2.28,0,0,0,.13.28Z"/><path class="cls-1" d="M1.77,18.44l-.1-.18S1.64,18.27,1.77,18.44Z"/><path class="cls-1" d="M2.11,19c-.07-.11-.13-.22-.19-.33,0,0,0,.06,0,.05S2,18.85,2.11,19Z"/><path class="cls-1" d="M43.5,1.05h0C43.22,1.09,43.32,1.08,43.5,1.05Z"/><polygon class="cls-1" points="28.28 23.14 28.25 23.14 28.29 23.15 28.28 23.14"/><path class="cls-1" d="M29.09,23.06a1.46,1.46,0,0,1-.8.09l.27.31Z"/><path class="cls-1" d="M55.2,14.26a4.31,4.31,0,0,1-.22.49c0-.65.08-1.09-.1-.63.18.07,0,.57-.07,1.07s-.32,1-.17,1.07a2.73,2.73,0,0,1-.21.3,1.31,1.31,0,0,0,.08-.21c-.45.55,0,.58-.45,1.34-.19.26-.34.41-.27.21a4.08,4.08,0,0,1-.31.63c-.12.15-.14.08,0-.08-.21.28-.39.59-.62.85h0c-.06.14-.23.45-.32.6s.07-.12,0-.1a4.17,4.17,0,0,1-.36.47c-.25.09.08-.27.35-.57A.81.81,0,0,0,52,20a2.06,2.06,0,0,1-.8.69,3.5,3.5,0,0,0,.39-.38,9.33,9.33,0,0,0-1.24.64c.16,0,1.16-.49.71,0a3.19,3.19,0,0,0-.6.46c-.07-.1-.34.1-.69.32l0-.16c-.37.24-.31.3-.52.48a.77.77,0,0,1-.75.06c-.75.25.59,0-.29.35-.32.1-.6.16-.88.25s-.59.22-1,.32.06-.11-.11-.13l-.39.19c-.11,0-.08,0-.06-.06-.35.08,0,.17-.57.24-.14.2-1.17-.22-1.89,0-.18,0,.09-.1,0-.16a13.86,13.86,0,0,0-1.65.27l-.69-.1c.51.12-.14.26-.7.38a4.35,4.35,0,0,0,.43.13l-.9.09c-.11,0,0-.08.13-.15l-.17,0c-.32-.06-.15-.15.08-.24l.32.1c.23-.1.44-.21.39-.3a1.55,1.55,0,0,1-.3,0c.06,0,.1,0,.07-.07a1,1,0,0,0-.27.06l-.21-.17,0,.07-1.18-.11a15.68,15.68,0,0,1-2.92.51c.33-.13.07-.21.09-.37.37.17,1-.07,1.73,0-.36,0-.28-.09-.19-.12l-1.24.15c0-.13-.26-.1-.58-.15.24.25-.93.17-1.43.25,0-.09.09-.17.7-.15-.68-.19-.88.29-1.54.13.15,0,.23,0,.29,0-.35.07-1.21,0-1-.06h.15a11.16,11.16,0,0,0-3.19.21.78.78,0,0,1,.19-.3l-1.78.72c.16-.19-.44-.62.39-.73a4.5,4.5,0,0,0-1,0c.16,0,.41.27.19.28a9.41,9.41,0,0,0-1.18-.28c.25,0,0,.33-.41.32.06,0,0-.28.11-.31l-.95.28c.23-.05,0-.24-.18-.32.1.05-.82,0-1.08,0l.41.07c-1.08-.05-1.07.39-2.14.38.13-.06.32-.36-.22-.4a5.37,5.37,0,0,1-2.06.81l-.18-.08-.72.09a18.47,18.47,0,0,1,2.41-.85,1.62,1.62,0,0,0-.72-.09c-.21-.08.33-.12.51-.12L19.6,22.9c.07.17-1.07.17-1,.31L20.11,23c.06.17-.88.48-1.88.45-.26-.07.19-.3.17-.35a3.72,3.72,0,0,1-1,.06l.42-.08c-.55-.07-.9.22-1.57.06-.23,0-.69-.22-.73-.12.38.19.45.79.2.93a13.52,13.52,0,0,1-1.47-.28c-.38-.15.57-.36.24-.49,0,.05-.22.11-.31.12-.24,0,.1-.14-.42-.12-.09.17-1.07,0-.25.15-.52.05-.55,0-1.15,0,.19.12-.54.36-1.07.38,0,0-.08-.11-.13-.14a10.56,10.56,0,0,1-1.3-.24c-.37-.13-.75-.21-1.21-.37-.07-.07-.49-.28-.28-.28a2,2,0,0,1-.56-.11c-.47-.36.62.23.28-.11-.08.1-.74-.18-1.16-.31.06.18.87.48,1.3.54-.07.21-.87.16-1.84-.28-.74-.39-.24-.3-.38-.35-1.26-.9-1.33-.48-2.21-1.47-.25-.48.18-.21.17-.36.52.42.68.77,1.05,1.05a5,5,0,0,1-.39-.41,5.86,5.86,0,0,1,.73.53,12.34,12.34,0,0,1-2.51-2.78c-.16-.14-.38-.43-.34-.26a1.73,1.73,0,0,0,.22.31c.1.35-.51-.51-.3-.08a4.55,4.55,0,0,1-1-1.53l.08-.19a1.48,1.48,0,0,0,.26.63c-.21-.24-.29-1.08-.57-1.32l.08.52A5,5,0,0,1,.51,15c-.07.33.05.14,0,.64.06-.44.56,1.6.55.91,0,.53.27.78.38,1.44,0-.05,0-.24.23.25a.35.35,0,0,1,.1.08l0,0v0h0a.85.85,0,0,1-.07-.28c.24.18.68.93.92,1.11s-.13-.07-.06.1l.33.3c-.08.11.42.78-.14.24.14.18.31.35.46.52a3.57,3.57,0,0,0,.92,1c.22.25.72.43.43.33l.92.59v0c.91.61,2,.92,3.1,1.5A11.87,11.87,0,0,1,9.9,24l.1.11c.23,0,.58.1.89.16a1.85,1.85,0,0,0,.71,0c.54.32,2.16.07,3,.13l0-.12c.53,0,1.05,0,1.71-.08l0-.12c.57-.09,1.47.08,2.38.07a1.07,1.07,0,0,1-.45,0c1.08.25,2.28-.19,3.27,0a1.66,1.66,0,0,1,.59,0h0l.34.06-.28-.06c.18,0,.47,0,.75-.05l.12.12h.07c.27,0,.22-.06.07-.15a2.73,2.73,0,0,0,.37-.07c.23.19.74-.07,1,.14.19-.1,1.42-.08,1.57-.29,0,0,.09,0-.06,0a3,3,0,0,0,.9,0l.14.16.68-.21c.41.09.59.15.17.27,1-.19.81-.07,1.66-.25l0,.1a3.78,3.78,0,0,1,1-.06c.67.19,3.35,0,5.09.2-.34-.29.8.13.87-.09.1.07.35.11.06.17a9.49,9.49,0,0,0,2-.09c.1.07-.19.11-.1.15a.76.76,0,0,1,.37,0c.09,0-.13.06-.27.09.91,0,1-.23,1.07-.43a1.51,1.51,0,0,0,1-.05c.16.07.42.14-.14.16a7.14,7.14,0,0,0,2-.07A1.3,1.3,0,0,0,43,24c.71,0,.78,0,1.47,0l-.19,0c.27-.19.59-.06,1.16-.11v0a2.42,2.42,0,0,0,.94-.06,6.31,6.31,0,0,1,.92-.12l-.09-.1c0-.14.31-.18.68-.21A3.57,3.57,0,0,0,49,23.06l-.28,0c.36-.2,1.2-.15,1.61-.31.09,0-.12.1-.23.17,1.06-.4.06-.2.75-.65.18,0-.05.29.44,0a4.82,4.82,0,0,0,.76-.68,6.1,6.1,0,0,1,1-.92c-.17.06-.34.13-.09-.17a8.24,8.24,0,0,1,.78-.73,2.41,2.41,0,0,0,.59-.86c.06-.05.09-.06.1-.05a6.64,6.64,0,0,0,.68-1.59,1,1,0,0,0,.4-.48,8.56,8.56,0,0,0,.27-.89c.16-.63.21-1.21.41-1.16.1-.45.13-.91.2-1.36l0,0a3.09,3.09,0,0,0-.1-1.5c0-.2.06-.06.08,0A4.55,4.55,0,0,0,56,9.49l.09-.13A9,9,0,0,0,55,6.45s.06,0,.12.09a8.93,8.93,0,0,1-.6-1l-.63-1C53.45,4,53,3.52,52.66,3.52c-.26-.17-.49-.37-.77-.52.88.8-.25,0,.07.4-.37-.27-.87-.83-.4-.51l.06.07c.16,0-.12-.26-.43-.51S50.5,2,50.56,2A12.55,12.55,0,0,0,44,.19l.24.18h-.75c-.19,0-.26-.14.27-.13a1.52,1.52,0,0,0-.91.12c-1-.07.41-.21.09-.21h-.43l.09,0a2.83,2.83,0,0,1-1,.15c-.41,0-.21-.12-.37-.12,0,0,0,0-.24,0L40,.17l.38.15c-.42.07-.89,0-.45.15A30.05,30.05,0,0,0,36,.31,10.21,10.21,0,0,1,34.13.4c.18,0,.28.19-.33.17C34,.23,32.67.42,32.17.18c.44.16-1.76,0-1.06.27-.51,0,0-.13-.42-.2C29.46.37,28,.16,26.47.2c0,0,.23.12-.09.18l-.8-.22c-.3,0-.28.26-.83.1.08,0,.2.1,0,.11-3-.21-6.06.17-9.08-.23.41.09.14.1-.17.1.2,0,0,.11,0,.17L14.26.24c-.23.17-1.35,0-1.49.17l.4,0c-.53.19.75.42.67.66.59-.22,1.57.31,2.55,0,.21.05-.19.07-.07.13a2.41,2.41,0,0,1,1.1-.08l-.07,0c1.56,0,2.23.07,4,.14l-.13-.12a3.5,3.5,0,0,1,.63.09c.43-.18-1.06,0-.66-.21.5.24,2.65,0,3,.27.58,0-.17-.13.41-.13l.15.07.15-.09c.38,0,.57.11.59.17s-.27,0-.36,0a13,13,0,0,0,1.55,0l-.56-.05c1.58-.06,3.51,0,5-.12l-.11,0c1.16-.11.93.06,2.21,0h-.05a4.54,4.54,0,0,1,1-.07c-.32.06.6.12.18.2A4.1,4.1,0,0,0,35.75,1l.19.09a2.78,2.78,0,0,1,1-.15c-.53.08.4.14-.18.25,1.34.2,2-.21,2.6.09.62-.26-1.16-.14-.81-.2-.29-.08.5-.19.93-.16a9,9,0,0,0,1.8.32c-.11,0-.12,0-.22,0,.4.06.79-.09,1.28,0,.28-.15.64,0,.72-.18l-1,0a7.07,7.07,0,0,1,2-.17,2.65,2.65,0,0,1-.53.12c.27.06.52,0,.8,0-.08.2-1.2.05-1.8.2.29.08,1.13-.15.83.07.42-.26,1.08,0,1.77-.15L45,1.31a2.64,2.64,0,0,1,.55-.05l-.38.14c.58-.13,1.06.24,1.59.24-1.1-.17-.22-.18-.68-.34a1.54,1.54,0,0,1,1.08.3,3.25,3.25,0,0,0,1.13.52c-.2-.05-.71-.33-.39-.27a4,4,0,0,1,.76.42c.93.41-.09-.19.33-.07.26.29.49.16.92.34l-.06.11c1,.69.42-.09,1.24.62l-.46-.13.47.29-.17,0A3,3,0,0,1,52,4.32c0-.14.23-.13.58.27.19.32-.22-.07.3.47a.81.81,0,0,1-.5-.46c-.05,0-.16-.07-.22-.07a8.06,8.06,0,0,0,.8.93c-.06-.08-.11-.17-.16-.24.27.23.52.49.78.75.07.16,0,.07-.15,0a3.49,3.49,0,0,1,.43.54c-.12,0-.2,0-.47-.31l.62.81c0,.07.12.51,0,.41a8.73,8.73,0,0,1,.86,1.91.91.91,0,0,1,.12.26,5.71,5.71,0,0,1,.14,1c0,.34.08.69.16,1.11l-.15.47c0,.64.25-.64.26.44,0,.78-.16.28-.22.54a4.13,4.13,0,0,1,0,.76,2.06,2.06,0,0,1-.23,1C55.09,14.64,55.18,14.47,55.2,14.26Zm-4.13,6.67c.11-.11.31-.35.44-.37C51.46,20.78,51.3,20.81,51.07,20.93ZM39,23.39a1.17,1.17,0,0,1,.52,0A2.35,2.35,0,0,1,39,23.39ZM3.62,20.67h0C3.89,21,3.8,20.87,3.62,20.67Zm-.49-.62c-.07-.05-.08,0-.07,0a1.22,1.22,0,0,1,.31.31C3.36,20.3,3.31,20.21,3.13,20.05ZM41.1.24l.14,0C40.91.31,41,.27,41.1.24Z"/><path class="cls-1" d="M40.47,23.22a.1.1,0,0,1,.07.07C40.6,23.27,40.61,23.24,40.47,23.22Z"/><path class="cls-1" d="M55,9.34v0h0Z"/><path class="cls-1" d="M14.15,23.15a1.5,1.5,0,0,1,.3.06S14.39,23.16,14.15,23.15Z"/><path class="cls-1" d="M.78,16.53c.07.15.13.32.21.47a1.92,1.92,0,0,1-.13-.45S.84,16.68.78,16.53Z"/><path class="cls-1" d="M.72,12.13c0-.07,0-.15,0-.22l0,0C.64,12.23.7,12.44.72,12.13Z"/><path class="cls-1" d="M1,16c.08-.07-.06-.35-.15-.69v.06C.7,15.25.81,15.62,1,16Z"/><path class="cls-1" d="M.81,15.18c0-.1-.06-.21-.08-.31S.75,15,.81,15.18Z"/><path class="cls-1" d="M2.44,19.3c-.08-.15-.17,0-.19-.11C2,19.11,3.06,20,2.44,19.3Z"/><polygon class="cls-1" points="1.22 15.58 1.14 15.73 1.3 15.88 1.22 15.58"/><path class="cls-1" d="M2.24,18.08c-.08-.17-.18-.32-.25-.49,0,0-.05,0-.1-.12A2.19,2.19,0,0,0,2.24,18.08Z"/><path class="cls-1" d="M1.89,17.47a2.21,2.21,0,0,0-.21-.39C1.72,17.17,1.82,17.35,1.89,17.47Z"/><path class="cls-1" d="M1.51,16.27l0,.16a2.67,2.67,0,0,0,.14.36A3.5,3.5,0,0,1,1.51,16.27Z"/><path class="cls-1" d="M6.38,22.2a3.94,3.94,0,0,0,.55.26c.07,0-.06-.1-.27-.19S6.33,22.12,6.38,22.2Z"/><path class="cls-1" d="M5.1,20.91a.86.86,0,0,1,.15.23L5.36,21Z"/><path class="cls-1" d="M6.52,21.84c.07,0,.78.32.15,0C6.6,21.81,6.08,21.54,6.52,21.84Z"/><polygon class="cls-1" points="15.07 23.58 14.92 23.58 14.94 23.83 15.07 23.58"/><path class="cls-1" d="M23,23c-.7-.06-.16.16-.8.08-.17.06.52.06.35.11C22.94,23.1,23.17,23.14,23,23Z"/><path class="cls-1" d="M22.52,23.16l-.22,0A1.09,1.09,0,0,0,22.52,23.16Z"/><polygon class="cls-1" points="13.41 0.11 12.96 0.06 13.25 0.14 13.41 0.11"/><path class="cls-1" d="M12.54.3l-.1-.16-.28.14A1.15,1.15,0,0,1,12.54.3Z"/><path class="cls-1" d="M49.9,21.31v.05c.07,0,.16,0,.33-.14Z"/><polygon class="cls-1" points="53.94 17.36 53.88 17.45 54.11 17.36 53.94 17.36"/><path class="cls-1" d="M55.06,12.76c0,.19,0,.42,0,.61C55.05,13,55.24,12.71,55.06,12.76Z"/></svg>