<svg id="Camada_1" data-name="Camada 1" xmlns="http://www.w3.org/2000/svg" viewBox="0 0 474.05 215.33"><defs><style>.cls-1{fill:#19203b;}</style></defs><rect class="cls-1" x="3.86" y="2.66" width="467.39" height="209.34"/><path class="cls-1" d="M1.42,4.24C1.46,2.24,1,3,1,2.66,1.06,6,1.53,4.16,1.42,4.24Z"/><polygon class="cls-1" points="2.38 37.23 2.2 36.65 2.62 41.51 2.38 37.23"/><path class="cls-1" d="M2.37,68.08c.71-2.92-.12-11.18.14-16.68l.16-.9L2.09,48C2.19,54.7,2.57,63.37,2.37,68.08Z"/><path class="cls-1" d="M.82,84.52c.28-1,.24,3.56.09-3.83,0,.37-.05.48-.07.69C.84,82.05.83,83,.82,84.52Z"/><path class="cls-1" d="M.84,81.38c0-3.25-.23,2.13,0,0Z"/><path class="cls-1" d="M1,96.38.75,92.11c-.16.89-.2,4.7-.32,3.28C.57,99.78.73,98.88,1,96.38Z"/><path class="cls-1" d="M1.52,100.44l-.1-2.22A6.56,6.56,0,0,0,1.52,100.44Z"/><path class="cls-1" d="M1.19,93.52l.23,4.7a2.92,2.92,0,0,0-.09-2.16C1.55,96.45,1.34,95.52,1.19,93.52Z"/><path class="cls-1" d="M1.3,90.86c.16-2.4.26-5.5.5-1.21C1.7,81.47,1.2,82.67,1.3,90.86Z"/><path class="cls-1" d="M3.11,69.65l.2-3.21-.23-2.77C3.19,65.05,2.88,69.85,3.11,69.65Z"/><path class="cls-1" d="M.63,123c.15.27.4-1.44.6-1.76l-.18-3.16A32.46,32.46,0,0,1,.63,123Z"/><path class="cls-1" d="M1.23,121.28,1.49,126C1.52,121.79,1.4,121,1.23,121.28Z"/><polygon class="cls-1" points="2.31 101.2 1.76 93.44 2.32 102.7 2.31 101.2"/><polygon class="cls-1" points="0.61 141.1 0.26 138.42 0.79 143.19 0.61 141.1"/><path class="cls-1" d="M.67,153.08c-.29-2-.49,2.72-.67.62.05,3.26.3,6,.53,8.54A78.43,78.43,0,0,1,.67,153.08Z"/><path class="cls-1" d="M.85,166.44c-.07-1.33-.19-2.7-.32-4.2C.59,163.65.69,165,.85,166.44Z"/><path class="cls-1" d="M1.41,134.07A14.71,14.71,0,0,0,1,137.79l.43-1.86Z"/><path class="cls-1" d="M1.42,135.86v.07c0,2,0,3.42,0,4C1.39,139.43,1.4,138.2,1.42,135.86Z"/><path class="cls-1" d="M1.42,133.6c0,.17,0,.3,0,.47A.76.76,0,0,0,1.42,133.6Z"/><path class="cls-1" d="M1.93,113.6c.23,2.78.49,8.57.86,3C2.49,114.57,2.29,117.78,1.93,113.6Z"/><path class="cls-1" d="M2,131.29l.1-5c-.11.1-.28,1-.4-.37Z"/><polygon class="cls-1" points="2.09 133.75 1.95 131.29 1.91 133.15 2.09 133.75"/><path class="cls-1" d="M1.25,157.84c.19,2.16.21,4.54.24,7.22.08-2.87.13-5.84.12-8.67C1.48,156,1.24,154.76,1.25,157.84Z"/><path class="cls-1" d="M1.37,147.16c0,.15,0,.34,0,.48C1.43,147.34,1.44,147.11,1.37,147.16Z"/><path class="cls-1" d="M1.48,191.45l.08-.42a.86.86,0,0,1-.07-.1Z"/><path class="cls-1" d="M1.69,155.91a28.68,28.68,0,0,0-.15-4.68c0,1.62.07,3.33.07,5.16C1.67,156.57,1.71,156.61,1.69,155.91Z"/><path class="cls-1" d="M1.05,173.8c.09-1.12.17-2.4.24-3.74A22.45,22.45,0,0,0,1.05,173.8Z"/><path class="cls-1" d="M1.28,148.37c0-.11,0-.21,0-.33C1.17,148.75,1.21,148.66,1.28,148.37Z"/><path class="cls-1" d="M1.28,148.37c.06,1.11.17,2,.26,2.86,0-1.31-.08-2.53-.14-3.59C1.37,147.91,1.32,148.18,1.28,148.37Z"/><path class="cls-1" d="M4.23,199.45c-.4-.38-.77-6.06-.34-11-.3-4.82-1.6-1.67-2.33,2.54.17.15.33.15.57,5.11.21-1.73.5-11,.86-6.82.2,6.57-.14,5.38-.35,8.58.49-2.72.72,8.37,1.45,6.93l-.26-5.76C3.94,199,4.12,201.05,4.23,199.45Z"/><path class="cls-1" d="M1.6,181.57l-.05-2c-.07,2.33-.23,4-.54,7.06.2,3.4.34,4.11.48,4.34l.05-10.06Z"/><path class="cls-1" d="M1.55,170.36c.43,1.59.61,6.5,1.08,3.49,0-6-.36-4.2-.55-7.78.11,9.68-.24-2.78-.48,4.21-.07-1.9-.1-3.61-.11-5.22-.06,1.74-.12,3.42-.2,5l0-.22v-.05h0c.06-.41.09-.55.06-.08a1.48,1.48,0,0,0,0,.2,1.73,1.73,0,0,1,.16.44c-.09,2.8-.11.44-.16-.44,0,0,0-.11-.07-.12v0l.23,9.69C1.61,177.48,1.6,174.91,1.55,170.36Z"/><path class="cls-1" d="M3.71,121.73c0,.31-.07.29-.1.31C3.66,122.67,3.7,122.91,3.71,121.73Z"/><path class="cls-1" d="M3.45,125.72a20.76,20.76,0,0,1-.19-3.58c.13-2,.21,0,.35-.1-.11-1.38-.31-4.83-.52-.5l.06.69a58.88,58.88,0,0,1-.74,8.23A23.93,23.93,0,0,0,3.45,125.72Z"/><path class="cls-1" d="M2.61,148.32l.21,8.07.37-4.11-.22.21C3.06,147.9,2.78,148.89,2.61,148.32Z"/><polygon class="cls-1" points="1.27 192.38 0.81 191.31 1.46 195.97 1.27 192.38"/><polygon class="cls-1" points="1.32 202.86 0.93 202.47 1.17 205.24 1.32 202.86"/><path class="cls-1" d="M468.88,96.84l-.11-2.37C468.8,95.59,468.84,96.31,468.88,96.84Z"/><path class="cls-1" d="M468.85,114l.2.43C468.94,113.63,468.86,113.3,468.85,114Z"/><path class="cls-1" d="M252.24,214.49c3.45.37,7.31.95,6.89.5l-1.06-.43C255.66,214.64,253.81,214.59,252.24,214.49Z"/><path class="cls-1" d="M428.6,211.9l-1-.13-2.33.42Z"/><path class="cls-1" d="M431,210.11l4.55.28C434.57,210.29,433.1,210.2,431,210.11Z"/><path class="cls-1" d="M468.42,5.61l-.07,0a2.88,2.88,0,0,0-.73.37,1.25,1.25,0,0,0,.4-.05C468.1,6,468.26,5.71,468.42,5.61Z"/><path class="cls-1" d="M102.11,214.38c3,.17,5.35.24,7.43.26C106,214.39,103.06,214,102.11,214.38Z"/><path class="cls-1" d="M473.48,103.59c-.08-1.45-.17-2.07-.26-2C473.29,103.06,473.37,103.9,473.48,103.59Z"/><path class="cls-1" d="M118.15,214.64l-1.58-.1c-2.17.07-4.37.13-7,.1A50.49,50.49,0,0,0,118.15,214.64Z"/><path class="cls-1" d="M131.7,5.14l-.77,0C130.86,5.14,131.2,5.15,131.7,5.14Z"/><path class="cls-1" d="M32.66.76c1,0,2.56,0,4.06,0C36,.7,34.77.7,32.66.76Z"/><path class="cls-1" d="M36.91,214.73c-2.23,0-.36.05,0,0Z"/><path class="cls-1" d="M26.09,213c.47,0,.83-.11.89-.21A2.31,2.31,0,0,1,26.09,213Z"/><path class="cls-1" d="M140.3,211.94h.19C139.83,211.86,140,211.87,140.3,211.94Z"/><path class="cls-1" d="M33.56,214.53c.83.05,1.8.1,2.84.13C35.94,214.63,35.08,214.58,33.56,214.53Z"/><path class="cls-1" d="M34,214.74l-1.94-.05C31.79,214.77,32,214.81,34,214.74Z"/><path class="cls-1" d="M40,214.7c-1.27,0-2.45,0-3.6,0,.44,0,.62.05.51.07Z"/><path class="cls-1" d="M313.87,4l-.48,0C311.15,4.12,312.13,4.09,313.87,4Z"/><path class="cls-1" d="M310.11,210l-.25,0,.33,0Z"/><path class="cls-1" d="M318.1,209.67a34,34,0,0,1-7.91.36l2.64,1.25Z"/><path class="cls-1" d="M468.75,55.74l-.39,5.61c-.64-6.77-.42-11.67-1-6.4,1.36.79.14,21.8,1.5,22.58l-.29,3.7c0-1.06-.06-1.23-.05-2.28-.65,7.19,1,5.34.79,14.61-.1,3.23-.3,5.48-.46,3.28l.33,7.2c0,2.09-.26,1.58-.23-.51l.11,11,0-.08c.21,1.56.54,5.11.68,6.84-.2,2.79-.15-1.4-.31-.68l.32,6.07c-.35,2.48-.69-2.56-.64-6.75-1.36,5.67.34,5-.45,17.28l-.17-5.73c-.77,3.7-.49,8.17-1,14.66.25-1.54,1.21-13,1.54-6.39a57.06,57.06,0,0,0,.13,7.86c-.49,0-.37,3.51-.34,7.86l-.64-.3c.19,4.7.51,4.33.8,7.09-.06,5.24-.56,6.33-1,7.56-.1,8.39.8-5.79.92,4.14-.25,7,0,11.87.4,20.22-.22,4.88-.39-.86-.58.89l.51,4.33c0,1.06-.17.72-.25.55.2,3.64.65.3.82,6a6.26,6.26,0,0,1,.16,2.14c0,.74-.12,1.6-.22,2.43l-1.94-.2-.47-.05-.82,0-1.66-.06a47,47,0,0,0-6.46.18c-1.75-.18.84-.39.31-.64-9.74.53-8.35.38-16.34,1.09l-6.81-.42c5,.48-1.39,1.05-7,1.51,1.78.24,3.29.44,4.31.54l-8.94.34c-1.08-.11-.18-.33,1.29-.59l-1.64.15c-3.2-.24-1.54-.61.75-1l3.22.39c2.21-.39,4.27-.82,3.81-1.19-.58.07-1.7.14-2.93.17.58-.1.95-.2.68-.26a16.16,16.16,0,0,0-2.7.24l-2-.72-.49.29-11.69-.45c-8.37.72-15.64,1.77-28.92,2.07,3.29-.52.71-.86.89-1.48,3.62.66,10.28-.27,17.16-.14-3.59-.07-2.8-.37-1.89-.47l-12.27.6c.28-.51-2.61-.38-5.81-.59,2.42,1-9.15.67-14.14,1-.31-.33.88-.68,7-.6-6.73-.75-8.69,1.18-15.29.54a13.12,13.12,0,0,0,2.88-.13c-3.47.3-12,.06-10-.23h1.48c-9.87-.11-30.06,0-31.53.85a5,5,0,0,1,1.89-1.2l-17.62,2.86c1.55-.73-4.41-2.47,3.78-2.88a95.26,95.26,0,0,0-10.22,0c1.61.11,4,1.06,1.81,1.13-6-.82-4.18-.44-11.6-1.13,2.41.15-.26,1.3-4.06,1.26.59-.17-.32-1.13,1.07-1.25l-9.46,1.13c2.36-.21.42-1-1.7-1.27,1,.22-8.17,0-10.69.09l4,.26c-10.68-.17-10.55,1.58-21.15,1.52,1.29-.23,3.17-1.43-2.22-1.57a109.65,109.65,0,0,1-20.3,3.21l-1.8-.33-7.19.38c4.48-.87,17-2.69,23.91-3.4-4-.26-1.12-.39-7.1-.36-2.11-.31,3.26-.47,5-.49l-13.93-.2c.62.68-10.66.68-10.12,1.24l15.13-.7c.61.67-8.75,1.91-18.62,1.79-2.52-.27,1.87-1.19,1.67-1.42a92.82,92.82,0,0,1-10.28.28l4.19-.36c-5.5-.25-9,.89-15.57.25-2.28,0-6.81-.87-7.2-.47,3.71.77,4.44,3.14,2,3.72-.8,0-12-.74-14.57-1.12-3.75-.6,5.64-1.43,2.44-1.95a14.15,14.15,0,0,1-3.08.49c-2.39-.16,1-.57-4.21-.49-.86.68-10.58-.06-2.46.58-5.08.19-5.4-.14-11.38-.11,1.9.44-5.36,1.5-10.46,1.69.3-.17-.84-.4-1.4-.5-10.43-.06-16-.37-25.75-.38-.9-.16-5.59-.36-3.6-.66a48.17,48.17,0,0,1-5.68.37c-5.81-.59,6.69-.09,2.26-.8-.37.4-7.76.55-12,.8,1.32.61,9.88.11,14.15-.13,0,.84-7.42,1.72-17.59,2.11-8.08.21-3.5-.54-4.91-.42-15.17-.15-12.92,1.47-25.53.86-5-.53-.22-1.07-1.33-1.45,6.58-.21,10.1.34,14.56.32l-5.49-.26a78.47,78.47,0,0,1,8.88-.16c-4.19-.48-25.63-.09-37.34-.54-2.08.18-5.67.37-4,.59l3.7-.08c3.4.44-7,.6-2.28.8a163.87,163.87,0,0,1-17.54.54l-1.31-.61A33.39,33.39,0,0,0,26,213c-2.92.27-10.73-.83-13.93,0l4.91.43-6.25.44L9.09,214l-.86.05-1,0c-1.78.06-3.64.1-5.52.13,0-1.09,0-2.18,0-3.28v-1.65l0-1.46a3.73,3.73,0,0,0-.08.45c0,.21-.05.39-.07.57,0,.35-.06.65-.09.91,0,.52,0,.89,0,1.25,0,.75,0,1.43-.12,3.59l2.59.24c-1.5-.22-.5-.33,1.48-.38l3.16,0h2.72c3.67,0,7.06,0,4-.46,4.52.82,7.82.35,13.73,1-.18-.2-2.09-.39,3.12-.29a11.3,11.3,0,0,1,1.14-.17h.35l-.29,0c.23,0,.25,0-.1,0a19.55,19.55,0,0,1-2.66-.31c2.59-.46,10.86-.45,13.66-.69,3.09.1-1.29.23.4.45l4.18-.36c.41.45,8.2.75.93,1l6.55,0a118.84,118.84,0,0,0,12.42.16c3.09.1,7.81-.5,5.12-.14L84,214.36l.09.11c10.13.06,20.86-.74,32.44.07,3.42-.12,6.94-.25,12.65-.13l1.11.39c4.38-.13,13.15.39,15,0,4.72,1,21.25.22,29,.41l.29-.51c5.3,0,10.38-.11,17-.32l-.41-.45c5.68-.36,14.59.32,23.57.28a24,24,0,0,1-4.5,0c10.72,1,22.62-.74,32.35,0a40.69,40.69,0,0,1,5.88,0l-.61,0h1l3.37.23c-1-.1-2-.19-2.84-.24,1.87,0,4.71-.06,7.49-.17l1.18.48.64,0c2.73.18,2.19-.22.74-.59,1.4-.07,2.68-.17,3.67-.29,2.22.78,7.29-.26,10.32.57,1.87-.4,14-.3,15.45-1.15.09.11.91.16-.59.17a80.85,80.85,0,0,0,9-.05l1.32.61,6.76-.82c4.11.37,5.81.59,1.73,1.06,9.85-.72,8-.27,16.37-1l-.4.4c3,0,7.78-.55,9.58-.22,6.7.75,33.15.1,50.35.8-3.34-1.16,8,.52,8.67-.38,1,.27,3.4.43.62.67,8.77-.27,13.18.44,19.24-.32,1,.27-1.87.4-1,.56a19.52,19.52,0,0,1,3.7-.07c.89.16-1.28.23-2.67.35,9,0,9.87-.9,10.52-1.69a37,37,0,0,0,10.09-.2c1.58.26,4.22.53-1.35.63,3.14,0,19.15.38,19.46-.26a37.57,37.57,0,0,0,5.21,0l7.33.06,8.14,0-2.59-.11a17.61,17.61,0,0,1,3.72-.39c0-1.27,0-2.63.07-4.28,0-.69,0-1.44.06-2.24s0-1.61,0-2.5l.08.16c.55-12.77-.27-5.51.37-18.11l-.48.69c-1-1.18.6-11.16.21-18.47l-.28,2.64c-.35-4,1.41-11.16,1.54-15.17.09-.87.14,1.38.21,2.6.61-10.49-.63-1.36-.78-9.18.34-1.44.86,1.86.93-3.4.27-2.62-1.1-15.27-.45-22.45-.26,1.58-.52,3.15-.72-.48-.09-5.57,1-15.05.16-20.08.07-.71.14-1,.21-1-.22-4.26-.36-13.83-.8-16.4,1.65-3.93-.81-26.46.72-26.36l-.08-13.09.15.34a87.13,87.13,0,0,0-.63-14.27c.11-1.93.25-.52.33-.36a167.84,167.84,0,0,0-.52-23.7l.5-1.06c0-.13,0-.51,0-.85s0-.79,0-1.26c0-1,0-2.15,0-3.52L459.61.71c-4.55-.08-9.49-.1-14,.12a3.68,3.68,0,0,1,1.32-.22c-13.5.58-32.3-1.38-37.25.43l-8.9.44c11.52.14-1.72.78,3,1.08-4.53.11-11.71-.54-6.14-.63l.87.09c2-.94-14.32-.34-14-1-22.66.05-44.76-.47-66-.51l2.45.73-7.41,0c-1.94-.17-2.61-.58,2.68-.54a36,36,0,0,0-9,.5c-10.34-.29,4.05-.85.87-.87l-4.31.06,1,.08A65.9,65.9,0,0,1,294.59,1c-4-.15-2.06-.45-3.64-.48a11.08,11.08,0,0,0-2.43,0L279.19.47l3.73.58c-4.13.28-8.77,0-4.46.62-6.32-1-34.81-.36-38.69-.68-5.79.43-11.51.42-18.59.37,1.76.12,2.81.77-3.3.69C220.12.71,206.7,1.47,201.76.5c4.41.64-17.37.16-10.44,1.07-5.1-.11-.31-.5-4.18-.82C175,1.27,160.4.41,145.4.59c-.23.17,2.28.44-.93.7L136.55.42c-3,.08-2.73,1-8.14.4.76.15,1.9.37-.08.43C99,.39,68.3,2,38.46.34c4,.34,1.35.37-1.74.39,2,.08,0,.43.35.67L24.58.74c-2.27.66-13.39,0-14.69.67l3.95-.11C8.58,2.05,21.2,3,20.43,3.92,26.32,3.07,36,5.17,45.63,4c2.13.2-1.82.31-.68.53a55.33,55.33,0,0,1,10.89-.31l-.62.1c15.4-.1,22,.3,39.3.57l-1.28-.47c3.72.06,4.5.21,6.24.33,4.27-.72-10.44,0-6.55-.83,4.93,1,26.22,0,29.55,1.11,5.72,0-1.68-.55,4-.54l1.52.29,1.44-.38c3.75.06,5.64.43,5.79.69-.91,0-2.59.07-3.57.09,4.87.35,13.72-.12,15.38,0L141.59,5c15.61-.28,34.67.11,49.75-.49l-1.15-.22c11.52-.42,9.23.24,21.87,0l-.46,0C214.13,4.12,217.51,4,221,4c-3.19.26,6,.51,1.82.8,12.49-.44,6.18-.35,14.43-1.18l1.9.37a59.18,59.18,0,0,1,9.36-.61c-5.18.32,4,.57-1.77,1,13.25.81,19.67-.82,25.75.37,6.09-1-11.46-.57-8.06-.79-2.85-.34,5-.77,9.18-.67s7.2,1.32,17.85,1.3c-1.06,0-1.13.07-2.19.07,4,.26,7.81-.36,12.7.07,2.74-.63,6.34,0,7.13-.76l-9.76.18C304.84,4,310,3,319.16,3.49c-.71.16-3.43.37-5.29.49,2.67.23,5.13-.16,7.9.08-.79.79-11.87.17-17.8.78,2.86.33,11.22-.58,8.24.28,4.28-1.09,10.49.14,17.7-.69l-.47.47c1.14-.07,3.5-.3,5.6-.29l-3.8.62c5.84-.53,11.25.46,16.85.17-11.72,0-2.63-.57-7.59-.92,14.46-.63,8.32,1.25,24.51,1-2.19.07-8.23-.29-4.8-.51,3.08.1,7.15.28,9,.53,10.73-.1-1.64-.49,2.92-.78,3.65.58,5.27-.23,10-.42l0,.48c12.22.31,3.24-1,14.24-.63l-4.65.67,5.74-.17-1.19.55a122.14,122.14,0,0,1,14.3-.15c-1.42-.34.8-.87,6.22-.89,3.69.29-2.07.46,5.6.39a20,20,0,0,1-7,.24c-.34.15-1.71.3-2.06.45,4,.33,10,.08,12.77.07-1.07,0-2.34,0-3-.11l11.12-.67c1.76.18.37.33-1,.47,2.25,0,3.81-.27,7.13-.31-.86.39-.66.79-5.35,1l10.6-.44c.71.17,5.44.47,4.07.62,2.85.11,6.33-.07,10.05-.24,1.85-.09,3.77-.18,5.7-.23l2.2-.05a7.39,7.39,0,0,1,.84,0l0,.22c.08,0,.15.25.21.81-.09,3.59-.17,7-.25,10.54s0,7.41.22,11.75L468,33.64c.16,6.8.89-6.67,1.15,4.65.23,8-.6,3-.79,5.8a108.17,108.17,0,0,1,.5,18.27C468.7,59.93,468.8,58,468.75,55.74Zm.31,83.83c-.1-1.63-.41-4.86-.12-6C469.49,135.37,469.22,136.8,469.06,139.57ZM416.26,211a27.32,27.32,0,0,1,5.18.1C419.91,211.12,418.18,211.1,416.26,211Zm-355,3.36.17,0C65.08,214.5,63.79,214.43,61.28,214.34Zm-7.52-.21c-.76.06-.71.13-.39.2a29.23,29.23,0,0,1,4.14-.1A15.12,15.12,0,0,0,53.76,214.13ZM290.12.73l1.46.13C288.27,1,289.2.87,290.12.73Z"/><path class="cls-1" d="M430.71,210.32a1.25,1.25,0,0,1,.69.26C432,210.5,432.05,210.4,430.71,210.32Z"/><path class="cls-1" d="M468.5,5.69V5.61s-.05,0-.08,0Z"/><path class="cls-1" d="M170.3,210a28.7,28.7,0,0,1,3,.24C173.37,210.17,172.67,210.07,170.3,210Z"/><path class="cls-1" d="M13.89,215l4.82-.13a42.34,42.34,0,0,1-4.34-.16C14.47,214.77,15.39,214.94,13.89,215Z"/><path class="cls-1" d="M3.9,180.2c-.06-.7,0-1.49-.07-2.19l-.22.2C3.63,181.21,3.81,183.3,3.9,180.2Z"/><path class="cls-1" d="M9.43,213.34a3.83,3.83,0,0,0-1.88-.27c-1.26,0-2.93,0-4.81.05,0-.5,0-1,0-1.54v.77c-.21-.32-.32.13-.36,1.16.75,0,1.95,0,3.31,0l2.12-.06Z"/><path class="cls-1" d="M2.7,210.57c0-.68,0-1.36,0-2s0-1.11,0-1.64c-.12-.2-.13.12-.1.71C2.61,208.34,2.65,209.42,2.7,210.57Z"/><path class="cls-1" d="M44.21,214.4c-1.6-.11-1,.51-1.91.35C40.52,215.27,53,214.12,44.21,214.4Z"/><path class="cls-1" d="M6.69,212c.35.16.8.33,1.21.5l1.89-.41Z"/><path class="cls-1" d="M33.35,212.37l-5.4-.14c.09.09-.6.14-1.44.18C29.83,212.42,33.48,212.52,33.35,212.37Z"/><path class="cls-1" d="M26.51,212.41c-1.73,0-3.38,0-4.34.08C23.1,212.48,25.12,212.47,26.51,212.41Z"/><polygon class="cls-1" points="14.07 211.86 15.66 211.96 19.47 212 14.07 211.86"/><path class="cls-1" d="M91.33,212.47l5.89-.14c.6-.17-1-.28-3.19-.21C92.62,212.24,90.43,212.3,91.33,212.47Z"/><path class="cls-1" d="M73.53,211.1a13.15,13.15,0,0,1,2.6.38l.18-.62Z"/><path class="cls-1" d="M90.7,211c.59-.17,8.54-.49,1.08-.45C91.18,210.67,85.29,210.81,90.7,211Z"/><polygon class="cls-1" points="179.41 211.74 177.91 211.75 178.12 212.76 179.41 211.74"/><path class="cls-1" d="M257.59,209.3c-7-.24-1.66.63-8,.33-1.64.24,5.15.24,3.47.45C257.31,209.83,259.52,210,257.59,209.3Z"/><path class="cls-1" d="M253.1,210.08l-2.15.16C252.17,210.17,252.75,210.13,253.1,210.08Z"/><polygon class="cls-1" points="16.22 0.21 11.73 0 14.63 0.34 16.22 0.21"/><path class="cls-1" d="M7.61,1,6.55.32,3.86.91A25.48,25.48,0,0,1,7.61,1Z"/><path class="cls-1" d="M467.76,152l.15.34a21.15,21.15,0,0,0,.21-3.85Z"/><polygon class="cls-1" points="468.24 91.19 468.23 92.24 468.81 90.28 468.24 91.19"/><path class="cls-1" d="M467.49,40.13c0,2.08.11,4.53.08,6.62C467.47,42.21,468.22,39.56,467.49,40.13Z"/></svg>