<svg id="Camada_1" data-name="Camada 1" xmlns="http://www.w3.org/2000/svg" viewBox="0 0 112.59 29.99"><defs><style>.cls-1{fill:#878787;}</style></defs><rect class="cls-1" x="0.79" y="0.72" width="111.37" height="28.44" rx="14.22"/><path class="cls-1" d="M14.7.13C15.09.12,15,0,15,0,14.35.06,14.72.16,14.7.13Z"/><path class="cls-1" d="M8.56,1.87l.08-.09c-.26.18-.54.32-.79.53A6.46,6.46,0,0,1,8.56,1.87Z"/><path class="cls-1" d="M3.88,5.51A31.88,31.88,0,0,1,6.25,3.33l.16-.07.3-.4A20.64,20.64,0,0,0,3.88,5.51Z"/><path class="cls-1" d="M1.76,8c.17-.14-.3.64.4-.65l-.09.11C2,7.54,1.9,7.68,1.76,8Z"/><path class="cls-1" d="M2.07,7.42c.34-.55-.26.33,0,0Z"/><path class="cls-1" d="M.88,10.14l.23-.82c-.1.15-.37.86-.3.59C.54,10.74.65,10.58.88,10.14Z"/><path class="cls-1" d="M.77,10.94l.08-.43A1,1,0,0,0,.77,10.94Z"/><path class="cls-1" d="M1.12,9.62l-.27.89a.46.46,0,0,0,.13-.4C1,10.19,1,10,1.12,9.62Z"/><path class="cls-1" d="M1.33,9.14c.24-.41.52-1,.21-.16C2.22,7.53,2,7.67,1.33,9.14Z"/><path class="cls-1" d="M3.83,5.86c.14-.15.3-.28.44-.43L4.59,5C4.43,5.22,3.75,5.84,3.83,5.86Z"/><path class="cls-1" d="M0,15.33c0,.05.09-.29.13-.35v-.63c0,.17,0,.39-.07.59A1.08,1.08,0,0,1,0,15.33Z"/><path class="cls-1" d="M.13,15l.11.93C.21,15.08.17,14.93.13,15Z"/><path class="cls-1" d="M.92,11.14a10.59,10.59,0,0,1,.34-1.48L1,10.53l-.16.89Z"/><polygon class="cls-1" points="0.52 18.88 0.3 18.38 0.66 19.27 0.52 18.88"/><path class="cls-1" d="M1.33,21.12c-.24-.33.12.54-.1.18a7.41,7.41,0,0,0,.92,1.45A6.18,6.18,0,0,1,1.33,21.12Z"/><path class="cls-1" d="M2.67,23.41c-.17-.2-.33-.43-.52-.66A5.59,5.59,0,0,0,2.67,23.41Z"/><path class="cls-1" d="M.41,17.48a1.61,1.61,0,0,0,0,.74c0-.13,0-.25,0-.38S.43,17.6.41,17.48Z"/><path class="cls-1" d="M.46,17.83h0c.08.39.16.65.18.77C.62,18.51.55,18.28.46,17.83Z"/><path class="cls-1" d="M.4,17.39v.09A.25.25,0,0,0,.4,17.39Z"/><path class="cls-1" d="M.38,13.48c0,.55,0,1.67.18.59C.51,13.68.43,14.3.38,13.48Z"/><path class="cls-1" d="M.46,16.92a5.28,5.28,0,0,1-.07-1s-.06.2-.11-.07A7.29,7.29,0,0,0,.46,16.92Z"/><polygon class="cls-1" points="0.56 17.39 0.46 16.92 0.51 17.28 0.56 17.39"/><path class="cls-1" d="M1.87,21.9c.24.36.5.75.78,1.2-.26-.51-.61-1-.82-1.49C1.76,21.55,1.6,21.36,1.87,21.9Z"/><path class="cls-1" d="M1.06,20l0,.08C1.08,20,1.07,20,1.06,20Z"/><polygon class="cls-1" points="6.2 26.83 6.14 26.77 6.12 26.77 6.2 26.83"/><path class="cls-1" d="M1.8,21.51a4.13,4.13,0,0,0-.43-.81l.46.91S1.87,21.63,1.8,21.51Z"/><path class="cls-1" d="M3.59,24.54c-.14-.18-.26-.4-.41-.62A2.86,2.86,0,0,0,3.59,24.54Z"/><path class="cls-1" d="M1.12,20.2l0-.06C1.12,20.28,1.12,20.26,1.12,20.2Z"/><path class="cls-1" d="M1.12,20.2c.09.2.17.35.25.5-.1-.23-.19-.45-.27-.65C1.11,20.1,1.11,20.16,1.12,20.2Z"/><path class="cls-1" d="M7.85,27.11a1.84,1.84,0,0,1-.67-.27A6.37,6.37,0,0,1,6.11,26c-.73-.54-.53.12,0,.75.06,0,.06,0,.9.46-.28-.21-1.64-1.37-1-.95a15.15,15.15,0,0,1,1.31,1c-.19-.19.17,0,.57.16s.84.29.75.16a7.28,7.28,0,0,1-1-.46S8.1,27.29,7.85,27.11Z"/><path class="cls-1" d="M4.74,25.56a1.93,1.93,0,0,1-.3-.27c.31.34.53.57.93,1.05s.69.42.75.43a15.44,15.44,0,0,1-1.5-1.29Z"/><path class="cls-1" d="M3.27,23.93c.25.2.93.87.63.36a12.23,12.23,0,0,0-1-1.11c1.15,1.49-.38-.4.39.73-.23-.29-.45-.55-.62-.81.17.29.37.56.53.82l0,0h0c0-.08-.05-.11,0,0l0,0,.08.05c.31.45,0,.08-.08-.05h0a15.64,15.64,0,0,0,1.28,1.41C4.2,25,3.8,24.65,3.27,23.93Z"/><path class="cls-1" d="M.76,15.06c0,.06,0,.06,0,.06S.77,15.28.76,15.06Z"/><path class="cls-1" d="M.73,15.82a3,3,0,0,1-.08-.68c0-.38,0,0,.09,0C.69,14.86.69,14.2.6,15l0,.13c0,.74-.06,1.72-.07,1.59A9,9,0,0,0,.73,15.82Z"/><path class="cls-1" d="M1.43,20.07a10.57,10.57,0,0,0,.67,1.4l-.26-.75,0,.06C1.48,20,1.51,20.15,1.43,20.07Z"/><path class="cls-1" d="M6.31,27l-.24,0a9.37,9.37,0,0,0,.85.4A4.72,4.72,0,0,1,6.31,27Z"/><polygon class="cls-1" points="8.06 28.07 7.95 28.12 8.47 28.31 8.06 28.07"/><path class="cls-1" d="M111.54,15.53v-.42C111.53,15.31,111.53,15.44,111.54,15.53Z"/><path class="cls-1" d="M111.05,18.59l0,.09C111.09,18.53,111.08,18.47,111.05,18.59Z"/><path class="cls-1" d="M56.65,29.79c.65.09,1.37.23,1.3.12l-.2-.11A9.59,9.59,0,0,1,56.65,29.79Z"/><path class="cls-1" d="M89.9,29.14l-.19,0-.44.1Z"/><path class="cls-1" d="M90.36,28.69l.86.07C91,28.74,90.75,28.71,90.36,28.69Z"/><path class="cls-1" d="M102.84,2.36l-.51-.07C103.06,2.56,102.76,2.39,102.84,2.36Z"/><path class="cls-1" d="M28.34,29.76c.56,0,1,.06,1.4.06A4.75,4.75,0,0,0,28.34,29.76Z"/><path class="cls-1" d="M112.57,16.9c0-.28,0-.4,0-.4C112.54,16.79,112.54,17,112.57,16.9Z"/><path class="cls-1" d="M31.37,29.82l-.3,0c-.41,0-.83,0-1.33,0A6.83,6.83,0,0,0,31.37,29.82Z"/><path class="cls-1" d="M39.11,1.34H39S39,1.34,39.11,1.34Z"/><path class="cls-1" d="M20.44.25h.77A7,7,0,0,0,20.44.25Z"/><path class="cls-1" d="M16.05,29.84c-.42,0-.07,0,0,0Z"/><path class="cls-1" d="M14,29.36a.31.31,0,0,0,.18,0A.4.4,0,0,1,14,29.36Z"/><path class="cls-1" d="M35.54,29.15h0C35.45,29.13,35.47,29.13,35.54,29.15Z"/><path class="cls-1" d="M15.42,29.8l.53,0Z"/><path class="cls-1" d="M15.5,29.85h-.37C15.08,29.85,15.13,29.87,15.5,29.85Z"/><path class="cls-1" d="M16.63,29.84h0Z"/><path class="cls-1" d="M73.46,1.05h-.09C73,1.09,73.13,1.08,73.46,1.05Z"/><path class="cls-1" d="M67.56,28.66h0Z"/><path class="cls-1" d="M69.06,28.58a4.93,4.93,0,0,1-1.49.09l.5.31Z"/><path class="cls-1" d="M109.86,8.41c.13.31.24.63.36.95-.64-1-1.12-1.75-.73-.91.1,0,.27.19.44.52a6.86,6.86,0,0,1,.57,1.21c.38.9.55,1.86.76,1.89a4.92,4.92,0,0,1,0,.67c0-.19,0-.22-.07-.41,0,1.3.42.91.45,2.61-.05.59-.12,1-.14.59a9.51,9.51,0,0,1,0,1.31c-.06.38-.1.27,0-.1l-.14,1-.23,1h0a7,7,0,0,1-.24,1.23c-.22.46.06-.25,0-.14a6.47,6.47,0,0,1-.35,1.05c-.29.36.09-.48.32-1.2a3.17,3.17,0,0,0-.52,1,5.35,5.35,0,0,1-1,1.75l.49-.9a5.12,5.12,0,0,0-.71.88,13.28,13.28,0,0,1-1,1.13c.23-.15,1.62-1.69,1-.68-.24.25-.47.63-.86,1.14-.11-.09-.46.44-1.05,1l-.07-.16c-.59.6-.48.63-.84,1-.76.57-1,.56-1.25.58-1.29.76,1-.37-.51.58a24.79,24.79,0,0,1-3.38,1.41c-.87.17.13-.13-.19-.1a5.05,5.05,0,0,1-.74.27c-.2,0-.14,0-.11,0-.65.13,0,.19-1.07.33a3.84,3.84,0,0,1-1.36,0,9.85,9.85,0,0,0-2.17,0c-.33,0,.16-.1.06-.16-1.83.13-1.57.1-3.08.27l-1.28-.1c.94.12-.27.26-1.32.38l.81.13L89,29.36c-.21,0,0-.08.24-.15l-.31,0c-.6-.06-.29-.15.14-.24l.61.1c.41-.1.8-.21.72-.3a5.3,5.3,0,0,1-.56,0c.11,0,.18-.05.13-.07a3.41,3.41,0,0,0-.51.06l-.38-.17-.09.07-2.21-.12a49.75,49.75,0,0,1-5.45.52c.62-.13.13-.21.17-.37a27.43,27.43,0,0,0,3.23,0c-.67,0-.52-.09-.35-.12l-2.32.15c.06-.13-.49-.1-1.09-.15.46.25-1.73.17-2.67.25-.06-.09.17-.17,1.32-.15-1.27-.19-1.64.29-2.88.13a1.88,1.88,0,0,0,.54,0c-.66.07-2.26,0-1.88-.06h.28a38.47,38.47,0,0,0-5.95.21s.25-.26.36-.3l-3.32.72c.29-.19-.83-.62.71-.73a15.45,15.45,0,0,0-1.93,0c.31,0,.76.27.34.28-1.13-.2-.78-.1-2.18-.28.45,0-.05.33-.77.32.11,0-.06-.28.2-.31L61.39,29c.45-.05.08-.24-.32-.32.19.05-1.54,0-2,0l.76.07c-2-.05-2,.39-4,.38.25-.06.6-.36-.41-.4a15.79,15.79,0,0,1-3.83.81l-.34-.08-1.36.09c.85-.22,3.22-.67,4.51-.85a5.48,5.48,0,0,0-1.34-.09c-.4-.08.62-.12,1-.12l-2.63,0c.12.17-2,.17-1.91.31l2.86-.18c.11.17-1.65.48-3.52.45-.47-.07.36-.3.32-.35a12.85,12.85,0,0,1-1.94.06l.79-.09a27.22,27.22,0,0,1-2.93.07c-.43,0-1.29-.22-1.36-.12.7.19.84.79.37.93-.15,0-2.26-.18-2.75-.28-.71-.15,1.06-.36.46-.49a1.7,1.7,0,0,1-.58.12c-.45,0,.19-.14-.79-.12-.17.17-2,0-.47.15-1,.05-1,0-2.14,0,.36.11-1,.37-2,.42,0,0-.16-.1-.27-.12-2,0-3-.1-4.85-.1-.17,0-1.06-.09-.68-.16a6.69,6.69,0,0,1-1.07.09c-1.1-.15,1.26,0,.42-.2a15.55,15.55,0,0,1-2.26.2,11.33,11.33,0,0,0,2.66,0c0,.21-1.4.43-3.31.53-1.53.05-.66-.14-.93-.11-2.86,0-2.44.37-4.81.22-.94-.14,0-.27-.25-.37,1.24,0,1.9.09,2.74.08l-1-.06a10.19,10.19,0,0,1,1.67,0c-.79-.12-4.83,0-7-.14-.39.05-1.07.1-.75.15l.7,0c.64.11-1.31.15-.43.2a11.74,11.74,0,0,1-3.35,0l-.23-.19a3.53,3.53,0,0,0,1.24.19c-.57.06-2-.45-2.63-.44.3.1.59.24.9.32-.48-.05-1-.15-1.59-.24A9.14,9.14,0,0,1,9,28.41c.44.38.26.1,1,.57-.31-.25.4.09,1.11.24s1.34.33.78.08a10.8,10.8,0,0,0,2.64.58c0-.05-.4-.11.61,0l.22-.05h0a1.79,1.79,0,0,1-.5-.09c.5-.1,2.05-.11,2.58-.16s-.25.06.07.11l.79-.09c.08.11,1.55.19.18.25h1.23a16.91,16.91,0,0,0,2.34,0c.59,0,1.47-.13,1,0l1.93-.07,0,0c1.91,0,3.93-.19,6.12,0,.64,0,1.31-.07,2.38,0l.21.09c.83,0,2.48.1,2.84,0,.89.26,4,.06,5.46.1l0-.12c1,0,2,0,3.2-.08l-.08-.12c1.07-.09,2.76.08,4.45.07a3.79,3.79,0,0,1-.85,0c2,.25,4.27-.19,6.1,0a5.83,5.83,0,0,1,1.11,0H56l.64.06-.54-.06c.35,0,.89,0,1.41-.05l.23.12h.12c.51,0,.41-.06.14-.15.26,0,.5,0,.69-.07.42.19,1.37-.07,1.94.14a24.47,24.47,0,0,0,2.92-.29s.17,0-.11,0a10.56,10.56,0,0,0,1.69,0l.25.16,1.27-.21c.78.09,1.1.15.33.27,1.85-.19,1.5-.07,3.08-.25l-.07.1a13,13,0,0,1,1.8-.06c1.27.19,6.25,0,9.5.2-.63-.29,1.5.13,1.63-.09.19.07.64.11.12.17a32.88,32.88,0,0,0,3.63-.09c.19.07-.36.1-.19.15a2.68,2.68,0,0,1,.7,0c.17,0-.24.06-.5.09,1.69,0,1.86-.23,2-.43a5.1,5.1,0,0,0,1.9-.05c.3.07.8.14-.25.16A24.69,24.69,0,0,0,94,29.49a4.59,4.59,0,0,0,1,0c1.32,0,1.44,0,2.74,0l-.36,0a11.73,11.73,0,0,1,2.16-.15l0,0a6.84,6.84,0,0,0,1.73-.26,4.5,4.5,0,0,1,.49-.13c.24-.06.61-.13,1.19-.31l-.17-.07c.12-.3,2.07-.61,3.2-1.52l-.47.21a2.61,2.61,0,0,1,.58-.33c.21-.13.46-.25.7-.37a5.49,5.49,0,0,0,1.29-.77c.14-.1-.18.21-.35.38,1.62-1.29.13-.26,1.15-1.39.25-.16-.09.41.62-.35a9.37,9.37,0,0,0,1-1.57c.43-.76.79-1.65,1.15-2.26-.18.26-.36.51-.13-.16a10,10,0,0,0,1-3.75c0-.13.06-.18.08-.19,0-.41,0-1.09,0-1.72a9.1,9.1,0,0,0-.21-1.45,3.05,3.05,0,0,0,0-1.13,15.51,15.51,0,0,0-.46-1.66c-.24-.55-.44-1.08-.61-1.45s-.27-.64-.18-.68a9.33,9.33,0,0,0-.63-1.11,8.14,8.14,0,0,0-.72-1l.07,0a7.71,7.71,0,0,0-1.16-1.35,5,5,0,0,0-.78-.61c-.26-.27,0-.11,0-.11a8.92,8.92,0,0,0-1.08-1,6.66,6.66,0,0,0-.82-.58,9.86,9.86,0,0,0-2-.9l-.14-.2-.74-.3A12,12,0,0,0,101.82.8a8.74,8.74,0,0,0-1.71-.4A9.23,9.23,0,0,0,98.3.28a.84.84,0,0,1,.26,0c-2.58.08-6.1-.36-7,.08L89.84.43c2.17,0-.32.19.57.27-.85,0-2.21-.14-1.16-.16l.17,0c.38-.23-2.7-.08-2.64-.24C82.5.33,78.34.2,74.33.19l.47.18H73.4c-.37,0-.49-.14.5-.13a5.06,5.06,0,0,0-1.7.12c-2-.07.77-.21.17-.21h-.81l.18,0a9.69,9.69,0,0,1-1.91.15c-.76,0-.39-.12-.69-.12,0,0-.1,0-.46,0l-1.76,0,.7.15c-.77.07-1.65,0-.84.15C65.59.22,60.22.38,59.49.31,58.4.41,57.32.41,56,.4c.33,0,.53.19-.62.17.42-.34-2.11-.15-3-.39.83.16-3.27,0-2,.27-1,0-.06-.13-.79-.2-2.28.12-5-.09-7.86,0-.05,0,.43.12-.18.18L40,.16c-.56,0-.52.26-1.54.1.15,0,.36.1,0,.11C32.94.16,27.16.54,21.53.14c.76.09.26.1-.32.1.37,0,0,.11.06.17L18.92.24c-.43.17-2.53,0-2.77.17l.74,0c-1,.19,1.39.42,1.24.66,1.11-.22,2.93.31,4.75,0,.41.05-.34.07-.12.13a8.32,8.32,0,0,1,2-.08l-.12,0c2.91,0,4.15.07,7.41.14l-.24-.12A11.59,11.59,0,0,1,33,1.24c.8-.18-2,0-1.24-.21.93.24,4.95,0,5.57.27,1.08,0-.31-.13.77-.13l.28.07.27-.09c.71,0,1.07.11,1.09.17-.17,0-.48,0-.67,0,.92.09,2.59,0,2.9,0l-1-.05c2.94-.06,6.53,0,9.38-.12l-.22,0c2.17-.11,1.74.06,4.12,0h-.08a15.34,15.34,0,0,1,1.76-.07c-.6.06,1.14.12.35.2A13.57,13.57,0,0,0,59,1l.36.09A9.09,9.09,0,0,1,61.13.91c-1,.08.76.14-.33.25,2.49.2,3.71-.21,4.85.09,1.15-.26-2.16-.14-1.52-.2-.54-.08,1-.19,1.73-.16a31,31,0,0,0,3.37.32l-.41,0c.75.06,1.47-.09,2.39,0,.52-.15,1.2,0,1.35-.18l-1.85,0A24.3,24.3,0,0,1,74.46.93a9.45,9.45,0,0,1-1,.12c.5.06,1,0,1.49,0-.15.2-2.24.05-3.36.2.54.08,2.12-.15,1.56.07.8-.27,2,0,3.33-.18l-.09.12c.22,0,.67-.07,1.06-.07l-.72.15c1.1-.13,2.13.12,3.18,0-2.21,0-.49-.14-1.43-.23,2.73-.16,1.57.31,4.62.25-.41,0-1.55-.07-.9-.12a17,17,0,0,1,1.7.13c2,0-.31-.12.55-.2a6.57,6.57,0,0,0,1.88-.1v.12C88.64,1.34,87,1,89,1.1l-.87.17,1.08-.05L89,1.36a17.29,17.29,0,0,1,2.69,0c-.27-.09.15-.22,1.17-.23.7.07-.39.12,1.06.1a2.78,2.78,0,0,1-1.31.06c-.07,0-.33.07-.39.11a21.87,21.87,0,0,0,2.41,0,4.34,4.34,0,0,1-.57,0l2.1-.16c.33,0,.06.08-.19.11.42,0,.71-.07,1.34-.08-.16.1-.12.2-1,.25.66,0,1.35-.09,2-.09.13.05,1,.17.72.19a12.19,12.19,0,0,1,3.88.78,1.53,1.53,0,0,1,.49.14,22.51,22.51,0,0,1,3.41,2.16l.53.72c.88.85-.66-1,.78.41,1,1.06.23.51.52.93a7,7,0,0,1,1.78,2.75C110.18,9.09,110.06,8.77,109.86,8.41Zm-.72,14.36a6.67,6.67,0,0,1,.56-.94A1.86,1.86,0,0,1,109.14,22.77ZM87.57,28.91a4.13,4.13,0,0,1,1,0A8.29,8.29,0,0,1,87.57,28.91Zm-66.93.84h0C21.36,29.79,21.12,29.77,20.64,29.75Zm-1.42-.06c-.14,0-.13,0-.07,0a4.09,4.09,0,0,1,.78,0A2.34,2.34,0,0,0,19.22,29.69ZM69,.24l.28,0C68.63.31,68.81.27,69,.24Z"/><path class="cls-1" d="M90.3,28.74c.08,0,.11,0,.13.07S90.55,28.76,90.3,28.74Z"/><path class="cls-1" d="M102.93,2.37h0Z"/><path class="cls-1" d="M41.2,28.67a5.2,5.2,0,0,1,.56.06S41.64,28.68,41.2,28.67Z"/><path class="cls-1" d="M11.57,29.49a5.94,5.94,0,0,0,.94.15,2.75,2.75,0,0,1-.83-.2S11.86,29.56,11.57,29.49Z"/><path class="cls-1" d="M5,25l-.29-.29,0,.07C5,25.18,5.37,25.38,5,25Z"/><path class="cls-1" d="M10.83,28.88a4.84,4.84,0,0,0-1.22-.48l.11,0C9.49,28.5,10.16,28.72,10.83,28.88Z"/><path class="cls-1" d="M9.47,28.35a5.38,5.38,0,0,1-.55-.24C8.83,28.12,9.13,28.23,9.47,28.35Z"/><path class="cls-1" d="M17.43,29.76c-.31,0-.19.13-.37.09C16.73,30,19.08,29.69,17.43,29.76Z"/><path class="cls-1" d="M10.44,28.4l.17.2H11A5,5,0,0,1,10.44,28.4Z"/><path class="cls-1" d="M15.38,29.26c-.34,0-.68,0-1-.07,0,0-.12,0-.28,0A8.09,8.09,0,0,0,15.38,29.26Z"/><path class="cls-1" d="M14.08,29.22l-.82,0A4.93,4.93,0,0,0,14.08,29.22Z"/><path class="cls-1" d="M11.78,28.74l.28.1c.24.06.48.09.71.13A6.77,6.77,0,0,1,11.78,28.74Z"/><path class="cls-1" d="M26.31,29.28l1.11,0c.11,0-.19-.06-.6,0S26.14,29.24,26.31,29.28Z"/><path class="cls-1" d="M23,28.94a1.86,1.86,0,0,1,.49.09l0-.15Z"/><path class="cls-1" d="M26.19,28.9c.11,0,1.61-.12.2-.11C26.28,28.83,25.17,28.87,26.19,28.9Z"/><polygon class="cls-1" points="42.91 29.1 42.63 29.1 42.67 29.35 42.91 29.1"/><path class="cls-1" d="M57.66,28.49c-1.32-.06-.32.16-1.51.08-.3.06,1,.06.66.11C57.6,28.62,58,28.66,57.66,28.49Z"/><path class="cls-1" d="M56.81,28.68l-.41,0A3.34,3.34,0,0,0,56.81,28.68Z"/><polygon class="cls-1" points="17.34 0.11 16.49 0.06 17.04 0.14 17.34 0.11"/><path class="cls-1" d="M15.72.3l-.2-.16L15,.28A4.09,4.09,0,0,1,15.72.3Z"/><path class="cls-1" d="M107.47,24.28l0,.07a2.27,2.27,0,0,0,.5-.47Z"/><polygon class="cls-1" points="111.39 14.52 111.39 14.71 111.52 14.35 111.39 14.52"/><path class="cls-1" d="M108,6.31c.25.26.5.61.73.9a6.51,6.51,0,0,1-.52-.77C108.11,6.28,108.05,6.21,108,6.31Z"/></svg>