<svg id="Layer_1" data-name="Layer 1" xmlns="http://www.w3.org/2000/svg" viewBox="0 0 823.64 661.99"><defs><style>.cls-1{fill:#c0272d;}</style></defs><path class="cls-1" d="M581.67,244.13c-.2,37.07-10.91,70.93-30.06,102.34-8.93,14.65-17.68,29.42-27,43.8-21.23,32.65-35.74,68.32-48.43,104.93-7.26,20.94-16.38,41.18-28.33,59.95-15.23,23.92-36.71,39.19-65,42.78-37.44,4.75-71.11-16-86.46-51.86-8.57-20-9.39-40.32-3.08-61,2.22-7.3,8-11.45,15.29-11,4.89.3,6.94,2.53,6.37,7.46a72.14,72.14,0,0,1-1.89,9.29c-4.08,16.16-2.24,31.82,4.47,46.84,8.46,19,24.37,26.58,44.16,28.54,32.89,3.24,58-9,73.49-38.09,9-17,17.22-34.71,23.2-53a552.79,552.79,0,0,1,56.77-121.94C529.68,330,545.57,300,549.24,272.56c4.13-30.89-1.37-56.45-10.55-86.46C525.81,144,490.41,101.78,428.1,99.35c-17.88-.7-35.64-.09-53.07,4.61q-40.84,11-62.46,47.3c-10.56,17.65-17.19,36.33-16.3,57.28a108.37,108.37,0,0,1-.94,19.56,18.11,18.11,0,0,1-4,9.26c-5.73,6.77-13.88,6.31-19-.56-5.64-7.54-7.91-15.41-9-23.76-2.6-19.78,1.26-39.84,10-57.75,16-32.59,40.83-57.94,76.43-73.71,28.93-12.8,59.81-13.84,90.83-10.73,27.08,2.71,52.17,11.36,73.36,28.81,36.65,30.2,58.4,69.09,65.26,116.12C580.58,225.15,580.88,234.68,581.67,244.13Z"/><path class="cls-1" d="M496.82,258.17a4.13,4.13,0,0,1-3.94-3.45,37.27,37.27,0,0,1-.49-5.3c-.19-11.22-3.58-21.65-7.62-32.54-5.16-13.9-13.09-23.22-24.91-29.77-14.85-8.22-32.63-15.06-48.37-8.7-9.67,3.91-17.75,8.58-26.32,28.76a20.28,20.28,0,0,0-1,3c-8.88,36.56-18.44,77.19,4.73,107.27,20.05,26,46,36.17,38.13,81.1-8.59,21-21.3,40.82-43.94,43.9-14.92,2-23.56.24-31.75-12.15-4.5-6.82-3.91-13.82-.66-21.36,5.8-13.41,15.91-16.12,20.93-29.84,3.16-8.62-6.61-32.69-12.23-40-5.5-7.11-10.65-14.52-16.45-21.37a25.38,25.38,0,0,1-6.43-16.86c-.05-10.84,2.74-20.89,10.42-28.86,7.37-7.66,9.41-16.54,9.2-26.95-.26-12.59-.45-25.48,1.9-37.74,5.2-27.16,27.46-45.86,56.09-49.19,36.54-4.24,68.77,13.22,82.28,47.42,6.89,17.44,8.95,30,5.45,49.65a.22.22,0,0,1,0,.08C501.53,257.75,499,258.22,496.82,258.17Z"/><path class="cls-1" d="M683.11,334.06c-1,31.72-12.55,58.11-38,77.63-7.12,5.46-14.37,4.87-18.84-1.26-4.64-6.35-3.14-14.72,3.55-19.81,38.08-29,38-83.88-.1-113-5-3.83-7.06-8.72-5.63-14.89,1.25-5.39,5.17-9.66,10.12-9.55a19.14,19.14,0,0,1,10.5,3.3C670.55,275.87,682.1,302.46,683.11,334.06Z"/><path class="cls-1" d="M157.61,334.17c1-31.61,12.53-58,38-77.53,7.13-5.46,14.37-4.89,18.85,1.23,4.65,6.35,3.15,14.74-3.52,19.82-38.08,29-38.06,83.95.06,113,5,3.82,7.08,8.71,5.66,14.88-1.25,5.41-5.17,9.68-10.12,9.57a19.08,19.08,0,0,1-10.5-3.29C170.19,392.46,158.62,365.88,157.61,334.17Z"/></svg>