<svg id="Layer_1" data-name="Layer 1" xmlns="http://www.w3.org/2000/svg" viewBox="0 0 184.83 171.26"><defs><style>.cls-1{fill:#ccc;}.cls-2{fill:#c1272d;}.cls-3{fill:none;}.cls-4{fill:#fff;}</style></defs><rect class="cls-1" x="22.37" y="18.64" width="140.07" height="133.27" rx="28.78"/><path class="cls-2" d="M133.67,155.9H51.15a32.81,32.81,0,0,1-32.78-32.77V47.42A32.82,32.82,0,0,1,51.15,14.64h82.52a32.81,32.81,0,0,1,32.78,32.78v75.71A32.81,32.81,0,0,1,133.67,155.9ZM51.15,22.64A24.81,24.81,0,0,0,26.37,47.42v75.71A24.8,24.8,0,0,0,51.15,147.9h82.52a24.79,24.79,0,0,0,24.78-24.77V47.42a24.8,24.8,0,0,0-24.78-24.78Z"/><line class="cls-3" x1="36.11" y1="147.63" x2="48.16" y2="122.33"/><rect class="cls-2" x="27.99" y="130.96" width="28.03" height="8" transform="translate(-97.91 114.89) rotate(-64.55)"/><line class="cls-3" x1="24.29" y1="133.42" x2="42.14" y2="114.07"/><rect class="cls-2" x="19.92" y="119.68" width="26.32" height="8" transform="translate(-80.27 64.15) rotate(-47.32)"/><line class="cls-3" x1="150.21" y1="146.63" x2="137.9" y2="121.56"/><rect class="cls-2" x="140.09" y="120.16" width="8" height="27.94" transform="translate(-44.36 77.2) rotate(-26.14)"/><line class="cls-3" x1="160.53" y1="133.42" x2="144.03" y2="114.07"/><rect class="cls-2" x="148.23" y="110.99" width="8" height="25.43" transform="translate(-43.87 128.4) rotate(-40.47)"/><rect class="cls-4" x="39.47" y="18.64" width="105.88" height="105.88" rx="17"/><path class="cls-2" d="M128.35,128.51H56.47a21,21,0,0,1-21-21V35.64a21,21,0,0,1,21-21h71.88a21,21,0,0,1,21,21v71.87A21,21,0,0,1,128.35,128.51ZM56.47,22.64a13,13,0,0,0-13,13v71.87a13,13,0,0,0,13,13h71.88a13,13,0,0,0,13-13h0V35.64a13,13,0,0,0-13-13Z"/><path d="M106.19,71.64H84.11a1.55,1.55,0,0,0-1.55,1.55h0V93.45A1.56,1.56,0,0,0,84.11,95h25a1.54,1.54,0,0,1,1.56,1.54h0v3.91a1.56,1.56,0,0,1-1.56,1.56H75.78a1.57,1.57,0,0,1-1.55-1.56V38.78a1.56,1.56,0,0,1,1.55-1.56h31.89a1.54,1.54,0,0,1,1.55,1.55h0v3.91a1.54,1.54,0,0,1-1.53,1.55H84.15a1.55,1.55,0,0,0-1.55,1.55h0V63.17a1.56,1.56,0,0,0,1.55,1.55h22.08a1.53,1.53,0,0,1,1.55,1.53v3.84a1.55,1.55,0,0,1-1.55,1.55Z"/></svg>