<svg id="Layer_1" data-name="Layer 1" xmlns="http://www.w3.org/2000/svg" viewBox="0 0 107.87 103.92"><defs><style>.cls-1{fill:#333;}</style></defs><g id="LoZPH6.tif"><path class="cls-1" d="M52.92,2.64h2a5,5,0,0,1,2,4.49c-.08,8.19.11,18.62-.11,26.8-.08,3.25,5.07,6.15,7.37,8.33-.37-6.62-.74-12.63-1-18.66-.17-3.27,1.7-4.75,4.8-3.86A32.83,32.83,0,0,1,84.34,30.35C98.88,47.6,103.22,67.53,99.21,89.48c-.74,4.08-2,5-6,3.91a90.32,90.32,0,0,1-23-9.54,14.61,14.61,0,0,1-2.52-2A10.68,10.68,0,0,1,64.1,73c.33-6.6.27-13.22.33-19.83A3,3,0,0,0,64,51.34c-2.26-2.6-7.76-6.6-10.15-9.23-2.27,2.5-7.09,6.32-9.06,8.65a4.07,4.07,0,0,0-.92,2.41c0,6.28-.33,12.6.26,18.84.51,5.48-1.59,9.12-6,11.76C30.6,88.3,22.65,91.9,14,93.61c-2.86.57-4-.1-4.64-3-.7-3.05-1.21-6.14-1.79-9.21,0-3.81-.88-7.54.49-14.06C10.62,54.94,13.7,43.11,21.64,33A37.18,37.18,0,0,1,39.2,20.18c4.56-1.52,6.2-.23,5.9,4.51-.33,5.12-.58,10.24-.84,15.36a13.33,13.33,0,0,0,.16,1.83c3-2.09,6.67-6.27,6.55-9.75-.26-7.69,0-17.63-.11-25.33A4.27,4.27,0,0,1,52.92,2.64Z"/></g></svg>