<svg id="Layer_1" data-name="Layer 1" xmlns="http://www.w3.org/2000/svg" viewBox="0 0 107.87 103.92"><defs><style>.cls-1{fill:#c0272d;}.cls-2{fill:none;stroke:#c0272d;stroke-miterlimit:10;stroke-width:3px;}</style></defs><path class="cls-1" d="M65.41,68.21c-2.88,3-7,1.72-11.47,1.72-3.93,0-7.53,1.77-10.3-.6a15.85,15.85,0,0,1-.9-23.24c2.86-2.87,6.29-1.6,10.66-1.6,3.85,0,8.44-1.39,10.66.62a16.43,16.43,0,0,1,5.72,12.18,15.79,15.79,0,0,1-4.37,10.92"/><path class="cls-2" d="M7.83,57.35h0S51.45,28.61,100,57.08C100,57.08,56.42,85.82,7.83,57.35Z"/></svg>