<svg id="Layer_1" data-name="Layer 1" xmlns="http://www.w3.org/2000/svg" viewBox="0 0 107.87 103.92"><defs><style>.cls-1{fill:#c0272d;}</style></defs><g id="LoZPH6.tif"><path class="cls-1" d="M53.34,2.64h2a5,5,0,0,1,2,4.49c-.08,8.19.11,18.62-.1,26.8-.09,3.25,5.06,6.15,7.36,8.33-.37-6.62-.73-12.63-1-18.66-.17-3.27,1.7-4.75,4.81-3.86A32.92,32.92,0,0,1,84.77,30.35C99.3,47.6,103.64,67.53,99.64,89.48c-.75,4.08-2,5-6,3.91a90.47,90.47,0,0,1-23-9.54,15,15,0,0,1-2.52-2A10.68,10.68,0,0,1,64.52,73c.33-6.6.27-13.22.33-19.83a3,3,0,0,0-.44-1.85c-2.25-2.6-7.75-6.6-10.15-9.23-2.27,2.5-7.08,6.32-9,8.65a4,4,0,0,0-.92,2.41c0,6.28-.33,12.6.25,18.84.52,5.48-1.59,9.12-6,11.76C31,88.3,23.08,91.9,14.38,93.61c-2.86.57-4-.1-4.65-3-.7-3.05-1.2-6.14-1.79-9.21,0-3.81-.88-7.54.49-14.06C11,54.94,14.12,43.11,22.06,33c4.65-5.9,10.34-10.44,17.57-12.85,4.55-1.52,6.19-.23,5.89,4.51-.33,5.12-.58,10.24-.84,15.36a13.33,13.33,0,0,0,.16,1.83c3-2.09,6.67-6.27,6.56-9.75-.27-7.69,0-17.63-.12-25.33A4.29,4.29,0,0,1,53.34,2.64Z"/></g></svg>